<svg width="517" height="1424" viewBox="0 0 517 1424" fill="none" xmlns="http://www.w3.org/2000/svg">
<path d="M322.343 1188.47C311.091 1177.45 302.737 1163.1 304.899 1146.62C306.042 1138.8 309.268 1131.43 314.239 1125.29C319.21 1119.14 325.742 1114.45 333.152 1111.7C358.698 1102.61 385.461 1118.58 410.43 1129.05C440.296 1141.58 479.733 1144.41 500.5 1119.58C507.301 1111.46 511.181 1101.29 517.35 1092.67C531.271 1073.21 560.603 1060.67 580.683 1073.65C605.66 1089.79 590.908 1101.29 613.384 1116.55C639.207 1134 661.754 1119.56 687.209 1137.53C705.546 1150.51 720.303 1167.92 730.109 1188.14C735.686 1199.64 739.657 1212.63 736.927 1225.14C732.519 1245.6 712.16 1258.34 692.612 1265.84C657.528 1279.29 617.524 1284.57 589.943 1310.08C579.664 1319.6 571.702 1331.49 560.772 1340.25C545.973 1352.11 527.025 1357.23 508.596 1361.74C487.137 1367.05 465.177 1371.82 443.11 1370.52C421.044 1369.22 398.48 1361.04 384.243 1344.12C360.38 1315.66 369.78 1278.5 359.729 1245.6C357.025 1237.29 353.6 1229.22 349.492 1221.5C346.602 1215.79 342.471 1210.92 339.403 1205.42C337.985 1202.87 336.142 1200.57 333.955 1198.64C332.166 1197.09 330.284 1195.35 328.421 1193.82C326.558 1192.29 324.31 1190.43 322.343 1188.47Z" stroke="#DEECF4" stroke-linecap="round" stroke-linejoin="round" stroke-dasharray="2.01 4.01"/>
<path d="M359.244 1201.34C349.921 1192.21 342.97 1180.34 344.774 1166.67C345.72 1160.19 348.391 1154.09 352.507 1149C356.624 1143.91 362.034 1140.02 368.17 1137.74C389.351 1130.2 411.531 1143.44 432.257 1152.13C456.992 1162.48 489.665 1164.85 506.89 1144.28C512.522 1137.57 515.734 1129.12 520.851 1121.98C532.385 1105.87 555.374 1097.78 573.319 1106.23C581.094 1109.87 587.316 1116.07 594.125 1121.31C614.597 1137.07 640.488 1144.25 661.58 1159.16C676.775 1169.91 689.003 1184.34 697.128 1201.08C701.742 1210.62 704.998 1221.34 702.773 1231.74C699.136 1248.7 682.256 1259.25 666.057 1265.47C636.988 1276.61 603.839 1280.98 580.987 1302.13C572.473 1310 565.876 1319.87 556.818 1327.12C544.556 1336.95 528.8 1341.21 513.599 1344.92C495.799 1349.26 477.625 1353.3 459.335 1352.19C441.045 1351.09 422.379 1344.39 410.557 1330.3C390.733 1306.72 398.576 1275.93 390.264 1248.66C388.006 1241.75 385.156 1235.04 381.744 1228.61C379.351 1223.88 375.932 1219.86 373.336 1215.31C372.164 1213.23 370.652 1211.36 368.862 1209.78C367.369 1208.49 365.814 1207.05 364.311 1205.78C362.808 1204.51 360.857 1202.91 359.244 1201.34Z" stroke="#DEECF4" stroke-linecap="round" stroke-linejoin="round"/>
<path d="M396.14 1214.2C388.751 1206.97 372 1192.69 373.435 1181.87C374.185 1176.72 376.312 1171.86 379.592 1167.82C382.872 1163.78 387.182 1160.7 392.068 1158.9C408.863 1152.92 431.029 1171.09 447.463 1177.99C467.076 1186.21 499.661 1185.23 513.309 1168.91C517.788 1163.57 520.328 1156.87 524.387 1151.24C533.558 1138.5 551.779 1132.04 565.951 1138.75C572.115 1141.64 577.045 1146.56 582.447 1150.72C598.67 1163.22 619.271 1168.9 635.927 1180.66C647.969 1189.19 657.661 1200.62 664.103 1213.9C667.77 1221.46 670.354 1230 668.595 1238.21C665.696 1251.66 652.31 1260.03 639.455 1264.95C616.405 1273.81 590.125 1277.26 571.998 1294.03C565.243 1300.29 560.017 1308.1 552.839 1313.86C543.11 1321.65 530.646 1325.01 518.554 1327.96C504.428 1331.42 490.015 1334.6 475.516 1333.73C461.018 1332.87 446.187 1327.5 436.823 1316.38C421.106 1297.7 427.324 1273.26 420.77 1251.63C418.983 1246.17 416.724 1240.87 414.021 1235.8C412.124 1232.05 409.413 1228.85 407.347 1225.24C406.409 1223.56 405.196 1222.06 403.761 1220.79C402.569 1219.78 401.334 1218.63 400.113 1217.62C398.892 1216.62 397.408 1215.45 396.14 1214.2Z" stroke="#DEECF4" stroke-linecap="round" stroke-linejoin="round"/>
<path d="M433.085 1227.06C427.61 1221.71 423.551 1214.75 424.608 1206.74C425.165 1202.94 426.732 1199.37 429.147 1196.38C431.561 1193.4 434.733 1191.13 438.33 1189.79C450.74 1185.35 463.741 1193.12 475.893 1198.21C490.385 1204.29 509.544 1205.67 519.636 1193.61C522.935 1189.66 524.822 1184.72 527.82 1180.54C534.54 1171.1 548.055 1166.36 558.577 1171.3C563.13 1173.44 566.783 1177.08 570.77 1180.14C582.739 1189.3 597.927 1193.6 610.307 1202.32C619.211 1208.63 626.377 1217.09 631.141 1226.9C633.874 1232.54 635.769 1238.8 634.459 1244.87C632.317 1254.82 622.425 1260.99 612.934 1264.63C595.894 1271.17 576.463 1273.74 563.076 1286.13C558.055 1290.75 554.205 1296.53 548.903 1300.78C541.711 1306.55 532.515 1309.03 523.561 1311.21C513.133 1313.77 502.472 1316.11 491.765 1315.48C481.057 1314.86 470.08 1310.88 463.185 1302.66C451.566 1288.84 456.12 1270.74 451.278 1254.81C449.968 1250.77 448.304 1246.86 446.306 1243.11C444.895 1240.31 442.897 1237.96 441.372 1235.31C440.668 1234.07 439.758 1232.96 438.682 1232.03C437.801 1231.27 436.892 1230.42 435.973 1229.64C435.054 1228.87 433.974 1227.99 433.085 1227.06Z" stroke="#DEECF4" stroke-linecap="round" stroke-linejoin="round"/>
<path d="M469.942 1239.95C466.395 1236.48 463.765 1231.98 464.453 1226.8C464.805 1224.34 465.814 1222.02 467.374 1220.08C468.935 1218.14 470.988 1216.66 473.32 1215.79C481.348 1212.92 490.291 1226.82 498.147 1230.11C507.56 1234.03 519.922 1234.94 526.496 1227.11C528.636 1224.56 529.85 1221.37 531.791 1218.66C536.168 1212.55 544.362 1200.62 551.16 1203.81C553.986 1205.43 556.632 1207.35 559.053 1209.53C566.816 1215.51 576.638 1218.23 584.639 1223.88C590.393 1227.97 595.025 1233.44 598.106 1239.79C599.863 1243.4 601.1 1247.48 600.237 1251.41C598.851 1257.85 592.454 1261.84 586.312 1264.2C575.286 1268.44 562.725 1270.09 554.047 1278.11C550.83 1281.1 548.326 1284.84 544.881 1287.59C540.24 1291.32 534.276 1292.92 528.495 1294.34C521.747 1295.98 514.862 1297.51 507.906 1297.1C500.951 1296.7 493.912 1294.12 489.421 1288.8C481.881 1279.83 484.872 1268.18 481.71 1257.85C480.862 1255.24 479.786 1252.7 478.495 1250.28C477.589 1248.48 476.294 1246.95 475.315 1245.23C474.867 1244.42 474.281 1243.7 473.584 1243.1C473.02 1242.62 472.437 1242.07 471.839 1241.58C471.18 1241.07 470.547 1240.52 469.942 1239.95Z" stroke="#DEECF4" stroke-linecap="round" stroke-linejoin="round"/>
<path d="M506.843 1252.82C505.983 1252.09 505.308 1251.17 504.874 1250.14C504.439 1249.1 504.257 1247.97 504.343 1246.85C504.507 1245.73 504.968 1244.68 505.679 1243.8C506.39 1242.93 507.323 1242.26 508.382 1241.86C512.03 1240.55 515.847 1242.84 519.426 1244.33C523.684 1246.12 529.321 1246.53 532.279 1242.98C533.254 1241.82 533.811 1240.37 534.685 1239.14C535.667 1237.74 537.094 1236.7 538.735 1236.21C540.375 1235.72 542.135 1235.8 543.727 1236.43C545.017 1237.16 546.223 1238.03 547.321 1239.03C550.835 1241.73 555.303 1242.96 558.941 1245.55C561.554 1247.4 563.658 1249.89 565.056 1252.77C565.962 1254.38 566.306 1256.24 566.033 1258.06C565.355 1261 562.501 1262.8 559.762 1263.85C554.761 1265.76 549.044 1266.52 545.125 1270.21C543.657 1271.57 542.515 1273.27 540.964 1274.52C538.734 1276.07 536.193 1277.11 533.517 1277.58C530.474 1278.46 527.317 1278.88 524.15 1278.84C522.565 1278.8 521.004 1278.44 519.56 1277.79C518.115 1277.14 516.816 1276.2 515.74 1275.04C512.326 1270.98 513.687 1265.67 512.249 1260.97C511.861 1259.79 511.37 1258.64 510.78 1257.54C510.366 1256.71 509.784 1256.02 509.336 1255.24C509.127 1254.87 508.862 1254.55 508.55 1254.27L507.758 1253.58C507.412 1253.37 507.11 1253.09 506.843 1252.82Z" stroke="#DEECF4" stroke-linecap="round" stroke-linejoin="round"/>
<path d="M100.676 620.448C98.3558 628.382 100.593 636.356 102.262 644.237C103.47 649.937 104.733 655.604 106.349 661.206C108.955 670.265 113.302 678.729 119.147 686.124C129.784 700.079 143.108 712.318 159.28 719.565C167.66 723.35 176.42 726.228 185.413 728.15C194.276 730.17 203.519 729.774 212.177 727.003C218.805 725.139 225.077 722.186 230.736 718.264C238.046 713.066 244.265 707.065 251.066 701.25C282.15 674.73 322.254 654.447 364.028 662.746C404.198 670.718 436.392 700.715 474.947 714.47C507.111 725.942 542.616 725.584 575.997 718.355C602.803 712.553 631.118 700.236 642.643 675.335C654.732 649.209 644.448 618.82 643.305 590.051C641.171 536.112 671.687 487.137 697.25 439.568C719.637 397.994 763.326 300.407 706.458 268.502C698.276 263.9 689.585 260.799 680.977 257.198C674 253.993 666.744 251.433 659.3 249.549C652.497 248.003 645.563 247.363 638.582 246.477C631.415 245.387 624.142 245.169 616.922 245.827C608.604 246.678 600.353 248.084 592.223 250.036C578.107 253.428 566.583 261.911 554.709 270.018C546.555 275.581 538.759 281.65 531.364 288.187C523.485 295.199 515.113 301.343 506.748 307.761C492.773 318.487 479.552 330.287 464.763 339.956C448.397 350.88 431.454 360.916 414.01 370.019C407.358 373.424 400.705 376.928 393.804 379.811C384.231 383.803 373.93 386.401 364.08 389.587C354.231 392.772 344.178 396.642 333.982 399.158C323.91 401.562 313.617 402.915 303.266 403.195C295.358 403.472 287.525 403.628 279.635 404.209C269.88 404.92 260.038 404.503 250.324 405.642C241.351 406.703 232.219 405.764 223.259 407.57C214.428 409.144 205.779 411.608 197.444 414.925C180.787 421.941 166.695 433.013 153.278 444.959C145.616 451.561 138.602 458.88 132.331 466.815C125.686 475.479 121.285 485.388 117.537 495.608C114.563 503.687 111.045 511.796 109.67 520.384C108.737 526.061 108.107 531.819 107.423 537.512C106.433 545.732 107.363 554.096 106.569 562.318C105.186 576.577 106.436 590.864 104.221 605.018C103.763 607.935 102.362 610.147 101.323 612.828C100.842 614.534 100.507 616.277 100.321 618.039C99.7661 620.857 96.8706 623.487 100.676 620.448Z" stroke="#DEECF4" stroke-miterlimit="10"/>
<path d="M152.374 867.735C153.625 852.77 158.449 838.324 166.44 825.61C187.093 793.278 227.75 746.349 267.254 739.47C313.07 731.51 355.43 771.787 401.877 769.405C425.363 768.195 446.829 756.155 469.744 750.861C492.659 745.568 521.588 750.008 531.71 771.231C539.209 786.966 533.43 805.66 526.162 821.513C518.894 837.366 509.936 853.635 511.368 871.007C513.479 896.873 538.047 917.089 538.957 943.018C539.685 963.451 522.911 982.997 502.595 985.398C484.599 987.521 467.577 977.846 450.285 972.525C434.781 967.89 418.458 966.662 402.434 968.923C386.41 971.184 371.065 976.882 357.448 985.626C335.935 999.685 319.95 1020.77 300.144 1037.34C291.079 1044.81 280.815 1051.6 269.233 1052.81C251.99 1054.59 236.057 1043.75 223.391 1031.93C185.719 996.78 146.648 926.43 152.374 867.735Z" stroke="#DEECF4" stroke-miterlimit="10"/>
<path d="M266.013 906.868L266.323 907.826C271.515 922.32 282.589 932.942 298.4 935.044C301.723 935.681 305.08 936.124 308.455 936.369C312.272 936.438 316.08 936.379 319.891 936.075C324.104 935.789 328.254 934.902 332.216 933.441C335.609 932.197 337.726 928.873 339 925.66C345.889 908.284 325.445 890.041 318.229 876.543C312.184 865.354 310.762 852.296 306.508 840.299C302.253 828.303 293.466 816.291 280.836 814.756C266.046 812.943 253.124 826.976 250.684 841.74C248.243 856.504 253.33 871.227 258.341 885.259L266.013 906.868Z" stroke="#DEECF4" stroke-miterlimit="10" stroke-dasharray="2 4"/>
<path d="M231.915 825.658C232.349 825.567 232.749 825.359 233.072 825.056C233.996 823.825 234.571 822.367 234.737 820.837C237.302 810.234 248.979 804.992 259.492 802.244C271.385 799.131 284.861 797.59 295.276 804.109C305.237 810.334 309.797 822.215 315.291 832.507C323.066 847.04 333.746 859.819 346.668 870.05C358.265 879.216 372.436 885.464 380.573 898.436C383.217 902.97 385.268 907.824 386.677 912.88C388.079 917.215 389.848 921.627 389.546 926.334C388.358 944.113 375.993 950.702 360.379 953.944C338.089 958.411 316.273 964.987 295.227 973.581C291.339 975.463 287.183 976.73 282.907 977.337C274.971 977.981 267.237 973.658 261.336 968.204C246.41 954.382 239.949 933.8 235.873 913.895C229.842 884.482 227.666 854.409 229.402 824.435C229.574 825.52 230.81 825.918 231.915 825.658Z" stroke="#DEECF4" stroke-miterlimit="10"/>
<path d="M211.141 825.08C216.142 800.253 238.923 779.236 264.486 778.152C284.886 777.271 304.109 787.456 320.73 799.313C337.35 811.171 352.751 825.1 371.293 833.632C388.303 841.454 407.77 844.638 422.432 856.281C428.779 861.324 433.904 867.737 437.424 875.039C440.945 882.341 442.769 890.345 442.761 898.451C442.753 906.558 440.912 914.558 437.378 921.853C433.843 929.148 428.705 935.55 422.348 940.581C405.393 953.98 382.429 955.95 361.893 962.656C339.193 970.125 318.974 983.671 303.433 1001.82C300.317 1005.49 297.243 1009.43 292.936 1011.52C283.874 1015.94 273.492 1005.79 266.957 1000.59C258.197 993.651 252.23 984.619 247.561 974.614C241.088 960.864 235.501 946.715 230.832 932.252C228.558 925.219 226.278 918.171 224.003 911.137C221.691 903.356 220.257 895.341 219.728 887.241C218.123 869.535 210.043 852.912 210.136 834.966C210.146 831.646 210.483 828.334 211.141 825.08Z" stroke="#DEECF4" stroke-miterlimit="10"/>
<path d="M422.141 791.469L423.982 791.069C439.048 787.841 453.821 783.374 468.151 777.713C472.021 776.234 476.111 774.879 480.233 775.337C484.579 776.036 488.58 778.125 491.638 781.291C495.473 784.692 498.134 789.219 499.241 794.224C499.759 796.721 499.637 799.308 498.888 801.746C498.139 804.184 496.786 806.392 494.955 808.168C490.623 811.996 484.366 812.341 478.564 812.882C460.583 814.495 427.941 832.169 415.196 811.143C411.723 805.442 411.928 796.808 417.552 793.247C418.973 792.405 420.523 791.804 422.141 791.469Z" stroke="#DEECF4" stroke-miterlimit="10"/>
<path d="M268.457 874.789L268.397 875.411C269.559 886.355 273.353 897.685 281.887 904.633C291.088 912.13 311.058 913.246 311.837 898.579C312.549 885.319 297.054 873.619 295.369 860.401C294.669 854.812 294.899 848.875 292.115 843.993C288.77 838.234 281.512 835.483 274.943 836.223C271.441 836.623 267.801 838.061 265.932 841.043C263.073 845.6 265.309 851.457 266.787 856.631C268.461 862.528 269.027 868.685 268.457 874.789Z" stroke="#DEECF4" stroke-miterlimit="10"/>
<path d="M453.855 949.415C455.284 950.055 456.846 950.343 458.41 950.255C465.731 950.33 472.658 953.367 479.396 956.221C486.133 959.075 493.274 961.815 500.562 961.233C507.85 960.652 515.343 955.72 516.388 948.476C517.244 942.661 513.951 937.162 511.184 931.982C506.116 922.473 502.456 912.277 500.321 901.715C499.929 898.565 498.944 895.518 497.417 892.735C495.652 890.048 492.321 888.21 489.313 889.232C484.465 890.913 484.59 897.746 485.658 902.76C487.756 912.57 491.738 921.56 483.926 929.738C476.743 937.192 466.053 939.59 456.6 943.299C454.564 944.104 452.134 945.606 452.581 947.742C452.659 948.097 452.814 948.43 453.034 948.718C453.254 949.007 453.534 949.245 453.855 949.415Z" stroke="#DEECF4" stroke-miterlimit="10"/>
<path d="M524 941.34C523.523 939.865 523.046 938.391 522.436 936.959C517.867 925.114 513.3 913.273 508.733 901.437C505.879 894.021 502.632 886.146 495.961 881.837C491.858 879.222 486.279 878.339 482.255 881.057C478.479 883.582 477.072 888.499 476.992 893.037C476.912 897.574 477.872 902.102 477.591 906.623C477.061 915.459 470.823 925.734 462.096 928.817C458.016 930.251 453.824 931.492 449.71 932.823C439.665 935.957 435.895 948.073 443.688 955.7C448.191 960.107 454.596 961.831 460.689 963.346C474.19 966.716 488.168 969.9 501.896 967.675C507.647 966.932 513.101 964.686 517.706 961.161C519.983 959.382 521.819 957.101 523.07 954.495C524.321 951.89 524.953 949.031 524.917 946.141C524.809 944.509 524.501 942.897 524 941.34Z" stroke="#DEECF4" stroke-miterlimit="10"/>
<path d="M277.499 1156.38C272.779 1127.93 291.149 1098.86 316.814 1085.76C342.48 1072.65 373.647 1073.49 401.011 1082.55C422.102 1089.4 443.661 1100.86 465.237 1095.66C486.572 1090.52 500.58 1070.78 518.019 1057.42C540.748 1040.07 572.314 1033.57 599.005 1043.83C630.639 1056.03 650.566 1088.24 680.828 1103.7C696.439 1111.68 714.558 1114.97 728.261 1125.82C737.794 1133.39 744.36 1143.97 750.74 1154.38L774.332 1192.73" stroke="#DEECF4" stroke-miterlimit="10"/>
<path d="M282.226 1096.96C294.297 1080.55 313.202 1069.91 333.114 1065.6C353.026 1061.29 373.869 1062.99 393.623 1067.97C416.034 1073.61 438.685 1083.51 461.366 1079.11C480.724 1075.36 496.494 1061.82 512.186 1049.91C525.593 1039.74 539.835 1030.34 555.658 1024.62C571.48 1018.91 589.125 1017.06 605.189 1022.06C624.948 1028.21 647.933 1067.65 664.797 1079.61C688.027 1096.04 698.118 1067.11 728.049 1088.85C758.963 1111.26 783.591 1177.39 786.538 1205.64" stroke="#DEECF4" stroke-miterlimit="10"/>
<path d="M443.563 1038.46C433.01 1037.22 422.722 1034.31 413.084 1029.84C407.723 1027.51 402.4 1024.9 396.63 1023.93C389.745 1022.79 382.701 1024.03 375.819 1023.04C368.938 1022.06 361.596 1017.69 360.825 1010.77C360.257 1005.74 363.413 1000.95 367.439 997.884C375.857 991.481 387.401 991.217 397.902 992.512C416.945 994.888 435.235 1001.48 454.163 1004.66C473.091 1007.84 493.857 1007.23 509.754 996.455C515.202 992.754 519.886 987.998 525.364 984.289C528.649 982.141 532.077 980.222 535.624 978.544C539.183 976.806 542.943 975.086 546.911 975.219C550.88 975.353 555.023 977.938 555.575 981.864C555.683 983.442 555.367 985.021 554.658 986.436C553.95 987.85 552.876 989.05 551.548 989.909C548.876 991.593 545.949 992.831 542.88 993.576C520.428 1000.47 499.525 1011.66 481.329 1026.51C477.29 1029.79 473.798 1033.44 468.884 1035.42C460.792 1038.38 452.125 1039.42 443.563 1038.46Z" stroke="#DEECF4" stroke-miterlimit="10"/>
<path d="M388.559 1014.59C385.987 1015.15 383.349 1015.35 380.722 1015.19C379.41 1015.08 378.156 1014.6 377.109 1013.8C376.063 1013 375.268 1011.92 374.818 1010.68C373.914 1007.13 377.158 1003.86 380.446 1002.25C390.749 997.187 403.158 999.949 413.798 1004.24C424.439 1008.54 434.796 1014.38 446.236 1015.35C449.752 1015.65 453.434 1015.5 456.575 1017.11C459.717 1018.71 461.899 1022.94 459.879 1025.81C458.832 1027.08 457.429 1028 455.851 1028.46C444.94 1032.55 431.364 1032.52 422.952 1024.09C414.539 1015.65 400.062 1012.94 388.559 1014.59Z" stroke="#DEECF4" stroke-miterlimit="10"/>
<path d="M344.607 483.283C343.82 487.001 344.077 490.864 345.35 494.445C349.65 507.387 359 513.435 371.817 509.502C386.501 504.997 402.014 500.486 417.219 505.096C432.425 509.707 444.32 520.503 454.992 531.645C466.447 543.593 495.023 580.331 514.877 564.871C520.084 560.825 521.656 553.346 520.121 546.887C518.586 540.429 514.498 534.991 509.983 530.197C495.72 515.053 475.063 503.557 468.025 482.9C466.821 479.923 466.501 476.661 467.104 473.507C468.394 468.529 473.226 465.191 478.198 463.843C488.451 461.049 499.429 463.313 509.756 460.951C526.822 457.06 538.922 439.629 536.989 422.321C536.259 416.379 534.051 410.715 530.568 405.847C527.084 400.978 522.435 397.061 517.047 394.452C507.122 390.161 495.908 389.944 485.824 393.849C474.112 398.073 464.554 406.77 459.246 418.032C454.996 426.849 452.513 436.497 448.298 445.271C442.723 457.042 432.783 469.214 418.289 465.595C413.536 464.396 409.042 462.185 404.354 460.883C387.707 456.298 349.243 463.119 344.607 483.283Z" stroke="#DEECF4" stroke-miterlimit="10"/>
<path d="M448.998 553.552C431.49 539.05 412 524.163 389.277 523.401C377.058 522.987 364.683 526.777 352.729 524.21C336.65 520.777 324.386 505.215 323.607 488.805C322.827 472.395 332.881 456.341 347.448 448.552C354.287 445.115 361.68 442.912 369.285 442.043C385.851 439.83 402.706 441.642 418.423 447.326C421.134 448.306 424.188 449.387 426.821 448.112C430.168 446.475 430.693 442.055 431.368 438.4C441.889 381.639 548.611 352.695 559.993 422.439C561.789 433.031 561.681 444.582 556.061 453.745C547.974 466.915 531.134 471.302 515.834 473.448C509.818 474.286 503.08 475.358 499.483 480.251C496.664 484.127 496.684 489.528 498.409 494.003C500.37 498.39 503.153 502.36 506.606 505.702C516.047 515.809 526.741 525.152 533.006 537.476C539.272 549.799 539.883 566.394 530.019 576.082C504.457 601.044 469.012 570.159 448.998 553.552Z" stroke="#DEECF4" stroke-miterlimit="10"/>
<path d="M413.588 551.583C425.224 558.595 436.395 566.353 447.029 574.809C458.975 584.301 470.692 594.845 485.34 599.245C500.845 603.824 517.595 600.671 532.946 595.609C538.284 593.883 543.689 591.76 547.742 587.876C551.268 584.234 553.833 579.772 555.205 574.892C559.228 562.206 558.568 548.498 553.346 536.256C549.289 526.835 542.672 518.713 537.951 509.604C535.658 505.183 533.772 500.206 534.644 495.299C535.829 488.889 541.266 484.297 546.389 480.294C558.797 470.565 572.023 459.789 575.909 444.508C579.201 431.57 575.049 417.977 570.21 405.632C565.97 394.788 560.946 383.887 552.52 375.863C537.525 361.427 513.939 359.006 494.054 365.257C474.169 371.509 457.605 385.059 442.831 399.609C434.652 407.711 426.63 416.396 416.245 421.351C404.25 427.071 390.453 427.217 377.278 428.481C362.906 429.871 348.45 432.917 335.778 439.817C323.107 446.716 312.36 458.059 308.467 471.957C301.283 497.588 319.145 525.119 341.715 536.388C353.245 542.122 361.52 540.717 373.475 539.456C387.862 538.012 401.582 544.325 413.588 551.583Z" stroke="#DEECF4" stroke-miterlimit="10"/>
<path d="M357.058 487.938C356.827 489.446 357.096 490.989 357.824 492.33C358.552 493.671 359.698 494.737 361.088 495.365C363.93 496.544 367.108 496.625 370.006 495.592C372.874 494.568 375.669 493.349 378.37 491.942C383.143 489.471 388.505 488.362 393.866 488.739C399.81 489.439 405.484 492.832 411.393 491.915C412.14 491.841 412.85 491.555 413.439 491.09C414.016 490.449 414.36 489.632 414.415 488.771C414.706 485.963 414.03 483.14 412.499 480.768C410.968 478.397 408.674 476.618 405.995 475.728C398.785 473.58 391.489 478.367 384.028 479.167C380.358 479.556 376.654 478.979 372.948 479.004C367.664 479.084 358.446 481.805 357.058 487.938Z" stroke="#DEECF4" stroke-miterlimit="10"/>
<path d="M511.868 545.191C512.097 545.894 512.138 546.645 511.986 547.368C511.759 548.073 511.333 548.697 510.759 549.166C507.721 551.907 502.937 551.923 499.188 550.253C495.551 548.346 492.337 545.723 489.74 542.542C486.609 539.157 465.635 519.88 476.836 517.398C480.436 516.592 483.073 520.365 485.416 522.474C489.704 526.315 494.88 529.023 499.719 532.1C504.558 535.177 510.272 539.046 511.868 545.191Z" stroke="#DEECF4" stroke-miterlimit="10"/>
<path d="M499.195 451.108C496.589 450.887 494.095 449.953 491.986 448.407C489.329 446.236 488.105 442.805 487.022 439.555L483.403 428.869C482.006 424.548 480.525 419.717 482.473 415.618C482.987 414.445 483.852 413.459 484.949 412.798C487.328 411.442 490.358 412.351 492.762 413.691C495.166 415.031 497.405 416.815 500.121 417.256C504.657 417.988 509.083 414.749 513.66 415.256C519.423 415.9 522.847 422.057 524.071 427.753C525.492 434.313 525.03 443.16 518.862 447.354C513.757 450.91 505.143 451.872 499.195 451.108Z" stroke="#DEECF4" stroke-miterlimit="10"/>
<path d="M131.448 638.039C136.337 651.947 146.57 663.443 158.256 672.434C165.265 677.838 172.932 682.558 181.568 684.684C190.204 686.81 199.688 686.17 207.174 681.468C210.113 679.457 212.846 677.161 215.332 674.611L225.634 664.765C229.885 660.686 234.386 656.12 235.065 650.313C235.834 643.322 230.702 636.821 224.399 633.599C218.096 630.376 210.992 629.563 204.098 628.242C201.653 627.892 199.319 626.993 197.271 625.612C195.264 623.914 193.743 621.714 192.863 619.236C189.422 611.114 188.022 601.647 181.696 595.484C175.856 589.815 166.925 588.339 158.89 589.683C150.856 591.027 136.725 595.027 132.526 603.096C127.207 613.644 127.625 627.174 131.448 638.039Z" stroke="#DEECF4" stroke-miterlimit="10"/>
<path d="M118.303 570.348C122.793 566.551 128.382 564.292 134.249 563.904C140.068 563.527 145.91 563.778 151.675 564.653C158.028 565.129 164.297 566.383 170.343 568.388C177.826 571.23 184.267 576.283 188.808 582.874C192.591 588.378 194.935 594.77 198.743 600.249C202.599 605.778 207.832 610.205 213.923 613.093C223.342 617.539 234.701 618.263 242.564 625.102C246.809 628.811 249.542 633.937 251.843 639.089C254.023 643.4 255.257 648.126 255.463 652.952C255.42 657.852 253.45 662.691 251.522 667.256C249.985 671.485 247.845 675.468 245.168 679.084C241.154 683.949 235.354 686.965 229.553 689.476C218.316 694.115 206.815 698.09 195.111 701.38C194.492 701.58 193.584 701.695 193.384 701.076C193.184 700.456 194.47 700.203 194.18 700.818" stroke="#DEECF4" stroke-miterlimit="10"/>
<path d="M121.086 522.295C126.197 520.219 131.558 518.111 137.062 518.562C141.568 519.185 145.882 520.786 149.704 523.253C159.495 528.868 168.437 535.847 176.262 543.981C188.182 556.414 197.584 571.534 211.842 581.174C216.694 584.492 222.905 587.027 228.2 584.565C230.066 583.558 231.661 582.116 232.851 580.362C234.042 578.608 234.792 576.592 235.039 574.487C235.487 570.265 235.14 565.996 234.015 561.902C230.813 547.318 225.712 533.054 224.468 518.179C223.711 509.14 224.592 499.424 230.068 492.181C232.542 488.905 235.864 486.283 238.101 482.824C243.011 475.242 241.796 465.341 240.444 456.478" stroke="#DEECF4" stroke-miterlimit="10"/>
<path d="M132.009 509.332C146.52 509.428 161.518 512.493 173.129 521.198C182.393 528.138 188.822 538.095 196.226 546.988C197.971 549.37 200.206 551.352 202.78 552.8C204.074 553.511 205.541 553.843 207.014 553.761C208.488 553.679 209.909 553.185 211.116 552.336C213.362 550.469 213.92 547.259 213.956 544.349C214.047 536.42 211.494 528.727 208.954 521.225C206.414 513.724 203.802 506.05 203.75 498.135C203.699 490.22 206.621 481.831 213.317 477.353" stroke="#DEECF4" stroke-miterlimit="10"/>
<path d="M257.675 617.837C256.032 615.451 254.861 612.772 254.227 609.945C253.932 608.522 253.987 607.049 254.386 605.652C254.785 604.255 255.517 602.976 256.519 601.923C260.587 598.034 268.308 599.951 271.735 595.488C272.447 594.208 273.269 592.994 274.193 591.859C276.516 589.772 280.166 590.986 282.977 592.275C290.576 595.609 297.786 599.766 304.479 604.671C311.199 609.615 316.388 616.354 319.448 624.115C321.428 629.632 321.789 636.388 318.009 640.868C316.32 642.698 314.329 644.224 312.122 645.378C305.674 649.176 299.04 652.648 292.244 655.781C286.575 658.396 282.859 661.161 279.944 654.563C273.904 641.075 265.478 630.331 257.675 617.837Z" stroke="#DEECF4" stroke-miterlimit="10"/>
<path d="M267.386 619.762C266.54 618.407 265.674 616.684 266.353 615.21C266.577 614.804 266.878 614.447 267.241 614.159C267.604 613.871 268.02 613.658 268.466 613.533C270.358 613.176 272.293 613.1 274.207 613.305C276.129 613.254 278.316 612.514 278.955 610.711C279.211 609.993 279.189 609.218 279.381 608.504C279.75 607.468 280.438 606.575 281.346 605.953C282.254 605.332 283.336 605.014 284.436 605.046C286.617 605.13 288.746 605.737 290.644 606.816C297.582 610.29 304.317 615.099 307.532 622.17C313.212 634.699 303.834 645.99 290.767 645.069C279.918 644.359 272.342 627.785 267.386 619.762Z" stroke="#DEECF4" stroke-miterlimit="10"/>
<path d="M673.868 411.085C681.945 398.489 686.803 384.099 691.62 369.984C695.822 357.794 699.947 345.368 699.925 332.508C699.704 324.628 698.535 316.803 696.443 309.202C695.386 303.865 693.453 298.739 690.723 294.032C687.62 289.221 683.09 285.539 678.663 281.921C673.315 277.624 667.699 273.202 661.048 271.624C656.189 270.765 651.221 270.72 646.347 271.492C625.44 273.578 604.477 276.596 584.626 283.455C564.774 290.315 545.878 301.133 532.126 316.982C527.599 322.225 523.508 329.721 526.968 335.736C529.266 339.716 534.322 341.501 538.889 341.067C543.455 340.632 547.699 338.543 551.713 336.3C562.426 330.344 572.584 323.427 583.571 318.017C594.558 312.607 606.624 308.721 618.866 309.355C631.108 309.989 643.518 315.829 649.938 326.262C656.106 336.32 655.972 349.1 653.355 360.599C650.738 372.097 645.935 382.983 643.132 394.46C640.216 406.495 638.744 425.767 650.106 434.308C656.279 438.941 658.991 433.829 662.021 428.745C665.619 422.646 670.021 417.069 673.868 411.085Z" stroke="#DEECF4" stroke-miterlimit="10"/>
<path d="M530.307 852.259C529.572 842.236 532.712 832.312 539.078 824.535C542.386 820.664 546.59 817.545 549.738 813.579C554.01 808.175 556.286 801.461 556.181 794.573C556.098 787.97 553.813 781.608 552.685 775.099C551.87 770.41 551.656 765.635 552.048 760.891C552.02 759.862 552.197 758.839 552.569 757.879C552.942 756.92 553.501 756.045 554.215 755.304C554.977 754.781 555.863 754.466 556.784 754.391C557.706 754.315 558.631 754.483 559.468 754.876C561.149 755.687 562.61 756.89 563.729 758.384C568.54 764.092 571.24 771.232 574.547 777.932C577.854 784.632 582.136 791.326 588.854 794.674C593.324 796.91 598.518 797.51 602.768 800.126C607.584 803.081 610.736 808.951 609.623 814.474C608.438 820.428 603.098 824.516 600.159 829.832C595.416 838.483 597.664 849.06 597.561 858.915C597.525 861.826 597.163 864.988 595.14 867.092C592.845 869.463 589.034 869.718 585.822 868.851C582.705 867.728 579.648 866.444 576.663 865.005C573.561 863.826 569.934 863.289 567.024 864.865C565.047 866.158 563.412 867.911 562.259 869.973L557.217 877.5C554.569 881.451 551.584 884.208 546.553 882.903C543.555 882.278 540.875 880.612 538.989 878.199C533.886 870.456 530.893 861.514 530.307 852.259Z" stroke="#DEECF4" stroke-miterlimit="10"/>
<path d="M535.964 852.629C535.363 844.777 536.961 836.019 543.058 831.05C545.912 828.694 549.482 827.344 552.602 825.308C557.198 822.193 560.363 817.424 563.428 812.8C564.512 811.362 565.323 809.736 565.818 808.004C566.104 806.344 566.106 804.647 565.824 802.986L563.455 784.076C563.361 783.725 563.345 783.356 563.409 782.998C563.474 782.639 563.616 782.299 563.827 782.002C564.741 781.103 566.232 782.087 567.056 783.075C572.54 789.706 575.799 798.473 583.045 803.101C587.353 805.845 593.244 807.392 594.896 812.298C595.917 815.454 594.695 818.878 593.062 821.736C591.429 824.593 589.234 827.224 588.255 830.391C586.897 834.805 587.962 839.558 588.823 844.085C589.684 848.611 590.144 853.609 587.776 857.567C587.28 858.539 586.45 859.299 585.439 859.708C584.165 859.948 582.848 859.72 581.73 859.067C578.861 857.61 575.903 856.336 572.874 855.253C569.802 854.171 566.438 854.266 563.432 855.521C555.714 859.255 556.603 874.392 548.292 875.94C538.95 877.674 536.402 858.464 535.964 852.629Z" stroke="#DEECF4" stroke-linecap="round" stroke-linejoin="round" stroke-dasharray="1.97 3.95"/>
<path d="M395.455 753.827C379.943 752.801 364.934 748.143 350.101 743.476L320.232 734.063L290.646 724.673C288.665 724.112 286.762 723.305 284.982 722.27C278.068 717.861 277.589 707.314 281.817 700.295C286.046 693.276 293.539 688.996 300.778 685.14C307.735 681.473 314.731 677.924 322.419 676.512C327.531 675.667 332.72 675.382 337.894 675.661C350.221 676.007 362.74 677.398 374.186 682.118C379.947 684.522 385.324 687.751 390.975 690.418C402.79 695.979 415.638 698.941 427.853 703.721C437.82 707.648 447.971 713.503 452.279 723.299C453.729 726.365 454.226 729.796 453.705 733.148C451.807 743.143 439.095 744.225 431.451 747.837C420.156 752.86 407.767 754.922 395.455 753.827Z" stroke="#DEECF4" stroke-miterlimit="10"/>
<path d="M293.963 713.323C295.276 716.328 297.675 718.728 300.68 720.043C303.961 721.474 307.656 721.468 311.224 721.52C324.874 721.976 338.372 724.539 351.24 729.117C358.377 731.695 365.298 734.815 372.613 736.734C385.179 740.032 398.351 739.567 411.333 739.115C416.475 738.95 421.839 738.714 426.336 736.201C430.833 733.688 434.044 728.105 432.171 723.32C430.619 719.326 426.212 717.233 422.056 716.216C415.439 714.593 408.528 714.678 401.857 713.138C395.793 711.454 389.921 709.145 384.335 706.247C364.549 696.994 343.048 688.93 321.348 691.534C316.68 691.854 312.18 693.405 308.306 696.029C304.359 698.934 302.032 703.221 297.395 704.948C293.505 706.467 292.081 708.964 293.963 713.323Z" stroke="#DEECF4" stroke-miterlimit="10"/>
<path d="M310.11 710.12C310.821 712.317 313.34 713.359 315.627 713.63C319.489 714.091 323.383 713.238 327.259 712.832C336.389 711.893 345.602 713.49 353.883 717.447C357.904 719.404 361.631 721.815 365.603 723.821C375.208 728.636 385.95 730.723 396.659 729.853C398.505 729.823 400.31 729.307 401.892 728.356C402.665 727.856 403.242 727.106 403.525 726.231C403.809 725.356 403.782 724.41 403.45 723.552C402.871 722.621 402.02 721.89 401.013 721.457C392.403 716.994 381.98 718.003 372.641 715.567C367.853 714.103 363.143 712.398 358.528 710.456C349.428 707.24 339.946 705.23 330.323 704.479C326.176 704.094 307.123 700.532 310.11 710.12Z" stroke="#DEECF4" stroke-miterlimit="10"/>
<path d="M341.228 800.649C344.983 803.246 349.052 805.35 352.931 807.777C356.418 810.221 360.104 812.368 363.95 814.198C365.882 815.102 367.976 815.606 370.108 815.681C372.24 815.755 374.364 815.399 376.355 814.632C376.711 814.512 377.018 814.282 377.233 813.974C377.433 813.525 377.455 813.017 377.295 812.553C376.464 808.69 375.12 804.956 373.297 801.451C372.324 799.599 371.18 797.624 371.493 795.519C371.925 792.676 374.915 790.992 377.551 789.977C380.187 788.961 383.279 787.896 384.567 785.33C385.078 784.14 385.229 782.826 385.002 781.55C384.774 780.275 384.179 779.094 383.288 778.153C381.457 776.302 379.056 775.122 376.472 774.804C370.795 773.871 365.08 775.589 359.374 776.327C349.162 777.569 338.806 775.944 329.466 771.633C327.25 770.623 324.979 768.687 323.121 770.998C322.015 772.365 321.925 775.912 322.204 777.581C322.841 781.366 326.296 785.2 328.519 788.194C332.026 793.03 336.322 797.24 341.228 800.649Z" stroke="#DEECF4" stroke-miterlimit="10"/>
<path d="M357.091 802.359C358.18 800.688 357.327 798.504 356.456 796.717C355.585 794.931 354.722 792.766 355.757 791.08C356.698 789.924 358.04 789.164 359.515 788.952C361.107 788.535 363.01 787.822 363.182 786.138C363.354 784.453 361.682 783.365 360.128 782.94C356.764 782.229 353.257 782.707 350.206 784.292C347.927 785.354 345.567 786.818 343.096 786.33C341.995 786.006 340.92 785.597 339.882 785.106C337.254 784.131 334.961 785.704 336.124 788.341C336.82 789.891 340.639 792.532 342.011 793.701C346.448 797.51 351.565 800.447 357.091 802.359Z" stroke="#DEECF4" stroke-miterlimit="10"/>
<path d="M236.984 779.082C237.729 776.349 240.454 774.702 243.023 773.48C252.004 769.631 261.839 768.208 271.544 769.354C281.206 770.522 290.635 773.152 299.507 777.152C301.017 777.913 302.647 778.406 304.326 778.607C305.167 778.691 306.015 778.545 306.779 778.183C307.544 777.821 308.194 777.257 308.662 776.553C309.122 775.607 309.268 774.538 309.077 773.504C308.279 767.41 301.876 763.829 296.032 761.875C280.291 756.643 263.375 756.062 247.312 760.203C245.193 760.65 243.169 761.47 241.336 762.624C238.14 764.879 236.148 768.993 232.307 769.958C231.938 770.078 231.723 770.62 232.029 770.862C232.336 771.105 232.807 770.497 232.47 770.313" stroke="#DEECF4" stroke-miterlimit="10"/>
<path d="M396.168 803.827C396.955 810.088 400.306 815.616 404.391 820.338C411.261 828.247 420.174 834.115 430.154 837.301C435.071 838.854 440.199 839.753 445.06 841.487C449.92 843.222 454.645 845.945 457.478 850.273C458.822 852.687 460.033 855.171 461.107 857.716C462.668 861.02 465.1 863.837 468.14 865.865C469.66 866.868 471.382 867.523 473.184 867.785C474.985 868.047 476.823 867.909 478.565 867.38C484.581 865.435 487.388 858.451 488.072 852.155C488.756 845.859 488.119 839.305 490.411 833.401C494.42 823.081 506.289 817.679 511.103 807.685C512.569 804.345 513.334 800.74 513.351 797.093C513.368 793.445 512.636 789.833 511.2 786.48C508.247 779.772 503.694 773.89 497.94 769.35C495.699 767.37 493.164 765.751 490.426 764.549C485.347 762.494 479.576 762.829 474.228 764.021C465.109 766.042 456.601 770.455 447.78 773.698C435.846 778.095 423.042 781.617 410.737 784.815C406.228 785.98 403.081 786.02 399.907 790.158C396.963 794.071 395.626 798.96 396.168 803.827Z" stroke="#DEECF4" stroke-miterlimit="10"/>
<path d="M460.742 841.53C463.633 844.879 465.508 848.963 468.068 852.549C469.965 855.193 472.892 857.797 476.05 857.085C476.608 856.981 477.123 856.713 477.527 856.315C477.797 855.95 477.993 855.535 478.102 855.094C478.211 854.654 478.232 854.196 478.163 853.747C477.912 848.942 475.031 844.466 474.947 839.623C474.908 836.379 476.132 833.214 476.352 829.967C476.572 826.719 475.322 822.905 472.224 821.887C469.126 820.87 465.861 823.212 463.701 825.751C461.542 828.29 459.706 831.327 456.618 832.456C454.086 833.389 451.19 832.843 448.691 833.88C447.254 834.474 446.956 836.069 448.297 836.792C448.892 837.121 451.389 836.281 452.187 836.381C455.576 836.983 458.623 838.817 460.742 841.53Z" stroke="#DEECF4" stroke-miterlimit="10"/>
<path d="M421.469 804.652C422.223 806.416 423.533 807.885 425.2 808.836C431.658 812.839 440.064 811.082 447.15 808.366C454.237 805.651 461.381 802.005 468.957 802.617C472.708 802.935 476.342 804.301 480.111 804.32C483.879 804.339 488.116 802.382 488.894 798.694C489.59 795.456 487.325 792.279 484.632 790.3C482.448 788.709 479.949 787.602 477.303 787.053C474.657 786.505 471.924 786.527 469.287 787.119C462.716 788.657 457.526 793.561 451.558 796.712C448.462 798.349 445.142 799.521 441.705 800.192C438.251 800.817 434.737 801.051 431.231 800.892C427.668 800.855 418.946 797.959 421.469 804.652Z" stroke="#DEECF4" stroke-miterlimit="10"/>
<path d="M441.029 864.681C440.339 863.527 439.849 862.266 439.577 860.949C439.44 860.279 439.485 859.585 439.709 858.939C439.933 858.293 440.328 857.72 440.85 857.28C441.617 856.841 442.509 856.674 443.382 856.805C444.255 856.937 445.058 857.359 445.661 858.004C446.836 859.317 447.758 860.835 448.38 862.483C450.166 866.199 452.557 869.593 455.455 872.525C457.199 874.29 459.37 875.966 461.846 875.866C463.63 875.793 465.492 874.801 467.107 875.565C467.692 875.934 468.188 876.429 468.557 877.014C468.927 877.599 469.161 878.259 469.243 878.946C470.312 883.763 469.067 888.776 467.266 893.381C465.465 897.986 463.054 902.317 461.63 907.028C461.01 909.611 460.239 912.155 459.322 914.648C457.976 917.738 452.907 923.417 449.766 918.993C447.549 915.866 450.85 912.877 451.367 909.794C452.958 900.207 450.697 889.488 447.72 880.385C445.906 874.983 443.669 869.732 441.029 864.681Z" stroke="#DEECF4" stroke-miterlimit="10"/>
<path d="M464.393 891.802C464.871 890.404 465.063 888.924 464.957 887.45C464.971 886.682 464.83 885.918 464.541 885.206C464.391 884.854 464.154 884.546 463.853 884.31C463.552 884.074 463.196 883.919 462.818 883.858C461.775 883.755 460.865 884.62 459.826 884.679C459.297 884.662 458.782 884.51 458.329 884.237C457.876 883.964 457.5 883.581 457.237 883.122C456.695 882.195 456.101 881.299 455.458 880.44C455.315 880.255 455.117 880.119 454.893 880.052C454.419 879.945 453.979 880.348 453.774 880.822C452.711 882.924 453.634 885.427 454.507 887.621C455.288 889.548 455.81 891.569 456.06 893.633C456.194 895.105 455.487 897.451 457.126 898.289C459.551 899.541 463.715 893.682 464.393 891.802Z" stroke="#DEECF4" stroke-miterlimit="10"/>
<path d="M371.372 866.458C366.023 862.764 360.289 859.586 355.595 855.094C354.056 853.885 353.032 852.139 352.727 850.207C352.606 847.363 355.444 845.109 358.265 844.816C361.118 844.76 363.94 845.428 366.466 846.757L392.157 857.652C397.883 859.868 403.384 862.626 408.584 865.89C413.077 869.053 417.217 872.688 420.935 876.734C424.669 880.272 427.692 884.491 429.841 889.164C432.076 895.221 432.202 901.855 430.197 907.991C428.195 914.077 425.207 919.792 421.351 924.908C419.36 927.767 417.074 930.771 413.697 931.863C404.483 935.25 406.584 925.531 405.95 920.296C405.013 912.954 402.89 905.813 399.665 899.151C393.221 885.989 383.472 874.724 371.372 866.458Z" stroke="#DEECF4" stroke-miterlimit="10"/>
<path d="M375.72 862.528C373.766 861.27 371.416 859.294 372.338 857.106C373.381 854.44 377.38 855.476 379.803 856.972C392.678 865.032 404.715 874.36 415.731 884.818C419.425 888.331 423.134 892.196 424.886 896.907C426.91 902.36 425.624 911.327 418.793 912.819C411.477 914.42 409.999 903.757 407.695 898.949C400.598 884.092 389.532 871.487 375.72 862.528Z" stroke="#DEECF4" stroke-miterlimit="10"/>
<path d="M346.812 900.51C345.459 898.691 344.403 896.668 343.685 894.518C343.352 893.433 343.374 892.271 343.749 891.2C344.123 890.13 344.831 889.207 345.767 888.567C346.612 888.226 347.519 888.066 348.429 888.097C349.34 888.128 350.234 888.349 351.054 888.747C357.999 891.387 363.182 897.089 367.658 902.922C371.437 907.857 375.02 913.245 376.072 919.371C377.125 925.497 375.033 932.575 369.658 935.697C365.781 937.961 360.105 938.591 358.802 942.873C358.489 943.87 358.489 944.928 358.157 945.915C356.396 950.997 349.429 949.145 347.211 945.66C344.369 941.254 347.688 938.372 349.502 934.414C354.36 923.901 352.841 910.238 346.812 900.51Z" stroke="#DEECF4" stroke-miterlimit="10"/>
<path d="M352.315 904.382C351.351 902.609 350.308 900.291 351.621 898.759C352.933 897.227 355.363 897.891 356.97 899.033C359.94 901.167 361.753 904.506 363.425 907.76C365.5 911.861 367.553 916.295 366.978 920.863C366.47 925.034 360.807 937.892 358.387 928.446C356.257 920.046 356.65 912.346 352.315 904.382Z" stroke="#DEECF4" stroke-miterlimit="10"/>
<path d="M311.563 444.765C290.584 457.658 283.485 486.975 292.192 510.072C300.9 533.17 322.39 549.609 345.817 557.18C364.587 563.244 385.374 564.567 401.693 575.643C412.906 583.271 420.811 594.771 430.573 604.204C448.845 621.825 473.178 631.77 498.561 631.99C523.945 632.21 548.447 622.689 567.022 605.388C575.36 597.626 582.548 587.923 584.403 576.687C588.327 552.811 567.8 531.745 564.697 507.747C564.452 506.479 564.509 505.172 564.864 503.93C565.663 501.717 567.991 500.557 569.992 499.34C579.286 493.68 584.525 483.239 587.97 472.938C593.784 455.146 595.692 436.309 593.566 417.712C591.439 399.115 585.326 381.196 575.645 365.175L576.573 367.742" stroke="#DEECF4" stroke-miterlimit="10"/>
<path d="M286.711 454.594L286.139 456.05" stroke="#DEECF4" stroke-linecap="round" stroke-linejoin="round"/>
<path d="M283.906 461.837C279.394 473.72 275.393 485.878 274.158 498.477C272.552 513.655 275.342 529.838 284.698 541.895C296.805 557.525 317.121 563.382 335.454 570.614C354.754 578.251 373.061 588.19 389.98 600.214C408.768 613.585 426.012 629.638 447.101 638.943C478.934 652.965 516.405 649.772 548.642 636.741C555.292 634.292 561.532 630.846 567.146 626.522C573.298 621.47 577.959 614.881 582.424 608.29C591.998 594.33 601.798 578.701 600.111 561.851C598.542 546.071 586.926 530.902 591.556 515.755C593.252 510.174 596.985 505.497 599.936 500.471C615.13 474.677 609.295 442.181 602.975 412.92C599.004 394.496 595.026 376.069 591.042 357.639" stroke="#DEECF4" stroke-linecap="round" stroke-linejoin="round" stroke-dasharray="2 4"/>
<path d="M558.447 695.968C569.069 693.559 579.556 689.271 587.567 681.859C595.578 674.448 600.817 663.551 599.654 652.705C599.22 648.643 597.724 644.419 594.423 642.018C590.406 639.066 584.682 639.598 580.232 641.851C575.781 644.105 572.283 647.794 568.592 651.186C555.396 663.467 538.601 672.775 520.583 673.569C511.65 673.95 502.481 672.29 493.93 674.86C487.591 676.763 483.402 682.597 488.954 687.675C493.382 691.748 504.616 693.799 510.366 695.262C526.113 699.289 542.589 699.531 558.447 695.968Z" stroke="#DEECF4" stroke-miterlimit="10"/>
<path d="M291.676 619.024L295.215 629.965" stroke="#DEECF4" stroke-miterlimit="10"/>
<path d="M298.916 622.725L287.975 626.264" stroke="#DEECF4" stroke-miterlimit="10"/>
<path d="M390.553 1051.48L392.713 1041.38L400.377 1048.31L390.553 1051.48Z" stroke="#DEECF4"/>
<path d="M348.788 626.805L350.951 616.72L358.61 623.629L348.788 626.805Z" stroke="#DEECF4"/>
</svg>
