<svg width="40" height="40" viewBox="0 0 40 40" fill="none" xmlns="http://www.w3.org/2000/svg">
<g clip-path="url(#clip0_3039_72248)">
<path d="M26.6667 11.6667L26.6283 9.70502C27.7467 9.32252 28.6929 8.55518 29.2981 7.53986C29.9033 6.52453 30.1282 5.32724 29.9326 4.16152C29.737 2.99581 29.1337 1.93747 28.2302 1.17526C27.3268 0.413058 26.182 -0.00345115 25 2.15412e-05H15C13.822 -0.00221066 12.6811 0.412554 11.7796 1.17085C10.8781 1.92915 10.274 2.98205 10.0744 4.14306C9.87473 5.30407 10.0924 6.49826 10.6889 7.51413C11.2854 8.53 12.2222 9.30199 13.3333 9.69335V11.6667C11.124 11.6693 9.00593 12.5482 7.4437 14.1104C5.88147 15.6726 5.00265 17.7907 5 20V31.6667C5.00265 33.876 5.88147 35.9941 7.4437 37.5563C9.00593 39.1186 11.124 39.9974 13.3333 40H26.6667C28.876 39.9974 30.9941 39.1186 32.5563 37.5563C34.1185 35.9941 34.9974 33.876 35 31.6667V20C34.9974 17.7907 34.1185 15.6726 32.5563 14.1104C30.9941 12.5482 28.876 11.6693 26.6667 11.6667ZM15 3.33335H25C25.442 3.33335 25.866 3.50895 26.1785 3.82151C26.4911 4.13407 26.6667 4.55799 26.6667 5.00002C26.6667 5.44205 26.4911 5.86597 26.1785 6.17853C25.866 6.49109 25.442 6.66669 25 6.66669H15C14.558 6.66669 14.134 6.49109 13.8215 6.17853C13.5089 5.86597 13.3333 5.44205 13.3333 5.00002C13.3333 4.55799 13.5089 4.13407 13.8215 3.82151C14.134 3.50895 14.558 3.33335 15 3.33335ZM31.6667 31.6667C31.6667 32.9928 31.1399 34.2645 30.2022 35.2022C29.2645 36.1399 27.9928 36.6667 26.6667 36.6667H13.3333C12.0073 36.6667 10.7355 36.1399 9.7978 35.2022C8.86012 34.2645 8.33333 32.9928 8.33333 31.6667V20C8.33333 18.6739 8.86012 17.4022 9.7978 16.4645C10.7355 15.5268 12.0073 15 13.3333 15H15C15.442 15 15.866 14.8244 16.1785 14.5119C16.4911 14.1993 16.6667 13.7754 16.6667 13.3334V10H23.2883L23.3333 13.3567C23.3395 13.7947 23.5178 14.2126 23.8297 14.5201C24.1416 14.8277 24.562 15.0001 25 15H26.6667C27.9928 15 29.2645 15.5268 30.2022 16.4645C31.1399 17.4022 31.6667 18.6739 31.6667 20V31.6667Z" fill="#90BFDB"/>
<path d="M19.9609 29.3327C18.0652 29.3327 16.5267 27.7941 16.5267 25.8984C16.5267 24.0027 18.0652 22.4642 19.9609 22.4642C21.8566 22.4642 23.3952 24.0027 23.3952 25.8984C23.3952 27.7941 21.8566 29.3327 19.9609 29.3327ZM19.9609 23.8379C18.8276 23.8379 17.9004 24.7651 17.9004 25.8984C17.9004 27.0317 18.8276 27.959 19.9609 27.959C21.0942 27.959 22.0215 27.0317 22.0215 25.8984C22.0215 24.7651 21.0942 23.8379 19.9609 23.8379ZM20.6478 20.4036V18.3431C20.6478 17.9653 20.3387 17.6562 19.9609 17.6562C19.5832 17.6562 19.2741 17.9653 19.2741 18.3431V20.4036C19.2741 20.7814 19.5832 21.0905 19.9609 21.0905C20.3387 21.0905 20.6478 20.7814 20.6478 20.4036ZM20.6478 33.4538V31.3932C20.6478 31.0155 20.3387 30.7064 19.9609 30.7064C19.5832 30.7064 19.2741 31.0155 19.2741 31.3932V33.4538C19.2741 33.8315 19.5832 34.1406 19.9609 34.1406C20.3387 34.1406 20.6478 33.8315 20.6478 33.4538ZM15.153 25.8984C15.153 25.5207 14.8439 25.2116 14.4661 25.2116H12.4056C12.0278 25.2116 11.7188 25.5207 11.7188 25.8984C11.7188 26.2762 12.0278 26.5853 12.4056 26.5853H14.4661C14.8439 26.5853 15.153 26.2762 15.153 25.8984ZM28.2031 25.8984C28.2031 25.5207 27.894 25.2116 27.5163 25.2116H25.4557C25.078 25.2116 24.7689 25.5207 24.7689 25.8984C24.7689 26.2762 25.078 26.5853 25.4557 26.5853H27.5163C27.894 26.5853 28.2031 26.2762 28.2031 25.8984ZM16.3275 22.265C16.3912 22.2015 16.4417 22.126 16.4762 22.0429C16.5106 21.9598 16.5284 21.8707 16.5284 21.7808C16.5284 21.6908 16.5106 21.6018 16.4762 21.5187C16.4417 21.4356 16.3912 21.3601 16.3275 21.2965L14.9538 19.9229C14.8902 19.8593 14.8147 19.8088 14.7316 19.7744C14.6486 19.74 14.5595 19.7223 14.4696 19.7223C14.3797 19.7223 14.2906 19.74 14.2075 19.7744C14.1244 19.8088 14.0489 19.8593 13.9854 19.9229C13.9218 19.9864 13.8713 20.0619 13.8369 20.145C13.8025 20.2281 13.7848 20.3172 13.7848 20.4071C13.7848 20.497 13.8025 20.5861 13.8369 20.6691C13.8713 20.7522 13.9218 20.8277 13.9854 20.8913L15.359 22.265C15.4964 22.4024 15.6681 22.4642 15.8467 22.4642C16.0253 22.4642 16.197 22.3955 16.3344 22.265H16.3275ZM25.9434 31.8809C26.0071 31.8173 26.0576 31.7419 26.092 31.6588C26.1265 31.5757 26.1443 31.4866 26.1443 31.3967C26.1443 31.3067 26.1265 31.2176 26.092 31.1345C26.0576 31.0515 26.0071 30.976 25.9434 30.9124L24.5697 29.5387C24.5061 29.4751 24.4306 29.4247 24.3475 29.3903C24.2644 29.3559 24.1754 29.3382 24.0855 29.3382C23.9955 29.3382 23.9065 29.3559 23.8234 29.3903C23.7403 29.4247 23.6648 29.4751 23.6012 29.5387C23.5376 29.6023 23.4872 29.6778 23.4528 29.7609C23.4184 29.844 23.4007 29.933 23.4007 30.023C23.4007 30.1129 23.4184 30.2019 23.4528 30.285C23.4872 30.3681 23.5376 30.4436 23.6012 30.5072L24.9749 31.8809C25.1123 32.0183 25.284 32.0801 25.4626 32.0801C25.6412 32.0801 25.8129 32.0114 25.9503 31.8809H25.9434ZM14.9538 31.8809L16.3275 30.5072C16.4559 30.3788 16.5281 30.2046 16.5281 30.023C16.5281 29.8413 16.4559 29.6672 16.3275 29.5387C16.1991 29.4103 16.0249 29.3382 15.8433 29.3382C15.6617 29.3382 15.4875 29.4103 15.359 29.5387L13.9854 30.9124C13.8895 31.0084 13.8243 31.1306 13.7981 31.2636C13.7719 31.3967 13.7857 31.5345 13.838 31.6596C13.8903 31.7848 13.9785 31.8915 14.0916 31.9664C14.2047 32.0413 14.3374 32.0808 14.473 32.0801C14.6516 32.0801 14.8233 32.0114 14.9607 31.8809H14.9538ZM24.5697 22.265L25.9434 20.8913C26.007 20.8277 26.0574 20.7522 26.0918 20.6691C26.1263 20.5861 26.144 20.497 26.144 20.4071C26.144 20.3172 26.1263 20.2281 26.0918 20.145C26.0574 20.0619 26.007 19.9864 25.9434 19.9229C25.8798 19.8593 25.8043 19.8088 25.7212 19.7744C25.6381 19.74 25.5491 19.7223 25.4592 19.7223C25.3692 19.7223 25.2802 19.74 25.1971 19.7744C25.114 19.8088 25.0385 19.8593 24.9749 19.9229L23.6012 21.2965C23.5054 21.3925 23.4402 21.5147 23.414 21.6477C23.3877 21.7808 23.4016 21.9186 23.4539 22.0437C23.5062 22.1689 23.5944 22.2756 23.7075 22.3505C23.8205 22.4254 23.9533 22.4649 24.0889 22.4642C24.2675 22.4642 24.4392 22.3955 24.5766 22.265H24.5697Z" fill="#90BFDB"/>
</g>
<defs>
<clipPath id="clip0_3039_72248">
<rect width="40" height="40" fill="white"/>
</clipPath>
</defs>
</svg>
