<svg width="40" height="41" viewBox="0 0 40 41" fill="none" xmlns="http://www.w3.org/2000/svg">
<g clip-path="url(#clip0_3039_72254)">
<path d="M35.1596 7.03857H4.83911C3.08943 7.03857 1.66602 8.46206 1.66602 10.2117V28.545C1.66602 30.2946 3.08943 31.7181 4.83911 31.7181H35.1597C36.9093 31.7181 38.3327 30.2946 38.3327 28.545V10.2117C38.3327 8.46206 36.9093 7.03857 35.1596 7.03857ZM36.2173 28.545C36.2173 29.1282 35.7429 29.6027 35.1597 29.6027H4.83911C4.25589 29.6027 3.78144 29.1282 3.78144 28.545V14.795H36.2173V28.545ZM36.2173 12.6797H3.78137V10.2117C3.78137 9.62844 4.25581 9.154 4.83904 9.154H35.1596C35.7428 9.154 36.2173 9.62844 36.2173 10.2117V12.6797H36.2173Z" fill="#487791"/>
<path d="M12.2436 17.6155H9.42303C7.67341 17.6155 6.25 19.0389 6.25 20.7885V23.609C6.25 25.3587 7.67341 26.7821 9.4231 26.7821H12.2436C13.9933 26.7821 15.4167 25.3587 15.4167 23.609V20.7885C15.4167 19.0389 13.9933 17.6155 12.2436 17.6155ZM13.3013 23.609C13.3013 24.1923 12.8269 24.6667 12.2436 24.6667H9.4231C8.83987 24.6667 8.36542 24.1923 8.36542 23.609V20.7885C8.36542 20.2053 8.83987 19.7308 9.4231 19.7308H12.2436C12.8269 19.7308 13.3013 20.2053 13.3013 20.7885V23.609ZM27.0513 17.6155H18.5898C18.0056 17.6155 17.5321 18.0891 17.5321 18.6732C17.5321 19.2572 18.0057 19.7308 18.5898 19.7308H27.0513C27.6355 19.7308 28.109 19.2572 28.109 18.6732C28.109 18.0891 27.6354 17.6155 27.0513 17.6155ZM32.6923 21.1411H18.5898C18.0056 21.1411 17.5321 21.6147 17.5321 22.1987C17.5321 22.7828 18.0057 23.2564 18.5898 23.2564H32.6923C33.2765 23.2564 33.75 22.7828 33.75 22.1987C33.75 21.6147 33.2764 21.1411 32.6923 21.1411ZM32.6923 24.6667H18.5898C18.0056 24.6667 17.5321 25.1403 17.5321 25.7244C17.5321 26.3086 18.0057 26.7821 18.5898 26.7821H32.6923C33.2765 26.7821 33.75 26.3085 33.75 25.7244C33.75 25.1403 33.2764 24.6667 32.6923 24.6667Z" fill="#487791"/>
</g>
<defs>
<clipPath id="clip0_3039_72254">
<rect width="40" height="40" fill="white" transform="translate(0 0.5)"/>
</clipPath>
</defs>
</svg>
