<svg width="40" height="40" viewBox="0 0 40 40" fill="none" xmlns="http://www.w3.org/2000/svg">
<g clip-path="url(#clip0_3039_72238)">
<path d="M39.9994 1.66672C39.9866 1.23399 39.806 0.823219 39.4957 0.521345C39.1853 0.219471 38.7697 0.050186 38.3368 0.0493197C37.9039 0.0484535 37.4876 0.216074 37.1761 0.516704C36.8646 0.817334 36.6823 1.22738 36.6678 1.66006C36.6678 1.66006 36.6528 5.10839 36.6528 7.66672C36.6528 10.1217 36.4111 12.4167 35.9744 14.5917C28.3894 8.60339 16.9211 0.688391 13.2761 4.33506C11.6444 5.96672 11.6444 8.17672 11.6461 9.79172C11.6461 10.3684 11.6461 11.3334 11.5311 11.5317C11.3044 11.6751 10.3611 11.6684 9.7961 11.6667C8.1961 11.6601 6.00276 11.6417 4.3661 13.2784C0.721097 16.9234 8.61943 28.3917 14.5944 35.9751C12.3132 36.4305 9.99233 36.6577 7.6661 36.6534C5.10776 36.6534 1.65943 36.6684 1.65943 36.6684C1.2174 36.6693 0.793831 36.8457 0.481895 37.1589C0.16996 37.4721 -0.00478697 37.8964 -0.00390291 38.3384C-0.00301886 38.7804 0.173424 39.204 0.486609 39.5159C0.799795 39.8279 1.22407 40.0026 1.6661 40.0017H1.67276C1.67276 40.0017 5.11276 39.9884 7.6661 39.9884C17.0578 39.9884 24.8761 36.9334 30.9028 30.9067C36.9294 24.8801 39.9844 17.0617 39.9844 7.67006C39.9844 5.11839 39.9994 1.67672 39.9994 1.67672V1.67006V1.66672ZM28.5461 28.5467C25.6233 31.4962 22.0483 33.7175 18.1094 35.0317C17.3613 34.0982 16.6262 33.1542 15.9044 32.2001C19.767 31.065 23.2801 28.9724 26.1178 26.1167C27.9568 24.2871 29.4902 22.1741 30.6594 19.8584C30.8575 19.463 30.8903 19.0051 30.7507 18.5855C30.6816 18.3777 30.5723 18.1856 30.4289 18.0201C30.2856 17.8546 30.111 17.7189 29.9153 17.6209C29.5199 17.4229 29.062 17.39 28.6424 17.5296C28.2228 17.6691 27.8758 17.9697 27.6778 18.3651C26.6706 20.3617 25.3481 22.1828 23.7611 23.7584C21.0257 26.5083 17.5719 28.4333 13.7944 29.3134C9.09943 22.7001 6.03776 16.9417 6.7261 15.6317C7.33276 15.0267 8.3361 14.9884 9.77776 14.9967C11.1728 15.0067 12.7594 15.0167 13.8744 13.9017C14.9861 12.7901 14.9844 11.1951 14.9844 9.78672C14.9844 8.53172 14.9844 7.34506 15.6094 6.71172C17.3111 5.82672 26.3011 11.1001 35.0361 18.1067C33.7227 22.046 31.5012 25.6211 28.5511 28.5434L28.5461 28.5467Z" fill="#90BFDB"/>
</g>
<defs>
<clipPath id="clip0_3039_72238">
<rect width="40" height="40" fill="white"/>
</clipPath>
</defs>
</svg>
