<svg width="40" height="40" viewBox="0 0 40 40" fill="none" xmlns="http://www.w3.org/2000/svg">
<g clip-path="url(#clip0_3039_72243)">
<path d="M38.6733 23.9733L29.795 7.29168C28.6058 5.12748 26.7136 3.43386 24.4314 2.49078C22.1491 1.5477 19.6134 1.41161 17.2433 2.10501C15.3872 0.735035 13.1403 -0.00283918 10.8333 8.20995e-06C7.96124 0.00353659 5.20779 1.14604 3.17691 3.17692C1.14603 5.2078 0.00352838 7.96125 0 10.8333L0 29.1667C0 35.14 4.86 40 10.8333 40C12.6643 39.999 14.4653 39.5341 16.0679 38.6487C17.6706 37.7633 19.0228 36.4862 19.9983 34.9367C21.4038 37.1822 23.5883 38.8302 26.1333 39.565C27.4988 39.9664 28.9303 40.0934 30.3452 39.9387C31.76 39.7839 33.1302 39.3505 34.3767 38.6633C35.6263 37.9822 36.7285 37.0602 37.6196 35.9505C38.5107 34.8408 39.173 33.5655 39.5683 32.1983C39.9701 30.8364 40.0982 29.4084 39.9452 27.9967C39.7921 26.585 39.361 25.2175 38.6767 23.9733H38.6733ZM26.8617 8.87668L30.65 15.9933L21.6667 20.92V10.8317C21.6695 8.76628 21.0782 6.74365 19.9633 5.00501C21.3598 4.94335 22.7457 5.27299 23.9648 5.95676C25.1839 6.64054 26.1878 7.65126 26.8633 8.87501L26.8617 8.87668ZM10.8333 3.33334C14.9683 3.33334 18.3333 6.69834 18.3333 10.8333V18.3333H3.33333V10.8333C3.33333 6.69834 6.69833 3.33334 10.8333 3.33334ZM10.8333 36.6667C8.84489 36.6645 6.93851 35.8736 5.53247 34.4675C4.12642 33.0615 3.33554 31.1551 3.33333 29.1667V21.6667H18.3333V29.1667C18.3333 33.3017 14.9683 36.6667 10.8333 36.6667ZM36.365 31.265C35.8033 33.1883 34.5267 34.7783 32.77 35.7417C31.0133 36.705 28.985 36.925 27.065 36.3667C26.1213 36.0947 25.2408 35.6386 24.4742 35.0247C23.7076 34.4109 23.0701 33.6514 22.5983 32.79L21.5417 30.8067C21.6233 30.2717 21.665 29.725 21.665 29.1683V24.725L32.215 18.94L35.7383 25.56C36.2144 26.4227 36.5148 27.3713 36.622 28.3508C36.7293 29.3303 36.6414 30.3214 36.3633 31.2667L36.365 31.265Z" fill="#90BFDB"/>
</g>
<defs>
<clipPath id="clip0_3039_72243">
<rect width="40" height="40" fill="white"/>
</clipPath>
</defs>
</svg>
