<svg width="40" height="40" viewBox="0 0 40 40" fill="none" xmlns="http://www.w3.org/2000/svg">
<g clip-path="url(#clip0_3039_72228)">
<path d="M31.6665 19.9999H27.9665L29.8165 13.4499C30.5832 10.6166 28.9165 7.64992 26.0832 6.86659C25.6665 6.74992 25.2332 6.68326 24.7832 6.68326L24.9332 5.86659C25.1499 4.54992 24.8499 3.21659 24.0832 2.13326C23.3165 1.04992 22.1499 0.299922 20.7999 0.0665891C18.8165 -0.283411 16.8832 0.616589 15.8165 2.19992C14.7499 0.633256 12.8165 -0.266744 10.8332 0.0665891C9.51653 0.283256 8.36653 1.01659 7.59986 2.09992C6.8332 3.18326 6.5332 4.51659 6.76653 5.91659L6.9332 6.66659C6.11808 6.68954 5.31879 6.89715 4.59553 7.27376C3.87226 7.65038 3.24388 8.18619 2.7577 8.84085C2.27152 9.49551 1.94022 10.2519 1.78874 11.0532C1.63726 11.8545 1.66956 12.6796 1.8832 13.4666L3.76653 20.1666C2.74986 20.4333 1.8332 20.9999 1.14986 21.8333C0.183198 22.9833 -0.200135 24.4999 0.0998646 25.9833L1.56653 33.3333C2.3332 37.2166 5.7832 39.9999 9.7332 39.9999H31.6665C36.2665 39.9999 39.9999 36.2666 39.9999 31.6666V28.3333C39.9999 23.7333 36.2665 19.9999 31.6665 19.9999ZM36.6665 28.3333H16.6665C16.6665 25.5833 18.9165 23.3333 21.6665 23.3333H31.6665C34.4165 23.3333 36.6665 25.5833 36.6665 28.3333ZM25.1832 10.0666C26.2665 10.3666 26.8999 11.4833 26.5999 12.5499L24.4999 19.9833H22.3665L24.1665 10.0333C24.4999 9.94992 24.8499 9.96659 25.1832 10.0499V10.0666ZM20.2832 3.34992C20.7165 3.41659 21.0999 3.66659 21.3665 4.03326C21.6165 4.39992 21.7165 4.83326 21.6499 5.26659L18.9665 19.9999H15.4832L18.3165 4.69992C18.4832 3.79992 19.3499 3.21659 20.2832 3.36659V3.34992ZM10.3165 4.01659C10.5665 3.64992 10.9665 3.41659 11.3999 3.33326C12.2999 3.18326 13.1665 3.78326 13.3332 4.73326L14.1499 8.86659L12.6332 17.0833L10.8332 8.93326C10.8332 8.73326 10.7832 8.51659 10.6999 8.33325L10.0165 5.26659C9.94987 4.83326 10.0499 4.38326 10.2999 4.01659H10.3165ZM6.49986 10.0499C6.89986 9.93326 7.29986 9.94992 7.6832 10.0833L9.86653 19.9833H7.1832L5.0832 12.5499C4.7832 11.4666 5.4332 10.3499 6.49986 10.0499ZM4.84986 32.6499L3.3832 25.2999C3.2832 24.8166 3.41653 24.2999 3.7332 23.9166C4.04986 23.5333 4.51653 23.2999 5.01653 23.2999H15.0165C13.9665 24.6999 13.3499 26.4333 13.3499 28.2999V31.6333C13.3499 33.5166 13.9832 35.2666 15.0499 36.6666H9.74986C7.36653 36.6666 5.31653 34.9833 4.84986 32.6499ZM31.6832 36.6333H21.6832C18.9332 36.6333 16.6832 34.3833 16.6832 31.6333H23.3499L26.4999 33.7333C27.6165 34.4833 29.0832 34.4833 30.1999 33.7333L33.3499 31.6333H36.6832C36.6832 34.3833 34.4332 36.6333 31.6832 36.6333Z" fill="#90BFDB"/>
</g>
<defs>
<clipPath id="clip0_3039_72228">
<rect width="40" height="40" fill="white"/>
</clipPath>
</defs>
</svg>
