<svg width="40" height="40" viewBox="0 0 40 40" fill="none" xmlns="http://www.w3.org/2000/svg">
<g clip-path="url(#clip0_3039_72233)">
<path d="M33.3337 13.315C33.3296 11.9886 32.9281 10.6939 32.1809 9.59791C31.4338 8.50196 30.3753 7.65511 29.1421 7.16667L25.0004 5.51167V3.33333C25.4424 3.33333 25.8663 3.15774 26.1789 2.84518C26.4915 2.53262 26.6671 2.10869 26.6671 1.66667C26.6671 1.22464 26.4915 0.800716 26.1789 0.488155C25.8663 0.175595 25.4424 0 25.0004 0L15.0004 0C14.5584 0 14.1344 0.175595 13.8219 0.488155C13.5093 0.800716 13.3337 1.22464 13.3337 1.66667C13.3337 2.10869 13.5093 2.53262 13.8219 2.84518C14.1344 3.15774 14.5584 3.33333 15.0004 3.33333V5.51167L10.8571 7.16667C9.80808 7.5964 8.88601 8.28652 8.17799 9.1718C7.46996 10.0571 6.99937 11.1083 6.81068 12.226C6.622 13.3438 6.72145 14.4912 7.09964 15.5599C7.47783 16.6285 8.12227 17.5831 8.97206 18.3333C8.261 18.9579 7.69134 19.727 7.30109 20.5892C6.91084 21.4514 6.70898 22.3869 6.70898 23.3333C6.70898 24.2797 6.91084 25.2153 7.30109 26.0775C7.69134 26.9397 8.261 27.7088 8.97206 28.3333C7.96475 29.2286 7.25196 30.4078 6.9274 31.7158C6.60284 33.0238 6.68172 34.3995 7.15366 35.6618C7.62559 36.9242 8.4685 38.0141 9.57154 38.7884C10.6746 39.5627 11.9861 39.9851 13.3337 40H26.6671C28.0148 39.9854 29.3266 39.5633 30.4299 38.7891C31.5332 38.015 32.3763 36.925 32.8485 35.6626C33.3206 34.4002 33.3996 33.0244 33.0751 31.7162C32.7506 30.4081 32.0378 29.2287 31.0304 28.3333C31.7414 27.7088 32.3111 26.9397 32.7014 26.0775C33.0916 25.2153 33.2935 24.2797 33.2935 23.3333C33.2935 22.3869 33.0916 21.4514 32.7014 20.5892C32.3111 19.727 31.7414 18.9579 31.0304 18.3333C31.7511 17.7104 32.3297 16.9401 32.7271 16.0743C33.1245 15.2086 33.3313 14.2676 33.3337 13.315ZM30.0004 33.3333C30.0004 34.2174 29.6492 35.0652 29.0241 35.6904C28.399 36.3155 27.5511 36.6667 26.6671 36.6667H13.3337C12.4497 36.6667 11.6018 36.3155 10.9767 35.6904C10.3516 35.0652 10.0004 34.2174 10.0004 33.3333C10.0004 32.4493 10.3516 31.6014 10.9767 30.9763C11.6018 30.3512 12.4497 30 13.3337 30H26.6671C27.5511 30 28.399 30.3512 29.0241 30.9763C29.6492 31.6014 30.0004 32.4493 30.0004 33.3333ZM30.0004 23.3333C30.0004 24.2174 29.6492 25.0652 29.0241 25.6904C28.399 26.3155 27.5511 26.6667 26.6671 26.6667H13.3337C12.4497 26.6667 11.6018 26.3155 10.9767 25.6904C10.3516 25.0652 10.0004 24.2174 10.0004 23.3333C10.0004 22.4493 10.3516 21.6014 10.9767 20.9763C11.6018 20.3512 12.4497 20 13.3337 20H26.6671C27.5511 20 28.399 20.3512 29.0241 20.9763C29.6492 21.6014 30.0004 22.4493 30.0004 23.3333ZM13.3337 16.6667C12.5704 16.6523 11.8352 16.3764 11.2509 15.885C10.6667 15.3936 10.2688 14.7165 10.1238 13.967C9.97882 13.2175 10.0955 12.4409 10.4544 11.767C10.8132 11.0932 11.3925 10.563 12.0954 10.265L17.2854 8.18833C17.5949 8.06467 17.8603 7.85104 18.0471 7.57503C18.234 7.29902 18.3338 6.97332 18.3337 6.64V3.33333H21.6671V6.64C21.6669 6.97332 21.7668 7.29902 21.9536 7.57503C22.1405 7.85104 22.4059 8.06467 22.7154 8.18833L27.9037 10.2633C28.6075 10.5606 29.1877 11.0907 29.5474 11.7647C29.907 12.4387 30.0242 13.2159 29.8793 13.966C29.7345 14.7161 29.3363 15.3937 28.7516 15.8853C28.1668 16.3769 27.4309 16.6528 26.6671 16.6667H13.3337Z" fill="#90BFDB"/>
</g>
<defs>
<clipPath id="clip0_3039_72233">
<rect width="40" height="40" fill="white"/>
</clipPath>
</defs>
</svg>
