<svg width="307" height="1262" viewBox="0 0 307 1262" fill="none" xmlns="http://www.w3.org/2000/svg">
<path d="M109.105 1024.67C118.585 1011.66 124.583 995.788 119.62 979.539C117.147 971.849 112.651 964.967 106.602 959.613C100.554 954.259 93.1765 950.632 85.2436 949.111C57.9571 944.26 33.6776 964.879 10.278 979.657C-17.7122 997.326 -56.9857 1006.84 -82.112 985.323C-90.341 978.278 -95.9681 968.688 -103.643 961.036C-120.961 943.778 -152.647 936.083 -170.695 952.564C-193.145 973.054 -176.334 982.152 -196.413 1001.33C-219.496 1023.28 -244.661 1012.53 -267.285 1034.94C-283.576 1051.13 -295.511 1071.17 -301.981 1093.2C-305.66 1105.74 -307.47 1119.5 -302.606 1131.65C-294.706 1151.53 -272.031 1160.94 -251.061 1165.19C-213.426 1172.82 -172.209 1171.39 -140.099 1192.45C-128.131 1200.31 -118.096 1210.95 -105.599 1217.94C-88.6797 1227.39 -68.7151 1229.35 -49.3774 1230.78C-26.8491 1232.51 -3.90782 1233.61 18.1159 1228.57C40.1397 1223.54 61.5033 1211.48 72.9956 1192.02C92.2426 1159.3 76.4914 1123.43 81.0678 1088.58C82.389 1079.74 84.48 1071.03 87.3168 1062.55C89.2648 1056.31 92.6074 1050.7 94.7695 1044.63C95.7686 1041.82 97.2388 1039.2 99.1172 1036.89C100.658 1035.02 102.261 1032.95 103.881 1031.09C105.501 1029.23 107.451 1026.97 109.105 1024.67Z" stroke="#DEECF4" stroke-linecap="round" stroke-linejoin="round" stroke-dasharray="2.01 4.01"/>
<path d="M74.0816 1043.88C81.9362 1033.1 86.9374 1019.95 82.8122 1006.49C80.7646 1000.12 77.0411 994.415 72.032 989.979C67.0229 985.542 60.9126 982.535 54.3416 981.272C31.7192 977.255 11.5966 994.342 -7.8282 1006.6C-31.012 1021.22 -63.5465 1029.12 -84.3833 1011.29C-91.1937 1005.48 -95.8587 997.508 -102.223 991.172C-116.57 976.882 -141.109 972.613 -157.77 984.16C-164.992 989.145 -170.217 996.442 -176.196 1002.87C-194.17 1022.22 -219.055 1033.83 -237.799 1052.42C-251.299 1065.82 -261.189 1082.43 -266.55 1100.68C-269.591 1111.07 -271.062 1122.43 -267.064 1132.53C-260.534 1149.01 -241.736 1156.8 -224.357 1160.33C-193.174 1166.66 -159.021 1165.46 -132.414 1182.93C-122.503 1189.42 -114.186 1198.25 -103.832 1204.03C-89.812 1211.86 -73.2103 1213.5 -57.2604 1214.68C-38.5854 1216.04 -19.5838 1217.04 -1.33406 1212.84C16.9157 1208.64 34.5997 1198.73 44.1362 1182.53C60.1369 1155.42 47.0302 1125.7 50.8046 1096.81C51.9125 1089.46 53.6529 1082.22 56.0064 1075.17C57.6198 1069.99 60.3865 1065.36 62.2344 1060.33C63.065 1058.04 64.274 1055.9 65.8112 1054.01C67.0979 1052.45 68.4234 1050.75 69.7234 1049.21C71.0234 1047.67 72.7196 1045.73 74.0816 1043.88Z" stroke="#DEECF4" stroke-linecap="round" stroke-linejoin="round"/>
<path d="M39.0598 1063.07C45.2862 1054.53 59.7602 1037.31 56.4859 1026.64C54.86 1021.58 51.8961 1017.05 47.9075 1013.53C43.9188 1010 39.0534 1007.63 33.8251 1006.64C15.8848 1003.45 -3.38854 1025.51 -18.7891 1035.24C-37.1713 1046.84 -70.182 1051.36 -86.6957 1037.21C-92.1118 1032.58 -95.8038 1026.26 -100.846 1021.27C-112.242 1009.98 -131.7 1006.54 -144.853 1015.69C-150.578 1019.65 -154.717 1025.44 -159.459 1030.55C-173.702 1045.88 -193.508 1055.09 -208.31 1069.76C-219.008 1080.39 -226.847 1093.55 -231.099 1108.02C-233.518 1116.26 -234.68 1125.31 -231.52 1133.29C-226.327 1146.35 -211.421 1152.53 -197.631 1155.32C-172.902 1160.35 -145.829 1159.39 -124.724 1173.24C-116.857 1178.4 -110.27 1185.4 -102.063 1189.99C-90.94 1196.2 -77.8087 1197.48 -65.1213 1198.41C-50.2978 1199.52 -35.233 1200.29 -20.7643 1196.97C-6.29549 1193.65 7.74775 1185.73 15.3076 1172.94C27.9947 1151.45 17.5998 1127.87 20.5543 1104.96C21.4331 1099.15 22.8146 1093.43 24.6833 1087.86C25.9622 1083.76 28.1552 1080.08 29.6263 1076.09C30.2903 1074.24 31.2588 1072.53 32.4915 1071C33.5211 1069.78 34.5716 1068.41 35.6326 1067.19C36.6936 1065.97 37.9931 1064.55 39.0598 1063.07Z" stroke="#DEECF4" stroke-linecap="round" stroke-linejoin="round"/>
<path d="M3.98992 1082.27C8.60607 1075.96 11.5221 1068.26 9.10342 1060.36C7.90093 1056.62 5.7166 1053.28 2.77939 1050.69C-0.157813 1048.09 -3.73973 1046.33 -7.59092 1045.59C-20.8491 1043.22 -32.6425 1053.24 -44.0322 1060.43C-57.6127 1069 -76.6933 1073.63 -88.9019 1063.17C-92.8947 1059.75 -95.6317 1055.09 -99.3589 1051.38C-107.727 1043 -122.152 1040.5 -131.924 1047.26C-136.152 1050.19 -139.219 1054.47 -142.721 1058.23C-153.239 1069.48 -167.822 1076.39 -178.828 1087.27C-186.738 1095.13 -192.533 1104.86 -195.677 1115.56C-197.481 1121.7 -198.333 1128.33 -195.988 1134.24C-192.149 1143.9 -181.134 1148.46 -170.952 1150.52C-152.672 1154.23 -132.652 1153.54 -117.064 1163.77C-111.223 1167.58 -106.367 1172.75 -100.304 1176.15C-92.0814 1180.74 -82.3913 1181.69 -72.9978 1182.38C-62.0548 1183.19 -50.9135 1183.75 -40.2257 1181.31C-29.5379 1178.87 -19.1447 1173.01 -13.5836 1163.56C-4.20546 1147.67 -11.8526 1130.19 -9.66231 1113.32C-9.02368 1109.03 -8.00758 1104.8 -6.62585 1100.68C-5.67681 1097.62 -4.05972 1094.92 -2.97021 1091.99C-2.46933 1090.62 -1.73976 1089.35 -0.812611 1088.22C-0.0532688 1087.31 0.719964 1086.3 1.51528 1085.36C2.31059 1084.43 3.2521 1083.36 3.98992 1082.27Z" stroke="#DEECF4" stroke-linecap="round" stroke-linejoin="round"/>
<path d="M236.613 414.667C240.292 422.272 239.384 430.688 239.032 438.914C238.777 444.864 238.461 450.79 237.778 456.709C236.681 466.28 233.728 475.546 229.086 483.988C220.72 499.851 209.357 514.439 194.28 524.474C186.472 529.705 178.127 534.086 169.388 537.542C160.795 541.075 151.411 542.236 142.216 540.905C135.22 540.146 128.399 538.228 122.032 535.231C113.786 531.226 106.503 526.227 98.6659 521.514C62.8545 500.032 19.0037 486.36 -21.7032 501.78C-60.8481 516.599 -88.2341 552.274 -124.774 572.65C-155.259 589.646 -191.108 595.282 -225.977 593.633C-253.978 592.311 -284.599 584.678 -300.422 561.524C-317.02 537.23 -311.786 504.861 -315.492 475.669C-322.451 420.938 -361.482 376.725 -395.283 333.092C-424.871 294.966 -485.391 203.977 -433.456 162.212C-425.985 156.192 -417.749 151.597 -409.68 146.514C-403.188 142.105 -396.307 138.299 -389.122 135.143C-382.525 132.436 -375.644 130.619 -368.757 128.547C-361.716 126.239 -354.421 124.79 -347.032 124.234C-338.504 123.688 -329.95 123.712 -321.425 124.305C-306.623 125.341 -293.574 131.946 -280.236 138.112C-271.078 142.343 -262.194 147.143 -253.636 152.484C-244.51 158.221 -235.033 163 -225.518 168.058C-209.619 176.509 -194.3 186.171 -177.759 193.42C-159.417 201.667 -140.644 208.921 -121.522 215.151C-114.242 217.461 -106.945 219.868 -99.5008 221.609C-89.1771 224.016 -78.3555 224.896 -67.8887 226.443C-57.422 227.991 -46.6359 230.194 -35.9326 231.008C-25.3746 231.731 -14.77 231.356 -4.28927 229.89C3.72841 228.834 11.6503 227.667 19.7023 226.92C29.6548 225.99 39.5053 223.908 49.4892 223.415C58.7135 222.969 67.7596 220.48 77.0967 220.788C86.2645 220.882 95.3991 221.906 104.361 223.842C122.336 228.101 138.41 236.882 153.953 246.657C162.791 252.018 171.097 258.211 178.758 265.151C186.919 272.762 193.03 282.007 198.533 291.675C202.895 299.317 207.811 306.896 210.648 315.321C212.547 320.886 214.155 326.583 215.805 332.207C218.191 340.325 218.667 348.914 220.856 357.067C224.657 371.206 225.811 385.819 230.434 399.712C231.388 402.575 233.174 404.568 234.674 407.095C235.446 408.733 236.079 410.434 236.564 412.178C237.599 414.925 240.962 417.088 236.613 414.667Z" stroke="#DEECF4" stroke-miterlimit="10"/>
<path d="M226.265 672.664C222.477 657.791 215.175 644.044 204.973 632.578C178.694 603.475 129.786 563.037 88.804 562.774C41.2769 562.488 5.38035 610.242 -41.841 615.685C-65.7195 618.431 -89.3907 609.92 -113.383 608.454C-137.375 606.989 -165.786 616.35 -172.404 639.452C-177.306 656.58 -168.324 674.448 -158.32 689.2C-148.317 703.952 -136.54 718.839 -135.049 736.591C-132.809 763.021 -154.159 787.548 -150.697 813.838C-147.98 834.558 -127.77 851.427 -106.886 850.416C-88.3885 849.516 -72.864 836.889 -56.3326 828.606C-41.4867 821.316 -25.2405 817.32 -8.70669 816.893C7.82708 816.467 24.2578 819.618 39.4601 826.133C63.5201 836.671 83.1931 855.222 105.956 868.579C116.356 874.583 127.849 879.693 139.727 878.951C157.408 877.835 171.639 864.216 182.41 850.165C214.447 808.373 241.95 730.862 226.265 672.664Z" stroke="#DEECF4" stroke-miterlimit="10"/>
<path d="M118.324 731.301L118.173 732.32C115.387 747.807 106.018 760.383 90.4359 765.173C87.1941 766.376 83.8848 767.389 80.5247 768.206C76.6886 768.92 72.8396 769.504 68.9471 769.841C64.6522 770.265 60.3188 770.072 56.0788 769.268C52.4488 768.587 49.753 765.594 47.9265 762.57C38.0473 746.219 55.5746 724.377 60.5683 709.553C64.7724 697.253 64.0001 683.85 66.2624 671.039C68.5247 658.228 75.3537 644.636 87.8261 640.956C102.428 636.63 117.823 648.593 122.777 663.063C127.73 677.533 125.089 693.234 122.408 708.224L118.324 731.301Z" stroke="#DEECF4" stroke-miterlimit="10" stroke-dasharray="2 4"/>
<path d="M138.979 643.684C138.526 643.665 138.088 643.523 137.711 643.272C136.571 642.187 135.745 640.815 135.32 639.3C130.944 629.046 118.288 625.734 107.227 624.739C94.7133 623.61 80.8687 624.333 71.4715 632.662C62.4815 640.619 59.8925 653.366 56.092 664.668C50.7094 680.631 42.1019 695.315 30.8043 707.811C20.6628 719.008 7.43342 727.7 1.42231 742.15C-0.47673 747.167 -1.7249 752.406 -2.29165 757.74C-2.97272 762.347 -4.01062 767.093 -2.91131 771.786C1.28949 789.507 14.8663 794.061 31.1526 794.691C54.3757 795.43 77.476 798.374 100.142 803.482C104.379 804.723 108.782 805.299 113.195 805.188C121.303 804.497 128.369 798.833 133.396 792.339C146.108 775.886 149.144 754.047 149.891 733.295C151.003 702.628 148.117 671.947 141.305 642.026C141.315 643.148 140.136 643.759 138.979 643.684Z" stroke="#DEECF4" stroke-miterlimit="10"/>
<path d="M159.822 639.592C150.588 615.411 124.075 598.073 98.1239 601.298C77.4115 603.855 59.7547 617.368 45.0038 632.127C30.2529 646.886 17.081 663.528 -0.168434 675.26C-15.9929 686.017 -35.0782 692.514 -47.8911 706.727C-53.4373 712.882 -57.5206 720.212 -59.8358 728.167C-62.1509 736.122 -62.6381 744.498 -61.2608 752.668C-59.8836 760.838 -56.6775 768.591 -51.8823 775.348C-47.0871 782.105 -40.8267 787.69 -33.5691 791.687C-14.2159 802.33 9.26416 800.437 31.0971 803.729C55.2402 807.424 77.9092 817.664 96.6408 833.338C100.4 836.503 104.164 839.958 108.859 841.34C118.739 844.258 127.491 832.279 133.2 825.934C140.858 817.459 145.347 807.347 148.364 796.473C152.566 781.52 155.809 766.314 158.072 750.948C159.177 743.474 160.285 735.984 161.39 728.51C162.407 720.277 162.499 711.955 161.663 703.701C160.291 685.582 165.628 667.461 162.504 649.387C161.933 646.042 161.034 642.761 159.822 639.592Z" stroke="#DEECF4" stroke-miterlimit="10"/>
<path d="M110.444 699.379L110.609 699.995C111.286 711.223 109.375 723.285 101.946 731.73C93.9383 740.841 73.9959 745.338 70.7344 730.686C67.7773 717.44 81.42 703.029 80.8861 689.421C80.6477 683.669 79.4134 677.723 81.3952 672.332C83.794 665.962 90.6456 661.963 97.3921 661.6C100.99 661.411 104.902 662.246 107.29 664.936C110.941 669.047 109.676 675.328 109.061 680.793C108.369 687.021 108.838 693.322 110.444 699.379Z" stroke="#DEECF4" stroke-miterlimit="10"/>
<path d="M148.882 984.746C148.836 955.279 125.41 929.079 97.3259 920.204C69.2414 911.328 37.9657 917.432 11.9144 931.193C-8.18934 941.654 -27.9847 956.852 -50.6121 955.252C-72.9866 953.673 -90.4402 936.138 -110.276 925.616C-136.117 911.965 -169.032 910.749 -194.204 925.6C-224.031 943.238 -238.679 979.067 -266.572 999.761C-280.96 1010.44 -298.667 1016.82 -310.649 1030.07C-318.98 1039.31 -323.811 1051.08 -328.484 1062.66L-345.788 1105.3" stroke="#DEECF4" stroke-miterlimit="10"/>
<path d="M134.087 925.655C119.148 911.149 98.294 903.615 77.4958 902.637C56.6976 901.66 35.9744 906.89 16.9024 915.246C-4.73531 924.712 -25.8947 938.523 -49.5015 937.915C-69.6479 937.402 -87.8301 926.42 -105.66 917.06C-120.891 909.076 -136.834 902.011 -153.749 898.918C-170.664 895.825 -188.762 896.944 -204.11 904.698C-222.989 914.235 -239.496 957.875 -254.476 972.776C-275.117 993.261 -290.175 965.801 -316.674 992.769C-344.05 1020.58 -357.706 1091.4 -355.906 1120.37" stroke="#DEECF4" stroke-miterlimit="10"/>
<path d="M-38.4233 893.937C-27.9956 890.903 -18.1168 886.229 -9.15708 880.091C-4.146 876.846 0.779129 873.315 6.43125 871.364C13.1783 869.048 20.4872 869.103 27.258 866.95C34.0289 864.797 40.6914 859.154 40.3005 852.051C40.0233 846.886 36.0325 842.582 31.4567 840.176C21.8896 835.143 10.2086 836.826 -0.157487 839.905C-18.9517 845.516 -36.2743 855.252 -54.817 861.653C-73.3597 868.054 -94.3941 870.948 -112.238 862.77C-118.356 859.96 -123.88 855.957 -130.029 853.143C-133.702 851.533 -137.482 850.177 -141.341 849.085C-145.222 847.934 -149.302 846.835 -153.28 847.64C-157.258 848.445 -160.997 851.75 -160.891 855.801C-160.733 857.41 -160.147 858.948 -159.195 860.254C-158.242 861.561 -156.957 862.588 -155.473 863.231C-152.495 864.476 -149.335 865.23 -146.116 865.463C-122.319 868.625 -99.3601 876.369 -78.5097 888.267C-73.8857 890.888 -69.7478 893.981 -64.4603 895.147C-55.8043 896.76 -46.8925 896.346 -38.4233 893.937Z" stroke="#DEECF4" stroke-miterlimit="10"/>
<path d="M12.9901 860.582C15.6775 860.713 18.3701 860.47 20.9905 859.859C22.2951 859.529 23.4776 858.831 24.3976 857.849C25.3176 856.867 25.9365 855.641 26.1808 854.318C26.4925 850.585 22.671 847.843 19.0832 846.768C7.8436 843.409 -4.1979 848.289 -14.1981 854.416C-24.1983 860.543 -33.6527 868.176 -45.0193 871.09C-48.5136 871.983 -52.25 872.455 -55.1456 874.605C-58.0413 876.755 -59.5266 881.386 -57.0056 883.937C-55.7364 885.038 -54.1659 885.733 -52.4973 885.932C-40.8088 888.205 -27.1289 885.888 -20.0737 875.963C-13.0184 866.039 1.1167 860.86 12.9901 860.582Z" stroke="#DEECF4" stroke-miterlimit="10"/>
<path d="M-125.794 406.062C-110.595 388.487 -93.4634 370.189 -70.6869 365.583C-58.4398 363.103 -45.3263 364.833 -33.7095 360.226C-18.0821 354.051 -8.3476 336.293 -10.3337 319.62C-12.3197 302.946 -25.1649 288.462 -41.1636 283.071C-48.6387 280.762 -56.4625 279.789 -64.2754 280.198C-81.3476 280.765 -98.0318 285.438 -112.914 293.822C-115.482 295.268 -118.377 296.873 -121.247 296.032C-124.897 294.948 -126.173 290.581 -127.47 287.011C-147.662 231.573 -260.125 220.421 -259.82 292.645C-259.842 303.625 -257.782 315.25 -250.569 323.537C-240.194 335.447 -222.478 337.025 -206.693 336.605C-200.487 336.434 -193.514 336.376 -189.062 340.701C-185.566 344.132 -184.675 349.579 -185.657 354.381C-186.893 359.134 -189.027 363.607 -191.944 367.558C-199.754 379.34 -208.955 390.565 -213.189 404.045C-217.424 417.524 -215.237 434.355 -203.658 442.456C-173.676 463.3 -143.163 426.182 -125.794 406.062Z" stroke="#DEECF4" stroke-miterlimit="10"/>
<path d="M-90.4331 398.097C-100.979 407.131 -110.928 416.837 -120.219 427.157C-130.658 438.743 -140.688 451.35 -154.711 458.259C-169.566 465.493 -186.983 465.144 -203.311 462.633C-208.983 461.795 -214.79 460.568 -219.532 457.337C-223.701 454.261 -227.04 450.197 -229.248 445.509C-235.445 433.401 -237.095 419.472 -233.899 406.251C-231.401 396.069 -226.102 386.765 -222.882 376.786C-221.317 371.941 -220.256 366.606 -221.964 361.807C-224.241 355.546 -230.497 351.835 -236.337 348.666C-250.487 340.954 -265.639 332.325 -272.137 317.579C-277.64 305.093 -275.751 290.69 -272.958 277.43C-270.515 265.782 -267.292 253.946 -260.154 244.434C-247.477 227.351 -224.111 220.926 -203.012 223.87C-181.912 226.813 -162.927 237.674 -145.577 249.846C-135.965 256.631 -126.411 264.031 -115.106 267.272C-102.049 271.011 -88.117 268.828 -74.6231 267.877C-59.9012 266.852 -44.8155 267.481 -30.8771 272.295C-16.9386 277.11 -4.19064 286.728 2.08111 300.08C13.6514 324.703 0.296238 355.472 -20.5517 370.642C-31.2049 378.37 -39.7841 378.35 -52.0473 379.099C-66.7936 380.073 -79.557 388.753 -90.4331 398.097Z" stroke="#DEECF4" stroke-miterlimit="10"/>
<path d="M208.567 437.595C205.988 452.44 197.615 465.757 187.353 476.792C181.201 483.424 174.27 489.476 165.924 493.078C157.578 496.679 147.91 497.636 139.569 494.161C136.267 492.63 133.125 490.777 130.188 488.627L118.141 480.441C113.167 477.048 107.859 473.205 106.194 467.467C104.238 460.549 108.313 453.13 114.123 448.818C119.932 444.505 126.955 442.485 133.681 439.989C136.086 439.223 138.287 437.923 140.119 436.185C141.855 434.134 143.016 431.66 143.485 429.014C145.582 420.245 145.395 410.467 150.73 403.186C155.659 396.486 164.412 393.489 172.738 393.487C181.065 393.485 195.984 395.13 201.579 402.554C208.722 412.288 210.586 425.997 208.567 437.595Z" stroke="#DEECF4" stroke-miterlimit="10"/>
<path d="M210.383 367.142C205.216 364.073 199.201 362.74 193.221 363.34C187.292 363.942 181.445 365.182 175.782 367.038C169.459 368.59 163.351 370.913 157.595 373.956C150.532 378.084 144.894 384.265 141.43 391.676C138.546 397.862 137.262 404.701 134.349 410.867C131.396 417.092 126.869 422.438 121.217 426.378C112.473 432.45 101.146 435.099 94.3746 443.32C90.7218 447.776 88.8329 453.405 87.3832 458.986C85.9143 463.699 85.4685 468.672 86.0754 473.571C86.9473 478.504 89.7498 483.049 92.4639 487.325C94.7273 491.327 97.5576 494.982 100.867 498.174C105.734 502.4 112.09 504.46 118.361 506.012C130.472 508.79 142.736 510.855 155.09 512.195C155.748 512.292 156.682 512.254 156.779 511.596C156.877 510.938 155.537 510.9 155.933 511.471" stroke="#DEECF4" stroke-miterlimit="10"/>
<path d="M199.462 319.175C193.96 317.945 188.2 316.726 182.727 318.11C178.291 319.499 174.213 321.842 170.777 324.973C161.856 332.287 154.021 340.833 147.507 350.353C137.591 364.898 130.668 381.727 117.923 393.853C113.593 398.016 107.761 401.621 102.007 400.034C99.9567 399.333 98.1051 398.149 96.6089 396.582C95.1128 395.015 94.016 393.11 93.4113 391.03C92.2466 386.849 91.8759 382.488 92.3183 378.171C93.0827 362.929 95.8161 347.69 94.5575 332.486C93.794 323.246 91.2651 313.602 84.5225 307.225C81.4745 304.341 77.6834 302.259 74.8448 299.15C68.615 292.337 68.1675 282.151 68.0331 272.989" stroke="#DEECF4" stroke-miterlimit="10"/>
<path d="M186.262 307.953C171.651 310.5 157.05 316.123 146.817 326.859C138.651 335.418 133.852 346.541 127.891 356.756C126.533 359.452 124.616 361.827 122.266 363.721C121.081 364.656 119.659 365.239 118.16 365.405C116.66 365.571 115.145 365.314 113.785 364.661C111.205 363.159 110.1 360.018 109.572 357.09C108.142 349.113 109.416 340.927 110.71 332.937C112.003 324.946 113.34 316.77 112.055 308.782C110.77 300.795 106.408 292.833 98.9022 289.45" stroke="#DEECF4" stroke-miterlimit="10"/>
<path d="M77.9151 438.55C79.1686 435.867 79.896 432.969 80.0579 430.012C80.1147 428.528 79.811 427.053 79.1727 425.712C78.5343 424.371 77.5805 423.205 76.3928 422.314C71.6351 419.08 64.1757 422.317 59.968 418.396C59.0347 417.227 58.0003 416.142 56.8769 415.153C54.1838 413.442 50.7096 415.282 48.0935 417.057C40.9969 421.701 34.431 427.108 28.5132 433.183C22.574 439.301 18.482 446.971 16.7077 455.311C15.6441 461.206 16.4214 468.077 20.9877 471.955C22.9993 473.514 25.2644 474.716 27.6837 475.506C34.8244 478.246 42.0982 480.626 49.4777 482.635C55.6341 484.314 59.8459 486.474 61.6706 479.33C65.4806 464.715 72.1597 452.461 77.9151 438.55Z" stroke="#DEECF4" stroke-miterlimit="10"/>
<path d="M68.4536 442.13C69.0769 440.621 69.6596 438.738 68.7255 437.367C68.432 436.995 68.0675 436.686 67.6533 436.457C67.239 436.228 66.7833 436.084 66.3128 436.033C64.3452 435.994 62.3825 436.243 60.4874 436.773C58.5417 437.046 56.2117 436.669 55.2636 434.96C54.8839 434.279 54.7757 433.495 54.461 432.808C53.914 431.825 53.0698 431.041 52.0495 430.568C51.0292 430.095 49.8853 429.958 48.782 430.175C46.5973 430.628 44.5537 431.6 42.8231 433.009C36.4163 437.681 30.4398 443.667 28.393 451.338C24.7829 464.926 36.1435 474.723 49.1598 471.588C59.9758 469.04 64.8125 451.054 68.4536 442.13Z" stroke="#DEECF4" stroke-miterlimit="10"/>
<path d="M-37.9989 598.897C-22.5362 595.243 -8.19392 588.013 5.96905 580.804L34.4882 566.271L62.7248 551.809C64.6271 550.909 66.4087 549.774 68.0277 548.43C74.2532 542.818 72.9548 532.106 67.5069 525.745C62.0589 519.384 53.7835 516.335 45.8355 513.671C38.2027 511.149 30.5513 508.753 22.564 508.629C17.2683 508.64 11.9897 509.229 6.82161 510.384C-5.54617 512.815 -17.9304 516.332 -28.6704 523.022C-34.072 526.418 -38.9464 530.581 -44.1924 534.224C-55.163 541.825 -67.6136 546.981 -79.1183 553.862C-88.5024 559.504 -97.746 567.119 -100.434 577.722C-101.378 581.057 -101.299 584.599 -100.208 587.89C-96.6072 597.645 -83.6099 596.589 -75.2953 598.939C-63.0616 602.094 -50.2255 602.08 -37.9989 598.897Z" stroke="#DEECF4" stroke-miterlimit="10"/>
<path d="M57.4622 540.928C56.6456 544.179 54.6329 547.004 51.8258 548.837C48.7606 550.833 45.0347 551.451 41.4475 552.106C27.7649 554.871 14.5918 559.734 2.39417 566.522C-4.36461 570.326 -10.8145 574.64 -17.8636 577.809C-29.9729 583.256 -43.3297 585.012 -56.4915 586.748C-61.703 587.451 -67.1495 588.119 -72.1069 586.345C-77.0643 584.571 -81.244 579.486 -80.1638 574.346C-79.2738 570.059 -75.1852 567.205 -71.1672 565.477C-64.7719 562.724 -57.7912 561.643 -51.3269 558.964C-45.4991 556.242 -39.9697 552.923 -34.8279 549.058C-16.4472 536.389 3.86445 524.63 26.1778 523.59C30.9373 523.124 35.7352 523.928 40.0836 525.918C44.5526 528.18 47.6224 532.108 52.5883 533.066C56.7661 533.94 58.6232 536.216 57.4622 540.928Z" stroke="#DEECF4" stroke-miterlimit="10"/>
<path d="M40.6467 540.427C40.3015 542.762 37.9378 544.237 35.6789 544.896C31.8632 546.013 27.7941 545.812 23.8191 546.057C14.457 546.652 5.44046 549.817 -2.23886 555.205C-5.96127 557.857 -9.31161 560.916 -12.976 563.609C-21.8444 570.085 -32.3206 574.003 -43.2625 574.934C-45.1279 575.217 -47.0348 575.001 -48.79 574.309C-49.6531 573.936 -50.3612 573.277 -50.795 572.443C-51.2287 571.609 -51.3616 570.651 -51.1712 569.73C-50.7449 568.694 -50.0111 567.813 -49.0689 567.207C-41.1438 561.254 -30.4665 560.511 -21.4644 556.478C-16.8854 554.194 -12.4255 551.679 -8.10174 548.943C0.52786 544.164 9.74682 540.537 19.3194 538.154C23.4352 537.066 42.0381 530.257 40.6467 540.427Z" stroke="#DEECF4" stroke-miterlimit="10"/>
<path d="M24.569 636.935C21.2222 640.187 17.4766 642.996 13.976 646.097C10.8737 649.149 7.52124 651.937 3.9538 654.43C2.15909 655.667 0.132909 656.53 -2.0032 656.965C-4.13932 657.4 -6.34134 657.4 -8.47719 656.963C-8.85604 656.902 -9.20539 656.722 -9.47372 656.448C-9.75103 656.029 -9.85905 655.521 -9.7759 655.026C-9.59109 650.992 -8.86644 647.001 -7.62128 643.16C-6.9528 641.129 -6.13347 638.945 -6.80432 636.876C-7.72028 634.083 -11.0185 632.891 -13.847 632.312C-16.6756 631.734 -19.9724 631.183 -21.7036 628.813C-22.4197 627.7 -22.794 626.401 -22.7804 625.077C-22.7667 623.753 -22.3657 622.462 -21.6268 621.363C-20.094 619.188 -17.8726 617.593 -15.3215 616.836C-9.75698 614.936 -3.706 615.703 2.17063 615.483C12.6736 615.011 22.8377 611.624 31.5245 605.701C33.5876 604.309 35.5501 601.973 37.8139 603.989C39.1588 605.181 39.8492 608.741 39.8497 610.47C39.8462 614.393 37.011 618.841 35.2764 622.235C32.5581 627.702 28.9383 632.671 24.569 636.935Z" stroke="#DEECF4" stroke-miterlimit="10"/>
<path d="M8.8646 641.338C7.48537 639.837 7.97619 637.492 8.55244 635.544C9.12868 633.596 9.63285 631.269 8.30525 629.743C7.1613 628.737 5.68055 628.198 4.15739 628.233C2.4826 628.082 0.443901 627.684 -0.0138682 626.016C-0.471637 624.347 1.0292 622.968 2.52443 622.276C5.79538 620.992 9.4105 620.881 12.7538 621.963C15.2302 622.649 17.8569 623.726 20.2649 622.817C21.3205 622.305 22.3345 621.711 23.2976 621.04C25.782 619.614 28.3589 620.812 27.6326 623.667C27.1921 625.347 23.789 628.654 22.6039 630.064C18.7739 634.653 14.1127 638.478 8.8646 641.338Z" stroke="#DEECF4" stroke-miterlimit="10"/>
<path d="M126.006 597.59C124.793 594.961 121.768 593.762 118.972 592.964C109.269 590.601 99.1147 590.828 89.5264 593.622C79.9841 596.431 70.9241 600.674 62.6564 606.205C61.263 607.227 59.7024 607.999 58.0443 608.485C57.2106 608.712 56.3308 608.708 55.4996 608.472C54.6683 608.236 53.9171 607.778 53.3267 607.147C52.703 606.271 52.3761 605.219 52.3938 604.143C52.1691 597.866 58.0183 593.175 63.579 590.218C78.5624 582.286 95.5156 578.844 112.406 580.305C114.618 580.398 116.796 580.882 118.839 581.736C122.441 583.47 125.144 587.28 129.179 587.604C129.571 587.662 129.88 588.172 129.612 588.469C129.344 588.765 128.766 588.232 129.074 587.989" stroke="#DEECF4" stroke-miterlimit="10"/>
<path d="M5.29397 708.363C10.0609 703.736 15.305 699.563 19.2779 694.243C20.6246 692.764 21.3623 690.831 21.3428 688.832C20.985 685.945 17.7435 684.153 14.8508 684.334C11.9646 684.759 9.23314 685.908 6.91155 687.675L-17.1449 702.996C-22.5425 706.196 -27.6214 709.906 -32.3123 714.075C-36.3069 718.021 -39.8667 722.385 -42.9309 727.091C-46.0967 731.288 -48.4313 736.051 -49.8091 741.124C-51.039 747.607 -50.045 754.315 -46.9878 760.163C-43.9426 765.959 -39.965 771.215 -35.2142 775.721C-32.7245 778.267 -29.9128 780.908 -26.3247 781.438C-16.4642 783.297 -20.2239 773.854 -20.4686 768.471C-20.7642 760.912 -19.8308 753.355 -17.7049 746.095C-13.4322 731.74 -5.5077 718.738 5.29397 708.363Z" stroke="#DEECF4" stroke-miterlimit="10"/>
<path d="M0.252675 705.135C2.00993 703.537 4.04433 701.148 2.74618 699.099C1.2442 696.587 -2.61254 698.307 -4.80144 700.225C-16.4191 710.523 -26.9762 721.959 -36.3149 734.361C-39.4444 738.525 -42.5309 743.049 -43.5008 748.093C-44.6202 753.932 -41.8095 762.753 -34.6723 763.104C-27.0268 763.482 -27.3381 752.484 -25.8274 747.247C-21.1833 731.074 -12.1574 716.499 0.252675 705.135Z" stroke="#DEECF4" stroke-miterlimit="10"/>
<path d="M35.8066 738.539C36.8633 736.476 37.5857 734.259 37.9465 731.97C38.0993 730.821 37.8805 729.653 37.322 728.637C36.7636 727.621 35.8948 726.811 34.8426 726.324C33.9334 726.123 32.9922 726.115 32.0797 726.3C31.1671 726.485 30.3034 726.859 29.5442 727.398C22.9891 731.232 18.7276 737.855 15.2008 744.491C12.2255 750.103 9.5237 756.14 9.49714 762.493C9.47058 768.845 12.7751 775.626 18.7203 777.866C23.0109 779.493 28.8388 779.17 30.8751 783.266C31.3588 784.218 31.5372 785.285 32.0389 786.224C34.672 791.048 41.3822 788.005 43.0297 784.118C45.1504 779.196 41.318 776.852 38.8205 773.168C32.1482 763.392 31.3723 749.363 35.8066 738.539Z" stroke="#DEECF4" stroke-miterlimit="10"/>
<path d="M30.9125 743.371C31.585 741.421 32.2447 738.909 30.663 737.586C29.0813 736.264 26.7442 737.343 25.317 738.765C22.6833 741.418 21.4199 745.09 20.2847 748.653C18.8852 753.137 17.5647 757.953 18.9158 762.46C20.1321 766.579 28.0121 778.583 28.8558 768.653C29.5844 759.826 27.8882 752.13 30.9125 743.371Z" stroke="#DEECF4" stroke-miterlimit="10"/>
<path d="M-5.63336 273.194C17.6905 282.646 29.7981 310.999 24.9216 335.752C20.0451 360.505 1.15949 380.705 -21.1763 392.293C-39.0723 401.576 -59.8026 406.42 -74.3814 420.34C-84.3963 429.923 -90.4224 442.85 -98.6686 454.007C-114.111 474.855 -136.959 488.989 -162.509 493.498C-188.058 498.007 -214.364 492.548 -236.01 478.245C-245.725 471.83 -254.61 463.263 -258.377 452.25C-266.365 428.846 -249.231 404.144 -250.157 379.43C-250.124 378.111 -250.402 376.803 -250.969 375.611C-252.148 373.515 -254.691 372.739 -256.914 371.85C-267.238 367.714 -274.283 358.074 -279.494 348.274C-288.36 331.321 -293.465 312.655 -294.462 293.55C-295.458 274.445 -292.323 255.35 -285.27 237.566L-285.772 240.31" stroke="#DEECF4" stroke-miterlimit="10"/>
<path d="M21.0773 278.904L21.8994 280.274" stroke="#DEECF4" stroke-linecap="round" stroke-linejoin="round"/>
<path d="M25.128 285.731C31.6834 296.948 37.769 308.527 41.1419 321.018C45.3245 336.046 45.2447 352.83 37.8506 366.564C28.2861 384.363 8.79721 393.698 -8.4613 404.084C-26.6258 415.042 -43.4017 428.152 -58.4251 443.129C-75.105 459.781 -89.7762 478.875 -109.462 491.815C-139.181 511.326 -177.492 514.436 -212.188 506.745C-219.305 505.4 -226.176 502.98 -232.566 499.569C-239.62 495.516 -245.431 489.661 -251.045 483.772C-263.053 471.317 -275.571 457.218 -276.717 439.948C-277.8 423.777 -268.653 406.524 -275.878 392.039C-278.531 386.699 -283.083 382.616 -286.906 378.047C-306.578 354.613 -306.185 320.871 -304.756 290.309C-303.865 271.067 -302.967 251.821 -302.064 232.57" stroke="#DEECF4" stroke-linecap="round" stroke-linejoin="round" stroke-dasharray="2 4"/>
<path d="M43.8428 445.489L42.1239 457.115" stroke="#DEECF4" stroke-miterlimit="10"/>
<path d="M37.1668 450.442L48.793 452.161" stroke="#DEECF4" stroke-miterlimit="10"/>
</svg>
