<svg width="300" height="1262" viewBox="0 0 300 1262" fill="none" xmlns="http://www.w3.org/2000/svg">
<path d="M197.97 1024.67C188.489 1011.66 182.491 995.788 187.454 979.539C189.927 971.849 194.423 964.967 200.472 959.613C206.52 954.259 213.898 950.632 221.831 949.111C249.117 944.26 273.397 964.879 296.796 979.657C324.786 997.326 364.06 1006.84 389.186 985.323C397.415 978.278 403.042 968.688 410.717 961.036C428.036 943.778 459.721 936.083 477.769 952.564C500.22 973.054 483.408 982.152 503.487 1001.33C526.57 1023.28 551.736 1012.53 574.36 1034.94C590.651 1051.13 602.586 1071.17 609.055 1093.2C612.734 1105.74 614.544 1119.5 609.68 1131.65C601.78 1151.53 579.106 1160.94 558.135 1165.19C520.5 1172.82 479.284 1171.39 447.173 1192.45C435.205 1200.31 425.17 1210.95 412.674 1217.94C395.754 1227.39 375.789 1229.35 356.452 1230.78C333.923 1232.51 310.982 1233.61 288.958 1228.57C266.935 1223.54 245.571 1211.48 234.079 1192.02C214.832 1159.3 230.583 1123.43 226.006 1088.58C224.685 1079.74 222.594 1071.03 219.757 1062.55C217.809 1056.31 214.467 1050.7 212.305 1044.63C211.306 1041.82 209.835 1039.2 207.957 1036.89C206.416 1035.02 204.813 1032.95 203.193 1031.09C201.574 1029.23 199.623 1026.97 197.97 1024.67Z" stroke="#DEECF4" stroke-linecap="round" stroke-linejoin="round" stroke-dasharray="2.01 4.01"/>
<path d="M232.993 1043.88C225.138 1033.1 220.137 1019.95 224.262 1006.49C226.31 1000.12 230.033 994.415 235.042 989.979C240.051 985.542 246.162 982.535 252.733 981.272C275.355 977.255 295.478 994.342 314.902 1006.6C338.086 1021.22 370.621 1029.12 391.458 1011.29C398.268 1005.48 402.933 997.508 409.297 991.172C423.644 976.882 448.183 972.613 464.844 984.16C472.066 989.145 477.292 996.442 483.27 1002.87C501.245 1022.22 526.13 1033.83 544.873 1052.42C558.373 1065.82 568.264 1082.43 573.624 1100.68C576.665 1111.07 578.136 1122.43 574.138 1132.53C567.608 1149.01 548.81 1156.8 531.432 1160.33C500.248 1166.66 466.095 1165.46 439.489 1182.93C429.577 1189.42 421.26 1198.25 410.906 1204.03C396.886 1211.86 380.284 1213.5 364.335 1214.68C345.66 1216.04 326.658 1217.04 308.408 1212.84C290.159 1208.64 272.475 1198.73 262.938 1182.53C246.937 1155.42 260.044 1125.7 256.27 1096.81C255.162 1089.46 253.421 1082.22 251.068 1075.17C249.454 1069.99 246.688 1065.36 244.84 1060.33C244.009 1058.04 242.8 1055.9 241.263 1054.01C239.976 1052.45 238.651 1050.75 237.351 1049.21C236.051 1047.67 234.355 1045.73 232.993 1043.88Z" stroke="#DEECF4" stroke-linecap="round" stroke-linejoin="round"/>
<path d="M268.014 1063.07C261.788 1054.53 247.314 1037.31 250.588 1026.64C252.214 1021.58 255.178 1017.05 259.167 1013.53C263.155 1010 268.021 1007.63 273.249 1006.64C291.189 1003.45 310.463 1025.51 325.863 1035.24C344.246 1046.84 377.256 1051.36 393.77 1037.21C399.186 1032.58 402.878 1026.26 407.921 1021.27C419.316 1009.98 438.774 1006.54 451.927 1015.69C457.652 1019.65 461.791 1025.44 466.533 1030.55C480.776 1045.88 500.583 1055.09 515.385 1069.76C526.082 1080.39 533.921 1093.55 538.173 1108.02C540.592 1116.26 541.754 1125.31 538.595 1133.29C533.401 1146.35 518.495 1152.53 504.706 1155.32C479.976 1160.35 452.903 1159.39 431.798 1173.24C423.932 1178.4 417.344 1185.4 409.137 1189.99C398.014 1196.2 384.883 1197.48 372.196 1198.41C357.372 1199.52 342.307 1200.29 327.838 1196.97C313.37 1193.65 299.326 1185.73 291.767 1172.94C279.08 1151.45 289.474 1127.87 286.52 1104.96C285.641 1099.15 284.26 1093.43 282.391 1087.86C281.112 1083.76 278.919 1080.08 277.448 1076.09C276.784 1074.24 275.815 1072.53 274.583 1071C273.553 1069.78 272.503 1068.41 271.442 1067.19C270.381 1065.97 269.081 1064.55 268.014 1063.07Z" stroke="#DEECF4" stroke-linecap="round" stroke-linejoin="round"/>
<path d="M303.084 1082.27C298.468 1075.96 295.552 1068.26 297.971 1060.36C299.173 1056.62 301.358 1053.28 304.295 1050.69C307.232 1048.09 310.814 1046.33 314.665 1045.59C327.923 1043.22 339.717 1053.24 351.106 1060.43C364.687 1069 383.768 1073.63 395.976 1063.17C399.969 1059.75 402.706 1055.09 406.433 1051.38C414.801 1043 429.226 1040.5 438.998 1047.26C443.226 1050.19 446.293 1054.47 449.795 1058.23C460.313 1069.48 474.896 1076.39 485.903 1087.27C493.812 1095.13 499.608 1104.86 502.751 1115.56C504.555 1121.7 505.408 1128.33 503.062 1134.24C499.223 1143.9 488.209 1148.46 478.027 1150.52C459.746 1154.23 439.726 1153.54 424.138 1163.77C418.297 1167.58 413.441 1172.75 407.379 1176.15C399.156 1180.74 389.465 1181.69 380.072 1182.38C369.129 1183.19 357.988 1183.75 347.3 1181.31C336.612 1178.87 326.219 1173.01 320.658 1163.56C311.28 1147.67 318.927 1130.19 316.737 1113.32C316.098 1109.03 315.082 1104.8 313.7 1100.68C312.751 1097.62 311.134 1094.92 310.044 1091.99C309.544 1090.62 308.814 1089.35 307.887 1088.22C307.127 1087.31 306.354 1086.3 305.559 1085.36C304.764 1084.43 303.822 1083.36 303.084 1082.27Z" stroke="#DEECF4" stroke-linecap="round" stroke-linejoin="round"/>
<path d="M70.4615 414.667C66.7824 422.272 67.6905 430.688 68.042 438.914C68.2973 444.864 68.613 450.79 69.296 456.709C70.3932 466.28 73.3457 475.546 77.9884 483.988C86.3539 499.851 97.7171 514.439 112.794 524.474C120.602 529.705 128.947 534.086 137.686 537.542C146.28 541.075 155.663 542.236 164.859 540.905C171.854 540.146 178.675 538.228 185.042 535.231C193.289 531.226 200.571 526.227 208.408 521.514C244.22 500.032 288.07 486.36 328.777 501.78C367.922 516.599 395.308 552.274 431.848 572.65C462.333 589.646 498.182 595.282 533.051 593.633C561.052 592.311 591.673 584.678 607.496 561.524C624.094 537.23 618.86 504.861 622.566 475.669C629.525 420.938 668.556 376.725 702.357 333.092C731.945 294.966 792.465 203.977 740.53 162.212C733.059 156.192 724.823 151.597 716.754 146.514C710.262 142.105 703.381 138.299 696.196 135.143C689.599 132.436 682.718 130.619 675.831 128.547C668.79 126.239 661.495 124.79 654.106 124.234C645.579 123.688 637.024 123.712 628.499 124.305C613.698 125.341 600.648 131.946 587.31 138.112C578.152 142.343 569.268 147.143 560.711 152.484C551.584 158.221 542.107 163 532.592 168.058C516.693 176.509 501.374 186.171 484.833 193.42C466.491 201.667 447.718 208.921 428.596 215.151C421.316 217.461 414.019 219.868 406.575 221.609C396.251 224.016 385.43 224.896 374.963 226.443C364.496 227.991 353.71 230.194 343.007 231.008C332.449 231.731 321.844 231.356 311.363 229.89C303.346 228.834 295.424 227.667 287.372 226.92C277.419 225.99 267.569 223.908 257.585 223.415C248.361 222.969 239.314 220.48 229.977 220.788C220.81 220.882 211.675 221.906 202.713 223.842C184.738 228.101 168.664 236.882 153.121 246.657C144.283 252.018 135.977 258.211 128.316 265.151C120.155 272.762 114.045 282.007 108.541 291.675C104.179 299.317 99.2634 306.896 96.4261 315.321C94.5269 320.886 92.9195 326.583 91.2692 332.207C88.883 340.325 88.4075 348.914 86.2185 357.067C82.4169 371.206 81.263 385.819 76.6403 399.712C75.6866 402.575 73.8998 404.568 72.4002 407.095C71.6277 408.733 70.9953 410.434 70.5098 412.178C69.4749 414.925 66.112 417.088 70.4615 414.667Z" stroke="#DEECF4" stroke-miterlimit="10"/>
<path d="M80.809 672.664C84.5973 657.791 91.8993 644.044 102.102 632.578C128.38 603.475 177.288 563.037 218.27 562.774C265.797 562.488 301.694 610.242 348.915 615.685C372.794 618.431 396.465 609.92 420.457 608.454C444.449 606.989 472.86 616.35 479.478 639.452C484.38 656.58 475.398 674.448 465.394 689.2C455.391 703.952 443.614 718.839 442.124 736.591C439.883 763.021 461.234 787.548 457.771 813.838C455.055 834.558 434.845 851.427 413.961 850.416C395.463 849.516 379.938 836.889 363.407 828.606C348.561 821.316 332.315 817.32 315.781 816.893C299.247 816.467 282.816 819.618 267.614 826.133C243.554 836.671 223.881 855.222 201.118 868.579C190.718 874.583 179.225 879.693 167.347 878.951C149.666 877.835 135.436 864.216 124.664 850.165C92.6273 808.373 65.1243 730.862 80.809 672.664Z" stroke="#DEECF4" stroke-miterlimit="10"/>
<path d="M188.751 731.301L188.901 732.32C191.687 747.807 201.056 760.383 216.638 765.173C219.88 766.376 223.19 767.389 226.55 768.206C230.386 768.92 234.235 769.504 238.127 769.841C242.422 770.265 246.756 770.072 250.996 769.268C254.626 768.587 257.321 765.594 259.148 762.57C269.027 746.219 251.5 724.377 246.506 709.553C242.302 697.253 243.074 683.85 240.812 671.039C238.55 658.228 231.721 644.636 219.248 640.956C204.647 636.63 189.251 648.593 184.298 663.063C179.344 677.533 181.986 693.234 184.666 708.224L188.751 731.301Z" stroke="#DEECF4" stroke-miterlimit="10" stroke-dasharray="2 4"/>
<path d="M168.096 643.684C168.548 643.665 168.987 643.523 169.364 643.272C170.503 642.187 171.329 640.815 171.755 639.3C176.131 629.046 188.786 625.734 199.847 624.739C212.361 623.61 226.206 624.333 235.603 632.662C244.593 640.619 247.182 653.366 250.982 664.668C256.365 680.631 264.972 695.315 276.27 707.811C286.412 719.008 299.641 727.7 305.652 742.15C307.551 747.167 308.799 752.406 309.366 757.74C310.047 762.347 311.085 767.093 309.986 771.786C305.785 789.507 292.208 794.061 275.922 794.691C252.699 795.43 229.598 798.374 206.932 803.482C202.696 804.723 198.292 805.299 193.879 805.188C185.771 804.497 178.705 798.833 173.678 792.339C160.967 775.886 157.93 754.047 157.183 733.295C156.071 702.628 158.957 671.947 165.769 642.026C165.759 643.148 166.938 643.759 168.096 643.684Z" stroke="#DEECF4" stroke-miterlimit="10"/>
<path d="M147.253 639.592C156.486 615.411 183 598.073 208.95 601.298C229.663 603.855 247.32 617.368 262.07 632.127C276.821 646.886 289.993 663.528 307.243 675.26C323.067 686.017 342.152 692.514 354.965 706.727C360.512 712.882 364.595 720.212 366.91 728.167C369.225 736.122 369.712 744.498 368.335 752.668C366.958 760.838 363.752 768.591 358.957 775.348C354.161 782.105 347.901 787.69 340.643 791.687C321.29 802.33 297.81 800.437 275.977 803.729C251.834 807.424 229.165 817.664 210.433 833.338C206.674 836.503 202.91 839.958 198.215 841.34C188.335 844.258 179.583 832.279 173.874 825.934C166.216 817.459 161.727 807.347 158.711 796.473C154.508 781.52 151.265 766.314 149.002 750.948C147.897 743.474 146.789 735.984 145.684 728.51C144.667 720.277 144.576 711.955 145.411 703.701C146.783 685.582 141.446 667.461 144.57 649.387C145.141 646.042 146.04 642.761 147.253 639.592Z" stroke="#DEECF4" stroke-miterlimit="10"/>
<path d="M196.63 699.379L196.465 699.995C195.788 711.223 197.699 723.285 205.128 731.73C213.136 740.841 233.078 745.338 236.34 730.686C239.297 717.44 225.654 703.029 226.188 689.421C226.426 683.669 227.661 677.723 225.679 672.332C223.28 665.962 216.428 661.963 209.682 661.6C206.084 661.411 202.172 662.246 199.784 664.936C196.133 669.047 197.398 675.328 198.014 680.793C198.705 687.021 198.236 693.322 196.63 699.379Z" stroke="#DEECF4" stroke-miterlimit="10"/>
<path d="M158.192 984.746C158.238 955.279 181.664 929.079 209.748 920.204C237.833 911.328 269.109 917.432 295.16 931.193C315.264 941.654 335.059 956.852 357.686 955.252C380.061 953.673 397.514 936.138 417.35 925.616C443.191 911.965 476.107 910.749 501.279 925.6C531.105 943.238 545.753 979.067 573.646 999.761C588.034 1010.44 605.741 1016.82 617.723 1030.07C626.054 1039.31 630.885 1051.08 635.558 1062.66L652.862 1105.3" stroke="#DEECF4" stroke-miterlimit="10"/>
<path d="M172.987 925.655C187.927 911.149 208.78 903.615 229.578 902.637C250.377 901.66 271.1 906.89 290.172 915.246C311.81 924.712 332.969 938.523 356.576 937.915C376.722 937.402 394.904 926.42 412.734 917.06C427.965 909.076 443.909 902.011 460.823 898.918C477.738 895.825 495.836 896.944 511.185 904.698C530.063 914.235 546.57 957.875 561.55 972.776C582.191 993.261 597.249 965.801 623.748 992.769C651.124 1020.58 664.781 1091.4 662.98 1120.37" stroke="#DEECF4" stroke-miterlimit="10"/>
<path d="M345.497 893.937C335.07 890.903 325.191 886.229 316.231 880.091C311.22 876.846 306.295 873.315 300.643 871.364C293.896 869.048 286.587 869.103 279.816 866.95C273.045 864.797 266.383 859.154 266.774 852.051C267.051 846.886 271.042 842.582 275.617 840.176C285.185 835.143 296.865 836.826 307.232 839.905C326.026 845.516 343.348 855.252 361.891 861.653C380.434 868.054 401.468 870.948 419.312 862.77C425.43 859.96 430.954 855.957 437.103 853.143C440.776 851.533 444.556 850.177 448.415 849.085C452.296 847.934 456.376 846.835 460.354 847.64C464.332 848.445 468.071 851.75 467.965 855.801C467.807 857.41 467.221 858.948 466.269 860.254C465.316 861.561 464.031 862.588 462.547 863.231C459.569 864.476 456.409 865.23 453.19 865.463C429.393 868.625 406.434 876.369 385.584 888.267C380.96 890.888 376.822 893.981 371.534 895.147C362.878 896.76 353.967 896.346 345.497 893.937Z" stroke="#DEECF4" stroke-miterlimit="10"/>
<path d="M294.084 860.582C291.397 860.713 288.704 860.47 286.084 859.859C284.779 859.529 283.597 858.831 282.677 857.849C281.757 856.867 281.138 855.641 280.894 854.318C280.582 850.585 284.403 847.843 287.991 846.768C299.231 843.409 311.272 848.289 321.272 854.416C331.273 860.543 340.727 868.176 352.094 871.09C355.588 871.983 359.324 872.455 362.22 874.605C365.116 876.755 366.601 881.386 364.08 883.937C362.811 885.038 361.24 885.733 359.572 885.932C347.883 888.205 334.203 885.888 327.148 875.963C320.093 866.039 305.958 860.86 294.084 860.582Z" stroke="#DEECF4" stroke-miterlimit="10"/>
<path d="M397.507 398.097C408.053 407.131 418.002 416.837 427.294 427.157C437.733 438.743 447.762 451.35 461.785 458.259C476.64 465.493 494.057 465.144 510.385 462.633C516.057 461.795 521.864 460.568 526.606 457.337C530.776 454.261 534.114 450.197 536.322 445.509C542.519 433.401 544.169 419.472 540.973 406.251C538.475 396.069 533.176 386.765 529.956 376.786C528.391 371.941 527.33 366.606 529.038 361.807C531.315 355.546 537.571 351.835 543.411 348.666C557.561 340.954 572.713 332.325 579.211 317.579C584.714 305.093 582.825 290.69 580.032 277.43C577.589 265.782 574.366 253.946 567.228 244.434C554.551 227.351 531.186 220.926 510.086 223.87C488.986 226.813 470.001 237.674 452.651 249.846C443.039 256.631 433.485 264.031 422.18 267.272C409.123 271.011 395.191 268.828 381.697 267.877C366.975 266.852 351.89 267.481 337.951 272.295C324.013 277.11 311.265 286.728 304.993 300.08C293.423 324.703 306.778 355.472 327.626 370.642C338.279 378.37 346.858 378.35 359.121 379.099C373.868 380.073 386.631 388.753 397.507 398.097Z" stroke="#DEECF4" stroke-miterlimit="10"/>
<path d="M98.5074 437.595C101.087 452.44 109.46 465.757 119.721 476.792C125.874 483.424 132.805 489.476 141.151 493.078C149.496 496.679 159.165 497.636 167.505 494.161C170.807 492.63 173.949 490.777 176.886 488.627L188.933 480.441C193.907 477.048 199.215 473.205 200.881 467.467C202.836 460.549 198.761 453.13 192.952 448.818C187.143 444.505 180.119 442.485 173.394 439.989C170.988 439.223 168.787 437.923 166.955 436.185C165.219 434.134 164.058 431.66 163.589 429.014C161.492 420.245 161.68 410.467 156.344 403.186C151.415 396.486 142.662 393.489 134.336 393.487C126.01 393.485 111.09 395.13 105.495 402.554C98.3524 412.288 96.4885 425.997 98.5074 437.595Z" stroke="#DEECF4" stroke-miterlimit="10"/>
<path d="M96.6913 367.142C101.859 364.073 107.873 362.74 113.854 363.34C119.782 363.942 125.629 365.182 131.292 367.038C137.615 368.59 143.723 370.913 149.479 373.956C156.542 378.084 162.181 384.265 165.644 391.676C168.528 397.862 169.812 404.701 172.725 410.867C175.678 417.092 180.205 422.438 185.858 426.378C194.601 432.45 205.928 435.099 212.7 443.32C216.352 447.776 218.241 453.405 219.691 458.986C221.16 463.699 221.606 468.672 220.999 473.571C220.127 478.504 217.324 483.049 214.61 487.325C212.347 491.327 209.517 494.982 206.207 498.174C201.34 502.4 194.984 504.46 188.713 506.012C176.602 508.79 164.338 510.855 151.985 512.195C151.327 512.292 150.392 512.254 150.295 511.596C150.198 510.938 151.537 510.9 151.141 511.471" stroke="#DEECF4" stroke-miterlimit="10"/>
<path d="M107.612 319.175C113.114 317.945 118.874 316.726 124.347 318.11C128.783 319.499 132.862 321.842 136.297 324.973C145.218 332.287 153.053 340.833 159.567 350.353C169.483 364.898 176.406 381.727 189.151 393.853C193.481 398.016 199.313 401.621 205.067 400.034C207.117 399.333 208.969 398.149 210.465 396.582C211.961 395.015 213.058 393.11 213.663 391.03C214.827 386.849 215.198 382.488 214.756 378.171C213.991 362.929 211.258 347.69 212.517 332.486C213.28 323.246 215.809 313.602 222.552 307.225C225.6 304.341 229.391 302.259 232.229 299.15C238.459 292.337 238.907 282.151 239.041 272.989" stroke="#DEECF4" stroke-miterlimit="10"/>
<path d="M120.812 307.953C135.423 310.5 150.024 316.123 160.257 326.859C168.424 335.418 173.222 346.541 179.184 356.756C180.541 359.452 182.459 361.827 184.809 363.721C185.993 364.656 187.415 365.239 188.915 365.405C190.414 365.571 191.93 365.314 193.289 364.661C195.869 363.159 196.974 360.018 197.502 357.09C198.932 349.113 197.658 340.927 196.365 332.937C195.071 324.946 193.734 316.77 195.019 308.782C196.304 300.795 200.667 292.833 208.172 289.45" stroke="#DEECF4" stroke-miterlimit="10"/>
<path d="M229.159 438.55C227.906 435.867 227.178 432.969 227.016 430.012C226.96 428.528 227.263 427.053 227.902 425.712C228.54 424.371 229.494 423.205 230.682 422.314C235.439 419.08 242.899 422.317 247.106 418.396C248.04 417.227 249.074 416.142 250.197 415.153C252.891 413.442 256.365 415.282 258.981 417.057C266.077 421.701 272.643 427.108 278.561 433.183C284.5 439.301 288.592 446.971 290.367 455.311C291.43 461.206 290.653 468.077 286.087 471.955C284.075 473.514 281.81 474.716 279.391 475.506C272.25 478.246 264.976 480.626 257.597 482.635C251.44 484.314 247.228 486.474 245.404 479.33C241.594 464.715 234.915 452.461 229.159 438.55Z" stroke="#DEECF4" stroke-miterlimit="10"/>
<path d="M238.621 442.13C237.997 440.621 237.415 438.738 238.349 437.367C238.642 436.995 239.007 436.686 239.421 436.457C239.835 436.228 240.291 436.084 240.762 436.033C242.729 435.994 244.692 436.243 246.587 436.773C248.533 437.046 250.863 436.669 251.811 434.96C252.19 434.279 252.299 433.495 252.613 432.808C253.16 431.825 254.005 431.041 255.025 430.568C256.045 430.095 257.189 429.958 258.292 430.175C260.477 430.628 262.521 431.6 264.251 433.009C270.658 437.681 276.635 443.667 278.681 451.338C282.291 464.926 270.931 474.723 257.915 471.588C247.099 469.04 242.262 451.054 238.621 442.13Z" stroke="#DEECF4" stroke-miterlimit="10"/>
<path d="M345.073 598.897C329.61 595.243 315.268 588.013 301.105 580.804L272.586 566.271L244.349 551.809C242.447 550.909 240.665 549.774 239.047 548.43C232.821 542.818 234.119 532.106 239.567 525.745C245.015 519.384 253.291 516.335 261.239 513.671C268.872 511.149 276.523 508.753 284.51 508.629C289.806 508.64 295.085 509.229 300.253 510.384C312.62 512.815 325.005 516.332 335.745 523.022C341.146 526.418 346.021 530.581 351.267 534.224C362.237 541.825 374.688 546.981 386.193 553.862C395.577 559.504 404.82 567.119 407.509 577.722C408.452 581.057 408.373 584.599 407.283 587.89C403.681 597.645 390.684 596.589 382.37 598.939C370.136 602.094 357.3 602.08 345.073 598.897Z" stroke="#DEECF4" stroke-miterlimit="10"/>
<path d="M249.612 540.928C250.429 544.179 252.441 547.004 255.248 548.837C258.314 550.833 262.039 551.451 265.627 552.106C279.309 554.871 292.482 559.734 304.68 566.522C311.439 570.326 317.889 574.64 324.938 577.809C337.047 583.256 350.404 585.012 363.566 586.748C368.777 587.451 374.224 588.119 379.181 586.345C384.139 584.571 388.318 579.486 387.238 574.346C386.348 570.059 382.259 567.205 378.241 565.477C371.846 562.724 364.865 561.643 358.401 558.964C352.573 556.242 347.044 552.923 341.902 549.058C323.521 536.389 303.21 524.63 280.896 523.59C276.137 523.124 271.339 523.928 266.991 525.918C262.522 528.18 259.452 532.108 254.486 533.066C250.308 533.94 248.451 536.216 249.612 540.928Z" stroke="#DEECF4" stroke-miterlimit="10"/>
<path d="M266.428 540.427C266.773 542.762 269.136 544.237 271.395 544.896C275.211 546.013 279.28 545.812 283.255 546.057C292.617 546.652 301.634 549.817 309.313 555.205C313.035 557.857 316.386 560.916 320.05 563.609C328.919 570.085 339.395 574.003 350.337 574.934C352.202 575.217 354.109 575.001 355.864 574.309C356.727 573.936 357.435 573.277 357.869 572.443C358.303 571.609 358.436 570.651 358.245 569.73C357.819 568.694 357.085 567.813 356.143 567.207C348.218 561.254 337.541 560.511 328.539 556.478C323.96 554.194 319.5 551.679 315.176 548.943C306.546 544.164 297.327 540.537 287.755 538.154C283.639 537.066 265.036 530.257 266.428 540.427Z" stroke="#DEECF4" stroke-miterlimit="10"/>
<path d="M282.505 636.935C285.852 640.187 289.597 642.996 293.098 646.097C296.2 649.149 299.553 651.937 303.12 654.43C304.915 655.667 306.941 656.53 309.077 656.965C311.213 657.4 313.415 657.4 315.551 656.963C315.93 656.902 316.279 656.722 316.548 656.448C316.825 656.029 316.933 655.521 316.85 655.026C316.665 650.992 315.941 647.001 314.695 643.16C314.027 641.129 313.208 638.945 313.878 636.876C314.794 634.083 318.093 632.891 320.921 632.312C323.75 631.734 327.047 631.183 328.778 628.813C329.494 627.7 329.868 626.401 329.854 625.077C329.841 623.753 329.44 622.462 328.701 621.363C327.168 619.188 324.947 617.593 322.396 616.836C316.831 614.936 310.78 615.703 304.903 615.483C294.4 615.011 284.236 611.624 275.55 605.701C273.486 604.309 271.524 601.973 269.26 603.989C267.915 605.181 267.225 608.741 267.224 610.47C267.228 614.393 270.063 618.841 271.798 622.235C274.516 627.702 278.136 632.671 282.505 636.935Z" stroke="#DEECF4" stroke-miterlimit="10"/>
<path d="M298.21 641.338C299.589 639.837 299.098 637.492 298.522 635.544C297.946 633.596 297.441 631.269 298.769 629.743C299.913 628.737 301.394 628.198 302.917 628.233C304.592 628.082 306.63 627.684 307.088 626.016C307.546 624.347 306.045 622.968 304.55 622.276C301.279 620.992 297.664 620.881 294.321 621.963C291.844 622.649 289.217 623.726 286.809 622.817C285.754 622.305 284.74 621.711 283.777 621.04C281.292 619.614 278.715 620.812 279.442 623.667C279.882 625.347 283.285 628.654 284.47 630.064C288.3 634.653 292.962 638.478 298.21 641.338Z" stroke="#DEECF4" stroke-miterlimit="10"/>
<path d="M181.069 597.59C182.281 594.961 185.306 593.762 188.102 592.964C197.806 590.601 207.96 590.828 217.548 593.622C227.09 596.431 236.15 600.674 244.418 606.205C245.811 607.227 247.372 607.999 249.03 608.485C249.864 608.712 250.743 608.708 251.575 608.472C252.406 608.236 253.157 607.778 253.748 607.147C254.371 606.271 254.698 605.219 254.68 604.143C254.905 597.866 249.056 593.175 243.495 590.218C228.512 582.286 211.559 578.844 194.668 580.305C192.456 580.398 190.278 580.882 188.235 581.736C184.633 583.47 181.93 587.28 177.895 587.604C177.503 587.662 177.194 588.172 177.462 588.469C177.73 588.765 178.308 588.232 178 587.989" stroke="#DEECF4" stroke-miterlimit="10"/>
<path d="M301.78 708.363C297.013 703.736 291.769 699.563 287.796 694.243C286.449 692.764 285.712 690.831 285.731 688.832C286.089 685.945 289.331 684.153 292.223 684.334C295.11 684.759 297.841 685.908 300.163 687.675L324.219 702.996C329.617 706.196 334.696 709.906 339.386 714.075C343.381 718.021 346.941 722.385 350.005 727.091C353.171 731.288 355.505 736.051 356.883 741.124C358.113 747.607 357.119 754.315 354.062 760.163C351.017 765.959 347.039 771.215 342.288 775.721C339.799 778.267 336.987 780.908 333.399 781.438C323.538 783.297 327.298 773.854 327.543 768.471C327.838 760.912 326.905 753.355 324.779 746.095C320.506 731.74 312.582 718.738 301.78 708.363Z" stroke="#DEECF4" stroke-miterlimit="10"/>
<path d="M271.268 738.539C270.211 736.476 269.489 734.259 269.128 731.97C268.975 730.821 269.194 729.653 269.752 728.637C270.311 727.621 271.18 726.811 272.232 726.324C273.141 726.123 274.082 726.115 274.995 726.3C275.907 726.485 276.771 726.859 277.53 727.398C284.085 731.232 288.347 737.855 291.874 744.491C294.849 750.103 297.551 756.14 297.577 762.493C297.604 768.845 294.299 775.626 288.354 777.866C284.063 779.493 278.236 779.17 276.199 783.266C275.716 784.218 275.537 785.285 275.035 786.224C272.402 791.048 265.692 788.005 264.045 784.118C261.924 779.196 265.756 776.852 268.254 773.168C274.926 763.392 275.702 749.363 271.268 738.539Z" stroke="#DEECF4" stroke-miterlimit="10"/>
<path d="M276.162 743.371C275.489 741.421 274.83 738.909 276.411 737.586C277.993 736.264 280.33 737.343 281.757 738.765C284.391 741.418 285.654 745.09 286.79 748.653C288.189 753.137 289.51 757.953 288.158 762.46C286.942 766.579 279.062 778.583 278.218 768.653C277.49 759.826 279.186 752.13 276.162 743.371Z" stroke="#DEECF4" stroke-miterlimit="10"/>
<path d="M312.707 273.194C289.384 282.646 277.276 310.999 282.152 335.752C287.029 360.505 305.915 380.705 328.25 392.293C346.146 401.576 366.877 406.42 381.456 420.34C391.47 429.923 397.496 442.85 405.743 454.007C421.185 474.855 444.033 488.989 469.583 493.498C495.132 498.007 521.438 492.548 543.084 478.245C552.799 471.83 561.684 463.263 565.451 452.25C573.439 428.846 556.306 404.144 557.231 379.43C557.198 378.111 557.476 376.803 558.043 375.611C559.222 373.515 561.766 372.739 563.988 371.85C574.312 367.714 581.357 358.074 586.568 348.274C595.434 331.321 600.539 312.655 601.536 293.55C602.533 274.445 599.398 255.35 592.344 237.566L592.846 240.31" stroke="#DEECF4" stroke-miterlimit="10"/>
<path d="M285.997 278.904L285.175 280.274" stroke="#DEECF4" stroke-linecap="round" stroke-linejoin="round"/>
<path d="M281.946 285.731C275.391 296.948 269.305 308.527 265.932 321.018C261.75 336.046 261.829 352.83 269.224 366.564C278.788 384.363 298.277 393.698 315.535 404.084C333.7 415.042 350.476 428.152 365.499 443.129C382.179 459.781 396.85 478.875 416.536 491.815C446.256 511.326 484.566 514.436 519.262 506.745C526.379 505.4 533.25 502.98 539.64 499.569C546.694 495.516 552.505 489.661 558.119 483.772C570.128 471.317 582.645 457.218 583.791 439.948C584.874 423.777 575.727 406.524 582.952 392.039C585.605 386.699 590.157 382.616 593.98 378.047C613.652 354.613 613.259 320.871 611.83 290.309C610.939 271.067 610.041 251.821 609.138 232.57" stroke="#DEECF4" stroke-linecap="round" stroke-linejoin="round" stroke-dasharray="2 4"/>
<path d="M263.232 445.489L264.95 457.115" stroke="#DEECF4" stroke-miterlimit="10"/>
<path d="M269.907 450.442L258.281 452.161" stroke="#DEECF4" stroke-miterlimit="10"/>
</svg>
