<svg width="1440" height="579" viewBox="0 0 1440 579" fill="none" xmlns="http://www.w3.org/2000/svg">
<path d="M-69.8915 220.326C-72.6556 229.775 -69.9913 239.273 -68.0032 248.66C-66.5639 255.45 -65.06 262.2 -63.1351 268.871C-60.0308 279.661 -54.8529 289.742 -47.8912 298.551C-35.2214 315.173 -19.3518 329.751 -0.089928 338.382C9.89125 342.891 20.3262 346.319 31.0367 348.608C41.5936 351.014 52.6028 350.542 62.9152 347.242C70.8098 345.021 78.2804 341.504 85.0213 336.833C93.7278 330.642 101.135 323.493 109.235 316.567C146.259 284.98 194.027 260.821 243.784 270.706C291.629 280.201 329.976 315.931 375.897 332.313C414.208 345.978 456.498 345.551 496.258 336.941C528.186 330.03 561.912 315.36 575.638 285.7C590.038 254.582 577.789 218.385 576.427 184.12C573.885 119.874 610.232 61.54 640.68 4.88099C667.346 -44.6378 719.383 -160.872 651.648 -198.874C641.902 -204.355 631.55 -208.049 621.298 -212.338C612.987 -216.155 604.345 -219.204 595.479 -221.448C587.376 -223.29 579.117 -224.052 570.802 -225.108C562.265 -226.405 553.602 -226.665 545.002 -225.882C535.095 -224.868 525.267 -223.193 515.583 -220.869C498.77 -216.828 485.044 -206.724 470.901 -197.067C461.19 -190.441 451.903 -183.214 443.096 -175.426C433.711 -167.076 423.739 -159.757 413.776 -152.112C397.13 -139.337 381.383 -125.282 363.768 -113.765C344.274 -100.754 324.094 -88.8005 303.316 -77.9578C295.393 -73.9018 287.47 -69.729 279.249 -66.2945C267.847 -61.54 255.578 -58.4452 243.846 -54.6511C232.114 -50.8569 220.141 -46.2476 207.996 -43.251C196 -40.387 183.739 -38.7754 171.411 -38.4421C161.992 -38.112 152.662 -37.9272 143.264 -37.235C131.645 -36.3877 119.923 -36.8839 108.352 -35.5283C97.6645 -34.264 86.7878 -35.383 76.1153 -33.2313C65.5964 -31.3571 55.2944 -28.4219 45.3672 -24.4707C25.5269 -16.1143 8.74297 -2.92635 -7.2389 11.302C-16.3648 19.1658 -24.7189 27.883 -32.1877 37.3349C-40.1023 47.6545 -45.345 59.4573 -49.8088 71.6291C-53.3508 81.2524 -57.5411 90.9107 -59.1797 101.141C-60.2911 107.902 -61.0414 114.76 -61.8552 121.542C-63.0345 131.332 -61.9272 141.295 -62.8731 151.087C-64.5197 168.071 -63.0319 185.088 -65.6698 201.946C-66.2146 205.421 -67.8844 208.056 -69.1214 211.249C-69.6938 213.281 -70.0932 215.357 -70.3153 217.456C-70.9758 220.812 -74.4246 223.945 -69.8915 220.326Z" stroke="#DEECF4" stroke-miterlimit="10"/>
<path d="M1155.99 754.934C1147.13 714.326 1153.08 667.044 1178.06 637.217C1204.77 605.298 1247.79 593.676 1287.04 579.896C1326.29 566.115 1368.16 544.466 1381.15 504.976C1392.08 471.877 1379.17 435.505 1361.13 405.684C1343.08 375.862 1319.63 349.01 1306.48 316.658C1302.49 306.851 1299.76 294.813 1306.09 286.324C1310.56 280.34 1318.28 277.94 1324.4 273.652C1341.03 261.968 1343.46 238.892 1346.47 218.809C1350.25 193.627 1357.26 169.037 1367.32 145.643C1376.11 125.204 1387.81 105.065 1406.17 92.492C1429.65 76.422 1463.48 77.741 1481.24 101.816C1488.39 111.05 1494.84 120.806 1500.53 131.001C1506.46 142.256 1511.7 154.065 1516.47 165.829C1523.55 183.288 1530.58 200.758 1537.55 218.239C1546.12 239.699 1553.35 261.63 1564.3 282.048C1575.25 302.466 1593.36 319.423 1611.26 333.926C1629.17 348.429 1649.32 360.243 1668.62 372.78C1677.26 378.368 1683.2 387.019 1691.13 393.494C1696.41 397.657 1701.29 402.301 1705.71 407.366C1714.26 417.383 1720.6 429.087 1724.33 441.717C1727.9 454.389 1728.13 467.773 1724.98 480.558C1723.28 486.73 1721.27 492.812 1718.96 498.781C1716.66 504.703 1714.77 510.535 1710.77 515.455C1699.63 528.992 1683.41 534.917 1669.8 545.273C1652.56 558.375 1634.54 570.256 1616.71 582.559C1598.63 595.041 1581.61 609.219 1569.17 627.519C1559.69 641.391 1555.99 658.747 1542.63 669.683C1534.55 676.178 1525.08 680.851 1515.82 685.455C1507.55 689.658 1498.98 693.228 1490.17 696.135C1482.08 698.754 1474.92 700.814 1466.33 700.393C1454.88 699.829 1444 695.529 1432.9 693.007C1416.57 689.101 1399.66 688.275 1383.03 690.569C1374.6 691.979 1366.3 694.153 1358.26 697.066C1355.12 698.1 1352.09 699.474 1349.25 701.165C1344.71 703.973 1339.47 706.266 1335.25 709.457C1328.45 714.527 1322.43 721.594 1316.29 727.517C1308.31 735.221 1301.69 744.209 1293.83 752.066C1290.08 755.821 1286.35 759.57 1282.8 763.531C1278.16 768.737 1274.8 774.807 1270.81 780.445C1265.95 787.214 1258.78 792.094 1253.18 798.272C1246.56 805.421 1238.92 811.542 1230.49 816.433C1225.86 819.211 1221.02 822.407 1215.35 821.796C1212.29 821.205 1209.34 820.16 1206.59 818.694C1202.65 817.036 1198.87 816.377 1194.89 815.046C1189.91 813.054 1185.48 809.917 1181.94 805.887C1178.17 801.925 1173.2 798.431 1170.48 793.626C1163.78 781.512 1158.89 768.474 1155.99 754.934Z" stroke="#DEECF4" stroke-miterlimit="10"/>
<path d="M854.698 720.939C847.9 721.919 841.008 722.063 834.175 721.368C778.394 716.128 753.482 670.349 715.005 636.737C706.163 628.853 696.48 621.966 686.131 616.199C645.433 594.014 590.613 596.786 557.734 560.626C542.063 543.423 534.886 517.032 545.102 496.133C555.318 475.233 579.706 464.863 602.69 460.049C625.674 455.235 649.961 453.549 670.425 442.023C700.851 425.005 716.591 390.116 723.895 357.452C731.722 322.387 723.448 290.802 720.942 255.761C719.022 229.009 723.592 201.147 737.933 178.487C752.274 155.826 777.257 139.075 804.09 138.545C828.687 138.059 852.07 150.615 876.681 150.59C928.488 150.559 943.254 98.0203 973.942 66.7561C992.911 47.4293 1020.99 29.2291 1046.73 21.0423C1066.42 14.6751 1089.36 14.8983 1106.49 26.4114C1117.5 33.7718 1125.26 45.0374 1131.76 56.5545C1136.32 64.6451 1140.54 73.3864 1140.48 82.679C1140.11 89.1265 1138.6 95.4581 1136.03 101.383C1129.87 117.597 1120.84 132.389 1114.76 148.557C1093.46 205.671 1132.13 270.358 1153.82 321.658C1157.14 329.528 1160.38 337.618 1160.94 346.128C1162.57 371.016 1140.32 400.424 1119.7 412.795C1090.23 430.475 1053.41 429.771 1021.87 442.36C998.791 451.569 977.145 466.038 963.562 486.843C926.712 543.381 940.625 620.594 909.055 679.963C896.752 703.167 878.376 717.491 854.698 720.939Z" stroke="#DEECF4" stroke-miterlimit="10"/>
<path d="M799.464 -274.672C803.216 -267.271 805.853 -261.218 805.736 -252.819C805.08 -213.457 790.213 -175.747 785.292 -136.733C780.844 -101.539 783.476 -63.7646 802.765 -33.9962C822.053 -4.22779 861.353 14.413 894.402 1.55185C928.553 -11.7431 943.691 -50.2975 962.496 -81.8318C980.437 -112.055 1004.38 -138.285 1032.84 -158.902C1051.56 -172.423 1072.06 -183.401 1090.12 -197.739C1124.73 -225.226 1141.04 -266.584 1132.83 -310.49C1131.41 -317.703 1129.45 -324.798 1126.96 -331.715C1123.82 -340.768 1116.85 -347.321 1110.62 -354.329C1104.4 -361.337 1099.3 -368.808 1091.54 -374.213C1084.51 -379.116 1076.37 -382.031 1068.23 -384.638C1061.75 -386.675 1054.81 -387.145 1048.17 -388.472C1039.02 -390.227 1029.65 -390.516 1020.4 -389.328C1010.86 -388.182 1001.91 -384.432 992.793 -381.543C977.367 -376.389 962.549 -369.567 948.603 -361.199C942.204 -357.775 936.04 -353.928 930.153 -349.684C923.951 -344.865 917.666 -339.825 911.44 -334.96C905.52 -330.291 899.229 -325.928 893.425 -321.141C889.226 -317.688 885.428 -313.957 880.957 -310.804C866.224 -300.452 852.895 -286.539 835.762 -280.008C831.303 -278.367 826.677 -277.222 821.967 -276.595C818.62 -276.266 815.298 -275.717 812.023 -274.95C809.723 -274.323 807.457 -273.473 805.191 -272.741C803.358 -272.109 799.843 -270.022 799.464 -274.672Z" stroke="#DEECF4" stroke-miterlimit="10"/>
<path d="M1252.31 -413.266C1242.71 -409.307 1230.21 -406.273 1222.65 -398.495C1186.79 -361.562 1181.12 -280.304 1183.49 -231.949C1184.47 -210.926 1187.59 -189.994 1185.96 -169.059C1184.33 -148.123 1177.92 -127.271 1176.38 -106.072C1174.8 -84.0114 1178.51 -61.8925 1187.19 -41.5535C1194.19 -25.2687 1204.92 -9.82602 1220.55 -1.47279C1245.79 12.0335 1276.94 4.16969 1303.42 -6.75985C1329.9 -17.6894 1356.77 -31.6567 1385.29 -29.5506C1400.7 -28.4026 1415.4 -22.5852 1430.79 -20.8127C1454.99 -17.9689 1471.77 -29.1956 1481.01 -51.0964C1485.33 -61.3606 1485.66 -71.1294 1484.84 -82.0176C1484.6 -85.1603 1484.79 -88.1707 1484.75 -91.2999C1484.76 -96.5217 1483.84 -101.704 1482.03 -106.601C1478.39 -117.939 1473.42 -128.801 1467.2 -138.956C1462.86 -145.836 1458.24 -151.791 1455.01 -159.362C1451.79 -166.933 1448.22 -173.771 1444.29 -180.939C1437.56 -193.47 1431.66 -206.428 1426.62 -219.73C1424.02 -226.472 1421.99 -233.343 1419.75 -240.204C1417.61 -245.88 1415.8 -251.677 1414.35 -257.567C1412.22 -268.519 1411.33 -279.869 1408.55 -290.611C1406.12 -299.973 1404.43 -309.34 1402.88 -318.868C1400.55 -332.51 1397.17 -345.95 1392.76 -359.068C1391.15 -364.021 1389.74 -369.112 1387.75 -373.899C1383.83 -382.595 1378.43 -390.539 1371.77 -397.368C1368.05 -401.427 1363.74 -404.911 1358.98 -407.704C1353.52 -411.215 1348.69 -415.531 1343.49 -419.337C1333.35 -426.672 1322.78 -432.621 1309.91 -432.573C1300.51 -432.541 1291.86 -430.733 1282.71 -429.093C1275.93 -427.612 1269.28 -425.591 1262.82 -423.049C1256.31 -420.594 1250.51 -416.572 1245.93 -411.338C1246.51 -411.1 1247.13 -411.223 1252.31 -413.266Z" stroke="#DEECF4" stroke-miterlimit="10"/>
<path d="M-8.3152 514.865C-6.82513 497.041 -1.07974 479.835 8.4384 464.692C33.0379 426.181 81.4639 370.285 128.517 362.09C183.088 352.609 233.542 400.584 288.865 397.747C316.839 396.304 342.407 381.964 369.7 375.659C396.994 369.354 431.452 374.642 443.507 399.921C452.439 418.663 445.556 440.929 436.899 459.811C428.242 478.694 417.573 498.072 419.279 518.763C421.793 549.572 451.056 573.651 452.139 604.534C453.006 628.872 433.027 652.153 408.828 655.013C387.394 657.541 367.119 646.017 346.523 639.68C328.056 634.16 308.614 632.696 289.528 635.389C270.443 638.083 252.165 644.869 235.946 655.284C210.322 672.03 191.283 697.141 167.692 716.875C156.895 725.78 144.669 733.866 130.874 735.301C110.337 737.423 91.3583 724.509 76.2722 710.434C31.402 668.569 -15.1354 584.777 -8.3152 514.865Z" stroke="#DEECF4" stroke-miterlimit="10"/>
<path d="M127.039 561.476L127.408 562.618C133.592 579.882 146.782 592.533 165.615 595.037C169.572 595.796 173.571 596.323 177.591 596.615C182.137 596.697 186.673 596.627 191.212 596.265C196.23 595.925 201.174 594.868 205.892 593.127C209.933 591.646 212.456 587.687 213.973 583.86C222.179 563.164 197.827 541.435 189.233 525.358C182.032 512.031 180.339 496.476 175.272 482.188C170.204 467.899 159.738 453.591 144.694 451.764C127.078 449.603 111.687 466.318 108.78 483.903C105.873 501.489 111.933 519.026 117.9 535.739L127.039 561.476Z" stroke="#DEECF4" stroke-miterlimit="10" stroke-dasharray="2 4"/>
<path d="M86.4255 464.749C86.942 464.641 87.4187 464.392 87.8037 464.031C88.9042 462.565 89.5892 460.829 89.7868 459.006C92.842 446.378 106.75 440.134 119.271 436.86C133.437 433.152 149.489 431.317 161.894 439.081C173.759 446.496 179.189 460.648 185.734 472.907C194.994 490.217 207.715 505.437 223.107 517.623C236.919 528.54 253.798 535.983 263.49 551.433C266.639 556.834 269.082 562.615 270.761 568.637C272.431 573.801 274.538 579.056 274.178 584.662C272.762 605.839 258.034 613.687 239.437 617.548C212.887 622.87 186.904 630.701 161.835 640.937C157.205 643.18 152.254 644.689 147.161 645.411C137.709 646.179 128.497 641.029 121.469 634.534C103.69 618.071 95.9941 593.555 91.1398 569.846C83.9555 534.813 81.3646 498.994 83.4324 463.292C83.6368 464.584 85.1094 465.058 86.4255 464.749Z" stroke="#DEECF4" stroke-miterlimit="10"/>
<path d="M61.681 464.06C67.6375 434.489 94.7723 409.456 125.22 408.165C149.519 407.116 172.415 419.247 192.211 433.37C212.008 447.493 230.352 464.084 252.437 474.246C272.697 483.563 295.884 487.355 313.347 501.224C320.907 507.23 327.012 514.868 331.205 523.565C335.398 532.263 337.571 541.796 337.561 551.452C337.551 561.107 335.36 570.636 331.149 579.325C326.939 588.015 320.819 595.64 313.247 601.631C293.053 617.591 265.701 619.937 241.241 627.925C214.203 636.821 190.12 652.956 171.609 674.578C167.898 678.94 164.237 683.636 159.107 686.129C148.313 691.385 135.947 679.302 128.163 673.109C117.729 664.843 110.623 654.085 105.061 642.168C97.3514 625.791 90.6959 608.938 85.1354 591.712C82.426 583.334 79.711 574.939 77.0017 566.562C74.2472 557.294 72.5392 547.747 71.9098 538.1C69.9974 517.01 60.374 497.21 60.4839 475.835C60.4966 471.88 60.8975 467.936 61.681 464.06Z" stroke="#DEECF4" stroke-miterlimit="10"/>
<path d="M313.001 424.027L315.194 423.55C333.138 419.705 350.734 414.384 367.803 407.642C372.413 405.88 377.284 404.266 382.194 404.812C387.37 405.644 392.136 408.132 395.778 411.903C400.346 415.954 403.516 421.346 404.834 427.308C405.451 430.282 405.306 433.364 404.414 436.267C403.521 439.17 401.91 441.801 399.729 443.916C394.569 448.475 387.117 448.887 380.205 449.531C358.788 451.453 319.909 472.504 304.729 447.46C300.593 440.669 300.837 430.386 307.535 426.143C309.228 425.141 311.074 424.426 313.001 424.027Z" stroke="#DEECF4" stroke-miterlimit="10"/>
<path d="M129.95 523.268L129.879 524.008C131.262 537.044 135.782 550.54 145.946 558.815C156.905 567.745 180.692 569.073 181.619 551.604C182.467 535.81 164.012 521.874 162.005 506.13C161.171 499.474 161.445 492.402 158.129 486.587C154.145 479.728 145.5 476.451 137.676 477.333C133.503 477.809 129.168 479.521 126.942 483.074C123.537 488.501 126.2 495.477 127.96 501.64C129.955 508.664 130.629 515.997 129.95 523.268Z" stroke="#DEECF4" stroke-miterlimit="10"/>
<path d="M350.775 612.154C352.477 612.916 354.338 613.259 356.2 613.154C364.921 613.244 373.171 616.861 381.197 620.26C389.222 623.66 397.727 626.923 406.407 626.23C415.088 625.538 424.013 619.664 425.258 611.035C426.277 604.11 422.355 597.56 419.06 591.39C413.022 580.063 408.664 567.919 406.12 555.339C405.654 551.587 404.48 547.957 402.661 544.643C400.559 541.443 396.592 539.253 393.009 540.47C387.235 542.473 387.384 550.612 388.655 556.583C391.154 568.269 395.897 578.976 386.593 588.717C378.037 597.595 365.304 600.452 354.045 604.869C351.619 605.828 348.726 607.617 349.257 610.161C349.351 610.584 349.535 610.98 349.797 611.324C350.059 611.668 350.393 611.951 350.775 612.154Z" stroke="#DEECF4" stroke-miterlimit="10"/>
<path d="M434.324 602.536C433.756 600.78 433.188 599.023 432.462 597.318C427.019 583.209 421.579 569.106 416.14 555.008C412.74 546.175 408.873 536.795 400.927 531.663C396.04 528.548 389.395 527.496 384.603 530.734C380.104 533.741 378.429 539.598 378.334 545.003C378.239 550.407 379.381 555.8 379.047 561.185C378.415 571.709 370.986 583.948 360.591 587.62C355.731 589.328 350.738 590.806 345.838 592.391C333.873 596.125 329.383 610.555 338.665 619.64C344.029 624.889 351.658 626.942 358.915 628.747C374.996 632.761 391.645 636.553 407.996 633.903C414.846 633.019 421.342 630.343 426.827 626.145C429.54 624.026 431.726 621.308 433.216 618.205C434.706 615.102 435.459 611.697 435.417 608.255C435.287 606.311 434.92 604.39 434.324 602.536Z" stroke="#DEECF4" stroke-miterlimit="10"/>
<path d="M220.652 56.9502C219.714 61.3781 220.02 65.9794 221.537 70.244C226.658 85.6597 237.795 92.8636 253.061 88.1788C270.551 82.8134 289.028 77.4394 307.139 82.9313C325.25 88.4232 339.419 101.281 352.13 114.553C365.773 128.784 399.81 172.543 423.458 154.128C429.66 149.309 431.532 140.4 429.704 132.708C427.876 125.015 423.007 118.539 417.629 112.828C400.641 94.7904 376.036 81.0972 367.653 56.4934C366.218 52.9471 365.838 49.0623 366.556 45.305C368.092 39.3763 373.848 35.4001 379.77 33.7954C391.983 30.4667 405.058 33.164 417.359 30.3497C437.685 25.7161 452.097 4.95336 449.795 -15.6615C448.926 -22.7388 446.296 -29.4851 442.147 -35.2839C437.997 -41.0826 432.461 -45.7488 426.043 -48.8557C414.221 -53.9671 400.864 -54.2253 388.853 -49.5743C374.904 -44.5431 363.519 -34.1844 357.196 -20.7705C352.134 -10.2677 349.177 1.22293 344.156 11.6735C337.516 25.6938 325.676 40.1927 308.413 35.8818C302.752 34.4534 297.399 31.8195 291.815 30.2692C271.988 24.8086 226.173 32.9322 220.652 56.9502Z" stroke="#DEECF4" stroke-miterlimit="10"/>
<path d="M344.99 140.646C324.137 123.373 300.923 105.641 273.857 104.733C259.303 104.241 244.564 108.755 230.325 105.697C211.174 101.609 196.566 83.0725 195.638 63.5265C194.71 43.9804 206.684 24.8595 224.035 15.5818C232.181 11.4883 240.987 8.86394 250.045 7.82943C269.777 5.19295 289.853 7.35123 308.573 14.1214C311.802 15.2887 315.439 16.5763 318.576 15.0575C322.562 13.1085 323.188 7.843 323.991 3.48969C336.523 -64.1174 463.638 -98.5917 477.194 -15.521C479.335 -2.9048 479.205 10.8527 472.511 21.767C462.879 37.4533 442.822 42.6789 424.598 45.2357C417.432 46.2339 409.406 47.5104 405.122 53.3385C401.765 57.955 401.789 64.388 403.842 69.7184C406.179 74.9429 409.493 79.6724 413.606 83.6522C424.852 95.6904 437.588 106.82 445.051 121.498C452.514 136.175 453.242 155.942 441.493 167.482C411.047 197.213 368.828 160.427 344.99 140.646Z" stroke="#DEECF4" stroke-miterlimit="10"/>
<path d="M302.813 138.301C316.673 146.653 329.978 155.894 342.645 165.966C356.874 177.272 370.829 189.83 388.277 195.071C406.744 200.525 426.695 196.77 444.979 190.74C451.337 188.684 457.775 186.156 462.603 181.529C466.803 177.191 469.858 171.877 471.492 166.064C476.283 150.954 475.498 134.626 469.278 120.046C464.446 108.824 456.564 99.1506 450.941 88.3011C448.21 83.0346 445.963 77.1071 447.002 71.2615C448.413 63.6272 454.889 58.1572 460.991 53.3903C475.77 41.8013 491.523 28.966 496.152 10.7657C500.073 -4.64486 495.128 -20.8354 489.364 -35.5389C484.314 -48.4556 478.33 -61.439 468.294 -70.9972C450.434 -88.1908 422.341 -91.0753 398.656 -83.6289C374.971 -76.1826 355.242 -60.044 337.645 -42.713C327.903 -33.0636 318.348 -22.7179 305.978 -16.8162C291.691 -10.0037 275.258 -9.82993 259.565 -8.32447C242.447 -6.66834 225.229 -3.04007 210.136 5.17791C195.042 13.3959 182.242 26.9056 177.605 43.4597C169.048 73.9883 190.323 106.781 217.207 120.203C230.939 127.033 240.796 125.358 255.035 123.857C272.172 122.137 288.513 129.656 302.813 138.301Z" stroke="#DEECF4" stroke-miterlimit="10"/>
<path d="M235.481 62.4943C235.206 64.2906 235.527 66.1276 236.394 67.7248C237.26 69.322 238.626 70.5917 240.282 71.3401C243.666 72.7449 247.452 72.8413 250.904 71.6104C254.32 70.3912 257.649 68.9388 260.866 67.2633C266.551 64.3195 272.937 62.9993 279.323 63.4477C286.402 64.2817 293.161 68.3234 300.199 67.2307C301.088 67.1433 301.934 66.8024 302.636 66.2485C303.324 65.4851 303.734 64.5117 303.799 63.4861C304.146 60.1417 303.341 56.779 301.517 53.9541C299.693 51.1292 296.96 49.0113 293.77 47.9505C285.182 45.3927 276.492 51.0938 267.605 52.0473C263.234 52.5101 258.821 51.8226 254.408 51.8531C248.115 51.9485 237.135 55.189 235.481 62.4943Z" stroke="#DEECF4" stroke-miterlimit="10"/>
<path d="M419.874 130.688C420.147 131.525 420.195 132.419 420.014 133.281C419.744 134.12 419.236 134.864 418.553 135.422C414.934 138.687 409.237 138.706 404.771 136.717C400.439 134.446 396.611 131.322 393.518 127.533C389.789 123.501 364.806 100.54 378.148 97.5836C382.435 96.6238 385.576 101.118 388.367 103.629C393.475 108.205 399.639 111.43 405.403 115.095C411.167 118.76 417.973 123.368 419.874 130.688Z" stroke="#DEECF4" stroke-miterlimit="10"/>
<path d="M404.779 18.6268C401.675 18.3639 398.704 17.2507 396.192 15.4093C393.028 12.8242 391.57 8.73662 390.28 4.86655L385.969 -7.86256C384.305 -13.0085 382.541 -18.7625 384.862 -23.6451C385.474 -25.0426 386.504 -26.2161 387.81 -27.0043C390.644 -28.6192 394.254 -27.5361 397.117 -25.9402C399.981 -24.3443 402.647 -22.2189 405.882 -21.6938C411.285 -20.8222 416.556 -24.6802 422.009 -24.0768C428.872 -23.3089 432.951 -15.9756 434.408 -9.1912C436.101 -1.37729 435.551 9.16008 428.204 14.1552C422.124 18.3912 411.863 19.5367 404.779 18.6268Z" stroke="#DEECF4" stroke-miterlimit="10"/>
<path d="M-33.2398 241.278C-27.4167 257.844 -15.2284 271.537 -1.30882 282.245C7.03929 288.682 16.1711 294.304 26.4572 296.836C36.7433 299.368 48.0396 298.606 56.9568 293.006C60.4572 290.611 63.7119 287.875 66.6734 284.839L78.9436 273.111C84.0073 268.253 89.3681 262.814 90.1773 255.898C91.0925 247.57 84.9801 239.828 77.4726 235.989C69.9652 232.151 61.5038 231.182 53.293 229.608C50.3806 229.192 47.6002 228.121 45.1605 226.477C42.7702 224.453 40.9588 221.833 39.9107 218.882C35.812 209.208 34.1444 197.932 26.6099 190.591C19.6539 183.839 9.01648 182.08 -0.553659 183.682C-10.1238 185.283 -26.9548 190.047 -31.956 199.657C-38.2913 212.221 -37.7937 228.336 -33.2398 241.278Z" stroke="#DEECF4" stroke-miterlimit="10"/>
<path d="M-48.8966 160.652C-43.5486 156.129 -36.8919 153.439 -29.9031 152.977C-22.9726 152.527 -16.0139 152.826 -9.14751 153.869C-1.58134 154.435 5.88653 155.929 13.0881 158.318C22.0009 161.702 29.6719 167.721 35.0804 175.572C39.5865 182.127 42.3785 189.74 46.914 196.266C51.5076 202.852 57.7399 208.125 64.9953 211.565C76.214 216.861 89.7432 217.723 99.1092 225.869C104.166 230.286 107.421 236.392 110.162 242.528C112.758 247.663 114.228 253.292 114.473 259.04C114.421 264.877 112.075 270.641 109.779 276.078C107.949 281.114 105.399 285.859 102.21 290.166C97.4301 295.96 90.5215 299.553 83.6124 302.544C70.2271 308.069 56.529 312.804 42.5886 316.723C41.8509 316.961 40.7698 317.098 40.5312 316.36C40.2927 315.622 41.8248 315.321 41.4797 316.053" stroke="#DEECF4" stroke-miterlimit="10"/>
<path d="M-45.5816 103.417C-39.4944 100.944 -33.1091 98.4325 -26.5527 98.9699C-21.1864 99.7124 -16.0474 101.619 -11.4957 104.557C0.16607 111.245 10.8172 119.559 20.1375 129.247C34.3356 144.055 45.5337 162.064 62.5167 173.547C68.2953 177.498 75.6934 180.518 82.0007 177.586C84.2225 176.386 86.1226 174.669 87.5404 172.579C88.9583 170.49 89.8521 168.089 90.1464 165.582C90.6801 160.553 90.2663 155.468 88.9265 150.592C85.1128 133.221 79.0366 116.232 77.5551 98.5139C76.6535 87.7476 77.7029 76.1756 84.2247 67.548C87.1725 63.6459 91.129 60.5234 93.7928 56.4027C99.6411 47.3722 98.1941 35.5794 96.5842 25.0226" stroke="#DEECF4" stroke-miterlimit="10"/>
<path d="M-32.5719 87.9767C-15.2884 88.0907 2.57622 91.7416 16.4054 102.11C27.4399 110.376 35.0972 122.236 43.916 132.828C45.995 135.666 48.6568 138.026 51.7227 139.751C53.2637 140.597 55.011 140.993 56.7661 140.896C58.5212 140.798 60.2137 140.21 61.6512 139.198C64.3271 136.974 64.9918 133.151 65.0346 129.684C65.1426 120.24 62.1018 111.077 59.0764 102.142C56.051 93.2075 52.9399 84.0675 52.8785 74.6396C52.817 65.2117 56.2981 55.2201 64.2731 49.8862" stroke="#DEECF4" stroke-miterlimit="10"/>
<path d="M117.107 217.216C115.15 214.374 113.756 211.183 113 207.816C112.649 206.121 112.714 204.366 113.19 202.702C113.665 201.038 114.537 199.514 115.73 198.261C120.576 193.629 129.773 195.912 133.854 190.596C134.702 189.072 135.682 187.625 136.782 186.273C139.548 183.788 143.896 185.233 147.244 186.77C156.295 190.74 164.883 195.691 172.855 201.534C180.859 207.422 187.039 215.449 190.685 224.693C193.043 231.264 193.472 239.312 188.971 244.648C186.959 246.827 184.587 248.644 181.959 250.019C174.279 254.543 166.377 258.679 158.282 262.41C151.529 265.525 147.104 268.818 143.631 260.959C136.438 244.895 126.401 232.097 117.107 217.216Z" stroke="#DEECF4" stroke-miterlimit="10"/>
<path d="M128.674 219.508C127.667 217.894 126.635 215.841 127.444 214.086C127.71 213.602 128.069 213.177 128.502 212.834C128.934 212.491 129.43 212.238 129.961 212.089C132.214 211.664 134.518 211.573 136.799 211.817C139.087 211.756 141.693 210.875 142.454 208.727C142.759 207.872 142.732 206.949 142.962 206.099C143.401 204.865 144.22 203.801 145.302 203.061C146.384 202.321 147.672 201.942 148.982 201.979C151.58 202.08 154.116 202.803 156.376 204.089C164.64 208.226 172.662 213.954 176.492 222.377C183.258 237.299 172.087 250.748 156.522 249.651C143.6 248.805 134.578 229.064 128.674 219.508Z" stroke="#DEECF4" stroke-miterlimit="10"/>
<path d="M612.83 -29.0445C622.451 -44.0479 628.237 -61.1871 633.975 -77.9998C638.979 -92.5192 643.892 -107.32 643.866 -122.637C643.603 -132.023 642.21 -141.343 639.72 -150.396C638.46 -156.754 636.158 -162.859 632.906 -168.465C629.21 -174.196 623.814 -178.581 618.541 -182.89C612.172 -188.008 605.482 -193.275 597.561 -195.156C591.773 -196.178 585.855 -196.231 580.05 -195.313C555.149 -192.827 530.179 -189.233 506.534 -181.063C482.89 -172.892 460.382 -160.007 444.003 -141.13C438.611 -134.885 433.739 -125.957 437.86 -118.792C440.596 -114.051 446.619 -111.925 452.058 -112.443C457.497 -112.96 462.551 -115.448 467.333 -118.12C480.093 -125.214 492.191 -133.453 505.278 -139.897C518.365 -146.341 532.737 -150.97 547.318 -150.214C561.899 -149.459 576.681 -142.503 584.327 -130.076C591.674 -118.097 591.515 -102.874 588.397 -89.1784C585.28 -75.4826 579.56 -62.5166 576.221 -48.8462C572.748 -34.5115 570.995 -11.5571 584.528 -1.38385C591.88 4.13417 595.111 -1.95445 598.72 -8.01048C603.005 -15.2746 608.248 -21.9173 612.83 -29.0445Z" stroke="#DEECF4" stroke-miterlimit="10"/>
<path d="M563.237 -98.8312C551.374 -68.1355 550.583 -34.2641 561.001 -3.0482C564.93 8.56254 571.813 20.9061 583.712 23.8672C597.085 27.186 609.988 17.1154 618.856 6.56507C652.08 -32.8721 663.3 -86.9599 661.532 -138.496" stroke="#DEECF4" stroke-miterlimit="10"/>
<path d="M1191.62 750.589C1184.89 730.578 1181.11 709.691 1180.4 688.589C1180.11 679.894 1180.43 670.692 1185.13 663.332C1189.83 655.972 1197.77 651.794 1205.47 647.946C1244.5 628.47 1284.59 611.216 1325.57 596.265C1345.61 588.949 1367.06 581.372 1380.1 564.484C1389.12 552.838 1392.91 538.109 1396.21 523.715C1407.16 475.147 1412.45 420.725 1385.83 378.644C1377.39 365.347 1366.2 353.952 1358.45 340.182C1350.7 326.412 1347.23 308.775 1355.21 295.193C1358.74 289.183 1364.18 284.533 1368.89 279.421C1376.74 270.857 1382.67 260.717 1386.29 249.678C1394.79 223.649 1389.99 194.705 1399.24 168.998C1402.81 159.045 1408.4 149.932 1415.64 142.225C1422.89 134.518 1431.64 128.381 1441.35 124.194C1451.06 120.007 1461.53 117.859 1472.11 117.884C1482.69 117.908 1493.15 120.105 1502.84 124.337" stroke="#DEECF4" stroke-linecap="round" stroke-linejoin="round" stroke-dasharray="2 4.01"/>
<path d="M1596.84 429.092C1544.25 433.973 1494.6 406.886 1448.71 380.697C1423.03 366.031 1394.87 348.132 1388.55 319.233C1387.77 315.607 1387.4 311.459 1389.27 308.195C1390.95 305.286 1394.05 303.585 1396.86 301.667C1414.22 289.827 1421.33 267.603 1423.04 246.639C1424.76 225.675 1422.34 204.44 1425.98 183.744C1427.24 176.587 1429.42 169.228 1434.57 164.091C1438.82 159.844 1444.63 157.597 1450.27 155.481L1502.97 135.646" stroke="#DEECF4" stroke-miterlimit="10"/>
<path d="M1626.81 489.976C1583.49 469.671 1538.11 454.058 1491.47 443.4C1482.59 441.382 1472.93 439.597 1464.61 443.317C1451.48 449.194 1447.55 465.597 1444.68 479.715C1434.55 529.552 1415.21 581.027 1374.03 610.855C1360.97 620.11 1346.5 627.211 1331.19 631.888C1314.68 637.093 1297.15 640.024 1282.13 648.628C1254.72 664.341 1240.02 699.397 1248.04 729.958" stroke="#DEECF4" stroke-miterlimit="10"/>
<path d="M1616.16 521.571L1542.87 489.013C1526.44 481.715 1507.49 474.4 1491.13 481.824C1474.06 489.575 1467.32 510.185 1465.36 528.958C1463.4 547.73 1464.39 567.353 1455.58 583.899C1451.88 590.288 1447.51 596.257 1442.52 601.703L1390.92 662.1" stroke="#DEECF4" stroke-miterlimit="10"/>
<path d="M1582.28 385.262C1542.8 394.791 1501.34 383.113 1463.75 367.721C1450.85 362.428 1437.71 356.414 1428.43 346.01C1419.15 335.607 1414.69 319.666 1421.31 307.396C1426.46 297.817 1437.02 292.383 1443.43 283.58C1457.05 264.818 1448.06 237.909 1455.55 215.951C1462.36 195.938 1484.29 182.271 1505.26 184.957C1508.43 185.365 1511.9 189.967 1508.77 190.709" stroke="#DEECF4" stroke-miterlimit="10"/>
<path d="M1421.49 402.845C1420.67 398.395 1420.07 393.218 1423.14 389.935C1426.67 386.214 1433.14 387.34 1437.07 390.609C1441 393.878 1443.29 398.685 1446.27 402.862C1448.34 405.765 1450.84 408.542 1451.78 411.983C1453.62 418.8 1448.74 425.598 1443.46 430.291C1422.3 449.084 1424.6 419.766 1421.49 402.845Z" stroke="#DEECF4" stroke-miterlimit="10"/>
<path d="M1286.3 199.508C1281.52 209.26 1275.33 219.566 1265.17 223.141C1256.23 226.306 1246.2 223.455 1237.93 218.857C1229.65 214.259 1222.43 207.902 1214.16 203.263C1202.81 196.903 1189.82 193.967 1177.97 188.759C1166.12 183.551 1154.38 175.221 1150.36 162.769C1142.46 138.339 1167.31 115.615 1170.68 90.2349C1173.07 72.1779 1164.39 54.7689 1160.14 37.0552C1158.12 28.6488 1157.49 18.6495 1163.56 12.4931C1169.12 6.81641 1178.47 6.74258 1185.92 9.6464C1193.38 12.5502 1199.41 17.9338 1205.99 22.3825C1222.32 33.2989 1241.75 38.6526 1261.37 37.6475C1279.37 36.6939 1297.84 30.4501 1314.97 36.0849C1332.81 41.9539 1344.96 61.5946 1342.28 80.1743C1339.13 101.972 1319.35 111.958 1311.27 129.993C1301.15 152.259 1297.24 177.056 1286.3 199.508Z" stroke="#DEECF4" stroke-linecap="round" stroke-linejoin="round" stroke-dasharray="2 3.99"/>
<path d="M1264.77 199.992C1257.47 204.602 1247.83 203.413 1239.93 199.974C1232.03 196.535 1225.15 191.173 1217.44 187.227C1206.9 181.885 1194.96 179.461 1185.02 173.073C1175.08 166.685 1167.38 154.101 1172 143.238C1174.95 136.289 1181.97 132.079 1186.69 126.225C1198.24 111.899 1194.32 90.6625 1187 73.7444C1184.18 67.2455 1180.84 60.6834 1180.75 53.5727C1180.66 46.462 1184.84 38.6715 1191.84 37.5318C1196.92 36.7018 1201.81 39.4483 1206.38 41.7717C1224.18 50.8437 1244.12 54.8797 1264.05 53.4439C1276.69 52.5181 1289.91 49.4086 1301.75 53.706C1320.03 60.2501 1328.44 85.5254 1317.72 101.716C1309.45 114.209 1293.2 119.989 1285.86 133.069C1275.97 150.702 1283.21 188.325 1264.77 199.992Z" stroke="#DEECF4" stroke-miterlimit="10"/>
<path d="M1193.5 150.29C1192.46 138.985 1202.14 129.627 1205.45 118.724C1209.16 106.195 1204.29 92.8302 1199.8 80.5082C1198.31 76.4495 1196.89 71.8661 1198.72 67.9773C1200.54 64.0885 1205.84 61.9294 1210.44 62.245C1215.05 62.5607 1219.28 64.7993 1223.51 66.6702C1235.55 72.0493 1248.79 75.5303 1261.89 74.1066C1271.76 73.0277 1283.41 69.7639 1290.38 76.8429C1296.2 82.8375 1294.69 93.1036 1289.93 99.9958C1285.18 106.888 1277.96 111.627 1272.22 117.752C1263.6 127.006 1258.38 138.906 1257.39 151.511C1256.56 161.246 1262.01 173.822 1251.84 179.44C1235.82 188.227 1195.12 167.963 1193.5 150.29Z" stroke="#DEECF4" stroke-miterlimit="10"/>
<path d="M1225.33 132.526C1226.54 128.643 1228.16 124.782 1228.15 120.731C1228.14 116.679 1226.31 112.402 1224.88 108.384C1223.44 104.367 1222.34 99.8741 1223.77 95.8417C1225.2 91.8092 1230.1 88.7709 1233.9 90.743C1235.65 91.6518 1236.86 93.4139 1238.65 94.2881C1244.16 96.9876 1250.79 89.8379 1256.44 92.4161C1257.78 93.1156 1258.89 94.1928 1259.63 95.5152C1263.91 102.745 1259.68 112.047 1254.33 118.572C1248.97 125.097 1242.16 131.159 1240.79 139.477C1237.67 158.625 1220.59 147.836 1225.33 132.526Z" stroke="#DEECF4" stroke-miterlimit="10"/>
<path d="M939.162 747.264C936.47 726.581 950.093 707.819 957.436 688.295C969.66 655.727 964.487 618.677 976.292 585.954C978.495 579.809 981.757 573.4 987.741 570.786C997.27 566.598 1007.79 574.176 1014.38 582.25C1020.97 590.324 1027.31 600.088 1037.5 602.223C1050.38 604.906 1065.63 594.291 1075.91 602.508C1078.95 605.246 1081.09 608.848 1082.02 612.831C1088.08 633.707 1077.83 655.412 1069.27 675.37C1060.71 695.327 1053.79 719.484 1065.42 737.859" stroke="#DEECF4" stroke-miterlimit="10"/>
<path d="M955.518 751.17C957.512 735.14 964.965 720.392 970.64 705.307C980.502 679.293 985.47 651.68 985.292 623.861C985.344 618.024 984.99 611.95 986.518 606.237C988.046 600.524 991.779 595.03 997.342 593.036C1005.32 590.224 1013.79 595.303 1020.33 600.656C1026.87 606.009 1033.79 612.288 1042.28 612.201C1046.25 612.16 1050.16 610.701 1054.08 611.256C1061.69 612.345 1066.31 620.88 1066.08 628.56C1065.85 636.24 1062.22 643.388 1059.21 650.435C1050.94 669.977 1047.39 691.19 1048.83 712.359C1049.03 715.127 1046.77 719.252 1044.83 717.261" stroke="#DEECF4" stroke-miterlimit="10"/>
<path d="M557.943 672.07C571.475 684.998 582.703 700.34 597.172 712.209C600.076 714.587 603.33 716.911 607.057 717.218C619.184 718.244 622.6 700.552 632.206 693.003C640.325 686.497 652.513 688.491 661.543 693.739C670.573 698.986 677.471 706.998 685.969 712.999C695.749 719.936 707.218 724.108 719.169 725.076C727.412 725.728 737.577 723.449 739.983 715.532C741.794 709.553 738.148 703.38 734.352 698.419C715.91 674.36 690.562 656.506 661.698 647.245C645.719 642.169 628.876 639.818 613.413 633.334C600.892 628.091 589.62 620.29 577.901 613.507C566.182 606.724 553.369 600.877 539.815 600.119C526.262 599.361 511.68 604.601 504.339 616.035C495.814 629.326 500.461 645.496 514.241 650.313C531.162 656.325 543.503 658.252 557.943 672.07Z" stroke="#DEECF4" stroke-miterlimit="10"/>
<path d="M558.44 616.018C546.503 611.381 532.226 609.344 521.486 616.329C519.546 617.497 517.906 619.103 516.699 621.02C514.101 625.585 515.641 631.605 519.061 635.582C522.481 639.559 527.381 641.873 532.237 643.872C544.951 649.112 558.697 653.105 568.853 662.372C581.191 673.65 587.198 691.864 602.21 699.231C603.116 699.784 604.124 700.151 605.175 700.307C606.225 700.464 607.296 700.409 608.325 700.144C610.573 699.417 611.796 697.081 613 694.985C616.402 689.562 621.265 685.21 627.031 682.429C632.796 679.648 639.23 678.552 645.591 679.265C653.556 680.259 660.813 684.042 668.221 687.272C675.629 690.503 683.673 693.061 691.563 691.363C692.405 691.269 693.193 690.898 693.802 690.309C694.155 689.839 694.39 689.29 694.488 688.71C696.388 680.549 691.678 671.984 685.04 666.876C678.402 661.767 670.093 659.41 662.011 657.154L599.661 639.702C591.405 637.386 587.399 632.978 580.752 628.144C573.859 623.173 566.361 619.098 558.44 616.018Z" stroke="#DEECF4" stroke-miterlimit="10"/>
<path d="M461.621 614.718C459.768 619.605 458.817 626.082 463.009 629.207C465.334 630.938 468.457 630.937 471.307 631.471C474.55 632.09 477.609 633.445 480.248 635.429C482.887 637.414 485.037 639.976 486.533 642.92C487.313 644.491 488.603 646.499 490.254 645.907C491.905 645.315 491.56 642.807 490.881 641.126C487.608 633.105 484.912 624.529 485.713 615.909C486.514 607.288 491.496 598.519 499.659 595.626C504.468 593.878 509.729 594.31 514.814 594.198C520.02 594.128 525.206 593.549 530.299 592.469C532.656 591.959 535.237 591.182 536.452 589.121C537.667 587.059 537.108 584.369 536.364 582.068C531.587 567.172 522.033 554.266 509.181 545.347C506.742 543.326 503.674 542.219 500.506 542.216C496.749 542.597 493.784 545.845 492.38 549.364C491.243 552.988 490.453 556.713 490.022 560.487C489.589 564.298 487.827 567.835 485.046 570.476C481.448 573.386 476.415 573.423 471.806 573.808C467.197 574.193 461.978 575.57 459.927 579.725C458.351 582.951 459.227 586.8 460.387 590.208C463.642 599.612 465.328 604.945 461.621 614.718Z" stroke="#DEECF4" stroke-miterlimit="10"/>
<path d="M467.474 612.36C469.104 608.883 471.447 605.449 471.288 601.6C471.162 598.751 469.65 596.174 468.67 593.504C467.69 590.833 467.217 587.572 468.977 585.334C470.039 584.15 471.421 583.299 472.957 582.883C478.717 581.02 485.921 580.98 489.223 575.954C492.004 571.776 490.852 565.514 494.438 562.085C495.719 561.052 497.253 560.382 498.881 560.142C500.509 559.902 502.172 560.101 503.696 560.72C506.718 562.009 509.478 563.838 511.844 566.117C515.603 569.343 519.495 572.741 521.299 577.357C521.844 578.507 522.043 579.79 521.873 581.051C521.255 584.18 517.49 585.495 514.396 586.127C505.963 587.884 497.2 589.282 489.846 593.775C482.491 598.268 476.851 606.921 478.772 615.321C480.227 621.621 481.922 628.542 473.484 625.606C466.903 623.311 464.129 619.533 467.474 612.36Z" stroke="#DEECF4" stroke-miterlimit="10"/>
<path d="M441.836 496.433C440.961 484.494 444.7 472.674 452.283 463.411C456.224 458.8 461.231 455.086 464.98 450.362C470.069 443.925 472.78 435.928 472.655 427.723C472.556 419.859 469.834 412.281 468.49 404.529C467.52 398.943 467.265 393.256 467.731 387.605C467.698 386.38 467.91 385.161 468.353 384.018C468.796 382.876 469.462 381.833 470.313 380.951C471.221 380.327 472.276 379.952 473.373 379.863C474.471 379.773 475.573 379.972 476.569 380.44C478.572 381.407 480.312 382.84 481.645 384.619C487.375 391.418 490.591 399.923 494.53 407.903C498.469 415.883 503.569 423.856 511.571 427.844C516.895 430.507 523.082 431.222 528.144 434.338C533.88 437.857 537.635 444.849 536.309 451.427C534.897 458.519 528.537 463.388 525.036 469.72C519.387 480.025 522.064 492.622 521.941 504.36C521.899 507.827 521.468 511.594 519.058 514.1C516.324 516.925 511.786 517.228 507.96 516.196C504.247 514.858 500.605 513.329 497.05 511.615C493.356 510.21 489.036 509.57 485.569 511.448C483.214 512.988 481.267 515.076 479.893 517.532L473.888 526.497C470.735 531.203 467.179 534.486 461.187 532.933C457.616 532.188 454.424 530.203 452.177 527.33C446.099 518.107 442.535 507.456 441.836 496.433Z" stroke="#DEECF4" stroke-miterlimit="10"/>
<path d="M448.574 496.873C447.858 487.521 449.762 477.089 457.024 471.171C460.423 468.364 464.675 466.756 468.392 464.332C473.866 460.622 477.635 454.941 481.286 449.434C482.578 447.721 483.543 445.784 484.133 443.721C484.473 441.744 484.475 439.722 484.14 437.744L481.318 415.221C481.206 414.802 481.188 414.364 481.264 413.936C481.341 413.509 481.51 413.104 481.761 412.75C482.85 411.68 484.626 412.852 485.608 414.028C492.139 421.926 496.021 432.369 504.652 437.881C509.783 441.149 516.8 442.993 518.767 448.836C519.983 452.594 518.528 456.673 516.583 460.077C514.638 463.48 512.023 466.615 510.857 470.387C509.24 475.643 510.508 481.305 511.534 486.697C512.56 492.088 513.108 498.041 510.287 502.756C509.697 503.913 508.708 504.819 507.503 505.305C505.986 505.591 504.418 505.32 503.085 504.542C499.668 502.806 496.145 501.289 492.537 499.999C488.878 498.71 484.871 498.824 481.291 500.318C472.098 504.766 473.157 522.795 463.257 524.639C452.13 526.705 449.096 503.824 448.574 496.873Z" stroke="#DEECF4" stroke-linecap="round" stroke-linejoin="round" stroke-dasharray="1.97 3.95"/>
<path d="M456.127 507.389C456.198 507.965 456.383 508.521 456.672 509.024C456.962 509.527 457.349 509.966 457.811 510.317C459.559 511.284 461.554 509.533 462.718 507.915C467.478 501.216 470.677 493.294 476.647 487.638C478.311 485.788 480.609 484.629 483.086 484.392C485.555 484.35 487.731 485.8 489.934 486.911C492.136 488.023 494.885 488.783 496.969 487.488C499.792 485.721 499.496 481.626 499.479 478.276C499.481 473.922 500.536 469.633 502.557 465.776C503.648 464.066 504.512 462.222 505.128 460.289C505.403 458.614 505.309 456.899 504.854 455.264C504.399 453.629 503.593 452.112 502.493 450.82C500.744 448.534 497.943 446.472 495.203 447.358C494.256 447.717 493.406 448.294 492.721 449.041C492.037 449.788 491.536 450.685 491.26 451.659C490.571 453.55 490.366 455.615 489.788 457.548C487.759 464.529 481.301 469.217 474.925 472.714C469.287 475.799 459.75 478.941 455.71 484.264C451.126 490.247 454.422 500.918 456.127 507.389Z" stroke="#DEECF4" stroke-miterlimit="10"/>
<path d="M281.215 379.191C262.739 377.969 244.862 372.421 227.196 366.863L191.618 355.651L156.379 344.466C154.019 343.799 151.753 342.837 149.633 341.604C141.397 336.352 140.827 323.791 145.863 315.43C150.9 307.069 159.824 301.972 168.446 297.379C176.734 293.011 185.067 288.784 194.223 287.103C200.312 286.096 206.492 285.756 212.655 286.089C227.338 286.501 242.249 288.158 255.882 293.779C262.744 296.642 269.148 300.488 275.88 303.666C289.953 310.289 305.256 313.818 319.804 319.511C331.676 324.188 343.767 331.161 348.899 342.83C350.625 346.482 351.217 350.568 350.597 354.56C348.336 366.466 333.194 367.755 324.09 372.057C310.637 378.04 295.881 380.495 281.215 379.191Z" stroke="#DEECF4" stroke-miterlimit="10"/>
<path d="M160.329 330.947C161.894 334.527 164.751 337.386 168.331 338.952C172.238 340.657 176.64 340.649 180.889 340.711C197.147 341.254 213.225 344.307 228.551 349.76C237.052 352.831 245.296 356.547 254.009 358.832C268.975 362.76 284.665 362.206 300.128 361.668C306.253 361.472 312.641 361.19 317.998 358.197C323.354 355.204 327.179 348.554 324.948 342.854C323.099 338.098 317.85 335.605 312.899 334.393C305.019 332.46 296.787 332.562 288.841 330.728C281.619 328.722 274.624 325.971 267.97 322.52C244.404 311.498 218.794 301.893 192.948 304.995C187.388 305.377 182.028 307.224 177.413 310.349C172.712 313.809 169.94 318.915 164.417 320.973C159.784 322.782 158.088 325.755 160.329 330.947Z" stroke="#DEECF4" stroke-miterlimit="10"/>
<path d="M179.563 327.132C180.409 329.749 183.41 330.99 186.133 331.313C190.734 331.862 195.372 330.847 199.988 330.363C210.863 329.244 221.836 331.146 231.7 335.86C236.489 338.191 240.929 341.062 245.659 343.451C257.099 349.187 269.895 351.672 282.65 350.636C284.849 350.601 286.999 349.986 288.883 348.853C289.803 348.258 290.49 347.364 290.828 346.322C291.166 345.28 291.134 344.153 290.738 343.131C290.049 342.022 289.036 341.151 287.836 340.636C277.581 335.32 265.165 336.522 254.042 333.62C248.339 331.877 242.729 329.845 237.232 327.533C226.394 323.702 215.099 321.308 203.638 320.414C198.698 319.955 176.005 315.712 179.563 327.132Z" stroke="#DEECF4" stroke-miterlimit="10"/>
<path d="M216.627 434.96C221.1 438.053 225.945 440.56 230.566 443.45C234.72 446.361 239.11 448.919 243.69 451.098C245.991 452.175 248.486 452.776 251.025 452.865C253.564 452.953 256.095 452.529 258.466 451.616C258.889 451.473 259.256 451.198 259.512 450.831C259.75 450.297 259.776 449.692 259.585 449.139C258.596 444.538 256.995 440.091 254.824 435.915C253.664 433.71 252.302 431.357 252.675 428.85C253.19 425.464 256.751 423.458 259.891 422.249C263.03 421.039 266.713 419.771 268.247 416.714C268.855 415.296 269.035 413.731 268.765 412.212C268.494 410.693 267.785 409.287 266.724 408.166C264.543 405.961 261.683 404.555 258.605 404.176C251.843 403.065 245.036 405.111 238.24 405.99C226.077 407.47 213.742 405.534 202.617 400.4C199.978 399.197 197.273 396.89 195.059 399.643C193.743 401.272 193.635 405.497 193.967 407.485C194.726 411.992 198.842 416.559 201.489 420.126C205.666 425.886 210.784 430.9 216.627 434.96Z" stroke="#DEECF4" stroke-miterlimit="10"/>
<path d="M235.521 436.998C236.818 435.007 235.802 432.406 234.764 430.278C233.727 428.15 232.699 425.572 233.931 423.563C235.052 422.186 236.651 421.282 238.408 421.029C240.304 420.532 242.571 419.683 242.775 417.677C242.98 415.671 240.989 414.374 239.138 413.867C235.131 413.021 230.954 413.59 227.32 415.478C224.606 416.743 221.794 418.487 218.852 417.906C217.54 417.52 216.26 417.032 215.024 416.447C211.894 415.287 209.162 417.159 210.547 420.301C211.377 422.147 215.925 425.293 217.559 426.685C222.844 431.222 228.939 434.721 235.521 436.998Z" stroke="#DEECF4" stroke-miterlimit="10"/>
<path d="M92.4624 409.272C93.3496 406.017 96.5953 404.055 99.6555 402.6C110.353 398.015 122.068 396.321 133.626 397.686C145.135 399.077 156.365 402.209 166.933 406.974C168.731 407.88 170.674 408.467 172.673 408.707C173.675 408.807 174.685 408.632 175.595 408.201C176.505 407.77 177.281 407.099 177.838 406.26C178.386 405.133 178.559 403.861 178.331 402.628C177.381 395.37 169.755 391.104 162.794 388.777C144.045 382.545 123.897 381.854 104.765 386.786C102.24 387.318 99.8299 388.295 97.6466 389.67C93.8399 392.356 91.4668 397.255 86.8917 398.405C86.4526 398.547 86.1958 399.193 86.561 399.482C86.9261 399.772 87.4872 399.047 87.0864 398.827" stroke="#DEECF4" stroke-miterlimit="10"/>
<path d="M282.065 438.746C283.002 446.203 286.994 452.788 291.859 458.412C300.042 467.833 310.658 474.822 322.546 478.616C328.401 480.467 334.509 481.537 340.299 483.603C346.089 485.669 351.716 488.912 355.09 494.068C356.691 496.942 358.134 499.901 359.412 502.933C361.273 506.868 364.168 510.223 367.79 512.639C369.6 513.833 371.651 514.614 373.797 514.926C375.943 515.238 378.132 515.073 380.207 514.443C387.373 512.126 390.716 503.809 391.531 496.309C392.345 488.809 391.586 481.004 394.317 473.971C399.091 461.679 413.229 455.245 418.963 443.341C420.709 439.363 421.62 435.069 421.64 430.725C421.66 426.38 420.788 422.078 419.078 418.084C415.561 410.094 410.138 403.088 403.284 397.681C400.615 395.323 397.595 393.394 394.334 391.962C388.285 389.514 381.411 389.914 375.041 391.334C364.18 393.74 354.046 398.997 343.539 402.86C329.324 408.097 314.075 412.292 299.418 416.101C294.047 417.489 290.299 417.537 286.519 422.465C283.012 427.125 281.419 432.95 282.065 438.746Z" stroke="#DEECF4" stroke-miterlimit="10"/>
<path d="M358.978 483.653C362.421 487.642 364.654 492.507 367.704 496.778C369.964 499.927 373.45 503.029 377.211 502.181C377.876 502.057 378.489 501.737 378.971 501.263C379.293 500.828 379.525 500.335 379.655 499.81C379.785 499.285 379.81 498.74 379.728 498.205C379.429 492.482 375.998 487.151 375.898 481.383C375.851 477.518 377.309 473.748 377.571 469.88C377.833 466.013 376.345 461.469 372.655 460.257C368.965 459.045 365.075 461.835 362.503 464.859C359.931 467.883 357.745 471.501 354.067 472.845C351.05 473.956 347.6 473.307 344.624 474.541C342.913 475.249 342.558 477.149 344.155 478.01C344.864 478.402 347.838 477.401 348.789 477.52C352.826 478.237 356.455 480.422 358.978 483.653Z" stroke="#DEECF4" stroke-miterlimit="10"/>
<path d="M312.2 439.728C313.099 441.829 314.659 443.579 316.644 444.712C324.336 449.48 334.348 447.387 342.789 444.152C351.23 440.918 359.739 436.576 368.763 437.305C373.231 437.683 377.559 439.31 382.048 439.332C386.537 439.355 391.583 437.025 392.51 432.632C393.339 428.775 390.641 424.991 387.434 422.633C384.832 420.738 381.855 419.42 378.704 418.767C375.552 418.113 372.297 418.14 369.156 418.844C361.329 420.677 355.147 426.518 348.039 430.272C344.351 432.22 340.397 433.617 336.304 434.416C332.189 435.16 328.004 435.44 323.827 435.25C319.584 435.206 309.195 431.756 312.2 439.728Z" stroke="#DEECF4" stroke-miterlimit="10"/>
<path d="M335.498 511.229C334.677 509.854 334.092 508.352 333.769 506.783C333.605 505.986 333.66 505.159 333.926 504.389C334.193 503.62 334.663 502.937 335.285 502.413C336.198 501.89 337.261 501.691 338.301 501.848C339.341 502.004 340.297 502.507 341.016 503.276C342.415 504.839 343.513 506.648 344.254 508.611C346.381 513.037 349.229 517.079 352.681 520.571C354.758 522.674 357.344 524.67 360.293 524.55C362.418 524.464 364.635 523.282 366.559 524.192C367.256 524.632 367.847 525.222 368.287 525.918C368.727 526.615 369.006 527.401 369.103 528.219C370.377 533.957 368.893 539.927 366.749 545.413C364.604 550.898 361.732 556.056 360.036 561.668C359.297 564.744 358.379 567.775 357.287 570.744C355.684 574.425 349.645 581.189 345.904 575.919C343.264 572.194 347.195 568.634 347.812 564.962C349.706 553.543 347.013 540.776 343.468 529.933C341.307 523.499 338.642 517.245 335.498 511.229Z" stroke="#DEECF4" stroke-miterlimit="10"/>
<path d="M363.327 543.532C363.897 541.866 364.125 540.104 363.998 538.348C364.016 537.433 363.847 536.524 363.503 535.676C363.325 535.257 363.043 534.889 362.684 534.608C362.325 534.328 361.901 534.142 361.451 534.07C360.209 533.948 359.125 534.977 357.887 535.048C357.258 535.027 356.644 534.846 356.104 534.521C355.565 534.197 355.117 533.74 354.804 533.193C354.158 532.089 353.451 531.023 352.685 529.999C352.514 529.778 352.279 529.617 352.012 529.537C351.447 529.41 350.923 529.889 350.678 530.453C349.412 532.958 350.512 535.939 351.551 538.552C352.482 540.847 353.104 543.255 353.402 545.713C353.561 547.466 352.719 550.26 354.671 551.259C357.559 552.75 362.519 545.772 363.327 543.532Z" stroke="#DEECF4" stroke-miterlimit="10"/>
<path d="M252.53 513.345C246.16 508.945 239.329 505.16 233.738 499.809C231.906 498.37 230.686 496.29 230.323 493.988C230.178 490.601 233.559 487.917 236.919 487.568C240.318 487.5 243.679 488.296 246.687 489.879L277.287 502.856C284.107 505.495 290.659 508.781 296.854 512.669C302.205 516.436 307.137 520.766 311.565 525.584C316.012 529.799 319.612 534.824 322.173 540.39C324.835 547.604 324.984 555.505 322.596 562.815C320.212 570.063 316.653 576.871 312.06 582.964C309.689 586.37 306.966 589.947 302.944 591.248C291.968 595.282 294.471 583.706 293.716 577.47C292.6 568.725 290.072 560.22 286.231 552.285C278.555 536.608 266.943 523.191 252.53 513.345Z" stroke="#DEECF4" stroke-miterlimit="10"/>
<path d="M257.709 508.664C255.382 507.166 252.583 504.812 253.681 502.206C254.923 499.03 259.687 500.264 262.572 502.047C277.909 511.646 292.245 522.757 305.367 535.213C309.766 539.397 314.184 544.002 316.27 549.612C318.681 556.108 317.149 566.788 309.014 568.566C300.299 570.472 298.539 557.772 295.794 552.044C287.342 534.349 274.161 519.336 257.709 508.664Z" stroke="#DEECF4" stroke-miterlimit="10"/>
<path d="M223.277 553.904C221.666 551.737 220.408 549.328 219.553 546.767C219.156 545.475 219.182 544.091 219.629 542.815C220.075 541.54 220.917 540.441 222.033 539.679C223.039 539.273 224.119 539.082 225.204 539.119C226.288 539.156 227.353 539.42 228.33 539.893C236.602 543.038 242.776 549.829 248.107 556.777C252.608 562.654 256.875 569.073 258.129 576.369C259.383 583.666 256.891 592.096 250.489 595.815C245.871 598.511 239.11 599.262 237.558 604.362C237.186 605.549 237.186 606.81 236.79 607.986C234.693 614.038 226.395 611.833 223.752 607.682C220.367 602.433 224.321 599.001 226.482 594.287C232.268 581.765 230.458 565.491 223.277 553.904Z" stroke="#DEECF4" stroke-miterlimit="10"/>
<path d="M229.832 558.516C228.684 556.404 227.442 553.644 229.005 551.819C230.568 549.994 233.462 550.785 235.376 552.144C238.914 554.686 241.074 558.663 243.064 562.54C245.536 567.424 247.982 572.706 247.297 578.146C246.692 583.114 239.947 598.429 237.064 587.178C234.527 577.173 234.995 568.001 229.832 558.516Z" stroke="#DEECF4" stroke-miterlimit="10"/>
<path d="M181.293 11.0719C156.305 26.4279 147.849 61.3471 158.221 88.8583C168.592 116.369 194.189 135.95 222.092 144.968C244.449 152.19 269.209 153.767 288.646 166.958C302.002 176.044 311.417 189.741 323.044 200.977C344.808 221.966 373.79 233.81 404.025 234.073C434.259 234.335 463.443 222.995 485.567 202.388C495.498 193.143 504.06 181.586 506.269 168.203C510.943 139.764 486.494 114.672 482.798 86.0882C482.506 84.5784 482.574 83.0212 482.996 81.5426C483.948 78.9068 486.722 77.5249 489.105 76.0752C500.174 69.333 506.415 56.897 510.518 44.6286C517.443 23.4363 519.716 0.999766 517.183 -21.1509C514.649 -43.3016 507.369 -64.6454 495.838 -83.7268L496.943 -80.6698" stroke="#DEECF4" stroke-miterlimit="10"/>
<path d="M151.692 22.7791L151.011 24.5125" stroke="#DEECF4" stroke-linecap="round" stroke-linejoin="round"/>
<path d="M148.351 31.4056C142.977 45.5597 138.212 60.0404 136.741 75.0468C134.827 93.1255 138.151 112.401 149.294 126.762C163.715 145.378 187.913 152.355 209.749 160.968C232.737 170.065 254.543 181.902 274.695 196.224C297.073 212.151 317.612 231.271 342.73 242.354C380.646 259.056 425.278 255.253 463.675 239.731C471.596 236.814 479.028 232.71 485.715 227.56C493.043 221.543 498.594 213.694 503.912 205.844C515.316 189.216 526.988 170.601 524.979 150.531C523.11 131.736 509.274 113.668 514.789 95.6269C516.81 88.9787 521.255 83.4089 524.771 77.4221C542.868 46.6987 535.918 7.99299 528.391 -26.8594C523.661 -48.8037 518.923 -70.7519 514.177 -92.704" stroke="#DEECF4" stroke-linecap="round" stroke-linejoin="round" stroke-dasharray="2 4"/>
<path d="M475.354 310.276C488.006 307.406 500.497 302.3 510.038 293.472C519.58 284.643 525.82 271.664 524.435 258.746C523.918 253.908 522.136 248.877 518.204 246.017C513.42 242.501 506.602 243.134 501.301 245.819C496 248.503 491.833 252.896 487.437 256.937C471.72 271.565 451.715 282.652 430.254 283.597C419.614 284.051 408.693 282.073 398.508 285.134C390.958 287.401 385.969 294.35 392.581 300.398C397.855 305.25 411.236 307.693 418.085 309.436C436.841 314.232 456.465 314.52 475.354 310.276Z" stroke="#DEECF4" stroke-miterlimit="10"/>
<path d="M468.658 302.528C479.989 301.501 490.808 297.33 499.896 290.485C504.964 286.538 509.626 280.2 507.445 274.173C505.736 269.43 500.166 266.963 495.142 267.327C490.119 267.69 485.543 270.276 481.321 273.058C473.458 278.259 465.966 284.426 456.957 287.164C450.987 288.979 444.78 289.163 438.642 290.1C434.597 290.787 427.578 294.279 433.24 298.288C437.184 301.067 445.172 301.471 449.842 302.114C456.074 303.007 462.392 303.146 468.658 302.528Z" stroke="#DEECF4" stroke-miterlimit="10"/>
<path d="M515.879 366.66C513.58 368.92 511.957 371.776 511.194 374.907C509.491 381.635 510.153 388.744 513.069 395.042C515.986 401.34 520.978 406.444 527.211 409.497C539.501 415.106 556.692 413.136 563.64 424.721C567.274 430.801 566.651 439.073 571.449 444.311C574.993 448.19 580.616 449.32 585.861 449.583C602.73 450.394 619.423 444.122 633.35 434.458C647.277 424.794 658.518 411.924 668.691 398.449C675.355 389.601 681.667 380.323 685.461 369.92C689.71 358.225 690.606 345.578 690.711 333.127C690.933 306.458 687.699 279.782 688.988 253.175C690.277 226.568 696.583 199.096 713.457 178.448C721.62 168.475 731.972 160.413 739.769 150.151C755.157 129.887 758.332 99.2754 742.575 79.4038C732.884 67.1343 717.359 60.2821 701.761 59.0799C686.162 57.8777 670.529 61.847 656.217 68.2216C635.001 77.6631 615.628 93.1627 606.017 114.313C596.406 135.463 597.397 160.363 597.863 183.938C598.556 219.767 597.192 255.607 593.778 291.28C592.594 303.458 591.129 315.843 586.056 326.971C579.952 340.371 569.125 350.081 556.073 356.455C551.042 359.156 545.669 361.167 540.101 362.435C532.003 363.909 522.658 360.568 515.879 366.66Z" stroke="#DEECF4" stroke-miterlimit="10"/>
<path d="M547.437 395.255C554.788 396.272 563.038 396.165 568.432 401.269C574.996 407.468 574.191 418.535 580.03 425.434C583.152 428.793 587.247 431.091 591.74 432.007C606.499 435.653 622.485 429.417 633.964 419.322C645.443 409.227 653.258 395.719 660.483 382.247C668.283 367.735 675.751 352.555 677.474 336.167C678.114 328.207 677.994 320.203 677.116 312.266C675.089 287.701 671.89 263.051 673.015 238.398C674.141 213.745 679.929 188.632 694.224 168.528C703.045 156.091 715 145.668 721.132 131.754C727.263 117.84 724.826 98.0063 710.829 91.9792C705.689 89.7616 699.921 89.8033 694.334 89.8641C681.491 89.9825 668.484 90.1344 656.056 93.397C643.628 96.6596 631.642 103.388 624.634 114.171C619.36 122.278 617.305 132.061 615.306 141.476C609.658 168.523 603.978 195.89 604.589 223.512C604.824 233.776 605.923 244.013 606.14 254.283C606.875 288.17 598.964 329.392 580.183 358.242C573.293 368.851 564.312 372.453 552.192 374.627C546.065 375.716 533.036 374.362 531.116 381.443C528.992 389.812 541.63 394.456 547.437 395.255Z" stroke="#DEECF4" stroke-miterlimit="10"/>
<path d="M639.513 137.683C640.2 133.782 641.511 130.017 643.395 126.533C646.212 122.205 650.061 118.647 654.597 116.179C660.442 112.659 667.447 110.083 674.027 111.835C681.889 113.948 687.17 121.999 687.984 130.097C688.799 138.194 685.907 146.288 681.938 153.392C677.969 160.495 673.077 167.083 669.282 174.246C664.011 184.041 660.885 194.829 656.218 204.933C653.14 211.554 648.906 218.317 642.203 221.105C635.5 223.894 625.89 220.212 625.23 213.014C625.195 209.988 625.916 207.001 627.328 204.324C631.8 193.857 636.232 185.187 636.456 173.882C636.652 161.829 636.197 149.444 639.513 137.683Z" stroke="#DEECF4" stroke-miterlimit="10"/>
<path d="M581.976 375.781C579.966 379.283 579.352 383.924 581.622 387.284C586.985 387.489 593.288 388.206 595.856 392.904C598.124 397.04 596.324 402.453 598.119 406.742C600.668 412.765 609.344 413.917 614.995 410.635C620.646 407.352 623.859 401.153 626.586 395.246C642.444 360.395 650.934 322.646 651.525 284.361C651.606 279.155 651.308 273.373 647.658 269.645C642.331 264.21 632.479 266.562 627.576 272.396C614.884 287.558 620.108 313.611 614.448 331.679C608.583 350.318 591.079 359.839 581.976 375.781Z" stroke="#DEECF4" stroke-miterlimit="10"/>
<path d="M600.156 378.729C600.353 379.305 600.689 379.823 601.134 380.237C601.58 380.651 602.121 380.949 602.709 381.104C603.568 381.1 604.424 381.018 605.268 380.859C606.097 380.9 606.899 381.164 607.591 381.624C608.282 382.083 608.837 382.72 609.197 383.468C609.862 385.008 610.231 386.659 610.285 388.335C610.286 389.413 610.625 390.464 611.257 391.338C611.84 391.88 612.592 392.203 613.386 392.254C614.18 392.305 614.967 392.079 615.615 391.616C616.893 390.66 617.892 389.379 618.508 387.906C622.994 379.161 625.235 369.474 627.434 359.897L631.4 342.648C631.484 342.43 631.517 342.197 631.499 341.964C631.481 341.732 631.412 341.507 631.295 341.304C630.978 340.922 630.382 340.94 629.885 341.023C624.231 342.076 620.413 347.307 617.66 352.349C614.496 358.164 612.56 362.495 606.374 364.903C600.814 367.148 597.412 372.943 600.156 378.729Z" stroke="#DEECF4" stroke-miterlimit="10"/>
<path d="M641.299 208.051C640.525 208.244 639.707 208.125 639.019 207.721C638.639 207.336 638.365 206.86 638.224 206.338C638.082 205.816 638.078 205.267 638.211 204.743C639.013 198.043 644.011 192.682 646.844 186.625C650.49 179.005 650.86 170.31 651.717 161.924C652.575 153.537 654.201 144.708 659.6 138.306C661.026 136.72 663.071 135.244 664.943 136.113C666.011 136.758 666.78 137.8 667.083 139.01C668.604 144.115 668.51 149.566 666.814 154.617C665.111 159.656 663.017 164.556 660.554 169.271C657.122 176.709 654.159 184.354 651.68 192.161C649.513 198.837 649.945 206.652 641.299 208.051Z" stroke="#DEECF4" stroke-miterlimit="10"/>
<path d="M774.377 -187.581C758.891 -166.781 752.151 -140.352 752.134 -114.428C752.118 -88.5043 758.491 -62.9203 767.168 -38.489C771.108 -27.386 775.66 -16.2483 783.22 -7.20849C799.663 12.4416 826.891 18.6515 852.251 22.3229C866.785 24.432 881.679 26.0949 896.098 23.3522C929.972 16.937 954.778 -12.0567 972.491 -41.6276C990.204 -71.1986 1004.36 -103.907 1029.8 -127.151C1056.05 -151.158 1091.81 -162.606 1118.08 -186.525C1156.76 -221.734 1168.64 -279.429 1160.01 -331.016" stroke="#DEECF4" stroke-miterlimit="10"/>
<path d="M676.18 31.8706C667.534 33.9879 656.293 36.3622 651.463 28.8646C647.973 23.533 650.544 16.0666 655.079 11.6125C659.614 7.15838 665.724 4.69726 671.165 1.3662C679.961 -4.04891 687.092 -11.7859 691.773 -20.993C702.302 -41.6447 701.029 -69.6346 719.628 -83.4484C722.684 -85.6976 727.025 -87.3924 730.152 -85.222C734.01 -82.5898 732.795 -76.6291 731.423 -72.0532C725.478 -52.884 725.034 -30.6826 736.332 -14.1024C748.287 3.48773 771.338 12.0184 780.682 31.1321C784.843 39.6803 786.56 55.906 774.115 56.5358C766.809 56.8614 750.979 41.7467 743.601 38.4875C722.461 28.9497 698.772 26.6247 676.18 31.8706Z" stroke="#DEECF4" stroke-miterlimit="10"/>
<path d="M1049.74 -104.866C1068.67 -116.324 1093.23 -119.572 1107.38 -136.583C1115.03 -145.79 1120.8 -159.509 1132.69 -160.29C1134.12 -160.438 1135.56 -160.266 1136.91 -159.786C1138.26 -159.307 1139.48 -158.531 1140.5 -157.517C1141.87 -155.734 1142.74 -153.619 1143.02 -151.388C1145.44 -139.482 1144.77 -127.142 1146.5 -115.09C1149.11 -96.9237 1157.1 -79.7194 1157.83 -61.3134C1158.57 -42.9074 1148.15 -21.7878 1129.89 -19.9551C1122.37 -19.1935 1115.04 -21.8453 1107.7 -23.4872C1086.01 -28.3281 1064.15 -23.9943 1045.06 -13.2028C1031.76 -5.68094 1020.54 1.48013 1010.41 -14.5875C991.858 -44.0692 1025.17 -89.9967 1049.74 -104.866Z" stroke="#DEECF4" stroke-miterlimit="10"/>
<path d="M703.393 -9.05692C699.625 -4.75354 692.765 -2.7486 691.478 2.80872C691.282 4.01091 691.376 5.24237 691.752 6.40094C692.128 7.55951 692.774 8.61179 693.638 9.47047C694.502 10.3292 695.558 10.9695 696.719 11.3384C697.88 11.7072 699.112 11.794 700.313 11.5914C704.999 10.4251 707.722 4.92736 712.464 3.99503C718.85 2.7447 724.594 10.4899 730.89 8.90018C731.953 8.67407 732.901 8.07867 733.567 7.21966C734.891 5.31687 734.045 2.69998 733.054 0.595479C730.146 -5.72399 726.592 -11.7261 722.45 -17.3153C721.369 -18.9569 719.988 -20.3795 718.378 -21.508C715.395 -23.356 708.272 -23.9043 706.131 -20.748C704.226 -17.9398 706.595 -12.6532 703.393 -9.05692Z" stroke="#DEECF4" stroke-miterlimit="10"/>
<path d="M794.077 70.4499C790.442 72.6617 787.278 75.5682 784.768 79.0032C782.257 82.4383 780.448 86.3347 779.444 90.4694C778.524 93.6217 778.627 96.9842 779.737 100.075C782.414 106.193 790.376 108.138 796.948 106.983C803.52 105.827 809.515 102.472 816.025 101.065C836.413 96.6832 855.943 111.901 876.766 113.063C884.666 113.494 892.543 111.882 899.638 108.382C902.03 107.362 904.105 105.72 905.647 103.626C907.328 100.967 907.405 97.664 907.812 94.5447C908.531 89.1607 910.32 83.975 913.074 79.2929C915.828 74.6108 919.491 70.527 923.847 67.2819C930.034 62.7201 937.373 60.0364 944.176 56.4782C950.979 52.9201 957.619 48.0762 960.653 41.0226C963.688 33.9691 961.719 24.3432 954.809 20.9714C949.903 18.5808 944.037 19.8183 938.878 21.6225C920.966 27.8422 905.71 39.8763 888.587 47.9944C871.463 56.1124 850.07 59.8492 834.245 49.4277C828.199 45.4274 809.447 24.1572 801.834 34.6897C798.105 39.7756 804.009 48.0125 805.22 52.8976C807.729 62.8145 801.618 65.9352 794.077 70.4499Z" stroke="#DEECF4" stroke-miterlimit="10"/>
<path d="M805.133 95.1592C818.986 93.7248 831.416 81.7704 845.007 84.8051C850.006 85.924 854.304 88.9571 858.766 91.3554C867.283 95.7981 878.609 97.5866 885.898 91.2717C891.323 86.5687 892.882 78.673 897.809 73.4519C900.823 70.7353 904.112 68.3391 907.621 66.3015C910.952 64.0023 914.16 61.0247 915.158 57.0935C916.157 53.1622 913.965 48.245 909.955 47.602C905.944 46.9589 902.573 50.5712 899.727 53.5286C893.526 59.8663 885.902 64.6337 877.489 67.4354C869.077 70.2371 860.117 70.9922 851.354 69.6381C841.871 68.0879 831.849 64.0928 823.046 67.9483C817.661 70.3109 814.238 75.0844 809.735 78.6165C805.701 81.8609 801.888 81.4064 797.73 83.4881C788.372 88.2026 796.784 95.9191 805.133 95.1592Z" stroke="#DEECF4" stroke-miterlimit="10"/>
<path d="M1261.52 307.336C1256.11 289.431 1251.7 270.974 1242.39 254.739C1233.09 238.503 1217.81 224.45 1199.27 222.007C1189.13 220.632 1177.11 223.974 1172.52 233.22C1169.01 240.351 1170.73 248.872 1172.53 256.634C1176.99 275.716 1181.44 294.801 1185.88 313.89C1188.78 326.32 1191.69 338.92 1191.17 351.659C1189.86 384.132 1165.32 412.749 1135.24 425.035C1123.75 429.742 1111.04 432.669 1101.89 441.04C1098.04 444.566 1095.01 448.901 1093.04 453.735C1091.06 458.569 1090.17 463.781 1090.45 468.996C1090.72 474.212 1092.15 479.302 1094.63 483.9C1097.1 488.499 1100.57 492.492 1104.77 495.593C1116.28 504.073 1132.17 504.775 1145.81 500.479C1159.46 496.182 1171.24 487.503 1182.19 478.296C1190.89 470.96 1199.35 463.162 1209.23 457.483C1219.12 451.804 1230.83 448.424 1241.98 450.772C1257.06 453.948 1267.99 466.649 1281.11 474.746C1291.1 480.924 1302.49 484.479 1314.23 485.083C1322.27 485.488 1331 484.201 1336.8 478.637C1344.96 470.8 1341.17 460.907 1335.46 453.384C1327.31 442.675 1319.73 431.487 1312.59 420.04C1298.53 397.471 1286.4 373.754 1276.34 349.142C1270.75 335.467 1265.81 321.532 1261.52 307.336Z" stroke="#DEECF4" stroke-miterlimit="10"/>
<path d="M1221.12 250.678C1215.22 244.011 1206.55 237.559 1198.14 240.472C1195.89 241.373 1193.88 242.773 1192.24 244.568C1190.61 246.362 1189.41 248.504 1188.73 250.831C1187.4 255.493 1187.13 260.392 1187.94 265.172C1190.22 282.903 1199.34 299.371 1200.23 317.223C1200.46 321.901 1200.17 326.808 1202.23 331.012C1204.28 335.215 1209.88 338.237 1213.72 335.557C1218.84 332.118 1216.5 323.02 1221.38 319.287C1230.24 312.542 1236.19 328.292 1243.9 326.458C1252.36 324.439 1249.11 309.507 1247.95 304.079C1243.74 284.271 1234.5 265.881 1221.12 250.678Z" stroke="#DEECF4" stroke-miterlimit="10"/>
<path d="M1200.8 266.928C1200.33 264.311 1200.45 261.622 1201.15 259.056C1201.53 257.785 1202.29 256.658 1203.33 255.823C1204.36 254.987 1205.62 254.48 1206.95 254.368C1210.36 254.37 1212.72 257.759 1214.1 260.9C1216.38 266.081 1217.78 271.738 1221.27 276.177C1223.58 279.099 1226.66 281.304 1229.02 284.168C1231.96 287.755 1233.67 292.196 1233.89 296.832C1234.01 299.296 1233.22 302.325 1230.82 302.887C1226.86 303.82 1224.83 297.066 1220.78 296.843C1214.26 296.352 1216.46 305.998 1212.28 307.35C1208.1 308.702 1205.99 301.625 1205.52 298.422C1204.85 294.622 1205.72 290.596 1205.09 286.708C1203.9 280.031 1201.64 273.701 1200.8 266.928Z" stroke="#DEECF4" stroke-miterlimit="10"/>
<path d="M1219.96 349.488C1223.94 347.196 1227.7 344.556 1231.22 341.598C1231.8 341.013 1232.51 340.582 1233.3 340.345C1234.09 340.107 1234.92 340.07 1235.72 340.237C1237 340.757 1237.6 342.192 1238.37 343.261C1241.35 347.555 1247.42 348.094 1252.07 350.471C1259.86 354.411 1263.41 363.351 1266.94 371.327C1277.25 394.687 1292.48 415.447 1306.1 437.039C1307.88 439.442 1309.06 442.228 1309.57 445.172C1309.78 446.646 1309.49 448.149 1308.76 449.442C1308.02 450.735 1306.87 451.744 1305.49 452.31C1302.99 453.023 1300.43 451.716 1298.15 450.475C1281.74 441.718 1263.68 435.45 1245.11 435.558C1205.83 435.807 1172.49 463.662 1134.73 474.496C1131.97 475.554 1128.96 475.773 1126.07 475.125C1124.49 474.503 1123.08 473.513 1121.95 472.235C1120.83 470.958 1120.03 469.431 1119.62 467.782C1116.41 457.065 1125.18 446.584 1134.32 440.099C1155.89 424.993 1184.06 418.444 1200.38 397.763C1202.69 395.054 1204.41 391.887 1205.42 388.468C1206.56 383.949 1205.74 379.19 1204.83 374.634C1204.15 370.857 1203.45 367.086 1202.78 363.327C1200.25 348.956 1211.46 353.691 1219.96 349.488Z" stroke="#DEECF4" stroke-miterlimit="10"/>
<path d="M1256.38 373.754C1253.44 369.116 1248.74 364.1 1243.47 365.553C1240.3 366.441 1237.89 369.549 1234.59 369.665C1231.29 369.781 1229 367.128 1226.66 365.012C1224.33 362.895 1220.76 361.1 1218.24 362.945C1215.71 364.791 1216.21 368.683 1217.18 371.669C1219.68 380.727 1222.19 389.79 1224.71 398.857C1225.14 401.14 1226.14 403.278 1227.61 405.076C1231.36 408.91 1237.69 407.25 1242.99 407.864C1251.34 408.867 1257.43 415.862 1263.78 421.354C1268.32 425.241 1276.77 432.672 1282.98 433.148C1293.27 434.069 1283.91 424.021 1280.97 419.366C1271.76 404.707 1265.65 388.372 1256.38 373.754Z" stroke="#DEECF4" stroke-miterlimit="10"/>
<path d="M1140.02 449.933C1137.92 451.835 1135.83 454.198 1135.91 457.082C1135.99 461.537 1141.3 464.048 1145.75 463.93C1152.73 463.73 1159.06 459.8 1164.24 455.136C1169.43 450.471 1173.82 444.977 1179.23 440.589C1185.53 435.437 1193.01 431.914 1201 430.329C1204.64 429.597 1208.41 429.252 1211.36 426.978C1219.79 420.37 1209.64 416.631 1203.31 418.156C1196.19 419.855 1189.19 424.952 1182.35 427.862C1167.68 433.965 1152.05 439.096 1140.02 449.933Z" stroke="#DEECF4" stroke-miterlimit="10"/>
<path d="M1036.85 554.011C1043.69 558.285 1051.74 560.187 1059.76 559.424C1066.93 558.717 1073.68 555.912 1080.65 554.182C1087.62 552.453 1095.42 551.851 1101.68 555.316C1109.38 559.559 1112.88 568.533 1116.17 576.683C1119.47 584.832 1123.98 593.558 1132.25 596.411C1139.03 598.643 1146.55 596.113 1152.37 592.021C1158.18 587.929 1162.81 582.319 1167.93 577.462C1182.93 563.377 1202.64 555.334 1222.51 549.938C1242.37 544.541 1262.81 541.502 1282.56 535.696C1287.58 534.229 1292.96 532.333 1295.74 527.863C1300 521.153 1296.28 512.171 1291.53 505.947C1275.92 485.172 1246.42 473.974 1222.53 484.203C1214.53 487.605 1207.58 493.035 1200.33 497.844C1185.08 507.923 1168.23 515.34 1150.5 519.778C1139.44 522.54 1127.73 524.098 1116.71 521.162C1100.54 516.867 1088.42 503.694 1077.79 490.798C1075.56 487.743 1072.82 485.091 1069.7 482.956C1068.12 481.924 1066.29 481.325 1064.4 481.218C1062.51 481.111 1060.62 481.499 1058.93 482.345C1055.53 484.358 1054.12 488.577 1051.22 491.26C1046.75 495.423 1039.74 495.167 1033.93 493.323C1028.11 491.479 1022.62 488.365 1016.7 487.39C1010.78 486.414 1003.51 488.591 1001.3 494.309C1000.13 497.346 999.003 507.411 999.694 510.447C1000.71 514.851 1008.46 520.455 1011.63 524.61C1019.4 534.784 1025.62 546.953 1036.85 554.011Z" stroke="#DEECF4" stroke-miterlimit="10"/>
<path d="M1030.13 536.824C1034.29 542.133 1039 547.534 1045.39 549.657C1059.39 554.365 1073.68 541.926 1088.44 542.507C1093.7 542.747 1099.03 544.552 1104.14 543.057C1105.78 542.657 1107.23 541.672 1108.21 540.285C1108.9 539.077 1109.19 537.678 1109.03 536.294C1108.59 530.616 1103.92 526.482 1099.65 522.877C1089.2 514.164 1078.75 505.456 1068.31 496.754C1067.67 496.169 1066.96 495.669 1066.2 495.265C1064.85 494.815 1063.4 494.756 1062.03 495.095C1060.65 495.434 1059.4 496.157 1058.41 497.179C1056.31 499.064 1054.84 501.555 1052.91 503.615C1050.73 505.89 1048.03 507.588 1045.03 508.556C1042.04 509.525 1038.85 509.734 1035.75 509.165C1032.1 508.122 1028.51 506.873 1025 505.426C999.274 497.332 1025.48 530.84 1030.13 536.824Z" stroke="#DEECF4" stroke-miterlimit="10"/>
<path d="M1050.4 533.819C1058.84 532.797 1066.98 526.379 1075.07 529.06C1078.4 530.176 1081.78 532.711 1085.02 531.409C1085.4 531.268 1085.72 531.022 1085.96 530.699C1086.21 530.204 1086.29 529.64 1086.18 529.096C1085.9 526.756 1085.09 524.511 1083.81 522.532C1082.54 520.552 1080.83 518.889 1078.81 517.67C1076.79 516.452 1074.53 515.709 1072.18 515.499C1069.83 515.288 1067.47 515.616 1065.27 516.457C1063.23 517.233 1061.39 518.431 1059.33 519.153C1052.79 521.424 1034.91 513.471 1030.87 519.435C1025.33 527.745 1045.01 534.494 1050.4 533.819Z" stroke="#DEECF4" stroke-miterlimit="10"/>
<path d="M1130.24 578.42C1133.88 581.955 1140.37 583.117 1143.93 579.483C1147.18 576.161 1146.59 570.861 1147.42 566.286C1148.19 562.683 1149.97 559.377 1152.57 556.763C1155.16 554.148 1158.46 552.337 1162.05 551.544C1165.22 550.889 1168.62 551.031 1171.52 549.627C1173.28 548.765 1174.72 547.385 1175.67 545.674C1176.61 543.962 1177.01 542.002 1176.8 540.058C1176.6 538.115 1175.8 536.281 1174.52 534.805C1173.24 533.329 1171.53 532.282 1169.64 531.806C1160.87 529.579 1153.1 539.929 1144.08 539.159C1141.12 538.894 1138.38 537.415 1135.43 536.951C1111.44 533.07 1121.26 569.724 1130.24 578.42Z" stroke="#DEECF4" stroke-miterlimit="10"/>
<path d="M1248.5 494.506C1261.45 495.053 1275.87 499.894 1281.01 511.772C1284.11 518.956 1281.87 529.111 1274.44 531.572C1269.54 533.157 1264.32 531.102 1259.35 529.72C1245.69 525.971 1231.1 527.637 1218.64 534.37C1214.65 536.552 1210.89 539.262 1206.58 540.694C1199.34 543.134 1185.81 540.117 1186.5 530.001C1186.93 523.555 1195.33 521.324 1200.11 518.945C1209.01 514.378 1212.94 506.55 1220.82 501.034C1228.69 495.519 1239.07 494.141 1248.5 494.506Z" stroke="#DEECF4" stroke-miterlimit="10"/>
<path d="M1135.28 573.976C1136.13 573.721 1136.87 573.208 1137.41 572.508C1137.95 571.808 1138.26 570.957 1138.29 570.074C1138.32 568.311 1138.18 566.549 1137.88 564.811C1137.68 561.491 1138.55 558.193 1140.37 555.409C1142.19 552.624 1144.86 550.503 1147.98 549.363C1150.32 548.607 1153.48 547.585 1153.2 545.096C1153.03 544.342 1152.59 543.677 1151.96 543.223C1151.34 542.768 1150.57 542.556 1149.8 542.625C1145.15 542.811 1131.13 550.893 1128.86 555.49C1126.88 559.348 1129.18 575.094 1135.28 573.976Z" stroke="#DEECF4" stroke-miterlimit="10"/>
<path d="M1204.39 526.116C1203.95 526.831 1203.77 527.671 1203.88 528.5C1203.99 529.329 1204.37 530.098 1204.97 530.68C1212.96 529.415 1219.17 523.102 1226.77 520.118C1237.11 516.077 1248.65 518.65 1259.64 520.12C1263.33 520.615 1268.23 520.215 1269.19 516.645C1269.86 514.159 1267.99 511.638 1265.81 510.287C1262.36 508.45 1258.47 507.568 1254.57 507.735C1244.1 507.439 1233.68 509.227 1223.91 512.994C1218.11 515.294 1207.35 520.714 1204.39 526.116Z" stroke="#DEECF4" stroke-miterlimit="10"/>
<path d="M1034.6 479.933C1036.11 480.684 1037.85 480.817 1039.45 480.303C1040.43 479.733 1041.24 478.93 1041.82 477.966C1044.98 473.511 1048.82 468.485 1054.21 468.294C1059.6 468.103 1063.88 472.636 1069.05 473.99C1070.43 474.341 1072.29 474.223 1072.72 472.803C1072.85 472.282 1072.83 471.738 1072.68 471.226C1071.63 465.747 1070.57 460.268 1069.5 454.795C1069.39 453.749 1068.99 452.755 1068.34 451.93C1067.66 451.309 1066.81 450.909 1065.89 450.781C1055.89 448.835 1046.91 457.598 1036.78 458.646C1033.78 458.79 1030.77 458.765 1027.77 458.571C1021.74 458.581 1009.72 459.501 1013.91 467.495C1017.08 473.378 1028.78 477.937 1034.6 479.933Z" stroke="#DEECF4" stroke-miterlimit="10"/>
<path d="M978.333 525.677C980.15 526.257 982.07 526.45 983.966 526.242C986.764 525.473 987.956 522.022 987.672 519.223C987.388 516.425 986.023 513.645 985.617 510.77C984.405 502.102 991.673 493.505 989.139 485.129C988.991 484.479 988.599 483.912 988.044 483.543C987.561 483.345 987.031 483.288 986.516 483.377C982.901 483.654 979.059 484.314 976.537 487.012C974.014 489.71 973.708 493.98 973.977 497.753C974.247 501.527 974.889 505.432 973.736 509.005C972.583 512.579 969.587 515.372 967.051 518.326C964.514 521.281 962.432 524.98 963.198 528.729C964.536 535.145 972.848 524.793 978.333 525.677Z" stroke="#DEECF4" stroke-miterlimit="10"/>
<path d="M1218.83 -321.657C1200.64 -307.606 1196.75 -281.536 1199.22 -258.725C1201.69 -235.913 1209.04 -213.403 1207.71 -190.468C1206.9 -176.179 1202.74 -162.341 1199.72 -148.365C1196.55 -133.772 1194.61 -118.939 1193.92 -104.023C1193.04 -85.2698 1194.27 -65.8787 1202.28 -48.896C1210.29 -31.9133 1226.24 -17.7489 1244.96 -16.1393C1256.09 -15.1989 1267.1 -18.6435 1277.62 -22.396C1307.68 -33.1066 1337.42 -46.7973 1369.26 -48.9285C1385.92 -50.0459 1402.57 -47.906 1419.29 -49.3556C1436.01 -50.8051 1453.27 -56.4644 1463.42 -69.7353" stroke="#DEECF4" stroke-miterlimit="10"/>
<path d="M1366.91 42.5457C1365.31 43.1581 1363.6 43.4348 1361.88 43.3586C1357.85 42.8963 1355.28 39.0324 1351.96 36.6735C1348.64 34.3146 1344.13 33.2117 1340.16 31.5651C1336.2 29.9184 1332.21 26.999 1331.48 22.7312C1330.51 16.6457 1336.67 11.8209 1342.48 9.76574C1348.3 7.71058 1355.01 6.52743 1358.81 1.69304C1361.88 -2.23129 1362.39 -7.84807 1365.93 -11.3596C1369.96 -15.3396 1376.63 -15.1865 1381.87 -13.0206C1387.11 -10.8546 1391.54 -7.10819 1396.33 -4.27493C1407.72 2.18986 1421.34 3.15841 1433.79 7.02925C1439.6 8.87346 1451.26 14.6869 1447.69 22.9207C1444.58 30.1369 1434.79 26.5117 1428.88 26.307C1406.21 25.4733 1388.1 35.8883 1366.91 42.5457Z" stroke="#DEECF4" stroke-miterlimit="10"/>
<path d="M820.356 681.935C806.922 672.37 796.485 659.294 784.851 647.614C739.916 602.549 677.928 579.257 616.788 561.588C605.83 558.419 594.592 555.283 585.146 548.871C575.701 542.458 568.159 532.035 568.384 520.613C568.782 499.591 592.75 487.979 613.167 483.025C636.356 477.466 660.128 473.949 682.518 465.738C704.908 457.527 726.366 443.797 737.757 422.809C744.789 409.942 747.578 395.111 748.036 380.452C749.087 346.628 738.193 313.601 735.547 279.867C732.902 246.132 741.302 207.681 769.868 189.712C807.145 166.289 857.969 188.652 899.254 173.36C920.034 165.631 936.071 149.232 951.344 133.234L1004.98 77.536C1016.19 65.8975 1027.81 53.9533 1042.65 47.5427C1057.49 41.132 1076.51 41.5769 1087.99 52.9576C1098.02 62.9068 1099.98 78.6853 1097.35 92.613C1094.71 106.541 1088.17 119.248 1083.28 132.508C1071.5 164.612 1069.33 199.453 1077.02 232.773C1085.66 269.848 1106.04 302.93 1119.47 338.588C1122.1 345.593 1124.51 353.023 1123.51 360.445C1122.38 366.785 1119.62 372.723 1115.51 377.681C1075.72 429.814 985.446 414.563 942.958 464.523C919.773 491.751 917.821 530.406 912.373 565.75C907.219 599.093 898.05 631.691 885.065 662.831C880.102 674.719 874.961 690.077 861.287 693.685C847.613 697.292 830.953 689.508 820.356 681.935Z" stroke="#DEECF4" stroke-miterlimit="10" stroke-dasharray="2 4"/>
<path d="M1039.19 396.89C1064.19 391.715 1091.43 377.803 1096.22 352.722C1098.78 339.325 1094.21 325.689 1089.69 312.794L1071.51 260.591C1066.43 246.092 1061.01 231.007 1050.15 220.221C1039.29 209.435 1021.22 204.084 1008.26 212.333C994.847 220.84 992.295 239.281 993.367 255.133C994.439 270.985 997.551 287.749 990.791 302.119C978.985 327.277 942.433 333.51 932.005 359.212C929.539 365.85 928.524 372.939 929.029 380.002C929.928 400.779 944.729 427.77 968.785 417.933C978.898 413.809 985.932 407.305 997.182 404.482C1010.96 401.074 1025.34 399.761 1039.19 396.89Z" stroke="#DEECF4" stroke-miterlimit="10"/>
<path d="M774.763 343.601C767.273 319.658 757.768 295.728 757.742 270.632C757.716 245.537 770.049 218.346 793.65 209.86C809.081 204.307 826.219 207.631 841.938 212.325C851.561 215.207 861.348 218.774 868.658 225.663C875.969 232.553 880.266 243.56 876.598 252.913C870.28 269.371 846.805 269.785 833.167 281.005C822.758 289.551 818.982 303.847 818.307 317.297C817.632 330.746 819.518 344.317 817.77 357.628C816.022 370.939 809.448 384.802 797.22 390.425C767.773 403.809 779.167 357.696 774.763 343.601Z" stroke="#DEECF4" stroke-miterlimit="10"/>
<path d="M620.87 515.784C617.695 517.063 614.422 518.82 612.848 521.87C610.186 527.077 613.672 533.418 618.027 537.345C631.056 549.078 650.255 549.717 667.093 554.631C687.738 560.642 705.567 573.539 722.953 586.21C752.194 607.522 781.493 628.893 808.45 653.038C814.924 658.84 821.448 664.917 829.498 668.212C837.547 671.506 847.635 671.386 854.068 665.542C859.723 660.415 861.309 652.24 862.293 644.666C865.589 618.865 865.637 592.679 868.962 566.849C872.288 541.019 879.351 514.989 894.936 494.138C899.361 488.264 904.489 482.765 907.538 476.056C912.124 465.94 911.452 454.207 909.104 443.346C906.549 431.426 901.978 419.693 893.976 410.486C885.974 401.278 874.216 394.915 862.042 395.302C845.757 395.816 831.394 407.852 815.096 407.846C802.487 407.85 789.669 400.549 777.822 404.885C768.434 408.251 762.795 417.99 760.193 427.639C757.591 437.288 757.202 447.424 754.146 456.929C747.548 477.318 729.132 492.179 709.094 499.804C680.767 510.594 648.522 504.707 620.87 515.784Z" stroke="#DEECF4" stroke-miterlimit="10"/>
<path d="M876.258 361.818C854.357 348.085 848.935 314.045 865.487 294.201C873.872 284.136 886.273 278.089 895.104 268.385C901.062 261.672 905.165 253.519 907.006 244.734C908.846 235.949 908.362 226.835 905.599 218.295C903.034 210.724 898.721 202.245 902.705 195.311C904.798 191.704 908.595 189.526 912.376 187.663C929.367 178.831 946.901 169.882 959.481 155.454C968.145 145.532 973.997 133.513 981.553 122.747C991.795 108.163 1005.03 95.9883 1018.15 83.9467C1026.46 76.31 1036.62 68.1178 1047.69 70.2777C1058.45 72.388 1064.95 83.5724 1067.48 94.2191C1069.95 105.078 1069.81 116.365 1067.08 127.159C1064.35 137.954 1059.11 147.951 1051.78 156.334C1029 181.878 988.996 189.19 971.274 218.434C957.191 241.652 961.499 272.19 949.129 296.386C942.599 309.129 931.915 319.161 923.04 330.412C914.774 340.845 909.925 352.424 903.453 363.907C899.396 371.038 902.423 372 894.608 371.889C890.464 371.793 880.078 364.211 876.258 361.818Z" stroke="#DEECF4" stroke-miterlimit="10"/>
<path d="M809.342 638.762C800.008 632.333 792.308 623.882 784.29 615.824C747.241 578.866 702.602 550.401 653.463 532.403C650.496 531.326 646.834 528.94 647.957 525.997C648.416 525.015 649.17 524.201 650.115 523.669C657.855 518.508 667.828 518.814 677.117 518.623C686.32 518.441 695.497 517.587 704.576 516.067C712.088 514.944 719.457 513.01 726.553 510.298C734.168 506.989 741.491 503.044 748.443 498.504C757.782 492.768 767.747 486.209 771.232 475.75C773.392 469.232 772.517 462.026 773.442 455.17C774.368 448.314 778.083 440.846 784.856 439.412C787.326 439.013 789.853 439.127 792.278 439.747C799.42 441.317 806.195 444.209 813.453 445.237C822.927 446.577 832.513 444.544 842.07 443.743C851.627 442.941 861.986 443.839 869.386 449.924C872.111 452.185 874.283 455.038 875.738 458.266C877.192 461.494 877.889 465.012 877.776 468.551C877.447 476.592 872.934 483.871 867.661 489.941C862.388 496.012 856.171 501.262 851.344 507.693C836.964 526.874 836.927 553.095 839.084 576.861C840.688 594.656 843.187 612.821 840.371 630.629C839.46 636.51 838.04 645.137 831.23 646.874C824.42 648.611 814.779 642.494 809.342 638.762Z" stroke="#DEECF4" stroke-linecap="round" stroke-linejoin="round" stroke-dasharray="1.99 3.98"/>
<path d="M845.379 415.823C852.976 412.202 861.418 408.909 869.59 410.903C875.746 412.675 881.059 416.604 884.557 421.971C887.988 427.319 890.709 433.091 892.651 439.141C893.497 441.758 894.463 444.744 893.145 447.148C891.454 450.256 886.904 450.583 883.76 448.962C880.617 447.34 878.407 444.407 875.978 441.875C870.051 435.781 862.243 431.861 853.814 430.749C848.934 430.116 826.567 434.497 824.208 430.624C819.997 423.721 842.173 417.248 845.379 415.823Z" stroke="#DEECF4" stroke-miterlimit="10"/>
<path d="M740.617 524.994C752.661 521.565 764.892 517.571 774.727 509.831C779.393 505.923 783.721 501.629 787.667 496.994C790.987 493.5 793.99 489.717 796.641 485.691C799.527 480.878 801.807 475.271 806.745 472.724C810.996 470.573 816.003 471.359 820.748 472.172C825.929 473.077 831.517 474.218 835.031 478.126C839.707 483.345 838.862 491.592 835.939 497.969C833.016 504.347 828.337 509.856 825.792 516.383C824.008 521.681 822.939 527.194 822.615 532.775C821.057 547.751 819.544 562.868 820.197 577.847C820.651 582.368 820.522 586.928 819.813 591.415C819.43 593.656 818.521 595.775 817.161 597.597C815.801 599.419 814.029 600.894 811.99 601.899C807.567 603.698 802.391 602.21 798.482 599.42C794.791 596.39 791.522 592.88 788.763 588.983C775.837 572.96 759.503 560.017 740.95 551.096C733.899 547.711 726.336 544.9 718.547 545.11C714.36 545.242 710.02 546.219 706.051 544.864C703.183 543.852 699.718 540.219 700.962 536.926C702.206 533.634 708.064 533.213 711.176 532.517C721.046 530.282 730.86 527.775 740.617 524.994Z" stroke="#DEECF4" stroke-miterlimit="10"/>
<path d="M788.511 564.931C790.311 567.567 792.587 569.844 795.222 571.646C796.557 572.517 798.131 572.948 799.723 572.879C801.315 572.809 802.845 572.243 804.099 571.258C805.587 569.481 806.465 567.273 806.601 564.959C807.991 556.118 808.721 547.186 808.784 538.237C808.84 530.731 808.543 522.795 812.245 516.244C814.463 512.364 817.999 509.203 819.415 504.943C820.056 502.958 820.197 500.846 819.828 498.793C819.458 496.74 818.589 494.81 817.297 493.173C816.48 492.012 815.361 491.097 814.062 490.526C812.762 489.954 811.331 489.749 809.924 489.932C805.52 490.89 804.123 496.289 802.567 500.536C799.529 508.027 794.167 514.345 787.269 518.559C780.394 522.7 772.928 525.769 765.128 527.66C755.765 530.203 749.837 540.365 761.537 544.749C772.297 548.715 781.67 555.728 788.511 564.931Z" stroke="#DEECF4" stroke-miterlimit="10"/>
<path d="M813.239 301.087C814.388 293.363 815.72 285.424 819.918 278.848C825.052 270.728 833.998 265.759 842.859 261.962C849.199 259.252 856.517 256.206 858.689 249.664C860.861 243.123 856.491 235.67 850.933 231.26C838.053 221.069 819.67 220.612 803.908 225.263C789.738 229.439 775.587 238.71 771.635 253.005C770.724 256.659 770.231 260.405 770.163 264.171C768.868 292.739 774.803 320.987 782.251 348.396C783.872 354.37 786.471 377.76 794.771 376.434C805.522 374.703 806.074 358.054 806.89 350.379C808.66 333.899 810.777 317.468 813.239 301.087Z" stroke="#DEECF4" stroke-miterlimit="10"/>
<path d="M812.343 272.82C814.124 268.651 816.565 264.796 819.573 261.403C823.356 257.444 828.317 254.85 832.551 251.386C835.115 249.296 837.601 246.125 836.549 242.992C835.686 240.323 832.615 239.104 829.876 238.555C813.677 235.374 797.355 245.192 786.891 257.946C784.142 261.033 782.057 264.653 780.766 268.58C779.805 273.112 779.704 277.784 780.467 282.353C781.789 295.04 783.11 307.721 784.428 320.396C785.182 327.524 785.1 339.21 789.687 345.176C793.865 350.595 798.269 347.716 798.35 341.967C798.565 326.377 799.515 311.617 803.654 296.582C805.864 288.427 808.771 280.477 812.343 272.82Z" stroke="#DEECF4" stroke-miterlimit="10"/>
<path d="M874.998 346.104C871.065 339.461 869.904 331.553 869.728 323.811C869.527 317.61 870.113 310.844 874.264 306.223C877.477 302.661 882.279 301.012 886.536 298.878C899.296 292.443 908.696 280.421 913.766 267.063C918.836 253.706 919.942 239.129 918.978 224.871C918.573 221.539 918.625 218.167 919.132 214.85C921.297 204.449 932.325 199.137 941.359 193.596C977.956 171.188 996.867 125.767 1035.03 105.801C1038.43 103.783 1042.25 102.58 1046.19 102.288C1048.17 102.173 1050.14 102.602 1051.88 103.529C1053.63 104.456 1055.09 105.844 1056.1 107.543C1057.15 110.05 1057.37 112.829 1056.72 115.47C1054.99 124.876 1048.29 132.708 1040.53 138.283C1032.77 143.858 1023.86 147.555 1015.36 151.951C981.72 169.33 953.503 199.117 943.12 235.455C938.823 250.541 937.589 266.343 933.525 281.49C928.267 300.327 918.976 317.795 906.296 332.684C903.287 336.037 900.484 339.567 897.9 343.257C895.622 346.709 895.072 351.427 892.907 354.571C888.109 361.749 877.787 350.828 874.998 346.104Z" stroke="#DEECF4" stroke-miterlimit="10"/>
<path d="M972.083 406.954C968.949 408.402 965.448 408.857 962.048 408.259C959.464 407.447 957.158 405.928 955.392 403.874C951.806 399.702 948.839 395.036 946.585 390.018C944.159 385.216 941.764 380.209 941.403 374.836C940.638 363.172 949.631 353.066 959.477 346.739C969.323 340.412 980.614 336.275 989.271 328.431C994.282 323.516 998.7 318.031 1002.44 312.088C1005.67 307.845 1008.26 303.145 1010.11 298.141C1012.22 291.406 1011.59 284.081 1010.97 277.123L1008.84 253.235C1007.99 244.623 1007.86 234.517 1014.56 228.956C1017.02 226.981 1020 225.773 1023.14 225.484C1026.1 225.185 1029.08 225.555 1031.88 226.565C1034.67 227.575 1037.2 229.2 1039.29 231.32C1043.62 235.836 1045.52 242.07 1047.3 248.127L1075.17 342.925C1077.1 349.498 1078.97 356.846 1075.82 362.947C1074.52 365.141 1072.78 367.045 1070.72 368.544C1068.66 370.042 1066.31 371.102 1063.82 371.66C1058.84 372.748 1053.76 373.291 1048.67 373.281C1039.96 373.693 1031.29 374.771 1022.74 376.505C1015.35 378.003 1007.87 380.055 1001.81 384.554C996.514 388.499 992.449 393.926 987.605 398.383C983.066 402.264 977.785 405.18 972.083 406.954Z" stroke="#DEECF4" stroke-miterlimit="10"/>
<path d="M963.579 374.842C965.169 377.839 969.216 378.354 972.598 378.075C977.595 377.666 982.472 376.332 986.982 374.141C998.168 368.719 1007.17 358.047 1019.52 356.634C1028.87 355.551 1039.54 359.861 1047.25 354.437C1052.25 350.88 1054.05 344.166 1053.71 338.051C1053.36 331.936 1051.28 326.051 1050.06 320.045C1048.08 310.326 1048.38 300.294 1046.97 290.469C1045.63 281.149 1042.76 272.114 1038.48 263.727C1037.03 260.878 1034.97 257.818 1031.82 257.422C1028.28 256.976 1025.32 260.125 1023.69 263.309C1019.81 270.927 1019.76 279.928 1020.74 288.436C1021.73 296.944 1023.71 305.362 1023.57 313.924C1023.43 322.486 1020.8 331.504 1014.24 337.003C1010.4 340.185 1005.59 341.934 1000.93 343.847C992.552 347.275 984.429 350.891 976.041 354.108C969.639 356.567 959.555 367.258 963.579 374.842Z" stroke="#DEECF4" stroke-miterlimit="10"/>
<path d="M157.606 218.629L161.821 231.661" stroke="#DEECF4" stroke-miterlimit="10"/>
<path d="M166.229 223.038L153.198 227.252" stroke="#DEECF4" stroke-miterlimit="10"/>
<path d="M542.208 331.218L546.417 344.232" stroke="#DEECF4" stroke-miterlimit="10"/>
<path d="M550.826 335.61L537.794 339.824" stroke="#DEECF4" stroke-miterlimit="10"/>
<path d="M894.138 546.136L898.352 559.168" stroke="#DEECF4" stroke-miterlimit="10"/>
<path d="M902.761 550.544L889.729 554.759" stroke="#DEECF4" stroke-miterlimit="10"/>
<path d="M1374.63 8.04004L1378.85 21.0718" stroke="#DEECF4" stroke-miterlimit="10"/>
<path d="M1383.26 12.4486L1370.22 16.6631" stroke="#DEECF4" stroke-miterlimit="10"/>
<path d="M1308.19 237.571L1310.82 225.223L1320.21 233.685L1308.19 237.571Z" fill="#0A3647" stroke="#DEECF4"/>
<path d="M225.502 228.039L228.149 215.703L237.518 224.154L225.502 228.039Z" fill="#0A3647" stroke="#DEECF4"/>
</svg>
