<svg width="390" height="1424" viewBox="0 0 390 1424" fill="none" xmlns="http://www.w3.org/2000/svg">
<path d="M157.408 1069.08C149.965 1034.98 154.962 995.286 175.937 970.245C198.364 943.447 234.477 933.689 267.432 922.12C300.386 910.55 335.536 892.374 346.444 859.22C355.618 831.43 344.781 800.894 329.631 775.857C314.482 750.82 294.796 728.276 283.748 701.114C280.401 692.88 278.11 682.773 283.427 675.646C287.178 670.622 293.66 668.607 298.799 665.007C312.761 655.198 314.802 635.823 317.33 618.963C320.503 597.821 326.384 577.175 334.828 557.535C342.211 540.375 352.037 523.466 367.451 512.911C387.161 499.419 415.566 500.526 430.475 520.739C436.477 528.492 441.892 536.682 446.673 545.242C451.651 554.691 456.047 564.606 460.055 574.483C466.001 589.14 471.901 603.808 477.755 618.484C484.95 636.501 491.018 654.914 500.211 672.056C509.403 689.199 524.61 703.435 539.64 715.611C554.67 727.787 571.592 737.706 587.798 748.232C595.048 752.923 600.036 760.187 606.696 765.623C611.127 769.117 615.223 773.016 618.932 777.269C626.109 785.679 631.434 795.505 634.562 806.109C637.566 816.748 637.754 827.985 635.108 838.719C633.682 843.901 631.996 849.007 630.055 854.019C628.129 858.99 626.536 863.887 623.181 868.018C613.827 879.382 600.207 884.357 588.783 893.052C574.31 904.052 559.18 914.027 544.213 924.356C529.034 934.835 514.74 946.739 504.3 962.102C496.34 973.749 493.234 988.321 482.017 997.503C475.23 1002.96 467.28 1006.88 459.506 1010.74C452.566 1014.27 445.368 1017.27 437.975 1019.71C431.177 1021.91 425.173 1023.64 417.957 1023.29C408.341 1022.81 399.209 1019.2 389.891 1017.08C376.183 1013.81 361.984 1013.11 348.022 1015.04C340.939 1016.22 333.979 1018.05 327.228 1020.49C324.587 1021.36 322.049 1022.51 319.659 1023.93C315.845 1026.29 311.451 1028.22 307.903 1030.89C302.195 1035.15 297.143 1041.09 291.991 1046.06C285.288 1052.53 279.731 1060.07 273.134 1066.67C269.984 1069.82 266.849 1072.97 263.869 1076.29C259.973 1080.66 257.158 1085.76 253.802 1090.49C249.728 1096.18 243.707 1100.27 239 1105.46C233.446 1111.46 227.027 1116.6 219.956 1120.71C216.068 1123.04 212.001 1125.72 207.242 1125.21C204.673 1124.72 202.193 1123.84 199.884 1122.61C196.584 1121.21 193.408 1120.66 190.066 1119.54C185.886 1117.87 182.161 1115.24 179.191 1111.86C176.03 1108.53 171.857 1105.59 169.575 1101.56C163.943 1091.39 159.843 1080.44 157.408 1069.08Z" stroke="#DEECF4" stroke-miterlimit="10"/>
<path d="M-95.5498 1040.53C-101.257 1041.36 -107.043 1041.48 -112.78 1040.89C-159.612 1036.5 -180.528 998.062 -212.831 969.842C-220.255 963.223 -228.385 957.44 -237.073 952.599C-271.242 933.973 -317.267 936.3 -344.871 905.942C-358.028 891.499 -364.054 869.342 -355.477 851.795C-346.9 834.248 -326.424 825.542 -307.127 821.5C-287.831 817.458 -267.44 816.043 -250.259 806.366C-224.715 792.079 -211.499 762.787 -205.368 735.363C-198.796 705.923 -205.743 679.406 -207.847 649.987C-209.459 627.526 -205.622 604.134 -193.582 585.109C-181.541 566.084 -160.567 552.021 -138.039 551.576C-117.387 551.168 -97.7559 561.709 -77.0937 561.688C-33.5981 561.662 -21.2004 517.552 4.56359 491.304C20.4899 475.078 44.0677 459.797 65.6736 452.924C82.2032 447.578 101.467 447.766 115.848 457.432C125.094 463.611 131.606 473.07 137.062 482.739C140.888 489.531 144.434 496.87 144.383 504.672C144.071 510.085 142.808 515.401 140.65 520.375C135.475 533.988 127.895 546.407 122.789 559.981C104.907 607.933 137.374 662.241 155.587 705.312C158.375 711.919 161.093 718.711 161.563 725.856C162.929 746.751 144.251 771.441 126.941 781.827C102.196 796.671 71.2866 796.08 44.8006 806.649C25.4268 814.38 7.25326 826.528 -4.15084 843.996C-35.0892 891.463 -23.4084 956.289 -49.9132 1006.13C-60.2424 1025.61 -75.6704 1037.64 -95.5498 1040.53Z" stroke="#DEECF4" stroke-miterlimit="10"/>
<path d="M-141.923 204.652C-138.774 210.865 -136.56 215.947 -136.657 222.999C-137.208 256.045 -149.691 287.706 -153.822 320.46C-157.556 350.009 -155.346 381.722 -139.152 406.715C-122.958 431.708 -89.9638 447.358 -62.2162 436.56C-33.544 425.398 -20.835 393.029 -5.04716 366.554C10.0161 341.179 30.1164 319.158 54.0151 301.848C69.7261 290.496 86.9422 281.28 102.106 269.242C131.159 246.165 144.85 211.442 137.961 174.58C136.769 168.524 135.12 162.567 133.029 156.76C130.392 149.159 124.54 143.657 119.315 137.773C114.089 131.89 109.813 125.617 103.297 121.08C97.3888 116.964 90.5544 114.516 83.7226 112.328C78.2833 110.617 72.4547 110.222 66.8826 109.109C59.1992 107.635 51.3303 107.392 43.5707 108.39C35.5589 109.352 28.0421 112.5 20.3897 114.926C7.43844 119.253 -5.00208 124.98 -16.7111 132.006C-22.0837 134.881 -27.2585 138.11 -32.2012 141.674C-37.4079 145.719 -42.6849 149.951 -47.9115 154.035C-52.8818 157.955 -58.1635 161.618 -63.0367 165.637C-66.562 168.536 -69.7511 171.669 -73.5044 174.316C-85.8737 183.007 -97.0643 194.688 -111.448 200.171C-115.192 201.549 -119.076 202.51 -123.03 203.037C-125.841 203.313 -128.63 203.774 -131.379 204.418C-133.31 204.944 -135.213 205.658 -137.115 206.273C-138.654 206.803 -141.605 208.556 -141.923 204.652Z" stroke="#DEECF4" stroke-miterlimit="10"/>
<path d="M238.271 88.2924C230.209 91.6165 219.713 94.164 213.371 100.694C183.267 131.701 178.504 199.923 180.493 240.52C181.314 258.171 183.936 275.744 182.568 293.321C181.2 310.898 175.818 328.405 174.522 346.203C173.195 364.724 176.309 383.295 183.603 400.371C189.474 414.043 198.488 427.008 211.604 434.021C232.796 445.361 258.953 438.758 281.182 429.582C303.411 420.406 325.972 408.68 349.917 410.448C362.851 411.412 375.197 416.296 388.122 417.784C408.439 420.171 422.525 410.746 430.277 392.359C433.907 383.741 434.187 375.54 433.494 366.398C433.292 363.76 433.452 361.232 433.417 358.605C433.432 354.221 432.659 349.87 431.136 345.759C428.085 336.24 423.905 327.12 418.686 318.595C415.042 312.818 411.162 307.819 408.454 301.462C405.747 295.106 402.75 289.365 399.452 283.347C393.802 272.826 388.848 261.947 384.62 250.78C382.431 245.119 380.728 239.35 378.849 233.589C377.05 228.825 375.536 223.957 374.314 219.013C372.529 209.818 371.777 200.288 369.446 191.269C367.409 183.41 365.99 175.546 364.689 167.546C362.732 156.093 359.889 144.809 356.185 133.796C354.84 129.637 353.653 125.363 351.979 121.344C348.696 114.043 344.157 107.374 338.571 101.64C335.44 98.2318 331.821 95.3073 327.832 92.9621C323.247 90.0148 319.192 86.391 314.82 83.1957C306.313 77.0374 297.433 72.0422 286.631 72.0826C278.741 72.1099 271.479 73.6278 263.796 75.0047C258.104 76.2479 252.52 77.9449 247.098 80.0793C241.633 82.1401 236.762 85.517 232.915 89.9108C233.403 90.1112 233.923 90.008 238.271 88.2924Z" stroke="#DEECF4" stroke-miterlimit="10"/>
<path d="M189.961 1072.73C189.799 1072.23 189.642 1071.75 189.484 1071.26" stroke="#DEECF4" stroke-linecap="round" stroke-linejoin="round"/>
<path d="M187.32 1065.43C181.665 1048.63 178.49 1031.09 177.897 1013.37C177.654 1006.08 177.924 998.349 181.87 992.17C185.817 985.991 192.484 982.483 198.948 979.253C231.713 962.901 265.376 948.415 299.776 935.862C316.602 929.72 334.611 923.359 345.564 909.181C353.135 899.403 356.319 887.037 359.088 874.952C368.28 834.176 372.723 788.485 350.369 753.155C343.289 741.991 333.891 732.424 327.384 720.863C320.876 709.303 317.96 694.495 324.664 683.092C327.625 678.047 332.194 674.142 336.148 669.85C342.74 662.661 347.722 654.147 350.761 644.879C357.896 623.026 353.865 598.726 361.626 577.143C364.63 568.787 369.318 561.136 375.401 554.665C381.483 548.195 388.829 543.042 396.984 539.527C405.139 536.011 413.929 534.208 422.809 534.229C431.689 534.25 440.471 536.094 448.609 539.647" stroke="#DEECF4" stroke-linecap="round" stroke-linejoin="round" stroke-dasharray="2 4.01"/>
<path d="M527.528 795.509C483.378 799.607 441.689 776.866 403.16 754.878C381.603 742.565 357.964 727.538 352.658 703.275C351.999 700.231 351.687 696.748 353.261 694.008C354.669 691.565 357.27 690.138 359.632 688.527C374.203 678.586 380.173 659.928 381.615 642.328C383.057 624.727 381.021 606.899 384.083 589.523C385.137 583.514 386.966 577.336 391.288 573.023C394.858 569.458 399.737 567.57 404.473 565.795L448.715 549.141" stroke="#DEECF4" stroke-miterlimit="10"/>
<path d="M552.692 846.625C516.318 829.579 478.225 816.47 439.063 807.522C431.61 805.828 423.502 804.329 416.515 807.452C405.488 812.387 402.189 826.158 399.784 838.011C391.278 879.852 375.041 923.069 340.467 948.112C329.498 955.882 317.354 961.844 304.498 965.771C290.633 970.14 275.923 972.601 263.307 979.825C240.292 993.017 227.952 1022.45 234.686 1048.11" stroke="#DEECF4" stroke-miterlimit="10"/>
<path d="M543.745 873.152L482.214 845.817C468.424 839.69 452.512 833.549 438.778 839.782C424.448 846.289 418.789 863.592 417.143 879.354C415.498 895.115 416.33 911.589 408.933 925.481C405.828 930.844 402.152 935.856 397.968 940.428L354.64 991.136" stroke="#DEECF4" stroke-miterlimit="10"/>
<path d="M515.301 758.711C482.154 766.711 447.352 756.906 415.794 743.984C404.958 739.54 393.928 734.491 386.135 725.757C378.343 717.022 374.601 703.638 380.163 693.338C384.484 685.295 393.351 680.733 398.73 673.342C410.168 657.59 402.617 634.998 408.903 616.563C414.626 599.76 433.034 588.286 450.637 590.541C453.305 590.884 456.216 594.747 453.584 595.371" stroke="#DEECF4" stroke-miterlimit="10"/>
<path d="M380.314 773.473C379.627 769.738 379.117 765.391 381.695 762.635C384.658 759.51 390.095 760.456 393.393 763.201C396.691 765.945 398.615 769.981 401.118 773.488C402.85 775.925 404.957 778.257 405.744 781.146C407.286 786.869 403.186 792.576 398.76 796.516C380.995 812.294 382.921 787.68 380.314 773.473Z" stroke="#DEECF4" stroke-miterlimit="10"/>
<path d="M266.809 602.758C262.795 610.946 257.596 619.598 249.071 622.599C241.559 625.257 233.146 622.863 226.197 619.003C219.248 615.142 213.189 609.805 206.245 605.91C196.717 600.571 185.805 598.106 175.856 593.734C165.907 589.361 156.055 582.367 152.674 571.913C146.041 551.402 166.909 532.324 169.741 511.016C171.744 495.856 164.46 481.24 160.889 466.368C159.192 459.31 158.66 450.915 163.764 445.746C168.428 440.98 176.275 440.918 182.536 443.356C188.797 445.794 193.859 450.314 199.383 454.049C213.097 463.214 229.402 467.709 245.875 466.865C260.992 466.064 276.496 460.822 290.877 465.553C305.859 470.48 316.062 486.97 313.81 502.569C311.161 520.87 294.555 529.253 287.774 544.395C279.275 563.089 275.991 583.908 266.809 602.758Z" stroke="#DEECF4" stroke-linecap="round" stroke-linejoin="round" stroke-dasharray="2 3.99"/>
<path d="M248.731 603.164C242.604 607.035 234.512 606.036 227.878 603.149C221.243 600.262 215.471 595.76 208.993 592.448C200.148 587.963 190.124 585.927 181.777 580.564C173.43 575.201 166.967 564.636 170.842 555.516C173.32 549.681 179.213 546.147 183.178 541.232C192.872 529.204 189.582 511.375 183.441 497.171C181.074 491.715 178.266 486.205 178.192 480.236C178.118 474.266 181.622 467.725 187.502 466.768C191.772 466.071 195.873 468.377 199.712 470.328C214.657 477.944 231.398 481.333 248.128 480.127C258.741 479.35 269.835 476.739 279.781 480.347C295.126 485.842 302.184 507.062 293.191 520.655C286.241 531.144 272.598 535.996 266.442 546.978C258.134 561.782 264.212 593.369 248.731 603.164Z" stroke="#DEECF4" stroke-miterlimit="10"/>
<path d="M188.899 561.436C188.029 551.945 196.156 544.089 198.929 534.934C202.042 524.415 197.957 513.195 194.188 502.85C192.94 499.442 191.744 495.594 193.278 492.329C194.812 489.064 199.258 487.251 203.123 487.516C206.987 487.781 210.543 489.661 214.097 491.232C224.206 495.748 235.315 498.67 246.313 497.475C254.604 496.569 264.386 493.829 270.233 499.772C275.119 504.805 273.85 513.424 269.858 519.211C265.866 524.997 259.807 528.976 254.988 534.118C247.754 541.887 243.366 551.878 242.54 562.461C241.844 570.634 246.415 581.193 237.875 585.909C224.429 593.287 190.261 576.274 188.899 561.436Z" stroke="#DEECF4" stroke-miterlimit="10"/>
<path d="M215.624 546.522C216.639 543.263 218.001 540.021 217.992 536.619C217.983 533.218 216.447 529.627 215.242 526.254C214.038 522.881 213.111 519.109 214.313 515.723C215.514 512.338 219.624 509.787 222.815 511.443C224.283 512.206 225.299 513.685 226.807 514.419C231.432 516.685 237 510.683 241.739 512.847C242.868 513.435 243.8 514.339 244.421 515.449C248.013 521.519 244.463 529.329 239.964 534.807C235.465 540.285 229.749 545.375 228.603 552.358C225.984 568.434 211.637 559.376 215.624 546.522Z" stroke="#DEECF4" stroke-miterlimit="10"/>
<path d="M-24.6367 1062.64C-26.8972 1045.27 -15.4594 1029.52 -9.29421 1013.13C0.968301 985.785 -3.37439 954.679 6.53644 927.206C8.38621 922.047 11.125 916.666 16.1485 914.471C24.1488 910.956 32.982 917.318 38.5131 924.096C44.0443 930.875 49.3667 939.072 57.9272 940.865C68.7379 943.118 81.5405 934.205 90.1728 941.105C92.7272 943.402 94.518 946.427 95.3047 949.771C100.387 967.298 91.784 985.521 84.5961 1002.28C77.4082 1019.03 71.6051 1039.31 81.3665 1054.74" stroke="#DEECF4" stroke-miterlimit="10"/>
<path d="M-10.9041 1065.92C-9.22989 1052.46 -2.97318 1040.08 1.79129 1027.41C10.0715 1005.57 14.2422 982.388 14.0929 959.031C14.1368 954.13 13.8395 949.031 15.1224 944.235C16.4053 939.438 19.5391 934.825 24.2099 933.152C30.9061 930.791 38.0183 935.055 43.5111 939.549C49.0039 944.043 54.8132 949.315 61.9397 949.242C65.2677 949.208 68.5525 947.983 71.8466 948.448C78.2341 949.363 82.115 956.529 81.92 962.977C81.7249 969.424 78.6816 975.425 76.1487 981.342C69.2087 997.749 66.2253 1015.56 67.4394 1033.33C67.6048 1035.66 65.7114 1039.12 64.0797 1037.45" stroke="#DEECF4" stroke-miterlimit="10"/>
<path d="M9.06716 1063.71C15.7696 1043.38 20.7662 1022.53 24.0052 1001.37C25.7651 989.835 27.1368 977.86 33.0004 967.787C34.7328 964.784 37.274 961.763 40.7174 961.431C42.9014 961.461 45.0604 961.901 47.0819 962.728C51.8533 964.091 56.9267 963.967 61.626 962.373C62.7592 961.802 64.0473 961.614 65.2966 961.838C67.4909 962.529 67.7829 965.496 67.4635 967.782C66.3728 975.188 63.0817 982.034 60.4459 989.043C53.0733 1008.81 50.9519 1030.16 54.2889 1050.99" stroke="#DEECF4" stroke-miterlimit="10"/>
<path d="M27.9222 1049.74C28.4108 1040.07 29.3286 1030.44 30.6759 1020.84C32.4658 1008.14 35.2298 995.031 43.1615 984.958C44.3165 983.493 46.662 982.083 47.7954 983.573C48.138 984.056 48.3244 984.632 48.3295 985.224C48.8009 992.776 45.1156 999.864 42.4499 1006.93C36.5232 1022.81 35.4824 1040.09 39.4614 1056.57" stroke="#DEECF4" stroke-miterlimit="10"/>
<path d="M-126.95 246.669C-128.556 250.414 -129.865 254.279 -130.866 258.229C-139.968 291.711 -143.433 326.475 -141.12 361.095C-140.254 373.845 -138.244 387.414 -129.738 396.944C-124.333 403.03 -116.78 406.793 -109.27 409.87C-100.998 413.188 -92.1008 415.718 -83.2967 414.386C-72.2881 412.617 -63.1411 404.74 -56.6154 395.708C-50.0898 386.675 -45.6305 376.34 -39.9231 366.741C-12.3445 320.116 40.2995 295.648 82.2157 261.325C95.5107 250.511 108.319 237.687 113.235 221.259C118.523 203.718 114.006 185.015 108.714 167.344" stroke="#DEECF4" stroke-linecap="round" stroke-linejoin="round" stroke-dasharray="1.98 3.97"/>
<path d="M107.775 164.341C107.613 163.839 107.456 163.353 107.299 162.866" stroke="#DEECF4" stroke-linecap="round" stroke-linejoin="round"/>
<path d="M-92.8353 218.893C-110.02 260.137 -127.424 302.314 -130.284 346.906C-131.412 364.471 -127.781 385.871 -111.476 392.521C-95.1719 399.17 -77.2888 386.074 -69.1379 370.685C-60.9871 355.295 -58.7672 337.28 -50.4888 321.882C-36.9904 296.587 -9.85261 282.192 15.6371 269.046C41.1268 255.9 68.0933 240.924 80.733 215.19C85.0179 206.329 87.3675 196.657 87.6256 186.818C87.8836 176.978 86.0442 167.197 82.2297 158.123" stroke="#DEECF4" stroke-miterlimit="10"/>
<path d="M48.2212 193.276C57.6048 206.024 55.4186 224.647 46.5871 237.781C37.7556 250.914 23.6183 259.477 9.25778 266.141C-5.10272 272.805 -20.2293 278.006 -33.5722 286.507C-51.0815 297.774 -64.6532 314.207 -72.4068 333.531C-74.4621 338.658 -76.1428 344.088 -79.617 348.404C-83.0912 352.72 -88.95 355.706 -94.1287 353.895C-102.63 350.977 -103.052 338.995 -100.353 330.418C-94.5216 311.886 -82.0756 296.281 -72.7337 279.236C-63.3917 262.191 -57.1622 241.364 -64.8387 223.52" stroke="#DEECF4" stroke-miterlimit="10"/>
<path d="M8.94429 224.074C5.78539 224.379 4.04419 227.808 3.36471 230.895C2.00919 237.229 2.63253 243.689 2.30002 250.165C1.96752 256.641 0.21124 263.398 -4.71184 267.515C-9.99534 271.928 -17.471 272.13 -24.0227 274.233C-39.3727 279.197 -49.9609 294.755 -65.6701 298.256C-66.552 298.561 -67.5187 298.505 -68.3593 298.099C-69.7673 297.17 -69.3511 295.032 -68.6658 293.475C-65.5786 286.228 -61.2389 279.581 -55.8455 273.84C-52.6442 270.443 -49.0382 267.289 -46.9327 263.123C-44.8272 258.956 -44.4451 254.044 -44.1088 249.342L-42.9438 232.548" stroke="#DEECF4" stroke-miterlimit="10"/>
<path d="M-162.984 277.77C-175.986 295.233 -181.644 317.422 -181.658 339.187C-181.672 360.952 -176.322 382.431 -169.037 402.943C-165.729 412.265 -161.907 421.616 -155.559 429.205C-141.754 445.703 -118.894 450.916 -97.6032 453.999C-85.4012 455.77 -72.8969 457.166 -60.7907 454.863C-32.3516 449.477 -11.5252 425.135 3.3461 400.308C18.2174 375.481 30.1031 348.02 51.4646 328.505C73.4983 308.35 103.519 298.738 125.577 278.656C158.055 249.096 168.026 200.657 160.779 157.347" stroke="#DEECF4" stroke-miterlimit="10"/>
<path d="M68.1988 347.215C84.0953 337.595 104.713 334.869 116.594 320.586C123.019 312.856 127.862 301.339 137.846 300.683C139.042 300.559 140.251 300.703 141.385 301.106C142.518 301.509 143.547 302.159 144.397 303.011C145.547 304.508 146.278 306.284 146.517 308.156C148.545 318.153 147.986 328.513 149.434 338.632C151.63 353.883 158.338 368.327 158.954 383.781C159.57 399.234 150.825 416.965 135.491 418.504C129.183 419.143 123.022 416.917 116.86 415.538C98.6551 411.474 80.303 415.112 64.2743 424.173C53.1074 430.488 43.683 436.5 35.1833 423.01C19.6048 398.258 47.5767 359.699 68.1988 347.215Z" stroke="#DEECF4" stroke-miterlimit="10"/>
<path d="M-146.446 494.405C-149.497 496.262 -152.153 498.702 -154.261 501.586C-156.369 504.47 -157.888 507.741 -158.731 511.213C-159.503 513.859 -159.417 516.682 -158.485 519.277C-156.237 524.413 -149.552 526.046 -144.035 525.077C-138.518 524.107 -133.484 521.29 -128.018 520.109C-110.901 516.43 -94.5044 529.206 -77.0219 530.181C-70.3897 530.544 -63.776 529.19 -57.8194 526.251C-55.8112 525.395 -54.0693 524.016 -52.7749 522.258C-51.3631 520.026 -51.299 517.253 -50.957 514.634C-50.3531 510.114 -48.851 505.76 -46.5391 501.829C-44.2271 497.898 -41.152 494.47 -37.4949 491.745C-32.3 487.915 -26.1389 485.662 -20.4271 482.675C-14.7153 479.687 -9.14086 475.621 -6.59322 469.699C-4.04559 463.777 -5.69831 455.695 -11.5001 452.864C-15.6184 450.857 -20.5433 451.896 -24.8746 453.411C-39.9132 458.633 -52.7214 468.736 -67.098 475.552C-81.4746 482.368 -99.435 485.505 -112.721 476.755C-117.798 473.397 -133.541 455.539 -139.933 464.382C-143.064 468.652 -138.107 475.567 -137.09 479.668C-134.984 487.994 -140.114 490.614 -146.446 494.405Z" stroke="#DEECF4" stroke-miterlimit="10"/>
<path d="M246.003 693.287C241.467 678.254 237.759 662.759 229.947 649.128C222.134 635.497 209.312 623.699 193.745 621.648C185.228 620.493 175.141 623.299 171.283 631.062C168.333 637.049 169.784 644.202 171.288 650.719C175.036 666.74 178.774 682.763 182.502 698.79C184.932 709.226 187.376 719.804 186.942 730.499C185.84 757.762 165.237 781.788 139.988 792.104C130.338 796.055 119.666 798.513 111.987 805.541C108.752 808.501 106.213 812.141 104.551 816.199C102.89 820.257 102.149 824.633 102.38 829.012C102.611 833.391 103.809 837.664 105.888 841.525C107.967 845.386 110.875 848.738 114.404 851.341C124.069 858.461 137.403 859.051 148.86 855.444C160.316 851.836 170.208 844.549 179.402 836.82C186.711 830.661 193.812 824.113 202.108 819.346C210.404 814.578 220.236 811.74 229.603 813.711C242.258 816.378 251.44 827.041 262.45 833.839C270.842 839.026 280.406 842.011 290.258 842.518C297.013 842.858 304.335 841.777 309.209 837.106C316.056 830.527 312.881 822.221 308.086 815.905C301.237 806.914 294.876 797.521 288.885 787.91C277.079 768.962 266.897 749.05 258.445 728.386C253.755 716.905 249.608 705.205 246.003 693.287Z" stroke="#DEECF4" stroke-miterlimit="10"/>
<path d="M212.084 645.719C207.13 640.121 199.857 634.705 192.797 637.15C190.907 637.906 189.213 639.082 187.843 640.589C186.474 642.095 185.465 643.894 184.892 645.847C183.78 649.762 183.552 653.874 184.226 657.888C186.141 672.774 193.804 686.6 194.547 701.588C194.742 705.516 194.495 709.635 196.223 713.164C197.95 716.694 202.647 719.23 205.877 716.981C210.172 714.093 208.207 706.455 212.307 703.321C219.744 697.658 224.737 710.881 231.21 709.342C238.317 707.646 235.582 695.11 234.613 690.553C231.074 673.923 223.316 658.483 212.084 645.719Z" stroke="#DEECF4" stroke-miterlimit="10"/>
<path d="M195.03 659.362C194.632 657.165 194.731 654.907 195.319 652.753C195.644 651.685 196.281 650.74 197.149 650.038C198.017 649.336 199.075 648.911 200.187 648.817C203.054 648.818 205.033 651.664 206.195 654.301C208.107 658.651 209.284 663.4 212.216 667.127C214.149 669.58 216.735 671.431 218.718 673.836C221.19 676.847 222.625 680.576 222.808 684.468C222.907 686.537 222.247 689.08 220.234 689.552C216.904 690.335 215.2 684.664 211.801 684.477C206.325 684.065 208.179 692.164 204.669 693.298C201.16 694.433 199.385 688.492 198.988 685.803C198.428 682.613 199.159 679.233 198.625 675.969C197.626 670.363 195.728 665.048 195.03 659.362Z" stroke="#DEECF4" stroke-miterlimit="10"/>
<path d="M211.11 728.677C214.451 726.752 217.615 724.535 220.565 722.052C221.05 721.561 221.651 721.2 222.312 721C222.972 720.8 223.673 720.769 224.349 720.91C225.418 721.346 225.922 722.551 226.57 723.449C229.072 727.054 234.17 727.506 238.073 729.502C244.615 732.81 247.596 740.315 250.56 747.012C259.215 766.624 272.002 784.054 283.435 802.182C284.925 804.199 285.922 806.538 286.344 809.01C286.523 810.247 286.284 811.509 285.664 812.594C285.044 813.68 284.08 814.528 282.923 815.003C280.821 815.601 278.674 814.504 276.757 813.462C262.978 806.11 247.823 800.848 232.232 800.938C199.252 801.148 171.26 824.534 139.558 833.63C137.238 834.518 134.708 834.701 132.285 834.157C130.957 833.635 129.772 832.804 128.831 831.731C127.889 830.659 127.217 829.377 126.871 827.993C124.173 818.995 131.539 810.195 139.209 804.75C157.323 792.068 180.97 786.57 194.672 769.207C196.617 766.932 198.06 764.273 198.908 761.403C199.863 757.609 199.174 753.613 198.409 749.789C197.84 746.617 197.255 743.451 196.691 740.295C194.564 728.229 203.977 732.205 211.11 728.677Z" stroke="#DEECF4" stroke-miterlimit="10"/>
<path d="M241.69 749.05C239.225 745.156 235.274 740.945 230.847 742.165C228.189 742.91 226.166 745.519 223.396 745.617C220.626 745.714 218.701 743.487 216.741 741.71C214.782 739.933 211.787 738.426 209.665 739.975C207.544 741.524 207.966 744.792 208.776 747.299C210.878 754.904 212.985 762.513 215.1 770.125C215.463 772.042 216.301 773.837 217.538 775.347C220.68 778.565 225.995 777.172 230.445 777.687C237.461 778.53 242.569 784.403 247.904 789.013C251.712 792.277 258.811 798.516 264.022 798.915C272.66 799.689 264.801 791.252 262.332 787.344C254.606 775.037 249.47 761.322 241.69 749.05Z" stroke="#DEECF4" stroke-miterlimit="10"/>
<path d="M143.995 813.007C142.231 814.604 140.478 816.588 140.545 819.01C140.614 822.749 145.075 824.858 148.805 824.759C154.663 824.591 159.981 821.291 164.334 817.375C168.687 813.459 172.374 808.846 176.916 805.162C182.209 800.837 188.485 797.879 195.19 796.549C198.249 795.934 201.413 795.644 203.89 793.735C210.972 788.187 202.449 785.048 197.129 786.328C191.157 787.755 185.277 792.034 179.536 794.477C167.218 799.601 154.099 803.909 143.995 813.007Z" stroke="#DEECF4" stroke-miterlimit="10"/>
<path d="M57.3794 900.388C63.1188 903.976 69.8806 905.573 76.6188 904.932C82.6326 904.339 88.3044 901.984 94.1544 900.531C100.004 899.079 106.551 898.574 111.809 901.484C118.27 905.046 121.212 912.58 123.978 919.422C126.745 926.264 130.531 933.59 137.479 935.986C143.167 937.86 149.483 935.735 154.366 932.3C159.249 928.864 163.133 924.155 167.434 920.076C180.027 908.251 196.574 901.499 213.253 896.968C229.932 892.437 247.089 889.885 263.673 885.011C267.884 883.779 272.402 882.188 274.739 878.435C278.308 872.801 275.186 865.26 271.199 860.035C258.098 842.593 233.33 833.191 213.273 841.779C206.557 844.635 200.719 849.194 194.63 853.232C181.828 861.694 167.683 867.92 152.797 871.647C143.514 873.965 133.676 875.274 124.426 872.809C110.848 869.203 100.675 858.143 91.7497 847.316C89.8784 844.751 87.5829 842.524 84.9622 840.732C83.6304 839.866 82.0953 839.363 80.5092 839.273C78.923 839.183 77.3409 839.509 75.9198 840.219C73.0621 841.909 71.8787 845.452 69.4473 847.704C65.6913 851.199 59.8072 850.984 54.9251 849.436C50.043 847.888 45.4351 845.273 40.4632 844.455C35.4912 843.636 29.3879 845.463 27.5364 850.264C26.553 852.813 25.6049 861.264 26.1849 863.812C27.0388 867.51 33.5442 872.215 36.2035 875.704C42.7284 884.245 47.9542 894.462 57.3794 900.388Z" stroke="#DEECF4" stroke-miterlimit="10"/>
<path d="M51.735 885.958C55.2286 890.415 59.187 894.949 64.5522 896.732C76.3034 900.685 88.3013 890.241 100.691 890.729C105.105 890.931 109.586 892.446 113.87 891.191C115.254 890.855 116.468 890.028 117.288 888.864C117.869 887.849 118.112 886.675 117.979 885.513C117.61 880.746 113.687 877.275 110.102 874.249C101.329 866.933 92.5585 859.622 83.7894 852.317C83.2545 851.826 82.6588 851.405 82.0167 851.066C80.8873 850.688 79.6739 850.639 78.5175 850.923C77.3611 851.208 76.3092 851.815 75.4841 852.674C73.7154 854.255 72.4862 856.347 70.8632 858.077C69.0361 859.987 66.7629 861.412 64.2483 862.225C61.7336 863.039 59.0562 863.214 56.4569 862.736C53.3908 861.86 50.3764 860.812 47.4283 859.597C25.8322 852.802 47.83 880.934 51.735 885.958Z" stroke="#DEECF4" stroke-miterlimit="10"/>
<path d="M68.7528 883.435C75.8373 882.577 82.6783 877.188 89.4654 879.44C92.2603 880.377 95.0984 882.504 97.8233 881.411C98.1373 881.294 98.41 881.087 98.6079 880.816C98.8183 880.4 98.8829 879.926 98.7915 879.47C98.558 877.506 97.8796 875.621 96.8078 873.958C95.7361 872.296 94.2992 870.9 92.6066 869.877C90.914 868.854 89.0102 868.23 87.0403 868.054C85.0703 867.877 83.0861 868.153 81.2385 868.859C79.5272 869.51 77.9793 870.515 76.2536 871.122C70.7623 873.029 55.752 866.351 52.3549 871.359C47.7051 878.335 64.2291 884.002 68.7528 883.435Z" stroke="#DEECF4" stroke-miterlimit="10"/>
<path d="M135.786 920.881C138.847 923.849 144.293 924.824 147.281 921.773C150.011 918.984 149.516 914.535 150.213 910.694C150.855 907.669 152.356 904.893 154.534 902.698C156.713 900.503 159.477 898.982 162.497 898.316C165.154 897.767 168.01 897.885 170.446 896.707C171.919 895.983 173.134 894.824 173.928 893.388C174.721 891.951 175.053 890.305 174.881 888.673C174.709 887.041 174.039 885.502 172.963 884.263C171.887 883.023 170.457 882.145 168.865 881.745C161.501 879.875 154.979 888.565 147.408 887.919C144.925 887.695 142.618 886.454 140.146 886.065C120.004 882.806 128.245 913.579 135.786 920.881Z" stroke="#DEECF4" stroke-miterlimit="10"/>
<path d="M235.077 850.429C245.943 850.889 258.056 854.952 262.373 864.925C264.975 870.957 263.09 879.482 256.852 881.548C252.738 882.879 248.353 881.153 244.183 879.994C232.712 876.846 220.469 878.244 210.003 883.897C206.654 885.73 203.497 888.005 199.88 889.207C193.799 891.255 182.442 888.723 183.018 880.23C183.385 874.817 190.434 872.945 194.446 870.947C201.92 867.113 205.219 860.541 211.832 855.91C218.446 851.279 227.16 850.122 235.077 850.429Z" stroke="#DEECF4" stroke-miterlimit="10"/>
<path d="M140.019 917.15C140.729 916.936 141.354 916.505 141.807 915.917C142.26 915.33 142.517 914.615 142.543 913.874C142.569 912.394 142.456 910.914 142.205 909.455C142.029 906.668 142.76 903.899 144.288 901.561C145.816 899.224 148.059 897.443 150.682 896.485C152.643 895.851 155.297 894.993 155.061 892.903C154.917 892.27 154.548 891.712 154.024 891.33C153.499 890.949 152.854 890.771 152.208 890.829C148.301 890.985 136.537 897.77 134.625 901.629C132.969 904.869 134.899 918.089 140.019 917.15Z" stroke="#DEECF4" stroke-miterlimit="10"/>
<path d="M198.039 876.968C197.675 877.568 197.525 878.274 197.614 878.97C197.703 879.666 198.026 880.311 198.529 880.8C205.238 879.738 210.446 874.438 216.835 871.932C225.51 868.54 235.2 870.7 244.427 871.934C247.525 872.349 251.635 872.013 252.441 869.016C253.004 866.929 251.44 864.812 249.608 863.678C246.708 862.136 243.449 861.396 240.168 861.535C231.38 861.287 222.631 862.788 214.428 865.951C209.564 867.882 200.53 872.433 198.039 876.968Z" stroke="#DEECF4" stroke-miterlimit="10"/>
<path d="M55.4907 838.194C56.7564 838.824 58.2186 838.936 59.5654 838.505C60.3808 838.026 61.064 837.351 61.5532 836.542C64.2038 832.802 67.4321 828.582 71.9571 828.422C76.482 828.261 80.0745 832.067 84.4163 833.204C85.5702 833.499 87.1345 833.4 87.4981 832.207C87.6029 831.771 87.59 831.314 87.4609 830.884C86.5759 826.284 85.6909 821.684 84.7912 817.088C84.7016 816.211 84.3639 815.376 83.8177 814.683C83.2456 814.162 82.5295 813.826 81.7632 813.719C73.3679 812.085 65.8281 819.442 57.3172 820.322C54.7976 820.443 52.273 820.422 49.7557 820.259C44.6931 820.267 34.6001 821.039 38.1225 827.751C40.7786 832.69 50.5999 836.518 55.4907 838.194Z" stroke="#DEECF4" stroke-miterlimit="10"/>
<path d="M8.24952 876.6C9.77571 877.087 11.3871 877.248 12.9795 877.073C15.3279 876.428 16.3291 873.531 16.0904 871.181C15.8517 868.831 14.7063 866.498 14.3653 864.084C13.3474 856.807 19.45 849.588 17.3223 842.556C17.1976 842.011 16.8686 841.534 16.4031 841.225C15.997 841.059 15.5525 841.011 15.1203 841.086C12.0846 841.318 8.85972 841.873 6.74185 844.137C4.62397 846.402 4.36642 849.987 4.59286 853.155C4.81931 856.323 5.35841 859.602 4.39054 862.602C3.42267 865.603 0.907111 867.947 -1.2225 870.428C-3.35211 872.908 -5.10017 876.014 -4.45696 879.162C-3.33394 884.548 3.64445 875.857 8.24952 876.6Z" stroke="#DEECF4" stroke-miterlimit="10"/>
<path d="M47.3223 386.509C45.9799 390.667 45.8279 395.117 46.8837 399.356C47.4474 401.451 48.5726 403.353 50.1379 404.856C51.7032 406.359 53.6493 407.406 55.766 407.884C59.7249 408.542 63.7076 406.554 66.7063 403.89C69.705 401.226 72.0433 397.881 74.8429 395.004C80.3653 389.55 87.4488 385.95 95.1101 384.704C102.771 383.458 110.631 384.628 117.597 388.051C121.5 390.046 125.655 392.823 129.741 391.306C131.135 390.663 132.336 389.667 133.226 388.416C134.116 387.166 134.664 385.704 134.814 384.177C135.065 381.121 134.77 378.045 133.945 375.093C132.98 370.649 131.865 365.993 128.477 362.87C126.195 361.022 123.519 359.726 120.655 359.08C107.843 355.422 93.4429 355.518 81.8662 362.178C74.2157 366.574 67.554 371.106 59.6304 374.809C53.2416 377.868 49.643 378.022 47.3223 386.509Z" stroke="#DEECF4" stroke-miterlimit="10"/>
<path d="M210.161 165.205C194.887 177.002 191.623 198.889 193.696 218.041C195.769 237.192 201.946 256.092 200.828 275.347C200.147 287.343 196.656 298.961 194.115 310.695C191.458 322.947 189.83 335.4 189.248 347.923C188.509 363.668 189.539 379.948 196.268 394.206C202.996 408.464 216.387 420.356 232.102 421.708C241.445 422.497 250.69 419.605 259.525 416.455C284.762 407.462 309.727 395.968 336.463 394.179C350.443 393.241 364.429 395.037 378.466 393.82C392.504 392.603 406.994 387.852 415.509 376.71" stroke="#DEECF4" stroke-miterlimit="10"/>
<path d="M394.849 366.664C373.474 379.441 346.765 376.677 321.877 377.38C297.049 378.108 272.486 382.689 249.065 390.96C237.841 394.932 224.181 399.382 215.105 391.714C206.846 384.759 207.636 371.994 209.716 361.403C216.83 325.077 230.74 288.215 222.541 252.135C220.095 241.297 215.679 230.916 214.126 219.92C212.573 208.738 214.026 197.344 218.338 186.911C223.512 174.455 232.893 161.762 228.848 148.901" stroke="#DEECF4" stroke-miterlimit="10"/>
<path d="M251.679 146.973C256.298 155.304 258.254 164.85 257.282 174.325C256.31 183.801 252.458 192.752 246.244 199.971C240.848 206 233.614 210.929 230.992 218.585C228.793 225.03 230.361 232.096 231.934 238.722C235.312 252.929 238.686 267.121 242.055 281.298C244.374 291.037 246.704 301.164 244.641 310.952C240.715 329.584 221.553 344.365 224.079 363.207C224.929 369.61 229.212 376.206 235.56 377.15C238.131 377.452 240.736 377.134 243.159 376.223C263.368 369.46 272.453 343.312 292.942 337.517C301.894 334.98 311.556 336.904 320.626 339.215C329.697 341.527 338.969 344.212 348.252 343.1C357.534 341.987 366.999 335.897 368.733 326.703" stroke="#DEECF4" stroke-miterlimit="10"/>
<path d="M359.277 294.743C347.416 299.36 334.671 301.256 321.98 300.29C314.326 299.687 306.237 297.743 301.049 292.075C295.861 286.407 294.639 278.349 290.614 271.898C285.556 263.761 276.674 259.011 268.873 253.471C261.071 247.932 253.461 240.165 253.331 230.597C253.268 222.848 258.26 215.973 264.017 210.756C269.773 205.539 276.567 201.567 282.042 195.985C295.363 182.328 298.174 159.593 288.603 143.094" stroke="#DEECF4" stroke-miterlimit="10"/>
<path d="M266.835 332.132C262.252 339.363 257.419 347.637 249.15 349.871C245.198 345.758 245.273 339.04 247.52 333.801C249.768 328.563 253.785 324.315 257.256 319.789C260.728 315.262 263.858 309.982 263.654 304.315C263.529 297.938 259.539 290.987 262.968 285.676C266.114 280.749 273.822 280.96 278.515 284.443C283.208 287.925 285.687 293.525 288.326 298.714C290.965 303.903 294.338 309.295 299.748 311.47C301.921 312.397 304.276 312.629 306.225 313.871C307.737 314.83 308.874 316.277 309.45 317.971C310.025 319.666 310.004 321.507 309.389 323.187C308.774 324.868 307.603 326.288 306.069 327.211C304.536 328.134 302.733 328.505 300.96 328.262C294.347 327.355 289.199 318.889 283.016 318.608C275.957 318.285 270.131 326.912 266.835 332.132Z" stroke="#DEECF4" stroke-miterlimit="10"/>
<path d="M348.333 273.949C342.614 277.456 336.537 280.344 330.206 282.564C328.077 283.445 325.784 283.859 323.481 283.778C318.799 283.354 315.263 279.318 313.026 275.171C310.789 271.025 309.292 266.395 306.143 262.902C302.377 258.761 296.827 256.81 292.174 253.705C287.994 250.874 284.541 247.097 282.094 242.681C279.562 238.125 278.795 231.271 283.317 228.685C285.805 227.261 289.118 227.737 291.457 226.053C295.728 223.042 293.51 216.235 295.386 211.361C297.263 206.486 303.208 204.32 308.18 205.594C313.153 206.869 317.023 210.878 319.482 215.36" stroke="#DEECF4" stroke-miterlimit="10"/>
<path d="M334.49 470.978C333.143 471.492 331.705 471.724 330.265 471.66C326.882 471.272 324.725 468.028 321.934 466.047C319.144 464.067 315.359 463.141 312.029 461.759C308.699 460.376 305.349 457.925 304.744 454.342C303.922 449.233 309.095 445.182 313.977 443.457C318.859 441.731 324.499 440.738 327.682 436.679C330.265 433.384 330.694 428.669 333.666 425.72C337.048 422.379 342.644 422.507 347.043 424.326C351.443 426.144 355.164 429.29 359.19 431.668C368.747 437.096 380.184 437.909 390.633 441.159C395.515 442.707 405.302 447.588 402.309 454.501C399.692 460.56 391.476 457.516 386.518 457.344C367.479 456.644 352.277 465.388 334.49 470.978Z" stroke="#DEECF4" stroke-miterlimit="10"/>
<path d="M-124.382 1007.79C-135.66 999.758 -144.423 988.78 -154.191 978.974C-191.917 941.139 -243.96 921.583 -295.291 906.749C-304.491 904.089 -313.926 901.456 -321.856 896.072C-329.787 890.688 -336.119 881.937 -335.93 872.348C-335.595 854.698 -315.473 844.949 -298.331 840.79C-278.863 836.123 -258.904 833.17 -240.106 826.276C-221.308 819.383 -203.292 807.855 -193.73 790.234C-187.825 779.432 -185.484 766.98 -185.099 754.673C-184.217 726.275 -193.364 698.547 -195.585 670.225C-197.806 641.902 -190.753 609.62 -166.77 594.534C-135.473 574.868 -92.803 593.644 -58.1416 580.805C-40.6951 574.316 -27.2315 560.548 -14.408 547.117L30.619 500.354C40.0329 490.583 49.7874 480.555 62.2496 475.173C74.7118 469.791 90.6804 470.164 100.318 479.719C108.736 488.072 110.382 501.319 108.17 513.012C105.958 524.706 100.466 535.375 96.3622 546.507C86.4709 573.461 84.6454 602.712 91.1086 630.686C98.3573 661.813 115.467 689.588 126.745 719.526C128.957 725.407 130.974 731.644 130.139 737.875C129.186 743.199 126.87 748.184 123.417 752.346C90.0127 796.115 14.2227 783.311 -21.4494 825.257C-40.9148 848.116 -42.5535 880.57 -47.1273 910.243C-51.4543 938.237 -59.1525 965.605 -70.0541 991.75C-74.2211 1001.73 -78.5368 1014.62 -90.0173 1017.65C-101.498 1020.68 -115.485 1014.15 -124.382 1007.79Z" stroke="#DEECF4" stroke-miterlimit="10" stroke-dasharray="2 4"/>
<path d="M59.3442 768.474C80.3345 764.129 103.204 752.449 107.225 731.392C109.37 720.144 105.537 708.696 101.742 697.87L86.4771 654.042C82.2146 641.869 77.6625 629.203 68.5447 620.148C59.4269 611.093 44.2598 606.6 33.3717 613.525C22.1141 620.668 19.9708 636.15 20.8709 649.459C21.771 662.768 24.3843 676.843 18.7088 688.907C8.79611 710.029 -21.891 715.262 -30.6463 736.841C-32.7166 742.414 -33.5688 748.365 -33.1454 754.295C-32.3902 771.739 -19.9638 794.399 0.233228 786.141C8.72318 782.679 14.6287 777.218 24.0743 774.848C35.6415 771.986 47.7125 770.884 59.3442 768.474Z" stroke="#DEECF4" stroke-miterlimit="10"/>
<path d="M-291.864 868.293C-294.53 869.367 -297.278 870.842 -298.599 873.403C-300.834 877.774 -297.907 883.098 -294.251 886.395C-283.312 896.246 -267.193 896.782 -253.057 900.908C-235.724 905.955 -220.755 916.783 -206.158 927.421C-181.608 945.314 -157.01 963.256 -134.378 983.528C-128.942 988.399 -123.465 993.501 -116.707 996.267C-109.949 999.032 -101.479 998.932 -96.0785 994.026C-91.3301 989.721 -89.9993 982.857 -89.1728 976.498C-86.4057 954.837 -86.3654 932.852 -83.5735 911.166C-80.7817 889.48 -74.8518 867.626 -61.7663 850.12C-58.0513 845.189 -53.7462 840.571 -51.1864 834.939C-47.3366 826.446 -47.9001 816.595 -49.8718 807.476C-52.0169 797.469 -55.8542 787.618 -62.5726 779.888C-69.2911 772.158 -79.1625 766.816 -89.3838 767.141C-103.056 767.572 -115.115 777.677 -128.798 777.672C-139.384 777.675 -150.145 771.546 -160.092 775.186C-167.974 778.012 -172.708 786.188 -174.893 794.289C-177.078 802.391 -177.404 810.901 -179.97 818.881C-185.509 835.999 -200.971 848.475 -217.794 854.877C-241.576 863.936 -268.648 858.993 -291.864 868.293Z" stroke="#DEECF4" stroke-miterlimit="10"/>
<path d="M-77.4485 739.029C-95.8362 727.499 -100.388 698.92 -86.4914 682.259C-79.4515 673.809 -69.0406 668.732 -61.6261 660.585C-56.6236 654.949 -53.1793 648.104 -51.6339 640.728C-50.0884 633.353 -50.4954 625.701 -52.8147 618.531C-54.968 612.175 -58.5897 605.056 -55.2441 599.234C-53.4869 596.206 -50.2997 594.377 -47.1246 592.813C-32.8603 585.399 -18.1392 577.885 -7.57708 565.772C-0.303017 557.442 4.60985 547.351 10.9542 538.312C19.5523 526.068 30.6611 515.846 41.6758 505.736C48.6582 499.325 57.1837 492.447 66.484 494.26C75.5103 496.032 80.9738 505.422 83.0991 514.361C85.1667 523.477 85.05 532.954 82.7586 542.016C80.4672 551.079 76.066 559.472 69.9139 566.511C50.7895 587.957 17.2026 594.096 2.32399 618.648C-9.50014 638.14 -5.88276 663.78 -16.2685 684.094C-21.7505 694.793 -30.7211 703.215 -38.1718 712.661C-45.1115 721.42 -49.1831 731.142 -54.6164 740.782C-58.0223 746.77 -55.481 747.577 -62.0425 747.483C-65.5214 747.403 -74.2418 741.037 -77.4485 739.029Z" stroke="#DEECF4" stroke-miterlimit="10"/>
<path d="M-78.5068 725.836C-81.809 720.258 -82.7836 713.619 -82.9312 707.119C-83.1001 701.912 -82.6081 696.232 -79.1231 692.352C-76.4254 689.362 -72.3943 687.977 -68.8202 686.186C-58.1074 680.783 -50.2147 670.69 -45.9582 659.475C-41.7018 648.261 -40.7736 636.022 -41.5827 624.052C-41.9223 621.254 -41.8788 618.424 -41.4534 615.638C-39.6353 606.906 -30.3768 602.446 -22.7926 597.795C7.93303 578.981 23.8106 540.848 55.8509 524.085C58.705 522.39 61.9132 521.38 65.2234 521.135C66.8806 521.039 68.5326 521.399 69.9991 522.177C71.4656 522.955 72.6904 524.121 73.5398 525.547C74.4233 527.652 74.6068 529.985 74.0633 532.202C72.6105 540.099 66.9841 546.675 60.4681 551.356C53.9521 556.036 46.47 559.14 39.3405 562.83C11.0933 577.422 -12.5962 602.429 -21.3139 632.938C-24.9218 645.603 -25.9572 658.871 -29.3695 671.587C-33.7839 687.402 -41.5844 702.068 -52.2302 714.569C-54.756 717.383 -57.1098 720.347 -59.2789 723.445C-61.1917 726.344 -61.6536 730.304 -63.471 732.944C-67.4996 738.971 -76.1655 729.802 -78.5068 725.836Z" stroke="#DEECF4" stroke-miterlimit="10"/>
<path d="M3.00238 776.923C0.371602 778.139 -2.56793 778.521 -5.42218 778.019C-7.59214 777.337 -9.52798 776.062 -11.0105 774.337C-14.0215 770.835 -16.5118 766.917 -18.4045 762.705C-20.4415 758.672 -22.4524 754.469 -22.755 749.958C-23.3974 740.165 -15.8475 731.68 -7.58113 726.368C0.685266 721.056 10.1653 717.583 17.4335 710.998C21.6405 706.871 25.3498 702.266 28.4855 697.277C31.201 693.714 33.372 689.768 34.9273 685.567C36.6982 679.913 36.175 673.763 35.6539 667.921L33.8587 647.865C33.1492 640.635 33.0439 632.151 38.6678 627.481C40.7297 625.823 43.2343 624.81 45.8689 624.566C48.3511 624.316 50.858 624.626 53.2043 625.474C55.5506 626.322 57.6765 627.687 59.4249 629.466C63.0617 633.258 64.6565 638.491 66.1547 643.577L89.5486 723.167C91.1704 728.685 92.7421 734.854 90.0988 739.977C89.006 741.818 87.5483 743.417 85.8153 744.675C84.0822 745.933 82.1104 746.823 80.0207 747.291C75.8425 748.205 71.5774 748.661 67.3005 748.653C59.9873 748.998 52.7112 749.903 45.5359 751.359C39.33 752.617 33.0463 754.339 27.9645 758.116C23.5142 761.429 20.1017 765.985 16.0347 769.727C12.2241 772.986 7.78984 775.434 3.00238 776.923Z" stroke="#DEECF4" stroke-miterlimit="10"/>
<path d="M-4.13685 749.963C-2.80186 752.479 0.595458 752.911 3.43517 752.677C7.63035 752.334 11.7252 751.214 15.5111 749.374C24.9028 744.822 32.4619 735.863 42.8281 734.676C50.6776 733.767 59.6334 737.385 66.1091 732.832C70.3065 729.845 71.8224 724.208 71.5302 719.074C71.2381 713.941 69.4936 709 68.4656 703.957C66.8038 695.797 67.0606 687.375 65.875 679.126C64.7476 671.301 62.3386 663.716 58.7446 656.675C57.531 654.282 55.8044 651.713 53.156 651.38C50.1845 651.006 47.7006 653.65 46.3338 656.323C43.0762 662.719 43.028 670.276 43.856 677.419C44.6839 684.562 46.3506 691.629 46.2322 698.818C46.1139 706.006 43.9043 713.578 38.3935 718.194C35.1693 720.866 31.1325 722.334 27.2219 723.941C20.1878 726.818 13.368 729.854 6.32576 732.555C0.9506 734.619 -7.51528 743.596 -4.13685 749.963Z" stroke="#DEECF4" stroke-miterlimit="10"/>
<path d="M340.971 442.007L344.509 452.949" stroke="#DEECF4" stroke-miterlimit="10"/>
<path d="M348.21 445.709L337.269 449.247" stroke="#DEECF4" stroke-miterlimit="10"/>
<path d="M285.295 634.595L287.442 624.5L295.119 631.418L285.295 634.595Z" stroke="#DEECF4"/>
<path d="M119.63 983.238L121.793 973.152L129.453 980.061L119.63 983.238Z" stroke="#DEECF4"/>
</svg>
