<svg width="20" height="20" viewBox="0 0 20 20" fill="none" xmlns="http://www.w3.org/2000/svg">
<path d="M16.235 10.5013C14.9266 7.10134 10.2683 6.918 11.3933 1.97634C11.4766 1.60967 11.085 1.32634 10.7683 1.518C7.74329 3.30134 5.56829 6.87634 7.39329 11.5597C7.54329 11.943 7.09329 12.3013 6.76829 12.0513C5.25996 10.9097 5.10163 9.268 5.23496 8.093C5.28496 7.65967 4.71829 7.45134 4.47663 7.80967C3.90996 8.67634 3.33496 10.0763 3.33496 12.1847C3.65163 16.8513 7.59329 18.2847 9.00996 18.468C11.035 18.7263 13.2266 18.3513 14.8016 16.9097C16.535 15.3013 17.1683 12.7347 16.235 10.5013ZM8.50163 14.693C9.70163 14.4013 10.3183 13.5347 10.485 12.768C10.76 11.5763 9.68496 10.4097 10.41 8.52634C10.685 10.0847 13.135 11.0597 13.135 12.7597C13.2016 14.868 10.9183 16.6763 8.50163 14.693Z" fill="white"/>
</svg>
