<svg width="390" height="536" viewBox="0 0 390 536" fill="none" xmlns="http://www.w3.org/2000/svg">
<path d="M-330.548 182.369C-333.312 191.818 -330.648 201.316 -328.659 210.703C-327.22 217.493 -325.716 224.242 -323.791 230.914C-320.687 241.704 -315.509 251.785 -308.547 260.594C-295.878 277.216 -280.008 291.794 -260.746 300.425C-250.765 304.934 -240.33 308.362 -229.62 310.651C-219.063 313.057 -208.053 312.585 -197.741 309.285C-189.846 307.064 -182.376 303.547 -175.635 298.876C-166.928 292.685 -159.521 285.536 -151.421 278.61C-114.397 247.023 -66.6293 222.864 -16.8726 232.749C30.973 242.244 69.3195 277.974 115.241 294.356C153.552 308.021 195.842 307.594 235.602 298.984C267.53 292.073 301.255 277.403 314.982 247.743C329.382 216.625 317.133 180.428 315.77 146.163C313.229 81.9169 349.576 23.5829 380.024 -33.076C406.689 -82.5948 458.727 -198.829 390.992 -236.831C381.246 -242.312 370.894 -246.006 360.641 -250.295C352.331 -254.112 343.688 -257.162 334.823 -259.405C326.719 -261.247 318.46 -262.009 310.146 -263.065C301.608 -264.362 292.946 -264.622 284.346 -263.839C274.439 -262.825 264.611 -261.15 254.927 -258.826C238.114 -254.785 224.388 -244.681 210.245 -235.024C200.534 -228.398 191.247 -221.171 182.44 -213.383C173.054 -205.033 163.083 -197.714 153.12 -190.069C136.474 -177.294 120.727 -163.239 103.112 -151.722C83.6178 -138.711 63.438 -126.758 42.6597 -115.915C34.737 -111.859 26.8133 -107.686 18.5927 -104.251C7.19053 -99.497 -5.0782 -96.4023 -16.8103 -92.6081C-28.5424 -88.8139 -40.5154 -84.2046 -52.6606 -81.208C-64.6565 -78.344 -76.9172 -76.7324 -89.2457 -76.3991C-98.6644 -76.0691 -107.994 -75.8842 -117.393 -75.1921C-129.011 -74.3447 -140.734 -74.8409 -152.304 -73.4853C-162.992 -72.221 -173.868 -73.34 -184.541 -71.1883C-195.06 -69.3141 -205.362 -66.3789 -215.289 -62.4277C-235.129 -54.0713 -251.913 -40.8834 -267.895 -26.655C-277.021 -18.7912 -285.375 -10.074 -292.844 -0.622156C-300.759 9.69742 -306.001 21.5003 -310.465 33.6721C-314.007 43.2953 -318.197 52.9537 -319.836 63.1836C-320.947 69.945 -321.698 76.803 -322.511 83.5846C-323.691 93.375 -322.583 103.338 -323.529 113.13C-325.176 130.114 -323.688 147.131 -326.326 163.989C-326.871 167.464 -328.541 170.099 -329.778 173.292C-330.35 175.324 -330.749 177.4 -330.972 179.499C-331.632 182.855 -335.081 185.988 -330.548 182.369Z" stroke="#DEECF4" stroke-miterlimit="10"/>
<path d="M594.042 682.982C587.244 683.962 580.352 684.106 573.519 683.411C517.738 678.171 492.825 632.393 454.349 598.781C445.507 590.897 435.824 584.009 425.475 578.243C384.777 556.058 329.957 558.83 297.078 522.67C281.407 505.467 274.23 479.076 284.446 458.176C294.662 437.277 319.05 426.906 342.034 422.092C365.018 417.278 389.305 415.593 409.769 404.066C440.194 387.049 455.935 352.16 463.239 319.495C471.066 284.43 462.791 252.846 460.286 217.805C458.366 191.052 462.936 163.191 477.277 140.53C491.618 117.87 516.6 101.119 543.434 100.589C568.031 100.103 591.414 112.658 616.024 112.634C667.832 112.602 682.598 60.0638 713.285 28.7995C732.255 9.47274 760.338 -8.72742 786.073 -16.9142C805.761 -23.2814 828.706 -23.0583 845.835 -11.5452C856.848 -4.18473 864.604 7.08089 871.103 18.5979C875.659 26.6885 879.883 35.4299 879.823 44.7225C879.452 51.17 877.946 57.5015 875.377 63.4264C869.213 79.64 860.184 94.4327 854.103 110.6C832.804 167.715 871.474 232.401 893.167 283.702C896.488 291.571 899.726 299.662 900.286 308.172C901.913 333.059 879.666 362.467 859.048 374.839C829.574 392.518 792.758 391.815 761.211 404.403C738.135 413.612 716.489 428.082 702.906 448.887C666.055 505.424 679.968 582.637 648.399 642.007C636.096 665.211 617.72 679.534 594.042 682.982Z" stroke="#DEECF4" stroke-miterlimit="10"/>
<path d="M-268.971 476.909C-267.481 459.085 -261.736 441.878 -252.218 426.735C-227.618 388.225 -179.192 332.328 -132.139 324.134C-77.5684 314.653 -27.114 362.627 28.2089 359.79C56.1829 358.348 81.7507 344.007 109.044 337.702C136.338 331.397 170.796 336.685 182.851 361.964C191.783 380.706 184.9 402.973 176.243 421.855C167.586 440.737 156.917 460.115 158.623 480.806C161.137 511.615 190.4 535.694 191.483 566.578C192.35 590.916 172.371 614.197 148.172 617.056C126.738 619.584 106.463 608.061 85.8674 601.723C67.4001 596.203 47.9578 594.74 28.8723 597.433C9.78669 600.126 -8.49132 606.913 -24.7099 617.328C-50.3343 634.073 -69.3733 659.184 -92.9639 678.919C-103.761 687.823 -115.987 695.909 -129.782 697.344C-150.319 699.466 -169.298 686.553 -184.384 672.478C-229.254 630.613 -275.791 546.82 -268.971 476.909Z" stroke="#DEECF4" stroke-miterlimit="10"/>
<path d="M-174.231 426.792C-173.714 426.684 -173.238 426.436 -172.853 426.075C-171.752 424.608 -171.067 422.872 -170.869 421.049C-167.814 408.421 -153.906 402.177 -141.385 398.904C-127.219 395.196 -111.168 393.361 -98.7626 401.125C-86.8975 408.539 -81.4672 422.691 -74.9225 434.95C-65.6621 452.26 -52.941 467.481 -37.5497 479.667C-23.7371 490.584 -6.8579 498.026 2.83374 513.477C5.98251 518.877 8.42608 524.659 10.1047 530.681C11.7746 535.844 13.8814 541.099 13.5218 546.706C12.1061 567.883 -2.6219 575.73 -21.2194 579.591C-47.7688 584.913 -73.7527 592.745 -98.821 602.981C-103.451 605.223 -108.402 606.732 -113.495 607.455C-122.947 608.222 -132.159 603.073 -139.187 596.577C-156.966 580.114 -164.662 555.598 -169.516 531.89C-176.701 496.857 -179.292 461.037 -177.224 425.335C-177.019 426.627 -175.547 427.102 -174.231 426.792Z" stroke="#DEECF4" stroke-miterlimit="10"/>
<path d="M-198.975 426.103C-193.018 396.532 -165.884 371.499 -135.436 370.208C-111.137 369.159 -88.241 381.29 -68.4446 395.413C-48.6483 409.536 -30.3042 426.126 -8.21911 436.289C12.0406 445.606 35.2277 449.398 52.6914 463.267C60.2514 469.273 66.356 476.911 70.5489 485.608C74.7419 494.306 76.9147 503.839 76.9051 513.495C76.8954 523.15 74.7035 532.679 70.4932 541.368C66.2828 550.058 60.163 557.683 52.591 563.674C32.3966 579.634 5.04494 581.98 -19.4152 589.968C-46.4531 598.864 -70.536 614.999 -89.0472 636.621C-92.7581 640.983 -96.4193 645.679 -101.549 648.172C-112.343 653.428 -124.709 641.345 -132.493 635.152C-142.927 626.886 -150.033 616.128 -155.595 604.211C-163.305 587.834 -169.96 570.981 -175.521 553.755C-178.23 545.377 -180.945 536.982 -183.654 528.605C-186.409 519.337 -188.117 509.79 -188.746 500.143C-190.659 479.052 -200.282 459.253 -200.172 437.878C-200.159 433.923 -199.758 429.979 -198.975 426.103Z" stroke="#DEECF4" stroke-miterlimit="10"/>
<path d="M52.3445 386.07L54.5377 385.594C72.4821 381.749 90.0783 376.428 107.147 369.686C111.757 367.923 116.628 366.309 121.538 366.855C126.714 367.688 131.48 370.176 135.122 373.947C139.69 377.998 142.86 383.39 144.178 389.351C144.794 392.325 144.65 395.407 143.757 398.31C142.865 401.214 141.254 403.845 139.073 405.959C133.913 410.519 126.461 410.931 119.549 411.575C98.1321 413.496 59.2533 434.547 44.073 409.503C39.9368 402.712 40.1807 392.429 46.8792 388.187C48.5716 387.184 50.4183 386.469 52.3445 386.07Z" stroke="#DEECF4" stroke-miterlimit="10"/>
<path d="M90.1186 574.197C91.8212 574.959 93.6817 575.302 95.5442 575.197C104.264 575.287 112.515 578.904 120.54 582.303C128.565 585.703 137.07 588.966 145.751 588.273C154.432 587.581 163.357 581.707 164.602 573.078C165.621 566.153 161.699 559.603 158.404 553.433C152.366 542.106 148.007 529.962 145.464 517.382C144.998 513.63 143.824 510 142.005 506.686C139.903 503.486 135.936 501.296 132.353 502.513C126.579 504.516 126.728 512.655 127.999 518.626C130.498 530.312 135.241 541.019 125.937 550.76C117.381 559.638 104.648 562.495 93.3886 566.912C90.9633 567.871 88.0695 569.66 88.6012 572.204C88.695 572.626 88.8793 573.023 89.1413 573.367C89.4032 573.711 89.7367 573.994 90.1186 574.197Z" stroke="#DEECF4" stroke-miterlimit="10"/>
<path d="M173.668 564.578C173.1 562.822 172.532 561.066 171.806 559.361C166.363 545.251 160.923 531.148 155.484 517.051C152.084 508.218 148.216 498.837 140.271 493.705C135.384 490.591 128.739 489.539 123.946 492.777C119.448 495.783 117.773 501.641 117.678 507.045C117.582 512.45 118.725 517.842 118.391 523.227C117.759 533.752 110.329 545.991 99.9352 549.662C95.0748 551.37 90.0823 552.849 85.1822 554.434C73.2172 558.167 68.7273 572.598 78.009 581.682C83.3732 586.932 91.0017 588.985 98.2589 590.789C114.34 594.804 130.989 598.595 147.34 595.946C154.19 595.061 160.686 592.385 166.171 588.188C168.884 586.068 171.07 583.351 172.56 580.248C174.05 577.145 174.803 573.739 174.761 570.297C174.631 568.353 174.264 566.433 173.668 564.578Z" stroke="#DEECF4" stroke-miterlimit="10"/>
<path d="M-40.0044 18.9936C-40.9424 23.4216 -40.6362 28.0228 -39.1195 32.2874C-33.9983 47.7032 -22.8609 54.9071 -7.59505 50.2223C9.89514 44.8569 28.3719 39.4829 46.4828 44.9747C64.5936 50.4666 78.7624 63.3249 91.474 76.5963C105.117 90.8276 139.153 134.586 162.802 116.171C169.004 111.352 170.876 102.444 169.048 94.7514C167.219 87.0588 162.351 80.5824 156.973 74.8719C139.985 56.8339 115.38 43.1407 106.997 18.5369C105.562 14.9906 105.182 11.1057 105.9 7.34845C107.436 1.41977 113.192 -2.55641 119.114 -4.16114C131.327 -7.48988 144.401 -4.79255 156.703 -7.60681C177.029 -12.2404 191.441 -33.0032 189.139 -53.6181C188.27 -60.6953 185.64 -67.4417 181.491 -73.2404C177.341 -79.0392 171.805 -83.7053 165.387 -86.8122C153.565 -91.9237 140.208 -92.1818 128.197 -87.5309C114.247 -82.4996 102.863 -72.141 96.5398 -58.727C91.478 -48.2243 88.5206 -36.7336 83.5001 -26.283C76.8599 -12.2628 65.0201 2.23619 47.7568 -2.07478C42.0957 -3.50315 36.7431 -6.13709 31.1589 -7.68735C11.3316 -13.1479 -34.4829 -5.02438 -40.0044 18.9936Z" stroke="#DEECF4" stroke-miterlimit="10"/>
<path d="M84.3345 102.689C63.4806 85.4162 40.2667 67.6843 13.2011 66.7762C-1.35296 66.2838 -16.092 70.7982 -30.3311 67.7402C-49.4819 63.6517 -64.0902 45.1154 -65.0182 25.5694C-65.9462 6.0234 -53.9716 -13.0976 -36.6215 -22.3752C-28.4745 -26.4688 -19.6694 -29.0931 -10.6107 -30.1276C9.12065 -32.7641 29.1968 -30.6058 47.9169 -23.8356C51.1461 -22.6684 54.783 -21.3807 57.9196 -22.8995C61.9065 -24.8485 62.5316 -30.114 63.3353 -34.4673C75.8671 -102.074 202.982 -136.549 216.538 -53.4781C218.679 -40.8618 218.549 -27.1043 211.855 -16.19C202.223 -0.503777 182.166 4.72182 163.942 7.27867C156.776 8.27684 148.75 9.55333 144.466 15.3815C141.109 19.9979 141.133 26.431 143.186 31.7614C145.523 36.9859 148.837 41.7154 152.95 45.6952C164.196 57.7334 176.932 68.8627 184.395 83.5406C191.858 98.2184 192.586 117.984 180.837 129.525C150.391 159.256 108.172 122.47 84.3345 102.689Z" stroke="#DEECF4" stroke-miterlimit="10"/>
<path d="M42.1571 100.344C56.0173 108.696 69.3223 117.937 81.9885 128.009C96.2179 139.315 110.173 151.873 127.621 157.114C146.088 162.568 166.039 158.813 184.323 152.783C190.681 150.727 197.119 148.199 201.947 143.572C206.147 139.234 209.202 133.92 210.836 128.107C215.627 112.997 214.842 96.6692 208.622 82.0886C203.79 70.8667 195.908 61.1936 190.285 50.344C187.554 45.0776 185.307 39.15 186.346 33.3044C187.757 25.6701 194.233 20.2002 200.335 15.4332C215.114 3.84426 230.867 -8.99103 235.496 -27.1913C239.417 -42.6019 234.472 -58.7924 228.708 -73.4959C223.658 -86.4126 217.674 -99.396 207.638 -108.954C189.778 -126.148 161.685 -129.032 138 -121.586C114.315 -114.14 94.5861 -98.0011 76.9886 -80.67C67.2471 -71.0206 57.692 -60.6749 45.3222 -54.7733C31.0355 -47.9607 14.6017 -47.787 -1.09104 -46.2815C-18.2094 -44.6254 -35.4272 -40.9971 -50.5204 -32.7791C-65.6137 -24.5611 -78.4136 -11.0514 -83.0509 5.50265C-91.6078 36.0313 -70.3327 68.8238 -43.4493 82.2456C-29.7168 89.0758 -19.86 87.4013 -5.62084 85.9003C11.5156 84.1802 27.8571 91.6993 42.1571 100.344Z" stroke="#DEECF4" stroke-miterlimit="10"/>
<path d="M-25.1748 24.5372C-25.4497 26.3336 -25.1294 28.1706 -24.2625 29.7678C-23.3957 31.365 -22.03 32.6347 -20.374 33.383C-16.9897 34.7879 -13.2039 34.8843 -9.75242 33.6534C-6.33595 32.4342 -3.00728 30.9817 0.210095 29.3063C5.89487 26.3625 12.281 25.0422 18.6671 25.4907C25.7462 26.3246 32.5046 30.3663 39.5426 29.2736C40.4323 29.1862 41.2782 28.8453 41.9798 28.2914C42.6677 27.528 43.0776 26.5546 43.1429 25.5291C43.4896 22.1846 42.6846 18.822 40.8609 15.9971C39.0372 13.1722 36.3041 11.0543 33.1134 9.9935C24.5262 7.43563 15.8358 13.1367 6.9486 14.0903C2.57809 14.5531 -1.83465 13.8656 -6.24798 13.8961C-12.5415 13.9915 -23.5215 17.232 -25.1748 24.5372Z" stroke="#DEECF4" stroke-miterlimit="10"/>
<path d="M159.218 92.7303C159.491 93.5675 159.539 94.4616 159.358 95.3233C159.088 96.1628 158.58 96.9063 157.897 97.4642C154.278 100.73 148.581 100.749 144.115 98.7592C139.783 96.488 135.955 93.3641 132.861 89.5753C129.132 85.5433 104.15 62.5828 117.492 59.6261C121.779 58.6663 124.92 63.1601 127.711 65.6718C132.819 70.2474 138.983 73.4724 144.747 77.1374C150.511 80.8024 157.316 85.4107 159.218 92.7303Z" stroke="#DEECF4" stroke-miterlimit="10"/>
<path d="M297.287 634.113C310.819 647.042 322.047 662.384 336.516 674.252C339.419 676.631 342.673 678.954 346.401 679.262C358.527 680.287 361.943 662.595 371.549 655.046C379.669 648.54 391.857 650.535 400.887 655.782C409.917 661.029 416.815 669.041 425.313 675.042C435.093 681.98 446.562 686.152 458.513 687.12C466.755 687.772 476.921 685.493 479.327 677.576C481.138 671.597 477.492 665.423 473.696 660.462C455.254 636.404 429.906 618.55 401.041 609.289C385.063 604.213 368.22 601.861 352.757 595.377C340.236 590.134 328.964 582.333 317.245 575.55C305.526 568.767 292.712 562.92 279.159 562.162C265.606 561.405 251.024 566.644 243.683 578.078C235.158 591.369 239.805 607.54 253.585 612.357C270.506 618.369 282.847 620.295 297.287 634.113Z" stroke="#DEECF4" stroke-miterlimit="10"/>
<path d="M297.784 578.061C285.847 573.424 271.569 571.388 260.83 578.372C258.89 579.54 257.25 581.147 256.042 583.063C253.445 587.628 254.984 593.649 258.404 597.625C261.825 601.602 266.725 603.917 271.581 605.916C284.295 611.155 298.041 615.148 308.196 624.416C320.535 635.693 326.542 653.907 341.554 661.274C342.46 661.828 343.468 662.194 344.519 662.351C345.569 662.508 346.64 662.452 347.669 662.187C349.917 661.46 351.14 659.125 352.344 657.028C355.746 651.606 360.609 647.254 366.375 644.473C372.14 641.692 378.574 640.595 384.935 641.308C392.9 642.302 400.157 646.086 407.565 649.316C414.973 652.546 423.017 655.105 430.907 653.407C431.749 653.312 432.536 652.942 433.146 652.353C433.499 651.882 433.734 651.334 433.832 650.754C435.732 642.593 431.022 634.028 424.384 628.919C417.746 623.81 409.437 621.453 401.355 619.198L339.005 601.745C330.748 599.43 326.743 595.022 320.096 590.187C313.203 585.216 305.705 581.141 297.784 578.061Z" stroke="#DEECF4" stroke-miterlimit="10"/>
<path d="M200.965 576.761C199.112 581.648 198.16 588.125 202.353 591.25C204.678 592.981 207.801 592.98 210.651 593.514C213.894 594.133 216.953 595.487 219.592 597.472C222.231 599.457 224.381 602.019 225.877 604.963C226.657 606.534 227.946 608.542 229.598 607.95C231.249 607.358 230.904 604.85 230.225 603.169C226.952 595.148 224.256 586.572 225.057 577.952C225.858 569.331 230.84 560.562 239.003 557.669C243.811 555.92 249.073 556.353 254.158 556.241C259.364 556.171 264.55 555.592 269.643 554.512C272 554.002 274.581 553.225 275.796 551.164C277.011 549.102 276.452 546.412 275.708 544.111C270.931 529.215 261.377 516.309 248.525 507.39C246.085 505.369 243.018 504.262 239.85 504.259C236.093 504.64 233.128 507.888 231.724 511.407C230.587 515.031 229.797 518.756 229.365 522.53C228.933 526.341 227.171 529.878 224.39 532.519C220.791 535.429 215.759 535.466 211.15 535.851C206.541 536.235 201.322 537.613 199.271 541.768C197.695 544.994 198.571 548.843 199.731 552.251C202.986 561.655 204.672 566.988 200.965 576.761Z" stroke="#DEECF4" stroke-miterlimit="10"/>
<path d="M206.818 574.402C208.448 570.926 210.791 567.491 210.632 563.643C210.506 560.793 208.994 558.217 208.014 555.546C207.034 552.876 206.561 549.614 208.321 547.377C209.383 546.192 210.765 545.341 212.301 544.926C218.061 543.063 225.265 543.022 228.567 537.997C231.348 533.819 230.196 527.557 233.782 524.127C235.063 523.095 236.597 522.424 238.225 522.184C239.853 521.944 241.516 522.144 243.04 522.762C246.062 524.051 248.822 525.88 251.188 528.159C254.947 531.386 258.839 534.783 260.643 539.399C261.188 540.549 261.387 541.832 261.217 543.093C260.599 546.223 256.834 547.537 253.74 548.169C245.307 549.926 236.544 551.325 229.19 555.818C221.835 560.311 216.195 568.964 218.116 577.364C219.571 583.663 221.266 590.584 212.828 587.648C206.247 585.354 203.473 581.575 206.818 574.402Z" stroke="#DEECF4" stroke-miterlimit="10"/>
<path d="M181.18 458.476C180.305 446.537 184.044 434.717 191.627 425.454C195.568 420.843 200.575 417.129 204.324 412.405C209.413 405.968 212.124 397.971 211.999 389.766C211.9 381.902 209.177 374.324 207.834 366.572C206.864 360.986 206.609 355.299 207.075 349.648C207.042 348.423 207.253 347.204 207.697 346.061C208.14 344.919 208.806 343.876 209.657 342.994C210.565 342.37 211.62 341.995 212.717 341.906C213.815 341.816 214.916 342.015 215.913 342.483C217.915 343.45 219.656 344.883 220.989 346.662C226.719 353.461 229.935 361.966 233.874 369.946C237.812 377.926 242.913 385.899 250.915 389.887C256.238 392.55 262.425 393.265 267.488 396.381C273.224 399.9 276.978 406.892 275.653 413.47C274.241 420.562 267.881 425.431 264.38 431.763C258.731 442.068 261.408 454.665 261.285 466.403C261.243 469.87 260.812 473.637 258.402 476.143C255.668 478.968 251.13 479.271 247.304 478.239C243.591 476.901 239.949 475.372 236.394 473.658C232.7 472.253 228.38 471.613 224.913 473.491C222.558 475.031 220.611 477.119 219.237 479.575L213.232 488.54C210.079 493.246 206.523 496.529 200.531 494.975C196.96 494.231 193.768 492.246 191.521 489.373C185.443 480.15 181.879 469.499 181.18 458.476Z" stroke="#DEECF4" stroke-miterlimit="10"/>
<path d="M187.918 458.916C187.202 449.564 189.105 439.132 196.368 433.214C199.767 430.407 204.019 428.799 207.736 426.375C213.21 422.665 216.979 416.984 220.63 411.477C221.922 409.764 222.887 407.827 223.477 405.764C223.817 403.786 223.819 401.765 223.484 399.787L220.662 377.264C220.55 376.845 220.531 376.407 220.608 375.979C220.684 375.552 220.854 375.147 221.105 374.793C222.194 373.723 223.97 374.895 224.952 376.071C231.483 383.969 235.365 394.412 243.996 399.924C249.126 403.192 256.144 405.036 258.111 410.879C259.327 414.637 257.872 418.716 255.927 422.12C253.981 425.523 251.367 428.657 250.201 432.43C248.584 437.686 249.852 443.348 250.878 448.74C251.904 454.131 252.452 460.084 249.631 464.799C249.04 465.956 248.052 466.862 246.847 467.348C245.33 467.634 243.761 467.363 242.429 466.585C239.012 464.849 235.489 463.332 231.881 462.042C228.222 460.753 224.215 460.867 220.635 462.361C211.442 466.809 212.5 484.838 202.601 486.682C191.474 488.748 188.44 465.867 187.918 458.916Z" stroke="#DEECF4" stroke-linecap="round" stroke-linejoin="round" stroke-dasharray="1.97 3.95"/>
<path d="M195.471 469.432C195.542 470.008 195.727 470.564 196.016 471.067C196.306 471.57 196.693 472.009 197.155 472.36C198.903 473.327 200.898 471.576 202.062 469.958C206.822 463.259 210.021 455.337 215.991 449.681C217.655 447.831 219.953 446.672 222.43 446.435C224.899 446.393 227.075 447.843 229.278 448.954C231.48 450.065 234.229 450.826 236.312 449.531C239.136 447.764 238.84 443.669 238.823 440.319C238.825 435.965 239.88 431.676 241.901 427.819C242.992 426.109 243.856 424.264 244.472 422.332C244.747 420.657 244.653 418.942 244.198 417.307C243.743 415.672 242.937 414.155 241.837 412.863C240.088 410.577 237.287 408.515 234.547 409.401C233.6 409.76 232.75 410.337 232.065 411.084C231.381 411.831 230.88 412.728 230.604 413.702C229.915 415.593 229.71 417.658 229.132 419.591C227.103 426.572 220.645 431.26 214.269 434.757C208.631 437.841 199.094 440.984 195.054 446.307C190.47 452.29 193.766 462.961 195.471 469.432Z" stroke="#DEECF4" stroke-miterlimit="10"/>
<path d="M20.5591 341.234C2.08304 340.012 -15.7938 334.464 -33.4604 328.906L-69.038 317.695L-104.277 306.51C-106.637 305.842 -108.903 304.88 -111.023 303.647C-119.259 298.396 -119.829 285.834 -114.793 277.474C-109.756 269.113 -100.832 264.015 -92.2095 259.423C-83.9222 255.055 -75.5893 250.827 -66.4329 249.146C-60.3441 248.14 -54.1636 247.8 -48.0011 248.132C-33.3179 248.544 -18.4066 250.201 -4.77419 255.822C2.08825 258.686 8.4924 262.532 15.2236 265.709C29.2965 272.332 44.5997 275.861 59.1479 281.555C71.0201 286.232 83.111 293.205 88.2425 304.873C89.9694 308.525 90.5611 312.612 89.9411 316.604C87.6804 328.509 72.5384 329.798 63.4343 334.1C49.9811 340.083 35.2249 342.539 20.5591 341.234Z" stroke="#DEECF4" stroke-miterlimit="10"/>
<path d="M-100.327 292.99C-98.7619 296.57 -95.9048 299.429 -92.3253 300.995C-88.4179 302.7 -84.0165 302.692 -79.7674 302.754C-63.5086 303.297 -47.4313 306.35 -32.1046 311.803C-23.6037 314.874 -15.3596 318.59 -6.6474 320.875C8.31945 324.803 24.0094 324.249 39.4717 323.711C45.5968 323.515 51.9855 323.233 57.3418 320.24C62.6982 317.247 66.5229 310.597 64.2916 304.897C62.4429 300.141 57.1941 297.648 52.2432 296.436C44.3625 294.503 36.1309 294.605 28.1852 292.771C20.9627 290.765 13.9682 288.014 7.31423 284.563C-16.2517 273.541 -41.8617 263.936 -67.7083 267.038C-73.2683 267.42 -78.6281 269.267 -83.2428 272.392C-87.9437 275.852 -90.7156 280.958 -96.2387 283.016C-100.872 284.825 -102.568 287.798 -100.327 292.99Z" stroke="#DEECF4" stroke-miterlimit="10"/>
<path d="M-81.0935 289.176C-80.2471 291.793 -77.2462 293.034 -74.523 293.356C-69.9222 293.905 -65.2841 292.89 -60.6682 292.406C-49.7932 291.287 -38.8203 293.189 -28.9563 297.903C-24.1672 300.234 -19.7274 303.105 -14.9971 305.494C-3.55687 311.23 9.23849 313.715 21.9941 312.679C24.1925 312.644 26.3427 312.029 28.2269 310.896C29.1471 310.301 29.834 309.408 30.172 308.365C30.5099 307.323 30.4781 306.196 30.082 305.175C29.3924 304.066 28.3795 303.195 27.1798 302.679C16.9245 297.363 4.50927 298.565 -6.61411 295.663C-12.3168 293.92 -17.9272 291.889 -23.4237 289.576C-34.2626 285.745 -45.5571 283.352 -57.0182 282.457C-61.9584 281.998 -84.6511 277.755 -81.0935 289.176Z" stroke="#DEECF4" stroke-miterlimit="10"/>
<path d="M-44.0294 397.003C-39.5565 400.096 -34.7107 402.603 -30.09 405.493C-25.9365 408.404 -21.5465 410.962 -16.9661 413.141C-14.665 414.218 -12.1701 414.819 -9.63112 414.907C-7.09211 414.996 -4.56131 414.572 -2.1905 413.659C-1.76674 413.516 -1.40001 413.241 -1.14441 412.874C-0.90626 412.34 -0.879968 411.735 -1.07086 411.182C-2.06008 406.581 -3.66149 402.134 -5.83236 397.958C-6.99174 395.753 -8.35412 393.4 -7.9814 390.893C-7.46654 387.507 -3.90527 385.501 -0.76559 384.292C2.37409 383.082 6.05717 381.814 7.59062 378.757C8.19923 377.339 8.37935 375.774 8.10874 374.255C7.83812 372.736 7.12861 371.33 6.0678 370.209C3.88713 368.004 1.02675 366.598 -2.05126 366.219C-8.81265 365.108 -15.6198 367.154 -22.4166 368.033C-34.5794 369.513 -46.9139 367.577 -58.0387 362.443C-60.6781 361.24 -63.3835 358.933 -65.5972 361.686C-66.9135 363.315 -67.0214 367.54 -66.689 369.528C-65.9297 374.035 -61.8144 378.602 -59.167 382.169C-54.99 387.929 -49.8725 392.943 -44.0294 397.003Z" stroke="#DEECF4" stroke-miterlimit="10"/>
<path d="M21.4085 400.789C22.3457 408.246 26.3378 414.831 31.2025 420.455C39.3858 429.876 50.0016 436.865 61.8894 440.659C67.7452 442.51 73.8532 443.58 79.6429 445.646C85.4325 447.712 91.0599 450.955 94.4344 456.111C96.0347 458.985 97.4774 461.944 98.7563 464.976C100.617 468.911 103.512 472.266 107.133 474.682C108.944 475.876 110.995 476.657 113.141 476.969C115.287 477.281 117.476 477.116 119.551 476.486C126.717 474.169 130.06 465.852 130.875 458.352C131.689 450.852 130.93 443.047 133.661 436.014C138.435 423.722 152.572 417.288 158.306 405.384C160.053 401.406 160.964 397.112 160.984 392.768C161.004 388.423 160.132 384.121 158.422 380.127C154.905 372.137 149.482 365.131 142.628 359.724C139.958 357.366 136.939 355.437 133.678 354.005C127.629 351.557 120.755 351.957 114.385 353.377C103.524 355.783 93.3895 361.04 82.8826 364.903C68.6683 370.14 53.4185 374.335 38.7618 378.144C33.3906 379.532 29.6426 379.58 25.8625 384.508C22.3561 389.168 20.7628 394.992 21.4085 400.789Z" stroke="#DEECF4" stroke-miterlimit="10"/>
<path d="M98.3222 445.696C101.765 449.685 103.998 454.55 107.048 458.821C109.308 461.97 112.794 465.072 116.555 464.224C117.22 464.1 117.833 463.78 118.315 463.306C118.637 462.871 118.869 462.378 118.999 461.853C119.129 461.328 119.154 460.783 119.072 460.248C118.773 454.525 115.342 449.194 115.242 443.425C115.195 439.561 116.653 435.791 116.915 431.923C117.177 428.056 115.689 423.512 111.999 422.3C108.309 421.088 104.419 423.878 101.847 426.902C99.2749 429.926 97.0885 433.543 93.4106 434.888C90.3944 435.999 86.9445 435.35 83.968 436.584C82.2571 437.292 81.9015 439.192 83.4991 440.053C84.2078 440.445 87.1821 439.444 88.1325 439.563C92.1695 440.28 95.7988 442.465 98.3222 445.696Z" stroke="#DEECF4" stroke-miterlimit="10"/>
<path d="M51.544 401.771C52.4427 403.873 54.0032 405.623 55.9883 406.755C63.6801 411.523 73.6925 409.43 82.1331 406.196C90.5738 402.962 99.0827 398.619 108.107 399.348C112.575 399.727 116.903 401.353 121.392 401.376C125.881 401.399 130.927 399.068 131.854 394.675C132.683 390.818 129.985 387.035 126.778 384.677C124.176 382.782 121.199 381.463 118.048 380.81C114.896 380.157 111.641 380.183 108.5 380.888C100.673 382.721 94.4913 388.561 87.3827 392.315C83.6951 394.264 79.7411 395.66 75.6475 396.459C71.5331 397.203 67.3482 397.483 63.1714 397.293C58.928 397.249 48.5392 393.8 51.544 401.771Z" stroke="#DEECF4" stroke-miterlimit="10"/>
<path d="M74.8421 473.272C74.0207 471.897 73.4363 470.394 73.1132 468.826C72.9491 468.028 73.0034 467.201 73.2702 466.432C73.537 465.663 74.0066 464.98 74.6293 464.455C75.5421 463.933 76.6045 463.734 77.6445 463.89C78.6845 464.047 79.6412 464.55 80.3597 465.318C81.7589 466.882 82.8569 468.69 83.5983 470.653C85.725 475.08 88.5728 479.121 92.0253 482.614C94.1021 484.716 96.6877 486.712 99.6366 486.593C101.762 486.507 103.979 485.324 105.903 486.235C106.6 486.674 107.19 487.264 107.63 487.961C108.071 488.658 108.35 489.444 108.447 490.262C109.721 496 108.237 501.97 106.093 507.455C103.948 512.941 101.076 518.098 99.3798 523.711C98.6407 526.787 97.7228 529.817 96.6307 532.786C95.0274 536.467 88.9894 543.231 85.2481 537.961C82.608 534.237 86.5393 530.676 87.1559 527.004C89.0504 515.586 86.3571 502.819 82.8117 491.976C80.6511 485.541 77.9863 479.287 74.8421 473.272Z" stroke="#DEECF4" stroke-miterlimit="10"/>
<path d="M102.671 505.575C103.241 503.909 103.469 502.146 103.342 500.391C103.36 499.476 103.191 498.567 102.847 497.719C102.668 497.3 102.387 496.932 102.028 496.651C101.669 496.371 101.245 496.185 100.795 496.113C99.5523 495.991 98.469 497.02 97.2309 497.091C96.6015 497.07 95.9878 496.889 95.4481 496.564C94.9085 496.24 94.4609 495.782 94.1479 495.236C93.5022 494.132 92.7946 493.065 92.0283 492.042C91.8579 491.821 91.6225 491.66 91.3553 491.58C90.7903 491.452 90.2664 491.932 90.022 492.496C88.7562 495.001 89.8561 497.982 90.8951 500.595C91.8257 502.89 92.4479 505.298 92.7456 507.756C92.905 509.509 92.0627 512.303 94.0151 513.302C96.9029 514.793 101.863 507.815 102.671 505.575Z" stroke="#DEECF4" stroke-miterlimit="10"/>
<path d="M-8.12607 475.389C-14.4961 470.989 -21.3269 467.203 -26.9179 461.853C-28.7504 460.413 -29.9704 458.333 -30.333 456.031C-30.4778 452.644 -27.0973 449.96 -23.7376 449.611C-20.3384 449.544 -16.9777 450.339 -13.9691 451.923L16.6309 464.899C23.4511 467.539 30.0031 470.825 36.1974 474.712C41.5486 478.479 46.4805 482.809 50.9085 487.628C55.3554 491.842 58.956 496.867 61.5166 502.433C64.1786 509.647 64.3278 517.549 61.9401 524.858C59.5562 532.107 55.9967 538.914 51.404 545.008C49.0327 548.413 46.3096 551.99 42.2876 553.291C31.3122 557.325 33.8152 545.749 33.0597 539.514C31.9438 530.769 29.4158 522.263 25.5743 514.328C17.8989 498.652 6.28712 485.234 -8.12607 475.389Z" stroke="#DEECF4" stroke-miterlimit="10"/>
<path d="M-2.94715 470.706C-5.27451 469.208 -8.07286 466.854 -6.97543 464.249C-5.73278 461.073 -0.968864 462.306 1.91633 464.089C17.2524 473.689 31.5886 484.799 44.7105 497.256C49.1094 501.44 53.5279 506.044 55.6141 511.655C58.0251 518.15 56.4933 528.831 48.3576 530.608C39.6428 532.515 37.8829 519.814 35.1381 514.087C26.6858 496.391 13.505 481.378 -2.94715 470.706Z" stroke="#DEECF4" stroke-miterlimit="10"/>
<path d="M-37.3789 515.946C-38.9906 513.78 -40.2478 511.37 -41.1033 508.809C-41.5003 507.518 -41.4737 506.133 -41.0274 504.858C-40.5812 503.583 -39.7387 502.483 -38.6231 501.721C-37.6168 501.315 -36.5366 501.125 -35.4522 501.162C-34.3677 501.198 -33.303 501.462 -32.3265 501.935C-24.054 505.08 -17.8805 511.872 -12.5491 518.819C-8.04861 524.697 -3.78067 531.115 -2.52683 538.412C-1.27299 545.708 -3.76523 554.138 -10.1672 557.858C-14.7853 560.554 -21.5459 561.305 -23.0977 566.404C-23.4702 567.592 -23.4699 568.853 -23.8657 570.028C-25.963 576.08 -34.2615 573.875 -36.9037 569.725C-40.289 564.476 -36.3355 561.044 -34.1742 556.329C-28.3881 543.807 -30.1977 527.534 -37.3789 515.946Z" stroke="#DEECF4" stroke-miterlimit="10"/>
<path d="M-79.3632 -26.8851C-104.351 -11.5292 -112.807 23.3901 -102.435 50.9012C-92.0637 78.4124 -66.4672 97.9927 -38.5637 107.011C-16.207 114.233 8.5527 115.81 27.9897 129.001C41.3458 138.087 50.7613 151.784 62.3879 163.02C84.1517 184.009 113.134 195.853 143.368 196.116C173.603 196.378 202.787 185.038 224.911 164.431C234.842 155.186 243.404 143.629 245.613 130.246C250.287 101.807 225.838 76.7149 222.142 48.1311C221.85 46.6214 221.918 45.0641 222.34 43.5856C223.292 40.9498 226.066 39.5678 228.449 38.1182C239.518 31.376 245.759 18.94 249.862 6.67157C256.787 -14.5208 259.06 -36.9573 256.527 -59.1079C253.993 -81.2586 246.713 -102.602 235.182 -121.684L236.287 -118.627" stroke="#DEECF4" stroke-miterlimit="10"/>
<path d="M-112.305 -6.55145C-117.68 7.60271 -122.444 22.0834 -123.916 37.0898C-125.829 55.1685 -122.505 74.4441 -111.362 88.8047C-96.9411 107.421 -72.7435 114.398 -50.9072 123.011C-27.9193 132.108 -6.11308 143.945 14.0386 158.267C36.4164 174.194 56.9561 193.314 82.0742 204.397C119.99 221.099 164.622 217.296 203.019 201.774C210.94 198.857 218.372 194.753 225.059 189.603C232.386 183.586 237.938 175.737 243.256 167.887C254.66 151.259 266.332 132.644 264.323 112.574C262.454 93.7786 248.618 75.7105 254.133 57.6699C256.154 51.0217 260.599 45.4518 264.115 39.465C282.211 8.74169 275.262 -29.964 267.735 -64.8165C263.005 -86.7607 258.267 -108.709 253.521 -130.661" stroke="#DEECF4" stroke-linecap="round" stroke-linejoin="round" stroke-dasharray="2 4"/>
<path d="M214.698 272.319C227.35 269.449 239.841 264.343 249.382 255.515C258.924 246.686 265.164 233.707 263.779 220.789C263.262 215.951 261.48 210.92 257.548 208.06C252.764 204.544 245.946 205.177 240.645 207.862C235.344 210.546 231.177 214.939 226.781 218.98C211.064 233.608 191.059 244.695 169.598 245.64C158.958 246.094 148.037 244.116 137.852 247.177C130.302 249.444 125.313 256.393 131.925 262.441C137.199 267.293 150.58 269.736 157.429 271.478C176.185 276.275 195.809 276.563 214.698 272.319Z" stroke="#DEECF4" stroke-miterlimit="10"/>
<path d="M208.002 264.571C219.333 263.543 230.152 259.372 239.24 252.528C244.307 248.581 248.97 242.242 246.788 236.216C245.08 231.472 239.509 229.006 234.486 229.369C229.463 229.733 224.886 232.319 220.664 235.1C212.801 240.301 205.309 246.468 196.301 249.207C190.331 251.021 184.124 251.205 177.986 252.142C173.941 252.83 166.922 256.322 172.583 260.33C176.528 263.109 184.516 263.514 189.186 264.157C195.418 265.05 201.736 265.189 208.002 264.571Z" stroke="#DEECF4" stroke-miterlimit="10"/>
<path d="M255.223 328.704C252.924 330.963 251.301 333.819 250.538 336.951C248.835 343.679 249.497 350.788 252.413 357.086C255.33 363.383 260.322 368.487 266.555 371.541C278.845 377.15 296.036 375.179 302.984 386.764C306.618 392.844 305.995 401.116 310.793 406.355C314.337 410.233 319.96 411.363 325.205 411.626C342.074 412.437 358.767 406.166 372.694 396.501C386.621 386.837 397.862 373.967 408.035 360.492C414.699 351.644 421.011 342.367 424.805 331.963C429.054 320.268 429.95 307.621 430.055 295.171C430.277 268.502 427.043 241.825 428.332 215.218C429.621 188.612 435.927 161.139 452.801 140.492C460.964 130.519 471.316 122.457 479.113 112.194C494.501 91.9308 497.676 61.3188 481.919 41.4472C472.228 29.1778 456.703 22.3256 441.105 21.1234C425.506 19.9211 409.873 23.8905 395.561 30.265C374.345 39.7065 354.972 55.2062 345.361 76.3564C335.75 97.5066 336.741 122.406 337.207 145.982C337.9 181.811 336.536 217.65 333.122 253.324C331.938 265.501 330.473 277.887 325.4 289.014C319.296 302.415 308.469 312.124 295.417 318.498C290.386 321.199 285.013 323.211 279.445 324.479C271.347 325.953 262.002 322.612 255.223 328.704Z" stroke="#DEECF4" stroke-miterlimit="10"/>
<path d="M286.78 357.298C294.132 358.315 302.381 358.208 307.776 363.312C314.34 369.511 313.535 380.578 319.374 387.477C322.496 390.836 326.59 393.134 331.083 394.05C345.843 397.696 361.829 391.46 373.308 381.365C384.787 371.27 392.602 357.762 399.827 344.29C407.627 329.778 415.095 314.598 416.818 298.21C417.458 290.25 417.338 282.246 416.46 274.309C414.433 249.744 411.233 225.093 412.359 200.441C413.485 175.788 419.273 150.675 433.568 130.571C442.389 118.134 454.344 107.711 460.475 93.797C466.607 79.8831 464.17 60.0492 450.173 54.0222C445.033 51.8046 439.265 51.8463 433.678 51.9071C420.835 52.0255 407.828 52.1774 395.4 55.44C382.972 58.7026 370.986 65.4307 363.978 76.2137C358.704 84.3213 356.649 94.1038 354.65 103.519C349.002 130.566 343.322 157.933 343.933 185.555C344.168 195.819 345.267 206.056 345.484 216.326C346.219 250.213 338.308 291.435 319.527 320.285C312.637 330.894 303.656 334.496 291.536 336.67C285.409 337.759 272.38 336.405 270.46 343.486C268.336 351.855 280.974 356.498 286.78 357.298Z" stroke="#DEECF4" stroke-miterlimit="10"/>
<path d="M378.857 99.7255C379.544 95.8248 380.855 92.0601 382.739 88.5759C385.556 84.2482 389.405 80.6897 393.941 78.2216C399.786 74.7015 406.791 72.1258 413.371 73.8776C421.233 75.9912 426.514 84.0416 427.328 92.1395C428.143 100.237 425.251 108.331 421.282 115.435C417.313 122.538 412.421 129.126 408.626 136.289C403.355 146.084 400.229 156.872 395.562 166.976C392.484 173.597 388.25 180.36 381.547 183.148C374.844 185.937 365.234 182.255 364.574 175.057C364.539 172.031 365.26 169.044 366.672 166.367C371.144 155.9 375.576 147.23 375.8 135.925C375.996 123.872 375.541 111.487 378.857 99.7255Z" stroke="#DEECF4" stroke-miterlimit="10"/>
<path d="M321.32 337.824C319.309 341.326 318.696 345.967 320.966 349.327C326.328 349.532 332.632 350.248 335.199 354.947C337.468 359.083 335.668 364.496 337.463 368.785C340.012 374.808 348.688 375.96 354.339 372.678C359.99 369.395 363.203 363.196 365.93 357.289C381.787 322.438 390.278 284.689 390.869 246.404C390.95 241.198 390.652 235.416 387.002 231.688C381.674 226.253 371.823 228.605 366.92 234.439C354.228 249.601 359.452 275.654 353.791 293.722C347.927 312.361 330.423 321.882 321.32 337.824Z" stroke="#DEECF4" stroke-miterlimit="10"/>
<path d="M339.5 340.772C339.697 341.348 340.033 341.866 340.478 342.28C340.924 342.694 341.465 342.992 342.053 343.147C342.912 343.143 343.768 343.061 344.612 342.902C345.441 342.943 346.243 343.207 346.935 343.667C347.626 344.126 348.181 344.763 348.54 345.511C349.206 347.051 349.575 348.701 349.629 350.378C349.629 351.456 349.969 352.507 350.601 353.381C351.184 353.923 351.936 354.246 352.73 354.297C353.524 354.348 354.311 354.122 354.959 353.659C356.237 352.703 357.236 351.422 357.852 349.949C362.338 341.204 364.579 331.517 366.778 321.94L370.744 304.691C370.827 304.473 370.861 304.24 370.843 304.007C370.825 303.775 370.756 303.549 370.639 303.347C370.322 302.965 369.726 302.983 369.229 303.066C363.575 304.119 359.757 309.35 357.003 314.392C353.84 320.207 351.904 324.538 345.718 326.946C340.158 329.191 336.756 334.986 339.5 340.772Z" stroke="#DEECF4" stroke-miterlimit="10"/>
<path d="M380.643 170.093C379.869 170.286 379.051 170.168 378.363 169.764C377.983 169.379 377.709 168.902 377.568 168.38C377.426 167.859 377.422 167.309 377.555 166.785C378.357 160.085 383.355 154.724 386.188 148.667C389.834 141.047 390.204 132.353 391.061 123.966C391.919 115.58 393.545 106.751 398.943 100.349C400.37 98.7623 402.415 97.2863 404.287 98.1553C405.354 98.8007 406.124 99.8421 406.426 101.052C407.948 106.158 407.854 111.609 406.158 116.659C404.455 121.699 402.361 126.598 399.898 131.313C396.466 138.751 393.503 146.396 391.024 154.204C388.857 160.88 389.289 168.694 380.643 170.093Z" stroke="#DEECF4" stroke-miterlimit="10"/>
<path d="M415.524 -6.08645C406.878 -3.96911 395.637 -1.59481 390.806 -9.09244C387.317 -14.4241 389.888 -21.8904 394.423 -26.3445C398.957 -30.7987 405.068 -33.2598 410.509 -36.5908C419.305 -42.0059 426.436 -49.7429 431.117 -58.9501C441.646 -79.6017 440.373 -107.592 458.972 -121.405C462.028 -123.655 466.369 -125.349 469.496 -123.179C473.354 -120.547 472.139 -114.586 470.767 -110.01C464.822 -90.841 464.378 -68.6396 475.676 -52.0594C487.631 -34.4693 510.682 -25.9386 520.026 -6.82498C524.187 1.72322 525.904 17.949 513.459 18.5788C506.153 18.9044 490.323 3.78963 482.945 0.530439C461.805 -9.00738 438.115 -11.3323 415.524 -6.08645Z" stroke="#DEECF4" stroke-miterlimit="10"/>
<path d="M559.7 643.977C546.266 634.412 535.829 621.336 524.195 609.656C479.26 564.592 417.272 541.3 356.132 523.63C345.174 520.462 333.936 517.326 324.49 510.913C315.045 504.501 307.503 494.078 307.728 482.656C308.126 461.633 332.094 450.022 352.51 445.068C375.7 439.508 399.472 435.991 421.862 427.78C444.252 419.569 465.71 405.84 477.1 384.851C484.133 371.985 486.922 357.153 487.38 342.494C488.431 308.67 477.537 275.644 474.891 241.909C472.246 208.175 480.646 169.723 509.212 151.755C546.489 128.331 597.313 150.694 638.598 135.403C659.378 127.674 675.414 111.274 690.688 95.2766L744.319 39.5784C755.532 27.94 767.151 15.9958 781.994 9.58515C796.838 3.17452 815.858 3.61938 827.337 15.0001C837.364 24.9493 839.324 40.7278 836.689 54.6555C834.054 68.5832 827.513 81.2909 822.625 94.5505C810.844 126.655 808.67 161.496 816.368 194.816C825.002 231.89 845.381 264.972 858.814 300.631C861.448 307.636 863.851 315.065 862.856 322.487C861.721 328.828 858.963 334.766 854.851 339.723C815.063 391.856 724.79 376.605 682.301 426.566C659.116 453.794 657.165 492.449 651.717 527.792C646.563 561.136 637.394 593.733 624.409 624.874C619.446 636.761 614.305 652.12 600.631 655.727C586.957 659.335 570.297 651.55 559.7 643.977Z" stroke="#DEECF4" stroke-miterlimit="10" stroke-dasharray="2 4"/>
<path d="M360.214 477.826C357.039 479.105 353.766 480.862 352.191 483.913C349.53 489.119 353.016 495.46 357.371 499.387C370.399 511.12 389.599 511.759 406.436 516.674C427.082 522.685 444.91 535.582 462.297 548.253C491.538 569.564 520.837 590.935 547.794 615.081C554.268 620.883 560.792 626.96 568.841 630.254C576.891 633.548 586.979 633.429 593.411 627.585C599.067 622.458 600.652 614.282 601.637 606.708C604.933 580.907 604.981 554.721 608.306 528.891C611.631 503.062 618.694 477.032 634.28 456.18C638.705 450.307 643.833 444.807 646.882 438.098C651.467 427.982 650.796 416.249 648.448 405.388C645.893 393.469 641.322 381.735 633.32 372.528C625.318 363.321 613.56 356.958 601.385 357.345C585.1 357.858 570.738 369.895 554.44 369.889C541.831 369.892 529.013 362.592 517.165 366.928C507.778 370.294 502.139 380.032 499.537 389.682C496.934 399.331 496.546 409.467 493.489 418.972C486.891 439.361 468.475 454.221 448.437 461.846C420.111 472.637 387.866 466.749 360.214 477.826Z" stroke="#DEECF4" stroke-miterlimit="10"/>
<path d="M548.686 600.805C539.352 594.376 531.652 585.925 523.634 577.867C486.585 540.909 441.946 512.444 392.807 494.446C389.84 493.368 386.178 490.983 387.301 488.04C387.76 487.057 388.514 486.244 389.459 485.712C397.199 480.551 407.172 480.857 416.461 480.666C425.664 480.484 434.841 479.63 443.92 478.11C451.432 476.987 458.801 475.053 465.896 472.341C473.512 469.032 480.835 465.087 487.787 460.547C497.126 454.811 507.091 448.252 510.576 437.793C512.736 431.275 511.861 424.069 512.786 417.213C513.712 410.357 517.427 402.889 524.199 401.455C526.67 401.056 529.197 401.17 531.622 401.79C538.764 403.36 545.539 406.252 552.797 407.28C562.271 408.62 571.856 406.587 581.414 405.786C590.971 404.984 601.33 405.882 608.73 411.967C611.455 414.228 613.627 417.081 615.081 420.309C616.536 423.537 617.233 427.055 617.12 430.594C616.791 438.634 612.278 445.914 607.005 451.984C601.732 458.055 595.515 463.305 590.688 469.736C576.308 488.917 576.271 515.138 578.428 538.904C580.031 556.699 582.531 574.864 579.715 592.672C578.804 598.553 577.384 607.18 570.574 608.917C563.764 610.654 554.123 604.537 548.686 600.805Z" stroke="#DEECF4" stroke-linecap="round" stroke-linejoin="round" stroke-dasharray="1.99 3.98"/>
<path d="M281.552 293.262L285.761 306.276" stroke="#DEECF4" stroke-miterlimit="10"/>
<path d="M290.17 297.653L277.138 301.867" stroke="#DEECF4" stroke-miterlimit="10"/>
</svg>
