<svg width="80" height="80" viewBox="0 0 80 80" fill="none" xmlns="http://www.w3.org/2000/svg">
<g opacity="0.8">
<rect width="80" height="80" rx="40" fill="#F2F6F8"/>
<path d="M56.7695 31.5664C56.5703 30.8244 56.1797 30.1477 55.6367 29.604C55.0938 29.0604 54.4176 28.6689 53.6758 28.4688C50.9453 27.7344 40 27.7344 40 27.7344C40 27.7344 29.0547 27.7344 26.3242 28.4648C25.5821 28.6644 24.9056 29.0556 24.3625 29.5994C23.8195 30.1431 23.4291 30.8201 23.2305 31.5625C22.5 34.2969 22.5 40 22.5 40C22.5 40 22.5 45.7031 23.2305 48.4336C23.6328 49.9414 24.8203 51.1289 26.3242 51.5312C29.0547 52.2656 40 52.2656 40 52.2656C40 52.2656 50.9453 52.2656 53.6758 51.5312C55.1836 51.1289 56.3672 49.9414 56.7695 48.4336C57.5 45.7031 57.5 40 57.5 40C57.5 40 57.5 34.2969 56.7695 31.5664ZM36.5234 45.2344V34.7656L45.5859 39.9609L36.5234 45.2344Z" fill="#0A3647"/>
</g>
</svg>
