<svg width="390" height="1092" viewBox="0 0 390 1092" fill="none" xmlns="http://www.w3.org/2000/svg">
<g clip-path="url(#clip0_2967_83576)">
<path d="M-168.38 1173.46C-183.215 1158.93 -194.232 1140.01 -191.381 1118.27C-189.874 1107.96 -185.62 1098.25 -179.065 1090.15C-172.511 1082.04 -163.897 1075.86 -154.128 1072.23C-120.444 1060.24 -85.1557 1081.3 -52.2326 1095.11C-12.8523 1111.63 39.1466 1115.36 66.5289 1082.63C75.4974 1071.91 80.6128 1058.51 88.747 1047.14C107.103 1021.49 145.778 1004.94 172.255 1022.06C205.188 1043.35 185.737 1058.51 215.373 1078.62C249.422 1101.63 279.15 1082.59 312.715 1106.29C336.893 1123.41 356.351 1146.36 369.28 1173.02C376.633 1188.19 381.869 1205.31 378.271 1221.8C372.458 1248.79 345.613 1265.59 319.838 1275.47C273.579 1293.2 220.831 1300.17 184.465 1333.81C170.911 1346.36 160.412 1362.03 146.002 1373.59C126.488 1389.22 101.504 1395.97 77.2047 1401.92C48.9092 1408.92 19.9545 1415.21 -9.14168 1413.5C-38.2378 1411.78 -67.9894 1401 -86.7619 1378.68C-118.225 1341.16 -105.831 1292.16 -119.084 1248.79C-122.649 1237.82 -127.166 1227.19 -132.582 1217.01C-136.392 1209.48 -141.84 1203.06 -145.885 1195.8C-147.755 1192.44 -150.184 1189.42 -153.068 1186.87C-155.428 1184.82 -157.908 1182.53 -160.365 1180.51C-162.822 1178.49 -165.785 1176.03 -168.38 1173.46Z" stroke="#DEECF4" stroke-linecap="round" stroke-linejoin="round" stroke-dasharray="2.01 4.01"/>
<path d="M-119.724 1190.43C-132.017 1178.39 -141.182 1162.73 -138.804 1144.72C-137.556 1136.17 -134.034 1128.12 -128.607 1121.41C-123.179 1114.7 -116.046 1109.57 -107.954 1106.56C-80.0267 1096.63 -50.7808 1114.08 -23.4521 1125.54C9.16227 1139.19 52.2426 1142.31 74.9543 1115.19C82.381 1106.34 86.6166 1095.2 93.3634 1085.78C108.572 1064.54 138.884 1053.88 162.545 1065.02C172.796 1069.82 181 1077.99 189.979 1084.9C216.972 1105.68 251.11 1115.15 278.921 1134.81C298.956 1148.99 315.08 1168 325.792 1190.09C331.877 1202.66 336.17 1216.8 333.236 1230.5C328.441 1252.87 306.184 1266.79 284.824 1274.98C246.496 1289.68 202.786 1295.44 172.656 1323.33C161.429 1333.7 152.73 1346.72 140.787 1356.27C124.619 1369.23 103.845 1374.85 83.8008 1379.75C60.3311 1385.47 36.3673 1390.79 12.251 1389.33C-11.8652 1387.88 -36.4775 1379.04 -52.0654 1360.46C-78.2036 1329.38 -67.8622 1288.77 -78.8227 1252.82C-81.7996 1243.7 -85.5579 1234.86 -90.0558 1226.39C-93.2115 1220.15 -97.7197 1214.84 -101.142 1208.84C-102.688 1206.1 -104.682 1203.64 -107.042 1201.56C-109.01 1199.85 -111.061 1197.96 -113.043 1196.28C-115.025 1194.6 -117.597 1192.49 -119.724 1190.43Z" stroke="#DEECF4" stroke-linecap="round" stroke-linejoin="round"/>
<path d="M-71.0744 1207.38C-80.8176 1197.84 -102.904 1179.02 -101.012 1164.75C-100.023 1157.96 -97.2184 1151.56 -92.894 1146.23C-88.5695 1140.9 -82.8859 1136.84 -76.4434 1134.47C-54.2983 1126.58 -25.072 1150.54 -3.4023 1159.64C22.4586 1170.48 65.4234 1169.19 83.4193 1147.67C89.3241 1140.63 92.6731 1131.79 98.0256 1124.37C110.118 1107.57 134.143 1099.05 152.829 1107.89C160.957 1111.71 167.458 1118.19 174.581 1123.69C195.972 1140.16 223.135 1147.65 245.097 1163.16C260.974 1174.41 273.753 1189.48 282.248 1206.98C287.083 1216.95 290.491 1228.22 288.171 1239.04C284.348 1256.77 266.698 1267.81 249.748 1274.3C219.356 1285.97 184.704 1290.52 160.803 1312.64C151.896 1320.89 145.005 1331.19 135.541 1338.79C122.713 1349.06 106.279 1353.49 90.3342 1357.38C71.7084 1361.94 52.7047 1366.13 33.5873 1364.99C14.4698 1363.85 -5.08556 1356.78 -17.4323 1342.11C-38.155 1317.48 -29.9565 1285.25 -38.5991 1256.73C-40.9555 1249.53 -43.9328 1242.55 -47.4976 1235.86C-49.9994 1230.91 -53.5739 1226.7 -56.2969 1221.93C-57.5347 1219.73 -59.1334 1217.75 -61.0263 1216.07C-62.5975 1214.74 -64.2253 1213.22 -65.8354 1211.9C-67.4454 1210.57 -69.4026 1209.03 -71.0744 1207.38Z" stroke="#DEECF4" stroke-linecap="round" stroke-linejoin="round"/>
<path d="M-460.658 424.491C-463.718 434.952 -460.768 445.466 -458.568 455.857C-456.974 463.374 -455.309 470.846 -453.178 478.232C-449.742 490.177 -444.01 501.337 -436.303 511.088C-422.278 529.488 -404.71 545.626 -383.387 555.181C-372.337 560.172 -360.786 563.967 -348.929 566.501C-337.242 569.165 -325.055 568.642 -313.639 564.989C-304.9 562.531 -296.63 558.637 -289.168 553.467C-279.529 546.613 -271.329 538.699 -262.362 531.032C-221.377 496.065 -168.497 469.32 -113.416 480.263C-60.4499 490.774 -17.9998 530.327 32.8361 548.463C75.2466 563.59 122.062 563.118 166.076 553.587C201.421 545.936 238.756 529.695 253.952 496.862C269.892 462.414 256.332 422.344 254.824 384.411C252.011 313.29 292.248 248.714 325.954 185.991C355.473 131.174 413.079 2.50066 338.095 -39.5674C327.306 -45.6351 315.847 -49.7249 304.497 -54.4728C295.297 -58.6983 285.73 -62.074 275.915 -64.5578C266.945 -66.5963 257.802 -67.4407 248.598 -68.6089C239.147 -70.0453 229.557 -70.3331 220.037 -69.4659C209.07 -68.3431 198.19 -66.489 187.47 -63.9161C168.858 -59.4432 153.662 -48.2579 138.006 -37.5679C127.256 -30.2329 116.975 -22.2316 107.226 -13.6111C96.8358 -4.36662 85.7971 3.73476 74.768 12.1981C56.3407 26.3399 38.9088 41.8993 19.4083 54.6486C-2.17145 69.0526 -24.5107 82.2848 -47.5126 94.2879C-56.2831 98.7779 -65.0547 103.397 -74.1551 107.199C-86.7774 112.463 -100.359 115.889 -113.347 120.089C-126.334 124.289 -139.588 129.391 -153.033 132.709C-166.313 135.879 -179.886 137.663 -193.534 138.032C-203.96 138.398 -214.288 138.602 -224.693 139.368C-237.554 140.306 -250.531 139.757 -263.34 141.258C-275.171 142.657 -287.212 141.419 -299.027 143.801C-310.671 145.875 -322.076 149.125 -333.065 153.499C-355.029 162.749 -373.609 177.349 -391.301 193.1C-401.403 201.805 -410.651 211.455 -418.919 221.918C-427.681 233.342 -433.485 246.408 -438.426 259.882C-442.347 270.536 -446.986 281.227 -448.8 292.552C-450.03 300.037 -450.861 307.629 -451.762 315.136C-453.067 325.974 -451.841 337.003 -452.888 347.843C-454.711 366.645 -453.064 385.483 -455.984 404.145C-456.588 407.991 -458.436 410.909 -459.805 414.444C-460.439 416.693 -460.881 418.991 -461.127 421.314C-461.858 425.03 -465.676 428.498 -460.658 424.491Z" stroke="#DEECF4" stroke-miterlimit="10"/>
<path d="M562.874 978.676C555.349 979.76 547.72 979.92 540.156 979.151C478.405 973.35 450.827 922.673 408.233 885.464C398.444 876.736 387.725 869.111 376.269 862.728C331.216 838.169 270.529 841.237 234.131 801.208C216.784 782.164 208.839 752.949 220.148 729.813C231.457 706.676 258.455 695.196 283.899 689.867C309.342 684.538 336.228 682.672 358.882 669.912C392.563 651.074 409.989 612.451 418.074 576.291C426.738 537.474 417.579 502.509 414.805 463.719C412.68 434.103 417.738 403.26 433.614 378.175C449.49 353.089 477.146 334.545 506.851 333.959C534.08 333.421 559.965 347.32 587.209 347.293C644.56 347.258 660.907 289.097 694.879 254.487C715.878 233.092 746.967 212.944 775.455 203.882C797.25 196.833 822.65 197.08 841.612 209.825C853.804 217.973 862.39 230.444 869.584 243.194C874.628 252.15 879.304 261.827 879.238 272.114C878.827 279.252 877.16 286.261 874.316 292.82C867.492 310.768 857.497 327.144 850.765 345.042C827.187 408.268 869.996 479.877 894.01 536.667C897.686 545.379 901.27 554.335 901.89 563.756C903.692 591.307 879.064 623.862 856.24 637.557C823.612 657.129 782.856 656.35 747.933 670.285C722.388 680.48 698.425 696.498 683.388 719.529C642.594 782.117 657.996 867.593 623.048 933.315C609.429 959.003 589.086 974.859 562.874 978.676Z" stroke="#DEECF4" stroke-miterlimit="10"/>
<path d="M-392.492 750.551C-390.842 730.819 -384.482 711.771 -373.945 695.008C-346.713 652.376 -293.105 590.498 -241.017 581.427C-180.607 570.931 -124.753 624.039 -63.5097 620.898C-32.5422 619.302 -4.2383 603.427 25.9762 596.447C56.1907 589.467 94.3354 595.322 107.681 623.306C117.569 644.053 109.949 668.702 100.366 689.605C90.7826 710.508 78.9715 731.96 80.8599 754.865C83.643 788.971 116.037 815.626 117.237 849.815C118.197 876.757 96.079 902.53 69.2913 905.695C45.5634 908.494 23.1187 895.737 0.318887 888.722C-20.1246 882.611 -41.6474 880.991 -62.7754 883.972C-83.9034 886.954 -104.137 894.466 -122.092 905.996C-150.458 924.533 -171.534 952.331 -197.65 974.178C-209.602 984.036 -223.137 992.987 -238.408 994.575C-261.143 996.924 -282.152 982.629 -298.852 967.048C-348.524 920.703 -400.042 827.943 -392.492 750.551Z" stroke="#DEECF4" stroke-miterlimit="10"/>
<path d="M-315.005 694.307C-308.411 661.572 -278.373 633.86 -244.667 632.431C-217.768 631.269 -192.421 644.699 -170.506 660.333C-148.592 675.967 -128.285 694.334 -103.836 705.583C-81.4082 715.898 -55.7398 720.095 -36.4073 735.448C-28.0383 742.097 -21.2805 750.552 -16.6388 760.181C-11.9972 769.809 -9.59181 780.362 -9.6025 791.051C-9.61319 801.74 -12.0397 812.288 -16.7005 821.908C-21.3614 831.527 -28.1362 839.968 -36.5184 846.601C-58.874 864.268 -89.1526 866.866 -116.23 875.709C-146.162 885.556 -172.822 903.418 -193.314 927.354C-197.422 932.183 -201.475 937.381 -207.154 940.141C-219.103 945.959 -232.792 932.583 -241.409 925.727C-252.959 916.577 -260.826 904.668 -266.983 891.475C-275.518 873.345 -282.885 854.689 -289.041 835.62C-292.04 826.346 -295.046 817.052 -298.045 807.778C-301.094 797.519 -302.985 786.95 -303.682 776.27C-305.799 752.923 -316.452 731.005 -316.33 707.342C-316.316 702.965 -315.873 698.599 -315.005 694.307Z" stroke="#DEECF4" stroke-miterlimit="10"/>
<path d="M-36.7914 649.991L-34.3634 649.463C-14.4987 645.207 4.98043 639.317 23.8754 631.853C28.9785 629.902 34.371 628.115 39.8066 628.72C45.5364 629.641 50.8129 632.396 54.8445 636.57C59.9011 641.055 63.41 647.024 64.8694 653.623C65.552 656.915 65.3919 660.327 64.404 663.541C63.416 666.755 61.6323 669.668 59.2183 672.008C53.5058 677.056 45.2561 677.512 37.6051 678.225C13.8962 680.352 -29.1432 703.656 -45.948 675.932C-50.5268 668.414 -50.2568 657.03 -42.8415 652.334C-40.968 651.224 -38.9236 650.433 -36.7914 649.991Z" stroke="#DEECF4" stroke-miterlimit="10"/>
<path d="M5.02498 858.25C6.90975 859.094 8.96941 859.473 11.0312 859.357C20.6846 859.456 29.8184 863.461 38.7023 867.224C47.5862 870.987 57.0013 874.599 66.6108 873.832C76.2203 873.066 86.1009 866.563 87.4789 857.011C88.6074 849.345 84.2653 842.094 80.6173 835.263C73.9338 822.725 69.1087 809.281 66.2933 795.354C65.7769 791.201 64.4775 787.183 62.4641 783.514C60.1372 779.971 55.7453 777.547 51.7785 778.895C45.387 781.112 45.5518 790.122 46.9594 796.732C49.7255 809.668 54.9763 821.521 44.6761 832.305C35.2051 842.132 21.1088 845.295 8.64494 850.185C5.96013 851.247 2.75657 853.228 3.34521 856.044C3.44909 856.511 3.65308 856.95 3.94307 857.331C4.23306 857.712 4.60218 858.025 5.02498 858.25Z" stroke="#DEECF4" stroke-miterlimit="10"/>
<path d="M97.5148 847.603C96.886 845.659 96.2573 843.714 95.4535 841.827C89.4287 826.208 83.4061 810.595 77.3855 794.989C73.6217 785.211 69.34 774.827 60.5444 769.145C55.1342 765.698 47.778 764.533 42.4728 768.117C37.493 771.446 35.6385 777.93 35.5331 783.913C35.4278 789.896 36.6925 795.865 36.3224 801.826C35.6235 813.478 27.3986 827.026 15.892 831.091C10.5116 832.981 4.9848 834.618 -0.439665 836.372C-13.6851 840.506 -18.6555 856.481 -8.38054 866.537C-2.44232 872.348 6.0026 874.621 14.0364 876.619C31.8383 881.063 50.2692 885.26 68.3698 882.327C75.953 881.348 83.1436 878.385 89.2159 873.738C92.2188 871.392 94.6392 868.384 96.2886 864.949C97.9379 861.514 98.7716 857.744 98.7246 853.933C98.5816 851.782 98.1753 849.656 97.5148 847.603Z" stroke="#DEECF4" stroke-miterlimit="10"/>
<path d="M-227.509 1131.14C-233.732 1093.63 -209.511 1055.31 -175.67 1038.03C-141.828 1020.75 -100.733 1021.84 -64.6523 1033.8C-36.843 1042.82 -8.41629 1057.94 20.033 1051.08C48.1649 1044.3 66.6342 1018.27 89.629 1000.66C119.598 977.777 161.22 969.214 196.413 982.744C238.124 998.827 264.399 1041.29 304.301 1061.68C324.885 1072.2 348.775 1076.54 366.844 1090.84C379.413 1100.82 388.07 1114.78 396.484 1128.51L427.591 1179.07" stroke="#DEECF4" stroke-miterlimit="10"/>
<path d="M-221.275 1052.8C-205.359 1031.16 -180.432 1017.12 -154.178 1011.45C-127.923 1005.77 -100.441 1008.01 -74.3928 1014.57C-44.8438 1022 -14.977 1035.07 14.9297 1029.26C40.4539 1024.31 61.2473 1006.46 81.9374 990.752C99.615 977.347 118.395 964.96 139.257 957.418C160.12 949.876 183.386 947.442 204.567 954.036C230.621 962.147 260.927 1014.15 283.164 1029.92C313.793 1051.58 327.098 1013.43 366.563 1042.1C407.326 1071.65 439.798 1158.85 443.684 1196.1" stroke="#DEECF4" stroke-miterlimit="10"/>
<path d="M-8.54458 975.667C-22.4593 974.028 -36.0251 970.188 -48.7335 964.288C-55.8014 961.227 -62.8206 957.784 -70.4279 956.508C-79.5065 954.998 -88.7941 956.627 -97.8682 955.331C-106.942 954.035 -116.622 948.274 -117.639 939.154C-118.387 932.523 -114.227 926.196 -108.918 922.159C-97.8182 913.716 -82.5969 913.368 -68.7511 915.075C-43.6418 918.208 -19.5259 926.902 5.43178 931.094C30.3894 935.285 57.7698 934.484 78.7309 920.274C85.9152 915.395 92.091 909.124 99.3141 904.233C103.645 901.401 108.165 898.87 112.843 896.658C117.535 894.367 122.492 892.098 127.725 892.274C132.958 892.45 138.42 895.859 139.149 901.036C139.291 903.117 138.874 905.198 137.94 907.063C137.006 908.929 135.59 910.51 133.839 911.644C130.316 913.863 126.456 915.496 122.41 916.478C92.805 925.575 65.244 940.322 41.2511 959.906C35.9264 964.227 31.321 969.045 24.842 971.656C14.1721 975.552 2.7447 976.925 -8.54458 975.667Z" stroke="#DEECF4" stroke-miterlimit="10"/>
<path d="M-81.0704 944.186C-84.4617 944.926 -87.9395 945.19 -91.4038 944.972C-93.1341 944.83 -94.7874 944.195 -96.1673 943.141C-97.5473 942.087 -98.596 940.66 -99.1889 939.028C-100.381 934.346 -96.1035 930.041 -91.7678 927.909C-78.1829 921.239 -61.8213 924.882 -47.7913 930.546C-33.7613 936.209 -20.1049 943.905 -5.02103 945.191C-0.384778 945.581 4.46998 945.386 8.61255 947.504C12.7551 949.621 15.6324 955.198 12.9685 958.98C11.5884 960.652 9.73832 961.872 7.65761 962.48C-6.72994 967.864 -24.6295 967.832 -35.7221 956.709C-46.8146 945.585 -65.9038 942.008 -81.0704 944.186Z" stroke="#DEECF4" stroke-miterlimit="10"/>
<path d="M-139.023 243.632C-140.061 248.534 -139.722 253.627 -138.043 258.348C-132.374 275.414 -120.045 283.389 -103.145 278.202C-83.7834 272.263 -63.3294 266.314 -43.2805 272.393C-23.2315 278.473 -7.54649 292.707 6.5254 307.399C21.6281 323.153 59.3071 371.594 85.4867 351.209C92.352 345.874 94.4242 336.012 92.4003 327.497C90.3765 318.981 84.9868 311.812 79.0338 305.49C60.2273 285.522 32.9899 270.363 23.709 243.126C22.1213 239.201 21.6999 234.9 22.4954 230.741C24.1956 224.177 30.5678 219.776 37.1233 217.999C50.6427 214.314 65.1168 217.3 78.7344 214.185C101.236 209.055 117.19 186.071 114.642 163.25C113.679 155.415 110.768 147.947 106.175 141.528C101.582 135.108 95.4523 129.943 88.3476 126.504C75.2609 120.845 60.4741 120.559 47.1785 125.708C31.7359 131.278 19.1327 142.745 12.1333 157.594C6.52989 169.221 3.25591 181.941 -2.30178 193.51C-9.65256 209.031 -22.7593 225.081 -41.8701 220.309C-48.137 218.728 -54.0624 215.812 -60.2441 214.096C-82.1932 208.051 -132.91 217.044 -139.023 243.632Z" stroke="#DEECF4" stroke-miterlimit="10"/>
<path d="M-1.3782 336.285C-24.4637 317.164 -50.1618 297.534 -80.1238 296.529C-96.2352 295.984 -112.551 300.981 -128.314 297.596C-149.515 293.07 -165.686 272.55 -166.713 250.913C-167.741 229.275 -154.485 208.108 -135.278 197.837C-126.259 193.306 -116.512 190.4 -106.484 189.255C-84.6408 186.337 -62.4163 188.726 -41.6929 196.221C-38.1181 197.513 -34.0921 198.938 -30.6198 197.257C-26.2063 195.099 -25.5143 189.27 -24.6245 184.451C-10.7516 109.609 129.966 71.4457 144.973 163.406C147.342 177.372 147.199 192.602 139.789 204.684C129.126 222.049 106.922 227.834 86.7482 230.664C78.8158 231.769 69.9307 233.183 65.1879 239.634C61.4716 244.745 61.4983 251.866 63.7717 257.767C66.3584 263.551 70.027 268.786 74.5802 273.192C87.0294 286.519 101.129 298.839 109.39 315.087C117.652 331.336 118.457 353.217 105.451 365.992C71.7472 398.905 25.0104 358.182 -1.3782 336.285Z" stroke="#DEECF4" stroke-miterlimit="10"/>
<path d="M-48.0691 333.688C-32.7256 342.934 -17.9968 353.164 -3.97518 364.313C11.7769 376.829 27.2258 390.732 46.5406 396.534C66.9841 402.571 89.0699 398.414 109.311 391.739C116.349 389.463 123.476 386.664 128.821 381.542C133.47 376.74 136.851 370.857 138.661 364.422C143.965 347.695 143.095 329.62 136.209 313.479C130.86 301.057 122.136 290.348 115.911 278.338C112.887 272.508 110.4 265.946 111.55 259.475C113.112 251.023 120.281 244.968 127.036 239.691C143.396 226.862 160.835 212.653 165.96 192.505C170.3 175.445 164.826 157.522 158.445 141.245C152.854 126.946 146.23 112.574 135.12 101.992C115.349 82.959 84.2495 79.7658 58.0301 88.009C31.8108 96.2521 9.97047 114.118 -9.51013 133.303C-20.2941 143.985 -30.8717 155.438 -44.5652 161.971C-60.3809 169.513 -78.5733 169.705 -95.9453 171.372C-114.896 173.205 -133.956 177.222 -150.664 186.319C-167.373 195.417 -181.542 210.372 -186.676 228.698C-196.148 262.493 -172.597 298.795 -142.836 313.653C-127.634 321.214 -116.723 319.361 -100.96 317.699C-81.9896 315.795 -63.8993 324.118 -48.0691 333.688Z" stroke="#DEECF4" stroke-miterlimit="10"/>
<path d="M81.5189 325.26C81.8205 326.187 81.874 327.177 81.6741 328.131C81.3745 329.06 80.8129 329.883 80.0567 330.501C76.0502 334.116 69.743 334.137 64.7999 331.934C60.0041 329.42 55.7665 325.962 52.3417 321.768C48.2137 317.304 20.5578 291.887 35.3271 288.614C40.0733 287.551 43.5505 292.526 46.6403 295.306C52.2944 300.372 59.1187 303.942 65.4991 307.999C71.8795 312.056 79.4138 317.157 81.5189 325.26Z" stroke="#DEECF4" stroke-miterlimit="10"/>
<path d="M64.8086 201.207C61.3728 200.916 58.0837 199.684 55.3026 197.645C51.7999 194.784 50.1863 190.259 48.7578 185.975L43.9859 171.883C42.1435 166.187 40.1909 159.817 42.7596 154.412C43.4374 152.865 44.5777 151.566 46.0239 150.693C49.1611 148.905 53.1569 150.104 56.3269 151.871C59.4968 153.638 62.4483 155.991 66.0295 156.572C72.0112 157.537 77.8459 153.266 83.8819 153.934C91.4801 154.784 95.9954 162.902 97.6082 170.412C99.4822 179.062 98.8736 190.728 90.74 196.257C84.0098 200.946 72.651 202.215 64.8086 201.207Z" stroke="#DEECF4" stroke-miterlimit="10"/>
<path d="M295.124 148.436C305.774 131.827 312.18 112.853 318.531 94.2414C324.071 78.1682 329.51 61.784 329.481 44.8273C329.189 34.4371 327.648 24.1198 324.89 14.0979C323.496 7.06005 320.947 0.301207 317.348 -5.90513C313.256 -12.2488 307.283 -17.1036 301.446 -21.8733C294.395 -27.5391 286.99 -33.3696 278.22 -35.4514C271.813 -36.5835 265.262 -36.6423 258.835 -35.6252C231.269 -32.874 203.628 -28.8956 177.453 -19.8507C151.278 -10.8058 126.362 3.4587 108.229 24.356C102.261 31.2686 96.8671 41.1524 101.429 49.0835C104.458 54.3319 111.125 56.6857 117.147 56.1129C123.168 55.5401 128.763 52.7857 134.056 49.8283C148.181 41.9743 161.575 32.8536 176.062 25.7201C190.549 18.5867 206.46 13.4627 222.601 14.2989C238.742 15.135 255.106 22.8358 263.571 36.5919C271.704 49.8538 271.527 66.7053 268.076 81.8666C264.625 97.028 258.293 111.382 254.597 126.515C250.752 142.383 248.811 167.794 263.793 179.056C271.932 185.165 275.508 178.425 279.503 171.72C284.247 163.679 290.052 156.325 295.124 148.436Z" stroke="#DEECF4" stroke-miterlimit="10"/>
<path d="M133.73 23.5183C132.586 25.6922 131.872 28.9298 133.993 30.1766C134.987 30.6191 136.1 30.72 137.157 30.4634C150.383 28.5271 161.706 20.3765 173.281 13.7339C189.203 4.46146 206.889 -2.67566 225.27 -3.07954C243.652 -3.48341 262.913 3.94614 273.59 18.9627C281.956 30.7534 284.327 45.9217 283.319 60.336C282.311 74.7503 278.314 88.8211 274.699 102.876C273.498 106.642 273.173 110.633 273.748 114.544C274.592 118.416 277.751 122.076 281.699 122.131C287.314 122.227 290.505 115.825 291.956 110.417C294.607 100.617 296.135 90.5476 296.509 80.4026C296.781 73.8719 296.543 67.2268 297.177 60.6864C297.711 55.1661 298.859 49.6837 298.993 44.1211C299.437 25.5725 287.898 8.02151 272.2 -1.87045C256.502 -11.7624 237.13 -14.7535 218.593 -13.6984C188.4 -11.9658 149.142 -6.05602 133.73 23.5183Z" stroke="#DEECF4" stroke-miterlimit="10"/>
<path d="M240.223 71.1806C227.091 105.161 226.215 142.657 237.748 177.214C242.098 190.067 249.717 203.731 262.89 207.009C277.693 210.683 291.978 199.535 301.795 187.856C338.574 144.198 350.994 84.3223 349.037 27.2707" stroke="#DEECF4" stroke-miterlimit="10"/>
<path d="M234.363 924.578C249.343 938.89 261.772 955.873 277.79 969.012C281.004 971.645 284.606 974.217 288.733 974.558C302.157 975.693 305.938 956.108 316.572 947.751C325.561 940.549 339.053 942.757 349.05 948.565C359.046 954.374 366.682 963.244 376.09 969.887C386.916 977.566 399.612 982.185 412.842 983.257C421.967 983.978 433.22 981.456 435.884 972.691C437.888 966.073 433.852 959.238 429.65 953.747C409.235 927.113 381.174 907.349 349.22 897.097C331.532 891.478 312.887 888.874 295.769 881.697C281.908 875.892 269.43 867.257 256.456 859.748C243.483 852.239 229.299 845.766 214.295 844.927C199.291 844.089 183.149 849.889 175.022 862.546C165.585 877.26 170.73 895.161 185.984 900.493C204.716 907.149 218.377 909.281 234.363 924.578Z" stroke="#DEECF4" stroke-miterlimit="10"/>
<path d="M234.913 862.528C221.699 857.395 205.893 855.14 194.005 862.872C191.857 864.165 190.041 865.944 188.705 868.065C185.829 873.118 187.534 879.783 191.32 884.185C195.106 888.588 200.53 891.15 205.906 893.363C219.98 899.163 235.197 903.584 246.44 913.843C260.099 926.327 266.748 946.49 283.367 954.646C284.37 955.258 285.486 955.664 286.649 955.837C287.812 956.011 288.998 955.949 290.136 955.656C292.625 954.851 293.979 952.266 295.312 949.945C299.078 943.942 304.462 939.125 310.844 936.046C317.227 932.968 324.348 931.753 331.39 932.543C340.208 933.643 348.241 937.831 356.442 941.407C364.642 944.983 373.548 947.816 382.282 945.936C383.214 945.832 384.086 945.421 384.761 944.769C385.151 944.248 385.411 943.641 385.52 942.999C387.623 933.965 382.409 924.483 375.061 918.828C367.713 913.172 358.515 910.563 349.568 908.066L280.545 888.746C271.405 886.183 266.971 881.303 259.613 875.951C251.982 870.448 243.682 865.937 234.913 862.528Z" stroke="#DEECF4" stroke-miterlimit="10"/>
<path d="M280.827 934.506C277.082 931.682 273.725 928.377 270.84 924.678C262.004 914.632 251.721 905.957 240.331 898.938C234.104 895.089 227.549 891.754 221.669 887.385C218.807 885.175 215.693 881.457 217.524 878.288C219.356 875.118 223.686 875.758 226.958 876.912C239.056 881.117 249.28 889.021 259.853 896.082C270.426 903.143 281.999 909.709 294.618 910.61C300.275 911.036 307.293 911.021 309.897 916.085C311.796 919.766 309.95 924.486 306.799 927.159C302.99 930.388 297.681 932.9 293.649 935.707C289.618 938.514 284.867 937.173 280.827 934.506Z" stroke="#DEECF4" stroke-miterlimit="10"/>
<path d="M314.755 983.301C316.236 980.245 316.758 976.812 318.072 973.638C319.226 970.859 320.961 968.36 323.161 966.308C325.36 964.256 327.974 962.698 330.825 961.739C332.302 961.174 333.903 961.012 335.463 961.27C338.184 961.85 340.037 964.258 341.755 966.451C348.741 975.293 357.142 982.917 366.619 989.013C369.087 990.599 371.919 992.582 371.983 995.504C371.898 996.672 371.456 997.786 370.716 998.694C369.976 999.602 368.974 1000.26 367.847 1000.58C365.563 1001.14 363.166 1001.02 360.949 1000.23C352.847 997.891 345.919 992.207 337.576 990.782C328.853 989.308 320.141 992.984 311.323 993.409C308.853 993.542 305.373 992.542 307.041 989.597C307.618 988.594 310.044 988.325 310.954 987.687C312.569 986.567 313.876 985.059 314.755 983.301Z" stroke="#DEECF4" stroke-miterlimit="10"/>
<path d="M127.733 861.088C125.682 866.497 124.629 873.667 129.27 877.127C131.844 879.044 135.301 879.042 138.456 879.633C142.046 880.319 145.432 881.818 148.354 884.015C151.275 886.212 153.655 889.049 155.311 892.307C156.175 894.047 157.602 896.27 159.43 895.614C161.259 894.959 160.876 892.183 160.124 890.322C156.501 881.443 153.516 871.949 154.403 862.406C155.29 852.863 160.805 843.155 169.842 839.953C175.165 838.017 180.989 838.496 186.619 838.372C192.381 838.295 198.123 837.653 203.76 836.457C206.37 835.893 209.227 835.033 210.572 832.751C211.918 830.469 211.298 827.491 210.474 824.944C205.186 808.454 194.61 794.166 180.383 784.293C177.682 782.056 174.286 780.831 170.779 780.827C166.62 781.249 163.338 784.844 161.784 788.74C160.525 792.752 159.651 796.875 159.173 801.053C158.694 805.272 156.744 809.187 153.665 812.112C149.682 815.333 144.111 815.373 139.009 815.799C133.906 816.225 128.128 817.75 125.858 822.35C124.113 825.921 125.083 830.182 126.368 833.954C129.97 844.365 131.837 850.268 127.733 861.088Z" stroke="#DEECF4" stroke-miterlimit="10"/>
<path d="M134.212 858.478C136.017 854.629 138.61 850.827 138.435 846.567C138.296 843.412 136.622 840.561 135.537 837.604C134.452 834.648 133.928 831.037 135.876 828.56C137.052 827.249 138.582 826.307 140.282 825.847C146.659 823.785 154.634 823.74 158.289 818.176C161.368 813.551 160.092 806.619 164.062 802.823C165.48 801.68 167.179 800.937 168.981 800.672C170.783 800.406 172.623 800.627 174.311 801.312C177.656 802.739 180.712 804.763 183.33 807.286C187.492 810.858 191.801 814.619 193.797 819.729C194.4 821.002 194.621 822.423 194.433 823.819C193.749 827.283 189.581 828.738 186.156 829.438C176.82 831.383 167.12 832.931 158.978 837.905C150.837 842.879 144.593 852.458 146.719 861.756C148.33 868.73 150.207 876.392 140.866 873.142C133.58 870.601 130.509 866.419 134.212 858.478Z" stroke="#DEECF4" stroke-miterlimit="10"/>
<path d="M105.831 730.145C104.862 716.928 109.002 703.844 117.396 693.589C121.759 688.485 127.301 684.373 131.452 679.143C137.085 672.017 140.086 663.165 139.948 654.082C139.838 645.377 136.825 636.988 135.338 628.406C134.264 622.222 133.982 615.927 134.498 609.671C134.461 608.315 134.695 606.965 135.185 605.7C135.676 604.436 136.414 603.281 137.355 602.304C138.36 601.614 139.528 601.199 140.743 601.1C141.958 601.001 143.178 601.222 144.281 601.74C146.498 602.809 148.425 604.396 149.9 606.365C156.243 613.892 159.804 623.307 164.164 632.141C168.524 640.975 174.17 649.801 183.029 654.216C188.922 657.164 195.771 657.956 201.375 661.405C207.725 665.3 211.881 673.04 210.414 680.323C208.851 688.173 201.81 693.564 197.935 700.573C191.681 711.981 194.645 725.926 194.509 738.92C194.461 742.758 193.985 746.929 191.317 749.703C188.29 752.829 183.266 753.165 179.031 752.022C174.92 750.541 170.889 748.849 166.954 746.951C162.864 745.396 158.082 744.688 154.244 746.766C151.637 748.472 149.482 750.782 147.961 753.502L141.313 763.426C137.822 768.635 133.887 772.27 127.253 770.55C123.299 769.726 119.766 767.529 117.279 764.348C110.551 754.138 106.605 742.348 105.831 730.145Z" stroke="#DEECF4" stroke-miterlimit="10"/>
<path d="M113.29 730.632C112.498 720.279 114.605 708.731 122.644 702.18C126.407 699.073 131.114 697.293 135.229 694.609C141.288 690.502 145.461 684.213 149.503 678.117C150.933 676.22 152.001 674.076 152.655 671.793C153.031 669.603 153.033 667.366 152.662 665.176L149.539 640.243C149.414 639.779 149.394 639.293 149.478 638.821C149.563 638.348 149.751 637.899 150.028 637.507C151.235 636.323 153.2 637.62 154.287 638.922C161.517 647.665 165.814 659.226 175.369 665.328C181.049 668.946 188.817 670.986 190.995 677.455C192.341 681.615 190.73 686.131 188.577 689.898C186.423 693.666 183.529 697.136 182.238 701.312C180.448 707.131 181.852 713.399 182.988 719.367C184.123 725.335 184.73 731.925 181.607 737.145C180.953 738.426 179.859 739.428 178.525 739.967C176.846 740.283 175.11 739.983 173.634 739.122C169.852 737.201 165.952 735.521 161.957 734.093C157.907 732.666 153.471 732.792 149.508 734.446C139.332 739.37 140.503 759.329 129.545 761.369C117.227 763.656 113.868 738.327 113.29 730.632Z" stroke="#DEECF4" stroke-linecap="round" stroke-linejoin="round" stroke-dasharray="1.97 3.95"/>
<path d="M121.651 742.274C121.73 742.911 121.935 743.527 122.255 744.084C122.575 744.64 123.004 745.127 123.516 745.515C125.451 746.586 127.659 744.648 128.948 742.856C134.217 735.44 137.759 726.67 144.368 720.41C146.209 718.361 148.753 717.079 151.495 716.816C154.229 716.77 156.638 718.374 159.076 719.605C161.514 720.835 164.557 721.676 166.863 720.243C169.989 718.287 169.662 713.754 169.643 710.045C169.644 705.225 170.813 700.477 173.05 696.208C174.257 694.315 175.214 692.273 175.896 690.133C176.2 688.279 176.097 686.381 175.593 684.571C175.089 682.761 174.197 681.082 172.979 679.652C171.043 677.121 167.943 674.837 164.91 675.818C163.861 676.217 162.92 676.855 162.162 677.682C161.404 678.509 160.85 679.501 160.544 680.581C159.782 682.674 159.555 684.959 158.915 687.099C156.668 694.827 149.52 700.016 142.461 703.889C136.22 707.303 125.662 710.782 121.189 716.674C116.115 723.297 119.764 735.11 121.651 742.274Z" stroke="#DEECF4" stroke-miterlimit="10"/>
<path d="M-71.9783 600.357C-92.4315 599.004 -112.221 592.862 -131.779 586.709L-171.163 574.298L-210.174 561.916C-212.786 561.177 -215.295 560.112 -217.641 558.747C-226.759 552.933 -227.39 539.028 -221.814 529.772C-216.239 520.517 -206.359 514.874 -196.815 509.79C-187.64 504.954 -178.416 500.275 -168.28 498.414C-161.539 497.299 -154.697 496.923 -147.875 497.291C-131.621 497.747 -115.114 499.582 -100.023 505.804C-92.4257 508.974 -85.3362 513.232 -77.8847 516.749C-62.3058 524.081 -45.365 527.988 -29.2599 534.29C-16.1173 539.468 -2.73252 547.187 2.94814 560.104C4.85984 564.147 5.51486 568.671 4.82851 573.09C2.32586 586.27 -14.4366 587.696 -24.5148 592.459C-39.4077 599.082 -55.743 601.8 -71.9783 600.357Z" stroke="#DEECF4" stroke-miterlimit="10"/>
<path d="M-71.0379 666.285C-70.0004 674.54 -65.5811 681.83 -60.1959 688.056C-51.1368 698.485 -39.385 706.222 -26.2251 710.422C-19.7426 712.47 -12.981 713.655 -6.57173 715.942C-0.162494 718.229 6.06703 721.82 9.80263 727.527C11.5742 730.709 13.1714 733.985 14.5871 737.34C16.6464 741.697 19.8521 745.411 23.8607 748.086C25.8648 749.408 28.1353 750.272 30.5111 750.617C32.8869 750.962 35.3096 750.78 37.607 750.083C45.5395 747.518 49.2408 738.31 50.1424 730.008C51.0439 721.706 50.2038 713.065 53.2267 705.28C58.5119 691.673 74.1622 684.55 80.5098 671.372C82.443 666.968 83.4518 662.215 83.4738 657.405C83.4958 652.596 82.5305 647.833 80.6376 643.412C76.7441 634.567 70.7407 626.811 63.1535 620.826C60.1983 618.215 56.856 616.079 53.2457 614.494C46.5495 611.785 38.9397 612.227 31.8885 613.799C19.8645 616.463 8.64595 622.282 -2.98531 626.559C-18.7207 632.357 -35.6024 637 -51.8276 641.216C-57.7736 642.753 -61.9227 642.806 -66.1073 648.261C-69.9889 653.421 -71.7527 659.868 -71.0379 666.285Z" stroke="#DEECF4" stroke-miterlimit="10"/>
<path d="M14.1064 715.998C17.9182 720.413 20.3902 725.799 23.7662 730.527C26.2681 734.013 30.1274 737.447 34.2909 736.508C35.0269 736.371 35.7051 736.017 36.2387 735.492C36.5948 735.011 36.8522 734.464 36.996 733.883C37.1399 733.302 37.1673 732.699 37.0768 732.107C36.7459 725.771 32.9474 719.87 32.8366 713.484C32.7845 709.206 34.3987 705.033 34.6891 700.751C34.9795 696.469 33.3315 691.44 29.2466 690.098C25.1617 688.756 20.8561 691.845 18.0086 695.193C15.1612 698.54 12.7408 702.545 8.66926 704.033C5.33027 705.263 1.51118 704.544 -1.78379 705.91C-3.67774 706.695 -4.07138 708.798 -2.30286 709.751C-1.51837 710.184 1.77427 709.076 2.8264 709.208C7.29541 710.002 11.3131 712.42 14.1064 715.998Z" stroke="#DEECF4" stroke-miterlimit="10"/>
<path d="M-37.6775 667.372C-36.6827 669.698 -34.9551 671.636 -32.7576 672.889C-24.2427 678.168 -13.1589 675.85 -3.81498 672.27C5.52893 668.69 14.9484 663.883 24.938 664.689C29.8842 665.109 34.6758 666.909 39.6449 666.934C44.614 666.959 50.201 664.38 51.2268 659.516C52.1439 655.247 49.1572 651.058 45.6071 648.448C42.7267 646.35 39.432 644.891 35.9428 644.168C32.4535 643.444 28.8502 643.474 25.3732 644.254C16.7088 646.283 9.86569 652.748 1.99643 656.904C-2.08588 659.061 -6.46296 660.607 -10.9946 661.492C-15.5493 662.315 -20.1821 662.625 -24.8059 662.415C-29.5033 662.366 -41.0038 658.547 -37.6775 667.372Z" stroke="#DEECF4" stroke-miterlimit="10"/>
<path d="M-11.8862 746.525C-12.7955 745.003 -13.4425 743.339 -13.8001 741.603C-13.9818 740.72 -13.9217 739.805 -13.6263 738.953C-13.3309 738.102 -12.8112 737.346 -12.1218 736.765C-11.1114 736.187 -9.93528 735.966 -8.78397 736.14C-7.63267 736.313 -6.57357 736.87 -5.77821 737.72C-4.22929 739.451 -3.01379 741.454 -2.19302 743.626C0.161255 748.526 3.31385 753.001 7.1358 756.867C9.43481 759.194 12.2971 761.404 15.5616 761.272C17.9146 761.177 20.369 759.867 22.4989 760.875C23.2705 761.362 23.9237 762.015 24.4109 762.786C24.8982 763.557 25.2071 764.428 25.3152 765.333C26.7252 771.685 25.0827 778.294 22.7084 784.367C20.3341 790.439 17.1552 796.149 15.2773 802.361C14.4591 805.767 13.443 809.122 12.234 812.409C10.4592 816.483 3.77495 823.971 -0.366622 818.137C-3.28928 814.014 1.06269 810.072 1.74534 806.008C3.8425 793.367 0.860972 779.234 -3.06375 767.231C-5.45559 760.108 -8.40558 753.184 -11.8862 746.525Z" stroke="#DEECF4" stroke-miterlimit="10"/>
<path d="M18.9209 782.283C19.5513 780.44 19.804 778.489 19.6638 776.545C19.6832 775.532 19.4966 774.526 19.1152 773.587C18.9178 773.123 18.6058 772.716 18.2086 772.405C17.8113 772.094 17.3417 771.889 16.8436 771.809C15.4684 771.674 14.2691 772.814 12.8985 772.892C12.2017 772.869 11.5223 772.669 10.925 772.309C10.3276 771.95 9.83205 771.444 9.48553 770.839C8.77081 769.616 7.98745 768.436 7.1392 767.302C6.95055 767.058 6.68992 766.879 6.39417 766.791C5.76862 766.65 5.18874 767.181 4.9182 767.806C3.51693 770.578 4.73453 773.878 5.8847 776.771C6.91486 779.311 7.60367 781.977 7.93317 784.699C8.10964 786.639 7.17722 789.732 9.33856 790.837C12.5354 792.488 18.0263 784.763 18.9209 782.283Z" stroke="#DEECF4" stroke-miterlimit="10"/>
<path d="M-182.594 192.845C-210.255 209.844 -219.616 248.5 -208.135 278.955C-196.653 309.41 -168.317 331.086 -137.428 341.069C-112.679 349.065 -85.2695 350.809 -63.7526 365.413C-48.9671 375.471 -38.544 390.634 -25.6733 403.072C-1.58052 426.307 30.5037 439.419 63.9733 439.709C97.4428 440 129.75 427.446 154.242 404.634C165.235 394.399 174.714 381.605 177.16 366.79C182.334 335.309 155.268 307.531 151.177 275.889C150.853 274.217 150.928 272.493 151.396 270.857C152.45 267.939 155.52 266.409 158.158 264.804C170.412 257.34 177.321 243.574 181.863 229.992C189.529 206.532 192.045 181.695 189.241 157.174C186.436 132.652 178.377 109.025 165.611 87.9012L166.835 91.2853" stroke="#DEECF4" stroke-miterlimit="10"/>
<path d="M-219.06 215.354C-225.01 231.023 -230.285 247.053 -231.913 263.666C-234.032 283.679 -230.352 305.017 -218.016 320.915C-202.052 341.523 -175.265 349.246 -151.092 358.781C-125.644 368.852 -101.505 381.956 -79.1965 397.81C-54.4239 415.441 -31.6863 436.608 -3.88025 448.877C38.093 467.366 87.5009 463.156 130.007 445.973C138.776 442.744 147.003 438.201 154.406 432.499C162.517 425.838 168.663 417.15 174.55 408.46C187.174 390.053 200.096 369.445 197.872 347.228C195.803 326.421 180.486 306.419 186.591 286.448C188.828 279.088 193.749 272.922 197.641 266.295C217.674 232.284 209.981 189.436 201.648 150.854C196.412 126.562 191.167 102.265 185.914 77.9633" stroke="#DEECF4" stroke-linecap="round" stroke-linejoin="round" stroke-dasharray="2 4"/>
<path d="M185.071 73.8965L184.637 71.8903" stroke="#DEECF4" stroke-linecap="round" stroke-linejoin="round"/>
<path d="M142.936 524.067C156.941 520.89 170.769 515.237 181.332 505.464C191.894 495.691 198.802 481.324 197.269 467.022C196.697 461.666 194.724 456.098 190.371 452.931C185.075 449.039 177.528 449.74 171.659 452.712C165.791 455.683 161.179 460.547 156.311 465.02C138.913 481.213 116.767 493.486 93.0096 494.533C81.2312 495.035 69.1409 492.846 57.8666 496.235C49.5081 498.745 43.9851 506.437 51.3048 513.132C57.1435 518.503 71.9562 521.207 79.5383 523.137C100.301 528.446 122.026 528.765 142.936 524.067Z" stroke="#DEECF4" stroke-miterlimit="10"/>
<path d="M135.523 515.49C148.067 514.353 160.043 509.736 170.104 502.159C175.714 497.789 180.875 490.772 178.46 484.101C176.569 478.85 170.403 476.12 164.842 476.522C159.281 476.925 154.215 479.787 149.541 482.866C140.836 488.624 132.543 495.451 122.57 498.482C115.961 500.491 109.09 500.694 102.296 501.732C97.817 502.493 90.0473 506.359 96.3144 510.796C100.681 513.873 109.524 514.32 114.693 515.032C121.593 516.021 128.586 516.174 135.523 515.49Z" stroke="#DEECF4" stroke-miterlimit="10"/>
<path d="M187.798 586.485C185.253 588.987 183.456 592.148 182.611 595.615C180.726 603.063 181.459 610.933 184.687 617.904C187.916 624.876 193.443 630.526 200.342 633.907C213.947 640.116 232.978 637.934 240.669 650.759C244.693 657.49 244.003 666.647 249.315 672.446C253.238 676.739 259.462 677.991 265.269 678.282C283.943 679.18 302.422 672.237 317.839 661.538C333.257 650.84 345.701 636.592 356.963 621.676C364.34 611.881 371.327 601.611 375.527 590.094C380.231 577.147 381.222 563.147 381.339 549.364C381.585 519.841 378.005 490.31 379.432 460.856C380.859 431.402 387.839 400.989 406.519 378.132C415.555 367.092 427.015 358.167 435.647 346.807C452.681 324.375 456.197 290.487 438.752 268.489C428.024 254.906 410.839 247.321 393.571 245.99C376.304 244.659 358.998 249.053 343.154 256.11C319.668 266.562 298.221 283.72 287.582 307.134C276.942 330.547 278.039 358.111 278.555 384.21C279.322 423.873 277.812 463.548 274.032 503.039C272.722 516.52 271.1 530.23 265.484 542.548C258.728 557.383 246.741 568.132 232.293 575.188C226.723 578.178 220.776 580.404 214.612 581.808C205.647 583.44 195.303 579.742 187.798 586.485Z" stroke="#DEECF4" stroke-miterlimit="10"/>
<path d="M222.732 618.14C230.871 619.266 240.003 619.147 245.975 624.797C253.241 631.66 252.349 643.911 258.814 651.549C262.27 655.267 266.802 657.811 271.776 658.825C288.115 662.862 305.812 655.957 318.519 644.782C331.227 633.607 339.878 618.653 347.876 603.74C356.511 587.675 364.778 570.87 366.686 552.729C367.394 543.917 367.261 535.057 366.29 526.27C364.045 499.077 360.503 471.788 361.75 444.497C362.996 417.206 369.403 389.406 385.228 367.15C394.993 353.383 408.227 341.844 415.015 326.441C421.802 311.038 419.104 289.082 403.61 282.41C397.919 279.955 391.534 280.001 385.35 280.069C371.132 280.2 356.733 280.368 342.975 283.979C329.217 287.591 315.949 295.039 308.191 306.976C302.353 315.951 300.078 326.781 297.865 337.204C291.612 367.144 285.325 397.44 286.001 428.018C286.261 439.381 287.477 450.713 287.718 462.082C288.532 499.595 279.774 545.229 258.983 577.166C251.356 588.91 241.414 592.898 227.997 595.305C221.214 596.511 206.791 595.011 204.666 602.85C202.314 612.115 216.304 617.255 222.732 618.14Z" stroke="#DEECF4" stroke-miterlimit="10"/>
<path d="M324.662 333.004C325.423 328.686 326.874 324.518 328.96 320.661C332.078 315.87 336.339 311.931 341.36 309.199C347.831 305.302 355.585 302.451 362.87 304.39C371.573 306.73 377.418 315.642 378.32 324.606C379.222 333.57 376.021 342.531 371.627 350.394C367.233 358.258 361.817 365.55 357.617 373.48C351.782 384.323 348.321 396.266 343.154 407.451C339.748 414.781 335.06 422.267 327.64 425.354C320.22 428.441 309.581 424.365 308.851 416.397C308.811 413.047 309.61 409.74 311.173 406.776C316.124 395.189 321.03 385.592 321.278 373.077C321.495 359.735 320.991 346.024 324.662 333.004Z" stroke="#DEECF4" stroke-miterlimit="10"/>
<path d="M260.968 596.582C258.742 600.459 258.063 605.596 260.576 609.315C266.512 609.543 273.49 610.336 276.332 615.537C278.844 620.116 276.852 626.107 278.838 630.855C281.66 637.524 291.264 638.799 297.52 635.165C303.776 631.531 307.333 624.668 310.351 618.13C327.906 579.55 337.305 537.76 337.959 495.379C338.049 489.615 337.719 483.215 333.679 479.088C327.781 473.071 316.875 475.674 311.448 482.133C297.397 498.918 303.181 527.758 296.914 547.76C290.422 568.394 271.045 578.934 260.968 596.582Z" stroke="#DEECF4" stroke-miterlimit="10"/>
<path d="M281.093 599.845C281.311 600.483 281.683 601.056 282.176 601.515C282.669 601.974 283.268 602.304 283.92 602.475C284.87 602.471 285.818 602.38 286.752 602.203C287.67 602.249 288.558 602.542 289.324 603.05C290.089 603.558 290.703 604.264 291.101 605.092C291.838 606.796 292.247 608.624 292.307 610.479C292.307 611.673 292.683 612.836 293.382 613.804C294.027 614.403 294.86 614.762 295.739 614.818C296.618 614.874 297.49 614.625 298.206 614.112C299.621 613.053 300.727 611.635 301.409 610.005C306.375 600.324 308.856 589.6 311.29 578.998L315.681 559.903C315.773 559.662 315.811 559.404 315.791 559.147C315.771 558.889 315.694 558.64 315.565 558.416C315.213 557.993 314.554 558.013 314.004 558.105C307.745 559.27 303.518 565.061 300.47 570.643C296.968 577.08 294.825 581.875 287.977 584.54C281.822 587.025 278.055 593.44 281.093 599.845Z" stroke="#DEECF4" stroke-miterlimit="10"/>
<path d="M326.639 410.902C325.782 411.115 324.876 410.984 324.115 410.537C323.695 410.111 323.391 409.584 323.235 409.006C323.078 408.428 323.073 407.82 323.221 407.24C324.108 399.823 329.641 393.889 332.777 387.183C336.814 378.748 337.223 369.123 338.172 359.839C339.122 350.555 340.922 340.781 346.898 333.694C348.477 331.938 350.741 330.304 352.813 331.266C353.995 331.98 354.846 333.133 355.182 334.473C356.866 340.125 356.762 346.159 354.885 351.75C352.999 357.329 350.682 362.752 347.954 367.972C344.156 376.206 340.875 384.669 338.131 393.312C335.732 400.703 336.21 409.353 326.639 410.902Z" stroke="#DEECF4" stroke-miterlimit="10"/>
<path d="M365.253 215.869C355.681 218.213 343.237 220.841 337.89 212.541C334.027 206.639 336.873 198.374 341.893 193.443C346.913 188.512 353.678 185.788 359.701 182.1C369.438 176.105 377.332 167.541 382.514 157.348C394.17 134.486 392.761 103.501 413.351 88.2092C416.733 85.7194 421.538 83.8432 425 86.2458C429.271 89.1597 427.926 95.7583 426.407 100.824C419.826 122.044 419.334 146.622 431.842 164.976C445.076 184.449 470.594 193.892 480.938 215.051C485.544 224.514 487.444 242.476 473.668 243.174C465.58 243.534 448.057 226.802 439.889 223.194C416.486 212.635 390.262 210.062 365.253 215.869Z" stroke="#DEECF4" stroke-miterlimit="10"/>
<path d="M395.378 170.561C391.206 175.325 383.613 177.545 382.188 183.697C381.971 185.028 382.076 186.391 382.491 187.674C382.907 188.956 383.623 190.121 384.579 191.072C385.536 192.022 386.705 192.731 387.99 193.139C389.275 193.548 390.639 193.644 391.968 193.419C397.156 192.128 400.17 186.042 405.42 185.01C412.489 183.626 418.848 192.2 425.817 190.44C426.994 190.19 428.044 189.531 428.781 188.58C430.247 186.473 429.31 183.577 428.213 181.247C424.993 174.251 421.06 167.607 416.475 161.419C415.278 159.602 413.749 158.027 411.967 156.778C408.664 154.732 400.779 154.125 398.409 157.619C396.3 160.728 398.923 166.58 395.378 170.561Z" stroke="#DEECF4" stroke-miterlimit="10"/>
<path d="M524.857 935.498C509.986 924.909 498.432 910.434 485.553 897.504C435.809 847.617 367.187 821.832 299.505 802.272C287.375 798.765 274.934 795.293 264.477 788.194C254.021 781.096 245.672 769.557 245.921 756.913C246.362 733.641 272.894 720.786 295.496 715.303C321.167 709.148 347.483 705.255 372.269 696.165C397.055 687.076 420.81 671.877 433.419 648.642C441.204 634.399 444.291 617.98 444.799 601.752C445.962 564.309 433.901 527.748 430.973 490.403C428.044 453.059 437.344 410.493 468.966 390.602C510.233 364.671 566.496 389.427 612.198 372.499C635.202 363.943 652.955 345.789 669.863 328.079L729.234 266.421C741.646 253.537 754.508 240.314 770.94 233.218C787.372 226.121 808.427 226.614 821.135 239.212C832.235 250.226 834.405 267.693 831.488 283.111C828.571 298.529 821.33 312.597 815.919 327.276C802.877 362.815 800.47 401.385 808.992 438.27C818.55 479.312 841.11 515.935 855.981 555.409C858.897 563.164 861.556 571.388 860.455 579.604C859.199 586.623 856.145 593.197 851.593 598.685C807.547 656.397 707.614 639.514 660.579 694.821C634.913 724.962 632.752 767.754 626.721 806.879C621.016 843.791 610.865 879.877 596.491 914.35C590.997 927.509 585.306 944.512 570.169 948.505C555.031 952.499 536.588 943.881 524.857 935.498Z" stroke="#DEECF4" stroke-miterlimit="10" stroke-dasharray="2 4"/>
<path d="M304.024 751.566C300.509 752.982 296.886 754.927 295.143 758.304C292.196 764.067 296.056 771.087 300.876 775.434C315.299 788.423 336.553 789.131 355.193 794.571C378.047 801.225 397.784 815.502 417.031 829.529C449.401 853.121 481.836 876.779 511.677 903.509C518.844 909.931 526.066 916.659 534.977 920.306C543.888 923.953 555.055 923.82 562.176 917.351C568.437 911.675 570.192 902.624 571.282 894.24C574.931 865.678 574.984 836.69 578.665 808.096C582.346 779.502 590.165 750.687 607.419 727.604C612.317 721.102 617.994 715.014 621.369 707.587C626.445 696.388 625.702 683.399 623.102 671.376C620.274 658.181 615.214 645.192 606.356 635C597.497 624.807 584.481 617.763 571.004 618.192C552.976 618.76 537.076 632.085 519.034 632.078C505.076 632.082 490.887 624 477.771 628.8C467.379 632.526 461.137 643.307 458.256 653.989C455.375 664.671 454.945 675.891 451.562 686.414C444.257 708.985 423.871 725.435 401.688 733.876C370.331 745.821 334.635 739.304 304.024 751.566Z" stroke="#DEECF4" stroke-miterlimit="10"/>
<path d="M512.665 887.705C502.332 880.588 493.808 871.233 484.932 862.313C443.918 821.399 394.502 789.889 340.105 769.964C336.82 768.772 332.766 766.131 334.01 762.873C334.518 761.785 335.353 760.884 336.398 760.296C344.967 754.583 356.007 754.921 366.29 754.71C376.478 754.508 386.637 753.563 396.687 751.88C405.004 750.638 413.161 748.496 421.016 745.494C429.446 741.831 437.553 737.464 445.249 732.438C455.587 726.088 466.619 718.827 470.477 707.249C472.868 700.033 471.899 692.057 472.923 684.467C473.948 676.876 478.061 668.61 485.558 667.022C488.293 666.581 491.09 666.707 493.774 667.393C501.681 669.131 509.181 672.333 517.216 673.471C527.703 674.954 538.315 672.704 548.895 671.816C559.475 670.929 570.942 671.924 579.134 678.659C582.151 681.162 584.556 684.32 586.165 687.894C587.775 691.467 588.547 695.362 588.423 699.279C588.058 708.18 583.062 716.239 577.225 722.959C571.387 729.679 564.505 735.491 559.162 742.61C543.243 763.844 543.202 792.871 545.59 819.18C547.365 838.879 550.131 858.988 547.014 878.701C546.006 885.213 544.434 894.762 536.895 896.685C529.356 898.608 518.683 891.837 512.665 887.705Z" stroke="#DEECF4" stroke-linecap="round" stroke-linejoin="round" stroke-dasharray="1.99 3.98"/>
<path d="M436.586 761.763C449.919 757.966 463.458 753.545 474.345 744.977C479.511 740.65 484.303 735.897 488.67 730.766C492.345 726.898 495.67 722.711 498.604 718.254C501.799 712.926 504.323 706.719 509.79 703.899C514.496 701.518 520.039 702.388 525.291 703.288C531.027 704.289 537.213 705.553 541.103 709.879C546.279 715.657 545.344 724.786 542.108 731.846C538.872 738.906 533.693 745.005 530.875 752.23C528.9 758.095 527.717 764.198 527.359 770.376C525.633 786.955 523.958 803.69 524.682 820.271C525.184 825.276 525.041 830.324 524.256 835.292C523.832 837.773 522.826 840.118 521.321 842.135C519.815 844.152 517.854 845.784 515.597 846.898C510.7 848.889 504.97 847.242 500.642 844.153C496.557 840.799 492.938 836.913 489.883 832.599C475.574 814.861 457.493 800.533 436.954 790.658C429.149 786.911 420.776 783.799 412.153 784.032C407.519 784.177 402.714 785.259 398.321 783.759C395.145 782.638 391.31 778.617 392.687 774.972C394.064 771.327 400.549 770.861 403.994 770.091C414.92 767.617 425.784 764.841 436.586 761.763Z" stroke="#DEECF4" stroke-miterlimit="10"/>
<path d="M216.944 547.251L221.604 561.658" stroke="#DEECF4" stroke-miterlimit="10"/>
<path d="M226.484 552.112L212.058 556.777" stroke="#DEECF4" stroke-miterlimit="10"/>
</g>
<defs>
<clipPath id="clip0_2967_83576">
<rect width="1867.3" height="1370.96" fill="white" transform="translate(-594 180.588) rotate(-17.9213)"/>
</clipPath>
</defs>
</svg>
