<svg width="953" height="528" viewBox="0 0 953 528" fill="none" xmlns="http://www.w3.org/2000/svg">
<g clip-path="url(#clip0_2893_8301)">
<path d="M101.498 420.179C99.1734 428.127 101.414 436.116 103.087 444.011C104.297 449.722 105.562 455.399 107.181 461.011C109.792 470.086 114.147 478.566 120.003 485.975C130.659 499.955 144.007 512.217 160.209 519.476C168.604 523.269 177.381 526.152 186.389 528.078C195.269 530.101 204.529 529.704 213.202 526.928C219.843 525.061 226.126 522.102 231.796 518.174C239.119 512.966 245.349 506.954 252.162 501.128C283.303 474.56 323.481 454.24 365.331 462.554C405.574 470.54 437.828 500.593 476.453 514.372C508.676 525.865 544.246 525.507 577.688 518.265C604.543 512.452 632.909 500.112 644.455 475.166C656.567 448.992 646.264 418.547 645.118 389.726C642.981 335.689 673.552 286.624 699.162 238.968C721.59 197.318 765.359 99.5527 708.387 67.5896C700.19 62.9794 691.483 59.872 682.859 56.2645C675.869 53.0541 668.6 50.4892 661.143 48.602C654.327 47.0532 647.381 46.4116 640.387 45.524C633.206 44.4326 625.92 44.214 618.687 44.8729C610.354 45.726 602.088 47.1347 593.943 49.0896C579.801 52.488 568.256 60.9866 556.36 69.1088C548.192 74.6819 540.381 80.7613 532.973 87.311C525.079 94.335 516.692 100.49 508.312 106.921C494.311 117.666 481.067 129.488 466.25 139.174C449.854 150.119 432.881 160.172 415.404 169.292C408.74 172.704 402.076 176.213 395.161 179.102C385.571 183.101 375.252 185.704 365.384 188.896C355.516 192.087 345.445 195.964 335.23 198.484C325.14 200.893 314.828 202.249 304.458 202.529C296.536 202.807 288.689 202.962 280.784 203.544C271.011 204.257 261.151 203.84 251.42 204.98C242.43 206.043 233.282 205.102 224.305 206.912C215.457 208.488 206.792 210.957 198.443 214.28C181.755 221.309 167.638 232.401 154.196 244.369C146.52 250.983 139.493 258.315 133.211 266.265C126.554 274.945 122.144 284.872 118.39 295.11C115.411 303.204 111.886 311.328 110.508 319.932C109.573 325.619 108.942 331.388 108.258 337.092C107.266 345.326 108.197 353.706 107.402 361.942C106.017 376.227 107.268 390.541 105.049 404.72C104.591 407.642 103.186 409.859 102.146 412.545C101.665 414.254 101.329 416 101.142 417.765C100.586 420.588 97.6855 423.223 101.498 420.179Z" stroke="#DEECF4" stroke-miterlimit="10"/>
<path d="M879.173 841.246C873.455 842.07 867.658 842.191 861.911 841.607C814.993 837.199 794.04 798.695 761.677 770.424C754.24 763.793 746.095 758 737.391 753.15C703.16 734.49 657.05 736.821 629.396 706.407C616.215 691.937 610.178 669.74 618.771 652.161C627.364 634.582 647.877 625.86 667.209 621.811C686.541 617.762 706.968 616.344 724.181 606.649C749.771 592.336 763.011 562.991 769.154 535.516C775.738 506.023 768.778 479.457 766.671 449.984C765.056 427.483 768.899 404.048 780.962 384.988C793.024 365.929 814.037 351.839 836.606 351.393C857.295 350.985 876.963 361.545 897.663 361.525C941.238 361.498 953.658 317.308 979.469 291.011C995.424 274.756 1019.05 259.447 1040.69 252.561C1057.25 247.206 1076.55 247.394 1090.96 257.077C1100.22 263.268 1106.74 272.744 1112.21 282.431C1116.04 289.236 1119.59 296.588 1119.54 304.404C1119.23 309.827 1117.97 315.153 1115.8 320.136C1110.62 333.773 1103.03 346.216 1097.91 359.814C1080 407.853 1112.52 462.261 1130.77 505.41C1133.56 512.029 1136.28 518.834 1136.76 525.992C1138.12 546.925 1119.41 571.66 1102.07 582.066C1077.28 596.936 1046.31 596.344 1019.78 606.933C1000.37 614.678 982.164 626.849 970.739 644.348C939.744 691.902 951.446 756.846 924.893 806.781C914.545 826.298 899.088 838.346 879.173 841.246Z" stroke="#DEECF4" stroke-miterlimit="10"/>
<path d="M832.716 3.83552C835.871 10.06 838.089 15.1517 837.991 22.2161C837.439 55.3231 824.934 87.0414 820.796 119.856C817.054 149.458 819.268 181.23 835.492 206.268C851.715 231.307 884.77 246.985 912.568 236.168C941.293 224.985 954.025 192.557 969.842 166.034C984.933 140.612 1005.07 118.551 1029.01 101.209C1044.75 89.8368 1062 80.6038 1077.19 68.544C1106.3 45.4243 1120.01 10.6383 1113.11 -26.2915C1111.92 -32.3583 1110.27 -38.326 1108.17 -44.1437C1105.53 -51.758 1099.67 -57.2703 1094.43 -63.1648C1089.2 -69.0594 1084.91 -75.3431 1078.38 -79.8892C1072.47 -84.0125 1065.62 -86.465 1058.77 -88.6572C1053.32 -90.3705 1047.49 -90.7665 1041.9 -91.882C1034.21 -93.3586 1026.32 -93.6017 1018.55 -92.602C1010.52 -91.6379 1002.99 -88.4846 995.325 -86.0542C982.35 -81.719 969.887 -75.9812 958.157 -68.9428C952.774 -66.0629 947.59 -62.8272 942.638 -59.2573C937.422 -55.2044 932.135 -50.9655 926.899 -46.8734C921.92 -42.946 916.628 -39.2767 911.746 -35.2502C908.215 -32.3458 905.02 -29.2076 901.26 -26.5556C888.868 -17.8487 877.657 -6.1459 863.246 -0.653323C859.496 0.727563 855.604 1.6905 851.643 2.21802C848.828 2.49453 846.034 2.9566 843.279 3.60124C841.345 4.12889 839.438 4.84337 837.533 5.45966C835.991 5.99083 833.034 7.7466 832.716 3.83552Z" stroke="#DEECF4" stroke-miterlimit="10"/>
<path d="M153.29 667.917C154.544 652.925 159.376 638.453 167.382 625.716C188.073 593.325 228.804 546.31 268.38 539.418C314.28 531.443 356.717 571.795 403.249 569.408C426.778 568.195 448.284 556.133 471.24 550.83C494.197 545.527 523.179 549.975 533.319 571.237C540.832 587.001 535.042 605.729 527.761 621.611C520.48 637.493 511.506 653.792 512.941 671.195C515.055 697.109 539.668 717.362 540.58 743.338C541.309 763.809 524.504 783.391 504.151 785.796C486.123 787.922 469.069 778.229 451.746 772.899C436.213 768.256 419.86 767.025 403.807 769.29C387.754 771.556 372.381 777.264 358.739 786.024C337.186 800.109 321.173 821.229 301.331 837.828C292.249 845.318 281.966 852.119 270.363 853.326C253.089 855.111 237.126 844.249 224.437 832.411C186.697 797.198 147.554 726.72 153.29 667.917Z" stroke="#DEECF4" stroke-miterlimit="10"/>
<path d="M345.875 282.764C345.086 286.488 345.344 290.358 346.619 293.945C350.927 306.912 360.295 312.971 373.135 309.03C387.846 304.518 403.387 299.998 418.62 304.617C433.853 309.236 445.77 320.051 456.462 331.214C467.937 343.184 496.565 379.989 516.456 364.5C521.672 360.447 523.247 352.954 521.709 346.484C520.172 340.014 516.076 334.566 511.553 329.763C497.264 314.592 476.57 303.074 469.518 282.38C468.312 279.397 467.991 276.129 468.596 272.969C469.888 267.983 474.729 264.638 479.71 263.288C489.982 260.489 500.979 262.757 511.326 260.39C528.423 256.493 540.544 239.029 538.608 221.69C537.877 215.737 535.665 210.063 532.175 205.186C528.685 200.308 524.028 196.384 518.63 193.77C508.687 189.471 497.452 189.254 487.35 193.166C475.617 197.398 466.041 206.11 460.723 217.393C456.465 226.227 453.978 235.892 449.755 244.682C444.17 256.474 434.212 268.669 419.691 265.043C414.93 263.842 410.428 261.626 405.731 260.323C389.054 255.73 350.519 262.562 345.875 282.764Z" stroke="#DEECF4" stroke-miterlimit="10"/>
<path d="M450.457 353.161C432.917 338.632 413.391 323.718 390.626 322.954C378.385 322.54 365.988 326.337 354.011 323.765C337.903 320.326 325.616 304.735 324.836 288.295C324.055 271.855 334.127 255.772 348.72 247.969C355.573 244.526 362.979 242.318 370.598 241.448C387.194 239.231 404.08 241.046 419.826 246.74C422.542 247.722 425.601 248.805 428.239 247.528C431.593 245.888 432.118 241.459 432.794 237.798C443.335 180.933 550.251 151.937 561.654 221.808C563.454 232.419 563.345 243.991 557.715 253.171C549.613 266.365 532.743 270.76 517.415 272.911C511.388 273.75 504.637 274.824 501.033 279.726C498.21 283.609 498.23 289.02 499.957 293.503C501.923 297.897 504.71 301.875 508.17 305.223C517.628 315.348 528.341 324.709 534.618 337.055C540.895 349.4 541.507 366.026 531.625 375.732C506.017 400.739 470.507 369.798 450.457 353.161Z" stroke="#DEECF4" stroke-miterlimit="10"/>
<path d="M414.981 351.188C426.639 358.213 437.83 365.986 448.484 374.457C460.452 383.966 472.19 394.529 486.865 398.937C502.398 403.525 519.179 400.366 534.558 395.295C539.905 393.565 545.32 391.439 549.381 387.547C552.914 383.899 555.483 379.428 556.858 374.54C560.888 361.83 560.227 348.097 554.995 335.833C550.931 326.395 544.302 318.258 539.572 309.133C537.275 304.703 535.385 299.718 536.259 294.801C537.446 288.38 542.893 283.779 548.025 279.769C560.456 270.022 573.706 259.226 577.599 243.918C580.897 230.956 576.738 217.338 571.89 204.971C567.642 194.107 562.609 183.186 554.167 175.147C539.145 160.685 515.516 158.259 495.595 164.522C475.674 170.785 459.079 184.359 444.278 198.937C436.085 207.053 428.048 215.755 417.643 220.718C405.627 226.449 391.804 226.595 378.605 227.861C364.207 229.254 349.725 232.306 337.03 239.218C324.335 246.13 313.569 257.493 309.668 271.417C302.471 297.094 320.366 324.676 342.978 335.965C354.528 341.71 362.819 340.302 374.795 339.039C389.209 337.593 402.954 343.917 414.981 351.188Z" stroke="#DEECF4" stroke-miterlimit="10"/>
<path d="M358.348 287.427C358.117 288.938 358.386 290.483 359.116 291.827C359.845 293.17 360.993 294.238 362.386 294.868C365.233 296.049 368.417 296.13 371.32 295.095C374.194 294.069 376.993 292.848 379.7 291.439C384.481 288.962 389.852 287.852 395.224 288.229C401.178 288.931 406.863 292.33 412.782 291.411C413.531 291.338 414.242 291.051 414.832 290.585C415.411 289.943 415.755 289.124 415.81 288.262C416.102 285.449 415.425 282.62 413.891 280.244C412.357 277.868 410.058 276.087 407.375 275.195C400.152 273.043 392.842 277.838 385.367 278.64C381.691 279.03 377.98 278.451 374.268 278.477C368.974 278.557 359.739 281.283 358.348 287.427Z" stroke="#DEECF4" stroke-miterlimit="10"/>
<path d="M513.442 344.785C513.671 345.489 513.711 346.241 513.559 346.966C513.332 347.672 512.905 348.297 512.331 348.766C509.286 351.513 504.494 351.529 500.739 349.856C497.095 347.945 493.875 345.318 491.273 342.131C488.136 338.74 467.124 319.427 478.345 316.941C481.951 316.133 484.593 319.913 486.941 322.026C491.237 325.874 496.422 328.587 501.27 331.669C506.118 334.752 511.842 338.628 513.442 344.785Z" stroke="#DEECF4" stroke-miterlimit="10"/>
<path d="M500.745 250.53C498.135 250.308 495.636 249.372 493.523 247.823C490.861 245.649 489.635 242.211 488.55 238.956L484.924 228.249C483.524 223.921 482.041 219.081 483.992 214.975C484.507 213.799 485.374 212.812 486.473 212.149C488.856 210.791 491.892 211.702 494.301 213.044C496.709 214.386 498.952 216.174 501.673 216.616C506.218 217.349 510.651 214.104 515.237 214.611C521.01 215.257 524.441 221.425 525.666 227.132C527.09 233.704 526.628 242.567 520.448 246.769C515.334 250.331 506.704 251.295 500.745 250.53Z" stroke="#DEECF4" stroke-miterlimit="10"/>
<path d="M132.326 437.802C137.224 451.736 147.476 463.253 159.183 472.26C166.205 477.674 173.886 482.403 182.538 484.533C191.189 486.662 200.691 486.021 208.191 481.311C211.135 479.296 213.873 476.995 216.363 474.442L226.684 464.577C230.943 460.491 235.452 455.916 236.133 450.099C236.902 443.095 231.761 436.582 225.447 433.354C219.132 430.126 212.015 429.311 205.109 427.987C202.66 427.636 200.321 426.736 198.269 425.353C196.258 423.651 194.735 421.447 193.853 418.965C190.406 410.828 189.003 401.344 182.666 395.17C176.815 389.491 167.868 388.011 159.819 389.358C151.769 390.705 137.613 394.712 133.406 402.795C128.077 413.362 128.496 426.917 132.326 437.802Z" stroke="#DEECF4" stroke-miterlimit="10"/>
<path d="M119.157 369.987C123.655 366.183 129.254 363.921 135.133 363.532C140.962 363.154 146.815 363.405 152.59 364.282C158.954 364.758 165.235 366.015 171.293 368.024C178.789 370.871 185.241 375.933 189.79 382.537C193.58 388.05 195.929 394.454 199.744 399.943C203.607 405.482 208.849 409.917 214.952 412.81C224.388 417.265 235.767 417.99 243.645 424.841C247.898 428.557 250.636 433.693 252.942 438.854C255.125 443.173 256.361 447.907 256.568 452.742C256.524 457.651 254.551 462.499 252.62 467.073C251.08 471.309 248.936 475.3 246.254 478.922C242.233 483.796 236.422 486.817 230.611 489.333C219.352 493.98 207.831 497.963 196.106 501.259C195.485 501.46 194.576 501.574 194.375 500.954C194.175 500.333 195.463 500.08 195.173 500.696" stroke="#DEECF4" stroke-miterlimit="10"/>
<path d="M121.945 321.847C127.065 319.767 132.436 317.654 137.951 318.106C142.464 318.731 146.787 320.335 150.615 322.806C160.424 328.431 169.383 335.424 177.222 343.572C189.164 356.028 198.583 371.175 212.867 380.833C217.728 384.157 223.95 386.697 229.255 384.231C231.124 383.221 232.722 381.777 233.915 380.019C235.107 378.262 235.859 376.243 236.107 374.134C236.555 369.904 236.207 365.627 235.081 361.526C231.873 346.915 226.762 332.626 225.516 317.723C224.758 308.667 225.64 298.934 231.126 291.677C233.605 288.395 236.933 285.769 239.174 282.303C244.093 274.707 242.876 264.789 241.521 255.909" stroke="#DEECF4" stroke-miterlimit="10"/>
<path d="M132.888 308.86C147.425 308.956 162.451 312.027 174.083 320.748C183.364 327.7 189.805 337.676 197.222 346.585C198.971 348.971 201.21 350.957 203.788 352.408C205.085 353.119 206.554 353.453 208.03 353.37C209.507 353.288 210.93 352.793 212.139 351.942C214.39 350.072 214.949 346.856 214.985 343.94C215.076 335.997 212.518 328.29 209.974 320.775C207.429 313.26 204.812 305.572 204.761 297.642C204.709 289.712 207.637 281.309 214.345 276.822" stroke="#DEECF4" stroke-miterlimit="10"/>
<path d="M258.784 417.563C257.137 415.173 255.965 412.489 255.329 409.657C255.034 408.231 255.089 406.756 255.489 405.356C255.889 403.956 256.622 402.674 257.626 401.62C261.701 397.724 269.437 399.644 272.87 395.173C273.582 393.891 274.407 392.675 275.333 391.537C277.659 389.447 281.316 390.663 284.132 391.955C291.745 395.295 298.968 399.459 305.673 404.373C312.406 409.326 317.604 416.077 320.67 423.853C322.653 429.379 323.015 436.148 319.228 440.636C317.536 442.47 315.541 443.998 313.33 445.154C306.871 448.96 300.224 452.438 293.416 455.576C287.736 458.196 284.014 460.966 281.093 454.356C275.043 440.844 266.601 430.08 258.784 417.563Z" stroke="#DEECF4" stroke-miterlimit="10"/>
<path d="M268.512 419.492C267.665 418.134 266.797 416.408 267.478 414.931C267.702 414.525 268.004 414.167 268.367 413.878C268.731 413.59 269.148 413.377 269.594 413.251C271.49 412.894 273.428 412.817 275.346 413.023C277.271 412.971 279.463 412.23 280.102 410.424C280.359 409.705 280.337 408.929 280.53 408.214C280.899 407.175 281.588 406.28 282.498 405.658C283.408 405.035 284.491 404.717 285.593 404.748C287.779 404.833 289.912 405.441 291.813 406.523C298.763 410.002 305.511 414.82 308.732 421.905C314.423 434.456 305.027 445.768 291.936 444.845C281.067 444.134 273.478 427.53 268.512 419.492Z" stroke="#DEECF4" stroke-miterlimit="10"/>
<path d="M675.738 210.433C683.829 197.814 688.696 183.398 693.522 169.257C697.731 157.045 701.864 144.596 701.842 131.712C701.62 123.818 700.449 115.979 698.354 108.364C697.295 103.017 695.358 97.8816 692.623 93.1661C689.514 88.3462 684.976 84.6575 680.541 81.0336C675.183 76.7287 669.557 72.2987 662.894 70.7169C658.026 69.8568 653.048 69.8122 648.166 70.5849C627.221 72.6753 606.219 75.6981 586.332 82.5703C566.444 89.4426 547.513 100.281 533.736 116.158C529.201 121.41 525.103 128.92 528.569 134.946C530.871 138.934 535.936 140.722 540.511 140.287C545.086 139.852 549.337 137.759 553.359 135.512C564.091 129.545 574.268 122.615 585.275 117.195C596.282 111.775 608.371 107.882 620.635 108.517C632.899 109.152 645.332 115.003 651.764 125.455C657.943 135.531 657.809 148.335 655.187 159.855C652.565 171.374 647.754 182.28 644.945 193.778C642.024 205.835 640.55 225.142 651.932 233.699C658.116 238.34 660.833 233.219 663.869 228.125C667.474 222.015 671.884 216.428 675.738 210.433Z" stroke="#DEECF4" stroke-miterlimit="10"/>
<path d="M553.111 115.522C552.242 117.174 551.699 119.633 553.311 120.581C554.066 120.917 554.912 120.994 555.715 120.799C565.764 119.327 574.367 113.135 583.162 108.088C595.259 101.043 608.697 95.6198 622.663 95.313C636.63 95.0061 651.264 100.651 659.376 112.061C665.733 121.019 667.534 132.544 666.768 143.496C666.002 154.448 662.966 165.139 660.219 175.817C659.307 178.679 659.059 181.711 659.496 184.683C660.137 187.625 662.538 190.406 665.537 190.447C669.803 190.52 672.228 185.656 673.33 181.547C675.345 174.101 676.506 166.45 676.79 158.742C676.997 153.78 676.816 148.731 677.298 143.762C677.703 139.568 678.575 135.402 678.677 131.176C679.015 117.083 670.247 103.747 658.32 96.2316C646.393 88.7157 631.674 86.4431 617.59 87.2448C594.649 88.5612 564.821 93.0514 553.111 115.522Z" stroke="#DEECF4" stroke-miterlimit="10"/>
<path d="M634.024 151.735C624.046 177.554 623.381 206.043 632.144 232.299C635.449 242.065 641.238 252.447 651.246 254.937C662.494 257.729 673.347 249.258 680.806 240.385C708.751 207.214 718.188 161.72 716.701 118.373" stroke="#DEECF4" stroke-miterlimit="10"/>
<path d="M396.815 553.801C381.275 552.773 366.239 548.107 351.379 543.432L321.455 534.002L291.815 524.594C289.83 524.033 287.924 523.224 286.141 522.187C279.214 517.77 278.734 507.204 282.97 500.172C287.207 493.14 294.713 488.852 301.965 484.989C308.936 481.315 315.944 477.76 323.646 476.346C328.767 475.499 333.966 475.213 339.149 475.493C351.499 475.839 364.041 477.233 375.507 481.961C381.279 484.37 386.666 487.604 392.327 490.277C404.164 495.848 417.036 498.816 429.272 503.605C439.258 507.538 449.428 513.404 453.744 523.218C455.196 526.29 455.694 529.727 455.173 533.085C453.271 543.098 440.535 544.182 432.878 547.801C421.562 552.833 409.151 554.898 396.815 553.801Z" stroke="#DEECF4" stroke-miterlimit="10"/>
<path d="M295.138 513.223C296.454 516.234 298.857 518.639 301.868 519.956C305.154 521.39 308.856 521.384 312.43 521.435C326.106 521.892 339.628 524.46 352.52 529.046C359.67 531.629 366.604 534.755 373.932 536.677C386.52 539.981 399.717 539.515 412.723 539.062C417.874 538.897 423.248 538.661 427.753 536.143C432.258 533.625 435.475 528.032 433.599 523.238C432.044 519.238 427.629 517.141 423.465 516.122C416.836 514.496 409.913 514.581 403.229 513.038C397.155 511.351 391.272 509.038 385.675 506.135C365.853 496.864 344.313 488.786 322.573 491.395C317.897 491.716 313.389 493.269 309.507 495.898C305.553 498.808 303.222 503.103 298.576 504.834C294.679 506.355 293.252 508.856 295.138 513.223Z" stroke="#DEECF4" stroke-miterlimit="10"/>
<path d="M311.315 510.015C312.027 512.216 314.551 513.26 316.841 513.531C320.711 513.993 324.612 513.139 328.495 512.732C337.642 511.791 346.871 513.39 355.168 517.355C359.196 519.316 362.93 521.731 366.909 523.74C376.531 528.565 387.293 530.655 398.022 529.783C399.871 529.754 401.68 529.237 403.265 528.284C404.039 527.784 404.616 527.032 404.901 526.155C405.185 525.278 405.158 524.331 404.825 523.471C404.245 522.539 403.393 521.806 402.384 521.373C393.758 516.901 383.316 517.912 373.96 515.472C369.163 514.005 364.444 512.296 359.821 510.351C350.705 507.129 341.205 505.116 331.565 504.363C327.41 503.978 308.323 500.409 311.315 510.015Z" stroke="#DEECF4" stroke-miterlimit="10"/>
<path d="M312.77 244.175C291.753 257.091 284.641 286.462 293.364 309.601C302.088 332.741 323.617 349.21 347.087 356.795C365.891 362.87 386.716 364.196 403.065 375.292C414.299 382.934 422.218 394.454 431.997 403.905C450.303 421.558 474.68 431.521 500.11 431.742C525.54 431.962 550.087 422.424 568.696 405.091C577.049 397.315 584.25 387.595 586.109 376.338C590.04 352.419 569.475 331.313 566.367 307.272C566.121 306.002 566.178 304.692 566.534 303.448C567.334 301.231 569.667 300.069 571.671 298.85C580.982 293.179 586.231 282.719 589.682 272.4C595.507 254.575 597.419 235.703 595.288 217.072C593.157 198.441 587.033 180.489 577.335 164.44L578.264 167.011" stroke="#DEECF4" stroke-miterlimit="10"/>
<path d="M287.873 254.022L287.3 255.48" stroke="#DEECF4" stroke-linecap="round" stroke-linejoin="round"/>
<path d="M285.063 261.278C280.542 273.183 276.535 285.363 275.297 297.985C273.688 313.191 276.483 329.404 285.856 341.482C297.985 357.141 318.338 363.009 336.705 370.253C356.04 377.905 374.381 387.861 391.331 399.907C410.153 413.303 427.429 429.386 448.556 438.707C480.447 452.755 517.986 449.557 550.283 436.501C556.945 434.048 563.196 430.596 568.821 426.264C574.984 421.203 579.653 414.602 584.126 407.999C593.718 394.013 603.535 378.355 601.846 361.475C600.274 345.666 588.636 330.469 593.275 315.295C594.974 309.703 598.713 305.018 601.67 299.983C616.891 274.141 611.046 241.586 604.715 212.271C600.737 193.814 596.752 175.353 592.76 156.889" stroke="#DEECF4" stroke-linecap="round" stroke-linejoin="round" stroke-dasharray="2 4"/>
<path d="M592.12 153.8L591.79 152.275" stroke="#DEECF4" stroke-linecap="round" stroke-linejoin="round"/>
<path d="M560.106 495.837C570.747 493.423 581.253 489.128 589.279 481.703C597.304 474.277 602.552 463.361 601.388 452.495C600.953 448.425 599.454 444.194 596.147 441.788C592.123 438.831 586.388 439.364 581.93 441.622C577.471 443.879 573.967 447.575 570.268 450.973C557.049 463.277 540.223 472.602 522.172 473.398C513.223 473.779 504.037 472.116 495.471 474.69C489.12 476.597 484.923 482.441 490.485 487.529C494.921 491.609 506.176 493.664 511.937 495.13C527.712 499.164 544.218 499.406 560.106 495.837Z" stroke="#DEECF4" stroke-miterlimit="10"/>
<path d="M554.473 489.32C564.004 488.456 573.104 484.948 580.748 479.191C585.01 475.87 588.932 470.539 587.097 465.471C585.66 461.481 580.975 459.406 576.75 459.712C572.524 460.018 568.675 462.193 565.124 464.532C558.511 468.906 552.209 474.094 544.632 476.397C539.61 477.923 534.39 478.078 529.227 478.866C525.825 479.445 519.921 482.382 524.683 485.753C528.001 488.091 534.719 488.431 538.647 488.972C543.89 489.723 549.203 489.839 554.473 489.32Z" stroke="#DEECF4" stroke-miterlimit="10"/>
<path d="M594.192 543.262C592.258 545.162 590.893 547.564 590.251 550.198C588.819 555.857 589.376 561.837 591.828 567.134C594.281 572.431 598.481 576.724 603.723 579.292C614.06 584.01 628.519 582.352 634.363 592.097C637.42 597.211 636.896 604.168 640.932 608.574C643.913 611.836 648.642 612.787 653.054 613.008C667.242 613.69 681.282 608.415 692.997 600.287C704.711 592.158 714.166 581.333 722.722 569.999C728.327 562.557 733.636 554.754 736.827 546.004C740.401 536.167 741.155 525.529 741.244 515.057C741.43 492.626 738.71 470.188 739.794 447.809C740.879 425.43 746.182 402.323 760.375 384.956C767.241 376.568 775.948 369.787 782.506 361.155C795.449 344.111 798.12 318.364 784.866 301.65C776.715 291.33 763.657 285.566 750.537 284.555C737.417 283.544 724.268 286.883 712.231 292.244C694.386 300.185 678.091 313.222 670.007 331.012C661.923 348.801 662.757 369.744 663.148 389.574C663.731 419.71 662.584 449.855 659.712 479.859C658.717 490.102 657.485 500.52 653.217 509.879C648.084 521.15 638.977 529.317 627.999 534.678C623.767 536.95 619.248 538.641 614.565 539.708C607.754 540.948 599.894 538.138 594.192 543.262Z" stroke="#DEECF4" stroke-miterlimit="10"/>
<path d="M620.735 567.312C626.918 568.168 633.857 568.078 638.394 572.371C643.915 577.585 643.238 586.893 648.149 592.696C650.775 595.521 654.219 597.454 657.998 598.225C670.412 601.292 683.858 596.046 693.513 587.555C703.168 579.064 709.741 567.703 715.818 556.371C722.379 544.165 728.661 531.397 730.11 517.613C730.648 510.918 730.547 504.186 729.809 497.51C728.104 476.849 725.412 456.115 726.359 435.379C727.306 414.644 732.175 393.521 744.198 376.612C751.617 366.151 761.673 357.384 766.83 345.681C771.987 333.978 769.937 317.296 758.165 312.226C753.841 310.361 748.99 310.396 744.291 310.447C733.488 310.547 722.548 310.675 712.095 313.419C701.642 316.163 691.56 321.822 685.666 330.892C681.23 337.711 679.501 345.939 677.82 353.858C673.07 376.607 668.292 399.626 668.806 422.859C669.003 431.492 669.928 440.103 670.11 448.741C670.729 477.243 664.074 511.915 648.278 536.18C642.483 545.104 634.929 548.134 624.735 549.962C619.581 550.879 608.622 549.739 607.008 555.695C605.221 562.735 615.85 566.64 620.735 567.312Z" stroke="#DEECF4" stroke-miterlimit="10"/>
<path d="M698.18 350.668C698.759 347.387 699.861 344.221 701.446 341.29C703.815 337.65 707.053 334.657 710.867 332.581C715.784 329.62 721.676 327.454 727.21 328.927C733.823 330.705 738.264 337.476 738.95 344.288C739.635 351.099 737.202 357.907 733.864 363.881C730.526 369.856 726.411 375.397 723.22 381.422C718.786 389.66 716.156 398.735 712.231 407.233C709.642 412.802 706.081 418.49 700.443 420.835C694.805 423.181 686.722 420.084 686.167 414.03C686.137 411.484 686.744 408.972 687.932 406.72C691.693 397.916 695.421 390.624 695.609 381.116C695.774 370.978 695.391 360.561 698.18 350.668Z" stroke="#DEECF4" stroke-miterlimit="10"/>
<path d="M649.786 550.933C648.095 553.879 647.579 557.783 649.488 560.608C653.998 560.781 659.301 561.383 661.46 565.336C663.368 568.814 661.854 573.367 663.364 576.974C665.508 582.041 672.805 583.01 677.558 580.249C682.311 577.488 685.014 572.273 687.307 567.305C700.645 537.992 707.786 506.241 708.283 474.04C708.352 469.661 708.101 464.798 705.031 461.662C700.55 457.09 692.264 459.068 688.14 463.976C677.465 476.729 681.859 498.642 677.098 513.839C672.165 529.516 657.442 537.525 649.786 550.933Z" stroke="#DEECF4" stroke-miterlimit="10"/>
<path d="M665.077 553.413C665.243 553.897 665.525 554.333 665.9 554.681C666.275 555.03 666.73 555.28 667.224 555.411C667.947 555.407 668.667 555.338 669.377 555.204C670.074 555.239 670.749 555.461 671.331 555.848C671.912 556.234 672.379 556.77 672.681 557.399C673.241 558.694 673.552 560.082 673.597 561.492C673.597 562.399 673.883 563.283 674.414 564.018C674.904 564.474 675.537 564.746 676.205 564.789C676.873 564.831 677.535 564.642 678.079 564.252C679.154 563.448 679.995 562.37 680.513 561.132C684.286 553.776 686.171 545.628 688.02 537.573L691.357 523.065C691.427 522.882 691.455 522.685 691.44 522.49C691.425 522.295 691.366 522.105 691.269 521.935C691.001 521.613 690.5 521.629 690.082 521.698C685.327 522.584 682.116 526.984 679.799 531.225C677.139 536.116 675.51 539.759 670.307 541.784C665.631 543.672 662.769 548.546 665.077 553.413Z" stroke="#DEECF4" stroke-miterlimit="10"/>
<path d="M699.682 409.855C699.032 410.017 698.343 409.917 697.765 409.577C697.446 409.254 697.215 408.853 697.096 408.414C696.977 407.975 696.973 407.513 697.085 407.072C697.759 401.437 701.963 396.928 704.346 391.833C707.413 385.424 707.724 378.111 708.446 371.057C709.167 364.004 710.534 356.577 715.075 351.193C716.275 349.858 717.995 348.617 719.569 349.348C720.468 349.89 721.114 350.766 721.369 351.784C722.649 356.079 722.57 360.663 721.143 364.911C719.711 369.15 717.95 373.271 715.878 377.237C712.992 383.493 710.499 389.923 708.414 396.49C706.591 402.105 706.955 408.678 699.682 409.855Z" stroke="#DEECF4" stroke-miterlimit="10"/>
<path d="M851.605 39.2869C851.282 39.7013 850.989 40.1062 850.69 40.5454" stroke="#DEECF4" stroke-linecap="round" stroke-linejoin="round"/>
<path d="M847.716 45.9295C846.107 49.6814 844.795 53.5538 843.792 57.511C834.674 91.0544 831.203 125.881 833.52 160.565C834.388 173.338 836.401 186.932 844.923 196.479C850.338 202.577 857.904 206.347 865.428 209.429C873.715 212.753 882.629 215.288 891.449 213.953C902.477 212.181 911.641 204.29 918.179 195.241C924.716 186.192 929.184 175.838 934.902 166.221C962.531 119.511 1015.27 94.998 1057.26 60.6129C1070.58 49.7784 1083.41 36.9315 1088.34 20.4737C1093.64 2.8998 1089.11 -15.8374 1083.81 -33.5407" stroke="#DEECF4" stroke-linecap="round" stroke-linejoin="round" stroke-dasharray="1.98 3.97"/>
<path d="M881.892 18.1027C864.676 59.4217 847.241 101.677 844.376 146.35C843.246 163.946 846.883 185.386 863.217 192.048C879.552 198.71 897.467 185.589 905.633 170.172C913.799 154.754 916.023 136.706 924.316 121.28C937.839 95.939 965.027 81.517 990.563 68.347C1016.1 55.177 1043.12 40.1742 1055.78 14.3932C1060.07 5.51585 1062.42 -4.17363 1062.68 -14.031C1062.94 -23.8885 1061.1 -33.688 1057.28 -42.7782" stroke="#DEECF4" stroke-miterlimit="10"/>
<path d="M1023.21 -7.56116C1032.61 5.21013 1030.42 23.8675 1021.57 37.0251C1012.72 50.1827 998.559 58.7609 984.172 65.4369C969.785 72.113 954.631 77.3239 941.264 85.8405C923.722 97.1278 910.126 113.591 902.358 132.95C900.299 138.087 898.615 143.527 895.135 147.851C891.654 152.174 885.785 155.166 880.596 153.352C872.08 150.428 871.657 138.424 874.361 129.832C880.203 111.266 892.672 95.6321 902.031 78.5561C911.39 61.4801 917.631 40.6153 909.94 22.7384" stroke="#DEECF4" stroke-miterlimit="10"/>
<path d="M983.858 23.2934C980.693 23.5989 978.949 27.0349 978.268 30.1269C976.91 36.4729 977.534 42.9448 977.201 49.4326C976.868 55.9204 975.109 62.69 970.176 66.8143C964.883 71.2348 957.394 71.4377 950.83 73.5441C935.452 78.5173 924.845 94.1043 909.107 97.6112C908.223 97.9167 907.255 97.8604 906.413 97.4545C905.002 96.5237 905.419 94.3818 906.106 92.8217C909.199 85.5612 913.546 78.9023 918.949 73.1502C922.157 69.747 925.769 66.588 927.878 62.4139C929.988 58.2398 930.371 53.3187 930.707 48.6083L931.875 31.7829" stroke="#DEECF4" stroke-miterlimit="10"/>
<path d="M811.615 77.0877C798.589 94.5825 792.92 116.813 792.907 138.617C792.893 160.421 798.253 181.94 805.551 202.489C808.865 211.828 812.694 221.196 819.053 228.8C832.883 245.327 855.785 250.55 877.115 253.638C889.339 255.412 901.866 256.811 913.995 254.504C942.486 249.108 963.35 224.722 978.249 199.849C993.147 174.977 1005.05 147.466 1026.46 127.916C1048.53 107.723 1078.6 98.0944 1100.7 77.9756C1133.24 48.3615 1143.23 -0.166165 1135.97 -43.5556" stroke="#DEECF4" stroke-miterlimit="10"/>
<path d="M729.021 261.669C721.749 263.45 712.294 265.447 708.231 259.141C705.296 254.656 707.459 248.376 711.273 244.63C715.087 240.883 720.226 238.813 724.803 236.012C732.201 231.457 738.199 224.949 742.136 217.205C750.992 199.835 749.922 176.293 765.566 164.674C768.136 162.782 771.787 161.357 774.417 163.182C777.662 165.396 776.64 170.41 775.486 174.258C770.486 190.382 770.112 209.055 779.615 223.001C789.67 237.796 809.059 244.971 816.918 261.048C820.418 268.238 821.862 281.885 811.394 282.415C805.249 282.689 791.935 269.976 785.729 267.234C767.948 259.212 748.023 257.257 729.021 261.669Z" stroke="#DEECF4" stroke-miterlimit="10"/>
<path d="M751.91 227.245C748.74 230.865 742.971 232.551 741.888 237.225C741.724 238.236 741.803 239.272 742.119 240.247C742.435 241.221 742.979 242.106 743.705 242.828C744.432 243.551 745.32 244.089 746.297 244.4C747.273 244.71 748.309 244.783 749.319 244.612C753.261 243.631 755.551 239.007 759.54 238.223C764.911 237.171 769.743 243.686 775.038 242.349C775.932 242.159 776.729 241.658 777.289 240.935C778.403 239.335 777.692 237.134 776.858 235.364C774.412 230.048 771.423 225 767.939 220.299C767.03 218.918 765.868 217.722 764.514 216.772C762.005 215.218 756.014 214.757 754.213 217.412C752.611 219.774 754.603 224.22 751.91 227.245Z" stroke="#DEECF4" stroke-miterlimit="10"/>
<path d="M828.184 294.119C825.127 295.979 822.466 298.423 820.354 301.313C818.242 304.202 816.721 307.479 815.876 310.957C815.103 313.608 815.189 316.437 816.123 319.036C818.375 324.182 825.072 325.818 830.599 324.846C836.126 323.875 841.17 321.052 846.645 319.869C863.794 316.183 880.22 328.983 897.735 329.96C904.379 330.323 911.005 328.967 916.972 326.023C918.984 325.165 920.729 323.784 922.026 322.023C923.44 319.787 923.505 317.008 923.847 314.385C924.452 309.856 925.957 305.494 928.273 301.556C930.589 297.618 933.67 294.183 937.334 291.454C942.538 287.617 948.711 285.36 954.433 282.367C960.155 279.374 965.74 275.3 968.292 269.367C970.844 263.434 969.189 255.338 963.376 252.502C959.25 250.491 954.316 251.532 949.977 253.05C934.911 258.281 922.079 268.403 907.677 275.231C893.274 282.059 875.281 285.202 861.97 276.437C856.884 273.072 841.112 255.182 834.709 264.04C831.572 268.318 836.538 275.246 837.557 279.355C839.667 287.696 834.527 290.321 828.184 294.119Z" stroke="#DEECF4" stroke-miterlimit="10"/>
<path d="M837.484 314.902C849.136 313.695 859.59 303.64 871.022 306.193C875.226 307.134 878.842 309.685 882.594 311.702C889.759 315.439 899.285 316.943 905.416 311.632C909.978 307.676 911.29 301.035 915.434 296.644C917.969 294.359 920.735 292.343 923.687 290.629C926.488 288.695 929.187 286.191 930.026 282.884C930.866 279.578 929.023 275.442 925.65 274.901C922.277 274.36 919.441 277.399 917.047 279.886C911.831 285.217 905.419 289.227 898.343 291.583C891.267 293.94 883.731 294.575 876.361 293.436C868.384 292.132 859.954 288.772 852.551 292.014C848.021 294.002 845.142 298.017 841.355 300.987C837.962 303.716 834.754 303.334 831.258 305.085C823.386 309.05 830.462 315.541 837.484 314.902Z" stroke="#DEECF4" stroke-miterlimit="10"/>
<path d="M850.288 808.44C838.989 800.394 830.21 789.396 820.425 779.572C782.63 741.668 730.491 722.077 679.066 707.216C669.85 704.55 660.397 701.913 652.453 696.519C644.508 691.126 638.164 682.359 638.353 672.752C638.689 655.07 658.848 645.303 676.02 641.136C695.525 636.46 715.52 633.502 734.352 626.596C753.184 619.69 771.233 608.141 780.813 590.488C786.728 579.666 789.074 567.191 789.46 554.861C790.343 526.412 781.18 498.633 778.955 470.259C776.73 441.885 783.795 409.543 807.822 394.43C839.176 374.728 881.924 393.538 916.649 380.676C934.127 374.175 947.616 360.382 960.463 346.926L1005.57 300.078C1015 290.289 1024.78 280.243 1037.26 274.851C1049.75 269.459 1065.74 269.833 1075.4 279.405C1083.83 287.774 1085.48 301.045 1083.26 312.76C1081.05 324.474 1075.55 335.163 1071.44 346.315C1061.53 373.318 1059.7 402.623 1066.17 430.649C1073.43 461.832 1090.58 489.658 1101.87 519.65C1104.09 525.542 1106.11 531.791 1105.27 538.033C1104.32 543.366 1102 548.361 1098.54 552.531C1065.07 596.38 989.146 583.552 953.408 625.574C933.907 648.476 932.266 680.989 927.683 710.716C923.349 738.761 915.636 766.179 904.715 792.372C900.54 802.37 896.217 815.288 884.715 818.323C873.214 821.357 859.201 814.809 850.288 808.44Z" stroke="#DEECF4" stroke-miterlimit="10" stroke-dasharray="2 4"/>
<path d="M1034.35 568.688C1055.38 564.335 1078.29 552.634 1082.32 531.538C1084.47 520.27 1080.63 508.8 1076.83 497.955L1061.53 454.046C1057.26 441.851 1052.7 429.163 1043.57 420.091C1034.43 411.019 1019.24 406.518 1008.33 413.456C997.053 420.612 994.906 436.122 995.808 449.456C996.709 462.789 999.327 476.889 993.642 488.975C983.711 510.136 952.968 515.379 944.196 536.997C942.122 542.58 941.268 548.542 941.693 554.483C942.449 571.959 954.898 594.661 975.132 586.387C983.638 582.919 989.554 577.448 999.017 575.073C1010.61 572.207 1022.7 571.102 1034.35 568.688Z" stroke="#DEECF4" stroke-miterlimit="10"/>
<path d="M811.94 523.866C805.639 503.728 797.645 483.6 797.623 462.492C797.601 441.385 807.974 418.514 827.825 411.377C840.804 406.706 855.219 409.501 868.44 413.449C876.534 415.874 884.766 418.874 890.915 424.669C897.064 430.463 900.678 439.721 897.593 447.589C892.279 461.431 872.534 461.779 861.063 471.216C852.309 478.404 849.132 490.429 848.564 501.742C847.996 513.054 849.583 524.468 848.113 535.664C846.643 546.86 841.113 558.521 830.828 563.25C806.061 574.507 815.644 535.722 811.94 523.866Z" stroke="#DEECF4" stroke-miterlimit="10"/>
<path d="M897.307 539.189C878.886 527.638 874.326 499.007 888.248 482.316C895.301 473.851 905.73 468.764 913.159 460.602C918.17 454.956 921.621 448.099 923.169 440.709C924.717 433.32 924.31 425.655 921.986 418.471C919.829 412.104 916.201 404.971 919.552 399.139C921.313 396.106 924.506 394.274 927.687 392.706C941.977 385.278 956.725 377.751 967.306 365.616C974.594 357.27 979.516 347.161 985.871 338.105C994.485 325.839 1005.61 315.599 1016.65 305.471C1023.64 299.047 1032.19 292.157 1041.5 293.974C1050.55 295.749 1056.02 305.156 1058.15 314.111C1060.22 323.244 1060.1 332.738 1057.81 341.817C1055.51 350.896 1051.1 359.305 1044.94 366.356C1025.78 387.841 992.131 393.991 977.225 418.588C965.38 438.117 969.004 463.803 958.599 484.154C953.107 494.872 944.12 503.31 936.656 512.773C929.703 521.549 925.624 531.288 920.181 540.946C916.769 546.944 919.315 547.753 912.741 547.659C909.256 547.579 900.52 541.201 897.307 539.189Z" stroke="#DEECF4" stroke-miterlimit="10"/>
<path d="M844.302 488.108C845.269 481.611 846.389 474.934 849.92 469.403C854.238 462.572 861.763 458.393 869.215 455.199C874.548 452.92 880.703 450.358 882.53 444.856C884.356 439.354 880.681 433.085 876.006 429.376C865.173 420.804 849.711 420.42 836.453 424.332C824.535 427.844 812.633 435.642 809.309 447.666C808.543 450.74 808.127 453.89 808.071 457.057C806.981 481.086 811.973 504.845 818.237 527.899C819.601 532.924 821.787 552.598 828.769 551.482C837.811 550.026 838.275 536.023 838.962 529.568C840.451 515.706 842.231 501.886 844.302 488.108Z" stroke="#DEECF4" stroke-miterlimit="10"/>
<path d="M843.548 464.333C845.046 460.826 847.099 457.583 849.629 454.73C852.811 451.4 856.984 449.218 860.545 446.304C862.702 444.546 864.793 441.879 863.908 439.244C863.182 436.999 860.599 435.974 858.295 435.512C844.67 432.837 830.942 441.094 822.14 451.822C819.828 454.419 818.075 457.463 816.988 460.766C816.181 464.578 816.095 468.507 816.737 472.351C817.849 483.022 818.96 493.688 820.069 504.349C820.702 510.344 820.634 520.173 824.492 525.191C828.006 529.75 831.71 527.328 831.778 522.492C831.96 509.38 832.758 496.965 836.24 484.319C838.098 477.46 840.543 470.773 843.548 464.333Z" stroke="#DEECF4" stroke-miterlimit="10"/>
<path d="M896.247 525.972C892.939 520.384 891.963 513.733 891.815 507.221C891.646 502.005 892.139 496.314 895.63 492.427C898.333 489.432 902.371 488.044 905.952 486.25C916.684 480.837 924.591 470.725 928.855 459.491C933.12 448.256 934.05 435.994 933.239 424.002C932.899 421.2 932.942 418.364 933.369 415.573C935.19 406.826 944.465 402.357 952.063 397.697C982.845 378.849 998.752 340.646 1030.85 323.853C1033.71 322.155 1036.92 321.143 1040.24 320.898C1041.9 320.801 1043.56 321.162 1045.02 321.941C1046.49 322.721 1047.72 323.889 1048.57 325.317C1049.46 327.426 1049.64 329.764 1049.1 331.985C1047.64 339.896 1042 346.484 1035.48 351.173C1028.95 355.862 1021.45 358.972 1014.31 362.669C986.011 377.287 962.278 402.34 953.545 432.904C949.93 445.593 948.893 458.885 945.475 471.624C941.052 487.468 933.237 502.161 922.572 514.685C920.042 517.504 917.683 520.473 915.51 523.577C913.594 526.481 913.131 530.449 911.311 533.094C907.275 539.131 898.593 529.945 896.247 525.972Z" stroke="#DEECF4" stroke-miterlimit="10"/>
<path d="M977.905 577.152C975.27 578.37 972.325 578.753 969.465 578.25C967.292 577.568 965.352 576.29 963.867 574.562C960.85 571.054 958.356 567.129 956.459 562.908C954.419 558.869 952.404 554.658 952.101 550.138C951.457 540.327 959.021 531.827 967.303 526.506C975.584 521.184 985.081 517.705 992.363 511.107C996.578 506.973 1000.29 502.36 1003.44 497.361C1006.16 493.792 1008.33 489.839 1009.89 485.63C1011.66 479.965 1011.14 473.804 1010.62 467.952L1008.82 447.859C1008.11 440.616 1008 432.116 1013.64 427.438C1015.7 425.777 1018.21 424.761 1020.85 424.518C1023.34 424.267 1025.85 424.578 1028.2 425.427C1030.55 426.277 1032.68 427.644 1034.43 429.426C1038.07 433.225 1039.67 438.468 1041.17 443.563L1064.61 523.298C1066.23 528.826 1067.81 535.007 1065.16 540.139C1064.07 541.984 1062.61 543.586 1060.87 544.846C1059.13 546.106 1057.16 546.998 1055.06 547.467C1050.88 548.382 1046.61 548.839 1042.32 548.831C1034.99 549.177 1027.71 550.083 1020.52 551.542C1014.3 552.802 1008 554.528 1002.91 558.312C998.455 561.63 995.036 566.195 990.962 569.944C987.144 573.208 982.702 575.661 977.905 577.152Z" stroke="#DEECF4" stroke-miterlimit="10"/>
<path d="M970.753 550.143C972.091 552.664 975.494 553.097 978.339 552.863C982.542 552.519 986.644 551.397 990.437 549.554C999.846 544.993 1007.42 536.017 1017.8 534.829C1025.67 533.918 1034.64 537.543 1041.13 532.981C1045.33 529.989 1046.85 524.342 1046.56 519.199C1046.27 514.055 1044.52 509.105 1043.49 504.054C1041.82 495.879 1042.08 487.441 1040.89 479.177C1039.76 471.338 1037.35 463.739 1033.75 456.685C1032.53 454.288 1030.8 451.714 1028.15 451.381C1025.17 451.006 1022.69 453.654 1021.32 456.333C1018.05 462.74 1018 470.311 1018.83 477.467C1019.66 484.623 1021.33 491.703 1021.21 498.905C1021.1 506.107 1018.88 513.692 1013.36 518.317C1010.13 520.993 1006.09 522.464 1002.17 524.074C995.122 526.957 988.29 529.998 981.235 532.704C975.85 534.772 967.369 543.764 970.753 550.143Z" stroke="#DEECF4" stroke-miterlimit="10"/>
<path d="M292.847 418.752L296.392 429.714" stroke="#DEECF4" stroke-miterlimit="10"/>
<path d="M300.1 422.461L289.139 426.005" stroke="#DEECF4" stroke-miterlimit="10"/>
<path d="M616.337 513.451L619.877 524.397" stroke="#DEECF4" stroke-miterlimit="10"/>
<path d="M623.585 517.145L612.624 520.689" stroke="#DEECF4" stroke-miterlimit="10"/>
<path d="M871 163.538L874.544 174.499" stroke="#DEECF4" stroke-miterlimit="10"/>
<path d="M878.253 167.246L867.292 170.791" stroke="#DEECF4" stroke-miterlimit="10"/>
<path d="M350.062 426.549L352.23 416.442L359.906 423.366L350.062 426.549Z" fill="#8E8B85" stroke="#DEECF4"/>
</g>
<defs>
<clipPath id="clip0_2893_8301">
<rect width="1418.76" height="1041.65" fill="white" transform="translate(0.185547 234.863) rotate(-17.9213)"/>
</clipPath>
</defs>
</svg>
