<svg width="240" height="30" viewBox="0 0 240 30" fill="none" xmlns="http://www.w3.org/2000/svg">
<path fill-rule="evenodd" clip-rule="evenodd" d="M27.6066 6.83804C27.6488 6.83804 27.691 6.88022 27.691 6.9224C27.691 6.92397 27.6916 6.92937 27.6927 6.93847C27.7207 7.1743 28.0426 9.89092 25.1151 12.4902C23.0037 14.4305 18.8232 15.1476 18.7809 15.1476C18.7387 15.1476 18.6965 15.1054 18.6965 15.0632C18.6965 15.021 18.0631 12.9542 14.0092 12.9542C9.95531 12.9542 9.32189 15.0632 9.32189 15.0632C9.32189 15.1054 9.27967 15.1476 9.23744 15.1476C9.19521 15.1476 5.01465 14.4305 2.90326 12.4902C0.05863 9.89233 0.381681 7.17726 0.410047 6.93885C0.411157 6.92952 0.411816 6.92399 0.411816 6.9224C0.411816 6.88022 0.454043 6.83804 0.496271 6.83804C0.538499 6.83804 0.580727 6.83804 0.580727 6.88022C0.580727 6.88022 1.17192 7.85037 2.98772 7.85037C3.07217 7.85037 3.16718 7.83982 3.2622 7.82928C3.35721 7.81873 3.45222 7.80819 3.53668 7.80819C5.43693 7.63947 6.78822 6.7115 7.37941 5.10864C8.01283 3.37924 8.30843 2.78872 9.53303 2.11383C10.3354 1.69203 11.2644 1.60767 11.8978 1.60767C12.1934 1.60767 12.4045 1.64985 12.4045 1.64985C12.4468 1.64985 12.489 1.69203 12.489 1.69203V1.77639C12.489 1.77639 11.94 2.8309 12.2356 3.84323C12.4468 4.51812 13.0379 5.23518 14.0514 5.23518C15.0649 5.23518 15.6561 4.51812 15.8672 3.84323C16.205 2.8309 15.6138 1.77639 15.6138 1.77639V1.69203C15.6138 1.69203 15.6561 1.64985 15.6983 1.64985C15.6983 1.60767 15.9094 1.60767 16.205 1.60767H16.205C16.8807 1.60767 17.8097 1.69203 18.5698 2.11383C19.7944 2.8309 20.09 3.37924 20.7234 5.10864C21.3146 6.66932 22.6659 7.63947 24.5662 7.80819C24.7773 7.85037 24.9462 7.85037 25.1151 7.85037C26.8887 7.85037 27.5221 6.88022 27.5221 6.88022C27.5221 6.83804 27.5643 6.83804 27.6066 6.83804ZM23.3416 19.2391C24.0172 19.3656 24.5662 19.7452 24.904 20.2936C25.284 20.8841 25.3685 21.6012 25.1151 22.487C24.6928 24.0055 23.046 24.5538 22.0325 24.5538C21.9627 24.5538 21.893 24.541 21.8303 24.5295C21.7791 24.5202 21.7326 24.5116 21.6947 24.5116C21.019 24.3429 20.1322 23.9633 19.0343 23.2462C19.0131 23.233 18.9924 23.22 18.972 23.2073C18.3426 22.8141 18.0934 22.6583 17.7252 22.7401C17.3452 22.8244 17.0918 23.1197 16.9229 23.5415C16.6273 24.132 16.5851 24.9756 16.8385 25.4396C17.2607 26.2832 18.1475 26.4519 18.7387 25.8614C19.1188 25.4818 18.9921 24.8913 18.6543 24.5116C18.4964 24.3342 18.3016 24.2029 18.1432 24.0961C17.9627 23.9743 17.8294 23.8844 17.8519 23.7946C17.9364 23.4149 19.4144 23.8789 19.8366 24.3007C20.7234 25.1443 20.8923 25.9458 20.3011 27.0003C19.8789 27.8017 18.8232 28.3501 17.6408 28.3501C17.0074 28.3501 16.4162 28.2235 16.0361 27.9282C14.7271 27.0425 14.1359 25.777 14.2626 24.0898C14.3038 23.4718 14.5868 23.0952 14.8361 22.7636C14.842 22.7557 14.8479 22.7479 14.8538 22.7401C15.1071 22.4026 15.3183 22.1073 15.276 21.6434C15.2338 21.095 14.896 20.7998 14.2626 20.7998H14.0092C13.7981 20.8419 13.6714 21.095 13.6291 21.6434C13.5922 21.9755 13.6199 22.4046 13.6557 22.9588C13.6608 23.038 13.6661 23.1197 13.6714 23.204C13.6932 23.3569 13.7038 23.5098 13.7147 23.6686C13.7249 23.8164 13.7355 23.9693 13.7558 24.132C13.8825 25.777 13.2913 27.0425 11.9823 27.9704C11.56 28.2235 11.011 28.3922 10.3776 28.3922C9.23745 28.3922 8.18175 27.8861 7.71724 27.0425C7.12605 25.9879 7.42165 24.7647 8.18175 24.2164C8.5618 23.9633 8.94185 23.7102 9.36413 23.668C9.39583 23.668 9.43051 23.6665 9.46732 23.665C9.62666 23.6581 9.82603 23.6496 9.99755 23.7524C10.2087 23.8367 10.2931 24.0898 9.87086 24.132C9.74418 24.132 9.19522 24.1742 9.02631 24.9756C8.89962 25.7349 9.44859 26.3254 10.1242 26.2832C10.5465 26.2832 10.9688 26.1145 11.1377 25.4396C11.2644 24.9756 11.2222 24.5538 11.1377 24.1742C11.0532 23.7524 10.9266 23.2462 10.7154 22.9931C10.5887 22.8244 10.4198 22.8244 10.2931 22.8244C10.0398 22.8244 9.65973 22.9088 8.98408 23.3306C7.88616 24.0476 6.99937 24.4695 6.32372 24.596C6.23927 24.6382 6.11258 24.6382 5.9859 24.6382C4.97243 24.6382 3.32555 24.0898 2.90327 22.5713C2.69213 21.8121 2.77658 21.095 3.15663 20.5045C3.49446 19.914 4.1701 19.45 4.88798 19.3234C5.01466 19.2813 5.18357 19.2813 5.31026 19.2813C5.77476 19.2813 6.19704 19.45 6.45041 19.7452C6.70378 19.9983 6.78823 20.2936 6.746 20.631C6.70377 21.1794 6.2815 21.4325 6.07036 21.4325C5.9859 21.4325 5.9859 21.4325 5.94367 21.3903C5.85922 21.3059 5.90145 21.1794 5.9859 21.0528C5.99506 21.0254 6.00622 20.9959 6.01763 20.9658C6.05882 20.857 6.10342 20.7393 6.07036 20.6732C5.9859 20.5467 5.77476 20.378 5.5214 20.378C5.31026 20.378 5.14135 20.5045 4.97243 20.7154C4.76129 21.0107 4.76129 21.3481 4.80352 21.559C4.88798 21.8543 5.05689 22.1495 5.31026 22.3183C5.39471 22.3604 5.52139 22.4026 5.69031 22.4026C6.19704 22.4026 6.95714 22.1495 7.25274 21.8543C7.27023 21.8368 7.29496 21.8193 7.32394 21.7989C7.36493 21.7699 7.4144 21.735 7.46388 21.6855C7.53075 21.6187 7.60843 21.5455 7.6935 21.4652C7.98443 21.1908 8.36174 20.8349 8.68848 20.378C8.09729 19.9983 7.54833 19.5343 6.99937 19.0282L6.99932 19.0281C6.45038 18.4798 6.07035 18.1002 5.77476 17.7628C5.68335 17.6715 5.60122 17.5863 5.52585 17.5082C5.32268 17.2976 5.16867 17.138 5.01466 17.0457C4.63461 16.7926 4.33901 16.6661 4.08565 16.6661C3.91674 16.6661 3.79005 16.7504 3.7056 16.877C3.41 17.2566 3.87451 17.6784 3.87451 17.6784L3.87451 17.6784C3.91674 17.7206 3.95896 17.7628 3.91674 17.8049C3.87451 17.8893 3.74782 17.8893 3.66337 17.8893C3.32555 17.8893 2.90327 17.6362 2.81881 16.9613C2.77658 16.5395 2.90327 16.1599 3.19886 15.8225C3.53669 15.4428 4.00119 15.2319 4.50793 15.2319H4.67684C5.47917 15.3163 6.49264 15.8225 7.75947 16.7083L7.7595 16.7083C8.35068 17.0879 8.94186 17.4675 9.49081 17.6784V17.6362C9.49081 17.1664 9.41805 16.7329 9.34006 16.2683C9.33403 16.2324 9.32797 16.1962 9.3219 16.1599C9.2958 16.1338 9.30196 16.1239 9.31048 16.1101C9.31574 16.1016 9.3219 16.0917 9.3219 16.0755C9.36413 16.0334 9.36413 16.0334 9.40636 16.0334C9.65973 15.9912 9.87086 15.8225 9.95532 15.5272C9.9567 15.5244 9.95823 15.5213 9.95994 15.5179C10.0625 15.3107 10.7698 13.8822 14.0514 13.8822C17.3455 13.8822 18.0298 15.2859 18.1402 15.5122C18.143 15.518 18.1454 15.523 18.1475 15.5272C18.1898 15.7803 18.3587 15.949 18.612 16.0334C18.6965 16.0334 18.6965 16.1177 18.6965 16.1599C18.5698 16.7083 18.4853 17.2144 18.4431 17.6784H18.4853C18.6965 17.7206 18.9499 17.7628 19.2032 17.7628C19.5833 17.7628 19.9633 17.6784 20.1745 17.5519C20.5967 17.341 20.5967 16.877 20.5967 16.413C20.5967 16.0755 20.5967 15.7803 20.7657 15.5694C21.019 15.1898 21.5258 14.9789 22.0325 14.9789C22.2128 14.9789 22.3624 15.0096 22.5337 15.0449C22.563 15.0509 22.5929 15.0571 22.6237 15.0632C23.3415 15.2741 24.0594 15.8646 23.8483 16.6239C23.6794 17.2566 23.1726 17.2988 23.046 17.2988C23.046 17.2988 22.7504 17.2988 22.7081 17.1722C22.7081 17.1301 22.7081 17.0879 22.7504 17.0457C22.7926 17.0457 23.1726 16.7926 23.0037 16.413C22.9193 16.2865 22.7504 16.2021 22.5392 16.2021C22.3703 16.2021 22.2014 16.2443 22.1169 16.3708C21.9903 16.4552 21.948 16.6239 21.9903 16.8348C22.3281 19.6609 20.639 20.0827 20.3011 20.1249C19.9211 20.167 19.4566 20.2092 19.0765 20.2092C19.541 20.8419 20.09 21.2637 20.4701 21.5168C20.5967 21.6012 20.7234 21.6855 20.8079 21.7699C21.1035 22.0652 21.8636 22.3183 22.3703 22.3183C22.5392 22.3183 22.6659 22.2761 22.7504 22.2339C23.0037 22.1073 23.1726 21.8121 23.2571 21.4746C23.2993 21.2637 23.2993 20.9685 23.0882 20.631C22.9193 20.378 22.7504 20.2514 22.5814 20.2514C22.3703 20.2514 22.2436 20.4201 22.1592 20.5889C22.1169 20.7576 22.1169 20.8841 22.1592 21.0107C22.1592 21.0317 22.1618 21.0528 22.1644 21.0739C22.1724 21.1372 22.1803 21.2005 22.1169 21.2637C22.0747 21.3059 22.0325 21.3059 21.948 21.3059C21.7369 21.3059 21.3568 21.095 21.3146 20.631C21.2724 20.3358 21.3991 19.9983 21.6102 19.7452C21.9058 19.4078 22.4125 19.1969 22.9193 19.1969C23.0882 19.1969 23.2149 19.1969 23.3416 19.2391Z" fill="#0A3647"/>
<path fill-rule="evenodd" clip-rule="evenodd" d="M150.408 7.84558C150.254 7.84558 150.129 7.97046 150.129 8.12451V22.0361C150.129 22.1902 150.254 22.315 150.408 22.315H151.612C151.766 22.315 151.891 22.1902 151.891 22.0361V18.2377H154.014L159.077 22.2546C159.126 22.2937 159.188 22.315 159.251 22.315H161.183C161.302 22.315 161.407 22.24 161.446 22.1279C161.485 22.0158 161.449 21.8913 161.356 21.8176L156.839 18.2337C158.168 18.1803 159.412 17.5946 160.298 16.7092L160.299 16.708C161.219 15.7776 161.806 14.4533 161.806 13.0315C161.806 11.6294 161.218 10.3053 160.299 9.37522L160.298 9.37408C159.368 8.44469 158.044 7.84558 156.64 7.84558H150.408ZM151.891 16.4657V9.60743H156.64C157.583 9.60743 158.414 9.98883 159.043 10.6184L159.045 10.6199C159.68 11.2456 160.044 12.0847 160.044 13.0315C160.044 13.9982 159.68 14.8281 159.043 15.4648C158.415 16.093 157.584 16.4657 156.64 16.4657H151.891Z" fill="#0A3647"/>
<path fill-rule="evenodd" clip-rule="evenodd" d="M142.515 15.1626C141.615 16.8226 139.585 18.0971 136.684 18.1189C136.66 18.1257 136.634 18.1293 136.608 18.1293H131.902C132.046 18.2964 132.227 18.4891 132.43 18.6778L132.433 18.6804C133.533 19.7319 135.094 20.425 136.9 20.5342H137.043C137.05 20.5342 137.057 20.5345 137.064 20.535C137.183 20.5442 137.294 20.5443 137.427 20.5443C137.754 20.5443 138.075 20.5154 138.404 20.4757C138.861 20.4172 139.287 20.3302 139.72 20.1961C139.825 20.1548 139.944 20.1147 140.03 20.0861C140.047 20.0795 140.064 20.0726 140.082 20.065C140.172 20.0279 140.297 19.9763 140.541 19.8922C140.681 19.8442 140.833 19.913 140.89 20.0494L141.345 21.1514C141.373 21.2203 141.373 21.2976 141.344 21.3662C141.315 21.4348 141.26 21.4889 141.191 21.5166C141.056 21.5702 140.951 21.6142 140.865 21.65C140.769 21.6902 140.697 21.7202 140.636 21.7422L140.635 21.7427C140.564 21.7679 140.498 21.7884 140.443 21.8059L140.427 21.8107C140.365 21.83 140.32 21.8447 140.281 21.8604C140.274 21.863 140.267 21.8654 140.261 21.8675C139.731 22.0336 139.189 22.1588 138.626 22.2318L138.624 22.232C138.21 22.2838 137.763 22.315 137.336 22.315C137.274 22.315 137.211 22.3123 137.155 22.3098L137.152 22.3097C137.093 22.3071 137.041 22.3049 136.992 22.3049C136.986 22.3049 136.981 22.3047 136.975 22.3044L136.813 22.2943C134.608 22.1591 132.625 21.2852 131.221 19.9754L131.219 19.9733C129.878 18.6953 129.02 16.957 129.02 15.0904C129.02 15.043 129.022 14.9941 129.025 14.9534L129.025 14.9469C129.028 14.9018 129.03 14.8639 129.03 14.8275C129.03 14.8191 129.03 14.8107 129.031 14.8023L129.04 14.6959C129.147 12.798 130.075 11.0223 131.502 9.79408C132.878 8.59696 134.783 7.84558 136.871 7.84558C139.662 7.84558 141.634 9.16701 142.526 10.8553L142.53 10.8625C142.861 11.5348 143.044 12.2743 143.044 13.0077V13.0683C143.044 13.7821 142.861 14.5145 142.516 15.1609L142.515 15.1626ZM132.656 11.1254C133.746 10.1793 135.188 9.6062 136.871 9.6062C139.032 9.6062 140.369 10.5255 140.95 11.6679L140.952 11.6725C141.184 12.1089 141.294 12.5494 141.294 13.0077C141.294 13.476 141.184 13.9055 140.953 14.3305L140.951 14.3341C140.369 15.4449 138.951 16.3586 136.406 16.3586H130.959C130.859 16.0011 130.79 15.5603 130.79 15.0904V14.8056C130.879 13.3524 131.547 12.0793 132.655 11.126L132.656 11.1254Z" fill="#0A3647"/>
<path fill-rule="evenodd" clip-rule="evenodd" d="M112.488 7.84558C112.333 7.84558 112.207 7.97046 112.207 8.12451V9.3285C112.207 9.48255 112.333 9.60743 112.488 9.60743H118.358C117.517 10.5015 116.983 11.6937 116.983 12.9708V22.0361C116.983 22.1902 117.109 22.315 117.264 22.315H118.478C118.634 22.315 118.76 22.1902 118.76 22.0361V12.9708C118.76 12.0563 119.158 11.2488 119.851 10.6281L119.853 10.6266C120.555 9.98665 121.487 9.60743 122.571 9.60743H124.265C124.42 9.60743 124.546 9.48255 124.546 9.3285V8.12451C124.546 7.97046 124.42 7.84558 124.265 7.84558H112.488Z" fill="#0A3647"/>
<path fill-rule="evenodd" clip-rule="evenodd" d="M94.8971 7.84558C94.743 7.84558 94.6182 7.97046 94.6182 8.12451V22.0361C94.6182 22.1902 94.743 22.315 94.8971 22.315H96.1011C96.2551 22.315 96.38 22.1902 96.38 22.0361V18.2377H98.5029L103.566 22.2546C103.616 22.2937 103.677 22.315 103.74 22.315H105.672C105.791 22.315 105.897 22.24 105.936 22.1279C105.975 22.0158 105.939 21.8913 105.846 21.8176L101.328 18.2337C102.657 18.1803 103.901 17.5946 104.787 16.7092L104.788 16.708C105.708 15.7776 106.295 14.4533 106.295 13.0315C106.295 11.6294 105.707 10.3053 104.788 9.37522L104.787 9.37408C103.857 8.44469 102.533 7.84558 101.129 7.84558H94.8971ZM96.38 16.4657V9.60743H101.129C102.072 9.60743 102.903 9.98883 103.532 10.6184L103.534 10.6199C104.169 11.2456 104.533 12.0847 104.533 13.0315C104.533 13.9982 104.169 14.8281 103.532 15.4648C102.904 16.093 102.074 16.4657 101.129 16.4657H96.38Z" fill="#0A3647"/>
<path fill-rule="evenodd" clip-rule="evenodd" d="M78.2084 7.84558C78.0544 7.84558 77.9295 7.97046 77.9295 8.12451V9.3285C77.9295 9.48255 78.0544 9.60743 78.2084 9.60743H82.1542C83.1741 9.60743 84.1006 9.9503 84.7962 10.5425L84.7985 10.5444C85.2451 10.9166 85.5508 11.3559 85.6875 11.7408H82.5792C82.4544 11.7408 82.3136 11.7492 82.1679 11.758L82.1107 11.7614C80.0604 11.8344 78.4877 12.4469 77.4481 13.3578C76.3539 14.3127 75.8149 15.6142 75.8149 16.9065C75.8149 16.9478 75.8149 17.0185 75.8257 17.1104C75.9167 19.5848 77.6164 21.2209 79.5932 21.9148L79.5952 21.9155C80.3636 22.1787 81.2035 22.315 82.0126 22.315L82.0162 22.315C82.822 22.3045 83.6555 22.1687 84.3907 21.881C84.8344 21.7067 85.258 21.4804 85.5924 21.2671C85.6659 21.2202 85.7357 21.1736 85.8009 21.1279V22.0361C85.8009 22.1902 85.9258 22.315 86.0798 22.315H87.2838C87.4379 22.315 87.5627 22.1902 87.5627 22.0361V12.5661C87.5627 11.2076 86.8999 10.0104 85.9364 9.19666C84.943 8.35285 83.553 7.84558 82.1542 7.84558H78.2084ZM77.5768 16.7042C77.5768 16.6801 77.5737 16.6568 77.568 16.6345C77.5908 16.0374 77.906 15.2971 78.6024 14.7002L78.6046 14.6984C79.3529 14.0435 80.4983 13.5826 82.1701 13.5128H82.7815C82.8074 13.5128 82.8325 13.5093 82.8562 13.5027H85.8009V17.3213C85.8009 18.0912 85.5871 18.699 85.2343 19.1701C84.8799 19.6433 84.3732 19.9946 83.7644 20.2276C83.2227 20.4367 82.6286 20.5433 82.0004 20.5532C81.3751 20.5529 80.7589 20.447 80.171 20.2446C78.7126 19.7457 77.644 18.6854 77.5768 17.0426V16.7042Z" fill="#0A3647"/>
<path fill-rule="evenodd" clip-rule="evenodd" d="M67.364 7.84558C67.21 7.84558 67.0851 7.97046 67.0851 8.12451V16.9159C66.0457 16.0356 64.6163 15.4742 63.0843 15.4742H59.468V8.13463C59.468 7.98058 59.3432 7.8557 59.1891 7.8557H57.9952C57.8412 7.8557 57.7163 7.98058 57.7163 8.13463V22.0361C57.7163 22.1902 57.8412 22.315 57.9952 22.315H59.1891C59.3432 22.315 59.468 22.1902 59.468 22.0361V17.2259H63.0843C64.2218 17.2259 65.2083 17.6169 65.9559 18.2696C66.5004 18.7472 66.7742 19.1862 66.9184 19.6437C67.0659 20.1117 67.0851 20.6185 67.0851 21.2571V22.0361C67.0851 22.1902 67.21 22.315 67.364 22.315H68.568C68.7221 22.315 68.8469 22.1902 68.8469 22.0361V8.12451C68.8469 7.97046 68.7221 7.84558 68.568 7.84558H67.364Z" fill="#0A3647"/>
<path fill-rule="evenodd" clip-rule="evenodd" d="M45.7171 7.36328C44.6729 7.36328 43.6944 7.56495 42.7792 7.96712C41.8594 8.37125 41.0601 8.92068 40.3791 9.61553L40.3773 9.61738C39.6971 10.2976 39.1542 11.1043 38.7496 12.0388C38.3615 12.954 38.1665 13.9402 38.1665 14.9999C38.1665 16.059 38.3612 17.0524 38.7494 17.9822L38.75 17.9836C39.1544 18.9031 39.6971 19.7096 40.378 20.4047C41.0589 21.0853 41.8589 21.6284 42.7792 22.0328C43.6944 22.4349 44.6729 22.6366 45.7171 22.6366C46.9861 22.6366 48.1378 22.358 49.1766 21.804L49.178 21.8033C50.0048 21.3681 50.7194 20.8151 51.3237 20.1441C51.5109 19.9363 51.4762 19.5977 51.2238 19.4091L50.6589 18.9871C50.4097 18.8009 50.0295 18.8509 49.789 19.1157C49.4008 19.5434 48.9515 19.9089 48.4422 20.2124C48.4129 20.2298 48.3835 20.2471 48.3538 20.2641L48.3524 20.2649C47.5543 20.7166 46.6742 20.9414 45.7171 20.9414C44.9378 20.9414 44.2009 20.7838 43.509 20.4679L43.507 20.467C42.8342 20.153 42.243 19.7264 41.7345 19.1881C41.2259 18.6495 40.8231 18.0222 40.5256 17.3083C40.2259 16.5889 40.0769 15.8187 40.0769 14.9999C40.0769 14.1812 40.2259 13.411 40.5256 12.6916C40.8231 11.9776 41.2259 11.3503 41.7345 10.8118C42.2422 10.2742 42.8325 9.84812 43.5039 9.53429L43.5072 9.53278L43.5091 9.53188C44.201 9.21602 44.9379 9.05846 45.7171 9.05846C46.6746 9.05846 47.5547 9.29061 48.3524 9.7565L48.3539 9.75731C48.8989 10.0605 49.3771 10.4362 49.7872 10.8844C50.0294 11.1491 50.4099 11.1988 50.6589 11.0128L51.2238 10.5908C51.4762 10.4021 51.5109 10.0636 51.3237 9.85578C50.7194 9.18476 50.0046 8.6317 49.1778 8.1965L49.1765 8.19585C48.1377 7.64182 46.9861 7.36328 45.7171 7.36328Z" fill="#0A3647"/>
<path fill-rule="evenodd" clip-rule="evenodd" d="M202.71 7.84558C202.556 7.84558 202.431 7.97046 202.431 8.12451V22.0361C202.431 22.1902 202.556 22.315 202.71 22.315H203.914C204.068 22.315 204.192 22.1902 204.192 22.0361V8.12451C204.192 7.97046 204.068 7.84558 203.914 7.84558H202.71Z" fill="#109EEE"/>
<path fill-rule="evenodd" clip-rule="evenodd" d="M216.784 7.36328C215.74 7.36328 214.761 7.56495 213.846 7.96712C212.926 8.37125 212.127 8.92068 211.446 9.61553L211.444 9.61738C210.764 10.2976 210.221 11.1043 209.816 12.0388C209.428 12.954 209.233 13.9402 209.233 14.9999C209.233 16.059 209.428 17.0524 209.816 17.9822L209.817 17.9836C210.221 18.9031 210.764 19.7096 211.445 20.4047L211.446 20.4053C212.126 21.0859 212.926 21.6284 213.846 22.0328C214.761 22.4349 215.74 22.6366 216.784 22.6366C218.053 22.6366 219.205 22.358 220.244 21.804L220.245 21.8033C221.072 21.3681 221.786 20.8151 222.391 20.1441C222.578 19.9363 222.543 19.5977 222.291 19.4091L221.726 18.9871C221.477 18.8009 221.096 18.8509 220.856 19.1157C220.468 19.5434 220.018 19.9089 219.509 20.2124C219.48 20.2298 219.45 20.2471 219.421 20.2641L219.419 20.2649C218.621 20.7166 217.741 20.9414 216.784 20.9414C216.005 20.9414 215.268 20.7838 214.576 20.4679L214.574 20.467C213.901 20.153 213.31 19.7264 212.801 19.1881C212.293 18.6495 211.89 18.0222 211.593 17.3083C211.293 16.5889 211.144 15.8187 211.144 14.9999C211.144 14.1812 211.293 13.411 211.593 12.6916C211.89 11.9776 212.293 11.3503 212.801 10.8118C213.309 10.2742 213.899 9.84812 214.571 9.53429L214.574 9.53278L214.576 9.53188C215.268 9.21602 216.005 9.05846 216.784 9.05846C217.741 9.05846 218.622 9.29061 219.419 9.7565L219.421 9.75731C219.966 10.0605 220.444 10.4362 220.854 10.8844C221.096 11.1491 221.477 11.1988 221.726 11.0128L222.291 10.5908C222.543 10.4021 222.578 10.0636 222.391 9.85578C221.786 9.18476 221.072 8.6317 220.245 8.1965L220.243 8.19585C219.205 7.64182 218.053 7.36328 216.784 7.36328Z" fill="#109EEE"/>
<path fill-rule="evenodd" clip-rule="evenodd" d="M174.983 7.36328C173.939 7.36328 172.961 7.56495 172.045 7.96712C171.126 8.37125 170.326 8.92068 169.645 9.61553L169.643 9.61738C168.963 10.2976 168.42 11.1043 168.016 12.0388C167.628 12.954 167.433 13.9402 167.433 14.9999C167.433 16.059 167.627 17.0524 168.016 17.9822L168.016 17.9836C168.421 18.9031 168.963 19.7096 169.644 20.4047L169.645 20.4053C170.326 21.0859 171.125 21.6284 172.045 22.0328C172.961 22.4349 173.939 22.6366 174.983 22.6366C176.252 22.6366 177.404 22.358 178.443 21.804L178.444 21.8033C179.271 21.3681 179.986 20.8151 180.59 20.1441C180.777 19.9363 180.742 19.5977 180.49 19.4091L179.925 18.9871C179.676 18.8009 179.296 18.8509 179.055 19.1157C178.667 19.5434 178.218 19.9089 177.708 20.2124C177.679 20.2298 177.65 20.2471 177.62 20.2641L177.618 20.2649C176.82 20.7166 175.94 20.9414 174.983 20.9414C174.204 20.9414 173.467 20.7838 172.775 20.4679L172.773 20.467C172.1 20.153 171.509 19.7264 171.001 19.1881C170.492 18.6495 170.089 18.0222 169.792 17.3083C169.492 16.5889 169.343 15.8187 169.343 14.9999C169.343 14.1812 169.492 13.411 169.792 12.6916C170.089 11.9776 170.492 11.3503 171.001 10.8118C171.508 10.2742 172.099 9.84812 172.77 9.53429L172.773 9.53278L172.775 9.53188C173.467 9.21602 174.204 9.05846 174.983 9.05846C175.941 9.05846 176.821 9.29061 177.619 9.7565L177.62 9.75731C178.165 10.0605 178.643 10.4362 179.053 10.8844C179.296 11.1491 179.676 11.1988 179.925 11.0128L180.49 10.5908C180.742 10.4021 180.777 10.0636 180.59 9.85578C179.986 9.18476 179.271 8.6317 178.444 8.1965L178.443 8.19585C177.404 7.64182 176.252 7.36328 174.983 7.36328Z" fill="#109EEE"/>
<path fill-rule="evenodd" clip-rule="evenodd" d="M186.271 7.84558C186.117 7.84558 185.993 7.97046 185.993 8.12451V16.7281C185.982 16.8169 185.982 16.8834 185.982 16.9065C185.982 18.2208 186.495 19.5792 187.523 20.5762C188.522 21.5639 190.059 22.2315 192.037 22.3148C192.039 22.3149 192.042 22.315 192.044 22.315L192.049 22.315H196.035C196.189 22.315 196.314 22.1902 196.314 22.0361V20.8321C196.314 20.6781 196.189 20.5532 196.035 20.5532H192.094C190.524 20.4937 189.453 20.008 188.743 19.3176C188.061 18.6448 187.744 17.8075 187.744 16.9065V8.12451C187.744 7.97046 187.619 7.84558 187.465 7.84558H186.271Z" fill="#109EEE"/>
<path fill-rule="evenodd" clip-rule="evenodd" d="M227.781 7.84558C227.67 7.84558 227.58 7.93578 227.58 8.04704V22.1136C227.58 22.2248 227.67 22.315 227.781 22.315H228.998C229.11 22.315 229.2 22.2248 229.2 22.1136V17.9809C229.869 17.9122 230.708 17.7249 231.46 17.4248L237.362 22.2693C237.398 22.2989 237.443 22.315 237.49 22.315H239.413C239.498 22.315 239.574 22.2616 239.602 22.1815C239.631 22.1014 239.606 22.0119 239.541 21.9579L233.067 16.6402C233.544 16.3507 234.176 15.878 234.783 15.3149C236.378 13.8241 237.846 11.5826 239.021 8.11159C239.041 8.0501 239.031 7.98235 238.993 7.92961C238.956 7.87686 238.895 7.84558 238.83 7.84558H237.541C237.455 7.84558 237.379 7.89964 237.351 7.9804C236.315 10.9347 235.052 12.8479 233.679 14.13C232.142 15.5728 230.511 16.1922 229.2 16.3464V8.04704C229.2 7.93578 229.11 7.84558 228.998 7.84558H227.781Z" fill="#109EEE"/>
</svg>
