<svg width="16" height="12" viewBox="0 0 16 12" fill="none" xmlns="http://www.w3.org/2000/svg">
<path d="M13.1297 10.7569C12.9435 10.7569 12.7815 10.7569 12.5957 10.7569C12.5957 10.9796 12.599 11.1883 12.5949 11.3971C12.5878 11.7924 12.3924 11.9965 12.0034 11.9969C10.1011 11.9999 8.19928 11.9973 6.297 11.9994C6.07041 11.9999 5.90089 11.9102 5.7601 11.733C5.19029 11.017 4.61341 10.3069 4.04443 9.59011C3.96279 9.48698 3.87949 9.44278 3.74703 9.44615C3.3934 9.45583 3.03894 9.45036 2.68489 9.4491C2.25087 9.44741 2.04428 9.242 2.04261 8.80846C2.04094 8.43005 2.04219 8.05164 2.04219 7.65387C1.72563 7.65387 1.41782 7.65387 1.08502 7.65387C1.08168 7.7208 1.07544 7.79446 1.07544 7.86812C1.07419 8.28231 1.07835 8.69607 1.07377 9.11026C1.06961 9.46972 0.853012 9.70754 0.539368 9.70796C0.224891 9.7088 0.00205025 9.46888 0.00205025 9.11362C-3.23757e-05 7.26116 -3.23757e-05 5.40869 0.00205025 3.55622C0.00246678 3.20054 0.225308 2.96272 0.540618 2.96441C0.856344 2.96609 1.07002 3.20097 1.07377 3.56254C1.07835 3.96956 1.07502 4.37659 1.07502 4.78362C1.07502 4.85939 1.07502 4.93473 1.07502 5.02397C1.40449 5.02397 1.71189 5.02397 2.04219 5.02397C2.04219 4.64177 2.04094 4.27178 2.04261 3.9018C2.04428 3.45688 2.23713 3.26284 2.67823 3.26116C2.98271 3.25989 3.2876 3.26074 3.62374 3.26074C3.62374 2.94883 3.62332 2.6504 3.62374 2.35155C3.62416 1.84266 3.80784 1.65829 4.31517 1.65787C4.93913 1.65745 5.56267 1.65787 6.20662 1.65787C6.20662 1.46635 6.20662 1.28957 6.20662 1.08121C6.07 1.08121 5.93338 1.08542 5.79717 1.08037C5.47353 1.06859 5.24861 0.845919 5.24861 0.542857C5.24861 0.240216 5.47228 0.00618458 5.79675 0.0045009C6.9422 -0.0018129 8.08765 -0.0018129 9.23309 0.00492182C9.55257 0.0066055 9.78665 0.251581 9.78457 0.545804C9.78249 0.841289 9.54715 1.06943 9.22643 1.08121C9.09564 1.08626 8.96402 1.08206 8.81448 1.08206C8.81448 1.27399 8.81448 1.45078 8.81448 1.65872C8.91653 1.65872 9.01775 1.65872 9.11938 1.65872C9.54299 1.65872 9.96618 1.65703 10.3898 1.65956C10.7838 1.66208 10.9958 1.87338 10.9979 2.26947C11.0012 2.83098 10.9987 3.39206 10.9987 3.95357C10.9987 4.03018 10.9987 4.10678 10.9987 4.21244C11.3078 4.21244 11.6044 4.21201 11.9005 4.21244C12.4233 4.2137 12.5945 4.3888 12.5953 4.92211C12.5957 5.09047 12.6024 5.25926 12.5932 5.42721C12.5861 5.56148 12.6269 5.62252 12.7681 5.61031C12.8773 5.60063 12.9877 5.6082 13.1289 5.6082C13.1289 5.34176 13.1272 5.09258 13.1293 4.84297C13.1309 4.60389 13.2013 4.39764 13.4292 4.28483C13.6366 4.18255 13.8353 4.21538 14.0161 4.35344C14.5975 4.79709 15.1769 5.24327 15.7575 5.68818C15.925 5.81656 15.9996 5.98661 15.9991 6.19791C15.9979 7.41185 15.9975 8.62578 15.9995 9.83971C16 10.051 15.9237 10.2181 15.765 10.3549C15.1948 10.8465 14.6258 11.3399 14.0577 11.834C13.8794 11.9889 13.6808 12.0474 13.4608 11.9523C13.2313 11.8534 13.1355 11.6564 13.1301 11.4131C13.1259 11.1972 13.1297 10.9817 13.1297 10.7569Z" fill="#DADADA"/>
</svg>
