<svg width="21" height="20" viewBox="0 0 21 20" fill="none" xmlns="http://www.w3.org/2000/svg">
<path d="M16.735 10.5013C15.4266 7.10134 10.7683 6.918 11.8933 1.97634C11.9766 1.60967 11.585 1.32634 11.2683 1.518C8.24329 3.30134 6.06829 6.87634 7.89329 11.5597C8.04329 11.943 7.59329 12.3013 7.26829 12.0513C5.75996 10.9097 5.60163 9.268 5.73496 8.093C5.78496 7.65967 5.21829 7.45134 4.97663 7.80967C4.40996 8.67634 3.83496 10.0763 3.83496 12.1847C4.15163 16.8513 8.09329 18.2847 9.50996 18.468C11.535 18.7263 13.7266 18.3513 15.3016 16.9097C17.035 15.3013 17.6683 12.7347 16.735 10.5013ZM9.00163 14.693C10.2016 14.4013 10.8183 13.5347 10.985 12.768C11.26 11.5763 10.185 10.4097 10.91 8.52634C11.185 10.0847 13.635 11.0597 13.635 12.7597C13.7016 14.868 11.4183 16.6763 9.00163 14.693Z" fill="#EE6010"/>
</svg>
