<svg width="298" height="36" viewBox="0 0 298 36" fill="none" xmlns="http://www.w3.org/2000/svg">
<path fill-rule="evenodd" clip-rule="evenodd" d="M34.0625 7.84655C34.115 7.84655 34.1676 7.89902 34.1676 7.95149C34.1676 7.95344 34.1684 7.96017 34.1697 7.97148C34.2045 8.26486 34.6049 11.6443 30.9632 14.8779C28.3366 17.2916 23.136 18.1836 23.0834 18.1836C23.0309 18.1836 22.9784 18.1311 22.9784 18.0787C22.9784 18.0262 22.1904 15.4551 17.1474 15.4551C12.1044 15.4551 11.3164 18.0787 11.3164 18.0787C11.3164 18.1311 11.2639 18.1836 11.2113 18.1836C11.1588 18.1836 5.95819 17.2916 3.33162 14.8779C-0.207101 11.6461 0.194773 8.26854 0.230061 7.97196C0.231442 7.96036 0.232262 7.95347 0.232262 7.95149C0.232262 7.89902 0.284793 7.84655 0.337324 7.84655C0.389856 7.84655 0.442387 7.84655 0.442387 7.89902C0.442387 7.89902 1.17783 9.10589 3.43668 9.10589C3.54174 9.10589 3.65994 9.09277 3.77813 9.07965C3.89633 9.06653 4.01453 9.05341 4.11959 9.05341C6.4835 8.84352 8.16451 7.68913 8.89995 5.69518C9.68792 3.54381 10.0556 2.80919 11.5791 1.96963C12.5771 1.44491 13.7328 1.33997 14.5208 1.33997C14.8885 1.33997 15.1512 1.39244 15.1512 1.39244C15.2037 1.39244 15.2563 1.44491 15.2563 1.44491V1.54986C15.2563 1.54986 14.5733 2.86167 14.9411 4.121C15.2037 4.96056 15.9392 5.85259 17.1999 5.85259C18.4607 5.85259 19.1961 4.96056 19.4588 4.121C19.879 2.86167 19.1436 1.54986 19.1436 1.54986V1.44491C19.1436 1.44491 19.1961 1.39244 19.2486 1.39244C19.2486 1.33997 19.5113 1.33997 19.879 1.33997C20.7195 1.33997 21.8752 1.44491 22.8208 1.96963C24.3442 2.86167 24.7119 3.54381 25.4999 5.69518C26.2353 7.63666 27.9163 8.84352 30.2802 9.05341C30.5429 9.10589 30.753 9.10589 30.9632 9.10589C33.1695 9.10589 33.9574 7.89902 33.9574 7.89902C33.9574 7.84655 34.01 7.84655 34.0625 7.84655ZM28.7568 23.2734C29.5973 23.4309 30.2803 23.9031 30.7005 24.5852C31.1733 25.3199 31.2783 26.2119 30.9632 27.3138C30.4378 29.2028 28.3891 29.885 27.1284 29.885C27.0416 29.885 26.9549 29.8691 26.8769 29.8548C26.8132 29.8431 26.7553 29.8325 26.7081 29.8325C25.8676 29.6226 24.7645 29.1504 23.3986 28.2583C23.3723 28.2419 23.3464 28.2257 23.3211 28.2099C22.5382 27.7207 22.2281 27.527 21.7702 27.6287C21.2974 27.7336 20.9822 28.1009 20.7721 28.6256C20.4043 29.3602 20.3518 30.4097 20.667 30.9869C21.1923 32.0363 22.2955 32.2462 23.0309 31.5116C23.5037 31.0394 23.3461 30.3047 22.9259 29.8325C22.7295 29.6118 22.4872 29.4484 22.2901 29.3155C22.0656 29.1641 21.8998 29.0523 21.9278 28.9405C22.0328 28.4682 23.8714 29.0454 24.3967 29.5701C25.4999 30.6196 25.71 31.6166 24.9746 32.9284C24.4493 33.9253 23.136 34.6075 21.6651 34.6075C20.8771 34.6075 20.1417 34.4501 19.6689 34.0828C18.0404 32.9808 17.305 31.4067 17.4626 29.3078C17.5139 28.5389 17.866 28.0705 18.176 27.6579C18.1834 27.6481 18.1907 27.6384 18.198 27.6287C18.5132 27.2089 18.7759 26.8416 18.7233 26.2644C18.6708 25.5822 18.2506 25.2149 17.4626 25.2149H17.1474C16.8847 25.2674 16.7271 25.5822 16.6746 26.2644C16.6286 26.6776 16.6631 27.2113 16.7077 27.9008C16.714 27.9993 16.7206 28.1009 16.7271 28.2058C16.7543 28.396 16.7675 28.5862 16.7811 28.7837C16.7938 28.9676 16.8069 29.1578 16.8322 29.3602C16.9898 31.4067 16.2544 32.9808 14.6259 34.1352C14.1006 34.4501 13.4177 34.66 12.6297 34.66C11.2113 34.66 9.89806 34.0303 9.32021 32.9808C8.58477 31.669 8.95249 30.1473 9.89806 29.4652C10.3708 29.1504 10.8436 28.8355 11.3689 28.783C11.4084 28.783 11.4515 28.7812 11.4973 28.7792C11.6955 28.7707 11.9435 28.7601 12.1569 28.888C12.4196 28.9929 12.5246 29.3078 11.9993 29.3602C11.8417 29.3602 11.1588 29.4127 10.9487 30.4097C10.7911 31.3542 11.474 32.0888 12.3145 32.0363C12.8398 32.0363 13.3651 31.8264 13.5753 30.9869C13.7329 30.4097 13.6803 29.885 13.5753 29.4127C13.4702 28.888 13.3126 28.2583 13.0499 27.9435C12.8923 27.7336 12.6822 27.7336 12.5246 27.7336C12.2094 27.7336 11.7367 27.8385 10.8962 28.3633C9.53034 29.2553 8.42718 29.78 7.58667 29.9374C7.48161 29.9899 7.32402 29.9899 7.16642 29.9899C5.90567 29.9899 3.85694 29.3078 3.33163 27.4188C3.06897 26.4743 3.17403 25.5822 3.64682 24.8476C4.06707 24.113 4.90757 23.5358 5.80061 23.3784C5.95819 23.3259 6.16831 23.3259 6.3259 23.3259H6.32592C6.90377 23.3259 7.42908 23.5358 7.74427 23.9031C8.05946 24.2179 8.16452 24.5852 8.11199 25.005C8.05946 25.6872 7.53414 26.002 7.27148 26.002C7.21105 26.002 7.18538 26.002 7.16448 25.992C7.14904 25.9846 7.13621 25.9718 7.11389 25.9495C7.00883 25.8446 7.06136 25.6872 7.16642 25.5298C7.17782 25.4956 7.19169 25.459 7.20589 25.4215C7.25713 25.2862 7.31262 25.1397 7.27148 25.0575C7.16642 24.9001 6.90377 24.6902 6.58858 24.6902C6.32592 24.6902 6.11579 24.8476 5.90567 25.11C5.64301 25.4773 5.64301 25.8971 5.69554 26.1594C5.8006 26.5267 6.01073 26.894 6.32592 27.1039C6.43098 27.1564 6.58858 27.2089 6.7987 27.2089C7.42908 27.2089 8.37464 26.894 8.74236 26.5267C8.76412 26.505 8.79489 26.4833 8.83095 26.4578C8.88193 26.4218 8.94348 26.3783 9.00502 26.3168C9.08821 26.2337 9.18484 26.1426 9.29066 26.0428C9.65259 25.7014 10.122 25.2586 10.5284 24.6902C9.79299 24.2179 9.11009 23.6407 8.42718 23.0111L8.4271 23.011C7.74423 22.3289 7.27147 21.8567 6.90376 21.4369C6.79005 21.3233 6.68787 21.2174 6.5941 21.1202C6.34136 20.8583 6.14978 20.6597 5.9582 20.5449C5.48542 20.23 5.1177 20.0726 4.80251 20.0726C4.59238 20.0726 4.43479 20.1776 4.32973 20.335C3.96201 20.8072 4.53985 21.332 4.53985 21.332C4.59238 21.3844 4.64491 21.4369 4.59238 21.4894C4.53985 21.5943 4.38226 21.5943 4.27719 21.5943C3.85694 21.5943 3.33163 21.2795 3.22656 20.4399C3.17403 19.9152 3.33163 19.4429 3.69935 19.0232C4.1196 18.5509 4.69744 18.2886 5.32782 18.2886H5.53795C6.53605 18.3935 7.7968 19.0232 9.37274 20.1251L9.37277 20.1251C10.1082 20.5974 10.8436 21.0696 11.5265 21.332V21.2795C11.5265 20.695 11.436 20.1558 11.339 19.5778C11.3315 19.5331 11.3239 19.4881 11.3164 19.4429C11.2839 19.4105 11.2916 19.3981 11.3022 19.381C11.3087 19.3704 11.3164 19.358 11.3164 19.338C11.3689 19.2855 11.3689 19.2855 11.4215 19.2855C11.7367 19.2331 11.9993 19.0232 12.1044 18.6559C12.1061 18.6524 12.108 18.6486 12.1101 18.6443C12.2377 18.3866 13.1176 16.6094 17.1999 16.6094C21.2978 16.6094 22.149 18.3556 22.2863 18.6372C22.2898 18.6444 22.2929 18.6506 22.2955 18.6559C22.348 18.9707 22.5581 19.1806 22.8733 19.2855C22.9784 19.2855 22.9784 19.3905 22.9784 19.4429C22.8208 20.1251 22.7157 20.7548 22.6632 21.332H22.7157C22.9784 21.3844 23.2936 21.4369 23.6088 21.4369C24.0815 21.4369 24.5543 21.332 24.817 21.1745C25.3423 20.9122 25.3423 20.335 25.3423 19.7578C25.3423 19.338 25.3423 18.9707 25.5524 18.7083C25.8676 18.2361 26.498 17.9737 27.1284 17.9737C27.3527 17.9737 27.5387 18.012 27.7519 18.0559C27.7883 18.0634 27.8255 18.071 27.8638 18.0787C28.7568 18.341 29.6499 19.0756 29.3872 20.0201C29.1771 20.8072 28.5467 20.8597 28.3891 20.8597C28.3891 20.8597 28.0214 20.8597 27.9689 20.7023C27.9689 20.6498 27.9689 20.5973 28.0214 20.5449C28.0739 20.5449 28.5467 20.23 28.3366 19.7578C28.2315 19.6004 28.0214 19.4954 27.7587 19.4954C27.5486 19.4954 27.3385 19.5479 27.2334 19.7053C27.0758 19.8103 27.0233 20.0201 27.0758 20.2825C27.4961 23.7982 25.3948 24.3229 24.9746 24.3754C24.5018 24.4278 23.924 24.4803 23.4512 24.4803C24.029 25.2674 24.7119 25.7921 25.1847 26.1069L25.1847 26.107C25.3423 26.2119 25.4999 26.3168 25.605 26.4218C25.9727 26.7891 26.9182 27.1039 27.5486 27.1039C27.7587 27.1039 27.9163 27.0515 28.0214 26.999C28.3366 26.8416 28.5467 26.4743 28.6518 26.0545C28.7043 25.7921 28.7043 25.4248 28.4417 25.005C28.2315 24.6902 28.0214 24.5328 27.8113 24.5328C27.5486 24.5328 27.391 24.7427 27.286 24.9526C27.2334 25.1624 27.2334 25.3199 27.286 25.4773C27.286 25.5035 27.2892 25.5298 27.2925 25.556C27.3024 25.6347 27.3122 25.7134 27.2334 25.7921C27.1809 25.8446 27.1284 25.8446 27.0233 25.8446C26.7606 25.8446 26.2879 25.5822 26.2353 25.005C26.1828 24.6377 26.3404 24.2179 26.6031 23.9031C26.9708 23.4833 27.6012 23.221 28.2315 23.221C28.4417 23.221 28.5992 23.221 28.7568 23.2734Z" fill="white"/>
<path fill-rule="evenodd" clip-rule="evenodd" d="M186.827 9.09998C186.636 9.09998 186.48 9.25533 186.48 9.44697V26.753C186.48 26.9446 186.636 27.1 186.827 27.1H188.325C188.517 27.1 188.672 26.9446 188.672 26.753V22.0277H191.313L197.612 27.0248C197.673 27.0735 197.749 27.1 197.828 27.1H200.232C200.379 27.1 200.511 27.0066 200.559 26.8672C200.608 26.7278 200.563 26.5729 200.447 26.4811L194.827 22.0228C196.481 21.9564 198.029 21.2278 199.13 20.1263L199.132 20.1249C200.276 18.9673 201.007 17.3199 201.007 15.5513C201.007 13.807 200.275 12.1598 199.132 11.0029L199.13 11.0014C197.974 9.84527 196.327 9.09998 194.581 9.09998H186.827ZM188.672 19.8234V11.2917H194.581C195.753 11.2917 196.787 11.7662 197.57 12.5494L197.572 12.5512C198.362 13.3296 198.815 14.3734 198.815 15.5513C198.815 16.7539 198.362 17.7863 197.57 18.5783C196.788 19.3598 195.755 19.8234 194.581 19.8234H188.672Z" fill="white"/>
<path fill-rule="evenodd" clip-rule="evenodd" d="M177.009 18.2023C175.889 20.2674 173.364 21.8529 169.755 21.88C169.725 21.8884 169.693 21.8929 169.66 21.8929H163.805C163.985 22.1008 164.211 22.3405 164.463 22.5752L164.467 22.5784C165.835 23.8866 167.777 24.7488 170.023 24.8846H170.201C170.21 24.8846 170.219 24.885 170.228 24.8856C170.376 24.897 170.514 24.8972 170.679 24.8972C171.086 24.8972 171.486 24.8613 171.894 24.8118C172.463 24.7391 172.993 24.6309 173.532 24.464C173.662 24.4126 173.811 24.3628 173.918 24.3271C173.938 24.319 173.959 24.3103 173.982 24.3009C174.094 24.2548 174.25 24.1906 174.553 24.086C174.727 24.0262 174.917 24.1119 174.987 24.2815L175.553 25.6524C175.588 25.7381 175.588 25.8343 175.552 25.9196C175.516 26.0049 175.447 26.0723 175.361 26.1067C175.194 26.1734 175.063 26.2281 174.956 26.2726C174.836 26.3227 174.747 26.36 174.671 26.3873L174.67 26.388C174.582 26.4193 174.5 26.4449 174.431 26.4666L174.411 26.4726C174.334 26.4966 174.278 26.5149 174.229 26.5343C174.221 26.5376 174.212 26.5406 174.204 26.5432C173.545 26.7499 172.872 26.9056 172.17 26.9965L172.169 26.9967C171.653 27.0611 171.098 27.1 170.566 27.1C170.489 27.1 170.411 27.0966 170.341 27.0935L170.337 27.0934C170.263 27.0901 170.199 27.0874 170.138 27.0874C170.131 27.0874 170.124 27.0872 170.117 27.0867L169.916 27.0742C167.173 26.906 164.706 25.8189 162.959 24.1894L162.956 24.1869C161.288 22.597 160.22 20.4346 160.22 18.1126C160.22 18.0535 160.224 17.9928 160.227 17.9421L160.227 17.934C160.23 17.8779 160.233 17.8308 160.233 17.7855C160.233 17.7751 160.233 17.7646 160.234 17.7541L160.246 17.6218C160.379 15.2607 161.533 13.0518 163.308 11.5239C165.02 10.0347 167.39 9.09998 169.987 9.09998C173.46 9.09998 175.913 10.7438 177.023 12.8441L177.028 12.853C177.439 13.6893 177.667 14.6093 177.667 15.5216V15.5971C177.667 16.4849 177.439 17.3962 177.01 18.2003L177.009 18.2023ZM164.743 13.18C166.101 12.0031 167.894 11.2902 169.987 11.2902C172.676 11.2902 174.339 12.4338 175.061 13.8549L175.064 13.8607C175.353 14.4035 175.489 14.9515 175.489 15.5216C175.489 16.1042 175.353 16.6385 175.066 17.1672L175.063 17.1717C174.339 18.5535 172.575 19.6901 169.409 19.6901H162.633C162.508 19.2454 162.423 18.6971 162.423 18.1126V17.7582C162.533 15.9505 163.365 14.3668 164.742 13.1809L164.743 13.18Z" fill="white"/>
<path fill-rule="evenodd" clip-rule="evenodd" d="M139.655 9.09998C139.461 9.09998 139.305 9.25533 139.305 9.44697V10.9447C139.305 11.1364 139.461 11.2917 139.655 11.2917H146.957C145.91 12.4039 145.246 13.887 145.246 15.4758V26.753C145.246 26.9446 145.403 27.1 145.596 27.1H147.107C147.3 27.1 147.457 26.9446 147.457 26.753V15.4758C147.457 14.3381 147.953 13.3335 148.814 12.5614L148.816 12.5595C149.69 11.7635 150.849 11.2917 152.198 11.2917H154.305C154.498 11.2917 154.655 11.1364 154.655 10.9447V9.44697C154.655 9.25533 154.498 9.09998 154.305 9.09998H139.655Z" fill="white"/>
<path fill-rule="evenodd" clip-rule="evenodd" d="M117.772 9.09998C117.58 9.09998 117.425 9.25533 117.425 9.44697V26.753C117.425 26.9446 117.58 27.1 117.772 27.1H119.27C119.461 27.1 119.617 26.9446 119.617 26.753V22.0277H122.257L128.556 27.0248C128.618 27.0735 128.694 27.1 128.772 27.1H131.176C131.324 27.1 131.455 27.0066 131.504 26.8672C131.552 26.7278 131.507 26.5729 131.392 26.4811L125.772 22.0228C127.426 21.9564 128.973 21.2278 130.075 20.1263L130.076 20.1249C131.22 18.9673 131.951 17.3199 131.951 15.5513C131.951 13.807 131.22 12.1598 130.076 11.0029L130.075 11.0014C128.919 9.84527 127.271 9.09998 125.525 9.09998H117.772ZM119.617 19.8234V11.2917H125.525C126.697 11.2917 127.731 11.7662 128.514 12.5494L128.516 12.5512C129.306 13.3296 129.759 14.3734 129.759 15.5513C129.759 16.7539 129.306 17.7863 128.514 18.5783C127.733 19.3598 126.7 19.8234 125.525 19.8234H119.617Z" fill="white"/>
<path fill-rule="evenodd" clip-rule="evenodd" d="M97.0117 9.09998C96.82 9.09998 96.6647 9.25533 96.6647 9.44697V10.9447C96.6647 11.1364 96.82 11.2917 97.0117 11.2917H101.92C103.189 11.2917 104.342 11.7182 105.207 12.455L105.21 12.4573C105.765 12.9203 106.146 13.4669 106.316 13.9457H102.449C102.294 13.9457 102.119 13.9561 101.937 13.967L101.866 13.9712C99.3156 14.0621 97.3591 14.824 96.0659 15.9571C94.7046 17.145 94.0342 18.7642 94.0342 20.3718C94.0342 20.4232 94.0342 20.5111 94.0475 20.6254C94.1607 23.7036 96.2752 25.7388 98.7343 26.6021L98.7368 26.603C99.6926 26.9303 100.738 27.1 101.744 27.1L101.749 27.0999C102.751 27.0869 103.788 26.9179 104.702 26.5601C105.254 26.3432 105.781 26.0617 106.197 25.7964C106.289 25.738 106.376 25.6801 106.457 25.6232V26.753C106.457 26.9446 106.612 27.1 106.804 27.1H108.301C108.493 27.1 108.648 26.9446 108.648 26.753V14.9723C108.648 13.2824 107.824 11.7931 106.625 10.7807C105.389 9.73102 103.66 9.09998 101.92 9.09998H97.0117ZM96.2259 20.1201C96.2259 20.0901 96.2221 20.0611 96.215 20.0334C96.2434 19.2906 96.6355 18.3697 97.5018 17.6271L97.5045 17.6248C98.4355 16.8102 99.8603 16.2368 101.94 16.15H102.701C102.733 16.15 102.764 16.1456 102.794 16.1374H106.457V20.8878C106.457 21.8455 106.191 22.6016 105.752 23.1876C105.311 23.7764 104.681 24.2133 103.923 24.5032C103.249 24.7633 102.51 24.8959 101.729 24.9082C100.951 24.9079 100.185 24.7762 99.4531 24.5244C97.6388 23.9037 96.3095 22.5848 96.2259 20.541V20.1201Z" fill="white"/>
<path fill-rule="evenodd" clip-rule="evenodd" d="M83.5208 9.09998C83.3292 9.09998 83.1738 9.25533 83.1738 9.44697V20.3835C81.8807 19.2884 80.1026 18.59 78.1969 18.59H73.6982V9.45955C73.6982 9.26792 73.5428 9.11256 73.3512 9.11256H71.866C71.6744 9.11256 71.519 9.26792 71.519 9.45955V26.753C71.519 26.9446 71.6744 27.1 71.866 27.1H73.3512C73.5428 27.1 73.6982 26.9446 73.6982 26.753V20.7691H78.1969C79.6118 20.7691 80.8391 21.2555 81.7691 22.0675C82.4464 22.6616 82.787 23.2077 82.9665 23.7768C83.15 24.359 83.1738 24.9895 83.1738 25.7838V26.753C83.1738 26.9446 83.3292 27.1 83.5208 27.1H85.0186C85.2102 27.1 85.3655 26.9446 85.3655 26.753V9.44697C85.3655 9.25533 85.2102 9.09998 85.0186 9.09998H83.5208Z" fill="white"/>
<path fill-rule="evenodd" clip-rule="evenodd" d="M56.5921 8.5C55.2932 8.5 54.076 8.75088 52.9374 9.25117C51.7932 9.75391 50.7988 10.4374 49.9517 11.3018L49.9494 11.3041C49.1033 12.1503 48.4279 13.1538 47.9246 14.3163C47.4418 15.4549 47.1992 16.6817 47.1992 18C47.1992 19.3175 47.4415 20.5532 47.9243 21.7099L47.9251 21.7116C48.4282 22.8556 49.1032 23.8588 49.9503 24.7236C50.7973 25.5702 51.7926 26.2458 52.9374 26.7488C54.076 27.2491 55.2932 27.5 56.5921 27.5C58.1708 27.5 59.6035 27.1535 60.8958 26.4642L60.8975 26.4633C61.926 25.922 62.8151 25.234 63.5667 24.3993C63.7996 24.1408 63.7565 23.7197 63.4424 23.485L62.7398 22.9601C62.4298 22.7284 61.9568 22.7905 61.6576 23.12C61.1747 23.652 60.6158 24.1068 59.9822 24.4843C59.9458 24.506 59.9091 24.5275 59.8722 24.5487L59.8704 24.5496C58.8777 25.1116 57.7828 25.3912 56.5921 25.3912C55.6228 25.3912 54.7061 25.1952 53.8453 24.8022L53.8427 24.801C53.0059 24.4104 52.2703 23.8798 51.6378 23.21C51.0051 22.5401 50.504 21.7597 50.134 20.8716C49.7611 19.9767 49.5757 19.0185 49.5757 18C49.5757 16.9815 49.7611 16.0233 50.134 15.1284C50.504 14.2403 51.0051 13.4599 51.6378 12.79C52.2694 12.1212 53.0037 11.5911 53.839 11.2007L53.843 11.1989L53.8454 11.1977C54.7062 10.8048 55.6228 10.6088 56.5921 10.6088C57.7832 10.6088 58.8781 10.8976 59.8705 11.4772L59.8723 11.4782C60.5503 11.8553 61.1452 12.3227 61.6554 12.8803C61.9567 13.2095 62.43 13.2714 62.7398 13.0399L63.4424 12.515C63.7565 12.2803 63.7996 11.8592 63.5667 11.6007C62.815 10.7659 61.9259 10.0779 60.8972 9.53653L60.8957 9.53571C59.6034 8.8465 58.1708 8.5 56.5921 8.5Z" fill="white"/>
<path fill-rule="evenodd" clip-rule="evenodd" d="M251.891 9.09998C251.699 9.09998 251.544 9.25533 251.544 9.44697V26.753C251.544 26.9446 251.699 27.1 251.891 27.1H253.389C253.58 27.1 253.736 26.9446 253.736 26.753V9.44697C253.736 9.25533 253.58 9.09998 253.389 9.09998H251.891Z" fill="white"/>
<path fill-rule="evenodd" clip-rule="evenodd" d="M269.399 8.5C268.1 8.5 266.883 8.75088 265.744 9.25117C264.6 9.75391 263.606 10.4374 262.759 11.3018L262.757 11.3041C261.91 12.1503 261.235 13.1538 260.732 14.3163C260.249 15.4549 260.006 16.6817 260.006 18C260.006 19.3175 260.249 20.5532 260.731 21.7099L260.732 21.7116C261.235 22.8556 261.91 23.8588 262.757 24.7236L262.758 24.7243C263.605 25.5709 264.6 26.2458 265.744 26.7488C266.883 27.2491 268.1 27.5 269.399 27.5C270.978 27.5 272.411 27.1535 273.703 26.4642L273.705 26.4633C274.733 25.922 275.622 25.234 276.374 24.3993C276.607 24.1408 276.564 23.7197 276.25 23.485L275.547 22.9601C275.237 22.7284 274.764 22.7905 274.465 23.12C273.982 23.652 273.423 24.1068 272.789 24.4843C272.753 24.506 272.716 24.5275 272.679 24.5487L272.678 24.5496C271.685 25.1116 270.59 25.3912 269.399 25.3912C268.43 25.3912 267.513 25.1952 266.652 24.8022L266.65 24.801C265.813 24.4104 265.077 23.8798 264.445 23.21C263.812 22.5401 263.311 21.7597 262.941 20.8716C262.568 19.9767 262.383 19.0185 262.383 18C262.383 16.9815 262.568 16.0233 262.941 15.1284C263.311 14.2403 263.812 13.4599 264.445 12.79C265.077 12.1212 265.811 11.5911 266.646 11.2007L266.65 11.1989L266.653 11.1977C267.513 10.8048 268.43 10.6088 269.399 10.6088C270.59 10.6088 271.685 10.8976 272.678 11.4772L272.679 11.4782C273.357 11.8553 273.952 12.3227 274.463 12.8803C274.764 13.2095 275.237 13.2714 275.547 13.0399L276.25 12.515C276.564 12.2803 276.607 11.8592 276.374 11.6007C275.622 10.7659 274.733 10.0779 273.704 9.53653L273.703 9.53571C272.411 8.8465 270.978 8.5 269.399 8.5Z" fill="white"/>
<path fill-rule="evenodd" clip-rule="evenodd" d="M217.399 8.5C216.1 8.5 214.883 8.75088 213.744 9.25117C212.6 9.75391 211.606 10.4374 210.759 11.3018L210.757 11.3041C209.91 12.1503 209.235 13.1538 208.732 14.3163C208.249 15.4549 208.006 16.6817 208.006 18C208.006 19.3175 208.249 20.5532 208.731 21.7099L208.732 21.7116C209.235 22.8556 209.91 23.8588 210.757 24.7236L210.758 24.7243C211.605 25.5709 212.6 26.2458 213.744 26.7488C214.883 27.2491 216.1 27.5 217.399 27.5C218.978 27.5 220.411 27.1535 221.703 26.4642L221.705 26.4633C222.733 25.922 223.622 25.234 224.374 24.3993C224.607 24.1408 224.564 23.7197 224.25 23.485L223.547 22.9601C223.237 22.7284 222.764 22.7905 222.465 23.12C221.982 23.652 221.423 24.1068 220.789 24.4843C220.753 24.506 220.716 24.5275 220.679 24.5487L220.678 24.5496C219.685 25.1116 218.59 25.3912 217.399 25.3912C216.43 25.3912 215.513 25.1952 214.652 24.8022L214.65 24.801C213.813 24.4104 213.077 23.8798 212.445 23.21C211.812 22.5401 211.311 21.7597 210.941 20.8716C210.568 19.9767 210.383 19.0185 210.383 18C210.383 16.9815 210.568 16.0233 210.941 15.1284C211.311 14.2403 211.812 13.4599 212.445 12.79C213.077 12.1212 213.811 11.5911 214.646 11.2007L214.65 11.1989L214.653 11.1977C215.513 10.8048 216.43 10.6088 217.399 10.6088C218.59 10.6088 219.685 10.8976 220.678 11.4772L220.679 11.4782C221.357 11.8553 221.952 12.3227 222.463 12.8803C222.764 13.2095 223.237 13.2714 223.547 13.0399L224.25 12.515C224.564 12.2803 224.607 11.8592 224.374 11.6007C223.622 10.7659 222.733 10.0779 221.704 9.53653L221.703 9.53571C220.411 8.8465 218.978 8.5 217.399 8.5Z" fill="white"/>
<path fill-rule="evenodd" clip-rule="evenodd" d="M231.442 9.09998C231.25 9.09998 231.095 9.25533 231.095 9.44697V20.1498C231.083 20.2603 231.083 20.343 231.083 20.3718C231.083 22.0067 231.72 23.6966 232.999 24.9368C234.242 26.1656 236.154 26.9961 238.614 27.0997C238.617 27.0998 238.62 27.0999 238.624 27.0999L238.629 27.1H243.588C243.779 27.1 243.935 26.9446 243.935 26.753V25.2552C243.935 25.0636 243.779 24.9082 243.588 24.9082H238.686C236.732 24.8342 235.399 24.2301 234.517 23.3712C233.669 22.5342 233.274 21.4925 233.274 20.3718V9.44697C233.274 9.25533 233.119 9.09998 232.927 9.09998H231.442Z" fill="white"/>
<path fill-rule="evenodd" clip-rule="evenodd" d="M283.08 9.09998C282.941 9.09998 282.829 9.21218 282.829 9.35059V26.8494C282.829 26.9878 282.941 27.1 283.08 27.1H284.594C284.733 27.1 284.845 26.9878 284.845 26.8494V21.7083C285.677 21.6229 286.721 21.3898 287.656 21.0165L294.998 27.0431C295.043 27.0799 295.099 27.1 295.157 27.1H297.55C297.655 27.1 297.75 27.0335 297.786 26.9338C297.821 26.8342 297.79 26.7229 297.709 26.6557L289.655 20.0405C290.249 19.6803 291.035 19.0923 291.79 18.3918C293.774 16.5372 295.601 13.7488 297.062 9.43089C297.087 9.3544 297.075 9.27012 297.028 9.2045C296.981 9.13889 296.905 9.09998 296.824 9.09998H295.221C295.114 9.09998 295.019 9.16723 294.984 9.26769C293.696 12.9428 292.124 15.3229 290.417 16.9178C288.504 18.7126 286.476 19.4832 284.845 19.675V9.35059C284.845 9.21218 284.733 9.09998 284.594 9.09998H283.08Z" fill="white"/>
</svg>
