<svg width="16" height="16" viewBox="0 0 16 16" fill="none" xmlns="http://www.w3.org/2000/svg">
<path fill-rule="evenodd" clip-rule="evenodd" d="M7.80452 2.86317C7.9295 2.98819 7.99972 3.15774 7.99972 3.33453C7.99972 3.51131 7.9295 3.68086 7.80452 3.80588L4.27586 7.33472H13.3332C13.51 7.33472 13.6796 7.40497 13.8046 7.53C13.9296 7.65503 13.9999 7.8246 13.9999 8.00142C13.9999 8.17824 13.9296 8.34782 13.8046 8.47285C13.6796 8.59788 13.51 8.66812 13.3332 8.66812H4.27586L7.80452 12.197C7.92596 12.3227 7.99316 12.4911 7.99164 12.6659C7.99012 12.8407 7.92001 13.0079 7.7964 13.1316C7.6728 13.2552 7.50559 13.3253 7.33079 13.3268C7.15599 13.3283 6.98759 13.2611 6.86186 13.1397L2.19519 8.47278C2.07021 8.34776 2 8.17821 2 8.00142C2 7.82464 2.07021 7.65509 2.19519 7.53007L6.86186 2.86317C6.98688 2.73818 7.15641 2.66797 7.33319 2.66797C7.50997 2.66797 7.67951 2.73818 7.80452 2.86317Z" fill="#109EEE"/>
</svg>
