<svg width="171" height="150" viewBox="0 0 171 150" fill="none" xmlns="http://www.w3.org/2000/svg">
<path fill-rule="evenodd" clip-rule="evenodd" d="M54.4368 85.358V59.3301H56.3418C56.5131 60.2684 56.8061 61.5187 57.2207 63.081C57.7132 64.7571 58.3068 66.4021 58.9982 68.0068C59.9195 69.8565 60.9375 71.6565 62.048 73.3996C63.3682 75.2538 64.9029 76.9462 66.6205 78.4417C68.5672 80.2393 70.4298 81.6072 72.2081 82.5455C73.8766 83.4036 75.6195 84.1094 77.4155 84.6544C78.9587 85.0245 80.5313 85.2599 82.1154 85.358H86.3078C90.7946 85.358 94.4779 84.7325 97.3577 83.4815C100.236 82.1531 102.48 80.5513 104.09 78.6762C105.789 76.7939 106.978 74.8399 107.656 72.8143C108.336 70.704 108.675 68.8669 108.674 67.3031C108.674 64.4124 107.911 62.028 106.386 60.15C104.943 58.275 102.996 56.7134 100.544 55.4653C97.8647 54.1286 95.056 53.068 92.1612 52.2998C89.028 51.4404 85.8105 50.5804 82.5087 49.7196C79.2056 48.7813 75.9873 47.7261 72.8541 46.554C69.8584 45.3802 67.038 43.8025 64.4716 41.8649C62.016 39.9092 59.9848 37.4754 58.5017 34.7118C57.0632 31.8985 56.3432 28.3815 56.3418 24.1608C56.3476 21.0082 57.1333 17.9059 58.6291 15.1289C60.1997 12.1814 62.3612 9.58767 64.9791 7.50888C67.6905 5.24215 70.9088 3.44455 74.6338 2.11608C78.5812 0.68408 82.7537 -0.0316249 86.9538 0.00280922C89.4278 -0.0288454 91.898 0.207097 94.3211 0.706503C96.21 1.11713 98.0753 1.62939 99.9087 2.24104C101.52 2.71017 102.917 3.1793 104.101 3.64843C105.193 4.08219 106.354 4.3204 107.529 4.35212C108.715 4.35212 109.478 4.19574 109.816 3.88299C110.241 3.49278 110.664 2.82855 111.086 1.89029H113.119V24.1564H111.473C110.458 21.4205 109.359 18.7234 108.177 16.065C107.116 13.4734 105.66 11.0612 103.859 8.91407C102.03 6.68368 99.732 4.8822 97.127 3.63747C94.4171 2.309 90.9879 1.64476 86.8395 1.64476C83.4514 1.64476 80.4485 2.07443 77.8308 2.93377C75.2908 3.79311 73.1316 4.92648 71.3533 6.33386C69.6923 7.6042 68.309 9.1999 67.2884 11.023C66.385 12.6365 65.9043 14.4514 65.891 16.2996C65.891 19.0354 66.6527 21.3007 68.1761 23.0954C69.7874 24.893 71.8624 26.4567 74.4009 27.7867C77.1794 29.1298 80.0693 30.23 83.0383 31.075C86.34 32.0132 89.6849 32.9902 93.0731 34.0059C96.5447 35.0289 99.889 36.1623 103.106 37.406C106.238 38.49 109.191 40.0311 111.871 41.9789C114.356 43.7938 116.433 46.109 117.966 48.7747C119.577 51.4331 120.383 54.7163 120.383 58.6243C120.393 62.406 119.524 66.1386 117.843 69.5282C116.107 73.021 113.638 76.0999 110.603 78.5557C107.537 81.1381 103.845 83.2104 99.5286 84.7727C95.2952 86.2561 90.5529 86.9985 85.3014 87C82.6608 86.9985 80.0254 86.763 77.4265 86.2963C74.8865 85.8272 72.4695 85.358 70.1756 84.8889C67.9784 84.3423 65.9884 83.8308 64.2057 83.3544C62.5138 82.8853 61.2438 82.6507 60.3957 82.6507C59.2106 82.6507 58.364 82.8465 57.8557 83.2382C57.3474 83.5495 56.8816 84.2525 56.4582 85.3471L54.4368 85.358ZM91.8295 39.5609C91.8239 40.0984 91.6793 40.6253 91.4099 41.0908C91.1405 41.5562 90.7552 41.9444 90.2914 42.2179L91.7438 46.1156H85.965L87.4174 42.2179C86.9539 41.9441 86.5688 41.5558 86.2994 41.0905C86.03 40.6251 85.8853 40.0983 85.8793 39.5609C85.8793 37.8072 86.9779 36.6037 88.8566 36.6037C90.7352 36.6037 91.8295 37.8072 91.8295 39.5609ZM123.544 44.7236C125.135 44.7367 126.401 44.7477 129.833 44.706V45.7013C129.49 45.9895 129.122 46.2477 128.734 46.4729C128.191 46.817 127.677 47.2041 127.196 47.6304L127.177 49.0816L127.155 50.7543L127.137 51.9907C127.137 52.519 127.295 52.5606 127.497 52.5585C127.497 52.5585 129.611 50.9428 131.892 51.0239C134.173 51.105 136.238 52.5585 136.238 52.5585C136.238 52.5585 136.607 52.6878 136.607 51.9907C136.607 51.2936 136.627 50.7543 136.627 50.7543L136.642 49.0816L136.662 47.6304C136.177 47.2197 135.65 46.8597 135.091 46.5562C134.621 46.3022 134.169 46.0165 133.738 45.7013C133.738 45.1817 133.748 44.8704 133.748 44.706H137.66C138.055 44.7078 138.435 44.5547 138.718 44.2795C139.001 44.0044 139.165 43.6293 139.173 43.2351V42.6497C139.187 41.8233 138.514 40.9398 137.697 40.9508H114.562C116.164 42.5489 116.786 42.9018 118.594 44.706C121.059 44.7082 122.389 44.7236 123.544 44.7236ZM134.181 44.706C134.181 44.535 134.181 44.4868 134.181 44.706ZM134.181 44.706C134.181 44.831 134.181 45.0173 134.181 45.1949C134.181 45.7342 134.164 46.2055 134.181 44.706ZM38.1771 49.9519C39.0934 51.2344 40.3744 52.0696 42.0707 52.0674C44.859 52.0674 46.0257 50.033 46.0257 47.2555C46.0257 45.6114 43.9823 44.1514 42.6947 43.2329L42.6002 43.1671L42.6947 43.0991C43.9801 42.1828 46.0279 40.7206 46.0301 39.0765C46.0301 36.299 44.87 34.2668 42.0751 34.2668C40.1481 34.2668 38.6913 35.3432 37.841 36.9237C37.3576 37.8225 37.4015 38.5109 37.4455 39.3132C37.4455 39.4535 37.463 39.5982 37.4696 39.7517C35.8569 39.8393 34.7099 40.4093 34.0947 41.8057C33.855 42.3567 33.7375 42.9529 33.7504 43.5534C33.7633 44.1539 33.9062 44.7445 34.1694 45.2848C34.8154 46.6001 35.9272 47.0911 37.4652 47.1722C37.5421 48.1215 37.6454 49.2197 38.1771 49.9519ZM58.9301 41.2752L59.8771 41.2884C60.1782 41.5909 61.1032 42.4502 61.9865 43.2614C62.7929 44.0111 63.5641 44.7279 63.7948 44.9559C59.8639 44.9559 59.8947 44.9559 59.9233 44.9559H53.2854C52.6852 44.8755 52.075 44.915 51.4902 45.0721C51.0544 45.278 50.6996 45.6228 50.4817 46.052C50.1192 48.025 49.4117 50.0352 48.4031 51.5325C46.7574 53.9746 44.5074 55.3206 42.0707 55.3228C39.6339 55.325 37.6037 53.9768 35.9601 51.5347C35.6201 51.028 35.3182 50.4967 35.0571 49.9454C33.9148 49.6101 32.8801 48.9829 32.0556 48.1258C30.8474 46.868 30.1729 45.1932 30.1729 43.451C30.1729 41.7088 30.8474 40.0339 32.0556 38.7761C32.8068 37.9946 33.7341 37.4031 34.7604 37.0509C35.0856 36.2574 35.489 35.4981 35.9645 34.7841C37.6103 32.3399 39.6405 30.9917 42.0773 30.9917C44.514 30.9917 46.7618 32.3377 48.4075 34.7798C49.1765 35.9241 49.9082 38.3267 50.2686 39.5083C50.3784 39.8722 50.4553 40.1199 50.4883 40.1769C50.7183 40.5608 51.0497 40.874 51.4463 41.0823C52.1055 41.3257 53.292 41.273 53.292 41.273C56.0539 41.2818 57.8337 41.2796 58.9301 41.2752Z" fill="#0A3647"/>
<path d="M14.0653 116.122C13.8856 116.183 13.6968 116.214 13.507 116.212C13.3009 116.229 13.0951 116.177 12.9224 116.064C12.8173 115.966 12.7371 115.845 12.6885 115.711C12.2365 114.593 11.6519 113.788 10.9347 113.296C10.2176 112.804 9.26572 112.559 8.07898 112.561C7.22071 112.537 6.37673 112.784 5.66751 113.267C5.02251 113.72 4.69903 114.417 4.69708 115.358C4.68517 115.688 4.74453 116.016 4.87112 116.321C4.99771 116.626 5.18857 116.9 5.43075 117.125C6.00227 117.593 6.63692 117.979 7.31608 118.271C8.07898 118.607 8.8945 118.93 9.75678 119.242C10.6117 119.541 11.4312 119.932 12.2004 120.409C12.9491 120.867 13.591 121.479 14.0828 122.205C14.6199 123.041 14.8825 124.022 14.834 125.014C14.8337 125.756 14.7042 126.493 14.4511 127.192C14.1925 127.901 13.7803 128.544 13.2439 129.076C12.6384 129.639 11.9285 130.079 11.154 130.371C10.1757 130.706 9.14531 130.865 8.11114 130.84C6.94488 130.857 5.7814 130.722 4.65031 130.438C3.78019 130.199 2.93307 129.884 2.119 129.496C2.06054 128.652 1.96311 127.828 1.8267 127.023C1.69029 126.218 1.55389 125.424 1.41748 124.64C1.63276 124.558 1.86201 124.517 2.09269 124.521C2.28114 124.506 2.46862 124.559 2.62175 124.669C2.76233 124.783 2.86442 124.937 2.91405 125.11C3.13542 125.783 3.42124 126.434 3.76757 127.052C4.054 127.55 4.42146 127.998 4.85492 128.376C5.27161 128.713 5.7516 128.964 6.26673 129.114C6.88125 129.279 7.5158 129.357 8.15206 129.347C8.68102 129.36 9.20822 129.281 9.71002 129.114C10.1046 128.961 10.4644 128.731 10.7681 128.437C11.0423 128.162 11.2537 127.831 11.3878 127.466C11.5236 127.098 11.5928 126.709 11.5924 126.317C11.6134 125.955 11.559 125.593 11.4327 125.253C11.3065 124.914 11.111 124.604 10.8588 124.343C10.3476 123.825 9.73724 123.416 9.06403 123.138C8.30514 122.784 7.52404 122.479 6.72564 122.226C5.91789 121.937 5.13974 121.572 4.40186 121.135C3.69929 120.687 3.08994 120.107 2.60714 119.429C2.13556 118.723 1.90075 117.781 1.9027 116.603C1.89535 115.857 2.0354 115.117 2.31484 114.425C2.60203 113.745 3.0374 113.139 3.58927 112.649C4.16303 112.123 4.83293 111.713 5.56229 111.441C6.42123 111.136 7.32806 110.987 8.23975 111.001C9.07019 111.001 9.89822 111.09 10.7097 111.266C11.6842 111.479 12.6394 111.771 13.5654 112.141C13.6034 112.724 13.6619 113.395 13.7408 114.142C13.8197 114.888 13.9571 115.533 14.0653 116.122ZM30.9339 112.826V128.309C30.9323 128.477 30.9431 128.644 30.966 128.811C31.0121 128.938 31.0932 129.05 31.1999 129.134C31.3506 129.25 31.5195 129.339 31.6997 129.4C32.0003 129.475 32.3047 129.533 32.6117 129.575C32.7365 129.584 32.8528 129.641 32.9354 129.735C33.018 129.829 33.0603 129.952 33.053 130.076C33.0503 130.165 33.0405 130.254 33.0238 130.342C33.026 130.44 33.0161 130.538 32.9946 130.633C32.3661 130.592 31.6909 130.555 30.966 130.514C30.2411 130.473 29.6302 130.485 29.0807 130.485C28.5312 130.485 27.8764 130.485 27.1691 130.514L25.199 130.633C25.1544 130.541 25.1239 130.443 25.1083 130.342V130.076C25.1031 129.965 25.1242 129.854 25.1697 129.753C25.2208 129.692 25.2836 129.642 25.3545 129.607C25.4253 129.571 25.5027 129.55 25.5819 129.545C26.3068 129.446 26.7511 129.321 26.9352 129.163C27.0416 129.05 27.1227 128.915 27.1731 128.767C27.2235 128.62 27.242 128.464 27.2275 128.309V112.826H24.6377C24.1612 112.817 23.6858 112.876 23.2259 113.001C22.8612 113.097 22.5206 113.268 22.2263 113.503C21.9235 113.75 21.6646 114.045 21.4605 114.378C21.21 114.796 20.9846 115.228 20.7852 115.673C20.7492 115.758 20.687 115.829 20.6078 115.877C20.5285 115.925 20.4361 115.946 20.3439 115.938C20.2047 115.935 20.0664 115.915 19.9317 115.88C19.811 115.837 19.693 115.787 19.578 115.731C19.7154 115.262 19.8323 114.856 19.9317 114.495C20.0311 114.133 20.1071 113.76 20.1656 113.407C20.2445 112.955 20.3029 112.552 20.3439 112.199C20.3638 111.939 20.4128 111.682 20.49 111.433C20.5351 111.347 20.6059 111.278 20.6923 111.234C20.7788 111.191 20.8767 111.176 20.9723 111.19C21.1886 111.19 21.6095 111.22 22.238 111.278C22.8664 111.336 23.6615 111.365 24.5617 111.365H33.623C34.5058 111.365 35.2619 111.336 35.8913 111.278C36.5373 111.22 36.9786 111.19 37.2125 111.19C37.3082 111.185 37.4036 111.207 37.4874 111.253C37.5713 111.3 37.6401 111.369 37.686 111.453C37.759 111.702 37.7984 111.96 37.8029 112.22C37.8507 112.626 37.919 113.028 38.0075 113.427C38.066 113.78 38.1361 114.142 38.2151 114.515C38.294 114.888 38.4401 115.282 38.598 115.752L38.2151 115.9C38.0906 115.937 37.9618 115.956 37.8321 115.959C37.7363 115.965 37.6408 115.943 37.5572 115.896C37.4737 115.849 37.4057 115.778 37.3615 115.693C37.1594 115.244 36.9229 114.811 36.6542 114.398C36.4625 114.058 36.2029 113.76 35.8913 113.523C35.6014 113.28 35.2578 113.108 34.8887 113.022C34.4489 112.896 33.9927 112.837 33.5353 112.847L30.9339 112.826ZM51.3714 124.022H45.1952L43.6664 128.105C43.6068 128.205 43.5661 128.316 43.5466 128.431C43.5312 128.518 43.5215 128.606 43.5174 128.694C43.5172 128.8 43.5439 128.904 43.595 128.997C43.6461 129.09 43.72 129.168 43.8097 129.225C44.2069 129.417 44.6356 129.537 45.0753 129.578C45.3501 129.618 45.4875 129.805 45.4875 130.137C45.4834 130.306 45.4638 130.474 45.429 130.639L43.7512 130.52C43.1666 130.5 42.5879 130.49 42.0149 130.49C41.6233 130.49 41.2111 130.49 40.7785 130.52C40.3459 130.549 39.8665 130.578 39.3375 130.639C39.2982 130.556 39.2782 130.465 39.279 130.374V130.146C39.279 129.773 39.4047 129.563 39.6619 129.563C40.109 129.495 40.5446 129.366 40.9568 129.181C41.2455 129.025 41.4731 128.776 41.6028 128.475L48.694 111.52C48.7456 111.374 48.8409 111.248 48.9669 111.158C49.0929 111.069 49.2436 111.02 49.3984 111.018C49.4965 111.019 49.5944 111.029 49.6907 111.048C49.7994 111.049 49.9079 111.059 50.0152 111.077L57.1064 128.574C57.234 128.879 57.4764 129.122 57.7816 129.251C58.1317 129.392 58.4979 129.49 58.8719 129.543C59.0066 129.564 59.1278 129.637 59.2101 129.746C59.2923 129.854 59.3293 129.991 59.3132 130.126C59.3104 130.304 59.2908 130.482 59.2548 130.657L57.3987 130.537C56.7907 130.517 56.2295 130.508 55.6946 130.508H54.692L53.4877 130.566C53.0756 130.587 52.6634 130.595 52.2513 130.595C51.8391 130.595 51.5234 130.636 51.2516 130.657C51.2104 130.574 51.1894 130.483 51.1902 130.391V130.146C51.1799 130.013 51.2115 129.879 51.2808 129.764C51.3368 129.681 51.4191 129.618 51.5147 129.586C51.9004 129.528 52.2768 129.419 52.6342 129.263C52.7476 129.213 52.844 129.131 52.912 129.027C52.9799 128.924 53.0164 128.803 53.0171 128.679C53.0094 128.529 52.9788 128.38 52.9265 128.239L51.3714 124.022ZM50.8132 122.549L48.3111 115.926L45.7505 122.549H50.8132ZM67.255 122.43L62.5782 113.512C62.4072 113.144 62.1182 112.843 61.7568 112.657C61.3645 112.479 60.9478 112.36 60.5204 112.304C60.2837 112.287 60.1667 112.089 60.1667 111.721V111.605C60.1667 111.544 60.1766 111.484 60.196 111.427L60.2252 111.223C60.6578 111.26 61.2073 111.301 61.8738 111.339C62.5402 111.377 63.306 111.368 64.1099 111.368H65.0803C65.472 111.351 65.8637 111.339 66.2495 111.339L67.3368 111.281C67.6905 111.26 67.9741 111.243 68.1904 111.223C68.2216 111.348 68.2412 111.476 68.2488 111.605V111.75C68.2488 112.086 68.1319 112.272 67.8951 112.31C67.5288 112.331 67.1697 112.421 66.837 112.576C66.7531 112.608 66.6806 112.664 66.6286 112.737C66.5766 112.81 66.5474 112.897 66.5447 112.987C66.5646 113.206 66.6357 113.418 66.7522 113.605L70.1926 120.435L73.5862 114.063C73.7725 113.781 73.8841 113.457 73.9107 113.121C73.9158 113.014 73.8872 112.908 73.829 112.818C73.7709 112.728 73.686 112.659 73.5862 112.619C73.23 112.46 72.8532 112.351 72.4667 112.296C72.2124 112.258 72.0867 112.071 72.0867 111.736C72.1021 111.558 72.1315 111.381 72.1744 111.208C72.5865 111.246 73.0951 111.287 73.7031 111.325C74.3111 111.363 74.8723 111.354 75.3517 111.354C75.8311 111.354 76.2724 111.354 76.7635 111.325C77.2546 111.295 77.7836 111.266 78.2922 111.208C78.3294 111.322 78.3501 111.441 78.3536 111.561V111.736C78.3536 112.092 78.2338 112.278 77.9999 112.296C77.495 112.342 77.0013 112.471 76.5384 112.678C76.243 112.858 76.0002 113.112 75.834 113.416L70.9555 122.363V128.222C70.9493 128.402 70.9791 128.583 71.0432 128.752C71.1122 128.901 71.2255 129.024 71.3677 129.105C71.5616 129.218 71.7687 129.307 71.9844 129.371C72.2592 129.429 72.6128 129.487 73.0454 129.545C73.1394 129.564 73.2229 129.617 73.2793 129.694C73.3582 129.753 73.3991 129.89 73.3991 130.105C73.396 130.155 73.3862 130.204 73.3699 130.251V130.4L73.3377 130.604C73.025 130.604 72.7298 130.604 72.4609 130.575C72.1919 130.546 71.9143 130.575 71.6395 130.546C71.1689 130.508 70.6778 130.487 70.178 130.487C69.6782 130.487 69.2777 130.458 68.9445 130.458C68.6113 130.458 68.1787 130.458 67.7081 130.487C67.2375 130.517 66.8136 130.508 66.3839 130.546C66.1296 130.566 65.8724 130.575 65.6181 130.575C65.3638 130.575 65.1388 130.604 64.8815 130.604L64.8523 130.4C64.8357 130.352 64.8259 130.302 64.8231 130.251V130.105C64.8036 129.962 64.8357 129.816 64.9137 129.694C64.9843 129.619 65.076 129.567 65.1767 129.545C65.5889 129.467 65.9338 129.4 66.2056 129.338C66.4288 129.281 66.646 129.203 66.8546 129.105C66.996 129.023 67.1091 128.9 67.179 128.752C67.2431 128.583 67.2729 128.402 67.2667 128.222L67.255 122.43ZM89.2622 127.994C89.2622 128.408 89.5253 128.682 90.0573 128.819C90.9188 128.986 91.7964 129.054 92.6734 129.023H93.7929C94.2194 129.032 94.6452 128.983 95.0585 128.878C95.4203 128.767 95.7521 128.575 96.029 128.318C96.3253 128.036 96.5741 127.708 96.7655 127.347C97.0274 126.878 97.2531 126.391 97.4408 125.888C97.4992 125.734 97.6483 125.655 97.8821 125.655C98.0047 125.661 98.1249 125.691 98.2358 125.743L98.648 125.921C98.4901 126.549 98.343 127.235 98.2066 127.979C98.0702 128.724 97.962 129.441 97.8821 130.129C97.8617 130.365 97.7944 130.511 97.6775 130.569C97.5796 130.628 97.4674 130.659 97.3531 130.66C97.1952 130.66 96.9702 130.66 96.6749 130.627L95.763 130.569C95.4297 130.569 95.0878 130.569 94.7341 130.54C94.3804 130.511 94.1056 130.511 93.8572 130.511H87.1752C86.6052 130.511 85.9505 130.511 85.2051 130.54C84.4597 130.569 83.8225 130.619 83.2321 130.66C83.1913 130.568 83.1713 130.468 83.1736 130.368V130.076C83.1736 129.785 83.273 129.624 83.4659 129.604C84.0116 129.525 84.545 129.377 85.0531 129.163C85.2196 129.095 85.3597 128.975 85.4528 128.821C85.546 128.667 85.5872 128.488 85.5705 128.309V113.561C85.5758 113.403 85.5551 113.244 85.5091 113.092C85.4699 112.953 85.3881 112.829 85.2753 112.739C85.1098 112.619 84.9188 112.538 84.717 112.503C84.3991 112.406 84.0734 112.337 83.7436 112.296C83.5478 112.237 83.4513 112.071 83.4513 111.797V111.532C83.4501 111.421 83.4699 111.311 83.5098 111.208C84.1382 111.246 84.8047 111.287 85.5091 111.325C86.2135 111.363 86.8449 111.354 87.3944 111.354H88.3356C88.6864 111.336 89.0518 111.325 89.423 111.325L90.5717 111.266C90.9634 111.246 91.3171 111.228 91.6299 111.208C91.6508 111.315 91.6606 111.423 91.6591 111.532C91.6761 111.619 91.6859 111.708 91.6883 111.797C91.6883 112.071 91.5918 112.237 91.396 112.296C90.5513 112.415 89.9813 112.57 89.689 112.768C89.5507 112.861 89.4396 112.989 89.3672 113.138C89.2948 113.288 89.2636 113.454 89.2768 113.62L89.2622 127.994ZM119.787 123.226C119.796 124.267 119.678 125.305 119.433 126.317C119.215 127.207 118.793 128.033 118.2 128.732C117.566 129.441 116.761 129.977 115.861 130.289C114.69 130.697 113.454 130.887 112.214 130.849C110.46 130.849 109.048 130.655 107.978 130.266C107.034 129.95 106.184 129.404 105.505 128.676C104.936 127.986 104.543 127.169 104.359 126.294C104.16 125.325 104.062 124.338 104.067 123.348V113.561C104.085 113.398 104.06 113.233 103.992 113.083C103.925 112.934 103.819 112.805 103.684 112.71C103.429 112.533 102.91 112.395 102.126 112.296C101.91 112.259 101.802 112.072 101.802 111.736V111.503C101.803 111.403 101.823 111.304 101.86 111.211C102.445 111.249 103.03 111.29 103.655 111.328C104.281 111.365 105.067 111.357 105.95 111.357C106.637 111.357 107.354 111.347 108.098 111.328C108.843 111.29 109.51 111.249 110.1 111.211C110.119 111.307 110.128 111.405 110.129 111.503C110.146 111.579 110.155 111.657 110.159 111.736C110.159 112.07 110.051 112.257 109.834 112.296C109.264 112.331 108.705 112.471 108.186 112.71C108.047 112.803 107.936 112.93 107.864 113.08C107.791 113.23 107.76 113.396 107.774 113.561V122.686C107.774 124.728 108.147 126.283 108.893 127.352C109.639 128.422 110.944 128.952 112.807 128.942C114.689 128.942 116.022 128.456 116.806 127.484C117.589 126.512 117.992 124.883 118.016 122.599V113.558C118.029 113.393 117.998 113.227 117.925 113.077C117.853 112.927 117.742 112.8 117.604 112.707C117.116 112.468 116.587 112.328 116.046 112.293C115.809 112.234 115.692 112.048 115.692 111.733V111.5C115.712 111.4 115.73 111.301 115.75 111.208C116.335 111.266 116.841 111.304 117.311 111.325C117.782 111.345 118.32 111.354 118.869 111.354C119.498 111.354 120.056 111.354 120.547 111.325C121.038 111.295 121.517 111.266 121.988 111.208C122.008 111.304 122.018 111.402 122.017 111.5C122.035 111.576 122.045 111.654 122.047 111.733C122.047 112.048 121.93 112.234 121.696 112.293C120.967 112.371 120.466 112.509 120.193 112.707C120.055 112.8 119.944 112.927 119.872 113.077C119.799 113.227 119.768 113.393 119.781 113.558L119.787 123.226ZM143.913 128.367C144.112 128.687 144.398 128.942 144.738 129.105C145.262 129.285 145.805 129.404 146.357 129.458C146.457 129.48 146.549 129.53 146.62 129.604C146.675 129.657 146.717 129.722 146.743 129.794C146.769 129.865 146.778 129.942 146.769 130.018C146.769 130.076 146.769 130.172 146.74 130.31C146.743 130.418 146.732 130.527 146.708 130.633L145.591 130.572L144.384 130.514C143.992 130.514 143.609 130.514 143.238 130.485H142.297C141.67 130.485 140.934 130.494 140.09 130.514C139.266 130.534 138.48 130.572 137.734 130.633C137.695 130.55 137.675 130.46 137.676 130.368V130.146C137.663 130.004 137.694 129.86 137.763 129.735C137.835 129.66 137.928 129.608 138.029 129.586C138.431 129.525 138.823 129.416 139.199 129.263C139.306 129.229 139.4 129.163 139.469 129.073C139.537 128.984 139.577 128.876 139.582 128.764C139.56 128.535 139.467 128.319 139.316 128.146L135.589 122.272L131.909 127.63C131.77 127.817 131.643 128.011 131.526 128.213C131.453 128.37 131.414 128.541 131.409 128.714C131.413 128.827 131.448 128.935 131.51 129.029C131.573 129.122 131.66 129.196 131.763 129.242C132.133 129.401 132.524 129.508 132.923 129.563C133.023 129.586 133.115 129.637 133.186 129.712C133.265 129.77 133.303 129.907 133.303 130.123V130.359C133.305 130.451 133.285 130.542 133.245 130.625C132.736 130.584 132.166 130.546 131.537 130.505C130.909 130.464 130.392 130.476 129.921 130.476C129.45 130.476 128.939 130.476 128.392 130.505C127.846 130.534 127.293 130.563 126.744 130.625C126.704 130.542 126.684 130.451 126.685 130.359V130.094C126.685 129.761 126.811 129.575 127.065 129.534C127.537 129.455 127.994 129.306 128.422 129.093C128.763 128.938 129.057 128.695 129.272 128.388L134.51 120.805L129.597 113.299C129.41 113.013 129.144 112.787 128.831 112.649C128.342 112.459 127.826 112.35 127.302 112.325C127.027 112.307 126.89 112.109 126.89 111.742V111.508C126.891 111.408 126.911 111.309 126.948 111.217C127.241 111.237 127.577 111.255 127.948 111.275L129.097 111.333C129.488 111.333 129.851 111.333 130.187 111.363H132.011C132.403 111.345 132.815 111.333 133.245 111.333L134.569 111.275L135.738 111.217C135.758 111.313 135.767 111.41 135.767 111.508C135.785 111.585 135.794 111.663 135.796 111.742C135.796 112.097 135.679 112.284 135.443 112.302C134.468 112.379 133.981 112.595 133.981 112.949C134.003 113.186 134.096 113.412 134.247 113.596L137.462 118.749L140.786 113.92C140.883 113.779 140.972 113.632 141.052 113.48C141.124 113.365 141.164 113.233 141.169 113.098C141.169 112.724 140.682 112.459 139.707 112.302C139.453 112.284 139.324 112.097 139.324 111.742V111.508C139.345 111.409 139.362 111.31 139.383 111.217C139.967 111.275 140.566 111.314 141.178 111.333C141.806 111.354 142.347 111.363 142.768 111.363C143.335 111.363 143.875 111.363 144.384 111.333C144.893 111.304 145.375 111.275 145.825 111.217C145.846 111.323 145.856 111.432 145.854 111.54C145.873 111.617 145.883 111.695 145.886 111.774C145.895 111.921 145.853 112.068 145.767 112.188C145.697 112.263 145.605 112.314 145.504 112.334C145.026 112.37 144.558 112.489 144.121 112.687C143.766 112.847 143.462 113.102 143.244 113.424L138.477 120.132L143.913 128.367ZM167.59 128.367C167.788 128.687 168.074 128.942 168.414 129.105C168.937 129.285 169.48 129.404 170.03 129.458C170.132 129.479 170.224 129.53 170.296 129.604C170.351 129.657 170.392 129.722 170.418 129.794C170.443 129.866 170.451 129.942 170.443 130.018C170.439 130.116 170.429 130.213 170.413 130.31C170.417 130.418 170.407 130.527 170.384 130.633L169.268 130.572L168.06 130.514C167.669 130.514 167.286 130.514 166.912 130.485H165.97C165.345 130.485 164.609 130.494 163.764 130.514C162.939 130.534 162.156 130.572 161.425 130.633C161.386 130.55 161.366 130.46 161.367 130.368V130.146C161.354 130.004 161.385 129.86 161.454 129.735C161.526 129.66 161.619 129.608 161.72 129.586C162.122 129.526 162.514 129.417 162.89 129.263C162.997 129.229 163.092 129.163 163.16 129.074C163.229 128.985 163.268 128.876 163.272 128.764C163.252 128.535 163.16 128.319 163.009 128.146L159.259 122.272L155.582 127.63C155.443 127.816 155.315 128.011 155.199 128.213C155.125 128.37 155.085 128.541 155.082 128.714C155.086 128.827 155.121 128.935 155.183 129.029C155.246 129.122 155.333 129.196 155.436 129.242C155.802 129.401 156.187 129.509 156.582 129.566C156.683 129.588 156.776 129.64 156.848 129.715C156.927 129.773 156.965 129.91 156.965 130.126V130.362C156.965 130.454 156.945 130.544 156.906 130.627C156.398 130.587 155.828 130.549 155.199 130.508C154.571 130.467 154.053 130.479 153.583 130.479C153.112 130.479 152.601 130.479 152.051 130.508C151.502 130.537 150.952 130.566 150.402 130.627C150.363 130.544 150.343 130.454 150.344 130.362V130.097C150.344 129.764 150.473 129.578 150.727 129.537C151.197 129.458 151.654 129.309 152.08 129.096C152.423 128.941 152.718 128.698 152.934 128.391L158.172 120.808L153.258 113.302C153.074 113.018 152.814 112.792 152.507 112.649C152.018 112.459 151.502 112.35 150.978 112.325C150.704 112.307 150.566 112.109 150.566 111.742V111.508C150.566 111.408 150.586 111.309 150.625 111.217C150.917 111.237 151.253 111.255 151.624 111.275L152.773 111.333C153.165 111.333 153.527 111.333 153.86 111.363H155.684C156.076 111.345 156.488 111.333 156.921 111.333L158.245 111.275L159.414 111.217C159.432 111.313 159.442 111.41 159.443 111.508C159.459 111.585 159.469 111.663 159.473 111.742C159.473 112.097 159.353 112.284 159.119 112.302C158.137 112.38 157.657 112.593 157.657 112.949C157.68 113.186 157.771 113.411 157.92 113.596L161.136 118.749L164.462 113.92C164.559 113.779 164.646 113.632 164.725 113.48C164.798 113.365 164.839 113.233 164.845 113.098C164.845 112.724 164.358 112.459 163.384 112.302C163.129 112.284 163.004 112.097 163.004 111.742V111.508C163.021 111.409 163.042 111.31 163.062 111.217C163.647 111.275 164.245 111.314 164.857 111.333C165.482 111.354 166.026 111.363 166.444 111.363C167.028 111.363 167.552 111.363 168.063 111.333C168.575 111.304 169.054 111.275 169.504 111.217C169.525 111.323 169.535 111.432 169.533 111.54C169.551 111.617 169.561 111.695 169.563 111.774C169.572 111.921 169.531 112.067 169.446 112.188C169.375 112.263 169.282 112.314 169.18 112.334C168.702 112.371 168.234 112.49 167.797 112.687C167.443 112.848 167.14 113.104 166.92 113.424L162.156 120.132L167.59 128.367Z" fill="#0A3647"/>
<path d="M3.21188 148.089C3.00698 148.091 2.80452 148.044 2.62145 147.952C2.43838 147.86 2.28001 147.726 2.1596 147.561C2.03226 147.352 1.96642 147.111 1.9696 146.867C1.7907 146.88 1.61164 146.843 1.4533 146.758C1.29495 146.674 1.16382 146.547 1.07517 146.391C1.00292 146.257 0.963412 146.108 0.959856 145.956C0.9563 145.804 0.9888 145.654 1.05471 145.516C1.14106 145.352 1.27428 145.216 1.43759 145.127C1.6009 145.038 1.78701 144.999 1.97253 145.015C1.92618 144.775 1.96222 144.526 2.07483 144.309C2.18795 144.106 2.35426 143.937 2.55604 143.82C2.75781 143.704 2.9875 143.644 3.22065 143.647C3.97478 143.647 4.29046 144.152 4.29046 144.846C4.29046 145.266 3.70586 145.639 3.36095 145.866C3.70879 146.094 4.29046 146.467 4.29046 146.887C4.28169 147.581 3.96893 148.089 3.21188 148.089ZM9.09586 145.4C7.30114 145.376 10.4609 145.4 6.25179 145.4C6.08383 145.407 5.91571 145.391 5.75196 145.353C5.64629 145.302 5.55641 145.223 5.49181 145.126C5.35335 144.654 5.16421 144.198 4.92767 143.767C4.73969 143.483 4.48574 143.249 4.18748 143.084C3.88923 142.92 3.55551 142.83 3.2148 142.822C2.88233 142.831 2.55729 142.922 2.26864 143.087C1.97999 143.252 1.73668 143.485 1.56038 143.767C1.43005 143.948 1.32026 144.144 1.23301 144.35C0.963627 144.435 0.716885 144.58 0.51103 144.773C0.349868 144.922 0.22128 145.102 0.133338 145.303C0.045396 145.503 0 145.72 0 145.939C0 146.158 0.045396 146.375 0.133338 146.576C0.22128 146.777 0.349868 146.957 0.51103 147.106C0.735711 147.323 1.01251 147.478 1.31485 147.558C1.38422 147.697 1.46538 147.829 1.55746 147.954C1.73399 148.236 1.97728 148.469 2.26583 148.635C2.55438 148.8 2.8793 148.892 3.21188 148.902C3.55305 148.893 3.88698 148.802 4.18556 148.637C4.48415 148.472 4.73866 148.238 4.92767 147.954C5.20478 147.543 5.39292 147.078 5.48012 146.59C5.5409 146.48 5.63656 146.394 5.75196 146.345C5.91042 146.305 6.07504 146.295 6.23717 146.315H9.08417C9.14592 146.257 9.19528 146.186 9.22935 146.108C9.26342 146.03 9.28154 145.945 9.28262 145.86C9.28371 145.775 9.26776 145.69 9.23569 145.611C9.20362 145.532 9.15609 145.46 9.09586 145.4Z" fill="#0A3647"/>
<path d="M16.9999 145.537C17.0767 145.467 17.1471 145.389 17.2104 145.307C17.3472 145.15 17.4967 145.004 17.6576 144.872C17.8571 144.712 18.0738 144.574 18.3036 144.461C18.5478 144.333 18.8199 144.267 19.0957 144.268C19.2942 144.267 19.4916 144.298 19.6803 144.359C19.8587 144.416 20.0203 144.516 20.1509 144.651C20.3007 144.798 20.4155 144.978 20.4871 145.175C20.5757 145.43 20.6173 145.699 20.6098 145.969V149.089C20.6128 149.155 20.636 149.218 20.6763 149.27C20.7165 149.322 20.7719 149.361 20.8349 149.381C20.999 149.446 21.1695 149.494 21.3435 149.524C21.4078 149.524 21.4429 149.591 21.4429 149.675C21.4408 149.744 21.432 149.812 21.4166 149.879L20.7852 149.83C20.5865 149.83 20.3643 149.83 20.1159 149.83C19.8674 149.83 19.6803 149.83 19.4582 149.83L18.8122 149.879C18.7989 149.812 18.7911 149.744 18.7888 149.675C18.7845 149.641 18.7936 149.606 18.8142 149.577C18.8349 149.549 18.8655 149.53 18.8999 149.524C18.9757 149.515 19.0503 149.497 19.122 149.471C19.1996 149.448 19.275 149.418 19.3471 149.381C19.4064 149.351 19.4606 149.313 19.5079 149.267C19.5313 149.244 19.5498 149.216 19.5624 149.185C19.5749 149.155 19.5812 149.122 19.5809 149.089V146.581C19.5816 146.386 19.5699 146.191 19.5459 145.998C19.5256 145.837 19.475 145.682 19.3968 145.54C19.3347 145.409 19.2323 145.3 19.1045 145.231C18.966 145.149 18.8064 145.109 18.6456 145.117C18.4377 145.118 18.2316 145.156 18.0376 145.231C17.8393 145.3 17.6577 145.41 17.5042 145.553C17.3507 145.696 17.2288 145.869 17.1461 146.062C17.0522 146.284 17.0055 146.524 17.0087 146.765V149.098C17.0102 149.162 17.0311 149.224 17.0687 149.276C17.1062 149.328 17.1587 149.368 17.2192 149.389C17.3714 149.454 17.5302 149.502 17.6927 149.532C17.7271 149.539 17.7577 149.558 17.7784 149.586C17.799 149.614 17.8081 149.649 17.8038 149.684C17.8017 149.753 17.7929 149.821 17.7775 149.888L17.1461 149.839C16.9386 149.839 16.7193 149.839 16.4884 149.839C16.2575 149.839 16.0207 149.839 15.8074 149.839L15.1731 149.888C15.1598 149.821 15.152 149.753 15.1497 149.684C15.1497 149.599 15.1818 149.547 15.2491 149.532C15.4231 149.502 15.5935 149.454 15.7577 149.389C15.8199 149.369 15.8744 149.33 15.9141 149.278C15.9537 149.226 15.9766 149.163 15.9798 149.098V142.198C16.0035 142.003 15.95 141.806 15.8307 141.65C15.6586 141.53 15.4556 141.464 15.2461 141.457C15.2237 141.456 15.2017 141.451 15.1814 141.442C15.1611 141.432 15.1428 141.419 15.1278 141.402C15.1128 141.386 15.1013 141.366 15.094 141.345C15.0867 141.324 15.0838 141.302 15.0854 141.279C15.0856 141.218 15.0934 141.158 15.1088 141.098C15.2169 141.098 15.366 141.098 15.556 141.098L16.0763 141.046C16.2483 141.026 16.4184 140.992 16.5849 140.944C16.6892 140.91 16.7971 140.889 16.9064 140.88C16.9337 140.876 16.9615 140.878 16.9874 140.888C17.0134 140.897 17.0368 140.912 17.0555 140.932C17.0831 140.974 17.0965 141.023 17.0935 141.072C17.0921 141.243 17.0794 141.413 17.0555 141.583C17.0293 141.803 17.0166 142.025 17.0175 142.247L16.9999 145.537ZM25.9209 147.121C25.9189 146.74 25.9904 146.363 26.1314 146.009C26.268 145.674 26.4663 145.366 26.716 145.103C26.9657 144.846 27.2637 144.641 27.5929 144.499C27.9356 144.345 28.3074 144.267 28.6831 144.268C29.0665 144.264 29.4466 144.338 29.7997 144.487C30.13 144.618 30.4288 144.817 30.6766 145.07C30.9367 145.327 31.1363 145.638 31.2612 145.98C31.4046 146.346 31.4761 146.736 31.4717 147.129C31.4749 147.881 31.1869 148.605 30.6679 149.15C30.4175 149.409 30.1198 149.616 29.791 149.763C29.4509 149.911 29.0833 149.985 28.7124 149.981C28.3314 149.986 27.9532 149.917 27.5987 149.777C27.2715 149.641 26.9738 149.443 26.7218 149.194C26.469 148.938 26.2702 148.633 26.1372 148.299C25.9933 147.923 25.9199 147.523 25.9209 147.121ZM27.0901 146.701C27.0922 147.027 27.1255 147.352 27.1895 147.672C27.2483 147.985 27.3465 148.29 27.4818 148.579C27.6137 148.833 27.7944 149.059 28.0138 149.244C28.2376 149.417 28.5142 149.507 28.7971 149.5C29.0071 149.51 29.2163 149.469 29.4065 149.379C29.5966 149.29 29.7617 149.155 29.8874 148.987C30.1644 148.606 30.3045 148.142 30.2849 147.672C30.2824 147.341 30.2492 147.011 30.1856 146.686C30.1359 146.358 30.0374 146.04 29.8933 145.741C29.7719 145.465 29.5901 145.22 29.3613 145.024C29.1381 144.83 28.8504 144.726 28.5545 144.732C28.3525 144.726 28.1516 144.765 27.9669 144.847C27.7821 144.928 27.6183 145.051 27.4876 145.205C27.2187 145.518 27.0843 146.016 27.0843 146.701H27.0901ZM41.3076 145.56C41.3883 145.486 41.4626 145.405 41.5297 145.318C41.8357 144.965 42.2069 144.674 42.6229 144.461C42.8677 144.335 43.1394 144.269 43.415 144.268C43.6158 144.248 43.8185 144.279 44.0035 144.36C44.1884 144.441 44.3492 144.568 44.4702 144.729C44.6965 145.107 44.8044 145.544 44.7801 145.983V149.092C44.7824 149.158 44.805 149.221 44.8448 149.273C44.8846 149.325 44.9396 149.364 45.0022 149.384C45.1626 149.448 45.3291 149.496 45.4991 149.527C45.5335 149.533 45.5642 149.552 45.5848 149.58C45.6054 149.609 45.6145 149.644 45.6102 149.678C45.6082 149.747 45.5993 149.815 45.5839 149.882L44.9408 149.833C44.7333 149.833 44.5112 149.833 44.2715 149.833C44.0318 149.833 43.8389 149.833 43.6138 149.833L42.9707 149.882C42.9553 149.815 42.9465 149.747 42.9444 149.678C42.9401 149.644 42.9492 149.609 42.9698 149.58C42.9905 149.552 43.0211 149.533 43.0555 149.527C43.1322 149.517 43.2077 149.5 43.2806 149.474C43.3571 149.45 43.4314 149.42 43.5027 149.384C43.5624 149.355 43.6167 149.317 43.6635 149.27C43.7114 149.223 43.7387 149.159 43.7395 149.092V146.467C43.772 146.103 43.7075 145.737 43.5524 145.406C43.4856 145.308 43.3943 145.23 43.2875 145.179C43.1808 145.128 43.0625 145.105 42.9444 145.114C42.7326 145.114 42.5226 145.152 42.3248 145.228C42.1342 145.297 41.9607 145.407 41.8162 145.549C41.6622 145.692 41.5398 145.866 41.4566 146.059C41.3628 146.281 41.316 146.521 41.3192 146.762V149.095C41.321 149.159 41.3423 149.222 41.3804 149.274C41.4185 149.326 41.4716 149.365 41.5326 149.387C41.6839 149.451 41.8417 149.499 42.0032 149.529C42.0376 149.536 42.0683 149.555 42.0889 149.583C42.1095 149.611 42.1186 149.646 42.1143 149.681C42.1123 149.75 42.1034 149.818 42.088 149.885L41.4566 149.836C41.2579 149.836 41.0474 149.836 40.8253 149.836C40.6031 149.836 40.378 149.836 40.1559 149.836L39.5099 149.885C39.4952 149.818 39.4874 149.75 39.4865 149.681C39.4815 149.646 39.4903 149.611 39.511 149.583C39.5318 149.554 39.5629 149.535 39.5976 149.529C39.7506 149.502 39.9004 149.459 40.0448 149.401C40.1086 149.381 40.165 149.343 40.2067 149.291C40.2484 149.239 40.2734 149.176 40.2787 149.109V146.485C40.3127 146.121 40.2481 145.754 40.0916 145.423C40.0294 145.327 39.9423 145.249 39.8394 145.197C39.7365 145.146 39.6217 145.123 39.507 145.132C39.2952 145.131 39.085 145.17 38.8873 145.245C38.6924 145.318 38.5142 145.428 38.3635 145.571C38.2128 145.714 38.0927 145.886 38.0104 146.077C37.9166 146.299 37.8698 146.538 37.873 146.779V149.112C37.8745 149.177 37.8954 149.239 37.933 149.291C37.9706 149.343 38.023 149.382 38.0835 149.404C38.2358 149.466 38.3933 149.513 38.5541 149.547C38.5888 149.553 38.6199 149.572 38.6407 149.6C38.6614 149.628 38.6702 149.664 38.6652 149.699C38.6643 149.767 38.6565 149.836 38.6418 149.903L38.0104 149.853C37.8029 149.853 37.5837 149.853 37.3527 149.853C37.1218 149.853 36.8851 149.853 36.6688 149.853L36.0374 149.903C36.0241 149.835 36.0163 149.767 36.014 149.699C36.009 149.664 36.0177 149.628 36.0385 149.6C36.0593 149.572 36.0904 149.553 36.1251 149.547C36.2951 149.516 36.4615 149.468 36.622 149.404C36.6838 149.383 36.7379 149.344 36.7774 149.292C36.817 149.24 36.8402 149.177 36.8441 149.112V145.601C36.8611 145.407 36.8127 145.213 36.7068 145.05C36.5551 144.911 36.3543 144.837 36.1485 144.846C36.1261 144.845 36.104 144.84 36.0837 144.831C36.0634 144.821 36.0452 144.808 36.0302 144.791C36.0152 144.774 36.0037 144.755 35.9964 144.734C35.9891 144.713 35.9861 144.69 35.9877 144.668C35.9898 144.611 35.9986 144.554 36.014 144.499C36.1192 144.499 36.2683 144.499 36.4583 144.499L36.9435 144.449C37.1335 144.414 37.3031 144.379 37.4521 144.347C37.5561 144.312 37.6641 144.289 37.7737 144.28C37.8906 144.28 37.9461 144.347 37.9461 144.473C37.9441 144.618 37.9324 144.763 37.911 144.907C37.8818 145.124 37.8691 145.342 37.873 145.56L38.0835 145.318C38.2203 145.161 38.3698 145.016 38.5307 144.884C38.7292 144.723 38.9449 144.586 39.1738 144.473C39.419 144.345 39.692 144.278 39.9688 144.28C40.1434 144.266 40.319 144.289 40.4835 144.349C40.648 144.409 40.7975 144.504 40.9217 144.627C41.1505 144.886 41.2844 145.215 41.3017 145.56H41.3076ZM54.5633 148.631C54.5858 148.604 54.6139 148.582 54.6456 148.566C54.6774 148.551 54.7121 148.542 54.7475 148.541C54.8323 148.541 54.9082 148.614 54.9842 148.76C54.8716 148.917 54.7476 149.066 54.613 149.206C54.4611 149.359 54.2902 149.492 54.1044 149.602C53.8975 149.719 53.6765 149.809 53.4468 149.871C53.167 149.942 52.8791 149.976 52.5903 149.973C52.2691 149.974 51.9503 149.918 51.6491 149.806C51.3505 149.695 51.0793 149.521 50.8541 149.296C50.62 149.047 50.4356 148.756 50.3104 148.439C50.1693 148.054 50.1019 147.647 50.1116 147.237C50.1046 146.841 50.1787 146.447 50.3295 146.08C50.4803 145.713 50.7045 145.38 50.9885 145.103C51.2296 144.848 51.5148 144.64 51.8303 144.487C52.1128 144.349 52.422 144.275 52.7365 144.268C53.5042 144.268 54.0625 144.499 54.4113 144.96C54.7853 145.484 54.9726 146.119 54.9433 146.762C54.9447 146.772 54.9437 146.783 54.9404 146.793C54.9371 146.803 54.9316 146.812 54.9243 146.819C54.917 146.827 54.9081 146.833 54.8982 146.837C54.8884 146.84 54.8778 146.842 54.8673 146.841L51.272 147.007C51.2693 147.318 51.3157 147.628 51.4094 147.925C51.4908 148.191 51.6217 148.438 51.7953 148.655C51.9532 148.857 52.1525 149.023 52.3799 149.142C52.6333 149.255 52.9087 149.312 53.1866 149.308C53.4511 149.308 53.7114 149.242 53.9437 149.115C54.1776 148.995 54.386 148.83 54.5575 148.631H54.5633ZM52.5406 144.729C52.3505 144.723 52.1618 144.765 51.9929 144.853C51.8239 144.94 51.6804 145.069 51.576 145.228C51.3271 145.617 51.2055 146.073 51.2282 146.534L53.5666 146.418C53.6894 146.418 53.7507 146.362 53.7507 146.252C53.7496 146.079 53.7251 145.907 53.6777 145.741C53.6303 145.567 53.5542 145.403 53.4526 145.254C53.3553 145.103 53.2242 144.976 53.0697 144.884C52.9132 144.78 52.7286 144.726 52.5406 144.729ZM62.9056 145.843C62.8584 145.844 62.8118 145.832 62.7711 145.808C62.7493 145.777 62.7325 145.743 62.7214 145.706C62.7086 145.561 62.6657 145.419 62.5952 145.291C62.5248 145.163 62.4284 145.051 62.3122 144.963C62.0839 144.803 61.81 144.723 61.5318 144.732C61.2978 144.73 61.0701 144.807 60.8858 144.951C60.7955 145.018 60.7234 145.106 60.6759 145.208C60.6285 145.31 60.6072 145.422 60.6139 145.534C60.6119 145.64 60.6331 145.746 60.676 145.843C60.7189 145.94 60.7825 146.027 60.8624 146.097C61.1441 146.295 61.4588 146.442 61.7919 146.531C62.0161 146.604 62.2357 146.689 62.4496 146.788C62.6415 146.872 62.8174 146.989 62.9699 147.132C63.1215 147.266 63.2405 147.433 63.3177 147.619C63.4815 148.042 63.4815 148.511 63.3177 148.935C63.2421 149.14 63.1189 149.325 62.9582 149.474C62.783 149.638 62.5761 149.764 62.3502 149.844C62.0692 149.945 61.7718 149.993 61.4733 149.984C61.1725 149.98 60.8729 149.946 60.5789 149.882C60.2704 149.826 59.9738 149.717 59.702 149.562C59.6873 149.34 59.6698 149.109 59.6523 148.873C59.6347 148.637 59.6523 148.378 59.6523 148.13H59.778C59.8516 148.127 59.9244 148.146 59.9884 148.182C60.0162 148.194 60.0401 148.214 60.0576 148.238C60.0751 148.263 60.0856 148.292 60.0878 148.322C60.1048 148.653 60.2456 148.965 60.4824 149.197C60.7618 149.424 61.1164 149.539 61.4762 149.518C61.7556 149.537 62.0326 149.455 62.2567 149.287C62.3472 149.205 62.4184 149.104 62.4654 148.991C62.5124 148.878 62.5339 148.756 62.5285 148.634C62.5363 148.512 62.5136 148.39 62.4626 148.278C62.4117 148.167 62.3339 148.07 62.2362 147.995C61.9703 147.809 61.6735 147.671 61.3593 147.587C60.9378 147.469 60.5456 147.264 60.2076 146.986C60.0647 146.845 59.9541 146.675 59.8835 146.487C59.8128 146.3 59.7838 146.099 59.7984 145.899C59.797 145.684 59.8388 145.47 59.9212 145.272C60.0018 145.08 60.1201 144.907 60.269 144.761C60.4265 144.611 60.6122 144.493 60.8156 144.414C61.0449 144.326 61.289 144.283 61.5347 144.286C61.8501 144.285 62.1638 144.333 62.4642 144.429C62.7073 144.494 62.9404 144.592 63.1569 144.72C63.1569 144.79 63.1745 144.875 63.1832 144.977C63.192 145.079 63.1832 145.173 63.1832 145.283C63.1832 145.394 63.1832 145.493 63.1832 145.604C63.1832 145.715 63.1832 145.8 63.1832 145.896L62.9056 145.843ZM79.5666 149.474C79.6572 149.474 79.7069 149.564 79.7157 149.742C79.4745 149.904 79.1877 149.985 78.8973 149.973C78.7357 149.977 78.575 149.946 78.4267 149.882C78.3009 149.836 78.187 149.762 78.0934 149.666C78.0026 149.575 77.9311 149.466 77.883 149.346C77.8326 149.228 77.7991 149.103 77.7836 148.975C77.6232 149.31 77.3629 149.587 77.0382 149.769C76.7318 149.911 76.3968 149.98 76.059 149.973C75.8805 149.971 75.7024 149.954 75.5271 149.92C75.3435 149.896 75.1666 149.835 75.0068 149.742C74.8378 149.647 74.6959 149.511 74.5946 149.346C74.4794 149.139 74.4237 148.905 74.4338 148.669C74.4241 148.39 74.4973 148.114 74.6443 147.876C74.7894 147.659 74.9799 147.476 75.2026 147.339C75.4361 147.194 75.6863 147.077 75.948 146.992C76.2198 146.908 76.4799 146.835 76.7284 146.776L77.1142 146.701C77.237 146.666 77.3452 146.631 77.4358 146.599C77.5264 146.567 77.6228 146.517 77.6462 146.456C77.6832 146.341 77.6942 146.219 77.6784 146.1C77.6933 145.757 77.6156 145.417 77.4533 145.114C77.3723 144.98 77.2549 144.872 77.1147 144.802C76.9745 144.731 76.8173 144.702 76.6612 144.718C76.5392 144.715 76.4177 144.733 76.3016 144.77C76.2058 144.803 76.1202 144.86 76.0532 144.936C75.9778 145.022 75.9193 145.121 75.8807 145.228C75.831 145.347 75.7813 145.49 75.7317 145.651C75.7213 145.696 75.7002 145.738 75.6702 145.774C75.6402 145.809 75.6022 145.837 75.5592 145.855C75.4186 145.918 75.2729 145.97 75.1237 146.009C75.0622 146.029 74.9998 146.046 74.9366 146.059C74.8764 146.075 74.8146 146.084 74.7525 146.085C74.6706 146.085 74.6268 145.995 74.6268 145.817C74.6337 145.612 74.7076 145.414 74.8372 145.254C74.9871 145.06 75.1678 144.892 75.3721 144.755C75.5955 144.61 75.8373 144.494 76.0912 144.411C76.3245 144.322 76.5719 144.273 76.8219 144.268C77.0852 144.266 77.3479 144.292 77.6053 144.347C77.8207 144.396 78.0212 144.496 78.1899 144.639C78.3621 144.785 78.4906 144.976 78.5611 145.19C78.6616 145.477 78.7082 145.781 78.6985 146.085V148.284C78.6948 148.501 78.7035 148.718 78.7248 148.935C78.7416 149.042 78.7741 149.146 78.8213 149.244C78.8609 149.339 78.9255 149.423 79.0083 149.486C79.0775 149.52 79.1534 149.537 79.2305 149.538C79.294 149.543 79.3579 149.534 79.4176 149.512C79.4606 149.488 79.5087 149.475 79.5579 149.474H79.5666ZM77.6784 146.975L77.2808 147.039C77.0675 147.083 76.857 147.132 76.6495 147.193C76.4584 147.248 76.2777 147.334 76.1146 147.447C75.9594 147.55 75.8287 147.685 75.7317 147.844C75.6351 148.029 75.5877 148.236 75.5943 148.445C75.576 148.713 75.6606 148.979 75.831 149.188C75.9091 149.27 76.0035 149.335 76.1082 149.379C76.2129 149.423 76.3256 149.444 76.439 149.442C76.5975 149.441 76.754 149.406 76.8979 149.34C77.0487 149.272 77.1832 149.172 77.2925 149.048C77.4109 148.908 77.5039 148.748 77.5673 148.576C77.6415 148.39 77.6792 148.192 77.6784 147.993V146.975ZM89.4025 149.086C89.4055 149.152 89.4287 149.215 89.4689 149.267C89.5092 149.32 89.5646 149.358 89.6276 149.378C89.7869 149.442 89.9524 149.49 90.1216 149.521C90.1563 149.526 90.1874 149.546 90.2081 149.574C90.2289 149.602 90.2377 149.638 90.2326 149.672C90.2318 149.741 90.224 149.809 90.2092 149.876L89.5779 149.827C89.3703 149.827 89.1482 149.827 88.9085 149.827C88.6688 149.827 88.4613 149.827 88.2362 149.827L87.6166 149.891C87.6011 149.824 87.5923 149.756 87.5902 149.687C87.586 149.652 87.5955 149.617 87.6167 149.588C87.638 149.56 87.6693 149.541 87.7042 149.535C87.8657 149.504 88.0234 149.456 88.1748 149.392C88.2353 149.371 88.2878 149.331 88.3253 149.279C88.3629 149.227 88.3838 149.165 88.3853 149.101V146.593C88.3865 146.398 88.3738 146.203 88.3473 146.009C88.3301 145.848 88.2793 145.692 88.1982 145.552C88.1364 145.42 88.034 145.312 87.9059 145.243C87.7673 145.161 87.6078 145.121 87.447 145.129C87.2391 145.129 87.0329 145.168 86.839 145.243C86.6404 145.311 86.4583 145.421 86.3041 145.563C86.152 145.708 86.0307 145.881 85.9475 146.074C85.8519 146.295 85.805 146.535 85.8101 146.776V149.109C85.8116 149.174 85.8325 149.236 85.8701 149.288C85.9077 149.34 85.9601 149.379 86.0206 149.401C86.1729 149.463 86.3304 149.511 86.4912 149.544C86.5259 149.55 86.557 149.569 86.5778 149.597C86.5985 149.626 86.6073 149.661 86.6023 149.696C86.6014 149.764 86.5936 149.833 86.5789 149.9L85.9475 149.85C85.74 149.85 85.5208 149.85 85.2898 149.85C85.0589 149.85 84.8222 149.85 84.6059 149.85L83.9745 149.9C83.9598 149.833 83.9519 149.764 83.9511 149.696C83.946 149.661 83.9549 149.626 83.9756 149.597C83.9964 149.569 84.0275 149.55 84.0622 149.544C84.2313 149.513 84.3968 149.465 84.5562 149.401C84.6187 149.381 84.6737 149.342 84.7138 149.29C84.754 149.238 84.7775 149.175 84.7812 149.109V145.601C84.7982 145.407 84.7498 145.213 84.6439 145.05C84.4922 144.911 84.2914 144.837 84.0856 144.846C84.0632 144.845 84.0411 144.84 84.0208 144.831C84.0005 144.821 83.9823 144.808 83.9673 144.791C83.9522 144.774 83.9408 144.755 83.9335 144.734C83.9262 144.713 83.9232 144.69 83.9248 144.668C83.9269 144.611 83.9357 144.554 83.9511 144.499C84.0563 144.499 84.2054 144.499 84.3954 144.499L84.8806 144.449C85.0706 144.414 85.2402 144.379 85.3892 144.347C85.4932 144.312 85.6012 144.289 85.7108 144.28C85.8248 144.28 85.8832 144.347 85.8832 144.473C85.8812 144.618 85.8695 144.763 85.8481 144.907C85.8189 145.124 85.8062 145.342 85.8101 145.56C86.1077 145.204 86.4495 144.886 86.8273 144.615C87.1444 144.397 87.5206 144.28 87.9059 144.28C88.1169 144.265 88.3286 144.298 88.5244 144.378C88.7201 144.458 88.8947 144.582 89.0342 144.741C89.3082 145.1 89.4441 145.545 89.4171 145.995L89.4025 149.086ZM99.861 148.675C99.8603 148.765 99.8681 148.855 99.8844 148.943C99.9008 149.011 99.9351 149.074 99.9837 149.124C100.041 149.179 100.108 149.222 100.182 149.249C100.296 149.281 100.413 149.302 100.53 149.314C100.638 149.331 100.691 149.387 100.691 149.48C100.689 149.541 100.682 149.601 100.668 149.661C100.56 149.661 100.413 149.661 100.232 149.687C100.084 149.692 99.9352 149.704 99.7879 149.725C99.6037 149.757 99.443 149.792 99.3027 149.827C99.2085 149.861 99.1102 149.883 99.0104 149.891C98.8964 149.891 98.8379 149.827 98.8379 149.699V148.725C98.721 148.885 98.607 149.042 98.4901 149.197C98.3715 149.346 98.2339 149.48 98.0809 149.594C97.922 149.709 97.7466 149.799 97.5606 149.862C97.328 149.934 97.0852 149.969 96.8415 149.964C96.5627 149.965 96.2872 149.904 96.0348 149.786C95.773 149.661 95.5409 149.482 95.3537 149.261C95.1427 149 94.9785 148.704 94.8685 148.386C94.7484 148.009 94.6902 147.615 94.696 147.22C94.6886 146.788 94.7774 146.359 94.9562 145.966C95.1118 145.617 95.3308 145.301 95.6022 145.033C95.8383 144.786 96.1203 144.588 96.4323 144.449C96.6953 144.322 96.9821 144.252 97.2741 144.242C97.5554 144.238 97.8359 144.273 98.1072 144.347C98.3572 144.407 98.6016 144.488 98.8379 144.589V142.172C98.8559 141.982 98.8074 141.793 98.7005 141.635C98.5489 141.496 98.3481 141.422 98.1423 141.431C98.1198 141.43 98.0978 141.425 98.0775 141.416C98.0572 141.406 98.039 141.393 98.0239 141.376C98.0089 141.36 97.9974 141.34 97.9901 141.319C97.9828 141.298 97.9799 141.275 97.9815 141.253C97.9828 141.192 97.9917 141.131 98.0078 141.072C98.113 141.072 98.2621 141.072 98.4521 141.072C98.6421 141.072 98.8116 141.037 98.9373 141.02C99.1093 141 99.2794 140.965 99.4459 140.918C99.5503 140.884 99.6581 140.863 99.7674 140.854C99.8844 140.854 99.9399 140.918 99.9399 141.046C99.9384 141.213 99.9267 141.379 99.9048 141.545C99.8765 141.774 99.8638 142.005 99.8668 142.236L99.861 148.675ZM98.8321 145.441C98.6364 145.229 98.4062 145.051 98.151 144.916C97.8891 144.785 97.5993 144.719 97.3063 144.723C97.0854 144.716 96.8667 144.77 96.6744 144.878C96.482 144.987 96.3234 145.146 96.216 145.339C95.9585 145.822 95.8344 146.364 95.8565 146.911C95.8549 147.224 95.8882 147.537 95.9558 147.844C96.0212 148.113 96.1256 148.372 96.2657 148.611C96.3921 148.818 96.5603 148.997 96.7597 149.136C96.9552 149.263 97.1839 149.33 97.4173 149.328C97.5943 149.324 97.7665 149.271 97.9143 149.174C98.2644 148.955 98.5373 148.633 98.6947 148.252C98.7829 148.064 98.8297 147.859 98.8321 147.651V145.441ZM114.388 148.433C114.783 147.418 115.078 146.636 115.265 146.1C115.404 145.772 115.502 145.428 115.557 145.076C115.559 145.038 115.553 145 115.538 144.965C115.523 144.929 115.501 144.898 115.473 144.872C115.361 144.788 115.227 144.74 115.087 144.732C115.065 144.734 115.043 144.73 115.022 144.722C115.002 144.714 114.983 144.702 114.968 144.686C114.953 144.67 114.941 144.651 114.934 144.631C114.927 144.61 114.924 144.588 114.926 144.566C114.924 144.541 114.924 144.515 114.926 144.49C114.926 144.455 114.944 144.426 114.952 144.4C115.274 144.426 115.619 144.438 115.981 144.438H116.478C116.624 144.438 116.77 144.417 116.899 144.4C116.92 144.453 116.933 144.509 116.937 144.566C116.938 144.588 116.935 144.61 116.926 144.63C116.917 144.65 116.904 144.668 116.887 144.683C116.849 144.706 116.812 144.731 116.776 144.758C116.624 144.852 116.484 144.936 116.341 145.015C116.196 145.097 116.085 145.228 116.031 145.385L114.233 149.961C114.173 149.98 114.11 149.989 114.046 149.987C114.004 149.988 113.963 149.977 113.927 149.954C113.892 149.931 113.864 149.898 113.847 149.859L113.675 149.451L111.994 145.371C111.957 145.27 111.911 145.172 111.857 145.079C111.823 145.012 111.778 144.95 111.722 144.898C111.668 144.856 111.604 144.826 111.535 144.811C111.44 144.781 111.342 144.759 111.243 144.747C111.138 144.747 111.082 144.674 111.082 144.554C111.086 144.497 111.099 144.441 111.12 144.388C111.328 144.406 111.521 144.417 111.705 144.426H113.047C113.254 144.426 113.465 144.406 113.681 144.388C113.704 144.44 113.716 144.497 113.716 144.554C113.718 144.576 113.715 144.598 113.708 144.619C113.701 144.64 113.689 144.659 113.674 144.674C113.659 144.69 113.64 144.703 113.62 144.711C113.599 144.718 113.577 144.722 113.555 144.72C113.417 144.737 113.283 144.775 113.158 144.834C113.131 144.85 113.109 144.873 113.094 144.9C113.079 144.927 113.072 144.958 113.073 144.989C113.086 145.098 113.111 145.205 113.146 145.31C113.197 145.471 113.276 145.684 113.383 145.948L114.388 148.433ZM122.453 149.824H122.02L121.623 149.85L121.301 149.876H121.126C121.128 149.847 121.128 149.818 121.126 149.789C121.123 149.75 121.123 149.711 121.126 149.672C121.121 149.638 121.131 149.603 121.151 149.575C121.172 149.546 121.202 149.527 121.237 149.521C121.415 149.488 121.59 149.436 121.757 149.366C121.818 149.346 121.87 149.306 121.906 149.254C121.942 149.201 121.959 149.138 121.956 149.074V145.601C121.974 145.407 121.926 145.213 121.819 145.05C121.668 144.911 121.468 144.838 121.263 144.846C121.241 144.845 121.218 144.84 121.198 144.831C121.177 144.821 121.159 144.808 121.144 144.791C121.129 144.775 121.117 144.755 121.109 144.734C121.102 144.713 121.098 144.69 121.099 144.668C121.101 144.611 121.11 144.554 121.126 144.499C121.234 144.499 121.383 144.499 121.573 144.499L122.055 144.449C122.245 144.414 122.415 144.379 122.564 144.347C122.668 144.312 122.776 144.289 122.885 144.28C123.002 144.28 123.061 144.347 123.061 144.473C123.058 144.618 123.045 144.763 123.023 144.907C122.994 145.124 122.981 145.342 122.985 145.56V149.089C122.981 149.151 122.997 149.213 123.03 149.266C123.064 149.318 123.114 149.358 123.172 149.381C123.348 149.453 123.531 149.504 123.718 149.535C123.783 149.535 123.815 149.602 123.815 149.687C123.818 149.726 123.818 149.765 123.815 149.804C123.815 149.853 123.815 149.882 123.815 149.891H123.64L123.33 149.865L122.92 149.839L122.453 149.824ZM121.734 142.14C121.73 141.946 121.801 141.759 121.932 141.618C121.997 141.544 122.077 141.485 122.167 141.445C122.257 141.405 122.354 141.385 122.453 141.387C122.548 141.385 122.642 141.405 122.728 141.445C122.814 141.485 122.89 141.544 122.95 141.618C123.081 141.759 123.152 141.946 123.148 142.14C123.153 142.238 123.137 142.336 123.103 142.428C123.069 142.52 123.017 142.604 122.95 142.676C122.886 142.744 122.809 142.797 122.723 142.833C122.638 142.868 122.546 142.885 122.453 142.883C122.357 142.885 122.261 142.868 122.172 142.832C122.082 142.797 122.001 142.744 121.932 142.676C121.865 142.604 121.812 142.518 121.778 142.425C121.744 142.332 121.729 142.233 121.734 142.134V142.14ZM130.938 149.891L130.292 149.833C130.067 149.833 129.845 149.833 129.623 149.833C129.401 149.833 129.167 149.833 128.927 149.833L128.27 149.882C128.256 149.815 128.248 149.747 128.246 149.678C128.241 149.643 128.25 149.608 128.271 149.58C128.291 149.551 128.323 149.532 128.357 149.527C128.531 149.494 128.701 149.446 128.866 149.384C128.931 149.365 128.988 149.327 129.03 149.275C129.073 149.223 129.098 149.159 129.103 149.092V142.198C129.115 142.1 129.106 142.001 129.078 141.907C129.05 141.812 129.003 141.725 128.939 141.65C128.771 141.522 128.565 141.454 128.354 141.457C128.332 141.456 128.31 141.451 128.29 141.442C128.269 141.432 128.251 141.419 128.236 141.402C128.221 141.386 128.209 141.366 128.202 141.345C128.195 141.324 128.192 141.302 128.194 141.279C128.195 141.218 128.203 141.158 128.217 141.098C128.325 141.098 128.474 141.098 128.664 141.098L129.184 141.046C129.356 141.026 129.527 140.992 129.693 140.944C129.797 140.911 129.905 140.889 130.015 140.88C130.042 140.876 130.07 140.878 130.096 140.888C130.122 140.897 130.145 140.912 130.164 140.932C130.191 140.974 130.205 141.023 130.202 141.072C130.2 141.243 130.188 141.413 130.164 141.583C130.139 141.803 130.127 142.025 130.129 142.247V149.089C130.132 149.154 130.155 149.217 130.194 149.269C130.234 149.321 130.289 149.36 130.351 149.381C130.519 149.445 130.693 149.492 130.871 149.524C130.938 149.524 130.97 149.591 130.97 149.675C130.967 149.748 130.956 149.82 130.938 149.891ZM138.146 149.891L137.489 149.841C137.267 149.841 137.044 149.841 136.819 149.841C136.594 149.841 136.366 149.841 136.127 149.841L135.469 149.891C135.453 149.824 135.445 149.756 135.443 149.687C135.438 149.652 135.448 149.617 135.469 149.588C135.49 149.56 135.522 149.541 135.557 149.535C135.729 149.503 135.898 149.455 136.062 149.392C136.127 149.374 136.184 149.336 136.227 149.284C136.269 149.232 136.294 149.168 136.299 149.101V142.198C136.311 142.1 136.304 142.001 136.276 141.907C136.248 141.813 136.201 141.725 136.138 141.65C135.97 141.522 135.765 141.455 135.554 141.457C135.531 141.456 135.509 141.451 135.488 141.442C135.468 141.432 135.45 141.419 135.434 141.403C135.419 141.386 135.407 141.367 135.4 141.345C135.392 141.324 135.389 141.302 135.39 141.279C135.391 141.218 135.4 141.157 135.416 141.098C135.524 141.098 135.673 141.098 135.863 141.098L136.384 141.046C136.556 141.026 136.726 140.992 136.892 140.944C136.997 140.91 137.105 140.889 137.214 140.88C137.241 140.876 137.269 140.879 137.295 140.888C137.321 140.897 137.344 140.912 137.363 140.932C137.389 140.974 137.403 141.023 137.401 141.072C137.398 141.243 137.385 141.413 137.363 141.583C137.335 141.803 137.323 142.025 137.325 142.247V149.089C137.329 149.155 137.352 149.218 137.392 149.27C137.433 149.322 137.487 149.36 137.55 149.381C137.718 149.445 137.893 149.493 138.07 149.524C138.135 149.524 138.17 149.591 138.17 149.675C138.169 149.748 138.162 149.82 138.146 149.891ZM147.821 149.483C147.912 149.483 147.962 149.573 147.971 149.751C147.729 149.913 147.443 149.993 147.152 149.981C146.99 149.986 146.83 149.955 146.681 149.891C146.554 149.846 146.439 149.772 146.345 149.675C146.255 149.583 146.184 149.474 146.135 149.354C146.086 149.236 146.052 149.111 146.035 148.984C145.875 149.318 145.616 149.595 145.293 149.777C144.986 149.919 144.65 149.989 144.311 149.981C144.132 149.98 143.954 149.962 143.779 149.929C143.596 149.904 143.419 149.844 143.259 149.751C143.091 149.656 142.95 149.519 142.849 149.354C142.733 149.149 142.677 148.914 142.689 148.678C142.679 148.399 142.752 148.123 142.899 147.885C143.044 147.667 143.234 147.484 143.457 147.348C143.69 147.203 143.939 147.086 144.2 147.001C144.472 146.916 144.735 146.844 144.98 146.785L145.366 146.709C145.489 146.674 145.597 146.639 145.688 146.607C145.778 146.575 145.875 146.526 145.898 146.464C145.941 146.355 145.958 146.237 145.948 146.12C145.962 145.778 145.886 145.438 145.726 145.135C145.644 145.001 145.526 144.892 145.385 144.822C145.245 144.752 145.087 144.723 144.931 144.738C144.809 144.735 144.687 144.753 144.571 144.79C144.476 144.823 144.391 144.88 144.326 144.957C144.248 145.041 144.188 145.14 144.15 145.248C144.1 145.368 144.051 145.511 144.001 145.671C143.991 145.716 143.97 145.759 143.94 145.794C143.91 145.83 143.872 145.857 143.829 145.875C143.688 145.939 143.542 145.991 143.393 146.03C143.343 146.047 143.282 146.062 143.209 146.079C143.148 146.095 143.085 146.104 143.022 146.106C142.94 146.106 142.899 146.015 142.899 145.837C142.906 145.632 142.98 145.434 143.11 145.275C143.258 145.08 143.438 144.912 143.642 144.776C143.866 144.631 144.107 144.515 144.361 144.432C144.595 144.342 144.843 144.294 145.094 144.289C145.357 144.286 145.618 144.312 145.875 144.368C146.09 144.417 146.291 144.517 146.459 144.659C146.632 144.806 146.761 144.996 146.833 145.21C146.933 145.498 146.978 145.802 146.968 146.106V148.305C146.964 148.522 146.973 148.739 146.994 148.955C147.012 149.062 147.045 149.166 147.094 149.264C147.133 149.359 147.197 149.442 147.278 149.506C147.348 149.54 147.425 149.558 147.503 149.559C147.565 149.563 147.628 149.554 147.687 149.532C147.729 149.502 147.779 149.482 147.83 149.474L147.821 149.483ZM145.948 146.975L145.55 147.039C145.337 147.083 145.126 147.132 144.919 147.193C144.729 147.248 144.549 147.334 144.387 147.447C144.23 147.551 144.098 147.688 144.001 147.85C143.906 148.035 143.859 148.242 143.867 148.45C143.849 148.719 143.932 148.984 144.1 149.194C144.179 149.276 144.273 149.341 144.378 149.385C144.482 149.428 144.595 149.45 144.708 149.448C144.867 149.447 145.024 149.412 145.167 149.346C145.319 149.278 145.455 149.178 145.565 149.054C145.681 148.913 145.773 148.753 145.837 148.582C145.912 148.397 145.95 148.198 145.948 147.998V146.975ZM155.594 145.837C155.537 145.846 155.48 145.836 155.43 145.808C155.408 145.777 155.391 145.743 155.38 145.706C155.368 145.561 155.325 145.419 155.254 145.291C155.184 145.163 155.087 145.051 154.971 144.963C154.743 144.803 154.469 144.723 154.191 144.732C153.957 144.73 153.729 144.807 153.545 144.951C153.454 145.018 153.382 145.106 153.335 145.208C153.287 145.31 153.266 145.422 153.273 145.534C153.271 145.64 153.292 145.746 153.335 145.843C153.378 145.94 153.441 146.027 153.521 146.097C153.803 146.295 154.118 146.442 154.451 146.531C154.675 146.604 154.895 146.689 155.108 146.788C155.3 146.873 155.476 146.989 155.629 147.132C155.78 147.266 155.899 147.433 155.977 147.619C156.14 148.042 156.14 148.511 155.977 148.935C155.901 149.14 155.778 149.325 155.617 149.474C155.442 149.638 155.235 149.764 155.009 149.844C154.728 149.945 154.431 149.993 154.132 149.984C153.831 149.98 153.532 149.945 153.238 149.882C152.929 149.826 152.633 149.717 152.361 149.562C152.361 149.34 152.329 149.109 152.311 148.873C152.294 148.637 152.311 148.378 152.311 148.13H152.437C152.511 148.127 152.583 148.146 152.647 148.182C152.675 148.194 152.699 148.214 152.716 148.239C152.734 148.263 152.744 148.292 152.747 148.322C152.764 148.653 152.905 148.965 153.141 149.197C153.421 149.424 153.775 149.539 154.135 149.518C154.415 149.537 154.691 149.455 154.916 149.287C155.006 149.205 155.077 149.104 155.124 148.991C155.171 148.878 155.193 148.756 155.187 148.634C155.195 148.512 155.173 148.39 155.122 148.278C155.071 148.167 154.993 148.07 154.895 147.995C154.629 147.809 154.332 147.671 154.018 147.587C153.597 147.469 153.205 147.264 152.867 146.986C152.724 146.845 152.613 146.675 152.542 146.487C152.472 146.3 152.443 146.099 152.457 145.899C152.456 145.684 152.498 145.47 152.58 145.272C152.66 145.079 152.778 144.906 152.928 144.761C153.085 144.611 153.271 144.493 153.475 144.414C153.704 144.326 153.948 144.283 154.194 144.286C154.509 144.285 154.823 144.333 155.123 144.429C155.366 144.494 155.599 144.592 155.816 144.72C155.816 144.79 155.833 144.875 155.842 144.977C155.851 145.079 155.842 145.173 155.842 145.283C155.842 145.394 155.842 145.493 155.842 145.604C155.842 145.715 155.842 145.8 155.842 145.896L155.594 145.837Z" fill="#0A3647"/>
<path fill-rule="evenodd" clip-rule="evenodd" d="M163.228 145.359C164.807 145.359 165.739 145.377 167.335 145.359V145.607C167.243 145.678 167.146 145.742 167.043 145.796C166.898 145.882 166.76 145.98 166.631 146.088V146.45V146.861V147.17C166.631 147.298 166.674 147.31 166.727 147.31C167.074 147.077 167.479 146.946 167.896 146.931C168.311 146.963 168.711 147.093 169.065 147.31C169.065 147.31 169.165 147.342 169.165 147.17C169.165 146.998 169.165 146.861 169.165 146.861V146.45V146.088C169.033 145.987 168.892 145.898 168.744 145.823C168.618 145.759 168.496 145.689 168.379 145.613C168.379 144.77 168.379 146.144 168.379 145.365H169.434C169.536 145.369 169.635 145.333 169.711 145.265C169.787 145.197 169.833 145.102 169.84 145V144.855C169.84 144.747 169.798 144.644 169.724 144.566C169.651 144.488 169.55 144.441 169.443 144.435C166.914 144.475 165.736 144.435 163.22 144.435C163.158 144.495 163.11 144.568 163.078 144.648C163.045 144.727 163.029 144.813 163.029 144.899C163.03 144.985 163.048 145.07 163.082 145.149C163.116 145.228 163.166 145.299 163.228 145.359Z" fill="#0A3647"/>
</svg>
