<svg width="270" height="152" viewBox="0 0 270 152" fill="none" xmlns="http://www.w3.org/2000/svg">
<path fill-rule="evenodd" clip-rule="evenodd" d="M187.169 58.0993L187.054 58.5214C185.288 65.9278 182.485 71.7223 178.683 75.9819C174.92 80.1648 169.736 82.2754 163.054 82.2754H158.754V2.72461H171.656V0H133.179H80.5718V22.6411H82.7606L82.8758 22.2573C84.1814 17.4989 85.7173 13.8149 87.4453 11.2054C89.2885 8.48081 91.1317 6.56208 92.9749 5.33409C94.9333 4.1061 96.8533 3.41535 98.6965 3.1851C100.616 2.8781 102.344 2.72461 103.842 2.72461H107.951V82.2754H95.0485V85H133.525H189.397V58.0993H187.169ZM132.911 25.7111C132.911 25.7111 132.411 27.7833 131.759 28.8578C131.106 29.8939 130.069 30.8916 128.648 31.8894C127.227 32.8488 125.307 33.693 122.811 34.3837V35.4966C125.307 36.1874 127.227 37.0316 128.61 37.991C130.031 38.9887 131.067 39.9865 131.72 41.0226C132.373 42.0971 132.872 44.1693 132.872 44.1693H133.909V37.3386C135.944 38.1061 137.672 38.9887 139.055 39.9097C141.359 41.4831 143.048 43.0948 144.085 44.7449C144.968 46.2032 145.736 48.0452 145.736 49.5801V82.237H132.834H120.315V2.72461H126.536C127.074 2.72461 127.458 2.72461 128.187 2.72461C128.61 2.72461 128.648 2.72461 128.955 2.72461C137.595 2.72461 146.197 9.51693 146.197 17.921C146.197 25.4424 141.666 29.9707 135.752 32.1196C135.637 32.158 134.485 32.6185 133.986 32.8104V25.7111H132.911Z" fill="#0A3647"/>
<path d="M11.3678 111.815V127.42C11.3678 127.611 11.3678 127.771 11.3995 127.93C11.4313 128.057 11.5265 128.153 11.6218 128.248C11.7488 128.344 11.9076 128.439 12.1298 128.503C12.3521 128.567 12.6379 128.631 13.0507 128.694C13.3365 128.758 13.4952 128.917 13.4952 129.204C13.4952 129.268 13.4952 129.363 13.4635 129.459C13.4635 129.586 13.4635 129.682 13.4317 129.745C12.7967 129.713 12.1298 129.682 11.3995 129.618C10.7009 129.586 10.0659 129.586 9.4943 129.586C8.92273 129.586 8.28766 129.586 7.55733 129.618C6.85876 129.65 6.19193 129.682 5.58862 129.745C5.55686 129.682 5.52511 129.554 5.49335 129.459C5.49335 129.331 5.49335 129.236 5.49335 129.204C5.49335 129.076 5.52511 128.949 5.55686 128.885C5.62037 128.79 5.74738 128.726 5.96966 128.662C6.69999 128.567 7.14454 128.439 7.33506 128.28C7.52558 128.089 7.62084 127.803 7.62084 127.42V111.815H5.04881C4.509 111.815 4.03269 111.879 3.6199 112.006C3.23886 112.102 2.92132 112.261 2.60379 112.516C2.34976 112.707 2.09573 113.025 1.87346 113.408C1.65118 113.758 1.42891 114.204 1.20663 114.713C1.14313 114.904 0.984358 114.968 0.762084 114.968C0.63507 114.968 0.508056 114.936 0.349288 114.904C0.190521 114.841 0.063507 114.809 0 114.745C0.127014 114.268 0.254028 113.854 0.349288 113.503C0.444549 113.121 0.539809 112.771 0.571563 112.42C0.63507 111.975 0.698577 111.561 0.762084 111.21C0.793837 110.86 0.857344 110.605 0.920851 110.446C0.984358 110.255 1.14313 110.191 1.39715 110.191C1.61943 110.191 2.03222 110.223 2.66729 110.287C3.30236 110.35 4.0962 110.382 5.01705 110.382H14.1303C15.0194 110.382 15.7815 110.35 16.4166 110.287C17.0516 110.223 17.4962 110.191 17.7502 110.191C17.9725 110.191 18.1312 110.287 18.2265 110.446C18.29 110.605 18.3218 110.86 18.3535 111.21C18.3853 111.561 18.4488 111.975 18.5758 112.42C18.6393 112.771 18.7028 113.153 18.7981 113.503C18.8933 113.854 19.0203 114.268 19.1791 114.745C19.0839 114.777 18.9568 114.841 18.7981 114.904C18.6711 114.936 18.544 114.968 18.417 114.968C18.1948 114.968 18.036 114.873 17.9407 114.713C17.7185 114.204 17.4644 113.758 17.2422 113.408C17.0199 113.025 16.7658 112.739 16.4801 112.516C16.1943 112.293 15.8767 112.102 15.464 112.006C15.0829 111.879 14.6384 111.815 14.0986 111.815H11.3678ZM31.4995 121.019H30.2293V127.229C30.2293 127.675 30.4199 128.025 30.8009 128.217C31.1819 128.408 31.8488 128.535 32.7696 128.662C33.0554 128.694 33.1824 128.885 33.1824 129.268C33.1824 129.427 33.1507 129.618 33.1189 129.809C32.5473 129.777 31.817 129.745 30.9597 129.682C30.1023 129.65 29.1815 129.65 28.1654 129.65C27.4668 129.65 26.7682 129.65 26.1014 129.682C25.4663 129.713 24.8312 129.745 24.2597 129.809C24.2279 129.745 24.1962 129.65 24.1962 129.554C24.1962 129.459 24.1962 129.363 24.1962 129.331C24.1962 128.981 24.2914 128.822 24.5137 128.758C24.9265 128.694 25.2758 128.599 25.5298 128.535C25.7838 128.471 25.9744 128.376 26.1331 128.312C26.2601 128.217 26.3554 128.089 26.3872 127.994C26.4507 127.866 26.4824 127.675 26.4824 127.484V112.611C26.4824 112.229 26.3237 111.943 26.0379 111.752C25.7521 111.561 25.2123 111.433 24.4184 111.338C24.3232 111.306 24.2279 111.242 24.1962 111.146C24.1327 111.083 24.1009 110.924 24.1009 110.732C24.1009 110.669 24.1009 110.573 24.1009 110.478C24.1009 110.382 24.1327 110.287 24.1644 110.255C24.7042 110.287 25.3393 110.318 26.0696 110.382C26.8 110.414 27.435 110.414 28.0066 110.414H32.4838C33.5317 110.414 34.4525 110.541 35.2781 110.796C36.1037 111.051 36.8023 111.433 37.3739 111.879C37.9772 112.357 38.4217 112.93 38.7075 113.567C39.025 114.204 39.1838 114.936 39.1838 115.732C39.1838 116.783 38.8663 117.739 38.1995 118.599C37.5644 119.459 36.707 120.096 35.5639 120.541L40.1999 127.325C40.5492 127.834 40.962 128.185 41.4066 128.408C41.8829 128.599 42.3274 128.758 42.7085 128.854C42.8037 128.885 42.899 128.917 42.9307 129.013C42.9942 129.076 43.026 129.204 43.026 129.363C43.026 129.427 43.026 129.522 43.026 129.618C43.026 129.713 42.9942 129.809 42.9625 129.904C42.7402 129.873 42.4544 129.873 42.0416 129.841C41.6606 129.841 41.2478 129.841 40.8032 129.809C40.3904 129.777 39.9777 129.777 39.5331 129.745C39.1203 129.745 38.771 129.745 38.4852 129.745C38.0724 129.745 37.6596 129.586 37.2469 129.236C36.8341 128.885 36.4213 128.408 36.0402 127.834L31.4995 121.019ZM31.1184 119.522C31.7217 119.522 32.2933 119.459 32.7696 119.331C33.2777 119.204 33.6905 119.013 34.0398 118.726C34.389 118.439 34.6748 118.057 34.8336 117.58C35.0241 117.102 35.1194 116.497 35.1194 115.764C35.1194 114.554 34.8336 113.567 34.2303 112.866C33.627 112.166 32.5791 111.783 31.0867 111.783H30.1976V119.49H31.1184V119.522ZM59.252 123.089H53.0283L51.5042 127.197C51.4407 127.293 51.4089 127.42 51.3772 127.516C51.3454 127.643 51.3454 127.739 51.3454 127.771C51.3454 127.994 51.4407 128.153 51.6312 128.312C51.8535 128.439 52.2663 128.567 52.9013 128.662C53.1871 128.694 53.3141 128.885 53.3141 129.236C53.3141 129.363 53.2824 129.554 53.2506 129.745C52.7108 129.713 52.171 129.682 51.5677 129.618C50.9644 129.586 50.3928 129.586 49.8212 129.586C49.4402 129.586 49.0274 129.586 48.5829 129.618C48.1383 129.65 47.662 129.682 47.1222 129.745C47.0904 129.682 47.0587 129.586 47.0587 129.49C47.0587 129.395 47.0587 129.299 47.0587 129.268C47.0587 128.885 47.1857 128.694 47.4397 128.662C48.043 128.535 48.4876 128.408 48.7416 128.28C49.0274 128.153 49.2497 127.898 49.3767 127.58L56.4895 110.51C56.6482 110.159 56.8705 110 57.188 110C57.2833 110 57.3786 110 57.4738 110.032C57.5691 110.032 57.6961 110.032 57.7914 110.064L64.9041 127.675C65.0312 127.962 65.2534 128.185 65.571 128.344C65.9203 128.471 66.2695 128.567 66.6506 128.631C66.9364 128.694 67.0951 128.885 67.0951 129.236C67.0951 129.395 67.0634 129.586 67.0316 129.777C66.3966 129.745 65.7932 129.713 65.1582 129.65C64.5549 129.618 63.9833 129.618 63.4435 129.618C63.1577 129.618 62.8402 129.618 62.4274 129.618C62.0463 129.65 61.6335 129.65 61.2207 129.682C60.8079 129.713 60.3952 129.713 59.9824 129.713C59.6013 129.745 59.252 129.745 58.9662 129.777C58.9345 129.713 58.9027 129.618 58.9027 129.522C58.9027 129.427 58.9027 129.331 58.9027 129.299C58.9027 129.108 58.9345 128.981 58.998 128.917C59.0615 128.822 59.1568 128.758 59.2203 128.726C59.7283 128.631 60.1094 128.503 60.3316 128.408C60.5857 128.28 60.7127 128.057 60.7127 127.803C60.7127 127.675 60.6809 127.548 60.6174 127.357L59.252 123.089ZM58.7122 121.624L56.2037 114.936L53.6317 121.624H58.7122ZM87.6079 123.153V112.611C87.6079 112.166 87.4491 111.879 87.1634 111.688C86.8776 111.497 86.3378 111.369 85.6074 111.274C85.3534 111.21 85.2264 111.019 85.2264 110.701C85.2264 110.637 85.2264 110.573 85.2264 110.478C85.2264 110.382 85.2581 110.287 85.2899 110.191C85.798 110.255 86.2742 110.287 86.7506 110.318C87.2269 110.35 87.7667 110.35 88.4017 110.35C89.0368 110.35 89.5766 110.35 90.0212 110.318C90.4657 110.287 90.942 110.255 91.3866 110.191C91.4183 110.287 91.4183 110.382 91.4183 110.478C91.4501 110.573 91.4501 110.669 91.4501 110.701C91.4501 111.051 91.3231 111.21 91.1008 111.274C90.4657 111.369 90.0212 111.497 89.7671 111.688C89.5131 111.879 89.4179 112.166 89.4179 112.548V129.904C89.3543 129.936 89.1956 129.936 89.0051 129.936C88.8145 129.968 88.7193 129.968 88.6558 129.968C88.5287 129.968 88.37 129.936 88.2112 129.841C88.0524 129.777 87.8937 129.65 87.7032 129.427L76.0179 114.618V127.42C76.0179 127.611 76.0179 127.771 76.0496 127.93C76.0814 128.057 76.1766 128.153 76.2719 128.248C76.3989 128.312 76.5894 128.408 76.8435 128.471C77.0975 128.535 77.4468 128.599 77.8596 128.694C77.9548 128.726 78.0501 128.758 78.0819 128.854C78.1454 128.917 78.2089 129.045 78.2089 129.268C78.2089 129.395 78.1771 129.586 78.1454 129.777C77.6373 129.745 77.1928 129.713 76.7482 129.65C76.3037 129.618 75.8274 129.618 75.2558 129.618C74.6842 129.618 74.1444 129.618 73.6046 129.65C73.0965 129.682 72.6202 129.713 72.1757 129.777C72.1439 129.713 72.1122 129.618 72.1122 129.522C72.1122 129.427 72.1122 129.331 72.1122 129.299C72.1122 129.108 72.1439 128.949 72.2075 128.885C72.271 128.822 72.3662 128.758 72.4615 128.726C73.1601 128.599 73.6364 128.471 73.8904 128.28C74.1127 128.089 74.2397 127.834 74.2397 127.452V112.452C74.2397 112.134 74.1444 111.911 73.9221 111.752C73.7316 111.561 73.2553 111.433 72.525 111.338C72.3027 111.274 72.1757 111.083 72.1757 110.764C72.1757 110.732 72.1757 110.701 72.1757 110.637C72.1757 110.573 72.1757 110.51 72.2075 110.446L72.2392 110.223C72.525 110.255 72.779 110.255 73.033 110.287C73.2871 110.287 73.5411 110.287 73.7951 110.318C74.2397 110.35 74.6525 110.35 75.097 110.382C75.5416 110.382 75.9226 110.382 76.1766 110.382C76.7482 110.382 77.1292 110.414 77.288 110.478C77.4785 110.51 77.6373 110.605 77.7643 110.732L87.6079 123.153ZM109.486 115.159C109.296 115.223 109.137 115.255 108.914 115.255C108.629 115.255 108.438 115.191 108.311 115.096C108.184 114.968 108.121 114.873 108.089 114.745C107.644 113.631 107.041 112.803 106.311 112.325C105.612 111.815 104.66 111.592 103.453 111.592C102.5 111.592 101.706 111.815 101.04 112.293C100.405 112.739 100.055 113.439 100.055 114.395C100.055 115.127 100.309 115.732 100.786 116.178C101.294 116.624 101.929 117.006 102.691 117.325C103.453 117.675 104.278 117.994 105.136 118.312C106.025 118.631 106.851 119.013 107.581 119.49C108.343 119.968 108.978 120.573 109.486 121.306C109.994 122.038 110.248 122.962 110.248 124.108C110.248 124.873 110.121 125.605 109.867 126.306C109.613 127.006 109.2 127.643 108.66 128.217C108.121 128.758 107.422 129.172 106.565 129.522C105.707 129.841 104.691 130 103.516 130C102.215 130 101.04 129.873 100.024 129.586C99.0074 129.299 98.1501 128.981 97.4832 128.631C97.4197 127.771 97.3245 126.943 97.1975 126.147C97.0704 125.318 96.9434 124.522 96.7847 123.758C96.9752 123.694 97.1975 123.631 97.4515 123.631C97.6738 123.631 97.8643 123.694 97.9913 123.79C98.1183 123.854 98.2136 124.013 98.2771 124.236C98.5311 125 98.8169 125.637 99.1344 126.178C99.452 126.72 99.8012 127.166 100.214 127.516C100.627 127.866 101.103 128.089 101.643 128.248C102.183 128.408 102.818 128.471 103.548 128.471C104.151 128.471 104.691 128.408 105.104 128.248C105.549 128.057 105.898 127.834 106.184 127.58C106.469 127.293 106.66 126.975 106.819 126.592C106.946 126.21 107.041 125.828 107.041 125.446C107.041 124.586 106.787 123.949 106.311 123.471C105.834 122.962 105.231 122.58 104.501 122.261C103.802 121.911 103.008 121.624 102.151 121.338C101.325 121.051 100.532 120.669 99.8012 120.255C99.1027 119.809 98.4994 119.236 97.9913 118.535C97.515 117.834 97.2927 116.879 97.2927 115.701C97.2927 114.904 97.4197 114.172 97.7055 113.503C97.9913 112.803 98.4358 112.229 98.9756 111.72C99.5155 111.21 100.182 110.796 100.944 110.51C101.738 110.223 102.627 110.064 103.643 110.064C104.469 110.064 105.295 110.159 106.12 110.318C106.978 110.51 107.93 110.796 108.978 111.21C109.01 111.815 109.073 112.484 109.169 113.217C109.264 113.885 109.359 114.554 109.486 115.159ZM118.599 112.58C118.599 112.389 118.568 112.261 118.504 112.134C118.472 112.006 118.377 111.879 118.218 111.783C118.06 111.688 117.837 111.592 117.583 111.561C117.297 111.497 116.948 111.401 116.504 111.338C116.313 111.274 116.218 111.115 116.218 110.796C116.218 110.701 116.218 110.605 116.218 110.541C116.218 110.446 116.25 110.35 116.281 110.255C117.139 110.318 117.869 110.35 118.536 110.382C119.171 110.414 119.742 110.414 120.187 110.414H126.252C127.173 110.414 127.935 110.382 128.57 110.318C129.205 110.255 129.65 110.223 129.872 110.223C130.094 110.223 130.253 110.318 130.348 110.478C130.412 110.637 130.443 110.924 130.507 111.369C130.539 111.783 130.602 112.229 130.729 112.675C130.793 113.025 130.856 113.344 130.951 113.662C131.015 113.981 131.142 114.363 131.301 114.809C131.237 114.841 131.11 114.873 130.983 114.936C130.856 114.968 130.761 115 130.634 115C130.412 115 130.285 114.904 130.189 114.745C129.967 114.236 129.713 113.79 129.491 113.439C129.268 113.057 129.014 112.771 128.729 112.548C128.443 112.325 128.125 112.134 127.713 112.038C127.332 111.943 126.887 111.879 126.315 111.879H122.41V119.395H126.506C126.855 119.395 127.078 119.236 127.205 118.917C127.363 118.567 127.49 118.089 127.586 117.42C127.649 117.166 127.84 117.038 128.157 117.038C128.221 117.038 128.316 117.038 128.411 117.07C128.538 117.07 128.633 117.07 128.697 117.102C128.665 117.548 128.633 118.089 128.57 118.694C128.538 119.299 128.538 119.777 128.538 120.191C128.538 120.541 128.538 120.987 128.57 121.465C128.602 121.943 128.633 122.484 128.697 123.089C128.633 123.121 128.538 123.153 128.443 123.185C128.316 123.185 128.221 123.185 128.189 123.185C127.84 123.185 127.649 123.057 127.586 122.771C127.522 122.134 127.395 121.656 127.236 121.338C127.077 120.987 126.823 120.828 126.506 120.828H122.41V127.484C122.41 127.675 122.473 127.834 122.632 127.994C122.759 128.121 122.95 128.217 123.204 128.312C123.426 128.376 123.712 128.471 124.029 128.535C124.347 128.567 124.664 128.631 125.045 128.694C125.268 128.726 125.395 128.885 125.395 129.204C125.395 129.268 125.395 129.363 125.363 129.49C125.363 129.618 125.363 129.745 125.331 129.809C125.045 129.809 124.791 129.809 124.505 129.777C124.22 129.777 123.966 129.777 123.68 129.745C123.172 129.713 122.6 129.682 122.029 129.65C121.457 129.65 120.886 129.65 120.314 129.65C120.028 129.65 119.742 129.65 119.393 129.65C119.076 129.682 118.758 129.682 118.377 129.713C118.028 129.745 117.678 129.745 117.297 129.745C116.948 129.777 116.662 129.777 116.345 129.809C116.313 129.745 116.281 129.618 116.281 129.522C116.281 129.395 116.281 129.299 116.281 129.236C116.281 128.949 116.377 128.79 116.567 128.758C117.202 128.599 117.742 128.439 118.091 128.312C118.472 128.153 118.663 127.866 118.663 127.484V112.58H118.599ZM142.827 111.815V118.949H146.987C147.368 118.949 147.622 118.79 147.749 118.503C147.876 118.185 148.003 117.675 148.098 117.006C148.13 116.847 148.162 116.752 148.289 116.72C148.384 116.656 148.511 116.624 148.67 116.624C148.733 116.624 148.829 116.624 148.924 116.656C149.051 116.656 149.146 116.656 149.21 116.688C149.178 117.134 149.146 117.675 149.083 118.28C149.051 118.885 149.051 119.363 149.051 119.777C149.051 120.127 149.051 120.573 149.083 121.051C149.114 121.529 149.146 122.07 149.21 122.675C149.146 122.707 149.051 122.739 148.924 122.771C148.797 122.771 148.702 122.771 148.67 122.771C148.321 122.771 148.13 122.643 148.098 122.357C147.971 121.592 147.844 121.115 147.686 120.86C147.559 120.573 147.304 120.446 146.987 120.446H142.827V127.102C142.827 127.516 143.081 127.803 143.589 127.93C144.097 128.057 144.955 128.153 146.193 128.153H147.431C148.035 128.153 148.511 128.089 148.924 127.93C149.337 127.771 149.718 127.548 150.004 127.293C150.321 127.006 150.607 126.656 150.829 126.274C151.051 125.892 151.305 125.446 151.528 124.968C151.591 124.841 151.718 124.745 151.94 124.745C152.036 124.745 152.163 124.777 152.29 124.841C152.417 124.904 152.576 124.968 152.703 125.032C152.671 125.191 152.607 125.35 152.544 125.478C152.512 125.605 152.48 125.764 152.417 125.892C152.322 126.115 152.226 126.338 152.195 126.592C152.131 126.847 152.067 127.07 152.004 127.229C151.972 127.42 151.909 127.643 151.845 127.898C151.813 128.121 151.75 128.376 151.686 128.599C151.655 128.822 151.591 129.013 151.528 129.204C151.496 129.395 151.464 129.49 151.432 129.554C151.369 129.713 151.21 129.777 150.956 129.777C150.797 129.777 150.575 129.777 150.289 129.745C150.004 129.713 149.654 129.713 149.305 129.682C148.956 129.682 148.638 129.682 148.257 129.65C147.908 129.618 147.59 129.618 147.336 129.618H140.636C140.065 129.618 139.398 129.618 138.668 129.65C137.937 129.682 137.27 129.713 136.699 129.777C136.667 129.713 136.635 129.586 136.635 129.49C136.635 129.363 136.635 129.268 136.635 129.204C136.635 128.917 136.731 128.758 136.921 128.726C137.683 128.599 138.191 128.439 138.509 128.28C138.858 128.121 139.017 127.834 139.017 127.452V112.58C139.017 112.389 138.985 112.229 138.922 112.102C138.858 111.975 138.731 111.847 138.572 111.783C138.413 111.688 138.191 111.592 137.937 111.561C137.683 111.497 137.334 111.401 136.921 111.338C136.731 111.274 136.635 111.115 136.635 110.796C136.635 110.701 136.635 110.605 136.635 110.541C136.635 110.446 136.667 110.35 136.699 110.255C137.556 110.318 138.286 110.35 138.953 110.382C139.588 110.414 140.16 110.414 140.636 110.414H146.701C147.59 110.414 148.352 110.382 148.987 110.318C149.622 110.255 150.067 110.223 150.321 110.223C150.543 110.223 150.702 110.318 150.797 110.478C150.861 110.637 150.893 110.924 150.956 111.369C150.988 111.783 151.051 112.229 151.178 112.675C151.242 113.025 151.305 113.344 151.401 113.662C151.464 113.981 151.591 114.363 151.75 114.809C151.655 114.841 151.528 114.873 151.432 114.936C151.305 114.968 151.21 115 151.083 115C150.861 115 150.702 114.904 150.607 114.745C150.385 114.236 150.131 113.79 149.908 113.439C149.686 113.057 149.432 112.771 149.146 112.548C148.86 112.325 148.543 112.134 148.13 112.038C147.749 111.943 147.304 111.879 146.765 111.879H142.827V111.815ZM165.594 121.019H164.324V127.229C164.324 127.675 164.515 128.025 164.896 128.217C165.277 128.408 165.944 128.535 166.865 128.662C167.15 128.694 167.277 128.885 167.277 129.268C167.277 129.427 167.246 129.618 167.214 129.809C166.642 129.777 165.912 129.745 165.055 129.682C164.197 129.65 163.276 129.65 162.26 129.65C161.562 129.65 160.863 129.65 160.196 129.682C159.561 129.713 158.926 129.745 158.355 129.809C158.323 129.745 158.291 129.65 158.291 129.554C158.291 129.459 158.291 129.363 158.291 129.331C158.291 128.981 158.386 128.822 158.609 128.758C159.022 128.694 159.371 128.599 159.625 128.535C159.879 128.471 160.069 128.376 160.228 128.312C160.355 128.217 160.45 128.089 160.482 127.994C160.546 127.866 160.577 127.675 160.577 127.484V112.611C160.577 112.229 160.419 111.943 160.133 111.752C159.847 111.561 159.307 111.433 158.513 111.338C158.418 111.306 158.323 111.242 158.291 111.146C158.228 111.083 158.196 110.924 158.196 110.732C158.196 110.669 158.196 110.573 158.196 110.478C158.196 110.382 158.228 110.287 158.259 110.255C158.799 110.287 159.434 110.318 160.165 110.382C160.895 110.414 161.53 110.414 162.102 110.414H166.579C167.627 110.414 168.548 110.541 169.373 110.796C170.199 111.051 170.897 111.433 171.469 111.879C172.072 112.357 172.517 112.93 172.803 113.567C173.12 114.204 173.279 114.936 173.279 115.732C173.279 116.783 172.961 117.739 172.294 118.599C171.659 119.459 170.802 120.096 169.659 120.541L174.295 127.325C174.644 127.834 175.057 128.185 175.502 128.408C175.978 128.599 176.422 128.758 176.803 128.854C176.899 128.885 176.994 128.917 177.026 129.013C177.089 129.076 177.121 129.204 177.121 129.363C177.121 129.427 177.121 129.522 177.121 129.618C177.121 129.713 177.089 129.809 177.058 129.904C176.835 129.873 176.549 129.873 176.137 129.841C175.756 129.841 175.343 129.841 174.898 129.809C174.485 129.777 174.073 129.777 173.628 129.745C173.215 129.745 172.866 129.745 172.58 129.745C172.167 129.745 171.755 129.586 171.342 129.236C170.929 128.885 170.516 128.408 170.135 127.834L165.594 121.019ZM165.213 119.522C165.817 119.522 166.388 119.459 166.865 119.331C167.373 119.204 167.785 119.013 168.135 118.726C168.484 118.439 168.77 118.057 168.929 117.58C169.119 117.102 169.214 116.497 169.214 115.764C169.214 114.554 168.929 113.567 168.325 112.866C167.722 112.166 166.674 111.783 165.182 111.783H164.293V119.49H165.213V119.522ZM188.425 127.102C188.425 127.516 188.679 127.803 189.219 127.93C189.759 128.057 190.616 128.153 191.855 128.153H192.966C193.474 128.153 193.887 128.089 194.236 127.994C194.617 127.866 194.935 127.675 195.221 127.42C195.506 127.166 195.729 126.847 195.951 126.433C196.173 126.019 196.427 125.51 196.618 124.936C196.681 124.777 196.84 124.713 197.062 124.713C197.157 124.713 197.284 124.745 197.412 124.809C197.539 124.873 197.697 124.936 197.824 125C197.666 125.637 197.507 126.338 197.38 127.07C197.253 127.803 197.157 128.535 197.062 129.236C197.03 129.459 196.967 129.618 196.84 129.682C196.745 129.745 196.618 129.777 196.522 129.777C196.364 129.777 196.141 129.777 195.856 129.745C195.57 129.713 195.284 129.713 194.935 129.682C194.585 129.682 194.268 129.682 193.887 129.65C193.538 129.618 193.252 129.618 192.998 129.618H186.298C185.726 129.618 185.059 129.618 184.329 129.65C183.599 129.682 182.932 129.713 182.36 129.777C182.329 129.713 182.297 129.586 182.297 129.49C182.297 129.363 182.297 129.268 182.297 129.204C182.297 128.917 182.392 128.758 182.583 128.726C183.345 128.599 183.853 128.439 184.17 128.28C184.52 128.121 184.678 127.834 184.678 127.452V112.58C184.678 112.389 184.647 112.229 184.615 112.102C184.583 111.975 184.488 111.847 184.393 111.752C184.266 111.656 184.075 111.561 183.821 111.529C183.599 111.465 183.249 111.369 182.837 111.306C182.646 111.242 182.551 111.083 182.551 110.796C182.551 110.732 182.551 110.637 182.551 110.541C182.551 110.414 182.583 110.318 182.614 110.223C183.249 110.255 183.916 110.287 184.615 110.35C185.313 110.382 185.948 110.382 186.52 110.382C186.806 110.382 187.123 110.382 187.473 110.382C187.822 110.35 188.203 110.35 188.552 110.35C188.933 110.318 189.346 110.318 189.695 110.287C190.076 110.255 190.457 110.255 190.775 110.223C190.807 110.318 190.807 110.446 190.807 110.541C190.839 110.669 190.839 110.764 190.839 110.796C190.839 111.083 190.743 111.242 190.553 111.306C189.695 111.433 189.124 111.592 188.838 111.783C188.552 111.975 188.425 112.261 188.425 112.643V127.102ZM219.099 122.293C219.099 123.408 218.972 124.459 218.75 125.414C218.528 126.338 218.115 127.166 217.511 127.834C216.94 128.503 216.146 129.045 215.162 129.395C214.209 129.777 212.971 129.968 211.51 129.968C209.764 129.968 208.335 129.777 207.255 129.363C206.175 128.981 205.35 128.439 204.778 127.771C204.207 127.07 203.826 126.274 203.635 125.382C203.445 124.459 203.349 123.471 203.349 122.42V112.58C203.349 112.166 203.222 111.879 202.968 111.72C202.714 111.529 202.175 111.401 201.412 111.306C201.19 111.274 201.095 111.083 201.095 110.732C201.095 110.669 201.095 110.605 201.095 110.51C201.095 110.414 201.127 110.318 201.158 110.223C201.73 110.255 202.333 110.287 202.968 110.35C203.603 110.382 204.397 110.382 205.286 110.382C205.985 110.382 206.684 110.382 207.446 110.35C208.208 110.318 208.875 110.287 209.446 110.223C209.478 110.318 209.478 110.414 209.478 110.51C209.51 110.605 209.51 110.701 209.51 110.732C209.51 111.083 209.414 111.242 209.192 111.306C208.398 111.401 207.827 111.529 207.541 111.72C207.255 111.911 207.128 112.197 207.128 112.58V121.783C207.128 123.854 207.509 125.414 208.239 126.465C209.002 127.548 210.303 128.057 212.177 128.057C214.082 128.057 215.416 127.548 216.21 126.561C217.003 125.541 217.416 123.917 217.416 121.656V112.548C217.416 112.166 217.289 111.879 217.003 111.688C216.718 111.497 216.21 111.369 215.447 111.274C215.225 111.21 215.098 111.019 215.098 110.701C215.098 110.637 215.098 110.573 215.098 110.478C215.13 110.382 215.13 110.287 215.162 110.191C215.733 110.255 216.241 110.287 216.718 110.318C217.226 110.35 217.734 110.35 218.274 110.35C218.909 110.35 219.48 110.35 219.956 110.318C220.465 110.287 220.941 110.255 221.417 110.191C221.449 110.287 221.449 110.382 221.449 110.478C221.481 110.573 221.481 110.669 221.481 110.701C221.481 111.019 221.354 111.21 221.131 111.274C220.401 111.338 219.893 111.497 219.639 111.688C219.353 111.879 219.226 112.166 219.226 112.548V122.293H219.099ZM243.327 127.484C243.549 127.834 243.835 128.057 244.153 128.217C244.502 128.344 245.042 128.471 245.772 128.567C245.867 128.599 245.963 128.631 246.026 128.726C246.121 128.79 246.185 128.949 246.185 129.14C246.185 129.204 246.185 129.299 246.153 129.427C246.153 129.554 246.153 129.682 246.121 129.745C245.772 129.713 245.423 129.713 245.01 129.682C244.629 129.65 244.216 129.65 243.803 129.618C243.422 129.618 243.01 129.618 242.66 129.586C242.279 129.586 241.962 129.586 241.708 129.586C241.073 129.586 240.342 129.586 239.485 129.618C238.659 129.65 237.865 129.682 237.135 129.745C237.103 129.682 237.072 129.586 237.072 129.49C237.072 129.395 237.072 129.299 237.072 129.268C237.072 129.076 237.103 128.917 237.167 128.854C237.23 128.79 237.326 128.726 237.421 128.694C237.961 128.599 238.342 128.471 238.596 128.376C238.85 128.248 238.977 128.089 238.977 127.866C238.977 127.675 238.882 127.484 238.723 127.229L234.976 121.338L231.292 126.72C231.134 126.943 231.007 127.134 230.911 127.325C230.848 127.516 230.784 127.675 230.784 127.834C230.784 128.057 230.911 128.217 231.134 128.376C231.356 128.503 231.769 128.599 232.277 128.694C232.372 128.726 232.467 128.758 232.531 128.854C232.594 128.917 232.658 129.045 232.658 129.268C232.658 129.331 232.658 129.395 232.658 129.49C232.658 129.586 232.626 129.682 232.594 129.745C232.086 129.713 231.515 129.682 230.88 129.618C230.276 129.586 229.737 129.586 229.26 129.586C228.784 129.586 228.276 129.586 227.736 129.618C227.196 129.65 226.625 129.682 226.085 129.745C226.053 129.682 226.021 129.586 226.021 129.49C226.021 129.363 226.021 129.268 226.021 129.236C226.021 128.885 226.148 128.726 226.402 128.662C226.942 128.567 227.387 128.408 227.768 128.217C228.149 128.025 228.435 127.771 228.625 127.516L233.896 119.873L228.943 112.325C228.752 112.038 228.498 111.815 228.181 111.688C227.831 111.529 227.323 111.433 226.656 111.369C226.371 111.338 226.244 111.146 226.244 110.764C226.244 110.701 226.244 110.637 226.244 110.541C226.244 110.446 226.275 110.35 226.307 110.255C226.593 110.287 226.942 110.287 227.323 110.318C227.704 110.35 228.117 110.35 228.466 110.382C228.847 110.382 229.229 110.382 229.546 110.414C229.895 110.414 230.181 110.414 230.435 110.414C230.689 110.414 231.007 110.414 231.388 110.414C231.769 110.382 232.182 110.382 232.626 110.382C233.071 110.35 233.515 110.35 233.96 110.318C234.404 110.287 234.785 110.287 235.135 110.255C235.166 110.35 235.166 110.446 235.166 110.541C235.198 110.637 235.198 110.732 235.198 110.764C235.198 111.115 235.071 111.306 234.849 111.338C233.865 111.401 233.356 111.624 233.356 111.975C233.356 112.166 233.452 112.357 233.61 112.611L236.849 117.803L240.183 112.93C240.31 112.739 240.406 112.611 240.437 112.484C240.501 112.357 240.565 112.229 240.565 112.102C240.565 111.72 240.056 111.465 239.072 111.306C238.818 111.274 238.691 111.083 238.691 110.732C238.691 110.669 238.691 110.605 238.691 110.51C238.723 110.414 238.723 110.318 238.755 110.223C239.358 110.287 239.961 110.318 240.565 110.35C241.2 110.382 241.739 110.382 242.152 110.382C242.724 110.382 243.264 110.382 243.772 110.35C244.28 110.318 244.756 110.287 245.232 110.223C245.264 110.318 245.264 110.446 245.264 110.541C245.296 110.637 245.296 110.732 245.296 110.764C245.296 110.955 245.264 111.083 245.169 111.178C245.105 111.242 245.01 111.306 244.915 111.338C244.343 111.401 243.867 111.529 243.518 111.688C243.168 111.847 242.883 112.102 242.628 112.42L237.834 119.172L243.327 127.484ZM267.142 127.484C267.364 127.834 267.65 128.057 267.968 128.217C268.317 128.344 268.857 128.471 269.587 128.567C269.682 128.599 269.778 128.631 269.841 128.726C269.937 128.79 270 128.949 270 129.14C270 129.204 270 129.299 269.968 129.427C269.968 129.554 269.968 129.682 269.937 129.745C269.587 129.713 269.238 129.713 268.825 129.682C268.444 129.65 268.031 129.65 267.618 129.618C267.237 129.618 266.825 129.618 266.475 129.586C266.094 129.586 265.777 129.586 265.523 129.586C264.888 129.586 264.157 129.586 263.3 129.618C262.474 129.65 261.681 129.682 260.95 129.745C260.919 129.682 260.887 129.586 260.887 129.49C260.887 129.395 260.887 129.299 260.887 129.268C260.887 129.076 260.919 128.917 260.982 128.854C261.046 128.79 261.141 128.726 261.236 128.694C261.776 128.599 262.157 128.471 262.411 128.376C262.665 128.248 262.792 128.089 262.792 127.866C262.792 127.675 262.697 127.484 262.538 127.229L258.759 121.338L255.076 126.72C254.917 126.943 254.79 127.134 254.695 127.325C254.631 127.516 254.568 127.675 254.568 127.834C254.568 128.057 254.695 128.217 254.917 128.376C255.139 128.503 255.552 128.599 256.06 128.694C256.155 128.726 256.251 128.758 256.314 128.854C256.378 128.917 256.441 129.045 256.441 129.268C256.441 129.331 256.441 129.395 256.441 129.49C256.441 129.586 256.41 129.682 256.378 129.745C255.87 129.713 255.298 129.682 254.663 129.618C254.06 129.586 253.52 129.586 253.044 129.586C252.567 129.586 252.059 129.586 251.519 129.618C250.98 129.65 250.408 129.682 249.868 129.745C249.837 129.682 249.805 129.586 249.805 129.49C249.805 129.363 249.805 129.268 249.805 129.236C249.805 128.885 249.932 128.726 250.186 128.662C250.726 128.567 251.17 128.408 251.551 128.217C251.932 128.025 252.218 127.771 252.409 127.516L257.68 119.873L252.726 112.293C252.536 112.006 252.282 111.783 251.964 111.656C251.615 111.497 251.107 111.401 250.44 111.338C250.154 111.306 250.027 111.115 250.027 110.732C250.027 110.669 250.027 110.605 250.027 110.51C250.027 110.414 250.059 110.318 250.091 110.223C250.376 110.255 250.726 110.255 251.107 110.287C251.488 110.318 251.901 110.318 252.25 110.35C252.631 110.35 253.012 110.35 253.329 110.382C253.679 110.382 253.964 110.382 254.219 110.382C254.473 110.382 254.79 110.382 255.171 110.382C255.552 110.35 255.965 110.35 256.409 110.35C256.854 110.318 257.299 110.318 257.743 110.287C258.188 110.255 258.569 110.255 258.918 110.223C258.95 110.318 258.95 110.414 258.95 110.51C258.982 110.605 258.982 110.701 258.982 110.732C258.982 111.083 258.855 111.274 258.632 111.306C257.648 111.369 257.14 111.592 257.14 111.943C257.14 112.134 257.235 112.325 257.394 112.58L260.633 117.771L263.967 112.898C264.094 112.707 264.189 112.58 264.221 112.452C264.284 112.325 264.348 112.197 264.348 112.07C264.348 111.688 263.84 111.433 262.855 111.274C262.601 111.242 262.474 111.051 262.474 110.701C262.474 110.637 262.474 110.573 262.474 110.478C262.506 110.382 262.506 110.287 262.538 110.191C263.141 110.255 263.745 110.287 264.348 110.318C264.983 110.35 265.523 110.35 265.936 110.35C266.507 110.35 267.047 110.35 267.555 110.318C268.063 110.287 268.539 110.255 269.016 110.191C269.047 110.287 269.047 110.414 269.047 110.51C269.079 110.605 269.079 110.701 269.079 110.732C269.079 110.924 269.047 111.051 268.952 111.146C268.889 111.21 268.793 111.274 268.698 111.306C268.127 111.369 267.65 111.497 267.301 111.656C266.952 111.815 266.666 112.07 266.412 112.389L261.617 119.172L267.142 127.484Z" fill="#0A3647"/>
<path d="M21.8996 147.571C22.0845 147.786 22.3001 147.94 22.5466 148.063C22.7931 148.187 23.0396 148.248 23.3476 148.248C23.5633 148.248 23.779 148.187 23.933 148.094C24.1179 148.002 24.2411 147.848 24.3643 147.694C24.4876 147.509 24.58 147.294 24.6108 147.078C24.6724 146.832 24.7032 146.555 24.7032 146.278C24.7032 145.97 24.6724 145.693 24.6108 145.446C24.5492 145.169 24.4568 144.923 24.3335 144.738C24.2103 144.523 24.0563 144.369 23.8714 144.276C23.6865 144.153 23.5017 144.092 23.2552 144.092C23.1012 144.092 22.9471 144.153 22.7931 144.246C22.639 144.338 22.485 144.43 22.3618 144.584C22.2385 144.738 22.1461 144.892 22.0537 145.046C21.9612 145.231 21.9304 145.385 21.9304 145.57V147.571H21.8996ZM20.9445 144.646C20.9445 144.43 20.9137 144.276 20.8213 144.184C20.7597 144.092 20.5748 144.03 20.3284 143.999C20.2359 143.969 20.1743 143.938 20.1743 143.845C20.1743 143.784 20.1743 143.753 20.2051 143.691C20.2976 143.691 20.4516 143.691 20.6056 143.691C20.7905 143.661 20.9445 143.661 21.037 143.63C21.2218 143.599 21.3451 143.568 21.4991 143.537C21.6531 143.507 21.7456 143.476 21.8072 143.476C21.8996 143.476 21.9612 143.537 21.9612 143.661C21.9612 143.753 21.9612 143.876 21.9304 143.999C21.9304 144.122 21.9304 144.307 21.9304 144.554C22.1769 144.246 22.4234 143.999 22.7007 143.784C23.0087 143.568 23.3476 143.476 23.779 143.476C24.0563 143.476 24.3027 143.538 24.5492 143.63C24.7957 143.753 25.0113 143.907 25.1962 144.122C25.381 144.338 25.5351 144.584 25.6275 144.892C25.7508 145.2 25.8124 145.57 25.8124 145.939C25.8124 146.37 25.7199 146.77 25.5659 147.078C25.4118 147.417 25.1962 147.694 24.9497 147.94C24.7032 148.156 24.4568 148.341 24.1487 148.464C23.8714 148.587 23.5941 148.648 23.3785 148.648C23.132 148.648 22.8855 148.618 22.639 148.587C22.3926 148.525 22.1769 148.464 21.8996 148.341V150.434C21.8996 150.65 21.992 150.773 22.1769 150.834C22.3618 150.927 22.639 150.958 23.0396 151.019C23.132 151.05 23.1628 151.081 23.1628 151.173C23.1628 151.235 23.1628 151.296 23.132 151.358C22.9471 151.327 22.7007 151.327 22.3926 151.296C22.0845 151.296 21.7764 151.296 21.5299 151.296C21.3142 151.296 21.1294 151.296 20.8829 151.296C20.6673 151.327 20.4516 151.327 20.2359 151.358C20.2051 151.266 20.2051 151.204 20.2051 151.173C20.2051 151.081 20.2359 151.05 20.2976 151.019C20.4824 150.988 20.6056 150.927 20.7289 150.865C20.8521 150.804 20.8829 150.711 20.8829 150.588V144.646H20.9445ZM33.3298 143.476C33.5454 143.476 33.7303 143.538 33.8227 143.63C33.946 143.753 33.9768 143.845 33.9768 143.999C33.9768 144.061 33.9768 144.092 33.946 144.122C33.9151 144.153 33.8843 144.215 33.8227 144.246C33.7611 144.276 33.6995 144.338 33.5762 144.4C33.4838 144.461 33.3298 144.523 33.1449 144.615C33.0833 144.523 32.9909 144.461 32.8984 144.4C32.806 144.338 32.7136 144.307 32.5904 144.307C32.4671 144.307 32.3439 144.338 32.2206 144.43C32.0974 144.492 32.005 144.615 31.9434 144.738C31.8509 144.861 31.7893 145.015 31.7585 145.169C31.7277 145.323 31.6969 145.508 31.6969 145.693V147.694C31.6969 147.879 31.7893 148.002 31.9742 148.063C32.159 148.156 32.4055 148.217 32.7444 148.248C32.8368 148.279 32.8676 148.31 32.8676 148.402C32.8676 148.464 32.8676 148.525 32.8368 148.587C32.7444 148.587 32.652 148.556 32.4979 148.556C32.3747 148.556 32.2515 148.556 32.0974 148.556C31.9434 148.556 31.8201 148.525 31.6661 148.525C31.512 148.525 31.3888 148.525 31.2656 148.525C31.0499 148.525 30.8342 148.525 30.6186 148.525C30.4029 148.556 30.1872 148.556 29.9716 148.587C29.9408 148.495 29.9408 148.433 29.9408 148.402C29.9408 148.31 29.9716 148.279 30.0332 148.248C30.2181 148.217 30.3721 148.156 30.4953 148.094C30.6494 148.033 30.711 147.94 30.711 147.817V144.861C30.711 144.707 30.711 144.554 30.6802 144.461C30.6494 144.338 30.6186 144.276 30.5878 144.215C30.5261 144.153 30.4645 144.092 30.3721 144.061C30.2797 144.03 30.1872 143.999 30.0332 143.999C29.9408 143.969 29.8792 143.938 29.8792 143.845C29.8792 143.784 29.8792 143.753 29.91 143.691C30.0024 143.691 30.1564 143.691 30.3413 143.691C30.5261 143.661 30.6802 143.661 30.8034 143.63C30.9883 143.599 31.1115 143.568 31.2348 143.537C31.358 143.507 31.4504 143.476 31.512 143.476C31.6353 143.476 31.6661 143.537 31.6661 143.661V144.43C31.9126 144.153 32.159 143.938 32.4055 143.753C32.7136 143.568 32.9909 143.476 33.3298 143.476ZM37.489 146.062C37.489 145.693 37.5506 145.354 37.6738 145.046C37.8279 144.738 38.0127 144.461 38.2284 144.215C38.4749 143.969 38.7214 143.815 39.0294 143.661C39.3375 143.507 39.6764 143.445 40.0461 143.445C40.4158 143.445 40.7856 143.507 41.0936 143.63C41.4017 143.753 41.679 143.938 41.8947 144.153C42.1412 144.369 42.2952 144.646 42.4184 144.985C42.5417 145.292 42.6033 145.662 42.6033 146.031C42.6033 146.401 42.5417 146.74 42.3876 147.047C42.2644 147.355 42.0795 147.632 41.8331 147.848C41.5866 148.094 41.3093 148.279 41.0012 148.402C40.6931 148.525 40.3542 148.587 39.9845 148.587C39.6148 148.587 39.2451 148.525 38.937 148.402C38.6289 148.279 38.3516 148.094 38.1052 147.879C37.8895 147.663 37.7047 147.386 37.5814 147.078C37.5506 146.801 37.489 146.462 37.489 146.062ZM38.5981 145.693C38.5981 145.97 38.6289 146.278 38.6905 146.586C38.7522 146.893 38.8446 147.171 38.9678 147.417C39.0911 147.663 39.2759 147.848 39.4608 148.033C39.6764 148.187 39.8921 148.279 40.2002 148.279C40.6315 148.279 40.9704 148.125 41.2169 147.817C41.4634 147.509 41.5866 147.109 41.5866 146.616C41.5866 146.339 41.5558 146.031 41.4942 145.724C41.4325 145.416 41.3401 145.108 41.2169 144.861C41.0936 144.584 40.9396 144.369 40.7239 144.215C40.5083 144.03 40.2618 143.969 39.9537 143.969C39.5532 143.969 39.2143 144.122 38.937 144.4C38.7213 144.615 38.5981 145.046 38.5981 145.693ZM47.5944 144.092H46.8857V143.876C46.8857 143.784 46.9166 143.753 46.9782 143.722C47.0706 143.691 47.1322 143.691 47.2246 143.661C47.3171 143.63 47.3787 143.63 47.4711 143.568C47.5635 143.507 47.5944 143.414 47.5944 143.291V142.768C47.5944 142.337 47.656 141.967 47.7792 141.659C47.9024 141.351 48.0565 141.105 48.2413 140.92C48.4262 140.705 48.6419 140.582 48.8575 140.489C49.104 140.397 49.3197 140.335 49.5353 140.335C49.7818 140.335 50.0283 140.366 50.2131 140.428C50.4288 140.489 50.6136 140.551 50.7369 140.613C50.8909 140.705 50.9833 140.797 51.0758 140.89C51.1682 140.982 51.199 141.105 51.199 141.198C51.199 141.259 51.1682 141.29 51.1066 141.351C51.045 141.382 50.9833 141.413 50.8909 141.444C50.7985 141.475 50.7369 141.505 50.6444 141.505C50.552 141.505 50.5212 141.536 50.4904 141.536C50.3672 141.536 50.3055 141.475 50.2439 141.382C50.1515 141.198 50.0591 141.074 49.9358 140.92C49.8126 140.797 49.6277 140.736 49.4121 140.736C49.1348 140.736 48.9191 140.859 48.7959 141.074C48.6727 141.29 48.611 141.629 48.611 142.06V143.537H49.9975C49.9975 143.691 49.9975 143.815 49.9666 143.907C49.9358 143.999 49.8742 144.03 49.7818 144.03H48.6419V147.602C48.6419 147.817 48.7343 147.94 48.9191 148.033C49.104 148.094 49.3813 148.156 49.7818 148.187C49.8742 148.217 49.905 148.248 49.905 148.341C49.905 148.371 49.905 148.402 49.905 148.433C49.905 148.495 49.905 148.495 49.905 148.525C49.8742 148.525 49.8126 148.525 49.6894 148.525C49.5661 148.525 49.4429 148.495 49.2888 148.495C49.1348 148.495 48.9808 148.464 48.7959 148.464C48.6111 148.464 48.457 148.464 48.303 148.464C48.1797 148.464 48.0257 148.464 47.9024 148.464C47.7792 148.464 47.656 148.495 47.5327 148.495C47.4095 148.495 47.2863 148.525 47.1938 148.525C47.1014 148.525 47.0398 148.525 47.0398 148.525C47.0398 148.525 47.0398 148.495 47.0398 148.433C47.0398 148.371 47.0398 148.341 47.0398 148.341C47.0398 148.248 47.0706 148.217 47.1322 148.187C47.3171 148.156 47.4403 148.125 47.5635 148.063C47.6868 148.002 47.7176 147.91 47.7176 147.786V144.092H47.5944ZM58.0694 147.448C58.131 147.386 58.1927 147.355 58.2543 147.355C58.3467 147.355 58.4083 147.417 58.4699 147.54C58.3775 147.694 58.2543 147.817 58.131 147.94C58.0078 148.063 57.8538 148.187 57.6689 148.31C57.484 148.402 57.2992 148.495 57.0527 148.556C56.8062 148.618 56.5598 148.648 56.2517 148.648C55.9436 148.648 55.6355 148.587 55.3582 148.495C55.0809 148.402 54.8345 148.248 54.6188 148.033C54.4031 147.817 54.2491 147.571 54.0951 147.263C53.9718 146.955 53.9102 146.586 53.9102 146.155C53.9102 145.754 53.9718 145.385 54.1259 145.046C54.2799 144.707 54.4648 144.43 54.7112 144.184C54.9577 143.938 55.2042 143.753 55.5123 143.63C55.8204 143.507 56.0976 143.445 56.3749 143.445C57.0835 143.445 57.6073 143.661 57.9462 144.061C58.2851 144.492 58.4391 145.015 58.4391 145.693C58.4391 145.754 58.4083 145.754 58.3775 145.754L54.9885 145.908C54.9885 146.216 55.0193 146.493 55.1118 146.74C55.2042 146.986 55.3274 147.201 55.4815 147.417C55.6355 147.602 55.8204 147.756 56.036 147.848C56.2517 147.94 56.4982 148.002 56.8063 148.002C57.0527 148.002 57.2992 147.94 57.5149 147.817C57.6997 147.756 57.9154 147.602 58.0694 147.448ZM56.1593 143.876C55.7587 143.876 55.4815 144.03 55.2658 144.338C55.0501 144.646 54.9269 145.046 54.9269 145.539L57.1143 145.446C57.2376 145.446 57.2992 145.385 57.2992 145.292C57.2992 145.139 57.2684 144.985 57.2376 144.831C57.176 144.677 57.1143 144.523 57.0219 144.4C56.9295 144.246 56.8063 144.153 56.6522 144.061C56.529 143.938 56.3749 143.876 56.1593 143.876ZM65.8025 144.892C65.7409 144.892 65.6793 144.892 65.6484 144.861C65.6176 144.831 65.6176 144.8 65.5868 144.769C65.5252 144.461 65.402 144.215 65.2171 144.092C65.0323 143.938 64.7858 143.876 64.4777 143.876C64.262 143.876 64.0464 143.938 63.8615 144.061C63.6767 144.184 63.615 144.369 63.615 144.584C63.615 144.8 63.7075 144.954 63.8615 145.108C64.0156 145.231 64.3237 145.385 64.7242 145.508C64.9398 145.57 65.1555 145.662 65.3404 145.754C65.5252 145.847 65.7101 145.939 65.8333 146.062C65.9873 146.185 66.0798 146.339 66.1722 146.493C66.2646 146.678 66.2954 146.863 66.2954 147.109C66.2954 147.325 66.2646 147.509 66.1722 147.694C66.1106 147.879 65.9873 148.033 65.8333 148.187C65.6792 148.341 65.4944 148.433 65.2479 148.525C65.0323 148.618 64.755 148.648 64.4469 148.648C64.2004 148.648 63.9231 148.618 63.615 148.556C63.307 148.495 63.0297 148.402 62.7832 148.279C62.7832 148.063 62.7524 147.879 62.7216 147.663C62.7216 147.448 62.7216 147.201 62.7216 146.986H62.8448C62.9372 146.986 62.9989 147.017 63.0297 147.047C63.0913 147.078 63.1221 147.109 63.1221 147.171C63.1529 147.509 63.2761 147.756 63.4918 147.971C63.7075 148.156 64.0156 148.248 64.4161 148.248C64.7242 148.248 64.9706 148.187 65.1555 148.033C65.3403 147.879 65.402 147.694 65.402 147.448C65.402 147.201 65.3095 146.986 65.1247 146.863C64.9398 146.709 64.6626 146.586 64.2928 146.493C63.8307 146.339 63.461 146.185 63.2145 145.939C62.9681 145.724 62.8448 145.385 62.8448 144.954C62.8448 144.738 62.8756 144.554 62.9681 144.369C63.0605 144.184 63.1529 144.03 63.307 143.907C63.461 143.784 63.615 143.661 63.8307 143.599C64.0464 143.507 64.262 143.476 64.5085 143.476C64.8166 143.476 65.1247 143.507 65.3712 143.599C65.6484 143.691 65.8641 143.753 66.0181 143.845C66.0181 143.907 66.0182 143.999 66.049 144.092C66.049 144.184 66.049 144.276 66.049 144.369C66.049 144.461 66.049 144.554 66.049 144.646C66.049 144.738 66.049 144.831 66.049 144.892H65.8025ZM73.6588 144.892C73.5972 144.892 73.5356 144.892 73.5047 144.861C73.4739 144.831 73.4739 144.8 73.4431 144.769C73.3815 144.461 73.2583 144.215 73.0734 144.092C72.8886 143.938 72.6421 143.876 72.334 143.876C72.1183 143.876 71.9027 143.938 71.7178 144.061C71.533 144.184 71.4713 144.369 71.4713 144.584C71.4713 144.8 71.5638 144.954 71.7178 145.108C71.8719 145.231 72.18 145.385 72.5805 145.508C72.7961 145.57 73.0118 145.662 73.1967 145.754C73.3815 145.847 73.5664 145.939 73.6896 146.062C73.8436 146.185 73.9361 146.339 74.0285 146.493C74.1209 146.678 74.1517 146.863 74.1517 147.109C74.1517 147.325 74.1209 147.509 74.0285 147.694C73.9669 147.879 73.8436 148.033 73.6896 148.187C73.5356 148.341 73.3507 148.433 73.1042 148.525C72.8886 148.618 72.6113 148.648 72.3032 148.648C72.0567 148.648 71.7794 148.618 71.4713 148.556C71.1633 148.495 70.886 148.402 70.6395 148.279C70.6087 148.063 70.6087 147.879 70.5779 147.663C70.5779 147.448 70.5779 147.201 70.5779 146.986H70.7011C70.7935 146.986 70.8552 147.017 70.886 147.047C70.9476 147.078 70.9784 147.109 70.9784 147.171C71.0092 147.509 71.1324 147.756 71.3481 147.971C71.5638 148.156 71.8719 148.248 72.2724 148.248C72.5805 148.248 72.8269 148.187 73.0118 148.033C73.1967 147.879 73.2583 147.694 73.2583 147.448C73.2583 147.201 73.1658 146.986 72.981 146.863C72.7961 146.709 72.5189 146.586 72.1491 146.493C71.687 146.339 71.3173 146.185 71.0708 145.939C70.8244 145.724 70.7011 145.385 70.7011 144.954C70.7011 144.738 70.7319 144.554 70.8244 144.369C70.9168 144.184 71.0092 144.03 71.1633 143.907C71.3173 143.784 71.4713 143.661 71.687 143.599C71.9027 143.507 72.1183 143.476 72.3648 143.476C72.6729 143.476 72.981 143.507 73.2275 143.599C73.5047 143.691 73.7204 143.753 73.8745 143.845C73.8745 143.907 73.8745 143.999 73.9053 144.092C73.9053 144.184 73.9053 144.276 73.9053 144.369C73.9053 144.461 73.9053 144.554 73.9053 144.646C73.9053 144.738 73.9053 144.831 73.9053 144.892H73.6588ZM79.6357 148.525C79.5125 148.525 79.3585 148.525 79.2352 148.525C79.112 148.525 78.9887 148.556 78.8655 148.556C78.7423 148.556 78.6498 148.587 78.5574 148.587C78.465 148.587 78.4034 148.587 78.4034 148.587C78.4034 148.587 78.4034 148.556 78.4034 148.495C78.4034 148.433 78.4034 148.402 78.4034 148.402C78.4034 148.31 78.4342 148.279 78.4958 148.248C78.7115 148.217 78.8655 148.156 78.9888 148.094C79.112 148.033 79.1736 147.94 79.1736 147.817V144.646C79.1736 144.4 79.1428 144.246 79.0504 144.153C78.9579 144.061 78.8039 143.999 78.5266 143.969C78.4342 143.938 78.3726 143.907 78.3726 143.815C78.3726 143.784 78.3726 143.722 78.4034 143.661C78.4958 143.661 78.6499 143.661 78.8347 143.661C79.0196 143.63 79.1736 143.63 79.2968 143.599C79.4817 143.568 79.6357 143.537 79.759 143.507C79.913 143.476 80.0054 143.445 80.0671 143.445C80.1903 143.445 80.2211 143.507 80.2211 143.63C80.2211 143.753 80.2211 143.876 80.1903 144.03C80.1595 144.184 80.1595 144.369 80.1595 144.615V147.817C80.1595 147.94 80.2211 148.033 80.3443 148.094C80.4676 148.156 80.6524 148.187 80.8681 148.248C80.9297 148.279 80.9605 148.31 80.9605 148.402C80.9605 148.433 80.9605 148.464 80.9605 148.495C80.9605 148.556 80.9605 148.556 80.9605 148.587C80.9297 148.587 80.8681 148.587 80.8065 148.587C80.7141 148.587 80.6216 148.556 80.5292 148.556C80.406 148.556 80.2827 148.525 80.1595 148.525C79.913 148.525 79.759 148.525 79.6357 148.525ZM78.9579 141.536C78.9579 141.351 79.0196 141.198 79.1428 141.074C79.266 140.92 79.4509 140.859 79.6357 140.859C79.8206 140.859 79.9746 140.92 80.0979 141.074C80.2211 141.198 80.2827 141.351 80.2827 141.536C80.2827 141.752 80.2211 141.906 80.0979 142.029C79.9746 142.152 79.8206 142.214 79.6357 142.214C79.4509 142.214 79.266 142.152 79.1428 142.029C79.0196 141.906 78.9579 141.721 78.9579 141.536ZM84.9657 146.062C84.9657 145.693 85.0273 145.354 85.1506 145.046C85.3046 144.738 85.4895 144.461 85.7051 144.215C85.9516 143.969 86.1981 143.815 86.5062 143.661C86.8142 143.507 87.1531 143.445 87.5228 143.445C87.8926 143.445 88.2623 143.507 88.5704 143.63C88.8785 143.753 89.1557 143.938 89.3714 144.153C89.6179 144.369 89.7719 144.646 89.8951 144.985C90.0184 145.292 90.08 145.662 90.08 146.031C90.08 146.401 90.0184 146.74 89.8643 147.047C89.7411 147.355 89.5562 147.632 89.3098 147.848C89.0633 148.094 88.786 148.279 88.4779 148.402C88.1698 148.525 87.8309 148.587 87.4612 148.587C87.0915 148.587 86.7218 148.525 86.4137 148.402C86.1056 148.279 85.8284 148.094 85.5819 147.879C85.3662 147.663 85.1814 147.386 85.0581 147.078C85.0273 146.801 84.9657 146.462 84.9657 146.062ZM86.044 145.693C86.044 145.97 86.0748 146.278 86.1364 146.586C86.1981 146.893 86.2905 147.171 86.4137 147.417C86.537 147.663 86.7218 147.848 86.9067 148.033C87.1223 148.187 87.338 148.279 87.6461 148.279C88.0774 148.279 88.4163 148.125 88.6628 147.817C88.9093 147.509 89.0325 147.109 89.0325 146.616C89.0325 146.339 89.0017 146.031 88.9401 145.724C88.8784 145.416 88.786 145.108 88.6628 144.861C88.5395 144.584 88.3855 144.369 88.1698 144.215C87.9542 144.03 87.7077 143.969 87.3996 143.969C86.9991 143.969 86.6602 144.122 86.3829 144.4C86.1673 144.615 86.044 145.046 86.044 145.693ZM99.4459 147.848C99.4459 147.971 99.5076 148.063 99.6616 148.125C99.8157 148.187 99.9697 148.217 100.124 148.248C100.185 148.279 100.216 148.31 100.216 148.402C100.216 148.464 100.216 148.525 100.185 148.587C99.9697 148.556 99.7848 148.556 99.6 148.525C99.4151 148.525 99.1995 148.525 98.9838 148.525C98.7681 148.525 98.5525 148.525 98.3676 148.525C98.152 148.556 97.9671 148.556 97.7514 148.587C97.7514 148.495 97.7206 148.433 97.7206 148.402C97.7206 148.31 97.7515 148.279 97.8131 148.248C97.9671 148.217 98.1212 148.187 98.2444 148.125C98.3676 148.063 98.4292 147.971 98.4292 147.848V145.57C98.4292 145.385 98.4292 145.2 98.3984 145.046C98.3676 144.892 98.3368 144.738 98.2444 144.615C98.1828 144.492 98.0904 144.4 97.9671 144.338C97.8439 144.276 97.7206 144.246 97.5358 144.246C97.3509 144.246 97.1661 144.276 96.9504 144.338C96.7656 144.4 96.6115 144.492 96.4575 144.615C96.3034 144.738 96.211 144.892 96.1186 145.077C96.0261 145.262 95.9953 145.477 95.9953 145.724V147.848C95.9953 147.971 96.0569 148.063 96.1802 148.125C96.3342 148.187 96.4575 148.217 96.6115 148.248C96.6731 148.279 96.7039 148.31 96.7039 148.402C96.7039 148.464 96.7039 148.525 96.6731 148.587C96.4575 148.556 96.2726 148.556 96.0878 148.525C95.9029 148.525 95.6872 148.525 95.4716 148.525C95.2559 148.525 95.0403 148.525 94.8246 148.525C94.6089 148.556 94.4241 148.556 94.2392 148.587C94.2392 148.495 94.2084 148.433 94.2084 148.402C94.2084 148.31 94.2392 148.279 94.3008 148.248C94.4857 148.217 94.6397 148.187 94.763 148.125C94.917 148.063 94.9786 147.971 94.9786 147.848V144.677C94.9786 144.43 94.9478 144.276 94.8554 144.184C94.763 144.092 94.6089 144.03 94.3316 143.999C94.2392 143.969 94.1776 143.938 94.1776 143.845C94.1776 143.815 94.1776 143.753 94.2084 143.691C94.3008 143.691 94.4549 143.691 94.6397 143.691C94.8246 143.661 94.9786 143.661 95.1019 143.63C95.2867 143.599 95.4408 143.568 95.564 143.537C95.718 143.507 95.8105 143.476 95.8721 143.476C95.9953 143.476 96.0261 143.537 96.0261 143.661C96.0261 143.784 96.0261 143.907 95.9953 144.061C95.9645 144.215 95.9645 144.4 95.9645 144.646C96.3034 144.276 96.6115 143.999 96.9196 143.784C97.2277 143.568 97.5666 143.476 97.9363 143.476C98.3984 143.476 98.7681 143.63 98.9838 143.907C99.2303 144.184 99.3535 144.554 99.3535 145.046V147.848H99.4459ZM109.151 148.217C109.243 148.217 109.274 148.31 109.305 148.464C109.089 148.618 108.843 148.679 108.535 148.679C108.35 148.679 108.227 148.648 108.103 148.587C107.98 148.525 107.888 148.464 107.795 148.402C107.703 148.31 107.641 148.217 107.61 148.125C107.549 148.002 107.518 147.91 107.518 147.786C107.333 148.125 107.087 148.371 106.809 148.495C106.532 148.618 106.224 148.679 105.885 148.679C105.731 148.679 105.577 148.648 105.392 148.618C105.207 148.587 105.053 148.525 104.899 148.464C104.745 148.371 104.622 148.248 104.529 148.094C104.437 147.94 104.375 147.725 104.375 147.478C104.375 147.201 104.437 146.955 104.56 146.77C104.714 146.555 104.868 146.401 105.084 146.278C105.3 146.155 105.546 146.031 105.793 145.97C106.039 145.877 106.286 145.816 106.532 145.785C106.655 145.754 106.778 145.724 106.902 145.724C107.025 145.693 107.117 145.662 107.21 145.631C107.333 145.6 107.395 145.57 107.395 145.508C107.425 145.446 107.456 145.354 107.456 145.2C107.456 144.831 107.395 144.523 107.241 144.307C107.087 144.061 106.84 143.938 106.501 143.938C106.378 143.938 106.255 143.969 106.162 143.999C106.07 144.03 105.977 144.092 105.916 144.153C105.854 144.215 105.793 144.307 105.762 144.4C105.7 144.523 105.669 144.646 105.608 144.769C105.577 144.861 105.515 144.923 105.454 144.954C105.361 144.985 105.238 145.046 105.053 145.108C104.992 145.139 104.961 145.139 104.868 145.169C104.807 145.2 104.745 145.2 104.683 145.2C104.591 145.2 104.56 145.108 104.56 144.954C104.56 144.769 104.622 144.615 104.745 144.43C104.868 144.246 105.053 144.122 105.238 143.969C105.454 143.845 105.669 143.722 105.916 143.661C106.162 143.568 106.378 143.537 106.594 143.537C106.871 143.537 107.117 143.568 107.333 143.599C107.549 143.661 107.734 143.722 107.888 143.845C108.042 143.969 108.165 144.122 108.227 144.338C108.319 144.554 108.35 144.831 108.35 145.139V147.14C108.35 147.417 108.35 147.602 108.381 147.725C108.411 147.848 108.442 147.94 108.473 148.002C108.535 148.125 108.596 148.187 108.658 148.217C108.719 148.248 108.812 148.279 108.874 148.279C108.966 148.279 109.028 148.279 109.058 148.248C109.089 148.217 109.12 148.217 109.151 148.217ZM107.395 145.939L107.025 146.001C106.809 146.031 106.624 146.093 106.44 146.155C106.255 146.216 106.101 146.278 105.947 146.401C105.793 146.493 105.669 146.616 105.577 146.77C105.485 146.924 105.454 147.109 105.454 147.325C105.454 147.632 105.515 147.848 105.669 148.002C105.823 148.156 106.008 148.248 106.255 148.248C106.409 148.248 106.532 148.217 106.686 148.156C106.84 148.094 106.963 148.002 107.056 147.879C107.179 147.756 107.241 147.602 107.302 147.448C107.364 147.294 107.395 147.109 107.395 146.924V145.939ZM115.713 148.587C115.497 148.556 115.313 148.556 115.097 148.525C114.881 148.525 114.666 148.525 114.481 148.525C114.265 148.525 114.049 148.525 113.834 148.525C113.618 148.556 113.402 148.556 113.218 148.587C113.218 148.495 113.187 148.433 113.187 148.402C113.187 148.31 113.218 148.279 113.279 148.248C113.464 148.217 113.618 148.187 113.741 148.125C113.895 148.063 113.957 147.971 113.957 147.848V141.598C113.957 141.351 113.895 141.198 113.803 141.105C113.711 141.013 113.526 140.951 113.248 140.92C113.156 140.89 113.094 140.859 113.094 140.766C113.094 140.705 113.094 140.674 113.125 140.613C113.218 140.613 113.372 140.613 113.556 140.613C113.741 140.582 113.895 140.582 114.049 140.551C114.234 140.52 114.388 140.489 114.512 140.459C114.666 140.428 114.758 140.397 114.82 140.397C114.881 140.397 114.943 140.428 114.974 140.459C115.004 140.489 115.004 140.52 115.004 140.582C115.004 140.705 115.004 140.859 114.974 141.044C114.943 141.228 114.943 141.413 114.943 141.659V147.879C114.943 148.002 115.004 148.094 115.159 148.156C115.313 148.217 115.467 148.248 115.651 148.279C115.713 148.31 115.744 148.341 115.744 148.433C115.744 148.433 115.744 148.495 115.713 148.587ZM128.406 147.848C128.437 147.817 128.468 147.786 128.499 147.786C128.53 147.786 128.56 147.786 128.56 147.786C128.622 147.786 128.684 147.848 128.745 147.94C128.53 148.156 128.314 148.341 128.098 148.495C127.852 148.648 127.605 148.71 127.359 148.71C127.205 148.71 127.051 148.679 126.928 148.648C126.774 148.618 126.681 148.556 126.558 148.464C126.465 148.371 126.373 148.217 126.311 148.063C126.25 147.879 126.219 147.663 126.219 147.386V144.184H125.51V144.061C125.51 143.999 125.51 143.969 125.541 143.907C125.572 143.845 125.603 143.845 125.664 143.845C125.88 143.845 126.034 143.784 126.188 143.691C126.311 143.568 126.435 143.445 126.527 143.26C126.619 143.076 126.712 142.891 126.774 142.737C126.835 142.583 126.928 142.491 127.02 142.491H127.236V143.691H128.591C128.591 143.845 128.56 143.969 128.53 144.061C128.499 144.153 128.437 144.184 128.345 144.184H127.236V147.078C127.236 147.325 127.236 147.54 127.266 147.694C127.297 147.848 127.328 147.971 127.359 148.033C127.421 148.125 127.451 148.156 127.513 148.187C127.575 148.217 127.636 148.217 127.729 148.217C127.852 148.217 127.975 148.187 128.098 148.125C128.191 147.971 128.283 147.91 128.406 147.848ZM135.924 143.476C136.139 143.476 136.324 143.538 136.417 143.63C136.54 143.753 136.571 143.845 136.571 143.999C136.571 144.061 136.571 144.092 136.54 144.122C136.54 144.153 136.478 144.215 136.417 144.246C136.355 144.276 136.294 144.338 136.17 144.4C136.078 144.461 135.924 144.523 135.739 144.615C135.677 144.523 135.585 144.461 135.493 144.4C135.4 144.338 135.308 144.307 135.184 144.307C135.061 144.307 134.938 144.338 134.815 144.43C134.691 144.492 134.599 144.615 134.537 144.738C134.445 144.861 134.383 145.015 134.353 145.169C134.322 145.323 134.291 145.508 134.291 145.693V147.694C134.291 147.879 134.383 148.002 134.568 148.063C134.753 148.156 135 148.217 135.338 148.248C135.431 148.279 135.462 148.31 135.462 148.402C135.462 148.464 135.462 148.525 135.431 148.587C135.338 148.587 135.246 148.556 135.092 148.556C134.969 148.556 134.846 148.556 134.691 148.556C134.537 148.556 134.414 148.525 134.26 148.525C134.106 148.525 133.983 148.525 133.86 148.525C133.644 148.525 133.428 148.525 133.213 148.525C132.997 148.556 132.781 148.556 132.566 148.587C132.566 148.495 132.535 148.433 132.535 148.402C132.535 148.31 132.566 148.279 132.627 148.248C132.812 148.217 132.966 148.156 133.089 148.094C133.243 148.033 133.305 147.94 133.305 147.817V144.861C133.305 144.707 133.305 144.554 133.274 144.461C133.274 144.338 133.213 144.276 133.182 144.215C133.12 144.153 133.059 144.092 132.966 144.061C132.874 144.03 132.781 143.999 132.627 143.999C132.535 143.969 132.473 143.938 132.473 143.845C132.473 143.784 132.473 143.753 132.504 143.691C132.596 143.691 132.751 143.691 132.935 143.691C133.12 143.661 133.274 143.661 133.397 143.63C133.582 143.599 133.706 143.568 133.829 143.537C133.952 143.507 134.044 143.476 134.106 143.476C134.229 143.476 134.26 143.537 134.26 143.661V144.43C134.507 144.153 134.753 143.938 135 143.753C135.338 143.568 135.616 143.476 135.924 143.476ZM145.012 148.217C145.105 148.217 145.136 148.31 145.167 148.464C144.951 148.618 144.704 148.679 144.396 148.679C144.211 148.679 144.088 148.648 143.965 148.587C143.842 148.525 143.749 148.464 143.657 148.402C143.564 148.31 143.503 148.217 143.472 148.125C143.41 148.002 143.38 147.91 143.38 147.786C143.195 148.125 142.948 148.371 142.671 148.495C142.394 148.618 142.086 148.679 141.747 148.679C141.593 148.679 141.439 148.648 141.254 148.618C141.069 148.587 140.915 148.525 140.761 148.464C140.607 148.371 140.484 148.248 140.391 148.094C140.299 147.94 140.237 147.725 140.237 147.478C140.237 147.201 140.299 146.955 140.422 146.77C140.576 146.555 140.73 146.401 140.946 146.278C141.161 146.155 141.408 146.031 141.654 145.97C141.901 145.877 142.147 145.816 142.394 145.785C142.517 145.754 142.64 145.724 142.763 145.724C142.887 145.693 142.979 145.662 143.072 145.631C143.195 145.6 143.256 145.57 143.256 145.508C143.287 145.446 143.318 145.354 143.318 145.2C143.318 144.831 143.256 144.523 143.102 144.307C142.948 144.061 142.702 143.938 142.363 143.938C142.24 143.938 142.116 143.969 142.024 143.999C141.932 144.03 141.839 144.092 141.778 144.153C141.716 144.215 141.654 144.307 141.623 144.4C141.562 144.523 141.531 144.646 141.469 144.769C141.439 144.861 141.377 144.923 141.315 144.954C141.223 144.985 141.1 145.046 140.915 145.108C140.853 145.139 140.822 145.139 140.73 145.169C140.668 145.2 140.607 145.2 140.545 145.2C140.453 145.2 140.422 145.108 140.422 144.954C140.422 144.769 140.484 144.615 140.607 144.43C140.73 144.246 140.915 144.122 141.1 143.969C141.315 143.845 141.531 143.722 141.778 143.661C142.024 143.568 142.24 143.537 142.455 143.537C142.733 143.537 142.979 143.568 143.195 143.599C143.41 143.661 143.595 143.722 143.749 143.845C143.903 143.969 144.027 144.122 144.088 144.338C144.181 144.554 144.211 144.831 144.211 145.139V147.14C144.211 147.417 144.211 147.602 144.242 147.725C144.273 147.848 144.304 147.94 144.335 148.002C144.396 148.125 144.458 148.187 144.52 148.217C144.581 148.248 144.674 148.279 144.735 148.279C144.828 148.279 144.889 148.279 144.92 148.248C144.951 148.217 144.982 148.217 145.012 148.217ZM143.256 145.939L142.887 146.001C142.671 146.031 142.486 146.093 142.301 146.155C142.116 146.216 141.962 146.278 141.808 146.401C141.654 146.493 141.531 146.616 141.439 146.77C141.346 146.924 141.315 147.109 141.315 147.325C141.315 147.632 141.377 147.848 141.531 148.002C141.685 148.156 141.87 148.248 142.116 148.248C142.27 148.248 142.394 148.217 142.548 148.156C142.702 148.094 142.825 148.002 142.917 147.879C143.041 147.756 143.102 147.602 143.164 147.448C143.226 147.294 143.256 147.109 143.256 146.924V145.939ZM154.163 147.848C154.163 147.971 154.224 148.063 154.378 148.125C154.532 148.187 154.687 148.217 154.841 148.248C154.902 148.279 154.933 148.31 154.933 148.402C154.933 148.464 154.933 148.525 154.902 148.587C154.687 148.556 154.502 148.556 154.317 148.525C154.132 148.525 153.916 148.525 153.701 148.525C153.485 148.525 153.269 148.525 153.084 148.525C152.869 148.556 152.684 148.556 152.468 148.587C152.437 148.495 152.437 148.433 152.437 148.402C152.437 148.31 152.468 148.279 152.53 148.248C152.684 148.217 152.838 148.187 152.961 148.125C153.084 148.063 153.146 147.971 153.146 147.848V145.57C153.146 145.385 153.146 145.2 153.115 145.046C153.084 144.892 153.054 144.738 152.961 144.615C152.9 144.492 152.807 144.4 152.684 144.338C152.561 144.276 152.437 144.246 152.253 144.246C152.068 144.246 151.883 144.276 151.667 144.338C151.482 144.4 151.328 144.492 151.174 144.615C151.02 144.738 150.928 144.892 150.835 145.077C150.743 145.262 150.712 145.477 150.712 145.724V147.848C150.712 147.971 150.774 148.063 150.897 148.125C151.051 148.187 151.174 148.217 151.328 148.248C151.39 148.279 151.421 148.31 151.421 148.402C151.421 148.464 151.421 148.525 151.39 148.587C151.174 148.556 150.989 148.556 150.805 148.525C150.62 148.525 150.404 148.525 150.188 148.525C149.973 148.525 149.757 148.525 149.541 148.525C149.326 148.556 149.141 148.556 148.956 148.587C148.956 148.495 148.925 148.433 148.925 148.402C148.925 148.31 148.956 148.279 149.018 148.248C149.203 148.217 149.357 148.187 149.48 148.125C149.634 148.063 149.695 147.971 149.695 147.848V144.677C149.695 144.43 149.665 144.276 149.572 144.184C149.48 144.092 149.326 144.03 149.048 143.999C148.956 143.969 148.894 143.938 148.894 143.845C148.894 143.815 148.894 143.753 148.925 143.691C149.018 143.691 149.172 143.691 149.357 143.691C149.541 143.661 149.695 143.661 149.819 143.63C150.004 143.599 150.158 143.568 150.281 143.537C150.435 143.507 150.527 143.476 150.589 143.476C150.712 143.476 150.743 143.537 150.743 143.661C150.743 143.784 150.743 143.907 150.712 144.061C150.681 144.215 150.681 144.4 150.681 144.646C151.02 144.276 151.328 143.999 151.636 143.784C151.945 143.568 152.283 143.476 152.653 143.476C153.115 143.476 153.485 143.63 153.701 143.907C153.947 144.184 154.07 144.554 154.07 145.046V147.848H154.163ZM162.173 144.892C162.111 144.892 162.05 144.892 162.019 144.861C161.988 144.831 161.988 144.8 161.957 144.769C161.896 144.461 161.773 144.215 161.588 144.092C161.403 143.938 161.156 143.876 160.848 143.876C160.633 143.876 160.417 143.938 160.232 144.061C160.047 144.184 159.986 144.369 159.986 144.584C159.986 144.8 160.078 144.954 160.232 145.108C160.386 145.231 160.694 145.385 161.095 145.508C161.31 145.57 161.526 145.662 161.711 145.754C161.896 145.847 162.081 145.939 162.204 146.062C162.358 146.185 162.45 146.339 162.543 146.493C162.635 146.678 162.666 146.863 162.666 147.109C162.666 147.325 162.635 147.509 162.543 147.694C162.481 147.879 162.358 148.033 162.204 148.187C162.05 148.341 161.865 148.433 161.619 148.525C161.403 148.618 161.126 148.648 160.818 148.648C160.571 148.648 160.294 148.618 159.986 148.556C159.678 148.495 159.4 148.402 159.154 148.279C159.154 148.063 159.123 147.879 159.092 147.663C159.092 147.448 159.092 147.201 159.092 146.986H159.215C159.308 146.986 159.369 147.017 159.4 147.047C159.462 147.078 159.493 147.109 159.493 147.171C159.524 147.509 159.647 147.756 159.862 147.971C160.078 148.156 160.386 148.248 160.787 148.248C161.095 148.248 161.341 148.187 161.526 148.033C161.711 147.879 161.773 147.694 161.773 147.448C161.773 147.201 161.68 146.986 161.495 146.863C161.31 146.709 161.033 146.586 160.663 146.493C160.201 146.339 159.832 146.185 159.585 145.939C159.339 145.724 159.215 145.385 159.215 144.954C159.215 144.738 159.246 144.554 159.339 144.369C159.431 144.184 159.524 144.03 159.678 143.907C159.832 143.784 159.986 143.661 160.201 143.599C160.417 143.507 160.633 143.476 160.879 143.476C161.187 143.476 161.495 143.507 161.742 143.599C162.019 143.691 162.235 143.753 162.389 143.845C162.389 143.907 162.42 143.999 162.42 144.092C162.42 144.184 162.42 144.276 162.42 144.369C162.42 144.461 162.42 144.554 162.42 144.646C162.42 144.738 162.42 144.831 162.42 144.892H162.173ZM167.596 144.092H166.887V143.876C166.887 143.784 166.918 143.753 166.979 143.722C167.072 143.691 167.133 143.691 167.226 143.661C167.318 143.63 167.38 143.63 167.472 143.568C167.565 143.507 167.596 143.414 167.596 143.291V142.768C167.596 142.337 167.657 141.967 167.78 141.659C167.904 141.351 168.058 141.105 168.242 140.92C168.427 140.705 168.643 140.582 168.859 140.489C169.105 140.397 169.321 140.335 169.536 140.335C169.783 140.335 170.029 140.366 170.214 140.428C170.43 140.489 170.615 140.551 170.738 140.613C170.892 140.705 170.984 140.797 171.077 140.89C171.169 140.982 171.2 141.105 171.2 141.198C171.2 141.259 171.169 141.29 171.108 141.351C171.046 141.382 170.985 141.413 170.892 141.444C170.8 141.475 170.738 141.505 170.646 141.505C170.553 141.505 170.522 141.536 170.492 141.536C170.368 141.536 170.307 141.475 170.245 141.382C170.153 141.198 170.06 141.074 169.937 140.92C169.814 140.797 169.629 140.736 169.413 140.736C169.136 140.736 168.92 140.859 168.797 141.074C168.674 141.29 168.612 141.629 168.612 142.06V143.537H169.999C169.999 143.691 169.999 143.815 169.968 143.907C169.937 143.999 169.875 144.03 169.783 144.03H168.643V147.602C168.643 147.817 168.735 147.94 168.92 148.033C169.105 148.094 169.382 148.156 169.783 148.187C169.875 148.217 169.906 148.248 169.906 148.341C169.906 148.371 169.906 148.402 169.906 148.433C169.906 148.495 169.906 148.495 169.906 148.525C169.875 148.525 169.814 148.525 169.691 148.525C169.567 148.525 169.444 148.495 169.29 148.495C169.136 148.495 168.982 148.464 168.797 148.464C168.612 148.464 168.458 148.464 168.304 148.464C168.181 148.464 168.027 148.464 167.904 148.464C167.78 148.464 167.657 148.495 167.534 148.495C167.411 148.495 167.287 148.525 167.195 148.525C167.103 148.525 167.041 148.525 167.041 148.525C167.041 148.525 167.041 148.495 167.041 148.433C167.041 148.371 167.041 148.341 167.041 148.341C167.041 148.248 167.072 148.217 167.133 148.187C167.318 148.156 167.441 148.125 167.565 148.063C167.688 148.002 167.719 147.91 167.719 147.786V144.092H167.596ZM178.071 147.448C178.132 147.386 178.194 147.355 178.255 147.355C178.348 147.355 178.409 147.417 178.471 147.54C178.379 147.694 178.255 147.817 178.132 147.94C178.009 148.063 177.855 148.187 177.67 148.31C177.485 148.402 177.3 148.495 177.054 148.556C176.807 148.618 176.561 148.648 176.253 148.648C175.945 148.648 175.637 148.587 175.359 148.495C175.082 148.402 174.836 148.248 174.62 148.033C174.404 147.817 174.25 147.571 174.096 147.263C173.973 146.955 173.911 146.586 173.911 146.155C173.911 145.754 173.973 145.385 174.127 145.046C174.281 144.707 174.466 144.43 174.712 144.184C174.959 143.938 175.205 143.753 175.513 143.63C175.822 143.507 176.099 143.445 176.376 143.445C177.085 143.445 177.608 143.661 177.947 144.061C178.286 144.492 178.44 145.015 178.44 145.693C178.44 145.754 178.409 145.754 178.379 145.754L174.99 145.908C174.99 146.216 175.02 146.493 175.113 146.74C175.205 146.986 175.329 147.201 175.483 147.417C175.637 147.602 175.822 147.756 176.037 147.848C176.253 147.94 176.499 148.002 176.807 148.002C177.054 148.002 177.3 147.94 177.516 147.817C177.732 147.756 177.917 147.602 178.071 147.448ZM176.191 143.876C175.791 143.876 175.513 144.03 175.298 144.338C175.082 144.646 174.959 145.046 174.959 145.539L177.146 145.446C177.27 145.446 177.331 145.385 177.331 145.292C177.331 145.139 177.3 144.985 177.27 144.831C177.208 144.677 177.146 144.523 177.054 144.4C176.961 144.246 176.838 144.153 176.684 144.061C176.53 143.938 176.376 143.876 176.191 143.876ZM185.958 143.476C186.173 143.476 186.358 143.538 186.451 143.63C186.574 143.753 186.605 143.845 186.605 143.999C186.605 144.061 186.605 144.092 186.574 144.122C186.574 144.153 186.512 144.215 186.451 144.246C186.389 144.276 186.327 144.338 186.204 144.4C186.112 144.461 185.958 144.523 185.773 144.615C185.711 144.523 185.619 144.461 185.526 144.4C185.434 144.338 185.342 144.307 185.218 144.307C185.095 144.307 184.972 144.338 184.849 144.43C184.725 144.492 184.633 144.615 184.571 144.738C184.479 144.861 184.417 145.015 184.386 145.169C184.356 145.323 184.325 145.508 184.325 145.693V147.694C184.325 147.879 184.417 148.002 184.602 148.063C184.787 148.156 185.033 148.217 185.372 148.248C185.465 148.279 185.496 148.31 185.496 148.402C185.496 148.464 185.496 148.525 185.465 148.587C185.372 148.587 185.28 148.556 185.126 148.556C185.003 148.556 184.879 148.556 184.725 148.556C184.571 148.556 184.448 148.525 184.294 148.525C184.14 148.525 184.017 148.525 183.893 148.525C183.678 148.525 183.462 148.525 183.246 148.525C183.031 148.556 182.815 148.556 182.6 148.587C182.6 148.495 182.569 148.433 182.569 148.402C182.569 148.31 182.599 148.279 182.661 148.248C182.846 148.217 183 148.156 183.123 148.094C183.277 148.033 183.339 147.94 183.339 147.817V144.861C183.339 144.707 183.339 144.554 183.308 144.461C183.308 144.338 183.246 144.276 183.216 144.215C183.154 144.153 183.092 144.092 183 144.061C182.908 144.03 182.815 143.999 182.661 143.999C182.569 143.969 182.507 143.938 182.507 143.845C182.507 143.784 182.507 143.753 182.538 143.691C182.63 143.691 182.784 143.691 182.969 143.691C183.154 143.661 183.308 143.661 183.431 143.63C183.616 143.599 183.739 143.568 183.863 143.537C183.986 143.507 184.078 143.476 184.14 143.476C184.263 143.476 184.294 143.537 184.294 143.661V144.43C184.54 144.153 184.787 143.938 185.033 143.753C185.372 143.568 185.65 143.476 185.958 143.476ZM199.39 144.892C199.329 144.892 199.267 144.892 199.236 144.861C199.206 144.831 199.206 144.8 199.175 144.769C199.113 144.461 198.99 144.215 198.805 144.092C198.62 143.938 198.374 143.876 198.066 143.876C197.85 143.876 197.634 143.938 197.449 144.061C197.265 144.184 197.203 144.369 197.203 144.584C197.203 144.8 197.295 144.954 197.449 145.108C197.603 145.231 197.912 145.385 198.312 145.508C198.528 145.57 198.743 145.662 198.928 145.754C199.113 145.847 199.298 145.939 199.421 146.062C199.575 146.185 199.668 146.339 199.76 146.493C199.853 146.678 199.883 146.863 199.883 147.109C199.883 147.325 199.853 147.509 199.76 147.694C199.699 147.879 199.575 148.033 199.421 148.187C199.267 148.341 199.082 148.433 198.836 148.525C198.62 148.618 198.343 148.648 198.035 148.648C197.788 148.648 197.511 148.618 197.203 148.556C196.895 148.495 196.618 148.402 196.371 148.279C196.34 148.063 196.34 147.879 196.31 147.663C196.31 147.448 196.31 147.201 196.31 146.986H196.433C196.525 146.986 196.587 147.017 196.618 147.047C196.679 147.078 196.71 147.109 196.71 147.171C196.741 147.509 196.864 147.756 197.08 147.971C197.295 148.156 197.604 148.248 198.004 148.248C198.312 148.248 198.559 148.187 198.743 148.033C198.928 147.879 198.99 147.694 198.99 147.448C198.99 147.201 198.897 146.986 198.713 146.863C198.528 146.709 198.25 146.586 197.881 146.493C197.419 146.339 197.049 146.185 196.802 145.939C196.556 145.724 196.433 145.385 196.433 144.954C196.433 144.738 196.464 144.554 196.556 144.369C196.648 144.184 196.741 144.03 196.895 143.907C197.049 143.784 197.203 143.661 197.419 143.599C197.634 143.507 197.85 143.476 198.096 143.476C198.405 143.476 198.713 143.507 198.959 143.599C199.236 143.691 199.452 143.753 199.606 143.845C199.606 143.907 199.606 143.999 199.637 144.092C199.637 144.184 199.637 144.276 199.637 144.369C199.637 144.461 199.637 144.554 199.637 144.646C199.637 144.738 199.637 144.831 199.637 144.892H199.39ZM208.356 147.448C208.417 147.386 208.479 147.355 208.541 147.355C208.633 147.355 208.695 147.417 208.756 147.54C208.664 147.694 208.541 147.817 208.417 147.94C208.294 148.063 208.14 148.187 207.955 148.31C207.77 148.402 207.586 148.495 207.339 148.556C207.093 148.618 206.846 148.648 206.538 148.648C206.23 148.648 205.922 148.587 205.645 148.495C205.367 148.402 205.121 148.248 204.905 148.033C204.69 147.817 204.536 147.571 204.381 147.263C204.258 146.955 204.197 146.586 204.197 146.155C204.197 145.754 204.258 145.385 204.412 145.046C204.566 144.707 204.751 144.43 204.998 144.184C205.244 143.938 205.491 143.753 205.799 143.63C206.107 143.507 206.384 143.445 206.661 143.445C207.37 143.445 207.894 143.661 208.233 144.061C208.572 144.492 208.726 145.015 208.726 145.693C208.726 145.754 208.695 145.754 208.664 145.754L205.275 145.908C205.275 146.216 205.306 146.493 205.398 146.74C205.491 146.986 205.614 147.201 205.768 147.417C205.922 147.602 206.107 147.756 206.322 147.848C206.538 147.94 206.785 148.002 207.093 148.002C207.339 148.002 207.586 147.94 207.801 147.817C207.986 147.756 208.202 147.602 208.356 147.448ZM206.446 143.876C206.045 143.876 205.768 144.03 205.552 144.338C205.337 144.646 205.213 145.046 205.213 145.539L207.401 145.446C207.524 145.446 207.586 145.385 207.586 145.292C207.586 145.139 207.555 144.985 207.524 144.831C207.462 144.677 207.401 144.523 207.308 144.4C207.216 144.246 207.093 144.153 206.939 144.061C206.815 143.938 206.661 143.876 206.446 143.876ZM216.243 143.476C216.459 143.476 216.643 143.538 216.736 143.63C216.859 143.753 216.89 143.845 216.89 143.999C216.89 144.061 216.89 144.092 216.859 144.122C216.828 144.153 216.798 144.215 216.736 144.246C216.674 144.276 216.613 144.338 216.489 144.4C216.397 144.461 216.243 144.523 216.058 144.615C215.996 144.523 215.904 144.461 215.812 144.4C215.719 144.338 215.627 144.307 215.504 144.307C215.38 144.307 215.257 144.338 215.134 144.43C215.011 144.492 214.918 144.615 214.857 144.738C214.764 144.861 214.703 145.015 214.672 145.169C214.641 145.323 214.61 145.508 214.61 145.693V147.694C214.61 147.879 214.703 148.002 214.887 148.063C215.072 148.156 215.319 148.217 215.658 148.248C215.75 148.279 215.781 148.31 215.781 148.402C215.781 148.464 215.781 148.525 215.75 148.587C215.658 148.587 215.565 148.556 215.411 148.556C215.288 148.556 215.165 148.556 215.011 148.556C214.857 148.556 214.733 148.525 214.579 148.525C214.425 148.525 214.302 148.525 214.179 148.525C213.963 148.525 213.747 148.525 213.532 148.525C213.316 148.556 213.1 148.556 212.885 148.587C212.854 148.495 212.854 148.433 212.854 148.402C212.854 148.31 212.885 148.279 212.946 148.248C213.131 148.217 213.285 148.156 213.409 148.094C213.563 148.033 213.624 147.94 213.624 147.817V144.861C213.624 144.707 213.624 144.554 213.593 144.461C213.563 144.338 213.532 144.276 213.501 144.215C213.439 144.153 213.378 144.092 213.285 144.061C213.193 144.03 213.1 143.999 212.946 143.999C212.854 143.969 212.792 143.938 212.792 143.845C212.792 143.784 212.792 143.753 212.823 143.691C212.916 143.691 213.07 143.691 213.254 143.691C213.439 143.661 213.593 143.661 213.717 143.63C213.901 143.599 214.025 143.568 214.148 143.537C214.271 143.507 214.364 143.476 214.425 143.476C214.548 143.476 214.579 143.537 214.579 143.661V144.43C214.826 144.153 215.072 143.938 215.319 143.753C215.658 143.568 215.935 143.476 216.243 143.476ZM223.421 147.263C223.791 146.339 224.068 145.631 224.253 145.139C224.438 144.646 224.531 144.338 224.531 144.215C224.531 144.122 224.5 144.061 224.438 144.03C224.377 143.969 224.284 143.938 224.068 143.907C223.976 143.907 223.914 143.845 223.914 143.753C223.914 143.722 223.914 143.722 223.914 143.691C223.914 143.661 223.945 143.63 223.945 143.599C224.253 143.63 224.561 143.63 224.9 143.63C225.085 143.63 225.239 143.63 225.362 143.63C225.516 143.63 225.64 143.599 225.763 143.599C225.794 143.661 225.794 143.722 225.794 143.753C225.794 143.815 225.794 143.845 225.732 143.845C225.701 143.876 225.671 143.876 225.64 143.907C225.486 143.999 225.362 144.061 225.239 144.153C225.116 144.215 225.024 144.338 224.962 144.492L223.267 148.648C223.206 148.679 223.175 148.679 223.083 148.679C222.99 148.679 222.929 148.648 222.898 148.556C222.867 148.495 222.805 148.371 222.744 148.187L221.142 144.492C221.08 144.369 221.049 144.276 221.018 144.215C220.988 144.153 220.926 144.092 220.895 144.061C220.834 144.03 220.803 143.999 220.71 143.969C220.649 143.938 220.556 143.938 220.433 143.907C220.341 143.907 220.279 143.845 220.279 143.722C220.279 143.691 220.279 143.63 220.31 143.568C220.495 143.599 220.679 143.599 220.864 143.599C221.049 143.599 221.234 143.599 221.45 143.599C221.696 143.599 221.912 143.599 222.097 143.599C222.282 143.599 222.497 143.568 222.682 143.568C222.713 143.63 222.713 143.661 222.713 143.722C222.713 143.815 222.651 143.876 222.559 143.876C222.374 143.907 222.251 143.938 222.189 143.969C222.127 143.999 222.097 144.061 222.097 144.122C222.097 144.153 222.127 144.246 222.158 144.4C222.22 144.554 222.282 144.738 222.374 144.985L223.421 147.263ZM230.877 148.525C230.754 148.525 230.6 148.525 230.477 148.525C230.353 148.525 230.23 148.556 230.107 148.556C229.984 148.556 229.891 148.587 229.799 148.587C229.706 148.587 229.645 148.587 229.645 148.587C229.645 148.587 229.645 148.556 229.645 148.495C229.645 148.433 229.645 148.402 229.645 148.402C229.645 148.31 229.676 148.279 229.737 148.248C229.953 148.217 230.107 148.156 230.23 148.094C230.353 148.033 230.415 147.94 230.415 147.817V144.646C230.415 144.4 230.384 144.246 230.292 144.153C230.199 144.061 230.045 143.999 229.768 143.969C229.676 143.938 229.614 143.907 229.614 143.815C229.614 143.784 229.614 143.722 229.645 143.661C229.737 143.661 229.891 143.661 230.076 143.661C230.261 143.63 230.415 143.63 230.538 143.599C230.723 143.568 230.877 143.537 231 143.507C231.155 143.476 231.247 143.445 231.309 143.445C231.432 143.445 231.463 143.507 231.463 143.63C231.463 143.753 231.463 143.876 231.432 144.03C231.401 144.184 231.401 144.369 231.401 144.615V147.817C231.401 147.94 231.463 148.033 231.586 148.094C231.709 148.156 231.894 148.187 232.11 148.248C232.171 148.279 232.202 148.31 232.202 148.402C232.202 148.433 232.202 148.464 232.202 148.495C232.202 148.556 232.202 148.556 232.202 148.587C232.171 148.587 232.11 148.587 232.048 148.587C231.956 148.587 231.863 148.556 231.771 148.556C231.647 148.556 231.524 148.525 231.401 148.525C231.124 148.525 231 148.525 230.877 148.525ZM230.199 141.536C230.199 141.351 230.261 141.198 230.384 141.074C230.508 140.92 230.692 140.859 230.877 140.859C231.062 140.859 231.216 140.92 231.339 141.074C231.463 141.198 231.524 141.351 231.524 141.536C231.524 141.752 231.463 141.906 231.339 142.029C231.216 142.152 231.062 142.214 230.877 142.214C230.692 142.214 230.508 142.152 230.384 142.029C230.261 141.906 230.199 141.721 230.199 141.536ZM238.518 143.907C238.148 143.907 237.84 144.061 237.624 144.369C237.409 144.677 237.286 145.108 237.286 145.662C237.286 146.401 237.44 146.986 237.778 147.417C238.117 147.848 238.58 148.033 239.134 148.033C239.381 148.033 239.596 148.002 239.75 147.91C239.935 147.817 240.058 147.756 240.182 147.663C240.212 147.632 240.243 147.632 240.274 147.602C240.305 147.571 240.336 147.571 240.366 147.571C240.397 147.571 240.459 147.602 240.49 147.663C240.551 147.725 240.582 147.756 240.582 147.786C240.49 147.879 240.397 147.971 240.305 148.063C240.182 148.156 240.058 148.248 239.873 148.341C239.719 148.433 239.504 148.495 239.288 148.525C239.072 148.587 238.826 148.618 238.549 148.618C238.241 148.618 237.933 148.556 237.655 148.464C237.378 148.341 237.131 148.187 236.916 148.002C236.7 147.786 236.546 147.54 236.423 147.232C236.3 146.924 236.238 146.555 236.238 146.124C236.238 145.724 236.3 145.354 236.454 145.046C236.608 144.707 236.793 144.43 237.039 144.184C237.286 143.938 237.532 143.784 237.84 143.63C238.148 143.507 238.425 143.445 238.703 143.445C238.98 143.445 239.257 143.476 239.473 143.537C239.719 143.599 239.904 143.691 240.058 143.784C240.212 143.876 240.336 143.999 240.428 144.153C240.52 144.276 240.582 144.43 240.582 144.584C240.582 144.646 240.551 144.677 240.459 144.707C240.366 144.738 240.305 144.769 240.182 144.8C240.089 144.831 239.997 144.831 239.904 144.831C239.812 144.831 239.781 144.831 239.75 144.831C239.658 144.831 239.565 144.769 239.504 144.677C239.442 144.584 239.381 144.461 239.319 144.369C239.257 144.246 239.165 144.153 239.042 144.061C238.888 143.969 238.734 143.907 238.518 143.907ZM248.716 147.448C248.777 147.386 248.839 147.355 248.901 147.355C248.993 147.355 249.055 147.417 249.116 147.54C249.024 147.694 248.901 147.817 248.777 147.94C248.654 148.063 248.5 148.187 248.315 148.31C248.13 148.402 247.945 148.495 247.699 148.556C247.453 148.618 247.206 148.648 246.898 148.648C246.59 148.648 246.282 148.587 246.004 148.495C245.727 148.402 245.481 148.248 245.265 148.033C245.049 147.817 244.895 147.571 244.741 147.263C244.618 146.955 244.556 146.586 244.556 146.155C244.556 145.754 244.618 145.385 244.772 145.046C244.926 144.707 245.111 144.43 245.357 144.184C245.604 143.938 245.85 143.753 246.159 143.63C246.467 143.507 246.744 143.445 247.021 143.445C247.73 143.445 248.254 143.661 248.592 144.061C248.931 144.492 249.085 145.015 249.085 145.693C249.085 145.754 249.055 145.754 249.024 145.754L245.635 145.908C245.635 146.216 245.666 146.493 245.758 146.74C245.85 146.986 245.974 147.201 246.128 147.417C246.282 147.602 246.467 147.756 246.682 147.848C246.898 147.94 247.144 148.002 247.453 148.002C247.699 148.002 247.945 147.94 248.161 147.817C248.377 147.756 248.562 147.602 248.716 147.448ZM246.836 143.876C246.436 143.876 246.159 144.03 245.943 144.338C245.727 144.646 245.604 145.046 245.604 145.539L247.791 145.446C247.915 145.446 247.976 145.385 247.976 145.292C247.976 145.139 247.945 144.985 247.915 144.831C247.853 144.677 247.791 144.523 247.699 144.4C247.607 144.246 247.483 144.153 247.329 144.061C247.206 143.938 247.021 143.876 246.836 143.876Z" fill="#0A3647"/>
<path fill-rule="evenodd" clip-rule="evenodd" d="M259.776 142.983C259.776 142.983 259.931 143.63 260.146 143.969C260.362 144.307 260.701 144.615 261.132 144.923C261.563 145.231 262.18 145.477 262.981 145.693V146.032C262.18 146.247 261.563 146.524 261.132 146.801C260.67 147.109 260.331 147.417 260.146 147.756C259.931 148.094 259.776 148.741 259.776 148.741H259.438V146.617H257.158V145.077H259.438V142.953H259.776V142.983Z" fill="#0A3647"/>
<path fill-rule="evenodd" clip-rule="evenodd" d="M10.1924 148.772C10.1924 148.772 10.0384 148.125 9.82271 147.786C9.60705 147.448 9.26815 147.14 8.83682 146.832C8.4055 146.524 7.78932 146.278 6.98828 146.062V145.724C7.78932 145.508 8.4055 145.231 8.83682 144.954C9.29896 144.646 9.63786 144.338 9.82271 143.999C10.0384 143.661 10.1924 143.014 10.1924 143.014H10.5313V145.139H12.8112V146.678H10.5313V148.802H10.1924V148.772Z" fill="#0A3647"/>
</svg>
