<svg width="56" height="27" viewBox="0 0 56 27" fill="none" xmlns="http://www.w3.org/2000/svg">
<path fill-rule="evenodd" clip-rule="evenodd" d="M29.5468 2.25001C28.3463 2.24713 27.4035 3.16637 27.4006 4.33921C27.3977 5.50628 28.3405 6.44858 29.5117 6.45147C30.6946 6.45435 31.6491 5.52357 31.6521 4.36514C31.6521 3.18943 30.721 2.25289 29.5468 2.25001ZM18.2446 16.9695V17.1223C18.2446 17.3579 18.2445 17.5933 18.2443 17.8286C18.2437 18.5345 18.2432 19.2396 18.2476 19.9463C18.2476 20.0587 18.2154 20.1019 18.1041 20.1307C16.9036 20.4362 15.6943 20.4765 14.4851 20.2085C13.1499 19.9117 12.3623 19.0703 12.0987 17.762C12.0109 17.3326 11.9699 16.886 11.967 16.448C11.9563 15.0899 11.9581 13.7304 11.9598 12.3715V12.3711V12.3709V12.3706V12.3703C11.9605 11.8611 11.9611 11.352 11.9611 10.8431V10.6385H10.2921C10.4193 9.87579 10.5425 9.1266 10.6667 8.37193L10.6668 8.37136L10.7489 7.87214C10.869 7.85293 10.989 7.83307 11.1091 7.81322C11.3491 7.77353 11.5893 7.73381 11.8294 7.69924C11.9348 7.68483 11.9758 7.65025 11.9933 7.54363C12.0565 7.15294 12.1214 6.7628 12.1862 6.37272C12.2715 5.85937 12.3569 5.34614 12.4384 4.83199C12.4618 4.6879 12.5204 4.65044 12.6551 4.62739C13.4715 4.5004 14.2863 4.36842 15.1007 4.2365L15.101 4.23645C15.3583 4.19478 15.6157 4.15307 15.873 4.11157C15.882 4.10979 15.891 4.10911 15.9036 4.10817C15.9113 4.10759 15.9203 4.10691 15.9315 4.10581V7.66466H18.5199C18.3559 8.66171 18.1949 9.63283 18.0309 10.6212H15.9374V10.7913C15.9374 11.2042 15.9372 11.6169 15.937 12.0295L15.937 12.0378V12.0384C15.9365 13.2843 15.9359 14.5298 15.9403 15.7765C15.9403 15.9984 15.9696 16.2289 16.0223 16.4451C16.1218 16.8456 16.4029 17.0675 16.8187 17.1194C17.2248 17.1693 17.6163 17.0921 18.0087 17.0148L18.0632 17.004C18.0827 17.0002 18.1022 16.9964 18.1217 16.9926C18.1293 16.9912 18.1372 16.9899 18.1456 16.9884C18.1727 16.9838 18.2044 16.9783 18.2446 16.9695ZM33.1484 7.67905H36.6855C36.7206 7.88221 36.7557 8.08465 36.7909 8.28708C36.826 8.48952 36.8611 8.69196 36.8963 8.89511C36.9712 8.83045 37.0445 8.76491 37.1172 8.69979C37.2745 8.55894 37.4299 8.41984 37.5961 8.29573C38.9342 7.30156 40.3777 7.15459 41.8886 7.84907C42.7201 8.23233 43.2354 8.93546 43.6015 9.7452C43.9411 10.5002 44.1021 11.2955 44.1841 12.111C44.2778 13.0505 44.2837 13.9899 44.1841 14.9293C44.0465 16.2203 43.7303 17.4536 42.9309 18.5199C42.1609 19.5457 41.1185 20.1249 39.8448 20.318C38.9927 20.4477 38.1524 20.3699 37.3267 20.1393C37.3097 20.1346 37.2923 20.1303 37.2735 20.1257C37.2469 20.1192 37.2174 20.112 37.1832 20.1019V24.093C36.4333 24.2147 35.6878 24.3363 34.9423 24.458C34.3461 24.5553 33.7499 24.6527 33.1513 24.75C33.1484 19.0587 33.1484 13.3761 33.1484 7.67905ZM37.1803 14.2002V16.8485C37.1803 17.0239 37.1803 17.1118 37.2228 17.169C37.2656 17.2266 37.3512 17.2532 37.5229 17.3067C38.4218 17.5804 39.1596 17.3326 39.6047 16.6035C39.8214 16.252 39.9678 15.8716 40.0527 15.4711C40.2781 14.4135 40.2781 13.3473 40.1288 12.2811C40.0644 11.8286 39.9531 11.3849 39.6838 10.9987C39.4027 10.5953 39.0132 10.4109 38.5126 10.4887C38.0265 10.5636 37.6371 10.8201 37.2857 11.1428C37.2096 11.212 37.1774 11.2869 37.1774 11.3935C37.1818 12.0936 37.1812 12.7953 37.1807 13.4974V13.4978C37.1805 13.7318 37.1803 13.9662 37.1803 14.2002ZM55.7614 15.1743H49.065C49.0819 15.2564 49.0969 15.337 49.1116 15.4162C49.1455 15.5982 49.178 15.773 49.229 15.9437C49.4867 16.811 50.0986 17.3038 51.0151 17.3816C52.3356 17.4911 53.5976 17.2663 54.7893 16.69C54.8211 16.6735 54.8539 16.658 54.8904 16.6407C54.9177 16.6278 54.947 16.6138 54.9796 16.5978C55.0206 16.8341 55.0587 17.0617 55.0968 17.2923C55.1318 17.5089 55.1661 17.7259 55.2005 17.943C55.2666 18.3612 55.3329 18.7797 55.4042 19.1971C55.4218 19.3037 55.3925 19.3498 55.3076 19.4016C54.6253 19.8051 53.8846 20.0471 53.1086 20.1912C51.8115 20.4362 50.5115 20.4736 49.2173 20.1912C47.2233 19.7532 45.9701 18.5372 45.4109 16.6151C45.0741 15.4567 45.0156 14.2723 45.1063 13.0764C45.1766 12.1514 45.3757 11.2552 45.7827 10.4109C46.5938 8.73086 47.926 7.73957 49.8087 7.49751C50.8921 7.35919 51.9521 7.45141 52.9564 7.90959C54.0017 8.38795 54.6956 9.19769 55.1553 10.2207C55.5213 11.0333 55.7175 11.8892 55.7643 12.771C55.7917 13.328 55.7843 13.8865 55.7768 14.4455L55.7768 14.4468C55.7739 14.6652 55.771 14.8837 55.7702 15.1022C55.7749 15.1114 55.7721 15.1243 55.7663 15.151L55.7636 15.1638L55.7614 15.1743ZM52.0311 12.7306C52.0204 12.6266 52.0112 12.5242 52.0022 12.423C51.9842 12.2213 51.9667 12.0243 51.9374 11.8286C51.8759 11.4108 51.7734 10.9987 51.5304 10.6414C51.2464 10.2264 50.7926 10.0507 50.2948 10.163C49.8614 10.261 49.6038 10.555 49.4281 10.9325C49.1646 11.5001 49.1002 12.1111 49.0533 12.7306H52.0311ZM8.59309 11.0675C8.72982 11.1205 8.86759 11.1739 9.00667 11.2264C9.00667 11.2258 9.00689 11.2251 9.00725 11.2241C9.00751 11.2234 9.00785 11.2227 9.00825 11.2218C9.00853 11.2212 9.00884 11.2205 9.00917 11.2198C9.01112 11.2156 9.01377 11.2099 9.01546 11.2033L9.01551 11.203C9.17067 10.2666 9.32586 9.33007 9.48394 8.3937C9.50151 8.29572 9.45466 8.26114 9.37561 8.22656C8.64946 7.90958 7.89695 7.68769 7.11224 7.56666C6.08743 7.40817 5.06555 7.36207 4.04367 7.58107C3.16527 7.76838 2.36592 8.11994 1.77738 8.80578C0.752574 10.0017 0.635453 11.3647 1.13907 12.7969C1.39967 13.5432 1.98527 14.036 2.65579 14.4365C3.29538 14.8171 3.99559 15.0726 4.69336 15.3273L4.70833 15.3327C5.15339 15.497 5.5926 15.667 5.96153 15.9782C6.2192 16.1857 6.3451 16.4508 6.28068 16.7793C6.21627 17.1021 5.98203 17.2692 5.68044 17.3643C5.33493 17.4709 4.97771 17.468 4.62342 17.4306C3.83578 17.3499 3.08328 17.1424 2.35128 16.8543C2.08696 16.7486 1.8267 16.6297 1.56499 16.5102C1.44111 16.4536 1.31689 16.3969 1.19178 16.3413C1.1897 16.3495 1.18687 16.3588 1.18384 16.3688C1.17834 16.3869 1.17213 16.4073 1.16835 16.4278C1.04744 17.1544 0.928789 17.8833 0.810411 18.6105L0.761358 18.9118L0.759999 18.9203C0.693992 19.3354 0.693801 19.3366 1.09222 19.514C2.26051 20.0356 3.49028 20.3094 4.76689 20.3756C5.67165 20.4217 6.57056 20.3526 7.43725 20.0644C8.44742 19.7273 9.23506 19.1336 9.69769 18.1683C10.0227 17.4853 10.1018 16.762 10.0666 16.0186C10.0168 14.9869 9.60106 14.1397 8.76365 13.5029C8.25124 13.111 7.6715 12.8343 7.07418 12.598C6.89825 12.5284 6.72162 12.4598 6.54489 12.3911C6.20984 12.2609 5.87445 12.1306 5.54282 11.9929C5.26173 11.8747 4.98943 11.7278 4.79032 11.4857C4.49752 11.1313 4.61171 10.6616 5.04213 10.4915C5.20903 10.4253 5.39935 10.3878 5.58089 10.382C6.28654 10.3561 6.96877 10.4915 7.63343 10.7134C7.9557 10.8205 8.27224 10.9432 8.59309 11.0675ZM19.5828 20.1336H23.6147C23.6147 20.0645 23.6147 20.0039 23.6117 19.9434V15.8802V15.877C23.6117 14.6476 23.6117 13.4211 23.6147 12.1917C23.6147 12.1226 23.6352 12.0361 23.6791 11.9842C23.8782 11.7537 24.1212 11.5808 24.4052 11.4627C24.944 11.2379 25.512 11.212 26.0859 11.2321C26.1959 11.2366 26.3059 11.2461 26.4146 11.2554C26.4477 11.2583 26.4806 11.2611 26.5134 11.2638C26.5159 11.2551 26.5185 11.2486 26.5205 11.2432C26.5232 11.2362 26.5251 11.2313 26.5251 11.2264C26.5251 10.0507 26.5251 8.87205 26.5281 7.69634C26.5281 7.61565 26.5017 7.58395 26.4226 7.57819C26.3362 7.57095 26.2495 7.56058 26.1627 7.55021C25.9733 7.52756 25.7837 7.50491 25.5969 7.51479C24.5546 7.57242 23.7991 8.05654 23.3951 9.02478C23.3891 9.03856 23.3803 9.04964 23.3679 9.06539C23.3622 9.07268 23.3556 9.08104 23.3482 9.09106C23.3292 8.97818 23.31 8.86666 23.291 8.7561L23.2907 8.75433L23.2905 8.75321C23.2364 8.43857 23.1836 8.13163 23.1403 7.82313C23.1228 7.69634 23.0759 7.6704 22.9559 7.6704C22.1501 7.67472 21.346 7.67418 20.5411 7.67364L20.5383 7.67364C20.2707 7.67346 20.0029 7.67328 19.735 7.67328H19.5828V20.1336ZM27.5001 7.68194H31.5496V20.1278H27.5001V7.68194Z" fill="#6772E5"/>
</svg>
