<svg width="777" height="1424" viewBox="0 0 777 1424" fill="none" xmlns="http://www.w3.org/2000/svg">
<path d="M321.808 1187.82C310.556 1176.8 302.202 1162.45 304.364 1145.97C305.507 1138.15 308.733 1130.78 313.704 1124.63C318.675 1118.49 325.207 1113.8 332.617 1111.05C358.163 1101.95 384.926 1117.92 409.895 1128.4C439.761 1140.93 479.198 1143.76 499.965 1118.93C506.767 1110.8 510.646 1100.64 516.815 1092.02C530.737 1072.56 560.068 1060.01 580.148 1073C605.125 1089.14 590.374 1100.64 612.849 1115.9C638.673 1133.34 661.219 1118.9 686.674 1136.88C705.012 1149.86 719.769 1167.27 729.574 1187.49C735.151 1198.99 739.122 1211.97 736.393 1224.48C731.985 1244.95 711.625 1257.69 692.077 1265.19C656.993 1278.63 616.989 1283.92 589.408 1309.43C579.129 1318.95 571.167 1330.84 560.238 1339.6C545.438 1351.45 526.49 1356.57 508.061 1361.08C486.602 1366.39 464.642 1371.17 442.575 1369.87C420.509 1368.57 397.945 1360.39 383.708 1343.46C359.846 1315 369.245 1277.84 359.194 1244.95C356.49 1236.63 353.065 1228.57 348.957 1220.85C346.068 1215.14 341.936 1210.27 338.868 1204.76C337.45 1202.21 335.607 1199.92 333.42 1197.99C331.631 1196.43 329.75 1194.7 327.886 1193.17C326.023 1191.64 323.775 1189.77 321.808 1187.82Z" stroke="#DEECF4" stroke-linecap="round" stroke-linejoin="round" stroke-dasharray="2.01 4.01"/>
<path d="M358.709 1200.69C349.386 1191.56 342.435 1179.68 344.238 1166.02C345.184 1159.54 347.856 1153.44 351.972 1148.35C356.088 1143.26 361.498 1139.37 367.635 1137.08C388.815 1129.55 410.996 1142.79 431.722 1151.47C456.457 1161.83 489.13 1164.2 506.354 1143.63C511.987 1136.92 515.199 1128.47 520.316 1121.32C531.85 1105.22 554.839 1097.13 572.784 1105.58C580.558 1109.22 586.781 1115.42 593.59 1120.66C614.062 1136.42 639.953 1143.6 661.045 1158.5C676.24 1169.26 688.468 1183.68 696.592 1200.43C701.207 1209.97 704.463 1220.69 702.238 1231.08C698.601 1248.04 681.721 1258.6 665.522 1264.82C636.453 1275.96 603.303 1280.33 580.452 1301.48C571.937 1309.35 565.34 1319.22 556.282 1326.46C544.021 1336.29 528.265 1340.56 513.064 1344.27C495.264 1348.61 477.09 1352.65 458.8 1351.54C440.51 1350.44 421.844 1343.74 410.022 1329.64C390.198 1306.07 398.041 1275.27 389.729 1248.01C387.471 1241.09 384.62 1234.39 381.209 1227.96C378.816 1223.23 375.397 1219.2 372.801 1214.65C371.629 1212.57 370.116 1210.71 368.327 1209.13C366.834 1207.84 365.279 1206.4 363.776 1205.13C362.273 1203.85 360.322 1202.25 358.709 1200.69Z" stroke="#DEECF4" stroke-linecap="round" stroke-linejoin="round"/>
<path d="M395.605 1213.55C388.216 1206.31 371.465 1192.04 372.9 1181.21C373.65 1176.06 375.777 1171.21 379.057 1167.17C382.337 1163.13 386.647 1160.04 391.533 1158.25C408.328 1152.26 430.494 1170.44 446.928 1177.34C466.541 1185.56 499.126 1184.58 512.774 1168.26C517.253 1162.92 519.793 1156.22 523.852 1150.59C533.023 1137.85 551.244 1131.39 565.416 1138.09C571.58 1140.99 576.51 1145.91 581.912 1150.07C598.135 1162.56 618.736 1168.25 635.392 1180.01C647.434 1188.54 657.125 1199.97 663.568 1213.25C667.235 1220.81 669.819 1229.35 668.06 1237.56C665.161 1251.01 651.775 1259.37 638.92 1264.3C615.87 1273.15 589.59 1276.6 571.463 1293.38C564.708 1299.63 559.482 1307.45 552.304 1313.21C542.575 1320.99 530.111 1324.36 518.019 1327.31C503.893 1330.77 489.48 1333.95 474.981 1333.08C460.483 1332.22 445.652 1326.85 436.288 1315.72C420.571 1297.04 426.789 1272.6 420.235 1250.98C418.448 1245.51 416.189 1240.22 413.486 1235.15C411.589 1231.39 408.878 1228.2 406.812 1224.58C405.874 1222.91 404.661 1221.41 403.226 1220.14C402.034 1219.12 400.799 1217.98 399.578 1216.97C398.357 1215.96 396.873 1214.8 395.605 1213.55Z" stroke="#DEECF4" stroke-linecap="round" stroke-linejoin="round"/>
<path d="M432.55 1226.41C427.075 1221.06 423.015 1214.1 424.072 1206.08C424.629 1202.29 426.197 1198.71 428.611 1195.73C431.026 1192.75 434.198 1190.47 437.795 1189.14C450.204 1184.7 463.205 1192.47 475.358 1197.56C489.849 1203.64 509.009 1205.02 519.1 1192.96C522.4 1189.01 524.287 1184.07 527.284 1179.89C534.005 1170.45 547.52 1165.71 558.042 1170.64C562.595 1172.79 566.248 1176.43 570.234 1179.48C582.204 1188.64 597.392 1192.95 609.772 1201.67C618.676 1207.98 625.842 1216.43 630.606 1226.25C633.339 1231.88 635.233 1238.14 633.924 1244.22C631.782 1254.16 621.89 1260.34 612.399 1263.98C595.359 1270.52 575.928 1273.09 562.541 1285.48C557.52 1290.1 553.67 1295.87 548.368 1300.13C541.176 1305.89 531.979 1308.38 523.025 1310.56C512.598 1313.11 501.937 1315.45 491.229 1314.83C480.522 1314.2 469.545 1310.23 462.65 1302C451.031 1288.19 455.585 1270.08 450.743 1254.16C449.433 1250.12 447.769 1246.2 445.771 1242.46C444.36 1239.66 442.362 1237.31 440.837 1234.66C440.132 1233.42 439.223 1232.31 438.146 1231.37C437.266 1230.61 436.357 1229.77 435.438 1228.99C434.519 1228.21 433.438 1227.34 432.55 1226.41Z" stroke="#DEECF4" stroke-linecap="round" stroke-linejoin="round"/>
<path d="M469.407 1239.29C465.86 1235.83 463.23 1231.32 463.918 1226.15C464.27 1223.69 465.279 1221.36 466.839 1219.43C468.399 1217.49 470.453 1216.01 472.784 1215.14C480.813 1212.26 489.755 1226.16 497.611 1229.45C507.025 1233.38 519.387 1234.29 525.96 1226.46C528.1 1223.91 529.315 1220.72 531.256 1218C535.633 1211.9 543.826 1199.96 550.625 1203.16C553.451 1204.78 556.097 1206.7 558.518 1208.88C566.281 1214.85 576.103 1217.57 584.104 1223.23C589.858 1227.31 594.49 1232.78 597.571 1239.13C599.328 1242.75 600.565 1246.83 599.702 1250.76C598.316 1257.2 591.919 1261.19 585.776 1263.55C574.751 1267.78 562.19 1269.44 553.512 1277.46C550.294 1280.45 547.791 1284.19 544.345 1286.93C539.705 1290.67 533.741 1292.27 527.96 1293.68C521.212 1295.33 514.327 1296.85 507.371 1296.45C500.416 1296.04 493.377 1293.47 488.886 1288.14C481.346 1279.18 484.337 1267.53 481.175 1257.2C480.327 1254.58 479.251 1252.05 477.959 1249.62C477.054 1247.83 475.759 1246.29 474.78 1244.58C474.331 1243.77 473.746 1243.05 473.049 1242.45C472.485 1241.96 471.902 1241.42 471.304 1240.93C470.645 1240.41 470.012 1239.87 469.407 1239.29Z" stroke="#DEECF4" stroke-linecap="round" stroke-linejoin="round"/>
<path d="M506.308 1252.17C505.448 1251.44 504.773 1250.52 504.339 1249.48C503.904 1248.45 503.722 1247.32 503.808 1246.2C503.972 1245.08 504.433 1244.03 505.144 1243.15C505.855 1242.27 506.788 1241.6 507.847 1241.21C511.495 1239.9 515.312 1242.18 518.891 1243.68C523.149 1245.46 528.786 1245.87 531.744 1242.33C532.719 1241.16 533.276 1239.71 534.15 1238.49C535.132 1237.08 536.559 1236.05 538.2 1235.56C539.84 1235.07 541.6 1235.14 543.192 1235.77C544.482 1236.5 545.688 1237.38 546.785 1238.37C550.3 1241.08 554.768 1242.31 558.406 1244.89C561.019 1246.75 563.123 1249.23 564.521 1252.12C565.427 1253.72 565.771 1255.58 565.498 1257.41C564.82 1260.34 561.966 1262.15 559.227 1263.2C554.226 1265.11 548.509 1265.86 544.59 1269.56C543.122 1270.91 541.98 1272.62 540.429 1273.87C538.199 1275.42 535.657 1276.46 532.982 1276.93C529.939 1277.81 526.782 1278.23 523.615 1278.18C522.03 1278.15 520.469 1277.79 519.024 1277.14C517.58 1276.49 516.281 1275.55 515.205 1274.39C511.791 1270.33 513.152 1265.02 511.714 1260.32C511.326 1259.13 510.835 1257.98 510.245 1256.89C509.831 1256.06 509.249 1255.37 508.8 1254.58C508.592 1254.22 508.327 1253.9 508.015 1253.62L507.223 1252.93C506.877 1252.71 506.575 1252.44 506.308 1252.17Z" stroke="#DEECF4" stroke-linecap="round" stroke-linejoin="round"/>
<path d="M100.141 619.795C97.8205 627.728 100.057 635.703 101.727 643.584C102.935 649.284 104.198 654.951 105.814 660.553C108.42 669.611 112.767 678.075 118.612 685.471C129.249 699.426 142.573 711.665 158.744 718.911C167.124 722.697 175.885 725.575 184.877 727.497C193.741 729.517 202.984 729.121 211.641 726.35C218.27 724.486 224.542 721.533 230.201 717.611C237.511 712.413 243.73 706.412 250.53 700.596C281.614 674.077 321.719 653.794 363.493 662.093C403.663 670.064 435.857 700.062 474.411 713.817C506.576 725.289 542.081 724.931 575.462 717.702C602.268 711.9 630.583 699.583 642.108 674.682C654.197 648.556 643.913 618.166 642.769 589.398C640.636 535.459 671.152 486.484 696.715 438.915C719.102 397.34 762.791 299.754 705.923 267.849C697.741 263.247 689.05 260.145 680.442 256.544C673.464 253.34 666.209 250.78 658.765 248.896C651.962 247.35 645.028 246.709 638.047 245.824C630.879 244.734 623.606 244.516 616.386 245.174C608.069 246.025 599.817 247.431 591.687 249.383C577.572 252.775 566.047 261.258 554.173 269.365C546.02 274.928 538.224 280.996 530.829 287.534C522.949 294.545 514.578 300.69 506.213 307.108C492.238 317.834 479.017 329.634 464.228 339.303C447.861 350.227 430.919 360.263 413.474 369.366C406.823 372.771 400.17 376.274 393.268 379.158C383.696 383.15 373.395 385.748 363.545 388.933C353.695 392.119 343.643 395.989 333.446 398.505C323.375 400.909 313.081 402.262 302.731 402.542C294.823 402.819 286.99 402.974 279.099 403.555C269.345 404.267 259.503 403.85 249.789 404.988C240.816 406.05 231.684 405.11 222.724 406.917C213.892 408.49 205.243 410.955 196.909 414.272C180.251 421.288 166.16 432.36 152.742 444.306C145.081 450.908 138.067 458.226 131.796 466.162C125.151 474.826 120.75 484.735 117.002 494.954C114.028 503.034 110.51 511.143 109.134 519.731C108.201 525.408 107.571 531.166 106.888 536.859C105.898 545.079 106.828 553.443 106.034 561.665C104.651 575.924 105.9 590.211 103.686 604.365C103.228 607.281 101.826 609.494 100.788 612.175C100.307 613.881 99.9718 615.624 99.7854 617.386C99.2308 620.204 96.3353 622.834 100.141 619.795Z" stroke="#DEECF4" stroke-miterlimit="10"/>
<path d="M876.397 1040.09C870.69 1040.92 864.904 1041.04 859.168 1040.45C812.335 1036.05 791.42 997.621 759.116 969.401C751.692 962.782 743.563 956.999 734.874 952.158C700.705 933.532 654.68 935.859 627.076 905.501C613.919 891.058 607.894 868.901 616.471 851.354C625.048 833.807 645.523 825.101 664.82 821.059C684.117 817.017 704.507 815.602 721.688 805.925C747.232 791.638 760.448 762.346 766.58 734.922C773.151 705.482 766.204 678.965 764.101 649.546C762.489 627.085 766.325 603.694 778.365 584.669C790.406 565.643 811.38 551.58 833.909 551.135C854.56 550.727 874.191 561.268 894.854 561.248C938.349 561.221 950.747 517.111 976.511 490.863C992.437 474.637 1016.01 459.357 1037.62 452.483C1054.15 447.137 1073.41 447.325 1087.79 456.991C1097.04 463.17 1103.55 472.629 1109.01 482.298C1112.83 489.091 1116.38 496.43 1116.33 504.231C1116.02 509.645 1114.75 514.96 1112.6 519.935C1107.42 533.547 1099.84 545.967 1094.74 559.54C1076.85 607.492 1109.32 661.8 1127.53 704.871C1130.32 711.478 1133.04 718.27 1133.51 725.415C1134.88 746.31 1116.2 771 1098.89 781.386C1074.14 796.23 1043.23 795.639 1016.75 806.208C997.374 813.94 979.201 826.088 967.796 843.555C936.858 891.022 948.539 955.848 922.034 1005.69C911.705 1025.17 896.277 1037.2 876.397 1040.09Z" stroke="#DEECF4" stroke-miterlimit="10"/>
<path d="M830.025 204.211C833.175 210.424 835.388 215.507 835.291 222.558C834.74 255.605 822.258 287.265 818.127 320.02C814.392 349.568 816.602 381.282 832.796 406.274C848.99 431.267 881.984 446.917 909.732 436.119C938.404 424.957 951.113 392.588 966.901 366.113C981.964 340.738 1002.06 318.717 1025.96 301.407C1041.67 290.055 1058.89 280.839 1074.05 268.801C1103.11 245.724 1116.8 211.001 1109.91 174.139C1108.72 168.083 1107.07 162.126 1104.98 156.319C1102.34 148.719 1096.49 143.217 1091.26 137.333C1086.04 131.449 1081.76 125.177 1075.24 120.639C1069.34 116.523 1062.5 114.075 1055.67 111.887C1050.23 110.177 1044.4 109.781 1038.83 108.668C1031.15 107.194 1023.28 106.951 1015.52 107.949C1007.51 108.912 999.99 112.059 992.338 114.485C979.387 118.812 966.946 124.54 955.237 131.565C949.865 134.44 944.69 137.67 939.747 141.233C934.54 145.279 929.263 149.51 924.037 153.594C919.066 157.515 913.785 161.177 908.911 165.196C905.386 168.096 902.197 171.228 898.444 173.875C886.075 182.566 874.884 194.248 860.5 199.73C856.756 201.109 852.872 202.07 848.918 202.596C846.108 202.872 843.319 203.334 840.569 203.977C838.638 204.504 836.735 205.217 834.833 205.832C833.294 206.362 830.343 208.115 830.025 204.211Z" stroke="#DEECF4" stroke-miterlimit="10"/>
<path d="M151.839 867.082C153.09 852.117 157.914 837.671 165.905 824.957C186.558 792.625 227.215 745.696 266.718 738.816C312.535 730.856 354.895 771.134 401.342 768.752C424.828 767.542 446.294 755.501 469.209 750.208C492.124 744.915 521.053 749.354 531.174 770.578C538.674 786.313 532.895 805.007 525.627 820.86C518.359 836.713 509.401 852.982 510.833 870.354C512.944 896.22 537.512 916.436 538.422 942.365C539.15 962.798 522.375 982.344 502.059 984.745C484.064 986.867 467.042 977.192 449.75 971.872C434.246 967.237 417.922 966.009 401.899 968.27C385.875 970.531 370.53 976.229 356.913 984.973C335.399 999.032 319.415 1020.11 299.609 1036.68C290.544 1044.16 280.279 1050.95 268.698 1052.15C251.455 1053.93 235.522 1043.09 222.856 1031.28C185.184 996.127 146.113 925.777 151.839 867.082Z" stroke="#DEECF4" stroke-miterlimit="10"/>
<path d="M265.477 906.214L265.787 907.173C270.98 921.667 282.054 932.289 297.865 934.391C301.188 935.028 304.545 935.471 307.919 935.716C311.736 935.784 315.545 935.725 319.356 935.421C323.569 935.136 327.719 934.249 331.68 932.787C335.073 931.544 337.191 928.22 338.464 925.007C345.354 907.631 324.909 889.388 317.694 875.89C311.648 864.701 310.227 851.642 305.972 839.646C301.718 827.65 292.931 815.637 280.3 814.103C265.511 812.289 252.589 826.322 250.148 841.086C247.708 855.85 252.795 870.574 257.805 884.606L265.477 906.214Z" stroke="#DEECF4" stroke-miterlimit="10" stroke-dasharray="2 4"/>
<path d="M231.38 825.005C231.814 824.914 232.214 824.706 232.537 824.403C233.461 823.171 234.036 821.714 234.202 820.183C236.767 809.581 248.444 804.339 258.957 801.591C270.85 798.478 284.326 796.937 294.741 803.455C304.703 809.681 309.262 821.562 314.756 831.854C322.531 846.387 333.211 859.166 346.133 869.397C357.73 878.562 371.901 884.811 380.038 897.783C382.682 902.317 384.733 907.171 386.142 912.226C387.544 916.562 389.313 920.974 389.011 925.681C387.823 943.46 375.458 950.049 359.844 953.29C337.554 957.758 315.738 964.333 294.692 972.927C290.805 974.81 286.648 976.077 282.372 976.684C274.436 977.328 266.702 973.005 260.802 967.551C245.875 953.729 239.414 933.146 235.338 913.242C229.307 883.829 227.131 853.756 228.867 823.782C229.039 824.866 230.275 825.265 231.38 825.005Z" stroke="#DEECF4" stroke-miterlimit="10"/>
<path d="M210.605 824.427C215.606 799.6 238.388 778.583 263.951 777.499C284.351 776.618 303.574 786.803 320.195 798.66C336.815 810.517 352.216 824.447 370.758 832.979C387.767 840.801 407.235 843.985 421.897 855.628C428.244 860.671 433.369 867.083 436.889 874.386C440.409 881.688 442.234 889.692 442.226 897.798C442.217 905.905 440.377 913.905 436.842 921.2C433.307 928.495 428.169 934.897 421.812 939.927C404.858 953.326 381.894 955.296 361.358 962.003C338.658 969.471 318.439 983.018 302.897 1001.17C299.782 1004.83 296.708 1008.78 292.401 1010.87C283.339 1015.28 272.957 1005.14 266.421 999.937C257.662 992.998 251.695 983.966 247.026 973.961C240.553 960.211 234.965 946.062 230.297 931.599C228.022 924.566 225.743 917.517 223.468 910.484C221.156 902.703 219.722 894.688 219.193 886.588C217.588 868.882 209.508 852.259 209.6 834.313C209.611 830.992 209.948 827.681 210.605 824.427Z" stroke="#DEECF4" stroke-miterlimit="10"/>
<path d="M421.605 790.816L423.447 790.416C438.512 787.188 453.286 782.721 467.616 777.06C471.486 775.581 475.576 774.225 479.698 774.684C484.044 775.383 488.045 777.472 491.103 780.638C494.938 784.039 497.599 788.566 498.706 793.571C499.224 796.068 499.102 798.655 498.353 801.093C497.604 803.53 496.251 805.739 494.42 807.514C490.088 811.342 483.831 811.688 478.028 812.229C460.047 813.842 427.406 831.516 414.661 810.49C411.188 804.788 411.393 796.155 417.017 792.593C418.438 791.752 419.988 791.151 421.605 790.816Z" stroke="#DEECF4" stroke-miterlimit="10"/>
<path d="M267.922 874.135L267.862 874.757C269.023 885.702 272.818 897.032 281.352 903.98C290.552 911.477 310.523 912.592 311.302 897.926C312.013 884.666 296.519 872.966 294.834 859.748C294.134 854.159 294.364 848.221 291.58 843.34C288.235 837.581 280.977 834.83 274.408 835.57C270.905 835.97 267.266 837.407 265.396 840.39C262.537 844.947 264.774 850.804 266.251 855.977C267.926 861.875 268.492 868.032 267.922 874.135Z" stroke="#DEECF4" stroke-miterlimit="10"/>
<path d="M453.319 948.762C454.749 949.402 456.311 949.69 457.874 949.602C465.196 949.677 472.123 952.714 478.86 955.568C485.598 958.422 492.739 961.162 500.027 960.58C507.314 959.998 514.808 955.067 515.853 947.823C516.709 942.008 513.416 936.509 510.649 931.329C505.58 921.819 501.921 911.624 499.786 901.062C499.394 897.912 498.409 894.864 496.882 892.082C495.117 889.395 491.786 887.557 488.778 888.578C483.93 890.26 484.055 897.093 485.123 902.106C487.221 911.917 491.203 920.907 483.391 929.085C476.208 936.538 465.517 938.937 456.065 942.646C454.029 943.451 451.599 944.953 452.045 947.089C452.124 947.443 452.279 947.776 452.499 948.065C452.719 948.354 452.999 948.592 453.319 948.762Z" stroke="#DEECF4" stroke-miterlimit="10"/>
<path d="M523.465 940.687C522.988 939.212 522.511 937.738 521.901 936.306C517.332 924.46 512.764 912.62 508.198 900.784C505.344 893.368 502.097 885.493 495.426 881.184C491.323 878.569 485.744 877.686 481.72 880.404C477.944 882.929 476.537 887.846 476.457 892.384C476.377 896.921 477.336 901.448 477.056 905.969C476.526 914.806 470.288 925.081 461.561 928.164C457.481 929.597 453.289 930.839 449.175 932.169C439.13 935.304 435.36 947.42 443.153 955.047C447.656 959.454 454.061 961.177 460.154 962.693C473.655 966.063 487.633 969.246 501.361 967.022C507.112 966.279 512.565 964.032 517.171 960.508C519.448 958.729 521.284 956.448 522.535 953.842C523.785 951.237 524.418 948.378 524.382 945.488C524.274 943.856 523.966 942.244 523.465 940.687Z" stroke="#DEECF4" stroke-miterlimit="10"/>
<path d="M276.963 1155.72C272.244 1127.28 290.613 1098.21 316.279 1085.11C341.945 1072 373.112 1072.83 400.475 1081.9C421.566 1088.75 443.125 1100.21 464.701 1095.01C486.037 1089.87 500.044 1070.12 517.484 1056.76C540.213 1039.41 571.779 1032.92 598.47 1043.18C630.104 1055.38 650.031 1087.58 680.293 1103.04C695.904 1111.02 714.022 1114.32 727.726 1125.16C737.259 1132.73 743.824 1143.31 750.205 1153.73L773.797 1192.08" stroke="#DEECF4" stroke-miterlimit="10"/>
<path d="M281.691 1096.31C293.762 1079.9 312.667 1069.25 332.579 1064.95C352.49 1060.64 373.333 1062.34 393.088 1067.32C415.498 1072.95 438.15 1082.86 460.831 1078.46C480.189 1074.71 495.959 1061.17 511.65 1049.25C525.057 1039.09 539.3 1029.69 555.122 1023.97C570.945 1018.25 588.59 1016.41 604.654 1021.41C624.413 1027.56 647.398 1067 664.262 1078.96C687.492 1095.39 697.583 1066.46 727.513 1088.19C758.428 1110.61 783.055 1176.74 786.002 1204.99" stroke="#DEECF4" stroke-miterlimit="10"/>
<path d="M443.028 1037.81C432.475 1036.57 422.187 1033.66 412.548 1029.18C407.188 1026.86 401.865 1024.25 396.095 1023.28C389.21 1022.14 382.166 1023.37 375.284 1022.39C368.402 1021.41 361.061 1017.04 360.29 1010.12C359.722 1005.09 362.877 1000.29 366.904 997.231C375.322 990.828 386.866 990.564 397.367 991.858C416.41 994.234 434.7 1000.83 453.628 1004.01C472.556 1007.19 493.321 1006.58 509.219 995.802C514.667 992.101 519.351 987.345 524.829 983.635C528.114 981.488 531.542 979.568 535.089 977.89C538.648 976.153 542.408 974.432 546.376 974.566C550.345 974.7 554.487 977.285 555.04 981.211C555.148 982.789 554.831 984.368 554.123 985.782C553.415 987.197 552.341 988.397 551.013 989.256C548.341 990.939 545.414 992.178 542.345 992.923C519.892 999.821 498.99 1011.01 480.794 1025.86C476.755 1029.14 473.262 1032.79 468.349 1034.77C460.257 1037.72 451.59 1038.77 443.028 1037.81Z" stroke="#DEECF4" stroke-miterlimit="10"/>
<path d="M388.024 1013.94C385.452 1014.5 382.814 1014.7 380.187 1014.53C378.875 1014.43 377.621 1013.94 376.574 1013.14C375.528 1012.35 374.732 1011.26 374.283 1010.02C373.378 1006.47 376.623 1003.21 379.911 1001.59C390.214 996.533 402.623 999.296 413.263 1003.59C423.904 1007.89 434.261 1013.72 445.7 1014.7C449.217 1014.99 452.899 1014.85 456.04 1016.45C459.182 1018.06 461.364 1022.29 459.344 1025.16C458.297 1026.42 456.894 1027.35 455.316 1027.81C444.404 1031.89 430.829 1031.87 422.416 1023.43C414.004 1015 399.526 1012.29 388.024 1013.94Z" stroke="#DEECF4" stroke-miterlimit="10"/>
<path d="M344.072 482.63C343.284 486.348 343.542 490.211 344.815 493.791C349.115 506.734 358.465 512.782 371.282 508.849C385.966 504.344 401.479 499.832 416.684 504.443C431.889 509.054 443.785 519.849 454.457 530.992C465.911 542.94 494.487 579.678 514.342 564.217C519.549 560.172 521.12 552.693 519.585 546.234C518.051 539.776 513.963 534.338 509.448 529.544C495.185 514.4 474.528 502.903 467.489 482.247C466.285 479.269 465.966 476.008 466.569 472.853C467.858 467.876 472.691 464.538 477.663 463.19C487.916 460.396 498.893 462.66 509.221 460.297C526.286 456.407 538.386 438.975 536.454 421.668C535.724 415.726 533.516 410.062 530.032 405.194C526.548 400.325 521.9 396.408 516.512 393.799C506.587 389.508 495.372 389.291 485.289 393.196C473.577 397.42 464.019 406.117 458.71 417.378C454.46 426.196 451.977 435.843 447.762 444.617C442.188 456.388 432.247 468.561 417.754 464.942C413.001 463.743 408.507 461.531 403.818 460.23C387.172 455.645 348.708 462.466 344.072 482.63Z" stroke="#DEECF4" stroke-miterlimit="10"/>
<path d="M448.463 552.899C430.955 538.397 411.465 523.51 388.742 522.747C376.523 522.334 364.148 526.124 352.193 523.557C336.115 520.124 323.85 504.562 323.071 488.152C322.292 471.741 332.346 455.688 346.912 447.899C353.752 444.462 361.145 442.259 368.75 441.39C385.316 439.177 402.171 440.989 417.888 446.673C420.599 447.653 423.653 448.734 426.286 447.459C429.633 445.822 430.158 441.402 430.833 437.747C441.354 380.986 548.075 352.042 559.457 421.786C561.254 432.378 561.146 443.928 555.526 453.092C547.439 466.261 530.599 470.649 515.299 472.795C509.283 473.633 502.544 474.705 498.947 479.598C496.129 483.474 496.149 488.875 497.873 493.35C499.835 497.736 502.617 501.707 506.071 505.049C515.512 515.155 526.205 524.499 532.471 536.822C538.737 549.145 539.347 565.74 529.483 575.429C503.922 600.391 468.476 569.506 448.463 552.899Z" stroke="#DEECF4" stroke-miterlimit="10"/>
<path d="M413.052 550.93C424.689 557.942 435.86 565.7 446.494 574.156C458.44 583.648 470.157 594.192 484.805 598.592C500.31 603.171 517.06 600.018 532.411 594.956C537.749 593.23 543.154 591.107 547.207 587.223C550.733 583.581 553.298 579.119 554.67 574.239C558.693 561.552 558.033 547.844 552.811 535.603C548.754 526.182 542.137 518.06 537.416 508.951C535.123 504.53 533.237 499.553 534.109 494.645C535.293 488.236 540.73 483.643 545.853 479.641C558.261 469.912 571.488 459.135 575.374 443.855C578.665 430.917 574.514 417.324 569.675 404.979C565.434 394.135 560.411 383.234 551.985 375.21C536.99 360.774 513.404 358.353 493.519 364.604C473.634 370.856 457.07 384.405 442.296 398.956C434.117 407.057 426.095 415.743 415.71 420.698C403.715 426.418 389.918 426.564 376.743 427.828C362.371 429.218 347.915 432.264 335.243 439.164C322.572 446.063 311.825 457.406 307.932 471.304C300.748 496.935 318.61 524.466 341.18 535.735C352.709 541.469 360.985 540.063 372.94 538.803C387.327 537.359 401.047 543.672 413.052 550.93Z" stroke="#DEECF4" stroke-miterlimit="10"/>
<path d="M356.523 487.285C356.292 488.793 356.561 490.335 357.289 491.676C358.017 493.017 359.163 494.083 360.553 494.712C363.395 495.891 366.573 495.972 369.471 494.939C372.339 493.915 375.134 492.696 377.835 491.289C382.608 488.817 387.97 487.709 393.331 488.086C399.274 488.786 404.949 492.179 410.858 491.262C411.604 491.188 412.315 490.902 412.904 490.437C413.481 489.796 413.825 488.979 413.88 488.118C414.171 485.31 413.495 482.487 411.964 480.115C410.433 477.743 408.139 475.965 405.46 475.075C398.25 472.927 390.954 477.714 383.493 478.514C379.823 478.903 376.118 478.325 372.413 478.351C367.129 478.431 357.911 481.152 356.523 487.285Z" stroke="#DEECF4" stroke-miterlimit="10"/>
<path d="M511.333 544.538C511.562 545.241 511.603 545.991 511.451 546.715C511.224 547.42 510.798 548.044 510.224 548.512C507.186 551.254 502.402 551.27 498.653 549.6C495.016 547.693 491.802 545.07 489.205 541.889C486.074 538.504 465.1 519.227 476.301 516.745C479.901 515.939 482.538 519.712 484.881 521.82C489.169 525.662 494.345 528.37 499.184 531.447C504.023 534.524 509.737 538.393 511.333 544.538Z" stroke="#DEECF4" stroke-miterlimit="10"/>
<path d="M498.66 450.455C496.054 450.234 493.56 449.3 491.451 447.754C488.794 445.583 487.57 442.151 486.487 438.902L482.868 428.215C481.471 423.895 479.99 419.064 481.938 414.965C482.452 413.791 483.317 412.806 484.414 412.144C486.793 410.789 489.823 411.698 492.227 413.038C494.632 414.378 496.87 416.162 499.586 416.603C504.123 417.335 508.548 414.096 513.125 414.602C518.888 415.247 522.312 421.404 523.536 427.1C524.957 433.66 524.495 442.507 518.327 446.701C513.222 450.257 504.608 451.219 498.66 450.455Z" stroke="#DEECF4" stroke-miterlimit="10"/>
<path d="M130.913 637.386C135.802 651.294 146.035 662.79 157.721 671.78C164.73 677.185 172.397 681.905 181.033 684.031C189.669 686.157 199.153 685.516 206.639 680.815C209.578 678.804 212.311 676.507 214.797 673.958L225.099 664.112C229.35 660.033 233.851 655.467 234.53 649.66C235.299 642.669 230.167 636.168 223.864 632.946C217.561 629.723 210.457 628.91 203.563 627.588C201.118 627.239 198.784 626.34 196.735 624.959C194.729 623.26 193.208 621.06 192.328 618.583C188.887 610.461 187.487 600.994 181.161 594.831C175.321 589.162 166.39 587.685 158.355 589.03C150.321 590.374 136.19 594.374 131.991 602.442C126.672 612.99 127.09 626.521 130.913 637.386Z" stroke="#DEECF4" stroke-miterlimit="10"/>
<path d="M117.768 569.695C122.258 565.897 127.847 563.639 133.714 563.251C139.533 562.874 145.375 563.125 151.14 564C157.492 564.475 163.762 565.73 169.808 567.735C177.291 570.577 183.731 575.629 188.272 582.221C192.055 587.724 194.4 594.117 198.207 599.596C202.064 605.125 207.296 609.552 213.388 612.44C222.807 616.886 234.165 617.61 242.029 624.449C246.274 628.157 249.007 633.284 251.308 638.436C253.488 642.746 254.722 647.473 254.928 652.298C254.884 657.199 252.915 662.038 250.987 666.603C249.45 670.831 247.31 674.815 244.632 678.431C240.619 683.296 234.819 686.312 229.018 688.823C217.78 693.462 206.28 697.436 194.576 700.727C193.957 700.927 193.049 701.042 192.849 700.422C192.648 699.803 193.935 699.55 193.645 700.165" stroke="#DEECF4" stroke-miterlimit="10"/>
<path d="M120.551 521.642C125.662 519.566 131.022 517.457 136.527 517.909C141.032 518.532 145.347 520.133 149.168 522.599C158.959 528.215 167.902 535.194 175.727 543.328C187.647 555.761 197.048 570.881 211.307 580.521C216.158 583.838 222.37 586.374 227.665 583.912C229.53 582.905 231.126 581.463 232.316 579.709C233.506 577.954 234.257 575.939 234.504 573.834C234.952 569.612 234.605 565.343 233.48 561.249C230.278 546.664 225.176 532.401 223.933 517.526C223.176 508.487 224.057 498.771 229.532 491.528C232.007 488.252 235.329 485.63 237.565 482.171C242.475 474.589 241.26 464.688 239.909 455.825" stroke="#DEECF4" stroke-miterlimit="10"/>
<path d="M131.474 508.679C145.984 508.775 160.983 511.84 172.594 520.545C181.858 527.485 188.287 537.442 195.691 546.335C197.436 548.717 199.671 550.699 202.245 552.147C203.539 552.857 205.006 553.19 206.479 553.108C207.953 553.026 209.374 552.532 210.581 551.683C212.827 549.816 213.385 546.606 213.421 543.695C213.512 535.767 210.959 528.074 208.419 520.572C205.879 513.071 203.267 505.397 203.215 497.482C203.164 489.566 206.086 481.178 212.782 476.7" stroke="#DEECF4" stroke-miterlimit="10"/>
<path d="M257.14 617.184C255.496 614.798 254.326 612.119 253.691 609.292C253.397 607.869 253.451 606.396 253.85 604.999C254.25 603.602 254.982 602.322 255.983 601.27C260.052 597.381 267.773 599.298 271.2 594.834C271.911 593.555 272.734 592.341 273.658 591.205C275.98 589.119 279.63 590.333 282.442 591.622C290.04 594.956 297.251 599.113 303.943 604.018C310.664 608.961 315.852 615.701 318.913 623.462C320.892 628.978 321.253 635.735 317.474 640.215C315.785 642.045 313.793 643.57 311.586 644.725C305.139 648.523 298.504 651.995 291.708 655.128C286.039 657.743 282.324 660.508 279.408 653.91C273.369 640.422 264.942 629.678 257.14 617.184Z" stroke="#DEECF4" stroke-miterlimit="10"/>
<path d="M266.851 619.109C266.005 617.753 265.139 616.03 265.818 614.556C266.042 614.151 266.343 613.793 266.706 613.505C267.069 613.218 267.485 613.005 267.931 612.88C269.823 612.523 271.758 612.446 273.672 612.652C275.594 612.6 277.781 611.86 278.42 610.058C278.676 609.339 278.654 608.565 278.846 607.851C279.215 606.815 279.903 605.921 280.811 605.3C281.719 604.679 282.801 604.361 283.901 604.392C286.082 604.477 288.211 605.084 290.109 606.163C297.047 609.636 303.782 614.446 306.997 621.517C312.677 634.046 303.299 645.337 290.232 644.416C279.382 643.706 271.807 627.132 266.851 619.109Z" stroke="#DEECF4" stroke-miterlimit="10"/>
<path d="M673.333 410.432C681.41 397.836 686.268 383.446 691.085 369.331C695.287 357.14 699.412 344.715 699.39 331.854C699.169 323.974 698 316.15 695.908 308.549C694.851 303.211 692.918 298.085 690.188 293.378C687.085 288.567 682.555 284.885 678.128 281.268C672.78 276.971 667.164 272.549 660.513 270.97C655.654 270.112 650.685 270.067 645.812 270.838C624.905 272.925 603.942 275.942 584.09 282.802C564.239 289.662 545.342 300.48 531.591 316.329C527.064 321.571 522.973 329.067 526.433 335.082C528.731 339.063 533.787 340.848 538.354 340.414C542.92 339.979 547.164 337.89 551.178 335.647C561.891 329.691 572.048 322.773 583.036 317.363C594.023 311.953 606.089 308.067 618.331 308.701C630.573 309.336 642.983 315.176 649.403 325.609C655.571 335.667 655.437 348.447 652.82 359.945C650.203 371.444 645.4 382.33 642.597 393.807C639.681 405.842 638.209 425.114 649.571 433.655C655.744 438.288 658.456 433.176 661.486 428.091C665.084 421.993 669.486 416.416 673.333 410.432Z" stroke="#DEECF4" stroke-miterlimit="10"/>
<path d="M550.93 315.694C550.063 317.342 549.521 319.798 551.13 320.743C551.884 321.079 552.728 321.155 553.53 320.961C563.56 319.492 572.148 313.311 580.926 308.273C593.002 301.241 606.415 295.828 620.356 295.521C634.296 295.215 648.904 300.85 657.002 312.239C663.346 321.181 665.145 332.685 664.38 343.616C663.616 354.548 660.585 365.22 657.842 375.879C656.932 378.736 656.685 381.762 657.121 384.728C657.761 387.665 660.157 390.441 663.152 390.482C667.41 390.555 669.83 385.7 670.93 381.598C672.941 374.166 674.1 366.529 674.384 358.835C674.59 353.882 674.41 348.842 674.89 343.882C675.295 339.696 676.166 335.538 676.267 331.319C676.604 317.251 667.853 303.941 655.947 296.438C644.042 288.936 629.35 286.668 615.292 287.468C592.393 288.782 562.619 293.264 550.93 315.694Z" stroke="#DEECF4" stroke-miterlimit="10"/>
<path d="M631.696 351.841C621.736 377.612 621.072 406.05 629.818 432.258C633.117 442.006 638.896 452.369 648.886 454.855C660.113 457.641 670.947 449.186 678.392 440.329C706.286 407.218 715.706 361.808 714.221 318.539" stroke="#DEECF4" stroke-miterlimit="10"/>
<path d="M627.252 999.065C638.613 1009.92 648.039 1022.8 660.187 1032.76C662.625 1034.76 665.357 1036.71 668.486 1036.97C678.667 1037.83 681.535 1022.98 689.6 1016.64C696.417 1011.18 706.65 1012.85 714.231 1017.26C721.812 1021.66 727.604 1028.39 734.738 1033.43C742.949 1039.25 752.578 1042.76 762.612 1043.57C769.532 1044.12 778.067 1042.2 780.087 1035.55C781.607 1030.54 778.546 1025.35 775.359 1021.19C759.876 1000.99 738.594 985.998 714.36 978.223C700.946 973.962 686.805 971.987 673.822 966.544C663.31 962.142 653.846 955.593 644.007 949.898C634.169 944.203 623.411 939.294 612.032 938.658C600.653 938.021 588.41 942.421 582.247 952.02C575.09 963.179 578.992 976.755 590.561 980.799C604.767 985.847 615.128 987.464 627.252 999.065Z" stroke="#DEECF4" stroke-miterlimit="10"/>
<path d="M627.669 952.006C617.647 948.113 605.66 946.403 596.644 952.267C595.014 953.247 593.638 954.596 592.624 956.205C590.443 960.038 591.736 965.092 594.607 968.431C597.479 971.77 601.593 973.713 605.67 975.392C616.344 979.79 627.885 983.143 636.411 990.924C646.77 1000.39 651.813 1015.68 664.416 1021.87C665.177 1022.33 666.024 1022.64 666.906 1022.77C667.788 1022.9 668.687 1022.86 669.551 1022.64C671.438 1022.02 672.465 1020.06 673.476 1018.3C676.332 1013.75 680.415 1010.1 685.256 1007.76C690.096 1005.43 695.497 1004.51 700.838 1005.11C707.525 1005.94 713.618 1009.12 719.837 1011.83C726.057 1014.54 732.811 1016.69 739.435 1015.26C740.142 1015.18 740.803 1014.87 741.315 1014.38C741.611 1013.98 741.808 1013.52 741.89 1013.04C743.486 1006.18 739.531 998.994 733.958 994.704C728.385 990.415 721.41 988.436 714.624 986.543L662.277 971.89C655.345 969.946 651.982 966.245 646.402 962.186C640.614 958.013 634.319 954.592 627.669 952.006Z" stroke="#DEECF4" stroke-miterlimit="10"/>
<path d="M662.49 1006.6C659.65 1004.45 657.103 1001.95 654.916 999.142C648.214 991.523 640.416 984.943 631.778 979.62C627.055 976.701 622.084 974.171 617.624 970.858C615.453 969.182 613.092 966.362 614.481 963.958C615.87 961.555 619.154 962.04 621.636 962.915C630.811 966.104 638.564 972.099 646.583 977.454C654.602 982.809 663.379 987.789 672.949 988.472C677.239 988.795 682.562 988.784 684.537 992.624C685.977 995.416 684.577 998.996 682.187 1001.02C679.298 1003.47 675.272 1005.38 672.215 1007.51C669.157 1009.63 665.554 1008.62 662.49 1006.6Z" stroke="#DEECF4" stroke-miterlimit="10"/>
<path d="M803.438 1149.96C793.856 1133.81 782.806 1118.57 770.427 1104.45C763.257 1096.28 755.423 1088.27 751.392 1078.18C750.165 1075.14 749.325 1071.48 751.061 1068.69C751.867 1067.57 752.94 1066.67 754.182 1066.07C755.423 1065.47 756.795 1065.19 758.173 1065.25C760.926 1065.39 763.644 1065.93 766.245 1066.84C770.639 1068.07 775.11 1069.01 779.629 1069.65C785.253 1070.42 792.225 1070.07 794.926 1065.07C796.506 1062.15 796.396 1058.08 799.229 1056.37C801.579 1055.02 804.528 1056.28 806.929 1057.41C815.64 1061.65 824.487 1065.61 833.468 1069.27C840.544 1072.16 848.174 1074.91 855.681 1073.49C861.361 1072.42 866.527 1069 872.307 1068.85C876.102 1068.86 879.821 1069.91 883.062 1071.88C894.213 1078.26 900.617 1090.46 905.533 1102.34C905.662 1102.73 905.829 1103.25 905.533 1103.54C905.236 1103.83 904.599 1103.23 905.003 1103.06" stroke="#DEECF4" stroke-miterlimit="10"/>
<path d="M808.205 1135.95C801.337 1129.68 794.835 1123.03 788.731 1116.02C786.084 1112.87 783.398 1109.6 780.755 1106.47L772.49 1096.27C768.913 1091.86 765.273 1087.35 763.243 1082.03C762.969 1081.47 762.872 1080.83 762.965 1080.22C763.337 1078.65 765.495 1078.47 767.07 1078.81C770.27 1079.68 773.415 1080.75 776.49 1082C784.547 1084.76 793.191 1085.34 801.543 1083.67C804.081 1083.16 806.998 1082.05 807.633 1079.53C808.359 1076.74 805.965 1073.17 808.094 1071.24C809.345 1070.07 811.428 1070.52 813.055 1071.17C819.686 1073.79 825.425 1078.24 831.587 1081.83C837.75 1085.43 844.84 1088.27 851.893 1087.16C855.598 1086.58 859.107 1084.94 862.859 1084.6C865.33 1084.41 867.812 1084.78 870.113 1085.7C872.414 1086.62 874.471 1088.06 876.123 1089.91C878.233 1092.3 879.578 1095.31 881.442 1097.85C883.882 1101.21 887.196 1103.85 889.784 1107.12C890.23 1107.69 890.356 1108.89 889.612 1108.81" stroke="#DEECF4" stroke-miterlimit="10"/>
<path d="M688.221 1043.6C689.344 1041.28 689.74 1038.68 690.737 1036.27C691.612 1034.17 692.928 1032.27 694.596 1030.71C696.265 1029.16 698.246 1027.98 700.409 1027.25C701.529 1026.82 702.743 1026.7 703.926 1026.89C705.99 1027.33 707.395 1029.16 708.699 1030.82C713.996 1037.53 720.368 1043.31 727.556 1047.93C729.427 1049.14 731.575 1050.64 731.623 1052.86C731.559 1053.74 731.224 1054.59 730.663 1055.28C730.101 1055.96 729.342 1056.46 728.487 1056.71C726.754 1057.13 724.936 1057.04 723.255 1056.44C717.11 1054.67 711.856 1050.36 705.529 1049.28C698.913 1048.16 692.306 1050.95 685.618 1051.27C683.745 1051.37 681.106 1050.61 682.371 1048.38C682.809 1047.62 684.648 1047.41 685.339 1046.93C686.563 1046.08 687.555 1044.94 688.221 1043.6Z" stroke="#DEECF4" stroke-miterlimit="10"/>
<path d="M546.383 950.914C544.827 955.017 544.028 960.455 547.548 963.079C549.5 964.532 552.122 964.531 554.514 964.979C557.238 965.5 559.805 966.636 562.021 968.303C564.237 969.969 566.042 972.12 567.298 974.592C567.953 975.911 569.035 977.597 570.422 977.1C571.808 976.602 571.519 974.497 570.948 973.086C568.2 966.352 565.937 959.152 566.609 951.914C567.282 944.677 571.465 937.314 578.318 934.886C582.355 933.417 586.772 933.78 591.042 933.686C595.412 933.628 599.767 933.142 604.042 932.235C606.021 931.806 608.188 931.154 609.208 929.424C610.229 927.693 609.759 925.434 609.134 923.503C605.124 910.996 597.103 900.161 586.313 892.673C584.264 890.976 581.689 890.047 579.029 890.044C575.875 890.364 573.385 893.091 572.207 896.045C571.252 899.088 570.589 902.215 570.227 905.383C569.863 908.583 568.384 911.553 566.05 913.771C563.028 916.213 558.804 916.244 554.934 916.567C551.064 916.89 546.682 918.047 544.96 921.536C543.637 924.244 544.373 927.475 545.347 930.336C548.079 938.231 549.495 942.709 546.383 950.914Z" stroke="#DEECF4" stroke-miterlimit="10"/>
<path d="M551.296 948.934C552.665 946.016 554.632 943.132 554.499 939.901C554.393 937.509 553.124 935.346 552.301 933.104C551.478 930.862 551.081 928.123 552.558 926.245C553.45 925.25 554.61 924.536 555.9 924.187C560.736 922.623 566.784 922.589 569.557 918.37C571.891 914.862 570.924 909.604 573.934 906.725C575.01 905.859 576.298 905.295 577.665 905.094C579.032 904.892 580.428 905.06 581.708 905.579C584.244 906.661 586.562 908.197 588.548 910.11C591.704 912.819 594.972 915.672 596.486 919.547C596.944 920.512 597.111 921.59 596.968 922.649C596.449 925.276 593.288 926.38 590.691 926.91C583.611 928.385 576.254 929.559 570.079 933.332C563.905 937.104 559.169 944.369 560.782 951.421C562.004 956.71 563.427 962.521 556.343 960.056C550.817 958.129 548.488 954.957 551.296 948.934Z" stroke="#DEECF4" stroke-miterlimit="10"/>
<path d="M529.772 851.606C529.037 841.582 532.177 831.659 538.543 823.882C541.851 820.011 546.055 816.892 549.203 812.926C553.475 807.522 555.751 800.808 555.646 793.919C555.563 787.317 553.278 780.955 552.15 774.446C551.335 769.756 551.121 764.982 551.513 760.238C551.485 759.209 551.662 758.186 552.034 757.226C552.407 756.267 552.966 755.391 553.68 754.651C554.442 754.127 555.328 753.812 556.249 753.737C557.171 753.662 558.096 753.829 558.933 754.222C560.614 755.034 562.075 756.237 563.194 757.73C568.005 763.439 570.705 770.579 574.012 777.279C577.319 783.979 581.601 790.672 588.319 794.021C592.788 796.257 597.983 796.857 602.233 799.473C607.049 802.427 610.201 808.298 609.088 813.821C607.903 819.774 602.563 823.863 599.624 829.178C594.881 837.83 597.129 848.407 597.026 858.262C596.99 861.172 596.628 864.335 594.605 866.439C592.31 868.81 588.499 869.065 585.287 868.198C582.17 867.075 579.113 865.791 576.128 864.352C573.026 863.173 569.399 862.635 566.489 864.212C564.512 865.505 562.877 867.258 561.724 869.32L556.682 876.847C554.034 880.798 551.049 883.554 546.018 882.25C543.02 881.625 540.34 879.959 538.454 877.546C533.351 869.802 530.358 860.861 529.772 851.606Z" stroke="#DEECF4" stroke-miterlimit="10"/>
<path d="M535.429 851.975C534.828 844.124 536.426 835.365 542.523 830.397C545.377 828.04 548.947 826.69 552.067 824.655C556.663 821.54 559.827 816.77 562.893 812.147C563.977 810.709 564.788 809.083 565.283 807.351C565.568 805.69 565.57 803.994 565.289 802.332L562.92 783.423C562.826 783.071 562.81 782.703 562.874 782.344C562.938 781.986 563.081 781.646 563.291 781.349C564.206 780.45 565.697 781.434 566.521 782.421C572.005 789.052 575.264 797.82 582.51 802.448C586.817 805.192 592.709 806.739 594.361 811.645C595.381 814.801 594.16 818.225 592.527 821.082C590.894 823.94 588.699 826.571 587.72 829.738C586.362 834.152 587.427 838.905 588.288 843.432C589.149 847.958 589.609 852.956 587.241 856.914C586.745 857.886 585.915 858.646 584.904 859.055C583.63 859.295 582.313 859.067 581.194 858.414C578.326 856.957 575.368 855.683 572.338 854.6C569.267 853.518 565.902 853.613 562.897 854.868C555.179 858.602 556.067 873.739 547.756 875.287C538.414 877.021 535.867 857.811 535.429 851.975Z" stroke="#DEECF4" stroke-linecap="round" stroke-linejoin="round" stroke-dasharray="1.97 3.95"/>
<path d="M541.77 860.805C541.829 861.288 541.985 861.755 542.228 862.177C542.471 862.599 542.796 862.969 543.184 863.263C544.652 864.075 546.326 862.605 547.304 861.246C551.3 855.622 553.986 848.971 558.998 844.223C560.395 842.669 562.324 841.696 564.404 841.497C566.477 841.462 568.304 842.679 570.153 843.612C572.002 844.545 574.31 845.183 576.059 844.096C578.43 842.613 578.181 839.175 578.167 836.362C578.168 832.707 579.055 829.106 580.751 825.868C581.667 824.432 582.392 822.883 582.91 821.261C583.14 819.855 583.062 818.415 582.68 817.042C582.298 815.669 581.621 814.396 580.697 813.311C579.229 811.392 576.878 809.66 574.577 810.404C573.782 810.706 573.068 811.19 572.493 811.817C571.919 812.444 571.498 813.197 571.266 814.016C570.688 815.603 570.516 817.337 570.031 818.96C568.327 824.82 562.906 828.756 557.552 831.693C552.819 834.282 544.812 836.921 541.42 841.389C537.571 846.412 540.339 855.371 541.77 860.805Z" stroke="#DEECF4" stroke-miterlimit="10"/>
<path d="M394.92 753.174C379.408 752.147 364.399 747.489 349.567 742.823L319.697 733.41L290.111 724.02C288.13 723.459 286.227 722.652 284.448 721.616C277.533 717.207 277.054 706.661 281.283 699.642C285.511 692.623 293.004 688.343 300.243 684.487C307.2 680.82 314.196 677.27 321.884 675.859C326.996 675.014 332.185 674.729 337.359 675.008C349.686 675.354 362.205 676.745 373.651 681.464C379.412 683.868 384.789 687.097 390.44 689.765C402.255 695.326 415.103 698.288 427.318 703.068C437.285 706.995 447.436 712.849 451.745 722.646C453.194 725.712 453.691 729.143 453.171 732.495C451.273 742.49 438.56 743.572 430.916 747.184C419.621 752.207 407.233 754.269 394.92 753.174Z" stroke="#DEECF4" stroke-miterlimit="10"/>
<path d="M293.427 712.67C294.741 715.675 297.14 718.075 300.145 719.39C303.426 720.821 307.121 720.815 310.688 720.867C324.339 721.323 337.837 723.886 350.705 728.464C357.842 731.042 364.763 734.162 372.078 736.08C384.643 739.379 397.816 738.913 410.798 738.461C415.94 738.297 421.304 738.061 425.801 735.548C430.298 733.034 433.509 727.452 431.636 722.666C430.084 718.673 425.677 716.58 421.52 715.563C414.904 713.94 407.993 714.025 401.322 712.485C395.258 710.801 389.386 708.492 383.799 705.594C364.014 696.34 342.513 688.277 320.813 690.881C316.145 691.201 311.645 692.752 307.771 695.375C303.824 698.281 301.497 702.568 296.86 704.295C292.969 705.814 291.545 708.31 293.427 712.67Z" stroke="#DEECF4" stroke-miterlimit="10"/>
<path d="M309.575 709.467C310.286 711.664 312.805 712.706 315.091 712.976C318.954 713.437 322.848 712.585 326.723 712.179C335.854 711.239 345.066 712.836 353.348 716.794C357.369 718.751 361.096 721.162 365.067 723.167C374.672 727.983 385.415 730.069 396.124 729.199C397.97 729.17 399.775 728.654 401.357 727.703C402.13 727.203 402.706 726.453 402.99 725.578C403.274 724.703 403.247 723.757 402.914 722.899C402.336 721.968 401.485 721.237 400.478 720.804C391.868 716.341 381.444 717.35 372.106 714.914C367.318 713.45 362.607 711.744 357.993 709.803C348.893 706.586 339.41 704.577 329.788 703.826C325.64 703.441 306.588 699.879 309.575 709.467Z" stroke="#DEECF4" stroke-miterlimit="10"/>
<path d="M340.693 799.996C344.448 802.592 348.516 804.697 352.396 807.123C355.883 809.567 359.569 811.715 363.414 813.544C365.346 814.448 367.441 814.953 369.572 815.028C371.704 815.102 373.829 814.746 375.819 813.979C376.175 813.859 376.483 813.628 376.698 813.32C376.898 812.872 376.92 812.364 376.759 811.9C375.929 808.037 374.584 804.303 372.762 800.798C371.788 798.946 370.645 796.971 370.958 794.866C371.39 792.023 374.38 790.339 377.016 789.324C379.652 788.308 382.744 787.243 384.031 784.677C384.542 783.486 384.693 782.172 384.466 780.897C384.239 779.622 383.643 778.441 382.753 777.5C380.922 775.649 378.52 774.469 375.936 774.151C370.26 773.218 364.545 774.936 358.838 775.673C348.627 776.916 338.271 775.29 328.931 770.98C326.715 769.97 324.444 768.033 322.585 770.345C321.48 771.712 321.389 775.259 321.668 776.928C322.306 780.712 325.761 784.546 327.984 787.541C331.491 792.377 335.787 796.587 340.693 799.996Z" stroke="#DEECF4" stroke-miterlimit="10"/>
<path d="M356.556 801.706C357.645 800.035 356.792 797.851 355.921 796.064C355.05 794.277 354.187 792.113 355.221 790.427C356.163 789.271 357.504 788.511 358.98 788.299C360.572 787.882 362.475 787.169 362.646 785.485C362.818 783.8 361.147 782.712 359.592 782.286C356.228 781.576 352.722 782.054 349.671 783.638C347.392 784.701 345.032 786.165 342.561 785.677C341.459 785.353 340.385 784.944 339.347 784.452C336.719 783.478 334.426 785.05 335.589 787.688C336.285 789.238 340.104 791.879 341.476 793.048C345.913 796.857 351.03 799.794 356.556 801.706Z" stroke="#DEECF4" stroke-miterlimit="10"/>
<path d="M236.448 778.428C237.193 775.695 239.918 774.049 242.488 772.827C251.469 768.978 261.304 767.555 271.008 768.701C280.671 769.869 290.099 772.499 298.972 776.499C300.481 777.26 302.112 777.752 303.791 777.954C304.632 778.038 305.48 777.891 306.244 777.53C307.008 777.168 307.659 776.604 308.127 775.9C308.587 774.954 308.732 773.885 308.541 772.851C307.743 766.756 301.34 763.175 295.497 761.221C279.756 755.99 262.84 755.409 246.777 759.55C244.658 759.997 242.634 760.817 240.801 761.971C237.605 764.226 235.613 768.34 231.771 769.305C231.403 769.424 231.187 769.966 231.494 770.209C231.8 770.452 232.271 769.844 231.935 769.659" stroke="#DEECF4" stroke-miterlimit="10"/>
<path d="M395.633 803.174C396.42 809.434 399.771 814.963 403.856 819.685C410.726 827.594 419.639 833.462 429.619 836.648C434.536 838.201 439.664 839.1 444.525 840.834C449.385 842.569 454.11 845.292 456.943 849.62C458.287 852.033 459.498 854.518 460.572 857.063C462.133 860.367 464.565 863.184 467.605 865.212C469.125 866.215 470.847 866.87 472.649 867.132C474.45 867.394 476.288 867.256 478.03 866.727C484.046 864.781 486.853 857.798 487.537 851.502C488.221 845.205 487.584 838.652 489.876 832.748C493.885 822.428 505.754 817.026 510.568 807.032C512.034 803.692 512.799 800.087 512.816 796.439C512.833 792.792 512.1 789.18 510.665 785.827C507.712 779.118 503.159 773.237 497.405 768.697C495.164 766.717 492.629 765.097 489.891 763.895C484.812 761.84 479.041 762.176 473.693 763.368C464.574 765.389 456.066 769.801 447.245 773.045C435.311 777.442 422.507 780.964 410.202 784.162C405.693 785.327 402.546 785.367 399.372 789.504C396.428 793.417 395.091 798.307 395.633 803.174Z" stroke="#DEECF4" stroke-miterlimit="10"/>
<path d="M460.207 840.877C463.098 844.226 464.972 848.31 467.533 851.896C469.43 854.54 472.357 857.144 475.515 856.432C476.073 856.328 476.587 856.06 476.992 855.661C477.262 855.296 477.457 854.882 477.566 854.441C477.676 854.001 477.696 853.543 477.628 853.094C477.377 848.289 474.496 843.813 474.412 838.97C474.372 835.726 475.597 832.561 475.817 829.313C476.037 826.066 474.787 822.252 471.689 821.234C468.591 820.216 465.326 822.559 463.166 825.098C461.007 827.637 459.171 830.674 456.083 831.803C453.551 832.736 450.654 832.19 448.156 833.226C446.719 833.821 446.421 835.416 447.762 836.139C448.357 836.468 450.854 835.627 451.652 835.728C455.041 836.33 458.088 838.164 460.207 840.877Z" stroke="#DEECF4" stroke-miterlimit="10"/>
<path d="M420.933 803.999C421.688 805.763 422.998 807.232 424.665 808.183C431.122 812.186 439.528 810.429 446.615 807.713C453.701 804.998 460.845 801.352 468.422 801.964C472.173 802.282 475.807 803.647 479.575 803.667C483.344 803.686 487.581 801.729 488.359 798.041C489.055 794.803 486.79 791.626 484.097 789.646C481.913 788.055 479.414 786.949 476.768 786.4C474.121 785.852 471.389 785.874 468.752 786.465C462.18 788.004 456.991 792.908 451.022 796.059C447.926 797.695 444.607 798.868 441.17 799.539C437.716 800.163 434.202 800.398 430.695 800.239C427.133 800.202 418.411 797.306 420.933 803.999Z" stroke="#DEECF4" stroke-miterlimit="10"/>
<path d="M440.494 864.028C439.804 862.874 439.313 861.612 439.042 860.296C438.904 859.626 438.95 858.932 439.174 858.286C439.398 857.64 439.792 857.067 440.315 856.626C441.081 856.188 441.973 856.021 442.846 856.152C443.72 856.283 444.523 856.706 445.126 857.351C446.301 858.663 447.223 860.182 447.845 861.83C449.631 865.546 452.021 868.94 454.92 871.872C456.664 873.637 458.834 875.313 461.31 875.212C463.095 875.14 464.956 874.147 466.572 874.912C467.157 875.281 467.652 875.776 468.022 876.361C468.391 876.946 468.626 877.606 468.708 878.293C469.777 883.11 468.531 888.122 466.73 892.728C464.93 897.333 462.519 901.663 461.095 906.375C460.474 908.958 459.704 911.502 458.787 913.995C457.441 917.085 452.371 922.764 449.23 918.34C447.014 915.213 450.314 912.223 450.832 909.14C452.422 899.554 450.161 888.835 447.185 879.732C445.371 874.33 443.133 869.079 440.494 864.028Z" stroke="#DEECF4" stroke-miterlimit="10"/>
<path d="M463.858 891.148C464.336 889.75 464.528 888.27 464.421 886.797C464.436 886.028 464.295 885.265 464.005 884.553C463.856 884.201 463.619 883.893 463.318 883.657C463.016 883.421 462.66 883.265 462.282 883.205C461.239 883.102 460.33 883.966 459.29 884.026C458.762 884.009 458.247 883.856 457.794 883.584C457.341 883.311 456.965 882.927 456.702 882.469C456.16 881.542 455.566 880.646 454.923 879.787C454.78 879.601 454.582 879.466 454.358 879.399C453.883 879.292 453.443 879.695 453.238 880.168C452.175 882.271 453.099 884.774 453.971 886.968C454.752 888.894 455.275 890.916 455.525 892.98C455.659 894.452 454.951 896.798 456.591 897.636C459.015 898.888 463.179 893.029 463.858 891.148Z" stroke="#DEECF4" stroke-miterlimit="10"/>
<path d="M370.836 865.805C365.488 862.111 359.753 858.933 355.059 854.441C353.521 853.232 352.496 851.486 352.192 849.553C352.07 846.71 354.909 844.456 357.729 844.163C360.583 844.107 363.405 844.774 365.931 846.104L391.621 856.998C397.347 859.214 402.848 861.973 408.049 865.237C412.542 868.4 416.682 872.035 420.4 876.081C424.133 879.619 427.156 883.838 429.306 888.511C431.541 894.567 431.666 901.201 429.662 907.338C427.66 913.424 424.672 919.139 420.816 924.255C418.825 927.114 416.539 930.117 413.162 931.209C403.947 934.597 406.049 924.877 405.414 919.643C404.478 912.301 402.355 905.16 399.13 898.498C392.686 885.336 382.937 874.071 370.836 865.805Z" stroke="#DEECF4" stroke-miterlimit="10"/>
<path d="M375.184 861.875C373.23 860.617 370.881 858.641 371.802 856.453C372.846 853.787 376.845 854.822 379.268 856.319C392.143 864.378 404.179 873.707 415.196 884.165C418.889 887.677 422.599 891.543 424.35 896.254C426.375 901.707 425.089 910.674 418.258 912.166C410.941 913.767 409.464 903.104 407.159 898.295C400.063 883.439 388.997 870.834 375.184 861.875Z" stroke="#DEECF4" stroke-miterlimit="10"/>
<path d="M346.277 899.857C344.924 898.038 343.868 896.015 343.15 893.864C342.817 892.78 342.839 891.618 343.214 890.547C343.588 889.476 344.296 888.554 345.232 887.914C346.077 887.573 346.984 887.413 347.894 887.444C348.805 887.475 349.699 887.696 350.519 888.094C357.464 890.734 362.647 896.436 367.123 902.269C370.902 907.203 374.485 912.592 375.537 918.718C376.59 924.844 374.498 931.921 369.123 935.044C365.246 937.308 359.57 937.938 358.267 942.22C357.954 943.217 357.954 944.275 357.622 945.262C355.861 950.343 348.894 948.492 346.676 945.007C343.834 940.6 347.153 937.719 348.967 933.761C353.825 923.248 352.306 909.585 346.277 899.857Z" stroke="#DEECF4" stroke-miterlimit="10"/>
<path d="M351.78 903.729C350.816 901.956 349.773 899.638 351.085 898.106C352.398 896.574 354.828 897.238 356.435 898.38C359.405 900.514 361.218 903.853 362.889 907.107C364.965 911.208 367.018 915.642 366.443 920.21C365.935 924.381 360.272 937.239 357.852 927.793C355.722 919.393 356.114 911.692 351.78 903.729Z" stroke="#DEECF4" stroke-miterlimit="10"/>
<path d="M311.028 444.112C290.049 457.004 282.95 486.322 291.657 509.419C300.365 532.517 321.855 548.956 345.282 556.527C364.052 562.591 384.839 563.914 401.158 574.989C412.371 582.618 420.276 594.117 430.038 603.551C448.31 621.172 472.643 631.116 498.026 631.337C523.41 631.557 547.912 622.036 566.487 604.735C574.824 596.973 582.013 587.27 583.868 576.034C587.792 552.158 567.265 531.091 564.162 507.093C563.917 505.826 563.974 504.518 564.329 503.277C565.128 501.064 567.456 499.904 569.457 498.687C578.751 493.026 583.99 482.585 587.435 472.285C593.249 454.493 595.157 435.656 593.03 417.059C590.903 398.462 584.791 380.542 575.11 364.522L576.037 367.089" stroke="#DEECF4" stroke-miterlimit="10"/>
<path d="M286.176 453.941L285.604 455.396" stroke="#DEECF4" stroke-linecap="round" stroke-linejoin="round"/>
<path d="M283.371 461.184C278.858 473.067 274.858 485.225 273.623 497.824C272.017 513.002 274.807 529.185 284.163 541.242C296.27 556.872 316.585 562.729 334.918 569.96C354.218 577.598 372.526 587.536 389.445 599.56C408.233 612.932 425.477 628.985 446.565 638.289C478.398 652.312 515.87 649.119 548.107 636.088C554.757 633.639 560.996 630.193 566.611 625.869C572.763 620.817 577.424 614.228 581.889 607.637C591.463 593.677 601.263 578.048 599.576 561.198C598.007 545.418 586.391 530.248 591.02 515.102C592.717 509.521 596.449 504.844 599.401 499.818C614.594 474.024 608.76 441.527 602.44 412.266C598.469 393.843 594.491 375.416 590.507 356.985" stroke="#DEECF4" stroke-linecap="round" stroke-linejoin="round" stroke-dasharray="2 4"/>
<path d="M589.868 353.902L589.539 352.38" stroke="#DEECF4" stroke-linecap="round" stroke-linejoin="round"/>
<path d="M557.912 695.314C568.534 692.905 579.022 688.618 587.032 681.206C595.043 673.794 600.282 662.898 599.12 652.051C598.685 647.99 597.189 643.766 593.888 641.365C589.871 638.413 584.147 638.945 579.697 641.198C575.246 643.452 571.748 647.14 568.057 650.533C554.861 662.814 538.066 672.122 520.048 672.916C511.115 673.297 501.946 671.637 493.395 674.206C487.056 676.11 482.867 681.944 488.419 687.022C492.847 691.095 504.081 693.146 509.831 694.609C525.578 698.636 542.054 698.878 557.912 695.314Z" stroke="#DEECF4" stroke-miterlimit="10"/>
<path d="M552.29 688.81C561.803 687.947 570.887 684.445 578.517 678.699C582.771 675.385 586.686 670.063 584.854 665.004C583.42 661.021 578.743 658.95 574.526 659.256C570.308 659.561 566.466 661.732 562.921 664.067C556.32 668.434 550.03 673.611 542.467 675.911C537.454 677.434 532.243 677.588 527.09 678.375C523.693 678.952 517.801 681.884 522.554 685.25C525.866 687.583 532.572 687.922 536.493 688.462C541.725 689.212 547.029 689.328 552.29 688.81Z" stroke="#DEECF4" stroke-miterlimit="10"/>
<path d="M591.936 742.653C590.006 744.55 588.643 746.948 588.002 749.577C586.572 755.226 587.128 761.194 589.577 766.482C592.025 771.769 596.217 776.054 601.449 778.618C611.768 783.327 626.201 781.672 632.034 791.399C635.085 796.504 634.563 803.448 638.591 807.846C641.566 811.103 646.287 812.052 650.691 812.272C664.853 812.953 678.868 807.688 690.56 799.574C702.253 791.46 711.691 780.655 720.232 769.342C725.827 761.913 731.126 754.124 734.311 745.39C737.879 735.571 738.631 724.953 738.719 714.5C738.905 692.11 736.19 669.713 737.273 647.374C738.355 625.036 743.649 601.971 757.816 584.636C764.669 576.263 773.36 569.495 779.906 560.879C792.826 543.866 795.492 518.165 782.262 501.482C774.126 491.181 761.092 485.428 747.996 484.418C734.9 483.409 721.775 486.742 709.759 492.093C691.947 500.02 675.682 513.033 667.613 530.79C659.544 548.547 660.376 569.452 660.767 589.245C661.349 619.327 660.203 649.416 657.337 679.366C656.343 689.59 655.113 699.989 650.854 709.331C645.73 720.582 636.639 728.734 625.682 734.085C621.457 736.353 616.947 738.041 612.272 739.106C605.473 740.344 597.627 737.539 591.936 742.653Z" stroke="#DEECF4" stroke-miterlimit="10"/>
<path d="M618.431 766.66C624.603 767.514 631.529 767.424 636.058 771.709C641.569 776.914 640.892 786.205 645.795 791.998C648.416 794.817 651.854 796.747 655.626 797.516C668.017 800.577 681.439 795.341 691.076 786.866C700.714 778.39 707.275 767.05 713.341 755.739C719.89 743.555 726.16 730.81 727.606 717.052C728.143 710.368 728.042 703.649 727.306 696.985C725.604 676.361 722.917 655.665 723.863 634.968C724.808 614.27 729.667 593.186 741.669 576.307C749.075 565.866 759.112 557.115 764.259 545.433C769.407 533.751 767.361 517.099 755.61 512.039C751.294 510.178 746.452 510.213 741.761 510.264C730.978 510.363 720.058 510.491 709.624 513.23C699.19 515.969 689.127 521.618 683.243 530.671C678.815 537.478 677.09 545.691 675.412 553.595C670.67 576.303 665.901 599.279 666.414 622.47C666.611 631.088 667.534 639.682 667.716 648.304C668.333 676.755 661.691 711.364 645.924 735.585C640.139 744.492 632.599 747.517 622.423 749.342C617.279 750.256 606.34 749.119 604.729 755.064C602.945 762.091 613.555 765.989 618.431 766.66Z" stroke="#DEECF4" stroke-miterlimit="10"/>
<path d="M695.735 550.411C696.312 547.136 697.413 543.975 698.994 541.05C701.359 537.416 704.591 534.429 708.399 532.357C713.307 529.401 719.187 527.239 724.712 528.71C731.312 530.484 735.746 537.243 736.43 544.042C737.114 550.84 734.686 557.636 731.354 563.6C728.022 569.564 723.914 575.094 720.728 581.108C716.303 589.332 713.678 598.389 709.76 606.872C707.176 612.431 703.621 618.109 697.994 620.45C692.366 622.791 684.297 619.7 683.744 613.657C683.714 611.116 684.319 608.608 685.505 606.361C689.259 597.573 692.981 590.294 693.169 580.803C693.333 570.684 692.951 560.285 695.735 550.411Z" stroke="#DEECF4" stroke-miterlimit="10"/>
<path d="M647.428 750.311C645.741 753.251 645.226 757.147 647.131 759.968C651.634 760.14 656.926 760.742 659.081 764.687C660.986 768.159 659.475 772.703 660.982 776.304C663.122 781.361 670.406 782.328 675.15 779.573C679.894 776.817 682.592 771.612 684.882 766.653C698.195 737.393 705.323 705.7 705.819 673.557C705.888 669.186 705.638 664.332 702.573 661.202C698.1 656.639 689.83 658.613 685.713 663.512C675.057 676.242 679.443 698.114 674.691 713.284C669.767 728.933 655.071 736.926 647.428 750.311Z" stroke="#DEECF4" stroke-miterlimit="10"/>
<path d="M662.692 752.785C662.857 753.269 663.139 753.704 663.513 754.052C663.887 754.399 664.342 754.65 664.835 754.78C665.556 754.776 666.275 754.707 666.984 754.573C667.68 754.608 668.354 754.83 668.934 755.216C669.514 755.601 669.98 756.136 670.282 756.764C670.841 758.057 671.151 759.443 671.196 760.85C671.196 761.755 671.482 762.638 672.012 763.372C672.501 763.826 673.133 764.098 673.799 764.141C674.466 764.183 675.127 763.994 675.671 763.605C676.744 762.802 677.582 761.727 678.1 760.49C681.866 753.148 683.747 745.015 685.593 736.975L688.924 722.493C688.994 722.31 689.022 722.114 689.007 721.919C688.992 721.724 688.933 721.535 688.836 721.365C688.569 721.044 688.069 721.059 687.652 721.129C682.905 722.013 679.699 726.404 677.387 730.638C674.731 735.52 673.106 739.156 667.913 741.178C663.245 743.062 660.388 747.928 662.692 752.785Z" stroke="#DEECF4" stroke-miterlimit="10"/>
<path d="M697.234 609.49C696.584 609.651 695.897 609.552 695.32 609.213C695.001 608.89 694.771 608.49 694.652 608.052C694.534 607.613 694.53 607.152 694.642 606.712C695.315 601.087 699.511 596.586 701.889 591.501C704.951 585.103 705.261 577.804 705.981 570.763C706.701 563.722 708.066 556.309 712.599 550.934C713.797 549.602 715.513 548.363 717.085 549.093C717.981 549.634 718.627 550.509 718.881 551.525C720.159 555.811 720.08 560.388 718.656 564.628C717.226 568.859 715.468 572.972 713.4 576.931C710.519 583.176 708.031 589.594 705.95 596.149C704.13 601.754 704.493 608.315 697.234 609.49Z" stroke="#DEECF4" stroke-miterlimit="10"/>
<path d="M808.962 277.329C795.96 294.792 790.302 316.982 790.288 338.746C790.274 360.511 795.625 381.991 802.91 402.502C806.218 411.824 810.04 421.175 816.387 428.764C830.192 445.262 853.052 450.476 874.343 453.558C886.545 455.329 899.049 456.725 911.156 454.422C939.595 449.036 960.421 424.694 975.292 399.867C990.164 375.04 1002.05 347.579 1023.41 328.065C1045.44 307.909 1075.47 298.298 1097.52 278.216C1130 248.656 1139.97 200.216 1132.73 156.906" stroke="#DEECF4" stroke-miterlimit="10"/>
<path d="M726.52 461.574C719.26 463.352 709.823 465.345 705.767 459.05C702.838 454.574 704.996 448.306 708.803 444.566C712.611 440.826 717.741 438.76 722.309 435.964C729.693 431.417 735.68 424.921 739.611 417.191C748.451 399.853 747.382 376.353 762.997 364.756C765.563 362.868 769.207 361.445 771.832 363.267C775.071 365.477 774.051 370.481 772.899 374.323C767.908 390.417 767.535 409.056 777.021 422.977C787.058 437.745 806.411 444.907 814.256 460.954C817.749 468.131 819.191 481.753 808.742 482.282C802.609 482.556 789.319 469.866 783.124 467.129C765.375 459.122 745.486 457.17 726.52 461.574Z" stroke="#DEECF4" stroke-miterlimit="10"/>
<path d="M749.367 427.213C746.203 430.826 740.444 432.509 739.363 437.175C739.199 438.184 739.278 439.218 739.593 440.191C739.909 441.164 740.451 442.047 741.177 442.768C741.902 443.489 742.789 444.026 743.763 444.336C744.738 444.646 745.772 444.719 746.78 444.549C750.715 443.569 753.001 438.954 756.982 438.171C762.344 437.121 767.166 443.624 772.452 442.289C773.344 442.099 774.14 441.599 774.699 440.878C775.811 439.281 775.101 437.084 774.269 435.317C771.827 430.011 768.844 424.972 765.366 420.28C764.459 418.901 763.299 417.707 761.948 416.759C759.443 415.208 753.463 414.748 751.665 417.397C750.066 419.755 752.055 424.194 749.367 427.213Z" stroke="#DEECF4" stroke-miterlimit="10"/>
<path d="M847.565 1007.35C836.286 999.317 827.524 988.339 817.756 978.533C780.03 940.698 727.987 921.142 676.656 906.308C667.456 903.648 658.021 901.015 650.09 895.631C642.16 890.247 635.828 881.496 636.017 871.907C636.352 854.257 656.474 844.508 673.615 840.349C693.084 835.682 713.043 832.729 731.84 825.835C750.638 818.942 768.654 807.415 778.217 789.793C784.121 778.991 786.463 766.539 786.848 754.232C787.73 725.834 778.583 698.106 776.362 669.784C774.141 641.461 781.194 609.179 805.177 594.093C836.474 574.427 879.144 593.203 913.805 580.364C931.252 573.875 944.715 560.107 957.539 546.676L1002.57 499.913C1011.98 490.142 1021.73 480.114 1034.2 474.732C1046.66 469.35 1062.63 469.723 1072.26 479.278C1080.68 487.631 1082.33 500.878 1080.12 512.571C1077.9 524.265 1072.41 534.934 1068.31 546.066C1058.42 573.02 1056.59 602.271 1063.06 630.245C1070.3 661.372 1087.41 689.147 1098.69 719.085C1100.9 724.966 1102.92 731.203 1102.09 737.435C1101.13 742.758 1098.82 747.743 1095.36 751.905C1061.96 795.675 986.169 782.87 950.497 824.816C931.032 847.675 929.393 880.129 924.819 909.802C920.492 937.796 912.794 965.164 901.893 991.309C897.726 1001.29 893.41 1014.18 881.93 1017.21C870.449 1020.24 856.462 1013.71 847.565 1007.35Z" stroke="#DEECF4" stroke-miterlimit="10" stroke-dasharray="2 4"/>
<path d="M809.287 723.293C802.998 703.192 795.018 683.1 794.996 662.031C794.974 640.962 805.328 618.133 825.143 611.009C838.098 606.346 852.487 609.137 865.684 613.078C873.763 615.498 881.98 618.492 888.118 624.276C894.256 630.06 897.863 639.302 894.784 647.155C889.48 660.972 869.77 661.319 858.321 670.739C849.582 677.914 846.411 689.917 845.844 701.209C845.277 712.5 846.861 723.894 845.394 735.07C843.926 746.245 838.406 757.884 828.141 762.605C803.418 773.842 812.984 735.127 809.287 723.293Z" stroke="#DEECF4" stroke-miterlimit="10"/>
<path d="M680.083 867.852C677.417 868.926 674.669 870.401 673.348 872.962C671.113 877.333 674.04 882.657 677.696 885.954C688.634 895.805 704.754 896.342 718.89 900.467C736.223 905.514 751.191 916.342 765.789 926.98C790.339 944.873 814.937 962.815 837.569 983.087C843.004 987.958 848.482 993.06 855.24 995.826C861.998 998.592 870.468 998.491 875.868 993.585C880.617 989.28 881.948 982.416 882.774 976.057C885.541 954.396 885.581 932.411 888.373 910.725C891.165 889.039 897.095 867.185 910.18 849.679C913.895 844.748 918.201 840.131 920.76 834.498C924.61 826.005 924.047 816.154 922.075 807.035C919.93 797.028 916.093 787.177 909.374 779.447C902.656 771.717 892.784 766.375 882.563 766.7C868.891 767.131 856.832 777.236 843.149 777.231C832.563 777.234 821.802 771.105 811.855 774.745C803.973 777.571 799.239 785.748 797.054 793.849C794.869 801.95 794.543 810.46 791.977 818.44C786.437 835.558 770.976 848.034 754.153 854.436C730.371 863.495 703.299 858.553 680.083 867.852Z" stroke="#DEECF4" stroke-miterlimit="10"/>
<path d="M838.318 971.101C830.481 965.704 824.017 958.608 817.285 951.843C786.18 920.814 748.702 896.916 707.447 881.805C704.956 880.901 701.881 878.898 702.825 876.427C703.209 875.602 703.843 874.919 704.636 874.473C711.134 870.14 719.507 870.396 727.306 870.236C735.033 870.083 742.738 869.366 750.359 868.09C756.667 867.148 762.853 865.524 768.811 863.247C775.204 860.469 781.352 857.157 787.189 853.345C795.03 848.529 803.396 843.022 806.322 834.242C808.136 828.769 807.401 822.72 808.178 816.963C808.955 811.207 812.074 804.937 817.76 803.733C819.834 803.399 821.956 803.494 823.991 804.015C829.988 805.333 835.676 807.761 841.77 808.624C849.723 809.749 857.771 808.042 865.795 807.369C873.819 806.696 882.516 807.45 888.729 812.559C891.017 814.457 892.841 816.852 894.062 819.562C895.282 822.273 895.868 825.226 895.773 828.197C895.497 834.948 891.708 841.06 887.281 846.156C882.854 851.253 877.634 855.661 873.582 861.059C861.509 877.163 861.478 899.178 863.289 919.131C864.635 934.071 866.733 949.322 864.369 964.273C863.604 969.211 862.412 976.453 856.694 977.912C850.977 979.37 842.882 974.235 838.318 971.101Z" stroke="#DEECF4" stroke-linecap="round" stroke-linejoin="round" stroke-dasharray="1.99 3.98"/>
<path d="M780.619 875.585C790.731 872.706 800.999 869.353 809.256 862.855C813.174 859.573 816.808 855.968 820.12 852.077C822.908 849.143 825.429 845.968 827.655 842.588C830.077 838.547 831.992 833.839 836.138 831.701C839.707 829.895 843.911 830.555 847.894 831.237C852.244 831.997 856.935 832.955 859.886 836.236C863.811 840.618 863.102 847.542 860.648 852.896C858.194 858.25 854.266 862.876 852.129 868.355C850.631 872.804 849.734 877.432 849.462 882.118C848.153 894.691 846.883 907.383 847.432 919.959C847.813 923.754 847.704 927.583 847.109 931.35C846.787 933.232 846.024 935.01 844.883 936.54C843.741 938.07 842.253 939.308 840.542 940.152C836.828 941.663 832.482 940.413 829.2 938.071C826.101 935.527 823.357 932.58 821.04 929.308C810.188 915.855 796.475 904.989 780.898 897.499C774.979 894.658 768.629 892.297 762.089 892.474C758.574 892.585 754.931 893.405 751.598 892.267C749.19 891.417 746.282 888.368 747.326 885.603C748.37 882.839 753.289 882.486 755.901 881.901C764.187 880.025 772.427 877.92 780.619 875.585Z" stroke="#DEECF4" stroke-miterlimit="10"/>
<path d="M291.141 618.371L294.679 629.312" stroke="#DEECF4" stroke-miterlimit="10"/>
<path d="M298.381 622.072L287.44 625.611" stroke="#DEECF4" stroke-miterlimit="10"/>
<path d="M614.041 712.897L617.575 723.823" stroke="#DEECF4" stroke-miterlimit="10"/>
<path d="M621.276 716.584L610.335 720.122" stroke="#DEECF4" stroke-miterlimit="10"/>
<path d="M390.018 1050.83L392.178 1040.73L399.842 1047.65L390.018 1050.83Z" stroke="#DEECF4"/>
<path d="M348.253 626.152L350.416 616.067L358.075 622.975L348.253 626.152Z" stroke="#DEECF4"/>
</svg>
